<svg xmlns="http://www.w3.org/2000/svg" xmlns:xlink="http://www.w3.org/1999/xlink" width="343" height="381" viewBox="0 0 343 381">
  <defs>
    <filter id="Sustracción_3" x="0" y="0" width="343" height="381" filterUnits="userSpaceOnUse">
      <feOffset dy="6" input="SourceAlpha"/>
      <feGaussianBlur stdDeviation="8" result="blur"/>
      <feFlood flood-opacity="0.161"/>
      <feComposite operator="in" in2="blur"/>
      <feComposite in="SourceGraphic"/>
    </filter>
  </defs>
  <g id="Grupo_874364" data-name="Grupo 874364" transform="translate(-944 -1797.999)">
    <g transform="matrix(1, 0, 0, 1, 944, 1798)" filter="url(#Sustracción_3)">
      <path id="Sustracción_3-2" data-name="Sustracción 3" d="M280,333H15A15,15,0,0,1,0,318V79.712c.155,0,.324.006.5.006a21.2,21.2,0,0,0,8.368-1.7,21.418,21.418,0,0,0,6.834-4.65,21.636,21.636,0,0,0,4.607-6.9,21.95,21.95,0,0,0,0-16.889,21.636,21.636,0,0,0-4.607-6.9,21.419,21.419,0,0,0-6.834-4.65A21.2,21.2,0,0,0,.5,36.327c-.164,0-.332,0-.5.006V15A15,15,0,0,1,15,0H280a15,15,0,0,1,15,15V318a15,15,0,0,1-15,15Z" transform="translate(24 18)" fill="#a2a7c5"/>
    </g>
    <path id="Trazado_596937" data-name="Trazado 596937" d="M9.578,7.523H6.094V17H3.75V7.523H.313v-1.9H9.578ZM8.789,12.7a5.013,5.013,0,0,1,.484-2.242A3.546,3.546,0,0,1,10.668,8.93a4.069,4.069,0,0,1,2.113-.539,3.849,3.849,0,0,1,2.793,1.047,4.2,4.2,0,0,1,1.207,2.844l.016.578a4.418,4.418,0,0,1-1.086,3.121A3.775,3.775,0,0,1,12.8,17.156a3.793,3.793,0,0,1-2.918-1.172A4.5,4.5,0,0,1,8.789,12.8Zm2.258.16A3.16,3.16,0,0,0,11.5,14.7a1.5,1.5,0,0,0,1.3.638,1.5,1.5,0,0,0,1.281-.63,3.457,3.457,0,0,0,.461-2.015,3.128,3.128,0,0,0-.461-1.831,1.5,1.5,0,0,0-1.3-.649,1.474,1.474,0,0,0-1.281.646A3.516,3.516,0,0,0,11.047,12.856Zm14.75,0a5.07,5.07,0,0,1-.887,3.129,2.843,2.843,0,0,1-2.395,1.176,2.633,2.633,0,0,1-2.07-.891V20.25H18.188V8.547h2.094l.078.828A2.654,2.654,0,0,1,22.5,8.391a2.862,2.862,0,0,1,2.43,1.156,5.207,5.207,0,0,1,.867,3.188Zm-2.258-.164a3.327,3.327,0,0,0-.418-1.82,1.361,1.361,0,0,0-1.215-.641,1.478,1.478,0,0,0-1.461.813V14.5a1.5,1.5,0,0,0,1.477.836Q23.539,15.336,23.539,12.688Zm3.3.008a5.013,5.013,0,0,1,.484-2.242A3.546,3.546,0,0,1,28.723,8.93a4.069,4.069,0,0,1,2.113-.539,3.849,3.849,0,0,1,2.793,1.047,4.2,4.2,0,0,1,1.207,2.844l.016.578a4.418,4.418,0,0,1-1.086,3.121,3.775,3.775,0,0,1-2.914,1.176,3.793,3.793,0,0,1-2.918-1.172,4.5,4.5,0,0,1-1.09-3.187Zm2.258.16a3.16,3.16,0,0,0,.453,1.843,1.628,1.628,0,0,0,2.578.008,3.457,3.457,0,0,0,.461-2.015,3.128,3.128,0,0,0-.461-1.831,1.5,1.5,0,0,0-1.3-.649,1.474,1.474,0,0,0-1.281.646A3.516,3.516,0,0,0,29.1,12.856ZM40.82,14.664a.727.727,0,0,0-.41-.652,4.659,4.659,0,0,0-1.316-.426q-3.016-.633-3.016-2.562a2.323,2.323,0,0,1,.934-1.879,3.766,3.766,0,0,1,2.441-.754,4.053,4.053,0,0,1,2.574.758,2.388,2.388,0,0,1,.965,1.969H40.734a1.092,1.092,0,0,0-.312-.8A1.322,1.322,0,0,0,39.445,10a1.351,1.351,0,0,0-.883.258.814.814,0,0,0-.312.656.7.7,0,0,0,.355.605,3.657,3.657,0,0,0,1.2.4,9.8,9.8,0,0,1,1.422.379,2.336,2.336,0,0,1,1.789,2.273,2.2,2.2,0,0,1-.992,1.871,4.28,4.28,0,0,1-2.562.715,4.47,4.47,0,0,1-1.887-.379,3.166,3.166,0,0,1-1.293-1.039,2.414,2.414,0,0,1-.469-1.426h2.141a1.179,1.179,0,0,0,.445.922,1.766,1.766,0,0,0,1.109.32,1.635,1.635,0,0,0,.98-.246A.766.766,0,0,0,40.82,14.664Z" transform="translate(1094 1865)" fill="#12263f"/>
    <path id="Trazado_596938" data-name="Trazado 596938" d="M10.063,17H8.555V11.742H2.82V17H1.32V5.625h1.5v4.891H8.555V5.625h1.508Zm7.656,0a3.036,3.036,0,0,1-.2-.891,3.225,3.225,0,0,1-2.406,1.047,2.984,2.984,0,0,1-2.051-.707,2.287,2.287,0,0,1-.8-1.793,2.39,2.39,0,0,1,1-2.051,4.733,4.733,0,0,1,2.824-.73h1.406v-.664A1.623,1.623,0,0,0,17.039,10,1.821,1.821,0,0,0,15.7,9.555a2.107,2.107,0,0,0-1.3.391,1.151,1.151,0,0,0-.523.945H12.43a2,2,0,0,1,.449-1.223A3.066,3.066,0,0,1,14.1,8.734a4.1,4.1,0,0,1,1.691-.344,3.342,3.342,0,0,1,2.289.73,2.635,2.635,0,0,1,.859,2.012v3.891a4.757,4.757,0,0,0,.3,1.852V17Zm-2.4-1.1a2.54,2.54,0,0,0,1.289-.352,2.127,2.127,0,0,0,.883-.914V12.9H16.359q-2.656,0-2.656,1.555a1.316,1.316,0,0,0,.453,1.063A1.742,1.742,0,0,0,15.32,15.9Zm9.273.078a2.082,2.082,0,0,0,1.352-.469,1.649,1.649,0,0,0,.641-1.172h1.367a2.621,2.621,0,0,1-.5,1.383,3.293,3.293,0,0,1-1.23,1.047,3.55,3.55,0,0,1-1.629.391A3.482,3.482,0,0,1,21.848,16a4.59,4.59,0,0,1-1.02-3.152v-.242a5.089,5.089,0,0,1,.453-2.2,3.451,3.451,0,0,1,1.3-1.492,3.7,3.7,0,0,1,2-.531,3.39,3.39,0,0,1,2.363.852,3.043,3.043,0,0,1,1,2.211H26.586a1.992,1.992,0,0,0-.621-1.348,1.932,1.932,0,0,0-1.379-.527,2.023,2.023,0,0,0-1.707.793,3.724,3.724,0,0,0-.605,2.293v.273a3.65,3.65,0,0,0,.6,2.25A2.033,2.033,0,0,0,24.594,15.977Zm8.492,1.18a3.693,3.693,0,0,1-2.8-1.129,4.19,4.19,0,0,1-1.078-3.02v-.266a5.073,5.073,0,0,1,.48-2.246,3.748,3.748,0,0,1,1.344-1.547,3.378,3.378,0,0,1,1.871-.559,3.166,3.166,0,0,1,2.563,1.086,4.7,4.7,0,0,1,.914,3.109v.6H30.656a3,3,0,0,0,.73,2.02,2.3,2.3,0,0,0,1.777.77,2.517,2.517,0,0,0,1.3-.312,3.259,3.259,0,0,0,.93-.828l.883.688A3.55,3.55,0,0,1,33.086,17.156Zm-.18-7.578a1.928,1.928,0,0,0-1.469.637A3.1,3.1,0,0,0,30.7,12h4.234v-.109a2.753,2.753,0,0,0-.594-1.707A1.815,1.815,0,0,0,32.906,9.578Zm13.2.266a4.331,4.331,0,0,0-.711-.055A1.9,1.9,0,0,0,43.461,11v6H42.016V8.547h1.406l.023.977a2.251,2.251,0,0,1,2.016-1.133A1.477,1.477,0,0,1,46.1,8.5Zm4.836,7.313a3.693,3.693,0,0,1-2.8-1.129,4.19,4.19,0,0,1-1.078-3.02v-.266a5.073,5.073,0,0,1,.48-2.246,3.748,3.748,0,0,1,1.344-1.547,3.378,3.378,0,0,1,1.871-.559A3.166,3.166,0,0,1,53.32,9.477a4.7,4.7,0,0,1,.914,3.109v.6H48.508a3,3,0,0,0,.73,2.02,2.3,2.3,0,0,0,1.777.77,2.517,2.517,0,0,0,1.3-.312,3.259,3.259,0,0,0,.93-.828l.883.688A3.55,3.55,0,0,1,50.938,17.156Zm-.18-7.578a1.928,1.928,0,0,0-1.469.637A3.1,3.1,0,0,0,48.555,12h4.234v-.109a2.753,2.753,0,0,0-.594-1.707A1.815,1.815,0,0,0,50.758,9.578ZM56.617,17V9.664H55.281V8.547h1.336V7.68a2.878,2.878,0,0,1,.727-2.1A2.745,2.745,0,0,1,59.4,4.836a3.816,3.816,0,0,1,.992.132l-.078,1.165a4.151,4.151,0,0,0-.781-.07,1.41,1.41,0,0,0-1.086.411,1.669,1.669,0,0,0-.383,1.18v.893h1.8V9.664h-1.8V17Zm8.352.156a3.693,3.693,0,0,1-2.8-1.129,4.19,4.19,0,0,1-1.078-3.02v-.266a5.073,5.073,0,0,1,.48-2.246,3.748,3.748,0,0,1,1.344-1.547,3.378,3.378,0,0,1,1.871-.559,3.166,3.166,0,0,1,2.563,1.086,4.7,4.7,0,0,1,.914,3.109v.6H62.539a3,3,0,0,0,.73,2.02,2.3,2.3,0,0,0,1.777.77,2.517,2.517,0,0,0,1.3-.312,3.259,3.259,0,0,0,.93-.828l.883.688A3.55,3.55,0,0,1,64.969,17.156Zm-.18-7.578a1.928,1.928,0,0,0-1.469.637A3.1,3.1,0,0,0,62.586,12H66.82v-.109a2.753,2.753,0,0,0-.594-1.707A1.815,1.815,0,0,0,64.789,9.578Zm9.234.266a4.331,4.331,0,0,0-.711-.055A1.9,1.9,0,0,0,71.383,11v6H69.938V8.547h1.406l.023.977a2.251,2.251,0,0,1,2.016-1.133,1.477,1.477,0,0,1,.641.109Zm4.836,7.313a3.693,3.693,0,0,1-2.8-1.129,4.19,4.19,0,0,1-1.078-3.02v-.266a5.073,5.073,0,0,1,.48-2.246,3.748,3.748,0,0,1,1.344-1.547,3.378,3.378,0,0,1,1.871-.559,3.166,3.166,0,0,1,2.563,1.086,4.7,4.7,0,0,1,.914,3.109v.6H76.43a3,3,0,0,0,.73,2.02,2.3,2.3,0,0,0,1.777.77,2.517,2.517,0,0,0,1.3-.312,3.259,3.259,0,0,0,.93-.828l.883.688A3.55,3.55,0,0,1,78.859,17.156Zm-.18-7.578a1.928,1.928,0,0,0-1.469.637A3.1,3.1,0,0,0,76.477,12h4.234v-.109a2.753,2.753,0,0,0-.594-1.707A1.815,1.815,0,0,0,78.68,9.578ZM85.2,8.547l.047,1.063a3.08,3.08,0,0,1,2.531-1.219q2.68,0,2.7,3.023V17H89.031V11.406a1.946,1.946,0,0,0-.418-1.352,1.675,1.675,0,0,0-1.277-.437,2.086,2.086,0,0,0-1.234.375,2.546,2.546,0,0,0-.828.984V17H83.828V8.547Zm10.852,7.43a2.082,2.082,0,0,0,1.352-.469,1.649,1.649,0,0,0,.641-1.172h1.367a2.621,2.621,0,0,1-.5,1.383,3.293,3.293,0,0,1-1.23,1.047,3.55,3.55,0,0,1-1.629.391A3.482,3.482,0,0,1,93.3,16a4.59,4.59,0,0,1-1.02-3.152v-.242a5.089,5.089,0,0,1,.453-2.2,3.451,3.451,0,0,1,1.3-1.492,3.7,3.7,0,0,1,2-.531,3.39,3.39,0,0,1,2.363.852,3.043,3.043,0,0,1,1,2.211H98.039a1.992,1.992,0,0,0-.621-1.348,1.932,1.932,0,0,0-1.379-.527,2.023,2.023,0,0,0-1.707.793,3.724,3.724,0,0,0-.605,2.293v.273a3.65,3.65,0,0,0,.6,2.25A2.033,2.033,0,0,0,96.047,15.977ZM102.6,17h-1.445V8.547H102.6ZM101.039,6.3a.863.863,0,0,1,.215-.594.807.807,0,0,1,.637-.242.819.819,0,0,1,.641.242.854.854,0,0,1,.219.594.826.826,0,0,1-.219.586.834.834,0,0,1-.641.234.821.821,0,0,1-.637-.234A.834.834,0,0,1,101.039,6.3ZM110.133,17a3.036,3.036,0,0,1-.2-.891,3.225,3.225,0,0,1-2.406,1.047,2.984,2.984,0,0,1-2.051-.707,2.288,2.288,0,0,1-.8-1.793,2.39,2.39,0,0,1,1-2.051,4.733,4.733,0,0,1,2.824-.73h1.406v-.664A1.623,1.623,0,0,0,109.453,10a1.821,1.821,0,0,0-1.336-.449,2.108,2.108,0,0,0-1.3.391,1.151,1.151,0,0,0-.523.945h-1.453a2,2,0,0,1,.449-1.223,3.066,3.066,0,0,1,1.219-.934,4.1,4.1,0,0,1,1.691-.344,3.342,3.342,0,0,1,2.289.73,2.635,2.635,0,0,1,.859,2.012v3.891a4.757,4.757,0,0,0,.3,1.852V17Zm-2.4-1.1a2.54,2.54,0,0,0,1.289-.352,2.127,2.127,0,0,0,.883-.914V12.9h-1.133q-2.656,0-2.656,1.555a1.316,1.316,0,0,0,.453,1.063A1.742,1.742,0,0,0,107.734,15.9ZM122.8,17a3.036,3.036,0,0,1-.2-.891,3.225,3.225,0,0,1-2.406,1.047,2.984,2.984,0,0,1-2.051-.707,2.288,2.288,0,0,1-.8-1.793,2.39,2.39,0,0,1,1-2.051,4.733,4.733,0,0,1,2.824-.73h1.406v-.664A1.623,1.623,0,0,0,122.117,10a1.821,1.821,0,0,0-1.336-.449,2.108,2.108,0,0,0-1.3.391,1.151,1.151,0,0,0-.523.945h-1.453a2,2,0,0,1,.449-1.223,3.066,3.066,0,0,1,1.219-.934,4.1,4.1,0,0,1,1.691-.344,3.342,3.342,0,0,1,2.289.73,2.635,2.635,0,0,1,.859,2.012v3.891a4.757,4.757,0,0,0,.3,1.852V17Zm-2.4-1.1a2.54,2.54,0,0,0,1.289-.352,2.127,2.127,0,0,0,.883-.914V12.9h-1.133q-2.656,0-2.656,1.555a1.316,1.316,0,0,0,.453,1.063A1.742,1.742,0,0,0,120.4,15.9Zm7.453,1.1h-1.445V5h1.445Zm8.234-10.5V8.547h1.578V9.664h-1.578v5.249a1.173,1.173,0,0,0,.211.763.888.888,0,0,0,.719.254,3.5,3.5,0,0,0,.688-.094V17a4.215,4.215,0,0,1-1.109.155,1.8,1.8,0,0,1-1.461-.586,2.517,2.517,0,0,1-.492-1.664V9.664H133.1V8.547h1.539V6.5ZM140.922,17h-1.445V8.547h1.445ZM139.359,6.3a.863.863,0,0,1,.215-.594.807.807,0,0,1,.637-.242.819.819,0,0,1,.641.242.854.854,0,0,1,.219.594.826.826,0,0,1-.219.586.834.834,0,0,1-.641.234.821.821,0,0,1-.637-.234A.834.834,0,0,1,139.359,6.3Zm7.383,10.852a3.693,3.693,0,0,1-2.8-1.129,4.19,4.19,0,0,1-1.078-3.02v-.266a5.073,5.073,0,0,1,.48-2.246,3.748,3.748,0,0,1,1.344-1.547,3.378,3.378,0,0,1,1.871-.559,3.166,3.166,0,0,1,2.563,1.086,4.7,4.7,0,0,1,.914,3.109v.6h-5.727a3,3,0,0,0,.73,2.02,2.3,2.3,0,0,0,1.777.77,2.517,2.517,0,0,0,1.3-.312,3.258,3.258,0,0,0,.93-.828l.883.688A3.55,3.55,0,0,1,146.742,17.156Zm-.18-7.578a1.928,1.928,0,0,0-1.469.637A3.1,3.1,0,0,0,144.359,12h4.234v-.109A2.753,2.753,0,0,0,148,10.184,1.815,1.815,0,0,0,146.563,9.578Zm6.508-1.031.039.938a3.122,3.122,0,0,1,2.508-1.094,2.417,2.417,0,0,1,2.414,1.359,3.2,3.2,0,0,1,1.1-.984,3.242,3.242,0,0,1,1.6-.375q2.781,0,2.828,2.945V17h-1.445V11.422a1.941,1.941,0,0,0-.414-1.355,1.823,1.823,0,0,0-1.391-.449,1.917,1.917,0,0,0-1.336.48,1.949,1.949,0,0,0-.617,1.293V17H156.9V11.461a1.613,1.613,0,0,0-1.8-1.844,1.934,1.934,0,0,0-1.945,1.211V17H151.7V8.547Zm19.8,4.32a5.062,5.062,0,0,1-.883,3.109,2.829,2.829,0,0,1-2.391,1.18,3.1,3.1,0,0,1-2.422-.977v4.07h-1.445V8.547h1.32l.07.938a2.977,2.977,0,0,1,2.453-1.094,2.882,2.882,0,0,1,2.41,1.148,5.117,5.117,0,0,1,.887,3.2ZM171.43,12.7a3.735,3.735,0,0,0-.609-2.258,1.963,1.963,0,0,0-1.672-.828,2.125,2.125,0,0,0-1.969,1.164V14.82a2.129,2.129,0,0,0,1.984,1.156,1.954,1.954,0,0,0,1.652-.824A4.077,4.077,0,0,0,171.43,12.7Zm2.9-.008a4.993,4.993,0,0,1,.488-2.234,3.642,3.642,0,0,1,1.359-1.531,3.7,3.7,0,0,1,1.988-.539,3.565,3.565,0,0,1,2.793,1.2,4.6,4.6,0,0,1,1.066,3.18v.1a5.036,5.036,0,0,1-.473,2.215,3.589,3.589,0,0,1-1.352,1.527,3.743,3.743,0,0,1-2.02.547,3.556,3.556,0,0,1-2.785-1.2,4.575,4.575,0,0,1-1.066-3.164Zm1.453.172a3.616,3.616,0,0,0,.652,2.258,2.211,2.211,0,0,0,3.5-.012,3.954,3.954,0,0,0,.648-2.418,3.61,3.61,0,0,0-.66-2.254,2.1,2.1,0,0,0-1.754-.863,2.075,2.075,0,0,0-1.727.852A3.925,3.925,0,0,0,175.781,12.867Zm11.633-.172a4.993,4.993,0,0,1,.488-2.234,3.642,3.642,0,0,1,1.359-1.531,3.7,3.7,0,0,1,1.988-.539,3.565,3.565,0,0,1,2.793,1.2,4.6,4.6,0,0,1,1.066,3.18v.1a5.036,5.036,0,0,1-.473,2.215,3.589,3.589,0,0,1-1.352,1.527,3.743,3.743,0,0,1-2.02.547,3.556,3.556,0,0,1-2.785-1.2,4.575,4.575,0,0,1-1.066-3.164Zm1.453.172a3.616,3.616,0,0,0,.652,2.258,2.211,2.211,0,0,0,3.5-.012,3.954,3.954,0,0,0,.648-2.418,3.61,3.61,0,0,0-.66-2.254,2.1,2.1,0,0,0-1.754-.863,2.075,2.075,0,0,0-1.727.852A3.925,3.925,0,0,0,188.867,12.867ZM4.6,41.156a3.693,3.693,0,0,1-2.8-1.129,4.19,4.19,0,0,1-1.078-3.02v-.266a5.073,5.073,0,0,1,.48-2.246,3.748,3.748,0,0,1,1.344-1.547,3.378,3.378,0,0,1,1.871-.559,3.166,3.166,0,0,1,2.563,1.086A4.7,4.7,0,0,1,7.9,36.586v.6H2.172a3,3,0,0,0,.73,2.02,2.3,2.3,0,0,0,1.777.77,2.517,2.517,0,0,0,1.3-.312,3.259,3.259,0,0,0,.93-.828l.883.688A3.55,3.55,0,0,1,4.6,41.156Zm-.18-7.578a1.928,1.928,0,0,0-1.469.637A3.1,3.1,0,0,0,2.219,36H6.453v-.109a2.753,2.753,0,0,0-.594-1.707A1.815,1.815,0,0,0,4.422,33.578Zm10.07,5.18a1.064,1.064,0,0,0-.441-.91,4.249,4.249,0,0,0-1.539-.559,7.277,7.277,0,0,1-1.742-.562,2.479,2.479,0,0,1-.953-.781,1.869,1.869,0,0,1-.309-1.078,2.193,2.193,0,0,1,.879-1.758,3.432,3.432,0,0,1,2.246-.719,3.532,3.532,0,0,1,2.332.742,2.357,2.357,0,0,1,.895,1.9H14.406a1.3,1.3,0,0,0-.5-1.023,1.888,1.888,0,0,0-1.27-.43,1.976,1.976,0,0,0-1.234.344,1.082,1.082,0,0,0-.445.9.877.877,0,0,0,.414.789,5.1,5.1,0,0,0,1.5.508,7.8,7.8,0,0,1,1.754.578,2.558,2.558,0,0,1,1,.809,1.988,1.988,0,0,1,.324,1.152,2.163,2.163,0,0,1-.906,1.816,3.8,3.8,0,0,1-2.352.684,4.257,4.257,0,0,1-1.8-.359,2.922,2.922,0,0,1-1.223-1A2.42,2.42,0,0,1,9.219,38.4h1.445a1.5,1.5,0,0,0,.582,1.152,2.258,2.258,0,0,0,1.434.426A2.331,2.331,0,0,0,14,39.645,1.02,1.02,0,0,0,14.492,38.758Zm10.469-1.891a5.062,5.062,0,0,1-.883,3.109,2.829,2.829,0,0,1-2.391,1.18,3.1,3.1,0,0,1-2.422-.977v4.07H17.82v-11.7h1.32l.07.938a2.977,2.977,0,0,1,2.453-1.094,2.882,2.882,0,0,1,2.41,1.148,5.117,5.117,0,0,1,.887,3.2ZM23.516,36.7a3.735,3.735,0,0,0-.609-2.258,1.963,1.963,0,0,0-1.672-.828,2.125,2.125,0,0,0-1.969,1.164V38.82a2.129,2.129,0,0,0,1.984,1.156,1.954,1.954,0,0,0,1.652-.824A4.077,4.077,0,0,0,23.516,36.7Zm8.5,4.3a3.036,3.036,0,0,1-.2-.891,3.225,3.225,0,0,1-2.406,1.047,2.984,2.984,0,0,1-2.051-.707,2.287,2.287,0,0,1-.8-1.793,2.39,2.39,0,0,1,1-2.051,4.733,4.733,0,0,1,2.824-.73h1.406v-.664A1.623,1.623,0,0,0,31.336,34,1.821,1.821,0,0,0,30,33.555a2.107,2.107,0,0,0-1.3.391,1.151,1.151,0,0,0-.523.945H26.727a2,2,0,0,1,.449-1.223,3.066,3.066,0,0,1,1.219-.934,4.1,4.1,0,0,1,1.691-.344,3.342,3.342,0,0,1,2.289.73,2.635,2.635,0,0,1,.859,2.012v3.891a4.757,4.757,0,0,0,.3,1.852V41Zm-2.4-1.1a2.54,2.54,0,0,0,1.289-.352,2.127,2.127,0,0,0,.883-.914V36.9H30.656Q28,36.9,28,38.453a1.316,1.316,0,0,0,.453,1.063A1.742,1.742,0,0,0,29.617,39.9Zm9.273.078a2.082,2.082,0,0,0,1.352-.469,1.649,1.649,0,0,0,.641-1.172H42.25a2.621,2.621,0,0,1-.5,1.383,3.293,3.293,0,0,1-1.23,1.047,3.55,3.55,0,0,1-1.629.391A3.482,3.482,0,0,1,36.145,40a4.59,4.59,0,0,1-1.02-3.152v-.242a5.089,5.089,0,0,1,.453-2.2,3.451,3.451,0,0,1,1.3-1.492,3.7,3.7,0,0,1,2-.531,3.39,3.39,0,0,1,2.363.852,3.043,3.043,0,0,1,1,2.211H40.883a1.992,1.992,0,0,0-.621-1.348,1.932,1.932,0,0,0-1.379-.527,2.023,2.023,0,0,0-1.707.793,3.724,3.724,0,0,0-.605,2.293v.273a3.65,3.65,0,0,0,.6,2.25A2.033,2.033,0,0,0,38.891,39.977ZM45.445,41H44V32.547h1.445ZM43.883,30.3a.863.863,0,0,1,.215-.594.807.807,0,0,1,.637-.242.819.819,0,0,1,.641.242.854.854,0,0,1,.219.594.826.826,0,0,1-.219.586.834.834,0,0,1-.641.234.821.821,0,0,1-.637-.234A.834.834,0,0,1,43.883,30.3ZM47.375,36.7a4.993,4.993,0,0,1,.488-2.234,3.643,3.643,0,0,1,1.359-1.531,3.7,3.7,0,0,1,1.988-.539A3.565,3.565,0,0,1,54,33.586a4.6,4.6,0,0,1,1.066,3.18v.1a5.036,5.036,0,0,1-.473,2.215,3.589,3.589,0,0,1-1.352,1.527,3.743,3.743,0,0,1-2.02.547,3.556,3.556,0,0,1-2.785-1.2A4.575,4.575,0,0,1,47.375,36.8Zm1.453.172a3.616,3.616,0,0,0,.652,2.258,2.211,2.211,0,0,0,3.5-.012,3.955,3.955,0,0,0,.648-2.418,3.61,3.61,0,0,0-.66-2.254,2.1,2.1,0,0,0-1.754-.863,2.075,2.075,0,0,0-1.727.852A3.925,3.925,0,0,0,48.828,36.867Zm15.523,4.289a3.693,3.693,0,0,1-2.8-1.129,4.19,4.19,0,0,1-1.078-3.02v-.266a5.073,5.073,0,0,1,.48-2.246A3.748,3.748,0,0,1,62.3,32.949a3.378,3.378,0,0,1,1.871-.559,3.166,3.166,0,0,1,2.563,1.086,4.7,4.7,0,0,1,.914,3.109v.6H61.922a3,3,0,0,0,.73,2.02,2.3,2.3,0,0,0,1.777.77,2.517,2.517,0,0,0,1.3-.312,3.259,3.259,0,0,0,.93-.828l.883.688A3.55,3.55,0,0,1,64.352,41.156Zm-.18-7.578a1.928,1.928,0,0,0-1.469.637A3.1,3.1,0,0,0,61.969,36H66.2v-.109a2.753,2.753,0,0,0-.594-1.707A1.815,1.815,0,0,0,64.172,33.578Zm6.516-1.031.047,1.063a3.08,3.08,0,0,1,2.531-1.219q2.68,0,2.7,3.023V41H74.523V35.406a1.946,1.946,0,0,0-.418-1.352,1.675,1.675,0,0,0-1.277-.437,2.086,2.086,0,0,0-1.234.375,2.546,2.546,0,0,0-.828.984V41H69.32V32.547Zm14.93,8.609a3.693,3.693,0,0,1-2.8-1.129,4.19,4.19,0,0,1-1.078-3.02v-.266a5.073,5.073,0,0,1,.48-2.246,3.748,3.748,0,0,1,1.344-1.547,3.378,3.378,0,0,1,1.871-.559A3.166,3.166,0,0,1,88,33.477a4.7,4.7,0,0,1,.914,3.109v.6H83.188a3,3,0,0,0,.73,2.02,2.3,2.3,0,0,0,1.777.77,2.517,2.517,0,0,0,1.3-.312,3.259,3.259,0,0,0,.93-.828l.883.688A3.55,3.55,0,0,1,85.617,41.156Zm-.18-7.578a1.928,1.928,0,0,0-1.469.637A3.1,3.1,0,0,0,83.234,36h4.234v-.109a2.753,2.753,0,0,0-.594-1.707A1.815,1.815,0,0,0,85.438,33.578ZM92.156,41H90.711V29h1.445Zm5.922-4.3a4.961,4.961,0,0,1,.914-3.152,3.226,3.226,0,0,1,4.82-.152l.063-.852H105.2v11.7h-1.445V40.219a3.033,3.033,0,0,1-2.328.938,2.915,2.915,0,0,1-2.441-1.191,5.072,5.072,0,0,1-.91-3.16Zm1.445.164a3.761,3.761,0,0,0,.613,2.281,1.951,1.951,0,0,0,1.652.828,2.164,2.164,0,0,0,1.969-1.141V34.7a2.171,2.171,0,0,0-1.953-1.117,1.965,1.965,0,0,0-1.664.832A4.094,4.094,0,0,0,99.523,36.867Zm13.219,3.3a3.07,3.07,0,0,1-2.477.992,2.628,2.628,0,0,1-2.059-.785,3.4,3.4,0,0,1-.715-2.324v-5.5h1.445v5.461q0,1.922,1.563,1.922a2.163,2.163,0,0,0,2.2-1.234V32.547h1.445V41h-1.375Zm7.109.992a3.693,3.693,0,0,1-2.8-1.129,4.19,4.19,0,0,1-1.078-3.02v-.266a5.073,5.073,0,0,1,.48-2.246,3.748,3.748,0,0,1,1.344-1.547,3.378,3.378,0,0,1,1.871-.559,3.166,3.166,0,0,1,2.563,1.086,4.7,4.7,0,0,1,.914,3.109v.6h-5.727a3,3,0,0,0,.73,2.02,2.3,2.3,0,0,0,1.777.77,2.517,2.517,0,0,0,1.3-.312,3.259,3.259,0,0,0,.93-.828l.883.688A3.55,3.55,0,0,1,119.852,41.156Zm-.18-7.578a1.928,1.928,0,0,0-1.469.637A3.1,3.1,0,0,0,117.469,36H121.7v-.109a2.753,2.753,0,0,0-.594-1.707A1.815,1.815,0,0,0,119.672,33.578Zm11.07-3.078v2.047h1.578v1.117h-1.578v5.249a1.173,1.173,0,0,0,.211.763.888.888,0,0,0,.719.254,3.5,3.5,0,0,0,.688-.094V41a4.215,4.215,0,0,1-1.109.155,1.8,1.8,0,0,1-1.461-.586,2.517,2.517,0,0,1-.492-1.664V33.664h-1.539V32.547H129.3V30.5Zm7.352,3.344a4.331,4.331,0,0,0-.711-.055A1.9,1.9,0,0,0,135.453,35v6h-1.445V32.547h1.406l.023.977a2.251,2.251,0,0,1,2.016-1.133,1.477,1.477,0,0,1,.641.109ZM144.328,41a3.036,3.036,0,0,1-.2-.891,3.225,3.225,0,0,1-2.406,1.047,2.984,2.984,0,0,1-2.051-.707,2.287,2.287,0,0,1-.8-1.793,2.39,2.39,0,0,1,1-2.051,4.733,4.733,0,0,1,2.824-.73H144.1v-.664A1.623,1.623,0,0,0,143.648,34a1.821,1.821,0,0,0-1.336-.449,2.107,2.107,0,0,0-1.3.391,1.151,1.151,0,0,0-.523.945h-1.453a2,2,0,0,1,.449-1.223,3.066,3.066,0,0,1,1.219-.934,4.1,4.1,0,0,1,1.691-.344,3.342,3.342,0,0,1,2.289.73,2.635,2.635,0,0,1,.859,2.012v3.891a4.757,4.757,0,0,0,.3,1.852V41Zm-2.4-1.1a2.54,2.54,0,0,0,1.289-.352,2.127,2.127,0,0,0,.883-.914V36.9h-1.133q-2.656,0-2.656,1.555a1.316,1.316,0,0,0,.453,1.063A1.742,1.742,0,0,0,141.93,39.9Zm7.25-7.352.047,1.063a3.08,3.08,0,0,1,2.531-1.219q2.68,0,2.7,3.023V41h-1.445V35.406a1.946,1.946,0,0,0-.418-1.352,1.675,1.675,0,0,0-1.277-.437,2.086,2.086,0,0,0-1.234.375,2.546,2.546,0,0,0-.828.984V41h-1.445V32.547Zm12.383,6.211a1.064,1.064,0,0,0-.441-.91,4.249,4.249,0,0,0-1.539-.559,7.277,7.277,0,0,1-1.742-.562,2.479,2.479,0,0,1-.953-.781,1.869,1.869,0,0,1-.309-1.078,2.193,2.193,0,0,1,.879-1.758,3.432,3.432,0,0,1,2.246-.719,3.532,3.532,0,0,1,2.332.742,2.357,2.357,0,0,1,.895,1.9h-1.453a1.3,1.3,0,0,0-.5-1.023,1.888,1.888,0,0,0-1.27-.43,1.976,1.976,0,0,0-1.234.344,1.082,1.082,0,0,0-.445.9.877.877,0,0,0,.414.789,5.1,5.1,0,0,0,1.5.508,7.8,7.8,0,0,1,1.754.578,2.558,2.558,0,0,1,1,.809,1.988,1.988,0,0,1,.324,1.152,2.163,2.163,0,0,1-.906,1.816,3.8,3.8,0,0,1-2.352.684,4.257,4.257,0,0,1-1.8-.359,2.922,2.922,0,0,1-1.223-1,2.42,2.42,0,0,1-.441-1.395h1.445a1.5,1.5,0,0,0,.582,1.152,2.258,2.258,0,0,0,1.434.426,2.331,2.331,0,0,0,1.316-.332A1.02,1.02,0,0,0,161.563,38.758Zm6.719,1.219a2.082,2.082,0,0,0,1.352-.469,1.649,1.649,0,0,0,.641-1.172h1.367a2.621,2.621,0,0,1-.5,1.383,3.293,3.293,0,0,1-1.23,1.047,3.55,3.55,0,0,1-1.629.391A3.482,3.482,0,0,1,165.535,40a4.59,4.59,0,0,1-1.02-3.152v-.242a5.089,5.089,0,0,1,.453-2.2,3.451,3.451,0,0,1,1.3-1.492,3.7,3.7,0,0,1,2-.531,3.39,3.39,0,0,1,2.363.852,3.043,3.043,0,0,1,1,2.211h-1.367a1.992,1.992,0,0,0-.621-1.348,1.932,1.932,0,0,0-1.379-.527,2.023,2.023,0,0,0-1.707.793,3.724,3.724,0,0,0-.605,2.293v.273a3.65,3.65,0,0,0,.6,2.25A2.033,2.033,0,0,0,168.281,39.977Zm10.2.188a3.07,3.07,0,0,1-2.477.992,2.628,2.628,0,0,1-2.059-.785,3.4,3.4,0,0,1-.715-2.324v-5.5h1.445v5.461q0,1.922,1.563,1.922a2.163,2.163,0,0,0,2.2-1.234V32.547h1.445V41h-1.375Zm7.688-6.32a4.331,4.331,0,0,0-.711-.055A1.9,1.9,0,0,0,183.531,35v6h-1.445V32.547h1.406l.023.977a2.251,2.251,0,0,1,2.016-1.133,1.477,1.477,0,0,1,.641.109Zm5.414,0a4.331,4.331,0,0,0-.711-.055A1.9,1.9,0,0,0,188.945,35v6H187.5V32.547h1.406l.023.977a2.251,2.251,0,0,1,2.016-1.133,1.477,1.477,0,0,1,.641.109Zm4.836,7.313a3.693,3.693,0,0,1-2.8-1.129,4.19,4.19,0,0,1-1.078-3.02v-.266a5.073,5.073,0,0,1,.48-2.246,3.748,3.748,0,0,1,1.344-1.547,3.378,3.378,0,0,1,1.871-.559,3.166,3.166,0,0,1,2.563,1.086,4.7,4.7,0,0,1,.914,3.109v.6h-5.727a3,3,0,0,0,.73,2.02,2.3,2.3,0,0,0,1.777.77,2.517,2.517,0,0,0,1.3-.312,3.258,3.258,0,0,0,.93-.828l.883.688A3.55,3.55,0,0,1,196.422,41.156Zm-.18-7.578a1.928,1.928,0,0,0-1.469.637A3.1,3.1,0,0,0,194.039,36h4.234v-.109a2.753,2.753,0,0,0-.594-1.707A1.815,1.815,0,0,0,196.242,33.578ZM.742,60.7a4.952,4.952,0,0,1,.922-3.129,2.915,2.915,0,0,1,2.414-1.184A2.932,2.932,0,0,1,6.43,57.406V53H7.875V65H6.547l-.07-.906a2.943,2.943,0,0,1-2.414,1.063,2.887,2.887,0,0,1-2.395-1.2,5.008,5.008,0,0,1-.926-3.141Zm1.445.164a3.749,3.749,0,0,0,.594,2.25,1.92,1.92,0,0,0,1.641.813A2.108,2.108,0,0,0,6.43,62.7V58.813a2.125,2.125,0,0,0-1.992-1.2,1.929,1.929,0,0,0-1.656.82A4.128,4.128,0,0,0,2.188,60.867ZM11.688,65H10.242V56.547h1.445ZM10.125,54.3a.863.863,0,0,1,.215-.594.807.807,0,0,1,.637-.242.819.819,0,0,1,.641.242.854.854,0,0,1,.219.594.826.826,0,0,1-.219.586.834.834,0,0,1-.641.234.821.821,0,0,1-.637-.234A.834.834,0,0,1,10.125,54.3Zm7.266,9.672a2.082,2.082,0,0,0,1.352-.469,1.649,1.649,0,0,0,.641-1.172H20.75a2.621,2.621,0,0,1-.5,1.383,3.293,3.293,0,0,1-1.23,1.047,3.55,3.55,0,0,1-1.629.391A3.482,3.482,0,0,1,14.645,64a4.59,4.59,0,0,1-1.02-3.152v-.242a5.089,5.089,0,0,1,.453-2.2,3.451,3.451,0,0,1,1.3-1.492,3.7,3.7,0,0,1,2-.531,3.39,3.39,0,0,1,2.363.852,3.043,3.043,0,0,1,1,2.211H19.383a1.992,1.992,0,0,0-.621-1.348,1.932,1.932,0,0,0-1.379-.527,2.023,2.023,0,0,0-1.707.793,3.724,3.724,0,0,0-.605,2.293v.273a3.65,3.65,0,0,0,.6,2.25A2.033,2.033,0,0,0,17.391,63.977Zm6.43-6.406a3.073,3.073,0,0,1,2.5-1.18q2.68,0,2.7,3.023V65H27.578V59.406a1.946,1.946,0,0,0-.418-1.352,1.675,1.675,0,0,0-1.277-.437,2.086,2.086,0,0,0-1.234.375,2.546,2.546,0,0,0-.828.984V65H22.375V53H23.82ZM30.8,60.7a4.993,4.993,0,0,1,.488-2.234,3.643,3.643,0,0,1,1.359-1.531,3.7,3.7,0,0,1,1.988-.539,3.565,3.565,0,0,1,2.793,1.2,4.6,4.6,0,0,1,1.066,3.18v.1a5.036,5.036,0,0,1-.473,2.215,3.589,3.589,0,0,1-1.352,1.527,3.743,3.743,0,0,1-2.02.547,3.556,3.556,0,0,1-2.785-1.2A4.575,4.575,0,0,1,30.8,60.8Zm1.453.172a3.616,3.616,0,0,0,.652,2.258,2.211,2.211,0,0,0,3.5-.012,3.955,3.955,0,0,0,.648-2.418,3.61,3.61,0,0,0-.66-2.254,2.1,2.1,0,0,0-1.754-.863,2.075,2.075,0,0,0-1.727.852A3.925,3.925,0,0,0,32.258,60.867Zm17.234,3.3a3.07,3.07,0,0,1-2.477.992,2.628,2.628,0,0,1-2.059-.785,3.4,3.4,0,0,1-.715-2.324v-5.5h1.445v5.461q0,1.922,1.563,1.922a2.163,2.163,0,0,0,2.2-1.234V56.547H50.9V65H49.523Zm4.969-7.617.047,1.063a3.08,3.08,0,0,1,2.531-1.219q2.68,0,2.7,3.023V65H58.3V59.406a1.946,1.946,0,0,0-.418-1.352,1.675,1.675,0,0,0-1.277-.437,2.086,2.086,0,0,0-1.234.375,2.546,2.546,0,0,0-.828.984V65H53.094V56.547ZM63.492,65H62.047V56.547h1.445ZM61.93,54.3a.863.863,0,0,1,.215-.594.807.807,0,0,1,.637-.242.819.819,0,0,1,.641.242.854.854,0,0,1,.219.594.826.826,0,0,1-.219.586.834.834,0,0,1-.641.234.821.821,0,0,1-.637-.234A.834.834,0,0,1,61.93,54.3Zm6.664,8.734,2.094-6.492h1.477L69.133,65h-1.1l-3.062-8.453h1.477Zm8.469,2.117a3.693,3.693,0,0,1-2.8-1.129,4.19,4.19,0,0,1-1.078-3.02v-.266a5.073,5.073,0,0,1,.48-2.246,3.748,3.748,0,0,1,1.344-1.547,3.378,3.378,0,0,1,1.871-.559,3.166,3.166,0,0,1,2.563,1.086,4.7,4.7,0,0,1,.914,3.109v.6H74.633a3,3,0,0,0,.73,2.02,2.3,2.3,0,0,0,1.777.77,2.517,2.517,0,0,0,1.3-.312,3.259,3.259,0,0,0,.93-.828l.883.688A3.55,3.55,0,0,1,77.063,65.156Zm-.18-7.578a1.928,1.928,0,0,0-1.469.637A3.1,3.1,0,0,0,74.68,60h4.234v-.109a2.753,2.753,0,0,0-.594-1.707A1.815,1.815,0,0,0,76.883,57.578Zm9.234.266a4.331,4.331,0,0,0-.711-.055A1.9,1.9,0,0,0,83.477,59v6H82.031V56.547h1.406l.023.977a2.251,2.251,0,0,1,2.016-1.133,1.477,1.477,0,0,1,.641.109Zm6.25,4.914a1.064,1.064,0,0,0-.441-.91,4.249,4.249,0,0,0-1.539-.559,7.277,7.277,0,0,1-1.742-.562,2.479,2.479,0,0,1-.953-.781,1.869,1.869,0,0,1-.309-1.078,2.193,2.193,0,0,1,.879-1.758,3.432,3.432,0,0,1,2.246-.719,3.532,3.532,0,0,1,2.332.742,2.357,2.357,0,0,1,.895,1.9H92.281a1.3,1.3,0,0,0-.5-1.023,1.888,1.888,0,0,0-1.27-.43,1.976,1.976,0,0,0-1.234.344,1.082,1.082,0,0,0-.445.9.877.877,0,0,0,.414.789,5.1,5.1,0,0,0,1.5.508,7.8,7.8,0,0,1,1.754.578,2.558,2.558,0,0,1,1,.809,1.988,1.988,0,0,1,.324,1.152,2.163,2.163,0,0,1-.906,1.816,3.8,3.8,0,0,1-2.352.684,4.257,4.257,0,0,1-1.8-.359,2.922,2.922,0,0,1-1.223-1,2.42,2.42,0,0,1-.441-1.395h1.445a1.5,1.5,0,0,0,.582,1.152,2.258,2.258,0,0,0,1.434.426,2.331,2.331,0,0,0,1.316-.332A1.02,1.02,0,0,0,92.367,62.758ZM95.313,60.7a4.993,4.993,0,0,1,.488-2.234A3.643,3.643,0,0,1,97.16,56.93a3.7,3.7,0,0,1,1.988-.539,3.565,3.565,0,0,1,2.793,1.2,4.6,4.6,0,0,1,1.066,3.18v.1a5.036,5.036,0,0,1-.473,2.215,3.589,3.589,0,0,1-1.352,1.527,3.743,3.743,0,0,1-2.02.547,3.556,3.556,0,0,1-2.785-1.2A4.575,4.575,0,0,1,95.313,60.8Zm1.453.172a3.616,3.616,0,0,0,.652,2.258,2.211,2.211,0,0,0,3.5-.012,3.955,3.955,0,0,0,.648-2.418,3.61,3.61,0,0,0-.66-2.254,2.1,2.1,0,0,0-1.754-.863,2.075,2.075,0,0,0-1.727.852A3.925,3.925,0,0,0,96.766,60.867Zm8.086,3.375a.905.905,0,0,1,.223-.625.848.848,0,0,1,.668-.25.874.874,0,0,1,.676.25.887.887,0,0,1,.23.625.839.839,0,0,1-.23.6.89.89,0,0,1-.676.242.8.8,0,0,1-.891-.844Z" transform="translate(1009 1964)" fill="#12263f"/>
    <path id="Trazado_116521" data-name="Trazado 116521" d="M39.209-19.07q0,9.3-4.955,14.561T21.173.749q-8.2,0-13.153-5.258T3.065-19.07V-32.829q0-9.3,4.919-14.561T21.1-52.647q8.127,0,13.117,5.275t4.99,14.543ZM27.2-33.648q0-4.741-1.622-7.236a5.069,5.069,0,0,0-4.473-2.5,4.974,4.974,0,0,0-4.456,2.5q-1.568,2.5-1.568,7.236v15.327q0,4.848,1.586,7.325a5.053,5.053,0,0,0,4.509,2.477A4.993,4.993,0,0,0,25.611-11Q27.2-13.474,27.2-18.321Zm28.38,2.673a6.752,6.752,0,0,0,4.99-1.747,6.552,6.552,0,0,0,1.747-4.848,5.466,5.466,0,0,0-1.782-4.117,6.7,6.7,0,0,0-4.812-1.693,5.8,5.8,0,0,0-3.867,1.337,4.368,4.368,0,0,0-1.586,3.511H38.575l-.071-.214A11.494,11.494,0,0,1,43.369-48.8a19.853,19.853,0,0,1,12.351-3.85q8.448,0,13.527,3.867t5.079,10.961a10.833,10.833,0,0,1-2.139,6.487,14.605,14.605,0,0,1-5.81,4.669,13.6,13.6,0,0,1,6.487,4.616,12.263,12.263,0,0,1,2.281,7.5,13.221,13.221,0,0,1-5.471,11.21Q64.2.749,55.72.749A21.528,21.528,0,0,1,42.959-3.083q-5.418-3.832-5.24-11.1l.071-.214H49.517a5.584,5.584,0,0,0,1.747,4.206A6.174,6.174,0,0,0,55.72-8.519a7.863,7.863,0,0,0,5.329-1.8,5.674,5.674,0,0,0,2.085-4.473q0-3.778-1.978-5.507a8.209,8.209,0,0,0-5.578-1.729h-5.7v-8.947Z" transform="translate(1173 2131)" fill="#fff"/>
    <g id="Grupo_156314" data-name="Grupo 156314" transform="translate(469 149)">
      <rect id="Rectángulo_36766" data-name="Rectángulo 36766" width="70" height="85" rx="12" transform="translate(540 1707)" fill="#ea3584"/>
    </g>
    <g id="Grupo_156572" data-name="Grupo 156572" transform="translate(1019 1872)">
      <path id="Trazado_126972" data-name="Trazado 126972" d="M219.54,132.772c.395-.075.614.055.549.5-.055.374.075.583.489.518s.553.086.557.521c0,.457-.183.562-.573.51-.372-.05-.49.112-.483.482.012.58-.347.8-.908.627-.266-.083-.208-.3-.191-.464.047-.458-.058-.739-.6-.647-.419.071-.444-.191-.443-.513s.014-.581.438-.515c.458.071.674-.1.6-.58-.073-.462.224-.482.565-.441" transform="translate(-177.953 -124.764)"/>
      <path id="Trazado_126974" data-name="Trazado 126974" d="M219.54,132.772c.395-.075.614.055.549.5-.055.374.075.583.489.518s.553.086.557.521c0,.457-.183.562-.573.51-.372-.05-.49.112-.483.482.012.58-.347.8-.908.627-.266-.083-.208-.3-.191-.464.047-.458-.058-.739-.6-.647-.419.071-.444-.191-.443-.513s.014-.581.438-.515c.458.071.674-.1.6-.58-.073-.462.224-.482.565-.441" transform="translate(-210.868 -82.764)"/>
      <path id="Trazado_126973" data-name="Trazado 126973" d="M2.041,77.938c.5-.1.781.07.7.64-.069.477.1.742.623.66s.705.109.709.664c0,.582-.234.716-.729.649-.473-.064-.624.142-.615.613.015.738-.442,1.022-1.156.8-.339-.106-.265-.377-.243-.59.059-.583-.074-.941-.763-.824C.032,80.639,0,80.3,0,79.9s.017-.74.558-.656c.583.09.859-.123.762-.739-.092-.588.285-.614.72-.562" transform="translate(3 -73.049)" fill="#29c4bb"/>
      <path id="Trazado_126975" data-name="Trazado 126975" d="M2.041,77.938c.5-.1.781.07.7.64-.069.477.1.742.623.66s.705.109.709.664c0,.582-.234.716-.729.649-.473-.064-.624.142-.615.613.015.738-.442,1.022-1.156.8-.339-.106-.265-.377-.243-.59.059-.583-.074-.941-.763-.824C.032,80.639,0,80.3,0,79.9s.017-.74.558-.656c.583.09.859-.123.762-.739-.092-.588.285-.614.72-.562" transform="translate(41.583 -29.987)" fill="#29c4bb"/>
      <g id="gestion-del-tiempo" transform="translate(3.953 6.287)">
        <g id="Grupo_157679" data-name="Grupo 157679" transform="translate(0.546 2.248)">
          <g id="Grupo_157675" data-name="Grupo 157675" transform="translate(11.442)">
            <circle id="Elipse_4912" data-name="Elipse 4912" cx="9.392" cy="9.392" r="9.392" transform="translate(0 0)" fill="#d3effb"/>
            <path id="Trazado_130958" data-name="Trazado 130958" d="M167.765,27.475a9.392,9.392,0,1,1,0-18.512,9.394,9.394,0,0,0,0,18.512Z" transform="translate(-156.732 -8.827)" fill="#9dc6fb"/>
            <path id="Trazado_130959" data-name="Trazado 130959" d="M211.754,118.034H207.39a1.2,1.2,0,0,1,0-2.393h4.363a1.2,1.2,0,0,1,0,2.393Z" transform="translate(-202.362 -107.445)" fill="#365e7d"/>
            <path id="Trazado_130960" data-name="Trazado 130960" d="M264.258,81.273a1.2,1.2,0,0,1-1.2-1.2V77.021a1.2,1.2,0,0,1,2.393,0v3.055A1.2,1.2,0,0,1,264.258,81.273Z" transform="translate(-254.867 -70.684)" fill="#2b4d66"/>
          </g>
          <g id="Grupo_157677" data-name="Grupo 157677" transform="translate(0 15.011)">
            <path id="Trazado_130961" data-name="Trazado 130961" d="M231.464,263.711l9.858-5.718a2.669,2.669,0,0,1,3.365,4.071l-10.956,4.7Z" transform="translate(-214.251 -253.529)" fill="#eaac9d"/>
            <path id="Trazado_130962" data-name="Trazado 130962" d="M284.685,266.864l9.858-5.718a2.669,2.669,0,0,1,3.365,4.071l-10.956,4.7Z" transform="translate(-263.389 -256.44)" fill="#ffcbbe"/>
            <path id="Trazado_130963" data-name="Trazado 130963" d="M110.883,212.493a2.662,2.662,0,0,1-.687,1.789l-1.822,2.018-3.74,4.142a3.883,3.883,0,0,1-2.391,1.25l-16.886,2.151-4.314-7.5c-.033-.054-.064-.109-.1-.164l-.015-.026-.216-.378-.011-.017-.931-1.617L78.2,211.4l3.971-3.049a19.4,19.4,0,0,1,6.158-3.171c.094-.029.188-.058.282-.084a19.586,19.586,0,0,1,2.054-.474l.688-.12a2.667,2.667,0,0,1,3.07,2.095,2.62,2.62,0,0,1,.054.533,2.666,2.666,0,0,1-1.114,2.168l-4.382,3.14,11.747,1.468,6.1-3.7a2.67,2.67,0,0,1,4.053,2.283Z" transform="translate(-72.749 -204.465)" fill="#ffddce"/>
            <g id="Grupo_157676" data-name="Grupo 157676" transform="translate(5.453 0.159)">
              <path id="Trazado_130964" data-name="Trazado 130964" d="M90.668,206.544c-5.165,1.51-9.289,7.072-10.892,9.515L78.2,213.322l3.971-3.049a19.4,19.4,0,0,1,6.158-3.171c.094-.029.188-.058.282-.084a19.586,19.586,0,0,1,2.054-.474Z" transform="translate(-78.202 -206.544)" fill="#ffcbbe"/>
              <path id="Trazado_130965" data-name="Trazado 130965" d="M142.559,358.7l-3.74,4.142a3.881,3.881,0,0,1-2.391,1.25l-16.885,2.151-4.314-7.5C120.332,367.38,140.514,360.97,142.559,358.7Z" transform="translate(-112.388 -347.03)" fill="#ffcbbe"/>
              <path id="Trazado_130966" data-name="Trazado 130966" d="M110.978,351.857c.073.123.144.248.216.377Z" transform="translate(-108.463 -340.707)" fill="#ffcbbe"/>
            </g>
            <path id="Trazado_130967" data-name="Trazado 130967" d="M19.74,307.33l-5.453,3.486-3.4-5.915-3.752-6.523,5.453-3.486,4.1,7.121Z" transform="translate(-7.132 -287.953)" fill="#9dc6fb"/>
            <path id="Trazado_130968" data-name="Trazado 130968" d="M64.888,393.018,59.435,396.5l-3.4-5.915a6.4,6.4,0,0,0,5.8-2.888Z" transform="translate(-52.28 -373.642)" fill="#698ed5"/>
            <circle id="Elipse_4913" data-name="Elipse 4913" cx="1.174" cy="1.174" r="1.174" transform="translate(7.178 17.453)" fill="#f9f6f9"/>
          </g>
          <g id="Grupo_157678" data-name="Grupo 157678" transform="translate(4.899 0.371)">
            <path id="Trazado_130969" data-name="Trazado 130969" d="M95.306,16.148l-.077.134a1.037,1.037,0,0,1-1.354.413l-1.506-.737a1.037,1.037,0,0,1-.442-1.45l.192-.333a1.037,1.037,0,0,1,1.477-.342l1.391.936A1.037,1.037,0,0,1,95.306,16.148Z" transform="translate(-90.192 -13.657)" fill="#f6e266"/>
            <path id="Trazado_130970" data-name="Trazado 130970" d="M417.076,169.351l.077-.134a1.037,1.037,0,0,1,1.354-.413l1.506.737a1.037,1.037,0,0,1,.442,1.45l-.192.333a1.037,1.037,0,0,1-1.477.342l-1.391-.936A1.037,1.037,0,0,1,417.076,169.351Z" transform="translate(-390.393 -156.802)" fill="#f6e266"/>
            <path id="Trazado_130971" data-name="Trazado 130971" d="M74.73,96.8v.155a1.037,1.037,0,0,1-.966,1.034l-1.673.115a1.037,1.037,0,0,1-1.108-1.034v-.384a1.037,1.037,0,0,1,1.108-1.034l1.673.115A1.037,1.037,0,0,1,74.73,96.8Z" transform="translate(-70.984 -89.355)" fill="#f6e266"/>
            <path id="Trazado_130972" data-name="Trazado 130972" d="M436.58,96.953V96.8a1.037,1.037,0,0,1,.966-1.034l1.673-.115a1.037,1.037,0,0,1,1.108,1.034v.384a1.037,1.037,0,0,1-1.108,1.034l-1.673-.115A1.037,1.037,0,0,1,436.58,96.953Z" transform="translate(-408.528 -89.356)" fill="#f6e266"/>
            <path id="Trazado_130973" data-name="Trazado 130973" d="M95.228,169.216l.077.134a1.037,1.037,0,0,1-.319,1.379l-1.391.936a1.037,1.037,0,0,1-1.477-.342l-.192-.333a1.037,1.037,0,0,1,.442-1.45l1.506-.737A1.037,1.037,0,0,1,95.228,169.216Z" transform="translate(-90.191 -156.802)" fill="#f6e266"/>
            <path id="Trazado_130974" data-name="Trazado 130974" d="M417.154,16.283l-.077-.134a1.037,1.037,0,0,1,.319-1.379l1.391-.936a1.037,1.037,0,0,1,1.477.342l.192.333a1.037,1.037,0,0,1-.442,1.45l-1.506.737A1.037,1.037,0,0,1,417.154,16.283Z" transform="translate(-390.393 -13.658)" fill="#f6e266"/>
          </g>
        </g>
        <g id="Grupo_157680" data-name="Grupo 157680" transform="translate(-0.001 1.701)">
          <path id="Trazado_130975" data-name="Trazado 130975" d="M206.67,73.415V70.364a1.769,1.769,0,1,0-3.539,0v1.281h-2.588a1.769,1.769,0,0,0-1.491,2.721.575.575,0,1,0,.968-.62.613.613,0,0,1-.1-.331.621.621,0,0,1,.62-.621h2.588v.62a1.759,1.759,0,0,0,.112.62h-1.551a.575.575,0,1,0,0,1.149H204.9A1.771,1.771,0,0,0,206.67,73.415Zm-2.389-3.051a.62.62,0,1,1,1.24,0v3.051a.62.62,0,1,1-1.24,0Z" transform="translate(-183.522 -63.462)"/>
          <path id="Trazado_130976" data-name="Trazado 130976" d="M38.535,23.279a3.243,3.243,0,0,0-3.057-1.2,3.241,3.241,0,0,0-4.088-.612l-.228.132a3.252,3.252,0,0,0-3.85-.374l-6.719,3.9-2.279-.285L21.5,22.56a3.229,3.229,0,0,0,.914-1.008,9.952,9.952,0,1,0-8.53-3.353,19.985,19.985,0,0,0-4.246,2.492L5.686,23.723.264,27.189a.575.575,0,0,0-.189.771L7.22,40.38a.575.575,0,0,0,.808.2l5.337-3.411,13.394-1.706a.575.575,0,0,0-.145-1.14L13.471,35.995l-6.7-11.653L10.334,21.6a18.875,18.875,0,0,1,8.232-3.612l.687-.12a2.078,2.078,0,0,1,2.4,1.639,2.09,2.09,0,0,1-.83,2.116l-4.376,3.134a.575.575,0,0,0,.263,1.037l11.731,1.466a.574.574,0,0,0,.369-.079L34.9,23.493a2.091,2.091,0,0,1,2.635,3.189l-5.554,6.151A3.3,3.3,0,0,1,29.952,33.9l-1.061.135a.575.575,0,1,0,.145,1.14l1.061-.135A4.45,4.45,0,0,0,32.838,33.6l5.554-6.151a3.24,3.24,0,0,0,.143-4.173ZM7.916,39.285,1.345,27.862,5.821,25l6.571,11.423Zm11.14-22.547-.687.119a19.889,19.889,0,0,0-3.345.889,8.877,8.877,0,0,1-.97-1.2l.517-.3a.575.575,0,1,0-.575-1l-.519.3a8.726,8.726,0,0,1-.885-3.323h1.39a.575.575,0,0,0,0-1.149h-1.39a8.737,8.737,0,0,1,.89-3.319l.513.3a.575.575,0,1,0,.575-1l-.512-.3a8.876,8.876,0,0,1,2.429-2.429l.3.512a.575.575,0,1,0,1-.575l-.3-.513a8.738,8.738,0,0,1,3.319-.89v1.39a.575.575,0,0,0,1.149,0V2.869a8.739,8.739,0,0,1,3.319.89l-.3.513a.575.575,0,1,0,1,.575l.3-.511A8.876,8.876,0,0,1,28.7,6.765l-.512.3a.575.575,0,1,0,.575,1l.513-.3a8.737,8.737,0,0,1,.891,3.32h-1.39a.575.575,0,1,0,0,1.149h1.39a8.765,8.765,0,0,1-.888,3.321l-.516-.3a.575.575,0,0,0-.575,1l.515.3a8.865,8.865,0,0,1-2.431,2.431l-.3-.515a.575.575,0,1,0-1,.575l.3.516a8.744,8.744,0,0,1-2.452.788,3.224,3.224,0,0,0,.027-.41,3.271,3.271,0,0,0-.065-.648,3.223,3.223,0,0,0-3.727-2.542Zm8.838,5.481.01-.006a2.1,2.1,0,0,1,2.184.012l-5.8,3.361-1.814-.227Zm.5,3.88-2.213-.277,5.795-3.361.01-.006a2.091,2.091,0,0,1,2.287.079Z" transform="translate(0.001 -1.701)"/>
          <path id="Trazado_130977" data-name="Trazado 130977" d="M95.169,424.192a1.747,1.747,0,1,0,1.747,1.747A1.749,1.749,0,0,0,95.169,424.192Zm0,2.344a.6.6,0,1,1,.6-.6A.6.6,0,0,1,95.169,426.536Z" transform="translate(-86.254 -391.775)"/>
          <path id="Trazado_130978" data-name="Trazado 130978" d="M85.446,9.912l1.5.736a1.6,1.6,0,0,0,.7.163,1.615,1.615,0,0,0,1.4-.8l.077-.134a1.615,1.615,0,0,0-.5-2.141L87.244,6.8a1.61,1.61,0,0,0-2.293.531l-.192.332a1.61,1.61,0,0,0,.687,2.251Zm.309-1.676.192-.332a.456.456,0,0,1,.3-.218.467.467,0,0,1,.105-.012.456.456,0,0,1,.256.079l1.389.934a.462.462,0,0,1,.142.613h0l-.077.134a.462.462,0,0,1-.6.184l-1.5-.736a.461.461,0,0,1-.2-.644Z" transform="translate(-78.057 -6.154)"/>
          <path id="Trazado_130979" data-name="Trazado 130979" d="M409.944,164.428l1.389.934a1.61,1.61,0,0,0,2.293-.531l.192-.332a1.61,1.61,0,0,0-.687-2.251l-1.5-.736a1.615,1.615,0,0,0-2.1.641l-.077.134h0A1.615,1.615,0,0,0,409.944,164.428Zm.5-1.566.077-.134a.462.462,0,0,1,.6-.183l1.5.736a.461.461,0,0,1,.2.644l-.192.332a.461.461,0,0,1-.656.152l-1.389-.934A.462.462,0,0,1,410.443,162.862Z" transform="translate(-377.833 -149.1)"/>
          <path id="Trazado_130980" data-name="Trazado 130980" d="M64.273,91.559a1.616,1.616,0,0,0,1.1.433q.054,0,.109,0l1.67-.115a1.615,1.615,0,0,0,1.5-1.606v-.154a1.615,1.615,0,0,0-1.5-1.606l-1.67-.115A1.61,1.61,0,0,0,63.762,90v.383A1.615,1.615,0,0,0,64.273,91.559ZM64.911,90a.461.461,0,0,1,.46-.461H65.4l1.67.115a.462.462,0,0,1,.429.46v.154a.462.462,0,0,1-.429.46l-1.67.115a.461.461,0,0,1-.492-.46Z" transform="translate(-58.87 -81.737)"/>
          <path id="Trazado_130981" data-name="Trazado 130981" d="M432,88.393l-1.67.115a1.615,1.615,0,0,0-1.5,1.606v.154a1.615,1.615,0,0,0,1.5,1.606l1.67.115q.055,0,.109,0a1.61,1.61,0,0,0,1.611-1.61V90A1.61,1.61,0,0,0,432,88.393Zm.425,1.269a.456.456,0,0,1,.146.337v.383a.461.461,0,0,1-.492.46l-1.67-.115a.462.462,0,0,1-.429-.46v-.154a.462.462,0,0,1,.429-.46l1.67-.115h.033A.455.455,0,0,1,432.426,89.662Z" transform="translate(-395.927 -81.738)"/>
          <path id="Trazado_130982" data-name="Trazado 130982" d="M89.051,162.153h0a1.615,1.615,0,0,0-2.1-.641l-1.5.736a1.61,1.61,0,0,0-.687,2.251l.192.332a1.611,1.611,0,0,0,2.293.531l1.389-.934a1.615,1.615,0,0,0,.5-2.141Zm-1.06,1.321-1.389.934a.461.461,0,0,1-.656-.152l-.192-.332a.461.461,0,0,1,.2-.644l1.5-.736a.457.457,0,0,1,.2-.047.462.462,0,0,1,.4.23l.077.134A.462.462,0,0,1,87.991,163.474Z" transform="translate(-78.056 -149.1)"/>
          <path id="Trazado_130983" data-name="Trazado 130983" d="M409.526,10.007a1.614,1.614,0,0,0,1.4.8,1.6,1.6,0,0,0,.7-.163l1.5-.736a1.61,1.61,0,0,0,.687-2.251l-.192-.332a1.61,1.61,0,0,0-2.293-.531l-1.389.934a1.615,1.615,0,0,0-.5,2.141Zm1.06-1.321,1.389-.934a.456.456,0,0,1,.256-.079.466.466,0,0,1,.105.012.456.456,0,0,1,.3.219l.192.332a.461.461,0,0,1-.2.644l-1.5.736a.462.462,0,0,1-.6-.183h0l-.077-.133A.462.462,0,0,1,410.586,8.686Z" transform="translate(-377.834 -6.154)"/>
        </g>
      </g>
    </g>
  </g>
</svg>
