<svg xmlns="http://www.w3.org/2000/svg" width="61.815" height="53.396" viewBox="0 0 61.815 53.396">
  <path id="Trazado_116523" data-name="Trazado 116523" d="M39.209-19.07q0,9.3-4.955,14.561T21.173.749q-8.2,0-13.153-5.258T3.065-19.07V-32.829q0-9.3,4.919-14.561T21.1-52.647q8.127,0,13.117,5.275t4.99,14.543ZM27.2-33.648q0-4.741-1.622-7.236a5.069,5.069,0,0,0-4.473-2.5,4.974,4.974,0,0,0-4.456,2.5q-1.568,2.5-1.568,7.236v15.327q0,4.848,1.586,7.325a5.053,5.053,0,0,0,4.509,2.477A4.993,4.993,0,0,0,25.611-11Q27.2-13.474,27.2-18.321ZM64.88,0H52.832V-41.6H42.388v-9.2L64.88-52.647Z" transform="translate(-3.065 52.647)" fill="#fff"/>
</svg>
