<svg xmlns="http://www.w3.org/2000/svg" width="66.973" height="66.974" viewBox="0 0 66.973 66.974">
  <g id="Grupo_874379" data-name="Grupo 874379" transform="translate(-767 -6568)">
    <path id="Trazado_595767" data-name="Trazado 595767" d="M88.071,147.554a33.487,33.487,0,1,1,33.64-33.333,33.525,33.525,0,0,1-33.64,33.333" transform="translate(712.263 6487.419)" fill="#fff"/>
    <path id="Trazado_596972" data-name="Trazado 596972" d="M2.773-13.984,4.414-28.437H20.352v4.707H9.043l-.7,6.113a8.949,8.949,0,0,1,4.277-1.074,8.2,8.2,0,0,1,6.367,2.52,10.064,10.064,0,0,1,2.3,7.051,10.31,10.31,0,0,1-1.162,4.932A8.2,8.2,0,0,1,16.8-.811,10.4,10.4,0,0,1,11.68.391,11.039,11.039,0,0,1,6.895-.654,8.488,8.488,0,0,1,3.408-3.594,8.011,8.011,0,0,1,2.051-7.91H7.637a4.172,4.172,0,0,0,1.24,2.764,3.932,3.932,0,0,0,2.783.986,3.47,3.47,0,0,0,2.949-1.377,6.379,6.379,0,0,0,1.035-3.9,5.275,5.275,0,0,0-1.191-3.711,4.372,4.372,0,0,0-3.379-1.289,4.886,4.886,0,0,0-3.262,1.055l-.547.508Z" transform="translate(789 6615)" fill="#ea3584"/>
  </g>
</svg>
