<svg xmlns="http://www.w3.org/2000/svg" width="66.973" height="66.974" viewBox="0 0 66.973 66.974">
  <g id="Grupo_874376" data-name="Grupo 874376" transform="translate(-767 -6271)">
    <path id="Trazado_595764" data-name="Trazado 595764" d="M88.071,147.554a33.487,33.487,0,1,1,33.64-33.333,33.525,33.525,0,0,1-33.64,33.333" transform="translate(712.263 6190.419)" fill="#fff"/>
    <path id="Trazado_596969" data-name="Trazado 596969" d="M21.426,0H1.934V-3.867l9.2-9.8a22.694,22.694,0,0,0,2.8-3.613,5.805,5.805,0,0,0,.908-2.93,4.344,4.344,0,0,0-.957-2.979,3.455,3.455,0,0,0-2.734-1.084,3.726,3.726,0,0,0-3.018,1.318,5.222,5.222,0,0,0-1.1,3.467H1.367a9.323,9.323,0,0,1,1.24-4.746,8.741,8.741,0,0,1,3.506-3.369,10.656,10.656,0,0,1,5.137-1.221,10.09,10.09,0,0,1,6.826,2.109,7.463,7.463,0,0,1,2.432,5.957,9.562,9.562,0,0,1-1.094,4.3,23.878,23.878,0,0,1-3.75,5.1L9.2-4.551H21.426Z" transform="translate(789 6318)" fill="#ea3584"/>
  </g>
</svg>
