<svg xmlns="http://www.w3.org/2000/svg" xmlns:xlink="http://www.w3.org/1999/xlink" width="295" height="208.786" viewBox="0 0 295 208.786">
  <defs>
    <clipPath id="clip-path">
      <rect id="Rectángulo_293208" data-name="Rectángulo 293208" width="295" height="208.786" transform="translate(0 0)" fill="none"/>
    </clipPath>
  </defs>
  <g id="Grupo_874001" data-name="Grupo 874001" transform="translate(0 -0.003)">
    <g id="Grupo_874000" data-name="Grupo 874000" transform="translate(0 0.003)" clip-path="url(#clip-path)">
      <path id="Trazado_595168" data-name="Trazado 595168" d="M164.437,939.392c-40.364.593-52.717,1.028-72.067,17.025-11,9.093-40.489,34.735-54.269,48.109s-5.216,36.649,142.944,36.649,161.2-26.407,129.434-44.005c-18.329-10.154-63.97-37.1-75.257-43.646s-30.447-14.724-70.785-14.132" transform="translate(-29.642 -832.389)" fill="#a2a7c5"/>
      <path id="Trazado_595169" data-name="Trazado 595169" d="M1849.753,1459.893c0,3.815-.683,12.981,35.187,7.687,18.7-2.761,26.015-5.132,26.015-8.946s-8.349-9.062-21.537-9.062-39.665,6.507-39.665,10.322" transform="translate(-1639.106 -1284.497)" fill="#8ccad7"/>
      <path id="Trazado_595170" data-name="Trazado 595170" d="M1990.336,1318.189c6.362-5.2,3.453-24.569,3.453-24.569l-25.955,2.224s-25.585,7.958-28.811,8.882-.072,13.442.4,17.933c0,0,44.547.732,50.908-4.471" transform="translate(-1716.938 -1146.305)" fill="#144665"/>
      <path id="Trazado_595171" data-name="Trazado 595171" d="M438.784,1049.9c-5.341,5.248-3.909,9.366-4.7,16.2s33.3,8.389,37.39,8.389c1.124.228,9.324-15.091,5.011-15.943-3.872-1.822-19.587-6.3-19.587-6.3s-5.862-.513-18.116-2.344" transform="translate(-384.641 -930.337)" fill="#144665"/>
      <path id="Trazado_595172" data-name="Trazado 595172" d="M77.191,1345.866c0,3.711,10.4,6.719,23.231,6.719s23.231-3.008,23.231-6.719-10.4-6.719-23.231-6.719-23.231,3.008-23.231,6.719" transform="translate(-68.401 -1186.648)" fill="#8ccad7"/>
      <path id="Trazado_595173" data-name="Trazado 595173" d="M1673.961,1132.808c.059-1.535,1.1-19.958,3.872-20.446,5.849-1.027,23.144-6.548,23.144-6.548s17.04,2.713,21.219,2.228c.617,3.131,1.091,10.151-2.609,16.412-4.244,7.182-45.625,8.354-45.625,8.354" transform="translate(-1483.333 -979.886)" fill="#003853"/>
      <path id="Trazado_595174" data-name="Trazado 595174" d="M1680.01,1154.695a18.893,18.893,0,0,0-.743-2.681c-.709-1.948-6.186-4.437-7.587-.1a8.2,8.2,0,0,0,.148,2.776Z" transform="translate(-1481.236 -1018.61)" fill="#f0c0a7"/>
      <path id="Trazado_595175" data-name="Trazado 595175" d="M5.488,1276.647c-5.84,5.739-5.523,12.242-5.466,16.4.645,10.827,21.172,13.953,52.726,13.836.222-1.555,10.89-6.944,10.548-25.22-9.794-1.936-25.808-1.883-32.014-2.111-2.335-.228-12.392-.9-25.793-2.9" transform="translate(0 -1131.265)" fill="#144665"/>
      <path id="Trazado_595176" data-name="Trazado 595176" d="M672.577,1299.951c-.011-.6-.037-4.031.469-3.987,1.895.162,4.691.554,5.5,1.191a2.636,2.636,0,0,1,.645,2.8Z" transform="translate(-595.981 -1148.382)" fill="#e1b39d"/>
      <path id="Trazado_595177" data-name="Trazado 595177" d="M625.077,1297.119a8.922,8.922,0,0,1,.415-1.912c.693-1.9,6.038-4.331,7.406-.093a4.955,4.955,0,0,1,.109,2.005Z" transform="translate(-553.894 -1145.55)" fill="#f0c0a7"/>
      <path id="Trazado_595178" data-name="Trazado 595178" d="M490.957,858.015c-28.925.562-37.777.973-51.644,16.113C431.431,882.734,410.3,907,400.423,919.66s-3.738,34.686,102.434,34.686,115.516-24.993,92.753-41.648c-13.134-9.61-48.642-35.351-56.73-41.546s-19.018-13.7-47.924-13.137" transform="translate(-351.872 -760.28)" fill="#fffae7"/>
      <path id="Trazado_595179" data-name="Trazado 595179" d="M759.46,1019.465s-1.88,4.232-3.19,7.591c-.114.228-.869.236-1.072.228-9.064-.334-22.7-2.29-27.127-2.891-1.052-.143.327-.8.327-.8l7.9-4.67Z" transform="translate(-644.809 -902.894)" fill="#177e9d"/>
      <path id="Trazado_595180" data-name="Trazado 595180" d="M755.07,1011.686a71.493,71.493,0,0,1-4.175,7.021c-8.187.657-29.041-2.221-29.041-2.221l9.024-5.76Z" transform="translate(-639.651 -895.627)" fill="#fff"/>
      <path id="Trazado_595181" data-name="Trazado 595181" d="M596.348,1287.155a2.177,2.177,0,0,1-1.747.295c-.978-.191-15.676-2.657-19.51-3.3-.912-.152-.418-.874-.418-.874s16.451-13.6,16.869-13.906a2.393,2.393,0,0,1,1.288-.228l20.965,1.785-.658,1.469Z" transform="translate(-509.112 -1124.611)" fill="#305d81"/>
      <path id="Trazado_595182" data-name="Trazado 595182" d="M648.091,1306.58l-5.319,4.331,5.015.76,5.281-4.483Z" transform="translate(-569.574 -1157.789)" fill="#477297"/>
      <path id="Trazado_595183" data-name="Trazado 595183" d="M684.294,1281.334l-15.5,13.88,1.469.253,15.286-14.032Z" transform="translate(-592.632 -1135.419)" fill="#477297"/>
      <path id="Trazado_595184" data-name="Trazado 595184" d="M708.269,1284.34l-15.121,13.994,1.469.253,14.906-14.146Z" transform="translate(-614.214 -1138.082)" fill="#477297"/>
      <path id="Trazado_595185" data-name="Trazado 595185" d="M732.08,1286.674,717.5,1300.858l1.469.253,14.361-14.335Z" transform="translate(-635.795 -1140.15)" fill="#477297"/>
      <path id="Trazado_595186" data-name="Trazado 595186" d="M763.405,1159.807l.472.206L780.86,1145.2s10.046-17.458,10.285-17.879-.115-.848-.533-.508-15.879,12.752-15.879,12.752a6.35,6.35,0,0,0-.864,1.151c-.494.8-10.464,19.094-10.464,19.094" transform="translate(-676.47 -998.381)" fill="#003853"/>
      <path id="Trazado_595187" data-name="Trazado 595187" d="M658.515,1257.785l1.971.368s9.243-6.4,12.349,2.887c-.612.517-1.268.295-1.769-.634-.476.319-1.352.117-2.612-.983a2.124,2.124,0,0,0-3.555.769c-.266.631.475.479,2.573.664,2.284.2,2.183.5,2.464,1.237-.742.433-4.192.025-6,.594a4.471,4.471,0,0,1-3.6-.831l-3.9-.911Z" transform="translate(-581.682 -1112.973)" fill="#e1b39d"/>
      <path id="Trazado_595188" data-name="Trazado 595188" d="M274.236,899.885s7.023,29.182,8.574,34.83c9.514,1.1,16.271,4.791,26.178,7.562-.883,5.1-3.331,5.125-3.331,5.125s-19.215-2.907-26.493-4.989-18.877-33.35-18.877-33.35Z" transform="translate(-230.647 -797.408)" fill="#b1d8e6"/>
      <path id="Trazado_595189" data-name="Trazado 595189" d="M21.6,856.264c4.024-.683,10.233-3.615,12.754-6.3,2.809-4.479,9.435-21.084,12.043-27.947,1.808-4.759,2.744-15.745,1.153-19.741-.1-.257,1.572-3.222,1.441-3.458-3.155-5.689-11.96-8.79-11.96-8.79l-2.714-.189.085,1.936s-11.767,3.589-21.532,20.988c-6.156,10.968-6.364,29.325-8.882,41.11-.715,3.343,13.712,3.054,17.613,2.392" transform="translate(-3.513 -699.893)" fill="#d2e8f2"/>
      <path id="Trazado_595190" data-name="Trazado 595190" d="M301.423,698.732c-2-.162-8.13,3.347-10.183,7.562-5.26-2.8-8.775-7.794-9.792-8.055a13.351,13.351,0,0,0,4.105-5.076s8.821-21.424,15.87,5.569" transform="translate(-249.397 -607.081)" fill="#e1b39d"/>
      <path id="Trazado_595191" data-name="Trazado 595191" d="M88.771,1026.119c1.456,4.49,23-.569,23-.569s3.758-7.772,4.157-9.594c-.626-1.11-7.125-3.781-6.006-9.665,2-10.52-7.63-14.435-12.317-8.287-11.688,15.332-10.293,23.625-8.837,28.115" transform="translate(-77.817 -881.762)" fill="#b1d8e6"/>
      <path id="Trazado_595192" data-name="Trazado 595192" d="M323.86,880.154a3.221,3.221,0,0,1,1.488,2.82,4.021,4.021,0,0,1-.46,2.253,53.929,53.929,0,0,1,2.9,19.63c-.645,17.036-.757,21.938-.757,21.938l-4.936,5.964-3.9-5.423s2.358-6.625,4.947-23.128c1.786-11.4.093-18.62.093-18.62s-.957-1.353-2.2-2.816a11.249,11.249,0,0,0,2.829-2.618" transform="translate(-281.955 -779.924)" fill="#177e9d"/>
      <path id="Trazado_595193" data-name="Trazado 595193" d="M266.145,799.741a9.706,9.706,0,0,1-4.08,4.3c-4.53-8.389-10.1-11-10.1-11s1.005-1.459,2.113-2.729c4.537,1.687,12.063,9.429,12.063,9.429" transform="translate(-223.276 -700.313)" fill="#b1d8e6"/>
      <path id="Trazado_595194" data-name="Trazado 595194" d="M487.151,1090.885a55.3,55.3,0,0,1,8.7-3.968c.4,2.123-3.841,3.529-3.841,3.529s11.206,1.289,11.724,1.414.511,1.24.511,1.24a.931.931,0,0,1,.577.286.736.736,0,0,1-.216,1.081c-.917.528-6.133.432-6.133.432s3.633.4,4,.386.054,1.379-2.914,1.452c-1.129.028-9.07,1.2-10.849-1.479a20.787,20.787,0,0,1-2.632-.519Z" transform="translate(-430.723 -963.142)" fill="#f0c0a7"/>
      <path id="Trazado_595195" data-name="Trazado 595195" d="M150.624,883.973s-27.293,2.579-29.41,2.792c-.65-1.633,6.58-14.247,6.025-25.054-.344-6.689-7.859-11.736-13.077-4.539-4.74,6.538-6.842,20.259-8.057,29.93-.668,5.319-.356,9.777,8.648,10.119,12.578.478,36.1-7.237,36.1-7.237Z" transform="translate(-93.827 -756.447)" fill="#d2e8f2"/>
      <path id="Trazado_595196" data-name="Trazado 595196" d="M375.653,637.5c-1.858-.439-3.02-1.415-4.9-1.9-2.674-.681-2.477-3.92-2.477-3.92l-.22-2.515s-2.539-1.364-3.188-2.486c-.261-.453-1.561-2.6.631-3.1,3.244-.741,1.694-8.737,1.694-8.737l4.408-.563,3.493,2.511,4.012,11.59a.744.744,0,0,1-.838.648c-.787-.015-.668.146-.668.146s-.594,7.206-.681,7.569a1.011,1.011,0,0,1-1.265.752" transform="translate(-322.766 -544.332)" fill="#f0c0a7"/>
      <path id="Trazado_595197" data-name="Trazado 595197" d="M312.61,589.484c3.718-5.34,11.846-1.919,14.289-4.968a3.843,3.843,0,0,1,.382,6.534c-3.414-.8-6.673.481-6.026,2.875.046.443,1.224,3.342.594,5.036-.238.874-.493,1.251-1.529.688-.439-1.121-1.473-2.994-3.708-2.139-1.3.508-.081,6.457-5.85,6.794.143-1.732-2.691-12.737,1.847-14.82" transform="translate(-274.715 -517.953)" fill="#003853"/>
      <path id="Trazado_595198" data-name="Trazado 595198" d="M398.8,666.991a3.351,3.351,0,0,0,.29-3.246c-1.48.04-1.718,1.779-2.521,2.5-4.547-1.049-5.9-3.723-5.449-5.724.776-3.482-1.919-6.543-1.967-7.124-2.172,2.346.338,5.841.25,7.828a13.825,13.825,0,0,1-.639,3.068,7.409,7.409,0,0,0,0,3.506c.74,3.263,5.376,5.259,8.036,5.379,2.568.116,2-6.182,2-6.182" transform="translate(-344.048 -578.986)" fill="#003853"/>
      <path id="Trazado_595199" data-name="Trazado 595199" d="M657.421,683.93a32.056,32.056,0,0,1,7.642,2.694c5.011,2.881,2.163,11.562-.494,16.572-2.158,4.07-5.676-10.246-5.676-10.246Z" transform="translate(-582.555 -606.046)" fill="#144665"/>
      <path id="Trazado_595200" data-name="Trazado 595200" d="M941.525,650.465l4.67-4.039s.81-2.528,1.78-4.824c.912-2.162,4.831-2.984,5.29-3.219.725.877-1.284,1.781-2.261,2.122a2.253,2.253,0,0,1,.745,2.005c-.2.707-1.517,1.393-1.826.623a.87.87,0,0,0-.373.96c.074.446.346.511,1.231-.107,1.715-1.2,2.151-.915,2.568-.6-.26.5-3.028,2.9-3.657,3.983a1.465,1.465,0,0,1-1.607.809l-5,5.481Z" transform="translate(-834.306 -565.686)" fill="#f0c0a7"/>
      <path id="Trazado_595201" data-name="Trazado 595201" d="M840.8,736.147a134,134,0,0,1-12.89,10.58c-2.367,1.587-1.177,8.116,3.919,5.5s11.742-13.347,11.742-13.347-1.258-1.282-2.771-2.733" transform="translate(-732.59 -652.316)" fill="#144665"/>
      <path id="Trazado_595202" data-name="Trazado 595202" d="M694.239,706.758c3.37.986,6.658,8.979,15.862,13.49,3.912,1.916,2.236,8.749-3.365,5.784-5.655-2.992-11.822-6.613-15.914-6.946-.208-3.128,1.746-12.816,3.416-12.327" transform="translate(-612.139 -626.258)" fill="#144665"/>
      <path id="Trazado_595203" data-name="Trazado 595203" d="M498.01,675.522a22.268,22.268,0,0,0-4.94.334c-3.343,2.153-8.852,4.989-10.03,6.306-3.454,3.86-2.331,8.644-1.649,11.679.025,3.726.138,6.422-.095,9.408q0,.163,0,.326c-.161,6.863-6.1,14.591-6.1,14.591s4.84,2.9,9.224,3.3a37.357,37.357,0,0,0,9.651-.769s1.82-4.539,7.715-16.028c2.912-1.964,4.166-3.956,4.309-6.913-1.409-7.892-8.08-22.236-8.08-22.236" transform="translate(-421.077 -598.577)" fill="#d2e8f2"/>
      <path id="Trazado_595204" data-name="Trazado 595204" d="M625.338,673.684c2.7,1.674,7.734,14.379,4.17,14.191-2.2.247-3.8-4.16-4.639-5.923-1.456-3.054-2.815-7.046-3.441-7.881a7.439,7.439,0,0,1,3.911-.388" transform="translate(-550.66 -596.864)" fill="#f0c0a7"/>
      <path id="Trazado_595205" data-name="Trazado 595205" d="M640.357,572.568c-2.181-.569-5.83,2.8-7.718,6.567-1.041,1.417-1.114,2.359-2.211,2.641-1.347.188-6.47-5.732-5.5-7.434a6.057,6.057,0,0,0,2.161-4.169s6.788-21.563,13.271,2.4" transform="translate(-553.653 -497.346)" fill="#e1b39d"/>
      <path id="Trazado_595206" data-name="Trazado 595206" d="M594.523,531.863s-2.393,1-3.347,6.123-2.063,12.406-2.469,13.91-.365.178,3.363-1.856c1.684-.919,4.442-1.237,5.193-2.677a6.1,6.1,0,0,0,.689-3.214Z" transform="translate(-521.515 -471.296)" fill="#003853"/>
      <path id="Trazado_595207" data-name="Trazado 595207" d="M712.663,513.669s8.275,2.684-.1,8.583.1-8.583.1-8.583" transform="translate(-628.143 -455.174)" fill="#003853"/>
      <path id="Trazado_595208" data-name="Trazado 595208" d="M483.456,698.146c-.2-.658,1.215-4.517,3.948-6.111a64.863,64.863,0,0,1,9.931-4.872,34.136,34.136,0,0,1,2.759,19.047c-.575,3.874-3.846,11.152-12.168,23.285-2.278,1.594-8.18-.877-7.459-1.94a66.043,66.043,0,0,0,6.633-20.75c.633-5.724-3.441-8-3.644-8.659" transform="translate(-425.699 -608.91)" fill="#144665"/>
      <path id="Trazado_595209" data-name="Trazado 595209" d="M615.627,968.775s9.205-.38,12.5-.631c.182-.753,4.679-.627,8.273-.83.29,1.942-3.223,1.563-3.628,2.026,1.3,1.1,5.9,2.475,6.275,2.707.609.377-.027,1.075-.027,1.075s.657.812-.2,1-5.087-.7-5.087-.7,2.917.843,3.179.986c.58.319-.028,1.2-2.847.513-1.592-.386-4.837-1.323-5.648-3.091-.275-.044-14.727,1.9-14.727,1.9Z" transform="translate(-543.805 -857.158)" fill="#f0c0a7"/>
      <path id="Trazado_595210" data-name="Trazado 595210" d="M471.07,776.17l-14.387-.209s4.269-11.011,6.806-16.9-7.106-12.977-9.273-5.663-6.5,20.131-6.676,25.264,6.227,5.454,16.576,3.383c2.029-.406,7.068-1.184,7.068-1.184Z" transform="translate(-396.572 -664.838)" fill="#144665"/>
      <path id="Trazado_595211" data-name="Trazado 595211" d="M673.224,533.9s-1.294-.54-2.335,1.875,1.765,2.875,1.765,2.875a7.952,7.952,0,0,0,3.673,4.478,3.62,3.62,0,0,0,1.253.446,34.364,34.364,0,0,0,3.482.1.506.506,0,0,0,.517-.432c.015-.241.269-5.81.269-5.81s1.429-.418.686-1.025c-3.861-3.159-1.521-7.125-5.636-8.2Z" transform="translate(-594.285 -468.06)" fill="#f0c0a7"/>
      <path id="Trazado_595212" data-name="Trazado 595212" d="M636.779,511.908s-1.765.74-2.733-.342a1.382,1.382,0,0,0-2.534.4c-.456,1.167.1,4.237-.736,6.839-.825,2.583-4.474,3.126-4.474,3.126s2.074-3.577.883-4.095-2.153-11.166-.869-12.531a16.992,16.992,0,0,1,9.025-4.4c4.166-.582,4.788,2.588,2.806,6.311-1.625,3.051-1.369,4.7-1.369,4.7" transform="translate(-554.452 -443.797)" fill="#003853"/>
      <path id="Trazado_595213" data-name="Trazado 595213" d="M836.44,224.135c-.313,1.786-1.085,1.794-2.636.437-7.388-6.461-11.867-9.112-23.86-8.636-17.047.676-39.152-.344-34.172-24.982,4.456-22.046,26.061-26.319,50-17.267,18.925,7.156,14.142,30.615,10.667,50.448" transform="translate(-686.796 -149.964)" fill="#ffce1d"/>
      <path id="Trazado_595214" data-name="Trazado 595214" d="M949.845,342.554a1.092,1.092,0,0,1-1.092,1.092H921.1a1.092,1.092,0,1,1,0-2.183h27.655a1.092,1.092,0,0,1,1.092,1.092" transform="translate(-815.237 -302.577)" fill="#fff"/>
      <path id="Trazado_595215" data-name="Trazado 595215" d="M949.845,401.669a1.092,1.092,0,0,1-1.092,1.091H921.1a1.092,1.092,0,1,1,0-2.183h27.655a1.092,1.092,0,0,1,1.092,1.092" transform="translate(-815.237 -354.96)" fill="#fff"/>
      <path id="Trazado_595216" data-name="Trazado 595216" d="M936.563,460.783a1.092,1.092,0,0,1-1.092,1.091H921.1a1.092,1.092,0,1,1,0-2.183h14.374a1.092,1.092,0,0,1,1.092,1.092" transform="translate(-815.237 -407.343)" fill="#fff"/>
      <path id="Trazado_595217" data-name="Trazado 595217" d="M1464.811,66.118c-3.824-.064-8.6,4.971-12.428,8.365-.455.4-1.026.42-1.061-.43-.208-5.234-.515-20.769,1.5-33.046,1.869-11.374,11.249-16.6,30.747-20.043s31.43,3.189,32.341,12.527c1.393,14.281.683,36.213-21.637,34.847-12.15-.744-25.314-2.151-29.464-2.22" transform="translate(-1285.913 -17.76)" fill="#ea3584"/>
      <path id="Trazado_595218" data-name="Trazado 595218" d="M1633.811,194.182a1.028,1.028,0,0,1-1.028,1.028h-30.918a1.028,1.028,0,0,1,0-2.056h30.918a1.028,1.028,0,0,1,1.028,1.028" transform="translate(-1418.537 -171.158)" fill="#fff"/>
      <path id="Trazado_595219" data-name="Trazado 595219" d="M1633.811,249.849a1.028,1.028,0,0,1-1.028,1.028h-30.918a1.028,1.028,0,0,1,0-2.056h30.918a1.028,1.028,0,0,1,1.028,1.028" transform="translate(-1418.537 -220.486)" fill="#fff"/>
      <path id="Trazado_595220" data-name="Trazado 595220" d="M1616.428,305.518a1.028,1.028,0,0,1-1.028,1.028h-13.536a1.028,1.028,0,0,1,0-2.056H1615.4a1.028,1.028,0,0,1,1.028,1.028" transform="translate(-1418.537 -269.816)" fill="#fff"/>
      <path id="Trazado_595221" data-name="Trazado 595221" d="M522.6,116.188c-.137,1.1-.862.891-1.328.418-5.2-5.276-4.863-7.326-15.65-7.326-19.7,0-27.1-4.084-26.052-20.579.848-13.287,18.791-14.673,36.724-7.686,13.152,5.124,7.174,28.183,6.306,35.174" transform="translate(-424.867 -68.116)" fill="#6826cc"/>
      <path id="Trazado_595222" data-name="Trazado 595222" d="M643.412,226.857a1.446,1.446,0,1,1,1.446,1.446,1.446,1.446,0,0,1-1.446-1.446" transform="translate(-570.141 -199.743)" fill="#fff"/>
      <path id="Trazado_595223" data-name="Trazado 595223" d="M679.405,226.857a1.446,1.446,0,1,1,1.446,1.446,1.446,1.446,0,0,1-1.446-1.446" transform="translate(-602.036 -199.743)" fill="#fff"/>
      <path id="Trazado_595224" data-name="Trazado 595224" d="M716,226.857a1.446,1.446,0,1,1,1.446,1.446A1.446,1.446,0,0,1,716,226.857" transform="translate(-634.465 -199.743)" fill="#fff"/>
      <path id="Trazado_595225" data-name="Trazado 595225" d="M1936.011,207.769c-.53.3-.712,0-.8-.4s.153-7.61,1.487-19.974c1.533-14.217,23.942-20.561,34.332-15.885,9.11,4.1,12,16.607,6.385,27.064-4.833,9.007-14.349,9.092-24.667,7.372-10.249-1.708-10.932-1.48-16.74,1.822" transform="translate(-1714.821 -150.634)" fill="#a2a7c5"/>
      <path id="Trazado_595226" data-name="Trazado 595226" d="M2088.047,328.479a1.446,1.446,0,1,1,1.446,1.446,1.446,1.446,0,0,1-1.446-1.446" transform="translate(-1850.264 -289.792)" fill="#fff"/>
      <path id="Trazado_595227" data-name="Trazado 595227" d="M2124.041,328.479a1.446,1.446,0,1,1,1.446,1.446,1.446,1.446,0,0,1-1.446-1.446" transform="translate(-1882.159 -289.792)" fill="#fff"/>
      <path id="Trazado_595228" data-name="Trazado 595228" d="M2160.637,328.479a1.446,1.446,0,1,1,1.446,1.446,1.446,1.446,0,0,1-1.446-1.446" transform="translate(-1914.587 -289.792)" fill="#fff"/>
      <path id="Trazado_595229" data-name="Trazado 595229" d="M1146.826,38.43c.683.8,1.051.49,1.123-.231.388-3.916.776-16.761-.185-23.1-1.1-7.283-3.871-11.1-15.688-13.985s-32.122-.246-33,8.846-4.221,25.069,18.324,25.409c14.131.213,20.812-3.924,23.089-2.444a44.412,44.412,0,0,1,6.339,5.5" transform="translate(-973.296 -0.003)" fill="#fffae7"/>
      <path id="Trazado_595230" data-name="Trazado 595230" d="M1277.9,160.2a1.446,1.446,0,1,1,1.446,1.446,1.446,1.446,0,0,1-1.446-1.446" transform="translate(-1132.374 -140.673)" fill="#fff"/>
      <path id="Trazado_595231" data-name="Trazado 595231" d="M1313.893,160.2a1.446,1.446,0,1,1,1.446,1.446,1.446,1.446,0,0,1-1.446-1.446" transform="translate(-1164.269 -140.673)" fill="#fff"/>
      <path id="Trazado_595232" data-name="Trazado 595232" d="M1350.488,160.2a1.446,1.446,0,1,1,1.446,1.446,1.446,1.446,0,0,1-1.446-1.446" transform="translate(-1196.697 -140.673)" fill="#fff"/>
      <path id="Trazado_595233" data-name="Trazado 595233" d="M1385.266,1071.8s1.88,4.232,3.19,7.591c.114.228.869.236,1.072.228,9.064-.333,22.7-2.29,27.127-2.89,1.052-.143-.327-.8-.327-.8l-7.9-4.67Z" transform="translate(-1227.515 -949.268)" fill="#177e9d"/>
      <path id="Trazado_595234" data-name="Trazado 595234" d="M1378.519,1064.02a71.49,71.49,0,0,0,4.175,7.021c8.187.657,29.041-2.221,29.041-2.221l-9.024-5.76Z" transform="translate(-1221.536 -942.001)" fill="#fff"/>
      <path id="Trazado_595235" data-name="Trazado 595235" d="M1594.331,1037.689a2.99,2.99,0,0,0-1.5.289c-.237.141-1.871,1.317-2.035,1.505s-.857.581-.65.866a.892.892,0,0,0,1.152.161,15.316,15.316,0,0,0,1.843-1.181l.546.026a5.833,5.833,0,0,0-.87.671,25.519,25.519,0,0,0-1.861,3,.891.891,0,0,0,.825.507c.09-.005.263-.063.3-.168a3.242,3.242,0,0,0-.04.532c0,.112.288.643.739.414a8.562,8.562,0,0,0,1.468-1.791l1.421-.831s-1.339,2.667-1.357,2.8.3.517.6.395c1.054-.439,1.958-2.4,1.958-2.4a15.087,15.087,0,0,1,1.949-.627,3.29,3.29,0,0,0,3.909-1.046c1.151-.357,12.9-4.978,12.9-4.978s.1-4.321-.21-4.873c-7.555,4.2-13.685,7.129-13.685,7.129s-6.932-.384-7.4-.4" transform="translate(-1409.028 -913.557)" fill="#f0c0a7"/>
      <path id="Trazado_595236" data-name="Trazado 595236" d="M1427.022,814.157a9.456,9.456,0,0,1-1.644-1.37,1.061,1.061,0,0,1,1.2-.352,10.82,10.82,0,0,1,1.148.788,5.232,5.232,0,0,1,1.105-1.439c.682-.306.648.655.449,1.177.276,0,.977-.061.545,1.247a1.339,1.339,0,0,0-.041.159,4.79,4.79,0,0,0,3.312.247c.268-.313.027-.9-.3-1.326-1.059-1.364-1.492-1.769-.525-2.582.339.223,1.183,1.228,3.247,2.975a5.924,5.924,0,0,1,1.442,2.421c1.787.566,7.41,2.57,7.7,2.768-.154.372-1.365,1.563-1.708,2.343-2.014-.564-4.86-1.792-8.255-2.768a15.846,15.846,0,0,1-4.846-.883c-.781-.488-2.121-1.124-2.179-1.629a1.2,1.2,0,0,1-.649-1.775" transform="translate(-1263.059 -718.383)" fill="#f0c0a7"/>
      <path id="Trazado_595237" data-name="Trazado 595237" d="M1572.938,711.318s-7.652-.229-12.731,7.676c-3.908,6.081-8.741,14.983-8.741,14.983l-21.045-5.474-1.352,3.429s8.518,3.888,16.554,7.5c6.347,2.85,8.783,3.019,10.559,1.611s17.476-17.572,17.476-17.572Z" transform="translate(-1354.941 -630.314)" fill="#b1d8e6"/>
      <path id="Trazado_595238" data-name="Trazado 595238" d="M1850.613,708.156c-.638-6.945-1.707-10.068-2.314-15.407-1.946-21.793-4.733-27.842-9.9-33.008-1.118-1.118-8.521-4.128-8.521-4.128l-.92-1.017-4.223,1.088s-5.772,5.539-6.073,5.959c.226,1.033.145.963.531,2.353a27.557,27.557,0,0,0-1.184,8.459c.272,3.043.311,5.928.955,9.858a12.961,12.961,0,0,0,.5,1.634,70.642,70.642,0,0,0,2.471,8.955c2.131,8.51,2.95,14.216,2.95,14.216s.866,1.254,5.011,2.429a1.869,1.869,0,0,0,.3.056c6.171,2.295,21.019,5.145,20.413-1.449" transform="translate(-1610.965 -580.053)" fill="#d2e8f2"/>
      <path id="Trazado_595239" data-name="Trazado 595239" d="M1895.167,841.675c-1.679,4.714-14.206,3.358-14.206,3.358s11.716-26.164,14.593-25.635c3.164.581,3.254,12.054-.387,22.277" transform="translate(-1666.761 -726.079)" fill="#b1d8e6"/>
      <path id="Trazado_595240" data-name="Trazado 595240" d="M1808.677,718.2a3.423,3.423,0,0,0-.76,1.911,6.581,6.581,0,0,0,.222,1.641,70.24,70.24,0,0,0-3.283,15.637,147.084,147.084,0,0,0-.406,21.364l3.151,3.625,3.473-1.985s-.582-9.284-2.141-21.551a60.011,60.011,0,0,1,.5-16.949s.633-.9,1.486-1.892a6.334,6.334,0,0,1-2.239-1.8" transform="translate(-1598.784 -636.414)" fill="#ffce1d"/>
      <path id="Trazado_595241" data-name="Trazado 595241" d="M1794.191,590.156c1.87-.154,5.137,2.646,5.77,4.9,3.57,1.35,7.1-4.847,7.978-6.152a8.144,8.144,0,0,1-1.61-3.853s-8.785-14.126-12.138,5.108" transform="translate(-1589.872 -513.993)" fill="#e1b39d"/>
      <path id="Trazado_595242" data-name="Trazado 595242" d="M1771.339,517.646s1.4-2.415,3.017-.321-1.731,3.927-1.731,3.927-1.7,5.688-4.045,6.228a21.239,21.239,0,0,1-3.934.463c-.243.007-1.158-.135-1.233-.367s-.65-6.456-.65-6.456-.983-.084-.671-1a58.175,58.175,0,0,0,2.015-7.458s4-4.622,5.627-2.928,1.6,7.912,1.6,7.912" transform="translate(-1561.374 -451.357)" fill="#f0c0a7"/>
      <path id="Trazado_595243" data-name="Trazado 595243" d="M1777.3,506.446c-.15.35,1.279,1.1,1.983-.25a1.479,1.479,0,0,1,2.586-.348c.9.882-.144,2.458.692,3.87.548.925,3.335,1.665,3.751,1.719.021-2.4,2.329-10.24-.163-12.014-1.544-1.1-5.26-3.9-9.513-3.805s-6.922,1.487-4.417,4.938c8.781-1.778,5.23,5.539,5.081,5.889" transform="translate(-1569.542 -439.177)" fill="#144665"/>
      <path id="Trazado_595244" data-name="Trazado 595244" d="M1718.91,729.357c-1.39,9.7-1.986,11.751-3.8,16.226-1.411,4.5-21.964,16.835-21.964,16.835l2.505,3.839s23.148-9.171,26.211-13.885c.908-1.194,8.277-11.069,8.938-21.736.822-13.293-9.972-14.687-11.893-1.279" transform="translate(-1500.335 -637.971)" fill="#d2e8f2"/>
      <path id="Trazado_595245" data-name="Trazado 595245" d="M1845.951,654.256l1.745,1.573-7.265,8.588a10.345,10.345,0,0,1-3.24-3.283c4.617-1.582,8.76-6.877,8.76-6.877" transform="translate(-1627.975 -579.751)" fill="#b1d8e6"/>
      <path id="Trazado_595246" data-name="Trazado 595246" d="M1681.686,1260.9a2.613,2.613,0,0,0,1.746.235c.978-.152,15.668-2.119,19.5-2.629.911-.121.418-.7.418-.7s-16.443-10.845-16.861-11.088a2.935,2.935,0,0,0-1.288-.182l-20.46,1.7.163.894Z" transform="translate(-1475.164 -1104.577)" fill="#305d81"/>
      <path id="Trazado_595247" data-name="Trazado 595247" d="M1851.353,1276.385l5.316,3.454-5.012.606-5.279-3.575Z" transform="translate(-1636.116 -1131.033)" fill="#477297"/>
      <path id="Trazado_595248" data-name="Trazado 595248" d="M1764.933,1256.256l15.494,11.068-1.469.2-15.279-11.189Z" transform="translate(-1562.834 -1113.196)" fill="#477297"/>
      <path id="Trazado_595249" data-name="Trazado 595249" d="M1743.929,1258.649l15.114,11.159-1.469.2-14.9-11.28Z" transform="translate(-1544.223 -1115.317)" fill="#477297"/>
      <path id="Trazado_595250" data-name="Trazado 595250" d="M1724.366,1260.514l14.569,11.31-1.468.2-14.354-11.431Z" transform="translate(-1526.888 -1116.969)" fill="#477297"/>
      <path id="Trazado_595251" data-name="Trazado 595251" d="M1599.078,1127.417l-.471.206-16.831-11.587s-10.282-17.747-10.52-18.168.114-.848.532-.508,15.968,9.821,15.968,9.821a6.329,6.329,0,0,1,.863,1.152c.494.8,10.459,19.084,10.459,19.084" transform="translate(-1392.255 -972.286)" fill="#003853"/>
      <path id="Trazado_595252" data-name="Trazado 595252" d="M2284.9,659.1s6.247-2.169,6.6,4.233-3.924,14.919-2.2,18.61c.812,1.735.413,2.887-4.375.8s1.619-14.473,1.137-16.736a7.192,7.192,0,0,0-1.637-3.412Z" transform="translate(-2023.143 -583.733)" fill="#003853"/>
      <path id="Trazado_595253" data-name="Trazado 595253" d="M1894.738,1141.48s12.415-5.588,21.567-9.119c.407.557-.837,7.536-.837,7.536s-19.252,3.956-20.651,4.6Z" transform="translate(-1678.969 -1003.41)" fill="#f0c0a7"/>
      <path id="Trazado_595254" data-name="Trazado 595254" d="M1979.416,854.452c-4.324,9.188-3.313,20.756-7.456,23.617-2.67,1.361-14.527,6.487-14.527,6.487l1.184,4.834s17.447-3.284,22.445-6.141c2.442-1.382,3.552-7.547,8.372-17.6,7.851-16.364-2.157-27.9-10.017-11.2" transform="translate(-1734.524 -749.915)" fill="#144665"/>
      <path id="Trazado_595255" data-name="Trazado 595255" d="M2115.024,604.177s-9.792,3.7-.528,11.466c9.655,8.088.528-11.466.528-11.466" transform="translate(-1870.17 -535.375)" fill="#003853"/>
      <path id="Trazado_595256" data-name="Trazado 595256" d="M2154.415,882.655c-5.229,1.776-16.536-.787-20.846-3.969-.222-5.18-.286-20.393-3.44-23.011-2.529-2.1-3.346-3.046-3.451-5.664.205-2.414,5.878-14.466,8.348-21.61s8.72-6.143,8.72-6.143,15.9,58.621,10.669,60.4" transform="translate(-1884.495 -728.579)" fill="#f8d25f"/>
      <path id="Trazado_595257" data-name="Trazado 595257" d="M2252.136,835.821c.314-1.649-.937-4.81-3-6.142-2.259-1.461-14.528-7.047-14.528-7.047s-6.953,18.413-5.067,31.293a90.232,90.232,0,0,0,11.345,32.064,36.564,36.564,0,0,0,14.768-2.514c-2.7-12.2-8.332-14.857-9.44-24.42-.7-6.071,5.7-22.1,5.919-23.234" transform="translate(-1975.36 -728.953)" fill="#144665"/>
      <path id="Trazado_595258" data-name="Trazado 595258" d="M2143.7,682.676a23.68,23.68,0,0,1,7.252,11.445c1.888,2.606,7.879-8.6,7.879-8.6a7.1,7.1,0,0,1-2.943-3.862c-.771-2.609-1.874-13.759-1.874-13.759Z" transform="translate(-1899.576 -591.839)" fill="#e1b39d"/>
      <path id="Trazado_595259" data-name="Trazado 595259" d="M2108.9,647.456s2.166-2.615,3.695.217-3.348,4.3-3.348,4.3-2.627,4.767-5.486,5.41a32.2,32.2,0,0,1-3.747.44c-.293.045-1.2-.236-1.238-.844-.018-.3-.883-6.624-.883-6.624s-1.693-.269-.946-1.176c3.819-4.641,1.089-8.855,5.992-10.606Z" transform="translate(-1857.984 -565.854)" fill="#f0c0a7"/>
      <path id="Trazado_595260" data-name="Trazado 595260" d="M2150.337,604.345s2.238,1.083,3.218-.491,2.651-2.323,3.56-1.084-.133,4.114.59,5.974a4.551,4.551,0,0,0,1.628,2.22s1.529-.811,3-1.443,5.8-11.765,4.228-13.449-9.01-6.759-14.13-7.494-5.8,3.109-3.478,7.746,1.388,8.021,1.388,8.021" transform="translate(-1903.102 -521.472)" fill="#003853"/>
      <path id="Trazado_595261" data-name="Trazado 595261" d="M2243.72,819.977l4.492,2.35s-6.374,13.571-8.783,13.362c.537-3.594,4.292-15.711,4.292-15.711" transform="translate(-1984.407 -726.6)" fill="#305d81"/>
      <path id="Trazado_595262" data-name="Trazado 595262" d="M2273.143,1246.792a52.212,52.212,0,0,1-2.343-6.117c-.32-1.578,17.229-.754,16.736.775s-14.393,5.342-14.393,5.342" transform="translate(-2012.202 -1098.635)" fill="#003853"/>
      <path id="Trazado_595263" data-name="Trazado 595263" d="M2309.17,936.588l15.034-3.941s-4.607-11.212-8.381-16.761,4.5-19.666,6.544-14.4,10.634,25.653,11.832,30.89-2.507,6.66-13.425,8.3c-9.5,1.427-10.446,1.362-10.446,1.362Z" transform="translate(-2046.206 -797.803)" fill="#144665"/>
      <path id="Trazado_595264" data-name="Trazado 595264" d="M2120.257,629.583s-4.618.546-5.183,3.167c-.309,1.435,1.019,3.68,4.005,6.361,8.22,7.382,1.178-9.529,1.178-9.529" transform="translate(-1874.174 -557.888)" fill="#003853"/>
      <path id="Trazado_595265" data-name="Trazado 595265" d="M1798.367,1199.666l-1.818.655s-5.563-2.109-8.647-1.14c-1.019.582-2.94,2.1-3.11,2.709a18.2,18.2,0,0,0-1.1,3.239c.464.191.919.3,1.282-.08a4.424,4.424,0,0,0,.52-.911c.526.264,1.2.109,2.7-1.738,1.007-1.241,1.956-.807,3.722.326-.13.43-.422.549-2.536,1.008-2.3.5-2.159.792-2.351,1.578.811.345,4.237-.366,6.175-.482a8,8,0,0,0,3.643-1.485l3.691-1.346Z" transform="translate(-1580.568 -1062.395)" fill="#f0c0a7"/>
      <path id="Trazado_595266" data-name="Trazado 595266" d="M2146.306,1220.582c.185,1.723,3.929-.095,4.821,1.1-.141.135-1.263,1.142-7.781,2.827-1.146.3-.113,1.594-.113,1.594s-1.3.891-.187,1.13a14.173,14.173,0,0,0,3.659-.207s-2.427.571-2.5.953c-.037.2-.044.515,1.062.542a30.145,30.145,0,0,0,5.106-.611c1.168-.329,5.365-.7,6.218-2.891.357-.057,6.009-.729,6.009-.729l-.937-4.44-5.155.987a16.184,16.184,0,0,0-5.561-1.23c-.559.048-4.64.972-4.64.972" transform="translate(-1898.6 -1080.724)" fill="#f0c0a7"/>
    </g>
  </g>
</svg>
