<svg xmlns="http://www.w3.org/2000/svg" xmlns:xlink="http://www.w3.org/1999/xlink" width="85" height="85" viewBox="0 0 85 85">
  <defs>
    <clipPath id="clip-path">
      <rect id="Rect치ngulo_293149" data-name="Rect치ngulo 293149" width="55.076" height="57.651" fill="none"/>
    </clipPath>
  </defs>
  <g id="Grupo_873928" data-name="Grupo 873928" transform="translate(-810 -4115)">
    <rect id="Rect치ngulo_293148" data-name="Rect치ngulo 293148" width="85" height="85" rx="42.5" transform="translate(810 4115)" fill="#d4f4e1"/>
    <g id="Grupo_873915" data-name="Grupo 873915" transform="translate(825.041 4129.734)">
      <g id="Grupo_873914" data-name="Grupo 873914" clip-path="url(#clip-path)">
        <path id="Trazado_595063" data-name="Trazado 595063" d="M168.535,34.7a3.7,3.7,0,0,1-3.693-3.693.66.66,0,1,1,1.32,0,2.374,2.374,0,1,0,4.747,0c0-1.141-.7-1.793-2.578-2.406-.863-.282-3.489-1.138-3.489-3.661a3.693,3.693,0,1,1,7.387,0,.66.66,0,1,1-1.32,0,2.374,2.374,0,1,0-4.747,0c0,1.082.8,1.824,2.578,2.406,3.092,1.009,3.489,2.486,3.489,3.66a3.7,3.7,0,0,1-3.693,3.693" transform="translate(-125.294 -16.15)" fill="#344154"/>
        <path id="Trazado_595064" data-name="Trazado 595064" d="M178.146,17.23a.66.66,0,0,1-.66-.66V14.859a.66.66,0,1,1,1.32,0V16.57a.66.66,0,0,1-.66.66" transform="translate(-134.904 -10.792)" fill="#344154"/>
        <path id="Trazado_595065" data-name="Trazado 595065" d="M178.146,74.853a.66.66,0,0,1-.66-.66V72.482a.66.66,0,1,1,1.32,0v1.712a.66.66,0,0,1-.66.66" transform="translate(-134.904 -54.591)" fill="#344154"/>
        <path id="Trazado_595066" data-name="Trazado 595066" d="M142.743,23.669a11.834,11.834,0,1,1,11.835-11.834,11.848,11.848,0,0,1-11.835,11.834m0-22.349a10.515,10.515,0,1,0,10.515,10.515A10.527,10.527,0,0,0,142.743,1.32" transform="translate(-99.502 0)" fill="#344154"/>
        <path id="Trazado_595067" data-name="Trazado 595067" d="M37.626,34.7a3.7,3.7,0,0,1-3.693-3.693.66.66,0,1,1,1.32,0,2.374,2.374,0,0,0,4.747,0c0-1.141-.7-1.793-2.578-2.406-.863-.282-3.489-1.138-3.489-3.661a3.693,3.693,0,1,1,7.387,0,.66.66,0,1,1-1.32,0,2.374,2.374,0,0,0-4.747,0c0,1.082.8,1.824,2.578,2.406,3.092,1.009,3.489,2.486,3.489,3.66A3.7,3.7,0,0,1,37.626,34.7" transform="translate(-25.792 -16.15)" fill="#344154"/>
        <path id="Trazado_595068" data-name="Trazado 595068" d="M47.237,17.23a.66.66,0,0,1-.66-.66V14.859a.66.66,0,0,1,1.32,0V16.57a.66.66,0,0,1-.66.66" transform="translate(-35.402 -10.792)" fill="#344154"/>
        <path id="Trazado_595069" data-name="Trazado 595069" d="M47.237,74.853a.66.66,0,0,1-.66-.66V72.482a.66.66,0,0,1,1.32,0v1.712a.66.66,0,0,1-.66.66" transform="translate(-35.402 -54.591)" fill="#344154"/>
        <path id="Trazado_595070" data-name="Trazado 595070" d="M11.835,23.669A11.834,11.834,0,1,1,23.669,11.835,11.848,11.848,0,0,1,11.835,23.669m0-22.349A10.515,10.515,0,1,0,22.35,11.835,10.527,10.527,0,0,0,11.835,1.32" transform="translate(0 0)" fill="#344154"/>
        <path id="Trazado_595071" data-name="Trazado 595071" d="M70.66,168.493H55.22a3.647,3.647,0,0,1-3.52-2.7l-5.1-19.13a.66.66,0,1,1,1.275-.34l5.1,19.13a2.326,2.326,0,0,0,2.245,1.725H70.66a2.326,2.326,0,0,0,2.245-1.725l5.1-19.13a.66.66,0,1,1,1.275.34l-5.1,19.13a3.648,3.648,0,0,1-3.52,2.7" transform="translate(-35.402 -110.842)" fill="#344154"/>
        <path id="Trazado_595072" data-name="Trazado 595072" d="M68.372,127.05H33.282a2.645,2.645,0,0,1-2.642-2.642v-2.379a2.645,2.645,0,0,1,2.642-2.642H68.372a2.645,2.645,0,0,1,2.642,2.642v2.379a2.645,2.645,0,0,1-2.642,2.642m-35.089-6.344a1.324,1.324,0,0,0-1.323,1.323v2.379a1.324,1.324,0,0,0,1.323,1.323H68.372a1.324,1.324,0,0,0,1.323-1.323v-2.379a1.324,1.324,0,0,0-1.323-1.323Z" transform="translate(-23.289 -90.744)" fill="#344154"/>
        <path id="Trazado_595073" data-name="Trazado 595073" d="M112.692,79.929a.66.66,0,0,1-.638-.828,12.284,12.284,0,0,1,6.571-7.886.66.66,0,0,1,.562,1.194,10.949,10.949,0,0,0-5.857,7.029.66.66,0,0,1-.637.491" transform="translate(-85.153 -54.081)" fill="#344154"/>
        <path id="Trazado_595074" data-name="Trazado 595074" d="M93,84.043a.66.66,0,0,1-.66-.66V79.356a10.951,10.951,0,0,0-5.835-6.948.66.66,0,0,1,.562-1.194A12.283,12.283,0,0,1,93.642,79.1a.667.667,0,0,1,.022.169v4.115a.66.66,0,0,1-.66.66" transform="translate(-65.466 -54.081)" fill="#344154"/>
        <path id="Trazado_595075" data-name="Trazado 595075" d="M72.011,192.86l2.1,7.857a.463.463,0,0,0,.446.343H89.992a.463.463,0,0,0,.446-.343l2.1-7.857a22.353,22.353,0,0,1-20.523,0" transform="translate(-54.734 -146.59)" fill="#6daa85"/>
      </g>
    </g>
  </g>
</svg>
