<svg xmlns="http://www.w3.org/2000/svg" xmlns:xlink="http://www.w3.org/1999/xlink" width="85" height="85" viewBox="0 0 85 85">
  <defs>
    <clipPath id="clip-path">
      <rect id="Rect치ngulo_293158" data-name="Rect치ngulo 293158" width="64.487" height="61.718" fill="none"/>
    </clipPath>
  </defs>
  <g id="Grupo_873926" data-name="Grupo 873926" transform="translate(-810 -4450)">
    <rect id="Rect치ngulo_293157" data-name="Rect치ngulo 293157" width="85" height="85" rx="42.5" transform="translate(810 4450)" fill="#d4f4e1"/>
    <g id="Grupo_873925" data-name="Grupo 873925" transform="translate(820.253 4462.477)">
      <g id="Grupo_873924" data-name="Grupo 873924" clip-path="url(#clip-path)">
        <path id="Trazado_595126" data-name="Trazado 595126" d="M131.976,14.973a.755.755,0,0,1-.378-1.409l9.226-5.326-11.59-6.613L117.643,8.238l9.2,5.311a.755.755,0,0,1-.755,1.308l-10.34-5.969a.755.755,0,0,1,0-1.31L128.859.1a.753.753,0,0,1,.748,0l13.108,7.478a.755.755,0,0,1,0,1.31l-10.365,5.984a.751.751,0,0,1-.377.1" transform="translate(-83.685 0)" fill="#344154"/>
        <path id="Trazado_595127" data-name="Trazado 595127" d="M129.233,73.77a.757.757,0,0,1-.378-.1L115.748,66.1a.756.756,0,0,1-.378-.654V58.764a.755.755,0,0,1,1.511,0v6.247l12.353,7.132,12.353-7.132V58.96a.755.755,0,0,1,1.51,0v6.487a.756.756,0,0,1-.378.654l-13.108,7.568a.757.757,0,0,1-.378.1" transform="translate(-83.685 -42.078)" fill="#344154"/>
        <path id="Trazado_595128" data-name="Trazado 595128" d="M163.854,74.943a.755.755,0,0,1-.755-.755v-6.8a.755.755,0,0,1,1.511,0v6.8a.755.755,0,0,1-.755.755" transform="translate(-118.306 -48.332)" fill="#344154"/>
        <path id="Trazado_595129" data-name="Trazado 595129" d="M168.929,39.239a.759.759,0,0,1-.378-.1l-5.075-2.93a.755.755,0,0,1,.755-1.309l4.7,2.713,11.6-6.7-3.943-2.276a.755.755,0,1,1,.755-1.308l5.076,2.93a.756.756,0,0,1,0,1.309l-13.108,7.568a.759.759,0,0,1-.378.1" transform="translate(-118.306 -19.752)" fill="#344154"/>
        <path id="Trazado_595130" data-name="Trazado 595130" d="M110.751,39.239a.759.759,0,0,1-.378-.1L97.266,31.57a.756.756,0,0,1,0-1.309l5.076-2.93a.755.755,0,1,1,.755,1.308l-3.943,2.276,11.6,6.7,4.7-2.713a.755.755,0,0,1,.755,1.309l-5.076,2.93a.759.759,0,0,1-.378.1" transform="translate(-70.279 -19.752)" fill="#344154"/>
        <path id="Trazado_595131" data-name="Trazado 595131" d="M13.871,125.927a.756.756,0,0,1-.378-.1L.378,118.253a.755.755,0,0,1,0-1.311L13.5,109.5a.754.754,0,0,1,.746,0l13.116,7.446a.755.755,0,0,1,0,1.311l-13.116,7.573a.758.758,0,0,1-.378.1m-11.6-8.322,11.6,6.695,11.6-6.695-11.6-6.584Z" transform="translate(0 -79.353)" fill="#344154"/>
        <path id="Trazado_595132" data-name="Trazado 595132" d="M23.313,128.137l7.468-4.24,7.468,4.24-7.468,4.312Z" transform="translate(-16.91 -89.87)" fill="#6daa85"/>
        <path id="Trazado_595133" data-name="Trazado 595133" d="M13.871,160.739a.757.757,0,0,1-.378-.1L.378,153.065A.756.756,0,0,1,0,152.411V137.266a.755.755,0,1,1,1.511,0v14.709l12.361,7.136,12.361-7.136V137.266a.755.755,0,1,1,1.511,0v15.145a.756.756,0,0,1-.378.654l-13.116,7.572a.757.757,0,0,1-.378.1" transform="translate(0 -99.02)" fill="#344154"/>
        <path id="Trazado_595134" data-name="Trazado 595134" d="M48.512,175.653a.755.755,0,0,1-.755-.755v-10.06a.755.755,0,0,1,1.51,0V174.9a.755.755,0,0,1-.755.755" transform="translate(-34.641 -119.02)" fill="#344154"/>
        <path id="Trazado_595135" data-name="Trazado 595135" d="M110.593,151a22.778,22.778,0,0,1-3.974-.313.755.755,0,0,1,.283-1.484c.094.018,9.543,1.73,16.718-3.785,4.819-3.705,7.57-9.8,8.175-18.13a.755.755,0,1,1,1.507.11c-.638,8.781-3.59,15.25-8.774,19.228A22.906,22.906,0,0,1,110.593,151" transform="translate(-76.893 -91.821)" fill="#344154"/>
        <path id="Trazado_595136" data-name="Trazado 595136" d="M195.137,118.143a.754.754,0,0,1-.6-.293l-2.668-3.453-3.449,2.665a.755.755,0,1,1-.924-1.195l4.046-3.127a.755.755,0,0,1,1.059.136l3.13,4.051a.755.755,0,0,1-.6,1.217" transform="translate(-135.792 -81.663)" fill="#344154"/>
        <path id="Trazado_595137" data-name="Trazado 595137" d="M18.375,29.739l-.055,0a.756.756,0,0,1-.7-.808c.638-8.781,3.59-15.25,8.774-19.228,7.722-5.926,17.5-4.14,17.91-4.062a.755.755,0,0,1-.283,1.484c-.1-.018-9.543-1.73-16.718,3.785-4.82,3.7-7.57,9.8-8.175,18.13a.755.755,0,0,1-.753.7" transform="translate(-12.78 -3.864)" fill="#344154"/>
        <path id="Trazado_595138" data-name="Trazado 595138" d="M8.075,93.535a.754.754,0,0,1-.6-.293l-3.13-4.05a.755.755,0,1,1,1.195-.924L8.211,91.72l3.449-2.665a.755.755,0,0,1,.924,1.2L8.537,93.377a.752.752,0,0,1-.461.158" transform="translate(-3.039 -63.813)" fill="#344154"/>
      </g>
    </g>
  </g>
</svg>
