<svg xmlns="http://www.w3.org/2000/svg" xmlns:xlink="http://www.w3.org/1999/xlink" width="85" height="85" viewBox="0 0 85 85">
  <defs>
    <clipPath id="clip-path">
      <rect id="Rect치ngulo_293150" data-name="Rect치ngulo 293150" width="38.66" height="59.838" fill="none"/>
    </clipPath>
  </defs>
  <g id="Grupo_873931" data-name="Grupo 873931" transform="translate(-180 -4115)">
    <rect id="Rect치ngulo_293147" data-name="Rect치ngulo 293147" width="85" height="85" rx="42.5" transform="translate(180 4115)" fill="#ffeeb0"/>
    <g id="Grupo_873917" data-name="Grupo 873917" transform="translate(203.155 4129.596)">
      <g id="Grupo_873916" data-name="Grupo 873916" clip-path="url(#clip-path)">
        <path id="Trazado_595076" data-name="Trazado 595076" d="M45.583,18.326H16.012a.692.692,0,0,1-.692-.692V.692A.691.691,0,0,1,16.012,0H45.583a.691.691,0,0,1,.692.692V17.635a.692.692,0,0,1-.692.692M16.7,16.943H44.891V1.383H16.7Z" transform="translate(-11.467)" fill="#344154"/>
        <path id="Trazado_595077" data-name="Trazado 595077" d="M46.586,24.363a.689.689,0,0,1-.489-.2,8.352,8.352,0,0,1,0-11.812.692.692,0,0,1,.978.978,6.97,6.97,0,0,0,0,9.857.692.692,0,0,1-.489,1.18" transform="translate(-32.674 -9.092)" fill="#344154"/>
        <path id="Trazado_595078" data-name="Trazado 595078" d="M96.348,24.363a.692.692,0,0,1-.489-1.18,6.978,6.978,0,0,0,0-9.857.691.691,0,1,1,.978-.978,8.361,8.361,0,0,1,0,11.812.689.689,0,0,1-.489.2" transform="translate(-71.601 -9.092)" fill="#344154"/>
        <path id="Trazado_595079" data-name="Trazado 595079" d="M117.432,36.044A1.046,1.046,0,1,1,118.478,35a1.047,1.047,0,0,1-1.046,1.046m0-1.383a.337.337,0,1,0,.337.337.338.338,0,0,0-.337-.337" transform="translate(-87.118 -25.414)" fill="#344154"/>
        <path id="Trazado_595080" data-name="Trazado 595080" d="M30.074,36.044A1.046,1.046,0,1,1,31.12,35a1.047,1.047,0,0,1-1.046,1.046m0-1.383a.337.337,0,1,0,.337.337.338.338,0,0,0-.337-.337" transform="translate(-21.728 -25.414)" fill="#344154"/>
        <path id="Trazado_595081" data-name="Trazado 595081" d="M68.511,26.68A2.81,2.81,0,0,1,65.7,23.873a.692.692,0,1,1,1.383,0,1.424,1.424,0,1,0,2.848,0c0-.585-.268-1.011-1.638-1.458-1.72-.562-2.592-1.495-2.592-2.773a2.807,2.807,0,1,1,5.614,0,.692.692,0,0,1-1.383,0,1.424,1.424,0,1,0-2.848,0c0,.43.186.984,1.638,1.458.776.253,2.592.846,2.592,2.773a2.81,2.81,0,0,1-2.807,2.807" transform="translate(-49.181 -12.601)" fill="#344154"/>
        <path id="Trazado_595082" data-name="Trazado 595082" d="M74.808,14.723a.691.691,0,0,1-.692-.692V12.838a.692.692,0,1,1,1.383,0v1.193a.691.691,0,0,1-.692.692" transform="translate(-55.478 -9.092)" fill="#344154"/>
        <path id="Trazado_595083" data-name="Trazado 595083" d="M74.808,53.059a.691.691,0,0,1-.692-.692V51.174a.692.692,0,1,1,1.383,0v1.194a.691.691,0,0,1-.692.692" transform="translate(-55.478 -37.787)" fill="#344154"/>
        <path id="Trazado_595084" data-name="Trazado 595084" d="M8.348,122.2H.692a.692.692,0,0,1,0-1.383H8.348a.692.692,0,0,1,0,1.383" transform="translate(0 -90.432)" fill="#344154"/>
        <path id="Trazado_595085" data-name="Trazado 595085" d="M126.134,122.2h-7.656a.692.692,0,0,1,0-1.383h7.656a.692.692,0,1,1,0,1.383" transform="translate(-88.166 -90.432)" fill="#344154"/>
        <path id="Trazado_595086" data-name="Trazado 595086" d="M19.33,127.481A19.352,19.352,0,0,1,0,108.151V91.06a.691.691,0,0,1,.692-.692H8.348a.692.692,0,0,1,.692.692v17.091a10.29,10.29,0,1,0,20.581,0V91.06a.691.691,0,0,1,.692-.692h7.656a.692.692,0,0,1,.692.692v17.091a19.352,19.352,0,0,1-19.33,19.33M1.383,91.751v16.4a17.947,17.947,0,1,0,35.893,0v-16.4H31v16.4a11.673,11.673,0,1,1-23.347,0v-16.4Z" transform="translate(0 -67.643)" fill="#344154"/>
        <path id="Trazado_595087" data-name="Trazado 595087" d="M75.71,99.554a.691.691,0,0,1-.692-.692V83.534a.692.692,0,0,1,1.383,0V98.863a.691.691,0,0,1-.692.692" transform="translate(-56.153 -62.009)" fill="#344154"/>
        <path id="Trazado_595088" data-name="Trazado 595088" d="M54.64,106.047a.691.691,0,0,1-.692-.692V96.6a.692.692,0,1,1,1.383,0v8.76a.691.691,0,0,1-.692.692" transform="translate(-40.381 -71.787)" fill="#344154"/>
        <path id="Trazado_595089" data-name="Trazado 595089" d="M94.976,106.047a.691.691,0,0,1-.692-.692V96.6a.692.692,0,1,1,1.383,0v8.76a.691.691,0,0,1-.692.692" transform="translate(-70.574 -71.787)" fill="#344154"/>
        <path id="Trazado_595090" data-name="Trazado 595090" d="M43.37,141.656v3.8a13.939,13.939,0,0,1-13.332,14.035,13.763,13.763,0,0,1-14.164-13.742v-4.091a1.062,1.062,0,0,0-1.062-1.062h0a1.062,1.062,0,0,0-1.062,1.062v3.775A16.131,16.131,0,0,0,29.9,161.616a15.891,15.891,0,0,0,15.6-15.87v-4.091a1.062,1.062,0,0,0-2.124,0" transform="translate(-10.292 -105.238)" fill="#ffce1d"/>
      </g>
    </g>
  </g>
</svg>
