<svg id="Grupo_82671" data-name="Grupo 82671" xmlns="http://www.w3.org/2000/svg" xmlns:xlink="http://www.w3.org/1999/xlink" width="85.196" height="94.427" viewBox="0 0 85.196 94.427">
  <defs>
    <clipPath id="clip-path">
      <rect id="Rectángulo_35436" data-name="Rectángulo 35436" width="85.196" height="94.427" fill="none"/>
    </clipPath>
  </defs>
  <g id="Grupo_82671-2" data-name="Grupo 82671" clip-path="url(#clip-path)">
    <path id="Trazado_166548" data-name="Trazado 166548" d="M84.27,94.426H6.808A2.1,2.1,0,0,1,5.9,92.4c.044-1.952.01-3.905.015-5.858,0-1.211.238-1.514,1.423-1.882a1.625,1.625,0,0,1,1.323,1.9c-.05,1.32.05,2.647-.033,3.963-.058.928.209,1.171,1.154,1.169q22.914-.049,45.828-.03c1.872,0,1.478.362,2-1.589.283-1.06.261-1.082-.831-1.083q-8.068,0-16.136,0-13.14,0-26.28,0c-1.775,0-2.153-.387-2.154-2.182,0-1.721-.013-3.443.007-5.164.005-.489-.1-.73-.66-.714-1.412.041-2.826.031-4.239.041-1.874-.007-3.749-.011-5.623-.024C.63,80.946-.012,80.411,0,79.561s.652-1.35,1.73-1.357,2.157-.069,3.225.02c.85.071.978-.234.977-1.008Q5.9,47.3,5.914,17.377a3.262,3.262,0,0,1,0-.461c.07-.493-.146-.625-.619-.613-1.2.03-2.4.019-3.6.006C.612,16.3-.008,15.782,0,14.927s.634-1.337,1.732-1.35c1.075-.012,2.154-.052,3.226.014.744.046.986-.136.975-.933-.048-3.565-.022-7.13-.02-10.7C5.916.415,6.333,0,7.881,0H83.206c1.557,0,1.974.411,1.974,1.947q0,45.271.016,90.543a2.067,2.067,0,0,1-.926,1.937M71.027,61.246c-1.22-.4-1.362-.61-1.362-2.032q0-24.941.02-49.882c0-.9-.171-1.172-1.135-1.17q-26.23.051-52.461.025a3.879,3.879,0,0,1-.461,0c-.517-.062-.694.144-.679.673.035,1.228.056,2.461-.005,3.687-.039.77.114,1.1.984,1.045a1.366,1.366,0,1,1,.018,2.712c-.822-.04-1.006.205-1.005,1.016q.038,29.966,0,59.932c0,.747.143,1,.937.971a1.364,1.364,0,0,1,1.413,2.007,1.286,1.286,0,0,1-1.379.723c-.883-.14-1.009.269-.968,1.021a29.263,29.263,0,0,1,0,3.317c-.046.771.2.963.964.961q20.883-.035,41.766,0c.716,0,.987-.2,1.16-.895,1.009-4.076,2.038-8.149,3.132-12.2a10.41,10.41,0,0,1,6.644-7.343c.791-.3,1.631-.481,2.449-.716h3.684c1.178,0,1.179,0,1.179-1.2q0-26.733,0-53.466c0-2.261,0-2.261-2.274-2.259-1.189,0-1.19,0-1.19,1.194q0,24.889,0,49.778c0,1.395-.228,1.724-1.429,2.1M82.416,79.84c0-3.687-.021-7.374.017-11.06.008-.742-.22-.923-.933-.915-3.01.035-6.021,0-9.032.012a7.907,7.907,0,0,0-7.842,6.043c-1.471,5.607-2.88,11.231-4.359,16.836-.206.782-.028.919.72.916q10.231-.038,20.461,0c.865,0,.993-.291.985-1.05-.036-3.594-.016-7.189-.016-10.784M45.641,2.753V2.742H9.971c-.246,0-.493.017-.737,0-.437-.034-.591.155-.589.589q.017,4.793,0,9.586c0,.482.192.654.657.641.706-.02,1.415-.034,2.119,0,.6.033.81-.181.8-.788-.032-1.628-.011-3.257-.011-4.885,0-2.184.275-2.465,2.421-2.465L80.807,5.4c1.626,0,1.562,0,1.647-1.587.051-.947-.3-1.081-1.144-1.079q-17.834.04-35.669.018M8.65,47.209V75.89c0,2.324,0,2.33,2.353,2.32,1.349-.006,1.2.166,1.2-1.256q0-29.1,0-58.191c0-2.442,0-2.4-2.446-2.456-.879-.019-1.135.218-1.132,1.116.032,9.929.02,19.858.02,29.787m73.74-10.5V10.72c0-2.429,0-2.429-2.44-2.426-1.2,0-1.2,0-1.2,1.185q0,26.5.006,52.99c0,.822-.35,1.886.148,2.405.546.568,1.634.092,2.476.2.8.1,1.033-.164,1.03-1-.033-9.124-.02-18.247-.02-27.371" transform="translate(0 0)" fill="#020202"/>
    <path id="Trazado_166549" data-name="Trazado 166549" d="M116.725,90.047c-.817.235-1.657.412-2.449.716a10.41,10.41,0,0,0-6.644,7.343c-1.094,4.055-2.123,8.127-3.132,12.2-.173.7-.444.9-1.16.895q-20.883-.036-41.766,0c-.762,0-1.011-.19-.964-.961a29.263,29.263,0,0,0,0-3.317c-.04-.753.085-1.162.968-1.022a1.286,1.286,0,0,0,1.379-.722,1.364,1.364,0,0,0-1.413-2.007c-.793.029-.938-.225-.937-.971q.033-29.966,0-59.932c0-.81.184-1.056,1.005-1.015a1.366,1.366,0,1,0-.018-2.712c-.87.053-1.023-.274-.984-1.045.062-1.226.04-2.459.005-3.687-.015-.529.162-.735.679-.673a3.878,3.878,0,0,0,.461,0q26.23,0,52.461-.025c.964,0,1.137.269,1.135,1.17q-.043,24.941-.02,49.882c0,1.422.142,1.63,1.362,2.032q.016,1.923.032,3.847m-29.284-8.28q0-11.342,0-22.683c0-1.574-.4-1.98-1.962-1.981q-5.578-.006-11.156,0c-2.4,0-4.795-.009-7.192,0-1.255.007-1.734.493-1.74,1.726-.008,1.629-.015,3.258,0,4.887a1.439,1.439,0,0,0,1.456,1.558,1.408,1.408,0,0,0,1.33-1.566c.014-1.014.044-2.031-.011-3.042-.034-.619.173-.763.764-.761q7.422.032,14.845-.005c.717,0,.854.223.853.889q-.028,20.931,0,41.862c0,.724-.227.845-.885.841-4.856-.027-9.712-.042-14.568.01-.89.009-1.016-.283-1.014-1.07q.037-15.675.016-31.351a7.212,7.212,0,0,0-.016-.921A1.319,1.319,0,0,0,66.5,69.012c-.989.228-1.124.97-1.123,1.839q.014,16.736.007,33.471c0,1.546.411,1.954,1.968,1.954h17.98c1.741,0,2.106-.362,2.106-2.1q0-11.2,0-22.407m13.883-9.452q-3.732,0-7.465,0c-1.343,0-1.78.421-1.781,1.739q-.01,7.189,0,14.378c0,1.309.46,1.754,1.792,1.756q7.465.009,14.93,0c1.32,0,1.782-.464,1.783-1.767q.007-7.189,0-14.378c0-1.273-.445-1.724-1.7-1.728-2.519-.007-5.038,0-7.557,0m-35.938-27.3c0,1.783-.011,3.565,0,5.347a1.391,1.391,0,0,0,1.581,1.588c1.259.017,2.521.023,3.779-.031a4.068,4.068,0,0,0,3.781-2.635,4.111,4.111,0,0,0-.75-4.552.917.917,0,0,1-.21-1.162,3.852,3.852,0,0,0-3.458-5.378c-1.013-.036-2.028-.017-3.042-.008-1.2.011-1.675.475-1.682,1.667-.01,1.721,0,3.442,0,5.163m17.276,1.564c.193-.1.324-.167.459-.231a4.215,4.215,0,0,0,2.54-4.8,4.386,4.386,0,0,0-4.32-3.327c-.921-.012-1.843-.015-2.764,0a1.38,1.38,0,0,0-1.55,1.529q-.026,5.344,0,10.689a1.39,1.39,0,1,0,2.756.009c.015-.9,0-1.809,0-2.944,1.168,1.325,2.172,2.472,3.185,3.611.9,1.015,1.633,1.172,2.339.518.659-.61.574-1.4-.252-2.333-.786-.894-1.572-1.788-2.4-2.726m10.98-1.485c0,1.749,0,3.5,0,5.248,0,.824.313,1.526,1.207,1.567,1.653.074,3.313.058,4.967.005A1.184,1.184,0,0,0,101,50.63a1.242,1.242,0,0,0-1.174-1.389,11,11,0,0,0-1.469-.05c-2.032,0-2.014,0-1.961-2.061.012-.474.128-.649.619-.629a20.006,20.006,0,0,0,2.392-.018,1.331,1.331,0,0,0,1.26-1.428,1.315,1.315,0,0,0-1.375-1.3,10.177,10.177,0,0,0-1.93.011c-1.132.174-.955-.563-.953-1.22,0-1.527,0-1.527,1-1.528.675,0,1.35.01,2.026,0,1.018-.019,1.588-.526,1.579-1.386-.008-.84-.6-1.361-1.611-1.373-1.319-.016-2.639-.01-3.959,0-1.3.008-1.786.485-1.794,1.776-.011,1.688,0,3.376,0,5.064M74.972,84.924h.006c0,.706-.037,1.415.009,2.118a1.4,1.4,0,0,0,1.431,1.381,1.359,1.359,0,0,0,1.386-1.4,17.807,17.807,0,0,0,.005-1.933,1.138,1.138,0,0,1,.828-1.353,5.272,5.272,0,0,0,3.041-6.13,5.41,5.41,0,0,0-10.607.323c-.186,1.419.191,2.171,1.158,2.314.893.132,1.426-.467,1.655-1.864a2.561,2.561,0,0,1,3.154-2.045,2.566,2.566,0,0,1-.437,5.052c-1.179.143-1.612.616-1.629,1.793-.008.583,0,1.167,0,1.75m28.5-39.873c0,1.69-.009,3.38,0,5.071.008,1.094.51,1.721,1.351,1.739.867.018,1.4-.64,1.408-1.778.011-1.045.03-2.091-.008-3.134-.019-.533.167-.688.679-.663a15.5,15.5,0,0,0,2.118-.018,1.386,1.386,0,0,0,1.3-1.417,1.359,1.359,0,0,0-1.391-1.31c-.705-.03-1.413-.012-2.12-.01-.29,0-.508-.006-.582-.4-.346-1.846-.056-2.219,1.8-2.22.338,0,.677.011,1.014,0,1.015-.041,1.619-.558,1.626-1.379s-.6-1.366-1.607-1.379c-1.291-.018-2.581-.015-3.872,0-1.265.013-1.7.454-1.714,1.738-.014,1.721,0,3.442,0,5.163m-2.118,21.844h5.8c.676,0,1.352.023,2.026-.011a1.324,1.324,0,0,0,1.391-1.3,1.359,1.359,0,0,0-1.355-1.439,4.9,4.9,0,0,0-.552-.016q-7.324,0-14.648,0a3.935,3.935,0,0,0-.914.077,1.354,1.354,0,0,0,.053,2.636,4.691,4.691,0,0,0,.917.048q3.639.005,7.278,0m-.1-6.366c2.519,0,5.038,0,7.557,0,1.153,0,1.776-.509,1.763-1.41-.012-.861-.62-1.351-1.716-1.352q-7.557-.006-15.113,0c-1.085,0-1.679.512-1.666,1.4.012.866.62,1.363,1.711,1.366,2.488.007,4.976,0,7.464,0M90.856,45.36c0-1.748.006-3.5,0-5.244,0-1.056-.552-1.7-1.4-1.679-.812.02-1.357.65-1.36,1.644q-.015,5.244,0,10.489c0,1.055.559,1.687,1.417,1.669.824-.017,1.336-.625,1.342-1.635.01-1.748,0-3.5,0-5.244M76.371,90.006a1.437,1.437,0,1,0,1.5,1.4,1.435,1.435,0,0,0-1.5-1.4" transform="translate(-45.667 -24.953)" fill="#fff3bf"/>
    <path id="Trazado_166550" data-name="Trazado 166550" d="M266.414,287.308c0,3.595-.02,7.19.016,10.784.008.76-.12,1.055-.985,1.05-6.82-.038-13.641-.027-20.461,0-.747,0-.926-.134-.72-.916,1.479-5.605,2.888-11.229,4.359-16.836a7.906,7.906,0,0,1,7.842-6.043c3.01-.013,6.022.022,9.032-.012.713-.008.941.173.933.915-.038,3.687-.017,7.373-.017,11.06" transform="translate(-183.999 -207.468)" fill="#f57c00"/>
    <path id="Trazado_166551" data-name="Trazado 166551" d="M72.068,11.117q17.835,0,35.67-.018c.84,0,1.194.132,1.143,1.079-.085,1.583-.02,1.586-1.647,1.587l-66.177.02c-2.146,0-2.421.281-2.422,2.465,0,1.629-.021,3.257.011,4.885.012.607-.2.821-.8.788-.7-.039-1.414-.024-2.119,0-.464.013-.659-.159-.657-.641q.018-4.793,0-9.586c0-.434.152-.623.589-.589.245.019.491,0,.737,0H72.068Z" transform="translate(-26.427 -8.363)" fill="#ffa726"/>
    <path id="Trazado_166552" data-name="Trazado 166552" d="M35.03,97.056c0-9.929.012-19.858-.02-29.787,0-.9.253-1.136,1.132-1.116,2.446.053,2.446.014,2.446,2.457q0,29.1,0,58.191c0,1.422.145,1.251-1.2,1.256-2.353.01-2.353,0-2.353-2.32V97.056" transform="translate(-26.381 -49.847)" fill="#ffa726"/>
    <path id="Trazado_166553" data-name="Trazado 166553" d="M322.787,62.063c0,9.124-.012,18.247.02,27.371,0,.833-.232,1.1-1.03,1-.842-.108-1.93.367-2.476-.2-.5-.519-.148-1.583-.148-2.405q-.012-26.5-.006-52.99c0-1.184,0-1.184,1.2-1.185,2.44,0,2.44,0,2.44,2.426V62.063" transform="translate(-240.398 -25.355)" fill="#ffa726"/>
    <path id="Trazado_166554" data-name="Trazado 166554" d="M288.192,90.069q-.016-1.923-.032-3.847c1.2-.38,1.43-.71,1.43-2.1q0-24.889,0-49.778c0-1.193,0-1.193,1.19-1.194,2.274,0,2.274,0,2.274,2.259V88.87c0,1.2,0,1.2-1.179,1.2h-3.684" transform="translate(-217.134 -24.976)" fill="#ffa726"/>
    <path id="Trazado_166555" data-name="Trazado 166555" d="M29.7,332.093q-.011-1.843-.023-3.686c1.413-.01,2.827,0,4.239-.041.556-.016.666.226.66.714-.02,1.721-.008,3.443-.007,5.164,0,1.794.379,2.181,2.154,2.182q13.14,0,26.28,0,8.068,0,16.136,0c1.092,0,1.114.023.831,1.083-.521,1.951-.127,1.588-2,1.589q-22.914.018-45.828.03c-.945,0-1.212-.242-1.154-1.169.083-1.316-.017-2.643.033-3.963a1.626,1.626,0,0,0-1.323-1.9" transform="translate(-22.365 -247.429)" fill="#ffa726"/>
    <path id="Trazado_166556" data-name="Trazado 166556" d="M102.037,155.081q0,11.2,0,22.407c0,1.742-.365,2.1-2.106,2.1H81.951c-1.557,0-1.968-.408-1.968-1.954q0-16.735-.007-33.471c0-.869.135-1.612,1.123-1.839a1.319,1.319,0,0,1,1.662,1.151,7.212,7.212,0,0,1,.015.921q0,15.675-.016,31.351c0,.787.124,1.079,1.015,1.07,4.855-.052,9.712-.037,14.568-.01.658,0,.886-.118.885-.841q-.036-20.931,0-41.862c0-.666-.137-.893-.853-.889q-7.422.049-14.845.005c-.591,0-.8.142-.764.761.055,1.011.026,2.028.011,3.042a1.408,1.408,0,0,1-1.33,1.566,1.439,1.439,0,0,1-1.456-1.558c-.018-1.629-.012-3.258,0-4.887.006-1.233.486-1.719,1.741-1.726,2.4-.014,4.795,0,7.192,0q5.578,0,11.157,0c1.558,0,1.962.407,1.962,1.981q0,11.342,0,22.683" transform="translate(-60.263 -98.268)" fill="#020202"/>
    <path id="Trazado_166557" data-name="Trazado 166557" d="M197.524,192.145c2.519,0,5.038-.005,7.557,0,1.257,0,1.7.454,1.7,1.728q.007,7.189,0,14.378c0,1.3-.463,1.765-1.783,1.767q-7.465.009-14.93,0c-1.332,0-1.79-.447-1.792-1.756q-.011-7.189,0-14.378c0-1.319.438-1.737,1.781-1.739q3.732-.007,7.465,0m.025,2.763c-1.965,0-3.93.013-5.895-.01-.469-.005-.63.114-.628.609q.03,5.527,0,11.054c0,.581.19.713.738.71q5.757-.032,11.514,0c.615,0,.764-.175.76-.773q-.041-5.434,0-10.869c.006-.639-.212-.745-.78-.736-1.9.032-3.807.012-5.711.012" transform="translate(-141.867 -144.783)" fill="#020202"/>
    <path id="Trazado_166558" data-name="Trazado 166558" d="M79.991,60.46c0-1.721-.007-3.442,0-5.163.007-1.192.478-1.655,1.682-1.667,1.014-.009,2.029-.029,3.042.007a3.852,3.852,0,0,1,3.459,5.378.917.917,0,0,0,.21,1.162,4.111,4.111,0,0,1,.75,4.552,4.068,4.068,0,0,1-3.781,2.634c-1.258.054-2.519.048-3.779.031A1.391,1.391,0,0,1,80,65.807c-.015-1.782,0-3.565,0-5.347m2.766,2.565c0,1.646,0,1.646,1.624,1.6.307-.008.615,0,.919-.034a1.437,1.437,0,0,0,1.385-1.354,1.484,1.484,0,0,0-1.085-1.7,3.676,3.676,0,0,0-1.276-.1c-1.568-.008-1.568,0-1.568,1.579M83.8,58.674c.288,0,.5.006.715,0a1.07,1.07,0,0,0,1.19-1.1c.018-.782-.448-1.155-1.211-1.171q-.64-.013-1.28,0c-.141,0-.385-.058-.4.111a6.783,6.783,0,0,0-.008,1.988c.1.4.7.081.992.177" transform="translate(-60.272 -40.401)" fill="#020202"/>
    <path id="Trazado_166559" data-name="Trazado 166559" d="M132.83,62.157c.824.937,1.609,1.832,2.4,2.725.825.938.911,1.723.251,2.333-.706.654-1.436.5-2.339-.518-1.013-1.139-2.017-2.285-3.185-3.611,0,1.135.011,2.04,0,2.944a1.39,1.39,0,1,1-2.756-.009q-.021-5.344,0-10.689a1.38,1.38,0,0,1,1.55-1.529c.921-.016,1.843-.013,2.764,0a4.386,4.386,0,0,1,4.32,3.327,4.214,4.214,0,0,1-2.54,4.8c-.135.064-.266.134-.459.231m-2.915-4.044c.32.433-.551,1.509.884,1.436,1.544-.078,2.315-.49,2.345-1.463.03-1-.756-1.436-2.259-1.544-1.46-.1-.754.927-.971,1.571" transform="translate(-95.835 -40.534)" fill="#020202"/>
    <path id="Trazado_166560" data-name="Trazado 166560" d="M194.631,60.766c0-1.688-.008-3.376,0-5.064.008-1.292.495-1.769,1.794-1.776,1.32-.008,2.64-.014,3.959,0,1.011.012,1.6.533,1.611,1.373.009.859-.561,1.367-1.579,1.386-.675.012-1.35,0-2.026,0-1,0-.994,0-1,1.528,0,.656-.179,1.394.953,1.22a10.176,10.176,0,0,1,1.93-.011,1.315,1.315,0,0,1,1.375,1.3,1.33,1.33,0,0,1-1.26,1.428,20.006,20.006,0,0,1-2.392.018c-.491-.02-.607.155-.619.629-.053,2.059-.07,2.056,1.961,2.06a11.045,11.045,0,0,1,1.469.051,1.242,1.242,0,0,1,1.174,1.389,1.184,1.184,0,0,1-1.18,1.281c-1.654.052-3.314.069-4.967-.005-.894-.04-1.2-.743-1.207-1.567-.007-1.749,0-3.5,0-5.248" transform="translate(-146.656 -40.629)" fill="#020202"/>
    <path id="Trazado_166561" data-name="Trazado 166561" d="M106.827,208.132c0-.583-.007-1.167,0-1.75.017-1.177.45-1.649,1.629-1.793a2.566,2.566,0,0,0,.437-5.052,2.561,2.561,0,0,0-3.154,2.045c-.229,1.4-.762,2-1.655,1.864-.968-.143-1.344-.895-1.158-2.314a5.41,5.41,0,0,1,10.607-.322,5.272,5.272,0,0,1-3.041,6.129,1.138,1.138,0,0,0-.828,1.353,17.805,17.805,0,0,1,0,1.933,1.359,1.359,0,0,1-1.386,1.4,1.4,1.4,0,0,1-1.431-1.38c-.046-.7-.009-1.412-.009-2.118Z" transform="translate(-77.522 -148.161)" fill="#020202"/>
    <path id="Trazado_166562" data-name="Trazado 166562" d="M234.521,60.4c0-1.721-.01-3.442,0-5.163.01-1.285.448-1.726,1.714-1.739,1.291-.013,2.582-.016,3.872,0,1.009.014,1.614.552,1.607,1.379s-.611,1.338-1.626,1.379c-.338.014-.676,0-1.014,0-1.854,0-2.143.374-1.8,2.22.073.393.292.4.582.4.707,0,1.415-.021,2.12.01a1.359,1.359,0,0,1,1.391,1.31,1.386,1.386,0,0,1-1.3,1.417,15.5,15.5,0,0,1-2.119.018c-.512-.025-.7.13-.679.663.038,1.044.019,2.09.008,3.134-.012,1.138-.542,1.8-1.408,1.778-.841-.017-1.343-.644-1.351-1.739-.012-1.69,0-3.38,0-5.071" transform="translate(-176.713 -40.307)" fill="#020202"/>
    <path id="Trazado_166563" data-name="Trazado 166563" d="M197.613,161.7q-3.639,0-7.278,0a4.693,4.693,0,0,1-.917-.048,1.354,1.354,0,0,1-.052-2.636,3.936,3.936,0,0,1,.914-.077q7.324-.007,14.648,0a4.905,4.905,0,0,1,.552.016,1.36,1.36,0,0,1,1.355,1.439,1.324,1.324,0,0,1-1.391,1.3c-.674.034-1.351.011-2.026.011h-5.8" transform="translate(-141.923 -119.763)" fill="#020202"/>
    <path id="Trazado_166564" data-name="Trazado 166564" d="M197.495,135.874c-2.488,0-4.976,0-7.464,0-1.091,0-1.7-.5-1.711-1.366-.013-.883.581-1.394,1.666-1.4q7.557-.008,15.113,0c1.1,0,1.7.491,1.716,1.352.013.9-.611,1.408-1.763,1.41-2.519.005-5.038,0-7.557,0" transform="translate(-141.902 -100.299)" fill="#020202"/>
    <path id="Trazado_166565" data-name="Trazado 166565" d="M174.87,61.627c0,1.748.007,3.5,0,5.244-.005,1.01-.518,1.618-1.342,1.635-.858.017-1.414-.614-1.417-1.669q-.014-5.245,0-10.489c0-.994.548-1.624,1.36-1.644.846-.021,1.394.623,1.4,1.679.008,1.748,0,3.5,0,5.244" transform="translate(-129.682 -41.22)" fill="#020202"/>
    <path id="Trazado_166566" data-name="Trazado 166566" d="M120.24,263.924a1.437,1.437,0,1,1,.076,2.872,1.437,1.437,0,1,1-.076-2.872" transform="translate(-89.537 -198.871)" fill="#020202"/>
    <path id="Trazado_166567" data-name="Trazado 166567" d="M205.961,203.32c1.9,0,3.808.02,5.711-.012.567-.01.786.1.78.736q-.051,5.434,0,10.869c0,.6-.145.778-.76.773q-5.757-.043-11.514,0c-.548,0-.742-.129-.738-.71q.037-5.527,0-11.054c0-.495.159-.614.628-.609,1.965.023,3.93.01,5.895.01" transform="translate(-150.279 -153.196)" fill="#26ccda"/>
    <path id="Trazado_166568" data-name="Trazado 166568" d="M91.223,86.932c0-1.583,0-1.588,1.568-1.579a3.688,3.688,0,0,1,1.276.1,1.484,1.484,0,0,1,1.085,1.7A1.437,1.437,0,0,1,93.766,88.5c-.3.035-.613.026-.919.034-1.624.042-1.624.042-1.624-1.6" transform="translate(-68.738 -64.308)" fill="#fff3bf"/>
    <path id="Trazado_166569" data-name="Trazado 166569" d="M92.2,67.148c-.289-.1-.9.227-.992-.177a6.783,6.783,0,0,1,.008-1.988c.012-.169.256-.108.4-.111q.64-.013,1.28,0c.762.016,1.228.389,1.211,1.171a1.07,1.07,0,0,1-1.19,1.1c-.213.007-.427,0-.715,0" transform="translate(-68.673 -48.876)" fill="#fff3bf"/>
    <path id="Trazado_166570" data-name="Trazado 166570" d="M138.266,66.493c.216-.644-.49-1.676.971-1.571,1.5.108,2.289.547,2.259,1.544-.03.973-.8,1.385-2.345,1.463-1.435.073-.564-1-.884-1.436" transform="translate(-104.186 -48.914)" fill="#fff3bf"/>
  </g>
</svg>
