<svg xmlns="http://www.w3.org/2000/svg" width="295" height="350" viewBox="0 0 295 350">
  <g id="Grupo_874366" data-name="Grupo 874366" transform="translate(-968 -4239)">
    <rect id="Rectángulo_35198" data-name="Rectángulo 35198" width="295" height="350" rx="20" transform="translate(968 4239)" fill="#ffe0f0"/>
    <path id="Trazado_596928" data-name="Trazado 596928" d="M51.575,21h-2.93V14.906H42.933V21H40V6.781h2.93v5.762h5.713V6.781h2.93Zm8.5,0a3.134,3.134,0,0,1-.283-.947A3.415,3.415,0,0,1,57.122,21.2a3.752,3.752,0,0,1-2.573-.9,2.89,2.89,0,0,1-1.021-2.266,2.986,2.986,0,0,1,1.245-2.578,6.144,6.144,0,0,1,3.6-.908h1.3v-.605a1.741,1.741,0,0,0-.376-1.172,1.479,1.479,0,0,0-1.187-.439,1.682,1.682,0,0,0-1.118.342,1.161,1.161,0,0,0-.405.938H53.763a2.835,2.835,0,0,1,.566-1.7,3.744,3.744,0,0,1,1.6-1.226,5.837,5.837,0,0,1,2.324-.444,4.611,4.611,0,0,1,3.1.981A3.433,3.433,0,0,1,62.5,13.979v4.58a5.052,5.052,0,0,0,.42,2.275V21Zm-2.334-1.963a2.431,2.431,0,0,0,1.152-.278,1.828,1.828,0,0,0,.781-.747V16.2H58.616q-2.119,0-2.256,1.465l-.01.166a1.13,1.13,0,0,0,.371.869A1.441,1.441,0,0,0,57.737,19.037ZM58.812,6h3.076L59.183,9.027H56.888Zm15.381,9.814a6.4,6.4,0,0,1-1.084,3.96A3.591,3.591,0,0,1,70.081,21.2a3.3,3.3,0,0,1-2.744-1.318L67.21,21H64.671V6h2.822v5.381a3.214,3.214,0,0,1,2.568-1.143,3.62,3.62,0,0,1,3.032,1.421,6.408,6.408,0,0,1,1.1,4Zm-2.822-.205a4.2,4.2,0,0,0-.508-2.339,1.717,1.717,0,0,0-1.514-.737,1.862,1.862,0,0,0-1.855,1.1v4.17a1.887,1.887,0,0,0,1.875,1.113,1.742,1.742,0,0,0,1.8-1.348A6.952,6.952,0,0,0,71.37,15.609ZM78.909,21H76.077V10.434h2.832Zm-3-13.3a1.39,1.39,0,0,1,.425-1.045,1.831,1.831,0,0,1,2.31,0,1.382,1.382,0,0,1,.43,1.045,1.386,1.386,0,0,1-.435,1.055,1.81,1.81,0,0,1-2.295,0A1.386,1.386,0,0,1,75.911,7.7Zm8.7.137v2.6h1.807V12.5H84.612v5.273a1.259,1.259,0,0,0,.225.84,1.128,1.128,0,0,0,.859.254,4.5,4.5,0,0,0,.83-.068v2.139a5.81,5.81,0,0,1-1.709.254q-2.969,0-3.027-3V12.5H80.247v-2.07H81.79v-2.6Zm2.646,7.783a6.266,6.266,0,0,1,.605-2.8,4.432,4.432,0,0,1,1.743-1.9,5.086,5.086,0,0,1,2.642-.674,4.812,4.812,0,0,1,3.491,1.309A5.252,5.252,0,0,1,97.249,15.1l.02.723a5.523,5.523,0,0,1-1.357,3.9,5.261,5.261,0,0,1-7.29,0,5.62,5.62,0,0,1-1.362-3.984Zm2.822.2a3.95,3.95,0,0,0,.566,2.3,2.035,2.035,0,0,0,3.223.01,4.322,4.322,0,0,0,.576-2.518,3.91,3.91,0,0,0-.576-2.289,1.873,1.873,0,0,0-1.621-.812,1.842,1.842,0,0,0-1.6.807A4.395,4.395,0,0,0,90.081,15.819Zm14.648,2.261a.909.909,0,0,0-.513-.815,5.824,5.824,0,0,0-1.646-.532q-3.77-.791-3.77-3.2a2.9,2.9,0,0,1,1.167-2.349,4.708,4.708,0,0,1,3.052-.942,5.067,5.067,0,0,1,3.218.947,2.985,2.985,0,0,1,1.206,2.461h-2.822a1.366,1.366,0,0,0-.391-1,1.653,1.653,0,0,0-1.221-.4,1.689,1.689,0,0,0-1.1.322,1.017,1.017,0,0,0-.391.82.87.87,0,0,0,.444.757,4.571,4.571,0,0,0,1.5.5,12.244,12.244,0,0,1,1.777.474,2.92,2.92,0,0,1,2.236,2.842,2.756,2.756,0,0,1-1.24,2.339,5.35,5.35,0,0,1-3.2.894,5.588,5.588,0,0,1-2.358-.474,3.957,3.957,0,0,1-1.616-1.3,3.018,3.018,0,0,1-.586-1.782h2.676a1.473,1.473,0,0,0,.557,1.152,2.208,2.208,0,0,0,1.387.4,2.044,2.044,0,0,0,1.226-.308A.957.957,0,0,0,104.729,18.08Zm9.1-2.441a6.368,6.368,0,0,1,1.108-3.936,3.6,3.6,0,0,1,3.032-1.465,3.236,3.236,0,0,1,2.549,1.152V6h2.832V21H120.8l-.137-1.123a3.321,3.321,0,0,1-2.715,1.318,3.587,3.587,0,0,1-2.993-1.47A6.573,6.573,0,0,1,113.831,15.639Zm2.822.21a4.171,4.171,0,0,0,.518,2.279,1.686,1.686,0,0,0,1.5.792,1.888,1.888,0,0,0,1.846-1.105V13.638a1.861,1.861,0,0,0-1.826-1.105Q116.653,12.533,116.653,15.849ZM130.4,21.2a5.187,5.187,0,0,1-3.784-1.426,5.068,5.068,0,0,1-1.46-3.8V15.7a6.383,6.383,0,0,1,.615-2.847,4.515,4.515,0,0,1,1.743-1.934,4.893,4.893,0,0,1,2.573-.679,4.385,4.385,0,0,1,3.413,1.367,5.555,5.555,0,0,1,1.245,3.877v1.152h-6.729a2.622,2.622,0,0,0,.825,1.66,2.5,2.5,0,0,0,1.743.625,3.046,3.046,0,0,0,2.549-1.182l1.387,1.553a4.237,4.237,0,0,1-1.719,1.4A5.639,5.639,0,0,1,130.4,21.2Zm-.322-8.682a1.764,1.764,0,0,0-1.362.569,2.946,2.946,0,0,0-.669,1.628h3.926v-.226a2.1,2.1,0,0,0-.508-1.457A1.819,1.819,0,0,0,130.081,12.514ZM50.96,44.92a1.851,1.851,0,0,0,1.27-.43,1.506,1.506,0,0,0,.508-1.143h2.646a3.62,3.62,0,0,1-.586,1.968A3.866,3.866,0,0,1,53.221,46.7a4.936,4.936,0,0,1-2.212.493,4.587,4.587,0,0,1-3.574-1.44,5.7,5.7,0,0,1-1.309-3.979V41.59a5.635,5.635,0,0,1,1.3-3.9,4.534,4.534,0,0,1,3.564-1.455,4.444,4.444,0,0,1,3.179,1.128,3.994,3.994,0,0,1,1.216,3H52.737a1.939,1.939,0,0,0-.508-1.34,1.887,1.887,0,0,0-2.778.2,4.166,4.166,0,0,0-.5,2.333v.293a4.219,4.219,0,0,0,.5,2.347A1.721,1.721,0,0,0,50.96,44.92Zm5.6-3.3a6.267,6.267,0,0,1,.605-2.8,4.432,4.432,0,0,1,1.743-1.9,5.086,5.086,0,0,1,2.642-.674,4.812,4.812,0,0,1,3.491,1.309A5.252,5.252,0,0,1,66.546,41.1l.02.723a5.523,5.523,0,0,1-1.357,3.9,5.261,5.261,0,0,1-7.29,0,5.62,5.62,0,0,1-1.362-3.984Zm2.822.2a3.95,3.95,0,0,0,.566,2.3,2.035,2.035,0,0,0,3.223.01,4.322,4.322,0,0,0,.576-2.518,3.91,3.91,0,0,0-.576-2.289,1.873,1.873,0,0,0-1.621-.812,1.842,1.842,0,0,0-1.6.807A4.395,4.395,0,0,0,59.378,41.819ZM70.9,36.434l.088,1.221a3.689,3.689,0,0,1,3.037-1.416,3.066,3.066,0,0,1,2.5.986,4.6,4.6,0,0,1,.84,2.949V47H74.544V40.242a1.831,1.831,0,0,0-.391-1.3,1.749,1.749,0,0,0-1.3-.405,1.942,1.942,0,0,0-1.787,1.016V47H68.245V36.434ZM85.228,44.08a.909.909,0,0,0-.513-.815,5.824,5.824,0,0,0-1.646-.532q-3.77-.791-3.77-3.2a2.9,2.9,0,0,1,1.167-2.349,4.708,4.708,0,0,1,3.052-.942,5.067,5.067,0,0,1,3.218.947,2.985,2.985,0,0,1,1.206,2.461H85.12a1.366,1.366,0,0,0-.391-1,1.653,1.653,0,0,0-1.221-.4,1.689,1.689,0,0,0-1.1.322,1.017,1.017,0,0,0-.391.82.87.87,0,0,0,.444.757,4.571,4.571,0,0,0,1.5.5,12.244,12.244,0,0,1,1.777.474,2.92,2.92,0,0,1,2.236,2.842,2.756,2.756,0,0,1-1.24,2.339,5.35,5.35,0,0,1-3.2.894,5.588,5.588,0,0,1-2.358-.474,3.957,3.957,0,0,1-1.616-1.3,3.018,3.018,0,0,1-.586-1.782h2.676a1.473,1.473,0,0,0,.557,1.152,2.208,2.208,0,0,0,1.387.4,2.044,2.044,0,0,0,1.226-.308A.957.957,0,0,0,85.228,44.08Zm10.889,1.846a3.539,3.539,0,0,1-2.891,1.27,3.338,3.338,0,0,1-2.593-.977,4.169,4.169,0,0,1-.913-2.861V36.434h2.822v6.834q0,1.652,1.5,1.652a2.038,2.038,0,0,0,1.973-1V36.434h2.832V47H96.194Zm7.51-9.492.088,1.182a3.713,3.713,0,0,1,3.037-1.377,2.818,2.818,0,0,1,2.8,1.611,3.628,3.628,0,0,1,3.174-1.611,3.152,3.152,0,0,1,2.559,1,4.6,4.6,0,0,1,.84,3.013V47h-2.832V40.262a2.012,2.012,0,0,0-.352-1.313,1.558,1.558,0,0,0-1.24-.415,1.761,1.761,0,0,0-1.758,1.211l.01,7.256h-2.822V40.271a1.988,1.988,0,0,0-.361-1.328,1.573,1.573,0,0,0-1.23-.41,1.829,1.829,0,0,0-1.738,1V47h-2.822V36.434Zm14.229,5.186a6.266,6.266,0,0,1,.605-2.8,4.432,4.432,0,0,1,1.743-1.9,5.086,5.086,0,0,1,2.642-.674,4.812,4.812,0,0,1,3.491,1.309,5.252,5.252,0,0,1,1.509,3.555l.02.723a5.523,5.523,0,0,1-1.357,3.9,5.261,5.261,0,0,1-7.29,0,5.62,5.62,0,0,1-1.362-3.984Zm2.822.2a3.95,3.95,0,0,0,.566,2.3,2.035,2.035,0,0,0,3.223.01,4.322,4.322,0,0,0,.576-2.518,3.91,3.91,0,0,0-.576-2.289,1.873,1.873,0,0,0-1.621-.812,1.842,1.842,0,0,0-1.6.807A4.395,4.395,0,0,0,120.677,41.819Z" transform="translate(1028.5 4480.5)" fill="#12263f"/>
    <g id="puntualidad" transform="translate(1060.742 4336.615)">
      <path id="Trazado_102785" data-name="Trazado 102785" d="M85.72,46.86A38.86,38.86,0,1,1,46.86,8,38.86,38.86,0,0,1,85.72,46.86Zm0,0" transform="translate(-6.234 -6.234)" fill="#ea3584"/>
      <path id="Trazado_102786" data-name="Trazado 102786" d="M272.729,134.3a38.747,38.747,0,0,0-2.643-14.082,21.3,21.3,0,0,0-15.436,7.613A11.265,11.265,0,0,0,248,138.124V160.8h.749a8.827,8.827,0,0,0,7.52,5.25A38.8,38.8,0,0,0,272.729,134.3Zm0,0" transform="translate(-193.242 -93.678)" fill="#26ccda" style="mix-blend-mode: multiply;isolation: isolate"/>
      <path id="Trazado_102787" data-name="Trazado 102787" d="M103.589,71.795A31.795,31.795,0,1,1,71.795,40,31.8,31.8,0,0,1,103.589,71.795Zm0,0" transform="translate(-31.168 -31.168)" fill="#e6e9ed"/>
      <path id="Trazado_102788" data-name="Trazado 102788" d="M265.664,140.562A31.644,31.644,0,0,0,263.075,128a21.269,21.269,0,0,0-8.424,6.094A11.263,11.263,0,0,0,248,144.381v19.144a8.753,8.753,0,0,0,1.414,4.757A31.768,31.768,0,0,0,265.664,140.562Zm0,0" transform="translate(-193.242 -99.738)" fill="#ccd1d9"/>
      <path id="Trazado_102789" data-name="Trazado 102789" d="M264,169.561V150.417a7.749,7.749,0,0,1,5.3-7.352A17.664,17.664,0,0,1,283.43,136a19.43,19.43,0,0,1,19.43,19.43v14.131Zm0,0" transform="translate(-205.71 -105.972)" fill="#636363"/>
      <path id="Trazado_102790" data-name="Trazado 102790" d="M238.963,341.953V347.7l-15.3,4.414A10.6,10.6,0,0,0,216,362.3v11.9h60.057V362.3a10.6,10.6,0,0,0-7.661-10.183l-15.3-4.414v-5.751Zm0,0" transform="translate(-168.308 -266.451)" fill="#e6e9ed"/>
      <path id="Trazado_102791" data-name="Trazado 102791" d="M320,328h14.131v15.9H320Zm0,0" transform="translate(-249.345 -255.579)" fill="#f0d0b4"/>
      <path id="Trazado_102792" data-name="Trazado 102792" d="M320,335.153a15.711,15.711,0,0,0,14.131,0V328H320Zm0,0" transform="translate(-249.345 -255.579)" fill="#ecc19c"/>
      <path id="Trazado_102793" data-name="Trazado 102793" d="M296,236.287v9.844a12.365,12.365,0,0,0,24.729,0v-7.065a3.532,3.532,0,0,0-3.533-3.533h-6.331a10.61,10.61,0,0,1-4.739-1.118l-3.923-1.961a4.285,4.285,0,0,0-6.2,3.833Zm0,0" transform="translate(-230.644 -180.775)" fill="#f0d0b4"/>
      <path id="Trazado_102794" data-name="Trazado 102794" d="M364.437,369.549,359.065,368,352,375.065l8.832,7.065Zm0,0" transform="translate(-274.28 -286.747)" fill="#ccd1d9"/>
      <path id="Trazado_102795" data-name="Trazado 102795" d="M299.228,382.131l8.832-7.065L300.995,368l-5.385,1.554Zm0,0" transform="translate(-230.34 -286.747)" fill="#ccd1d9"/>
      <path id="Trazado_102796" data-name="Trazado 102796" d="M271.065,264H269.3a5.3,5.3,0,0,0,0,10.6h28.262a5.3,5.3,0,0,0,0-10.6Zm0,0" transform="translate(-205.71 -205.71)" fill="#f0d0b4"/>
      <path id="Trazado_102797" data-name="Trazado 102797" d="M251.533,450.6V440L248,450.6Zm0,0" transform="translate(-193.242 -342.849)" fill="#ccd1d9"/>
      <path id="Trazado_102798" data-name="Trazado 102798" d="M325.336,404.711l4.121,4.121-3.533,10.6h10.6l-3.533-10.6,4.121-4.121L331.223,400Zm0,0" transform="translate(-253.503 -311.681)" fill="#f57c00"/>
      <path id="Trazado_102799" data-name="Trazado 102799" d="M440,450.6V440l3.533,10.6Zm0,0" transform="translate(-342.849 -342.849)" fill="#ccd1d9"/>
      <path id="Trazado_102800" data-name="Trazado 102800" d="M175.065,171.533A3.533,3.533,0,1,1,171.533,168,3.533,3.533,0,0,1,175.065,171.533Zm0,0" transform="translate(-130.906 -130.906)" fill="#aab2bd"/>
      <path id="Trazado_102801" data-name="Trazado 102801" d="M100.577,83.97,86.552,79.925V76.369a14.179,14.179,0,0,0,4.259-5.714h1.04a7.072,7.072,0,0,0,7.065-7.065V49.458a21.209,21.209,0,0,0-19.6-21.115A40.668,40.668,0,1,0,65.61,72.6a14.215,14.215,0,0,0,3.278,3.767v3.556L54.864,83.972a12.419,12.419,0,0,0-8.938,11.879v13.664h63.589V95.851A12.422,12.422,0,0,0,100.577,83.97Zm-12.612.039-2.382,8.337-5.218-4.174L85.3,83.239ZM77.228,98.917h.985l2.355,7.065h-5.7Zm1.527-3.533h-2.07l-2.208-2.208,3.243-2.6,3.243,2.6Zm13.1-28.262H91.73a14.215,14.215,0,0,0,.122-1.766v-5.3a3.533,3.533,0,0,1,0,7.065Zm3.533-17.664v8.048a6.988,6.988,0,0,0-3.533-.982h-.325a5.292,5.292,0,0,0-4.974-3.533H80.223a8.892,8.892,0,0,1-3.949-.932L72.351,50.1a6.054,6.054,0,0,0-8.761,5.414v1.013a6.988,6.988,0,0,0-3.533.982V44.446a5.976,5.976,0,0,1,4.091-5.675l.523-.175L65,38.154A15.977,15.977,0,0,1,77.72,31.795,17.683,17.683,0,0,1,95.384,49.458Zm-38.86-5.013V63.589a6.988,6.988,0,0,0,.389,2.21,29.759,29.759,0,0,1-16.286,4.856A30.028,30.028,0,1,1,68.85,30.44,19.425,19.425,0,0,0,62.5,35.61,9.507,9.507,0,0,0,56.524,44.446Zm3.533,19.144a3.536,3.536,0,0,1,3.533-3.533v5.3a14.214,14.214,0,0,0,.122,1.766h-.122A3.536,3.536,0,0,1,60.057,63.589ZM3.533,40.627A37.077,37.077,0,0,1,75.613,28.384a19.32,19.32,0,0,0-3.485.74,33.55,33.55,0,1,0-31.5,45.064A33.248,33.248,0,0,0,58.82,68.769a7.008,7.008,0,0,0,3.71,1.778,37.077,37.077,0,0,1-59-29.921ZM67.122,65.356V55.511a2.52,2.52,0,0,1,3.647-2.254l3.923,1.961a12.414,12.414,0,0,0,5.53,1.3h6.329a1.77,1.77,0,0,1,1.766,1.766v7.065a10.6,10.6,0,0,1-21.2,0Zm10.6,14.131a14.034,14.034,0,0,0,5.3-1.04v2.075l-5.3,5.3-5.3-5.3V78.447A14.034,14.034,0,0,0,77.72,79.487Zm-7.578,3.752,4.933,4.933-5.218,4.174-2.382-8.337ZM49.458,95.851a8.873,8.873,0,0,1,6.383-8.486l8.238-2.375,3.839,13.433L71.7,95.4l2.231,2.231-2.784,8.355H60.057V97.151H56.524v8.832H49.458Zm56.524,10.132H98.917V97.151H95.384v8.832H84.293l-2.786-8.355L83.739,95.4l3.781,3.026,3.839-13.433L99.6,87.365a8.872,8.872,0,0,1,6.386,8.486Zm0,0"/>
      <path id="Trazado_102802" data-name="Trazado 102802" d="M131.21,85.522V64h-3.533V85.522a5.292,5.292,0,0,0-3.533,4.974,5.237,5.237,0,0,0,.613,2.422L113.984,105.23l2.658,2.327,10.683-12.209a5.287,5.287,0,1,0,3.885-9.826Zm-1.766,6.74A1.766,1.766,0,1,1,131.21,90.5,1.77,1.77,0,0,1,129.444,92.262Zm0,0" transform="translate(-88.817 -49.869)"/>
      <path id="Trazado_102803" data-name="Trazado 102803" d="M3.261,272.3,0,267.129V284.1H3.533v-5.358a47.427,47.427,0,0,0,37.094,17.722v-3.533A43.967,43.967,0,0,1,3.261,272.3Zm0,0" transform="translate(0 -208.148)"/>
      <path id="Trazado_102804" data-name="Trazado 102804" d="M224,176h3.533v3.533H224Zm0,0" transform="translate(-174.542 -137.14)"/>
      <path id="Trazado_102805" data-name="Trazado 102805" d="M128,176h3.533v3.533H128Zm0,0" transform="translate(-99.738 -137.14)"/>
    </g>
  </g>
</svg>
