<svg xmlns="http://www.w3.org/2000/svg" width="295" height="350" viewBox="0 0 295 350">
  <g id="Grupo_874364" data-name="Grupo 874364" transform="translate(-1126 -3868)">
    <rect id="Rectángulo_35185" data-name="Rectángulo 35185" width="295" height="350" rx="20" transform="translate(1126 3868)" fill="#ebe3f9"/>
    <path id="Trazado_596926" data-name="Trazado 596926" d="M54.471,6.781v9.365a4.8,4.8,0,0,1-1.46,3.691A5.629,5.629,0,0,1,49.021,21.2a5.692,5.692,0,0,1-3.955-1.318,4.713,4.713,0,0,1-1.494-3.623V6.781H46.5v9.385a2.709,2.709,0,0,0,.669,2.036,2.568,2.568,0,0,0,1.851.64q2.471,0,2.51-2.6V6.781Zm11.738,9.033a6.4,6.4,0,0,1-1.084,3.96A3.591,3.591,0,0,1,62.1,21.2a3.3,3.3,0,0,1-2.744-1.318L59.227,21H56.688V6H59.51v5.381a3.214,3.214,0,0,1,2.568-1.143,3.62,3.62,0,0,1,3.032,1.421,6.408,6.408,0,0,1,1.1,4Zm-2.822-.205a4.2,4.2,0,0,0-.508-2.339,1.717,1.717,0,0,0-1.514-.737,1.862,1.862,0,0,0-1.855,1.1v4.17a1.887,1.887,0,0,0,1.875,1.113,1.742,1.742,0,0,0,1.8-1.348A6.952,6.952,0,0,0,63.387,15.609ZM70.926,21H68.094V10.434h2.832Zm-3-13.3a1.39,1.39,0,0,1,.425-1.045,1.831,1.831,0,0,1,2.31,0,1.382,1.382,0,0,1,.43,1.045,1.386,1.386,0,0,1-.435,1.055,1.81,1.81,0,0,1-2.295,0A1.386,1.386,0,0,1,67.928,7.7ZM77.645,18.92a1.851,1.851,0,0,0,1.27-.43,1.506,1.506,0,0,0,.508-1.143h2.646a3.62,3.62,0,0,1-.586,1.968A3.866,3.866,0,0,1,79.905,20.7a4.936,4.936,0,0,1-2.212.493,4.587,4.587,0,0,1-3.574-1.44,5.7,5.7,0,0,1-1.309-3.979V15.59a5.635,5.635,0,0,1,1.3-3.9,4.534,4.534,0,0,1,3.564-1.455,4.444,4.444,0,0,1,3.179,1.128,3.994,3.994,0,0,1,1.216,3H79.422a1.939,1.939,0,0,0-.508-1.34,1.887,1.887,0,0,0-2.778.2,4.166,4.166,0,0,0-.5,2.333v.293a4.219,4.219,0,0,0,.5,2.347A1.721,1.721,0,0,0,77.645,18.92ZM89.8,21a3.134,3.134,0,0,1-.283-.947A3.415,3.415,0,0,1,86.854,21.2a3.752,3.752,0,0,1-2.573-.9,2.89,2.89,0,0,1-1.021-2.266A2.986,2.986,0,0,1,84.5,15.453a6.144,6.144,0,0,1,3.6-.908h1.3v-.605a1.741,1.741,0,0,0-.376-1.172,1.479,1.479,0,0,0-1.187-.439,1.682,1.682,0,0,0-1.118.342,1.161,1.161,0,0,0-.405.938H83.494a2.835,2.835,0,0,1,.566-1.7,3.744,3.744,0,0,1,1.6-1.226,5.837,5.837,0,0,1,2.324-.444,4.611,4.611,0,0,1,3.1.981,3.433,3.433,0,0,1,1.147,2.759v4.58a5.052,5.052,0,0,0,.42,2.275V21Zm-2.334-1.963a2.431,2.431,0,0,0,1.152-.278,1.828,1.828,0,0,0,.781-.747V16.2H88.348q-2.119,0-2.256,1.465l-.01.166a1.13,1.13,0,0,0,.371.869A1.441,1.441,0,0,0,87.469,19.037ZM98.8,18.92a1.851,1.851,0,0,0,1.27-.43,1.506,1.506,0,0,0,.508-1.143h2.646a3.62,3.62,0,0,1-.586,1.968,3.866,3.866,0,0,1-1.577,1.387,4.936,4.936,0,0,1-2.212.493,4.587,4.587,0,0,1-3.574-1.44,5.7,5.7,0,0,1-1.309-3.979V15.59a5.635,5.635,0,0,1,1.3-3.9,4.534,4.534,0,0,1,3.564-1.455A4.444,4.444,0,0,1,102,11.366a3.994,3.994,0,0,1,1.216,3h-2.646a1.939,1.939,0,0,0-.508-1.34,1.887,1.887,0,0,0-2.778.2,4.166,4.166,0,0,0-.5,2.333v.293a4.219,4.219,0,0,0,.5,2.347A1.721,1.721,0,0,0,98.8,18.92ZM107.811,21h-2.832V10.434h2.832Zm-3-13.3a1.39,1.39,0,0,1,.425-1.045,1.831,1.831,0,0,1,2.31,0,1.382,1.382,0,0,1,.43,1.045,1.386,1.386,0,0,1-.435,1.055,1.81,1.81,0,0,1-2.295,0A1.386,1.386,0,0,1,104.813,7.7Zm4.883,7.92a6.266,6.266,0,0,1,.605-2.8,4.432,4.432,0,0,1,1.743-1.9,5.086,5.086,0,0,1,2.642-.674,4.812,4.812,0,0,1,3.491,1.309,5.252,5.252,0,0,1,1.509,3.555l.02.723a5.523,5.523,0,0,1-1.357,3.9,5.261,5.261,0,0,1-7.29,0,5.62,5.62,0,0,1-1.362-3.984Zm2.822.2a3.95,3.95,0,0,0,.566,2.3,2.035,2.035,0,0,0,3.223.01,4.322,4.322,0,0,0,.576-2.518,3.91,3.91,0,0,0-.576-2.289,1.873,1.873,0,0,0-1.621-.812,1.842,1.842,0,0,0-1.6.807A4.395,4.395,0,0,0,112.518,15.819ZM115.242,6h3.076l-2.705,3.027h-2.295Zm8.8,4.434.088,1.221a3.689,3.689,0,0,1,3.037-1.416,3.066,3.066,0,0,1,2.5.986,4.6,4.6,0,0,1,.84,2.949V21h-2.822V14.242a1.831,1.831,0,0,0-.391-1.3,1.749,1.749,0,0,0-1.3-.405,1.942,1.942,0,0,0-1.787,1.016V21h-2.822V10.434ZM39.529,41.639a6.193,6.193,0,0,1,1.157-3.916,3.75,3.75,0,0,1,3.12-1.484,3.289,3.289,0,0,1,2.705,1.191l.117-1h2.559V46.648a4.516,4.516,0,0,1-.63,2.412,4.045,4.045,0,0,1-1.772,1.563,6.231,6.231,0,0,1-2.676.537,5.794,5.794,0,0,1-2.266-.464,4.021,4.021,0,0,1-1.67-1.2l1.25-1.719a3.306,3.306,0,0,0,2.559,1.182,2.42,2.42,0,0,0,1.748-.6,2.253,2.253,0,0,0,.625-1.7v-.566a3.264,3.264,0,0,1-2.568,1.1,3.74,3.74,0,0,1-3.081-1.489,6.191,6.191,0,0,1-1.177-3.95Zm2.822.21a3.856,3.856,0,0,0,.576,2.254,1.833,1.833,0,0,0,1.582.817,1.96,1.96,0,0,0,1.846-.968V39.5a1.955,1.955,0,0,0-1.826-.968,1.844,1.844,0,0,0-1.6.831A4.346,4.346,0,0,0,42.352,41.849ZM56.219,47.2a5.187,5.187,0,0,1-3.784-1.426,5.068,5.068,0,0,1-1.46-3.8V41.7a6.383,6.383,0,0,1,.615-2.847,4.515,4.515,0,0,1,1.743-1.934,4.893,4.893,0,0,1,2.573-.679,4.385,4.385,0,0,1,3.413,1.367,5.555,5.555,0,0,1,1.245,3.877v1.152H53.836a2.622,2.622,0,0,0,.825,1.66,2.494,2.494,0,0,0,1.743.625,3.046,3.046,0,0,0,2.549-1.182l1.387,1.553a4.237,4.237,0,0,1-1.719,1.4A5.639,5.639,0,0,1,56.219,47.2ZM55.9,38.514a1.764,1.764,0,0,0-1.362.569,2.946,2.946,0,0,0-.669,1.628h3.926v-.226a2.1,2.1,0,0,0-.508-1.457A1.819,1.819,0,0,0,55.9,38.514Zm5.83,3.105a6.267,6.267,0,0,1,.605-2.8,4.432,4.432,0,0,1,1.743-1.9,5.086,5.086,0,0,1,2.642-.674,4.812,4.812,0,0,1,3.491,1.309A5.252,5.252,0,0,1,71.717,41.1l.02.723a5.523,5.523,0,0,1-1.357,3.9,5.261,5.261,0,0,1-7.29,0,5.62,5.62,0,0,1-1.362-3.984Zm2.822.2a3.95,3.95,0,0,0,.566,2.3,2.035,2.035,0,0,0,3.223.01,4.322,4.322,0,0,0,.576-2.518,3.91,3.91,0,0,0-.576-2.289,1.873,1.873,0,0,0-1.621-.812,1.842,1.842,0,0,0-1.6.807A4.395,4.395,0,0,0,64.549,41.819Zm8.516-.181a6.193,6.193,0,0,1,1.157-3.916,3.75,3.75,0,0,1,3.12-1.484,3.289,3.289,0,0,1,2.705,1.191l.117-1h2.559V46.648a4.516,4.516,0,0,1-.63,2.412,4.045,4.045,0,0,1-1.772,1.563,6.231,6.231,0,0,1-2.676.537,5.794,5.794,0,0,1-2.266-.464,4.021,4.021,0,0,1-1.67-1.2l1.25-1.719a3.306,3.306,0,0,0,2.559,1.182,2.42,2.42,0,0,0,1.748-.6,2.253,2.253,0,0,0,.625-1.7v-.566a3.264,3.264,0,0,1-2.568,1.1,3.74,3.74,0,0,1-3.081-1.489,6.191,6.191,0,0,1-1.177-3.95Zm2.822.21a3.856,3.856,0,0,0,.576,2.254,1.833,1.833,0,0,0,1.582.817,1.96,1.96,0,0,0,1.846-.968V39.5a1.955,1.955,0,0,0-1.826-.968,1.844,1.844,0,0,0-1.6.831A4.346,4.346,0,0,0,75.887,41.849ZM90.828,39.08A7.667,7.667,0,0,0,89.813,39a2.067,2.067,0,0,0-2.1,1.084V47H84.891V36.434h2.666l.078,1.26a2.615,2.615,0,0,1,2.354-1.455,2.957,2.957,0,0,1,.879.127ZM98.309,47a3.134,3.134,0,0,1-.283-.947A3.415,3.415,0,0,1,95.359,47.2a3.752,3.752,0,0,1-2.573-.9,2.89,2.89,0,0,1-1.021-2.266,2.986,2.986,0,0,1,1.245-2.578,6.144,6.144,0,0,1,3.6-.908h1.3v-.605a1.741,1.741,0,0,0-.376-1.172,1.479,1.479,0,0,0-1.187-.439,1.682,1.682,0,0,0-1.118.342,1.161,1.161,0,0,0-.405.938H92a2.835,2.835,0,0,1,.566-1.7,3.744,3.744,0,0,1,1.6-1.226,5.837,5.837,0,0,1,2.324-.444,4.611,4.611,0,0,1,3.1.981,3.433,3.433,0,0,1,1.147,2.759v4.58a5.052,5.052,0,0,0,.42,2.275V47Zm-2.334-1.963a2.431,2.431,0,0,0,1.152-.278,1.828,1.828,0,0,0,.781-.747V42.2H96.854q-2.119,0-2.256,1.465l-.01.166a1.13,1.13,0,0,0,.371.869A1.441,1.441,0,0,0,95.975,45.037ZM97.049,32h3.076L97.42,35.027H95.125Zm6.543,15V38.5H102.02v-2.07h1.572v-.488a3.963,3.963,0,0,1,1.226-3.071,4.931,4.931,0,0,1,3.4-1.079,11.289,11.289,0,0,1,3.2.576l-.41,2.334a12.5,12.5,0,0,0-1.484-.366,7.293,7.293,0,0,0-1.133-.083q-1.973,0-1.973,1.748v.43h2.08V38.5h-2.08V47Zm9.15,0H109.91V36.434h2.832Zm6.729-2.08a1.851,1.851,0,0,0,1.27-.43,1.506,1.506,0,0,0,.508-1.143h2.646a3.62,3.62,0,0,1-.586,1.968,3.866,3.866,0,0,1-1.577,1.387,4.936,4.936,0,0,1-2.212.493,4.587,4.587,0,0,1-3.574-1.44,5.7,5.7,0,0,1-1.309-3.979V41.59a5.635,5.635,0,0,1,1.3-3.9,4.534,4.534,0,0,1,3.564-1.455,4.444,4.444,0,0,1,3.179,1.128,3.994,3.994,0,0,1,1.216,3h-2.646a1.939,1.939,0,0,0-.508-1.34,1.887,1.887,0,0,0-2.778.2,4.166,4.166,0,0,0-.5,2.333v.293a4.219,4.219,0,0,0,.5,2.347A1.721,1.721,0,0,0,119.471,44.92ZM131.629,47a3.134,3.134,0,0,1-.283-.947A3.415,3.415,0,0,1,128.68,47.2a3.752,3.752,0,0,1-2.573-.9,2.89,2.89,0,0,1-1.021-2.266,2.986,2.986,0,0,1,1.245-2.578,6.144,6.144,0,0,1,3.6-.908h1.3v-.605a1.741,1.741,0,0,0-.376-1.172,1.479,1.479,0,0,0-1.187-.439,1.682,1.682,0,0,0-1.118.342,1.161,1.161,0,0,0-.405.938H125.32a2.835,2.835,0,0,1,.566-1.7,3.744,3.744,0,0,1,1.6-1.226,5.837,5.837,0,0,1,2.324-.444,4.611,4.611,0,0,1,3.1.981,3.433,3.433,0,0,1,1.147,2.759v4.58a5.052,5.052,0,0,0,.42,2.275V47Zm-2.334-1.963a2.431,2.431,0,0,0,1.152-.278,1.828,1.828,0,0,0,.781-.747V42.2h-1.055q-2.119,0-2.256,1.465l-.01.166a1.13,1.13,0,0,0,.371.869A1.441,1.441,0,0,0,129.295,45.037Z" transform="translate(1186.5 4109.5)" fill="#12263f"/>
    <g id="Layer_2" data-name="Layer 2" transform="translate(1215.096 3965.624)">
      <path id="Trazado_102733" data-name="Trazado 102733" d="M91.579,33.52A31.772,31.772,0,1,0,44.413,61.305c4.506,16.53,15.4,33.936,15.4,33.936S70.7,77.837,75.2,61.305A31.752,31.752,0,0,0,91.579,33.52Z" transform="translate(-1.373 -0.203)" fill="#a2a7c5"/>
      <path id="Trazado_102734" data-name="Trazado 102734" d="M64.741,95.176c-3.327,6.518-6.1,10.955-6.1,10.955s-2.775-4.438-6.1-10.955C32.988,96.176,18,101.905,18,108.824c0,7.623,18.2,13.8,40.639,13.8s40.639-6.184,40.639-13.8C99.278,101.905,84.29,96.176,64.741,95.176Z" transform="translate(-0.204 -11.094)" fill="#ea3584"/>
      <path id="Trazado_102735" data-name="Trazado 102735" d="M62.227,49.381a13.441,13.441,0,1,1,13.44-13.44,13.441,13.441,0,0,1-13.44,13.44Z" transform="translate(-3.792 -2.623)" fill="#fdd835"/>
      <g id="Grupo_55831" data-name="Grupo 55831" transform="translate(16.25 -0.008)">
        <path id="Trazado_102736" data-name="Trazado 102736" d="M63.568,49.177a1.545,1.545,0,0,0-1.545-1.546A11.895,11.895,0,1,1,73.917,35.737a1.546,1.546,0,1,0,3.092,0A14.986,14.986,0,1,0,62.023,50.723a1.545,1.545,0,0,0,1.545-1.546Z" transform="translate(-19.838 -2.411)" fill="#231f20"/>
        <path id="Trazado_102737" data-name="Trazado 102737" d="M76.465,45.542a1.544,1.544,0,0,0-2.167.283,12.064,12.064,0,0,1-2.278,2.258,1.546,1.546,0,1,0,1.865,2.466,15.074,15.074,0,0,0,2.862-2.84,1.544,1.544,0,0,0-.282-2.167Z" transform="translate(-22.678 -5.263)" fill="#231f20"/>
        <path id="Trazado_102738" data-name="Trazado 102738" d="M66.979,82.69a124.079,124.079,0,0,0,8.17-20.557,33.318,33.318,0,1,0-33.428,0A124.045,124.045,0,0,0,49.894,82.7a100.6,100.6,0,0,0-11.8,1.508,1.546,1.546,0,1,0,.587,3.036,98.609,98.609,0,0,1,12.727-1.558c3.029,5.851,5.507,9.836,5.719,10.176a1.545,1.545,0,0,0,2.62,0c.213-.339,2.689-4.324,5.719-10.176C85.3,86.874,97.528,92.808,97.528,97.734c0,5.8-16.055,12.258-39.093,12.258s-39.093-6.46-39.093-12.258c0-2.943,4.185-6.088,11.2-8.411a1.546,1.546,0,1,0-.972-2.935C20.976,89.228,16.25,93.26,16.25,97.731c0,9.97,21.735,15.35,42.185,15.35s42.185-5.38,42.185-15.35c0-8.758-17.006-13.83-33.641-15.041ZM43.791,59.75a30.226,30.226,0,1,1,29.288,0,1.548,1.548,0,0,0-.741.945c-3.471,12.733-10.891,26.171-13.9,31.331C55.423,86.869,48,73.438,44.532,60.692a1.548,1.548,0,0,0-.741-.942Z" transform="translate(-16.25 0.008)" fill="#231f20"/>
      </g>
    </g>
  </g>
</svg>
