<svg xmlns="http://www.w3.org/2000/svg" width="295" height="350" viewBox="0 0 295 350">
  <g id="Grupo_874367" data-name="Grupo 874367" transform="translate(5184 7457)">
    <rect id="Rectángulo_35199" data-name="Rectángulo 35199" width="295" height="350" rx="20" transform="translate(-5184 -7457)" fill="#ebe3f9"/>
    <path id="Trazado_596929" data-name="Trazado 596929" d="M12.63,15.99V21H9.7V6.781h5.547a6.417,6.417,0,0,1,2.817.586,4.318,4.318,0,0,1,1.87,1.665,4.643,4.643,0,0,1,.654,2.456,4.083,4.083,0,0,1-1.431,3.3A5.959,5.959,0,0,1,15.2,15.99Zm0-2.373h2.617a2.573,2.573,0,0,0,1.772-.547,1.989,1.989,0,0,0,.61-1.562,2.345,2.345,0,0,0-.615-1.689,2.3,2.3,0,0,0-1.7-.664H12.63Zm9.219,2a6.266,6.266,0,0,1,.605-2.8,4.432,4.432,0,0,1,1.743-1.9,5.086,5.086,0,0,1,2.642-.674,4.812,4.812,0,0,1,3.491,1.309A5.252,5.252,0,0,1,31.839,15.1l.02.723a5.523,5.523,0,0,1-1.357,3.9,4.718,4.718,0,0,1-3.643,1.47,4.742,4.742,0,0,1-3.647-1.465,5.62,5.62,0,0,1-1.362-3.984Zm2.822.2a3.95,3.95,0,0,0,.566,2.3,2.035,2.035,0,0,0,3.223.01,4.322,4.322,0,0,0,.576-2.518,3.91,3.91,0,0,0-.576-2.289,1.873,1.873,0,0,0-1.621-.812,1.842,1.842,0,0,0-1.6.807A4.395,4.395,0,0,0,24.671,15.819Zm8.486-.181A6.368,6.368,0,0,1,34.266,11.7,3.6,3.6,0,0,1,37.3,10.238a3.236,3.236,0,0,1,2.549,1.152V6h2.832V21H40.13l-.137-1.123A3.321,3.321,0,0,1,37.278,21.2a3.587,3.587,0,0,1-2.993-1.47A6.573,6.573,0,0,1,33.157,15.639Zm2.822.21a4.171,4.171,0,0,0,.518,2.279,1.686,1.686,0,0,0,1.5.792,1.888,1.888,0,0,0,1.846-1.105V13.638a1.861,1.861,0,0,0-1.826-1.105Q35.979,12.533,35.979,15.849ZM49.729,21.2a5.187,5.187,0,0,1-3.784-1.426,5.068,5.068,0,0,1-1.46-3.8V15.7a6.383,6.383,0,0,1,.615-2.847,4.515,4.515,0,0,1,1.743-1.934,4.893,4.893,0,0,1,2.573-.679,4.385,4.385,0,0,1,3.413,1.367,5.555,5.555,0,0,1,1.245,3.877v1.152H47.347a2.622,2.622,0,0,0,.825,1.66,2.5,2.5,0,0,0,1.743.625,3.046,3.046,0,0,0,2.549-1.182l1.387,1.553a4.237,4.237,0,0,1-1.719,1.4A5.639,5.639,0,0,1,49.729,21.2Zm-.322-8.682a1.764,1.764,0,0,0-1.362.569,2.946,2.946,0,0,0-.669,1.628H51.3v-.226a2.1,2.1,0,0,0-.508-1.457A1.819,1.819,0,0,0,49.407,12.514Zm12.207.566A7.667,7.667,0,0,0,60.6,13a2.067,2.067,0,0,0-2.1,1.084V21H55.677V10.434h2.666l.078,1.26a2.615,2.615,0,0,1,2.354-1.455,2.957,2.957,0,0,1,.879.127ZM74.075,21a3.134,3.134,0,0,1-.283-.947A3.415,3.415,0,0,1,71.126,21.2a3.752,3.752,0,0,1-2.573-.9,2.89,2.89,0,0,1-1.021-2.266,2.986,2.986,0,0,1,1.245-2.578,6.144,6.144,0,0,1,3.6-.908h1.3v-.605a1.741,1.741,0,0,0-.376-1.172,1.479,1.479,0,0,0-1.187-.439,1.682,1.682,0,0,0-1.118.342,1.161,1.161,0,0,0-.405.938H67.767a2.835,2.835,0,0,1,.566-1.7,3.744,3.744,0,0,1,1.6-1.226,5.837,5.837,0,0,1,2.324-.444,4.611,4.611,0,0,1,3.1.981,3.433,3.433,0,0,1,1.147,2.759v4.58a5.052,5.052,0,0,0,.42,2.275V21Zm-2.334-1.963a2.431,2.431,0,0,0,1.152-.278,1.828,1.828,0,0,0,.781-.747V16.2H72.62q-2.119,0-2.256,1.465l-.01.166a1.13,1.13,0,0,0,.371.869A1.441,1.441,0,0,0,71.741,19.037Zm6.494-3.4A6.368,6.368,0,0,1,79.344,11.7a3.6,3.6,0,0,1,3.032-1.465,3.236,3.236,0,0,1,2.549,1.152V6h2.832V21H85.208l-.137-1.123A3.321,3.321,0,0,1,82.356,21.2a3.587,3.587,0,0,1-2.993-1.47A6.573,6.573,0,0,1,78.235,15.639Zm2.822.21a4.171,4.171,0,0,0,.518,2.279,1.686,1.686,0,0,0,1.5.792,1.888,1.888,0,0,0,1.846-1.105V13.638A1.861,1.861,0,0,0,83.1,12.533Q81.058,12.533,81.058,15.849Zm8.447-.23a6.316,6.316,0,0,1,1.108-3.936,3.624,3.624,0,0,1,3.042-1.445,3.244,3.244,0,0,1,2.705,1.3l.186-1.1h2.48V25.063H96.194V20.092a3.253,3.253,0,0,1-2.559,1.1,3.6,3.6,0,0,1-3.008-1.465A6.626,6.626,0,0,1,89.5,15.619Zm2.822.2a4.143,4.143,0,0,0,.532,2.308,1.7,1.7,0,0,0,1.5.792,1.9,1.9,0,0,0,1.836-1.037V13.511a1.882,1.882,0,0,0-1.816-1,1.725,1.725,0,0,0-1.514.792A4.576,4.576,0,0,0,92.327,15.819Zm15.244,4.106a3.539,3.539,0,0,1-2.891,1.27,3.338,3.338,0,0,1-2.593-.977,4.169,4.169,0,0,1-.913-2.861V10.434H104v6.834q0,1.652,1.5,1.652a2.038,2.038,0,0,0,1.973-1V10.434h2.832V21h-2.656ZM115.413,21h-2.832V10.434h2.832Zm-3-13.3a1.39,1.39,0,0,1,.425-1.045,1.831,1.831,0,0,1,2.31,0,1.382,1.382,0,0,1,.43,1.045,1.386,1.386,0,0,1-.435,1.055,1.81,1.81,0,0,1-2.295,0A1.386,1.386,0,0,1,112.415,7.7ZM123.46,18.08a.909.909,0,0,0-.513-.815,5.824,5.824,0,0,0-1.646-.532q-3.77-.791-3.77-3.2a2.9,2.9,0,0,1,1.167-2.349,4.708,4.708,0,0,1,3.052-.942,5.067,5.067,0,0,1,3.218.947,2.985,2.985,0,0,1,1.206,2.461h-2.822a1.366,1.366,0,0,0-.391-1,1.653,1.653,0,0,0-1.221-.4,1.689,1.689,0,0,0-1.1.322,1.017,1.017,0,0,0-.391.82.87.87,0,0,0,.444.757,4.571,4.571,0,0,0,1.5.5,12.244,12.244,0,0,1,1.777.474,2.92,2.92,0,0,1,2.236,2.842,2.756,2.756,0,0,1-1.24,2.339,5.35,5.35,0,0,1-3.2.894,5.588,5.588,0,0,1-2.358-.474,3.957,3.957,0,0,1-1.616-1.3,3.018,3.018,0,0,1-.586-1.782h2.676a1.473,1.473,0,0,0,.557,1.152,2.208,2.208,0,0,0,1.387.4,2.044,2.044,0,0,0,1.226-.308A.957.957,0,0,0,123.46,18.08ZM131,21h-2.832V10.434H131ZM128,7.7a1.39,1.39,0,0,1,.425-1.045,1.831,1.831,0,0,1,2.31,0,1.382,1.382,0,0,1,.43,1.045,1.386,1.386,0,0,1-.435,1.055,1.81,1.81,0,0,1-2.295,0A1.386,1.386,0,0,1,128,7.7Zm8.7.137v2.6h1.807V12.5H136.7v5.273a1.259,1.259,0,0,0,.225.84,1.128,1.128,0,0,0,.859.254,4.5,4.5,0,0,0,.83-.068v2.139a5.81,5.81,0,0,1-1.709.254q-2.969,0-3.027-3V12.5h-1.543v-2.07h1.543v-2.6ZM143.06,21h-2.832V10.434h2.832Zm-3-13.3a1.39,1.39,0,0,1,.425-1.045,1.831,1.831,0,0,1,2.31,0,1.382,1.382,0,0,1,.43,1.045,1.386,1.386,0,0,1-.435,1.055,1.81,1.81,0,0,1-2.295,0A1.386,1.386,0,0,1,140.062,7.7Zm9.277,9.854,1.963-7.119h2.949L150.687,21h-2.7l-3.564-10.566h2.949Zm5.566-1.934a6.267,6.267,0,0,1,.605-2.8,4.432,4.432,0,0,1,1.743-1.9,5.086,5.086,0,0,1,2.642-.674,4.812,4.812,0,0,1,3.491,1.309A5.252,5.252,0,0,1,164.9,15.1l.02.723a5.523,5.523,0,0,1-1.357,3.9,5.261,5.261,0,0,1-7.29,0,5.62,5.62,0,0,1-1.362-3.984Zm2.822.2a3.95,3.95,0,0,0,.566,2.3,2.035,2.035,0,0,0,3.223.01,4.322,4.322,0,0,0,.576-2.518,3.91,3.91,0,0,0-.576-2.289,1.873,1.873,0,0,0-1.621-.812,1.842,1.842,0,0,0-1.6.807A4.395,4.395,0,0,0,157.728,15.819Z" transform="translate(-5123 -7215.5)" fill="#12263f"/>
    <g id="dinero" transform="translate(-5088.725 -7362.848)">
      <g id="Grupo_55835" data-name="Grupo 55835" transform="translate(1.581 1.528)">
        <path id="Trazado_102752" data-name="Trazado 102752" d="M152.438,54.713a2.082,2.082,0,0,1-2.082,2.082H64.393a2.082,2.082,0,0,1-2.082-2.082V9.582A2.082,2.082,0,0,1,64.393,7.5h85.964a2.082,2.082,0,0,1,2.082,2.082V54.713Z" transform="translate(-51.152 -7.5)" fill="#78c2a4"/>
        <path id="Trazado_102753" data-name="Trazado 102753" d="M478.524,7.5h-4.048a2.082,2.082,0,0,1,2.082,2.082V54.713a2.082,2.082,0,0,1-2.082,2.082h4.048a2.082,2.082,0,0,0,2.082-2.082V9.582A2.082,2.082,0,0,0,478.524,7.5Z" transform="translate(-379.319 -7.5)" fill="#66b394"/>
        <path id="Trazado_102754" data-name="Trazado 102754" d="M180.08,473.319H160.442a2.547,2.547,0,0,1-2.547-2.547v-2.914a2.547,2.547,0,0,1,2.547-2.547H180.08a2.547,2.547,0,0,1,2.547,2.547v2.914A2.547,2.547,0,0,1,180.08,473.319Z" transform="translate(-127.256 -372.011)" fill="#eab14d"/>
        <path id="Trazado_102755" data-name="Trazado 102755" d="M250.847,465.311h-4.072a2.547,2.547,0,0,1,2.547,2.547v2.914a2.547,2.547,0,0,1-2.547,2.547h4.072a2.547,2.547,0,0,0,2.547-2.547v-2.914A2.547,2.547,0,0,0,250.847,465.311Z" transform="translate(-198.023 -372.011)" fill="#e49542"/>
        <path id="Trazado_102756" data-name="Trazado 102756" d="M196.068,394.727H176.43a2.547,2.547,0,0,1-2.547-2.547v-2.914a2.547,2.547,0,0,1,2.547-2.547h19.638a2.547,2.547,0,0,1,2.547,2.547v2.914A2.547,2.547,0,0,1,196.068,394.727Z" transform="translate(-139.986 -309.436)" fill="#eab14d"/>
        <path id="Trazado_102757" data-name="Trazado 102757" d="M266.835,386.719h-4.072a2.547,2.547,0,0,1,2.547,2.547v2.914a2.547,2.547,0,0,1-2.547,2.547h4.072a2.547,2.547,0,0,0,2.547-2.547v-2.914A2.547,2.547,0,0,0,266.835,386.719Z" transform="translate(-210.752 -309.436)" fill="#e49542"/>
        <path id="Trazado_102758" data-name="Trazado 102758" d="M180.08,434.023H160.442a2.547,2.547,0,0,1-2.547-2.547v-2.914a2.547,2.547,0,0,1,2.547-2.547H180.08a2.547,2.547,0,0,1,2.547,2.547v2.914A2.547,2.547,0,0,1,180.08,434.023Z" transform="translate(-127.256 -340.723)" fill="#f6e266"/>
        <path id="Trazado_102759" data-name="Trazado 102759" d="M250.847,426.015h-4.072a2.547,2.547,0,0,1,2.547,2.547v2.914a2.547,2.547,0,0,1-2.547,2.547h4.072a2.547,2.547,0,0,0,2.547-2.547v-2.914A2.547,2.547,0,0,0,250.847,426.015Z" transform="translate(-198.023 -340.723)" fill="#ecbe6b"/>
        <path id="Trazado_102760" data-name="Trazado 102760" d="M170.21,65.522V46.545a9.045,9.045,0,0,1-9.045-9.045h-59.81a9.045,9.045,0,0,1-9.045,9.045V65.522a9.045,9.045,0,0,1,9.045,9.045h59.81A9.045,9.045,0,0,1,170.21,65.522Z" transform="translate(-75.038 -31.386)" fill="#e0f8c5"/>
        <path id="Trazado_102761" data-name="Trazado 102761" d="M408.55,37.5h-5.534a9.049,9.049,0,0,0,6.079,8.547,4.413,4.413,0,0,1,2.966,4.167V61.853a4.41,4.41,0,0,1-2.966,4.167,9.048,9.048,0,0,0-6.079,8.547h5.534a9.045,9.045,0,0,1,9.045-9.045V46.545A9.045,9.045,0,0,1,408.55,37.5Z" transform="translate(-322.422 -31.386)" fill="#ccf49f"/>
        <path id="Trazado_102762" data-name="Trazado 102762" d="M97.68,162.165a2.082,2.082,0,0,1-2.082,2.082H9.635a2.082,2.082,0,0,1-2.082-2.082V117.034a2.082,2.082,0,0,1,2.082-2.082H95.6a2.082,2.082,0,0,1,2.082,2.082Z" transform="translate(-7.553 -93.054)" fill="#78c2a4"/>
        <path id="Trazado_102763" data-name="Trazado 102763" d="M423.766,114.952h-4.048a2.082,2.082,0,0,1,2.082,2.082v45.131a2.082,2.082,0,0,1-2.082,2.082h4.048a2.082,2.082,0,0,0,2.082-2.082V117.034A2.082,2.082,0,0,0,423.766,114.952Z" transform="translate(-335.72 -93.054)" fill="#66b394"/>
        <path id="Trazado_102764" data-name="Trazado 102764" d="M115.452,172.975V154a9.045,9.045,0,0,1-9.045-9.045H46.6A9.045,9.045,0,0,1,37.553,154v18.978A9.045,9.045,0,0,1,46.6,182.02h59.81A9.045,9.045,0,0,1,115.452,172.975Z" transform="translate(-31.439 -116.941)" fill="#e0f8c5"/>
        <path id="Trazado_102765" data-name="Trazado 102765" d="M353.792,144.953h-5.534a9.049,9.049,0,0,0,6.079,8.547,4.413,4.413,0,0,1,2.966,4.167v11.639a4.41,4.41,0,0,1-2.966,4.167,9.048,9.048,0,0,0-6.079,8.547h5.534a9.045,9.045,0,0,1,9.045-9.045V154a9.045,9.045,0,0,1-9.045-9.045Z" transform="translate(-278.824 -116.941)" fill="#ccf49f"/>
        <path id="Trazado_102783" data-name="Trazado 102783" d="M19.262,0A19.262,19.262,0,1,1,0,19.262,19.262,19.262,0,0,1,19.262,0Z" transform="translate(3.868 62.783)" fill="#fdd835"/>
        <path id="Trazado_102766" data-name="Trazado 102766" d="M111.964,315.57a19.422,19.422,0,0,0-2.326.145,19.258,19.258,0,0,1,0,38.235,19.261,19.261,0,1,0,2.326-38.38Z" transform="translate(-88.834 -252.787)" fill="#fdd835" style="mix-blend-mode: multiply;isolation: isolate"/>
        <path id="Trazado_102784" data-name="Trazado 102784" d="M19.262,0A19.262,19.262,0,1,1,0,19.262,19.262,19.262,0,0,1,19.262,0Z" transform="translate(62.762 51.931)" fill="#fdd835"/>
        <path id="Trazado_102767" data-name="Trazado 102767" d="M400.949,262.317a19.435,19.435,0,0,0-2.326.145,19.258,19.258,0,0,1,0,38.235,19.261,19.261,0,1,0,2.326-38.38Z" transform="translate(-318.925 -210.386)" fill="#fdd835" style="mix-blend-mode: multiply;isolation: isolate"/>
      </g>
      <g id="Grupo_55836" data-name="Grupo 55836" transform="translate(0.053 0)">
        <path id="Trazado_102768" data-name="Trazado 102768" d="M465.32,38.614v-.408a1.529,1.529,0,0,0-3.057,0v.408a1.529,1.529,0,0,0,3.057,0Z" transform="translate(-368.066 -29.203)"/>
        <path id="Trazado_102769" data-name="Trazado 102769" d="M462.263,204.733v.408a1.529,1.529,0,0,0,3.057,0v-.408a1.529,1.529,0,0,0-3.057,0Z" transform="translate(-368.066 -161.793)"/>
        <path id="Trazado_102770" data-name="Trazado 102770" d="M89.6,38.206v.408a1.528,1.528,0,1,0,3.057,0v-.408a1.528,1.528,0,1,0-3.057,0Z" transform="translate(-71.352 -29.203)"/>
        <path id="Trazado_102771" data-name="Trazado 102771" d="M100.786,52.352a3.614,3.614,0,0,0,3.61-3.61V3.61A3.614,3.614,0,0,0,100.786,0H90.977a1.528,1.528,0,0,0,0,3.057h9.809a.554.554,0,0,1,.553.553V48.742a.554.554,0,0,1-.553.553H93.237V38.071a7.48,7.48,0,0,1,3.517-.878,1.528,1.528,0,0,0,1.528-1.528V16.687a1.528,1.528,0,0,0-1.528-1.528,7.525,7.525,0,0,1-7.516-7.516A1.528,1.528,0,0,0,87.71,6.114H27.9a1.528,1.528,0,0,0-1.528,1.528,7.525,7.525,0,0,1-7.516,7.516,1.528,1.528,0,0,0-1.528,1.528V21.9H14.269V3.61a.554.554,0,0,1,.553-.553H84.866a1.528,1.528,0,1,0,0-3.057H14.823a3.614,3.614,0,0,0-3.61,3.61V21.9H3.663a3.614,3.614,0,0,0-3.61,3.61V70.64a3.614,3.614,0,0,0,3.61,3.61H6.133a20.79,20.79,0,0,0,25.693,28.861,4.055,4.055,0,0,0,2.942,1.254H54.406a4.08,4.08,0,0,0,4.076-4.076V97.376a4.054,4.054,0,0,0-.9-2.547,4.053,4.053,0,0,0,.9-2.547V89.367a4.062,4.062,0,0,0-.149-1.078,4.079,4.079,0,0,0,3.408-4.016V81.359a4.08,4.08,0,0,0-4.076-4.076H44.529a20.649,20.649,0,0,0-1.238-3.033h19.58A20.818,20.818,0,0,0,83.606,93.512a20.592,20.592,0,0,0,12.705-4.334,1.529,1.529,0,1,0-1.87-2.419,17.562,17.562,0,0,1-10.836,3.7,17.73,17.73,0,1,1,14.691-7.8,1.528,1.528,0,0,0,2.53,1.715A20.788,20.788,0,0,0,93.237,54.3V52.351h7.549Zm-80.4-34.246a10.6,10.6,0,0,0,8.934-8.934H86.291a10.6,10.6,0,0,0,8.935,8.934V34.246a10.51,10.51,0,0,0-1.989.494V25.509a3.614,3.614,0,0,0-3.61-3.61h-30.4v-3.02a8.811,8.811,0,0,1,2.476.7,1.529,1.529,0,0,0,1.366-2.735,11.709,11.709,0,0,0-3.842-1.035v-.84a1.528,1.528,0,1,0-3.057,0v1.054a5.236,5.236,0,0,0-3.738,3.333A5.553,5.553,0,0,0,52.1,21.9H20.384ZM55.207,21.9a2.39,2.39,0,0,1,.084-1.476,2.321,2.321,0,0,1,.874-1.129v2.6ZM6.978,83.574a17.734,17.734,0,1,1,17.734,17.734A17.754,17.754,0,0,1,6.978,83.574Zm48.447,5.793v2.914A1.02,1.02,0,0,1,54.406,93.3H43.083a20.644,20.644,0,0,0,1.866-4.951h9.457A1.02,1.02,0,0,1,55.425,89.367Zm0,10.922a1.02,1.02,0,0,1-1.019,1.019H35.553A20.954,20.954,0,0,0,41.1,96.357H54.406a1.02,1.02,0,0,1,1.019,1.019Zm2.24-19.949a1.02,1.02,0,0,1,1.019,1.019v2.914a1.02,1.02,0,0,1-1.019,1.019H45.431c.047-.567.072-1.139.072-1.717a20.864,20.864,0,0,0-.252-3.234Zm-19.042-12.2h24.7a20.7,20.7,0,0,0-.454,3.057H41.4a20.975,20.975,0,0,0-2.782-3.057Zm48.5-15.906V38.585a1.528,1.528,0,0,0-1.528-1.528,7.525,7.525,0,0,1-7.516-7.516,1.528,1.528,0,0,0-1.528-1.528H16.74a1.528,1.528,0,0,0-1.528,1.528A7.525,7.525,0,0,1,7.7,37.057a1.528,1.528,0,0,0-1.528,1.528v6.433a1.528,1.528,0,0,0,3.057,0V40a10.6,10.6,0,0,0,8.935-8.935H75.132A10.6,10.6,0,0,0,84.066,40V51.937c-.153,0-.307-.006-.461-.006A20.825,20.825,0,0,0,64.27,65.08H34.2A20.777,20.777,0,0,0,17.92,63.924a10.6,10.6,0,0,0-8.7-7.779V51.13a1.528,1.528,0,1,0-3.057,0v6.433A1.528,1.528,0,0,0,7.7,59.092a7.526,7.526,0,0,1,7.373,6.068A20.938,20.938,0,0,0,8.02,71.193H3.663a.554.554,0,0,1-.553-.553V25.509a.554.554,0,0,1,.553-.553H89.627a.554.554,0,0,1,.553.553V53a20.607,20.607,0,0,0-3.057-.767Z" transform="translate(-0.053 0)"/>
        <path id="Trazado_102772" data-name="Trazado 102772" d="M198.708,194.831a7.681,7.681,0,0,0,3.917,1.448v1.061a1.528,1.528,0,0,0,3.057,0v-1.2a6.436,6.436,0,0,0,4.744-5.143,5.594,5.594,0,0,0-3.848-6.4c-.295-.1-.6-.212-.9-.324v-5.432a8.824,8.824,0,0,1,2.475.7,1.528,1.528,0,0,0,1.366-2.735,11.706,11.706,0,0,0-3.841-1.036v-.84a1.528,1.528,0,0,0-3.057,0v1.054q-.175.044-.351.1a5.321,5.321,0,0,0-3.649,4.172,4.719,4.719,0,0,0,1.557,4.648,11.836,11.836,0,0,0,2.442,1.422v6.89a4.893,4.893,0,0,1-2.244-.933,1.528,1.528,0,1,0-1.673,2.558Zm8.7-4.345a3.373,3.373,0,0,1-1.729,2.409v-5.376A2.592,2.592,0,0,1,207.411,190.485Zm-5.342-8a1.73,1.73,0,0,1-.439-1.677,2.424,2.424,0,0,1,1-1.561v3.62A6.035,6.035,0,0,1,202.069,182.487Z" transform="translate(-157.672 -138.056)"/>
        <path id="Trazado_102773" data-name="Trazado 102773" d="M306.68,231.451h4.234a1.528,1.528,0,1,0,0-3.057H306.68a1.528,1.528,0,0,0,0,3.057Z" transform="translate(-242.974 -181.848)"/>
        <path id="Trazado_102774" data-name="Trazado 102774" d="M117.947,231.451h4.234a1.528,1.528,0,0,0,0-3.057h-4.234a1.528,1.528,0,0,0,0,3.057Z" transform="translate(-92.704 -181.848)"/>
        <path id="Trazado_102775" data-name="Trazado 102775" d="M409.032,144.13a1.528,1.528,0,0,0-1.528,1.528v.408a1.528,1.528,0,0,0,3.057,0v-.408A1.528,1.528,0,0,0,409.032,144.13Z" transform="translate(-324.467 -114.757)"/>
        <path id="Trazado_102776" data-name="Trazado 102776" d="M409.032,314.122a1.528,1.528,0,0,0,1.529-1.528v-.408a1.528,1.528,0,0,0-3.057,0v.408A1.528,1.528,0,0,0,409.032,314.122Z" transform="translate(-324.467 -247.346)"/>
        <path id="Trazado_102777" data-name="Trazado 102777" d="M36.372,144.13a1.528,1.528,0,0,0-1.528,1.528v.408a1.528,1.528,0,0,0,3.057,0v-.408A1.528,1.528,0,0,0,36.372,144.13Z" transform="translate(-27.754 -114.757)"/>
        <path id="Trazado_102778" data-name="Trazado 102778" d="M36.372,314.122a1.528,1.528,0,0,0,1.528-1.528v-.408a1.528,1.528,0,1,0-3.057,0v.408A1.528,1.528,0,0,0,36.372,314.122Z" transform="translate(-27.754 -247.346)"/>
        <path id="Trazado_102779" data-name="Trazado 102779" d="M64.873,339.533a14.379,14.379,0,1,0,14.379,14.379A14.4,14.4,0,0,0,64.873,339.533Zm0,25.7A11.322,11.322,0,1,1,76.2,353.912,11.335,11.335,0,0,1,64.873,365.234Z" transform="translate(-40.214 -270.338)"/>
        <path id="Trazado_102780" data-name="Trazado 102780" d="M353.858,286.28a14.379,14.379,0,1,0,14.379,14.379A14.4,14.4,0,0,0,353.858,286.28Zm0,25.7a11.322,11.322,0,1,1,11.322-11.322A11.335,11.335,0,0,1,353.858,311.981Z" transform="translate(-270.305 -227.937)"/>
        <path id="Trazado_102781" data-name="Trazado 102781" d="M102.533,402.588H93.9a1.528,1.528,0,0,0,0,3.057h8.632a1.528,1.528,0,0,0,0-3.057Z" transform="translate(-73.559 -320.542)"/>
        <path id="Trazado_102782" data-name="Trazado 102782" d="M391.518,349.336h-8.632a1.528,1.528,0,0,0,0,3.057h8.632a1.528,1.528,0,0,0,0-3.057Z" transform="translate(-303.65 -278.143)"/>
      </g>
    </g>
  </g>
</svg>
