<svg xmlns="http://www.w3.org/2000/svg" width="295" height="350" viewBox="0 0 295 350">
  <g id="Grupo_874365" data-name="Grupo 874365" transform="translate(-338 -4239)">
    <rect id="Rectángulo_35196" data-name="Rectángulo 35196" width="295" height="350" rx="20" transform="translate(338 4239)" fill="#ffe0f0"/>
    <path id="Trazado_596927" data-name="Trazado 596927" d="M30.643,21h-2.93l-5.7-9.355V21H19.08V6.781h2.93l5.713,9.375V6.781h2.92Zm5.352,0H33.162V10.434h2.832ZM33,7.7a1.39,1.39,0,0,1,.425-1.045,1.831,1.831,0,0,1,2.31,0A1.382,1.382,0,0,1,36.16,7.7a1.386,1.386,0,0,1-.435,1.055,1.81,1.81,0,0,1-2.295,0A1.386,1.386,0,0,1,33,7.7Zm9.277,9.854,1.963-7.119h2.949L43.621,21h-2.7L37.361,10.434h2.949ZM53.289,21.2A5.187,5.187,0,0,1,49.5,19.77a5.068,5.068,0,0,1-1.46-3.8V15.7a6.383,6.383,0,0,1,.615-2.847A4.515,4.515,0,0,1,50.4,10.917a4.893,4.893,0,0,1,2.573-.679,4.385,4.385,0,0,1,3.413,1.367,5.555,5.555,0,0,1,1.245,3.877v1.152H50.906a2.622,2.622,0,0,0,.825,1.66,2.5,2.5,0,0,0,1.743.625,3.046,3.046,0,0,0,2.549-1.182l1.387,1.553a4.237,4.237,0,0,1-1.719,1.4A5.639,5.639,0,0,1,53.289,21.2Zm-.322-8.682a1.764,1.764,0,0,0-1.362.569,2.946,2.946,0,0,0-.669,1.628h3.926v-.226a2.1,2.1,0,0,0-.508-1.457A1.819,1.819,0,0,0,52.967,12.514ZM62.215,21H59.383V6h2.832Zm12.168.2A5.187,5.187,0,0,1,70.6,19.77a5.068,5.068,0,0,1-1.46-3.8V15.7a6.383,6.383,0,0,1,.615-2.847A4.515,4.515,0,0,1,71.5,10.917a4.893,4.893,0,0,1,2.573-.679,4.385,4.385,0,0,1,3.413,1.367,5.555,5.555,0,0,1,1.245,3.877v1.152H72a2.622,2.622,0,0,0,.825,1.66,2.5,2.5,0,0,0,1.743.625,3.046,3.046,0,0,0,2.549-1.182L78.5,19.291a4.237,4.237,0,0,1-1.719,1.4A5.639,5.639,0,0,1,74.383,21.2Zm-.322-8.682a1.764,1.764,0,0,0-1.362.569,2.946,2.946,0,0,0-.669,1.628h3.926v-.226a2.1,2.1,0,0,0-.508-1.457A1.819,1.819,0,0,0,74.061,12.514Zm5.83,3.125A6.368,6.368,0,0,1,81,11.7a3.6,3.6,0,0,1,3.032-1.465,3.236,3.236,0,0,1,2.549,1.152V6h2.832V21H86.863l-.137-1.123A3.321,3.321,0,0,1,84.012,21.2a3.587,3.587,0,0,1-2.993-1.47A6.573,6.573,0,0,1,79.891,15.639Zm2.822.21a4.171,4.171,0,0,0,.518,2.279,1.686,1.686,0,0,0,1.5.792,1.888,1.888,0,0,0,1.846-1.105V13.638a1.861,1.861,0,0,0-1.826-1.105Q82.713,12.533,82.713,15.849Zm15.215,4.077a3.539,3.539,0,0,1-2.891,1.27,3.338,3.338,0,0,1-2.593-.977,4.169,4.169,0,0,1-.913-2.861V10.434h2.822v6.834q0,1.652,1.5,1.652a2.038,2.038,0,0,0,1.973-1V10.434h2.832V21H98.006Zm9.258-1.006a1.851,1.851,0,0,0,1.27-.43,1.506,1.506,0,0,0,.508-1.143h2.646a3.62,3.62,0,0,1-.586,1.968,3.866,3.866,0,0,1-1.577,1.387,4.936,4.936,0,0,1-2.212.493,4.587,4.587,0,0,1-3.574-1.44,5.7,5.7,0,0,1-1.309-3.979V15.59a5.635,5.635,0,0,1,1.3-3.9,4.534,4.534,0,0,1,3.564-1.455,4.444,4.444,0,0,1,3.179,1.128,3.994,3.994,0,0,1,1.216,3h-2.646a1.939,1.939,0,0,0-.508-1.34,1.887,1.887,0,0,0-2.778.2,4.166,4.166,0,0,0-.5,2.333v.293a4.219,4.219,0,0,0,.5,2.347A1.721,1.721,0,0,0,107.186,18.92ZM119.344,21a3.134,3.134,0,0,1-.283-.947,3.415,3.415,0,0,1-2.666,1.143,3.752,3.752,0,0,1-2.573-.9,2.89,2.89,0,0,1-1.021-2.266,2.986,2.986,0,0,1,1.245-2.578,6.144,6.144,0,0,1,3.6-.908h1.3v-.605a1.741,1.741,0,0,0-.376-1.172,1.479,1.479,0,0,0-1.187-.439,1.682,1.682,0,0,0-1.118.342,1.161,1.161,0,0,0-.405.938h-2.822a2.835,2.835,0,0,1,.566-1.7,3.744,3.744,0,0,1,1.6-1.226,5.837,5.837,0,0,1,2.324-.444,4.611,4.611,0,0,1,3.1.981,3.433,3.433,0,0,1,1.147,2.759v4.58a5.052,5.052,0,0,0,.42,2.275V21Zm-2.334-1.963a2.431,2.431,0,0,0,1.152-.278,1.828,1.828,0,0,0,.781-.747V16.2h-1.055q-2.119,0-2.256,1.465l-.01.166a1.13,1.13,0,0,0,.371.869A1.441,1.441,0,0,0,117.01,19.037Zm10.313-11.2v2.6h1.807V12.5h-1.807v5.273a1.259,1.259,0,0,0,.225.84,1.128,1.128,0,0,0,.859.254,4.5,4.5,0,0,0,.83-.068v2.139a5.81,5.81,0,0,1-1.709.254q-2.969,0-3.027-3V12.5h-1.543v-2.07H124.5v-2.6ZM133.68,21h-2.832V10.434h2.832Zm-3-13.3a1.39,1.39,0,0,1,.425-1.045,1.831,1.831,0,0,1,2.31,0,1.382,1.382,0,0,1,.43,1.045,1.386,1.386,0,0,1-.435,1.055,1.81,1.81,0,0,1-2.295,0A1.386,1.386,0,0,1,130.682,7.7Zm9.277,9.854,1.963-7.119h2.949L141.307,21h-2.7l-3.564-10.566H138Zm5.566-1.934a6.267,6.267,0,0,1,.605-2.8,4.432,4.432,0,0,1,1.743-1.9,5.086,5.086,0,0,1,2.642-.674,4.812,4.812,0,0,1,3.491,1.309,5.252,5.252,0,0,1,1.509,3.555l.02.723a5.523,5.523,0,0,1-1.357,3.9,5.261,5.261,0,0,1-7.29,0,5.62,5.62,0,0,1-1.362-3.984Zm2.822.2a3.95,3.95,0,0,0,.566,2.3,2.035,2.035,0,0,0,3.223.01,4.322,4.322,0,0,0,.576-2.518,3.91,3.91,0,0,0-.576-2.289,1.873,1.873,0,0,0-1.621-.812,1.842,1.842,0,0,0-1.6.807A4.395,4.395,0,0,0,148.348,15.819Z" transform="translate(399.715 4480.5)" fill="#12263f"/>
    <g id="birrete" transform="translate(424.047 4257.557)">
      <g id="Grupo_55833" data-name="Grupo 55833" transform="translate(1.776 78.356)">
        <path id="Trazado_102739" data-name="Trazado 102739" d="M113.066,251.889l1.148,2.37s18.2,14.776,33.784,14.776,33.866-14.776,33.866-14.776l1.064-2.37h0a167.573,167.573,0,0,1-5.4-19.987l-3.33-1.873H121.313L118.47,231.9a167.565,167.565,0,0,1-5.405,19.988Z" transform="translate(-87.162 -194.286)" fill="#ea3584"/>
        <path id="Trazado_102741" data-name="Trazado 102741" d="M127.753,103.664,71.131,84.528a9.5,9.5,0,0,0-6.081,0L8.429,103.664a1.726,1.726,0,0,0-.2,3.187l55.7,27.158a9.5,9.5,0,0,0,8.323,0l55.7-27.158a1.726,1.726,0,0,0-.2-3.187Z" transform="translate(-7.255 -84.028)" fill="#a2a7c5"/>
        <path id="Trazado_102743" data-name="Trazado 102743" d="M439.142,369.863h-6.429l-.764,11.89a1.688,1.688,0,0,0,1.656,1.82h4.645a1.688,1.688,0,0,0,1.656-1.82Z" transform="translate(-327.977 -299.888)" fill="#ffe0f0"/>
        <path id="Trazado_102745" data-name="Trazado 102745" d="M436.795,334.957h-2.976a2.7,2.7,0,0,0-2.7,2.7V343a.881.881,0,0,0,.881.881h6.6a.881.881,0,0,0,.881-.881v-5.351A2.7,2.7,0,0,0,436.795,334.957Z" transform="translate(-327.355 -273.527)" fill="#ffe0f0"/>
        <path id="Trazado_102747" data-name="Trazado 102747" d="M237.374,134.126a6.082,6.082,0,0,0-6.46,6.07v.031a2.868,2.868,0,0,0,2.888,2.816h6.388a2.871,2.871,0,0,0,2.88-3.145A6.112,6.112,0,0,0,237.374,134.126Z" transform="translate(-176.16 -121.853)" fill="#3f6d8e"/>
        <path id="Trazado_102748" data-name="Trazado 102748" d="M236.423,140.226V140.2a6.08,6.08,0,0,1,3.316-5.416,5.971,5.971,0,0,0-2.364-.654,6.082,6.082,0,0,0-6.46,6.07v.031a2.868,2.868,0,0,0,2.888,2.816h5.508a2.868,2.868,0,0,1-2.888-2.816Z" transform="translate(-176.161 -121.853)" fill="#365e7d"/>
        <path id="Trazado_102749" data-name="Trazado 102749" d="M176.821,319.322c-6.381,5.245-16.758,11.115-27.968,14.728a22.825,22.825,0,0,1-13.925,0c-11.185-3.6-21.558-9.461-27.968-14.728-.614,1.833-1.178,3.427-1.648,4.714a5.442,5.442,0,0,0,1.738,6.148,91.1,91.1,0,0,0,27.878,14.651,22.833,22.833,0,0,0,13.925,0,91.105,91.105,0,0,0,27.878-14.651,5.442,5.442,0,0,0,1.738-6.148C178,322.749,177.434,321.155,176.821,319.322Z" transform="translate(-81.055 -261.72)" fill="#ffe0f0"/>
        <path id="Trazado_102750" data-name="Trazado 102750" d="M115.665,325.34a71.066,71.066,0,0,1-8.706-6.017c-.613,1.833-1.178,3.427-1.648,4.714a5.442,5.442,0,0,0,1.738,6.148c1.933,1.519,3.886,2.908,5.829,4.177.906-2.806,1.845-5.829,2.787-9.022Z" transform="translate(-81.054 -261.72)" fill="#ffd064"/>
      </g>
      <g id="Grupo_55834" data-name="Grupo 55834" transform="translate(0 76.517)">
        <path id="Trazado_102751" data-name="Trazado 102751" d="M122.918,96.246,96.46,87.3a1.836,1.836,0,1,0-1.176,3.479l26.205,8.857-12.335,6.014a5.573,5.573,0,0,0-1.71-.773l-37-9.67a7.917,7.917,0,0,0-15.693,1.482v.04a4.706,4.706,0,0,0,4.724,4.643h6.388a4.676,4.676,0,0,0,4.155-2.481l34.5,9.018-38.5,18.769a7.622,7.622,0,0,1-6.713,0L3.847,99.64,60.216,80.589a7.7,7.7,0,0,1,4.9,0l22.008,7.438A1.836,1.836,0,1,0,88.3,84.548L66.3,77.11a11.4,11.4,0,0,0-7.256,0L2.418,96.246A3.565,3.565,0,0,0,2,102.824l29.059,14.167a173.688,173.688,0,0,1-6.692,23.045,7.26,7.26,0,0,0,2.328,8.222,92.278,92.278,0,0,0,28.45,14.956,24.676,24.676,0,0,0,15.051,0,92.3,92.3,0,0,0,28.45-14.956,7.258,7.258,0,0,0,2.328-8.222,173.768,173.768,0,0,1-6.692-23.044l13.669-6.664v27.634a4.535,4.535,0,0,0-4.184,4.514v5.351a2.708,2.708,0,0,0,.891,2.006l-.682,10.312a3.5,3.5,0,0,0,3.488,3.727h4.645a3.5,3.5,0,0,0,3.488-3.727l-.682-10.312a2.708,2.708,0,0,0,.891-2.006v-5.351a4.535,4.535,0,0,0-4.184-4.514V110.288a5.567,5.567,0,0,0-.247-1.63l11.966-5.834a3.565,3.565,0,0,0-.421-6.578ZM65.862,97.7H59.474a1.038,1.038,0,0,1-1.051-.98v-.031A4.206,4.206,0,0,1,59.759,93.6a4.251,4.251,0,0,1,7.149,2.882A1.043,1.043,0,0,1,65.862,97.7Zm29.592,37.613c-9.92,7.764-24,13.318-28.848,14.242a1.836,1.836,0,1,0,.688,3.607c5.072-.967,18.969-6.368,29.4-14.175.257.732.554,1.565.825,2.306a3.6,3.6,0,0,1-1.148,4.074,88.907,88.907,0,0,1-27.307,14.347,21.009,21.009,0,0,1-12.8,0A88.912,88.912,0,0,1,28.961,145.37a3.6,3.6,0,0,1-1.148-4.074l.032-.089c.267-.731.563-1.561.792-2.218,10.186,7.62,24.045,13.155,29.4,14.177a1.836,1.836,0,1,0,.688-3.607c-4.578-.873-18.7-6.309-28.846-14.243a172.551,172.551,0,0,0,4.577-16.667L57.7,129.982a11.262,11.262,0,0,0,9.932,0L90.877,118.65A172.489,172.489,0,0,0,95.454,135.316ZM107.649,160.2l.639-9.655h2.991l.638,9.655Zm4.482-17.724v4.4h-4.7v-4.4a.871.871,0,0,1,.86-.86h2.976A.871.871,0,0,1,112.131,142.475Z" transform="translate(0 -76.517)"/>
      </g>
    </g>
  </g>
</svg>
