<svg xmlns="http://www.w3.org/2000/svg" xmlns:xlink="http://www.w3.org/1999/xlink" width="190" height="156" viewBox="0 0 190 156">
  <defs>
    <clipPath id="clip-path">
      <rect id="Rect치ngulo_293523" data-name="Rect치ngulo 293523" width="190" height="156" transform="translate(0 -0.249)" fill="none"/>
    </clipPath>
  </defs>
  <g id="Grupo_874301" data-name="Grupo 874301" transform="translate(0 0.249)">
    <g id="Grupo_874298" data-name="Grupo 874298" transform="translate(0 0)">
      <g id="Grupo_874297" data-name="Grupo 874297" clip-path="url(#clip-path)">
        <path id="Trazado_596270" data-name="Trazado 596270" d="M207.594,373.3h-6.445a2.148,2.148,0,0,1,0-4.3h6.445a2.148,2.148,0,0,1,0,4.3" transform="translate(-151.494 -280.916)" fill="#4a91d6"/>
        <path id="Trazado_596271" data-name="Trazado 596271" d="M207.594,403.3h-6.445a2.148,2.148,0,0,1,0-4.3h6.445a2.148,2.148,0,1,1,0,4.3" transform="translate(-151.494 -303.754)" fill="#4a91d6"/>
        <path id="Trazado_596272" data-name="Trazado 596272" d="M270.968,491.87h-4.536a1.432,1.432,0,1,1,0-2.865h4.536a1.432,1.432,0,0,1,0,2.865" transform="translate(-201.739 -372.269)" fill="#5ed45e"/>
        <path id="Trazado_596273" data-name="Trazado 596273" d="M315.968,491.87h-4.536a1.432,1.432,0,1,1,0-2.865h4.536a1.432,1.432,0,1,1,0,2.865" transform="translate(-235.996 -372.269)" fill="#5ed45e"/>
        <path id="Trazado_596274" data-name="Trazado 596274" d="M278.368,515.87H266.432a1.432,1.432,0,1,1,0-2.865h11.936a1.432,1.432,0,1,1,0,2.865" transform="translate(-201.739 -390.54)" fill="#5ed45e"/>
        <path id="Trazado_596275" data-name="Trazado 596275" d="M346.968,515.87h-4.536a1.432,1.432,0,0,1,0-2.865h4.536a1.432,1.432,0,1,1,0,2.865" transform="translate(-259.596 -390.54)" fill="#5ed45e"/>
        <path id="Trazado_596276" data-name="Trazado 596276" d="M297.944,539.87H266.432a1.432,1.432,0,1,1,0-2.865h31.511a1.432,1.432,0,0,1,0,2.865" transform="translate(-201.739 -408.81)" fill="#5ed45e"/>
        <path id="Trazado_596277" data-name="Trazado 596277" d="M428.968,539.87h-4.536a1.432,1.432,0,0,1,0-2.865h4.536a1.432,1.432,0,1,1,0,2.865" transform="translate(-322.021 -408.81)" fill="#5ed45e"/>
        <path id="Trazado_596278" data-name="Trazado 596278" d="M224.2,563.87H203.432a1.432,1.432,0,1,1,0-2.865H224.2a1.432,1.432,0,0,1,0,2.865" transform="translate(-153.778 -427.081)" fill="#5ed45e"/>
        <path id="Trazado_596279" data-name="Trazado 596279" d="M322.468,563.87h-4.536a1.432,1.432,0,0,1,0-2.865h4.536a1.432,1.432,0,1,1,0,2.865" transform="translate(-240.945 -427.081)" fill="#5ed45e"/>
        <path id="Trazado_596280" data-name="Trazado 596280" d="M384.007,563.87H364.432a1.432,1.432,0,0,1,0-2.865h19.575a1.432,1.432,0,1,1,0,2.865" transform="translate(-276.344 -427.081)" fill="#5ed45e"/>
        <rect id="Rect치ngulo_293522" data-name="Rect치ngulo 293522" width="12" height="11" transform="translate(48 117.751)" fill="#ea3584"/>
        <path id="Trazado_596281" data-name="Trazado 596281" d="M528.107,495.005h-24v5.729l-3.1,5.252,3.939,3.939v8.309l23.037-.074Z" transform="translate(-381.4 -376.837)" fill="#ffe0f0"/>
        <path id="Trazado_596282" data-name="Trazado 596282" d="M363.511,387.761a15.756,15.756,0,1,1-15.756-15.756,15.756,15.756,0,0,1,15.756,15.756" transform="translate(-252.744 -283.199)" fill="#6826cc"/>
        <path id="Trazado_596283" data-name="Trazado 596283" d="M607.421,285.536V262.38L574,267.99v11.936Z" transform="translate(-436.974 -199.744)" fill="#ffce1d"/>
        <path id="Trazado_596284" data-name="Trazado 596284" d="M359.175,387.005a12.165,12.165,0,1,1-5.067,1.1Z" transform="translate(-264.164 -294.619)" fill="#e1e1e5"/>
        <path id="Trazado_596285" data-name="Trazado 596285" d="M360.311,432.617q-.306,0-.8-.014l-.8-.018-1.063-.014c-.107,0-.259,0-.459-.014q-.1-.018-.1-.11,0-.387.012-1.161t.012-1.161q0-.413-.025-1.236t-.025-1.236q0-.078.107-.078t.319.011c.141.007.246.011.315.011s.194,0,.348-.012.27-.012.349-.012c.035,0,.052.022.05.068l0,.046q-.043.668-.1,2.009l0,.939q0,.455,0,.665c0,.028,0,.057.007.085a.059.059,0,0,0,.053.053h.092q.32,0,.958-.034t.959-.034q.1,0,.1.082a5.383,5.383,0,0,1-.089,1.049c-.012.062-.037.1-.075.11a.734.734,0,0,1-.146.007" transform="translate(-271.828 -325.501)" fill="#fff"/>
        <path id="Trazado_596286" data-name="Trazado 596286" d="M378.165,429.636a2.606,2.606,0,0,1-.708,1.86,2.563,2.563,0,0,1-3.652-.007,2.778,2.778,0,0,1,0-3.712,2.537,2.537,0,0,1,3.645,0,2.615,2.615,0,0,1,.715,1.86m-1.348-.007a1.337,1.337,0,0,0-.323-.907,1.121,1.121,0,0,0-1.714.014,1.41,1.41,0,0,0-.021,1.806,1.146,1.146,0,0,0,1.725-.021,1.319,1.319,0,0,0,.334-.893" transform="translate(-284.029 -325.07)" fill="#fff"/>
        <path id="Trazado_596287" data-name="Trazado 596287" d="M400.815,432.056q.007.1-.1.1a2.642,2.642,0,0,1-.389-.078q-.322-.078-.4-.107a3.9,3.9,0,0,1-1.426.291,2.392,2.392,0,0,1-1.8-.732,2.52,2.52,0,0,1-.7-1.824,2.674,2.674,0,0,1,.676-1.87,2.331,2.331,0,0,1,1.81-.768,2.533,2.533,0,0,1,1.017.206,1.929,1.929,0,0,1,.811.64.275.275,0,0,1,.06.121,1.345,1.345,0,0,1-.318.51q-.318.4-.411.4a.694.694,0,0,1-.164-.146,1.505,1.505,0,0,0-.355-.27,1.239,1.239,0,0,0-.6-.146,1.02,1.02,0,0,0-.846.4,1.421,1.421,0,0,0-.291.914,1.325,1.325,0,0,0,.3.917,1.129,1.129,0,0,0,.885.349,2.189,2.189,0,0,0,.811-.181q-.011-.117-.064-.6a5.051,5.051,0,0,1-.046-.6c0-.045.016-.072.046-.082a.164.164,0,0,1,.057-.007q.1,0,.311.02t.315.02q.114,0,.341-.016t.341-.016c.059,0,.089.039.089.117q0,.171-.02.516t-.02.516q0,.459.068,1.372Z" transform="translate(-301.469 -325.115)" fill="#fff"/>
        <path id="Trazado_596288" data-name="Trazado 596288" d="M422.761,429.636a2.606,2.606,0,0,1-.708,1.86,2.563,2.563,0,0,1-3.652-.007,2.778,2.778,0,0,1,0-3.712,2.537,2.537,0,0,1,3.645,0,2.615,2.615,0,0,1,.715,1.86m-1.348-.007a1.337,1.337,0,0,0-.323-.907,1.121,1.121,0,0,0-1.714.014,1.41,1.41,0,0,0-.021,1.806,1.146,1.146,0,0,0,1.725-.021,1.319,1.319,0,0,0,.334-.893" transform="translate(-317.979 -325.07)" fill="#fff"/>
      </g>
    </g>
    <g id="Grupo_874300" data-name="Grupo 874300" transform="translate(0 0)">
      <g id="Grupo_874299" data-name="Grupo 874299" clip-path="url(#clip-path)">
        <path id="Trazado_596289" data-name="Trazado 596289" d="M198.731,649.437H29.716a.716.716,0,1,1,0-1.432H198.731a.716.716,0,1,1,0,1.432" transform="translate(-22.077 -493.312)" fill="#1e243a"/>
        <path id="Trazado_596290" data-name="Trazado 596290" d="M770.252,649.437h-4.536a.716.716,0,1,1,0-1.432h4.536a.716.716,0,1,1,0,1.432" transform="translate(-582.378 -493.312)" fill="#1e243a"/>
        <path id="Trazado_596291" data-name="Trazado 596291" d="M726.246,634.437h-20.53a.716.716,0,0,1,0-1.432h20.53a.716.716,0,0,1,0,1.432" transform="translate(-536.701 -481.893)" fill="#1e243a"/>
        <path id="Trazado_596292" data-name="Trazado 596292" d="M21.246,634.437H.716a.716.716,0,0,1,0-1.432h20.53a.716.716,0,0,1,0,1.432" transform="translate(0 -481.893)" fill="#1e243a"/>
        <path id="Trazado_596293" data-name="Trazado 596293" d="M748.653,138.949a.716.716,0,0,1-.716-.716v-6.426a.716.716,0,1,1,1.432,0v6.426a.716.716,0,0,1-.716.716" transform="translate(-569.388 -99.796)" fill="#1e243a"/>
        <path id="Trazado_596294" data-name="Trazado 596294" d="M741.9,146.263h-6.427a.716.716,0,0,1,0-1.432H741.9a.716.716,0,1,1,0,1.432" transform="translate(-559.355 -110.257)" fill="#1e243a"/>
        <path id="Trazado_596295" data-name="Trazado 596295" d="M420.653,234.949a.716.716,0,0,1-.716-.716v-6.426a.716.716,0,0,1,1.432,0v6.426a.716.716,0,0,1-.716.716" transform="translate(-319.689 -172.879)" fill="#1e243a"/>
        <path id="Trazado_596296" data-name="Trazado 596296" d="M413.9,242.263h-6.427a.716.716,0,1,1,0-1.432H413.9a.716.716,0,0,1,0,1.432" transform="translate(-309.655 -183.339)" fill="#1e243a"/>
        <path id="Trazado_596297" data-name="Trazado 596297" d="M86.653,234.949a.716.716,0,0,1-.716-.716v-6.426a.716.716,0,0,1,1.432,0v6.426a.716.716,0,0,1-.716.716" transform="translate(-65.422 -172.879)" fill="#1e243a"/>
        <path id="Trazado_596298" data-name="Trazado 596298" d="M79.9,242.263H73.473a.716.716,0,0,1,0-1.432H79.9a.716.716,0,0,1,0,1.432" transform="translate(-55.388 -183.339)" fill="#1e243a"/>
        <path id="Trazado_596299" data-name="Trazado 596299" d="M718.418,525.258a1.418,1.418,0,1,1,1.735,1,1.511,1.511,0,0,1-.368.048,1.418,1.418,0,0,1-1.368-1.05m-5.87-1.029a1.415,1.415,0,1,1,1,.415,1.415,1.415,0,0,1-1-.415m11.435-2.538a1.419,1.419,0,1,1,.365.048,1.386,1.386,0,0,1-.365-.048m-12.48-3.328a1.418,1.418,0,1,1,.365.048,1.382,1.382,0,0,1-.365-.048m10.17-3.275s0,0,0,0,0,0,0,0a1.417,1.417,0,1,1,2-2.01s.007.007.012.01a.005.005,0,0,0,0,0,1.418,1.418,0,1,1-2.005,2.005m-6.62-2.3a1.423,1.423,0,1,1,1.368,1.048,1.417,1.417,0,0,1-1.368-1.048" transform="translate(-540.849 -389.013)" fill="#1e243a"/>
        <path id="Trazado_596300" data-name="Trazado 596300" d="M509.418,14.258a1.418,1.418,0,1,1,1.736,1,1.509,1.509,0,0,1-.368.048,1.418,1.418,0,0,1-1.368-1.05m-5.87-1.029a1.415,1.415,0,1,1,1,.415,1.415,1.415,0,0,1-1-.415m11.435-2.538a1.419,1.419,0,1,1,.365.048,1.383,1.383,0,0,1-.365-.048M502.5,7.363a1.413,1.413,0,1,1,.363.048,1.354,1.354,0,0,1-.363-.048M512.682,4.1l-.019-.019a1.417,1.417,0,1,1,2-2.01s.007.007.012.01,0,0,0,.007a1.417,1.417,0,0,1-2,2.012m-6.629-2.311a1.423,1.423,0,1,1,1.368,1.048,1.417,1.417,0,0,1-1.368-1.048" transform="translate(-381.741 0)" fill="#1e243a"/>
        <path id="Trazado_596301" data-name="Trazado 596301" d="M184.418,24.258a1.418,1.418,0,1,1,1.735,1,1.509,1.509,0,0,1-.368.048,1.418,1.418,0,0,1-1.368-1.05m-5.87-1.029a1.415,1.415,0,1,1,1,.415,1.415,1.415,0,0,1-1-.415m11.435-2.538a1.419,1.419,0,1,1,.365.048,1.384,1.384,0,0,1-.365-.048M177.5,17.363a1.413,1.413,0,1,1,.363.048,1.341,1.341,0,0,1-.363-.048M187.682,14.1a.136.136,0,0,1-.019-.017,1.417,1.417,0,1,1,2-2.01s.007.007.012.01,0,0,0,0a1.417,1.417,0,0,1-2,2.012m-6.629-2.308a1.423,1.423,0,1,1,1.368,1.048,1.417,1.417,0,0,1-1.368-1.048" transform="translate(-134.326 -7.613)" fill="#1e243a"/>
        <path id="Trazado_596302" data-name="Trazado 596302" d="M35.418,483.258a1.418,1.418,0,1,1,1.736,1,1.509,1.509,0,0,1-.368.048,1.418,1.418,0,0,1-1.368-1.05m-5.87-1.029a1.415,1.415,0,1,1,1,.415,1.415,1.415,0,0,1-1-.415m11.435-2.538a1.419,1.419,0,1,1,.365.048,1.385,1.385,0,0,1-.365-.048M28.5,476.363a1.417,1.417,0,1,1,1.733-1.007h0a1.42,1.42,0,0,1-1.37,1.055,1.371,1.371,0,0,1-.365-.048m10.17-3.275h0l-.01-.01a1.418,1.418,0,0,1,1.993-2.017l.021.021a1.418,1.418,0,1,1-2.005,2.005m-6.62-2.3a1.423,1.423,0,1,1,1.368,1.048,1.417,1.417,0,0,1-1.368-1.048" transform="translate(-20.895 -357.04)" fill="#1e243a"/>
        <path id="Trazado_596303" data-name="Trazado 596303" d="M240.073,625.22H112.718a5.84,5.84,0,0,1-5.833-5.833v-2.46a.716.716,0,0,1,.716-.716H245.19a.716.716,0,0,1,.716.716v2.46a5.84,5.84,0,0,1-5.833,5.833m-131.756-7.577v1.744a4.406,4.406,0,0,0,4.4,4.4H240.073a4.406,4.406,0,0,0,4.4-4.4v-1.744Z" transform="translate(-81.369 -469.108)" fill="#1e243a"/>
        <path id="Trazado_596304" data-name="Trazado 596304" d="M374.033,621.965H354.5a.716.716,0,0,1-.716-.716v-3.612a.716.716,0,1,1,1.432,0v2.9h18.1v-2.9a.716.716,0,1,1,1.432,0v3.612a.716.716,0,0,1-.716.716" transform="translate(-269.33 -469.649)" fill="#1e243a"/>
        <path id="Trazado_596305" data-name="Trazado 596305" d="M644.771,476.511a.716.716,0,0,1-.716-.716V432.721a.716.716,0,1,1,1.432,0v43.073a.716.716,0,0,1-.716.716" transform="translate(-490.305 -328.876)" fill="#1e243a"/>
        <path id="Trazado_596306" data-name="Trazado 596306" d="M146.046,388.737a.716.716,0,0,1-.716-.716V322.1a6.275,6.275,0,0,1,6.426-6.1h88.219a.716.716,0,1,1,0,1.432H151.756a4.843,4.843,0,0,0-4.994,4.665v65.919a.716.716,0,0,1-.716.716" transform="translate(-110.637 -240.568)" fill="#1e243a"/>
        <path id="Trazado_596307" data-name="Trazado 596307" d="M179.668,407.471a.716.716,0,0,1-.716-.716V349.222a.716.716,0,0,1,.716-.716h87.264a.716.716,0,0,1,0,1.432H180.384v56.1l101.839-.059V367.484a.716.716,0,1,1,1.432,0v39.21a.716.716,0,0,1-.716.716l-103.271.06Z" transform="translate(-136.232 -265.31)" fill="#1e243a"/>
        <path id="Trazado_596308" data-name="Trazado 596308" d="M573.147,256.8a28.647,28.647,0,1,1,28.646-28.647A28.679,28.679,0,0,1,573.147,256.8m0-55.861a27.214,27.214,0,1,0,27.214,27.214,27.245,27.245,0,0,0-27.214-27.214" transform="translate(-414.516 -151.879)" fill="#1e243a"/>
        <path id="Trazado_596309" data-name="Trazado 596309" d="M605.137,283.968a.714.714,0,0,1-.119-.01l-33.421-5.61a.716.716,0,0,1-.6-.706V265.706a.716.716,0,0,1,.6-.706l33.421-5.61a.716.716,0,0,1,.835.706v23.156a.716.716,0,0,1-.716.716m-32.7-6.932,31.989,5.37V260.942l-31.989,5.37Z" transform="translate(-434.69 -197.46)" fill="#1e243a"/>
        <path id="Trazado_596310" data-name="Trazado 596310" d="M609.256,350.054h-4.684a5.944,5.944,0,0,1-5.937-5.938V341.5a.716.716,0,1,1,1.432,0v2.62a4.51,4.51,0,0,0,4.505,4.505h4.684a4.51,4.51,0,0,0,4.505-4.505.716.716,0,1,1,1.432,0,5.944,5.944,0,0,1-5.938,5.938" transform="translate(-455.728 -259.428)" fill="#1e243a"/>
        <path id="Trazado_596311" data-name="Trazado 596311" d="M693.716,287.269a.716.716,0,0,1-.716-.716V265.346a.716.716,0,1,1,1.432,0v21.207a.716.716,0,0,1-.716.716" transform="translate(-527.566 -201.457)" fill="#1e243a"/>
        <path id="Trazado_596312" data-name="Trazado 596312" d="M728.716,298.077a.716.716,0,0,1-.588-1.124c2.452-3.546,2.468-6.616.05-9.387a.716.716,0,1,1,1.079-.942c2.871,3.289,2.888,7.038.05,11.144a.715.715,0,0,1-.59.309" transform="translate(-554.211 -218.015)" fill="#1e243a"/>
        <path id="Trazado_596313" data-name="Trazado 596313" d="M740.716,293.065a.716.716,0,0,1-.588-1.124c3.641-5.266,3.657-9.835.05-13.967a.716.716,0,1,1,1.079-.942c4.044,4.632,4.06,9.922.05,15.723a.715.715,0,0,1-.59.309" transform="translate(-563.347 -210.712)" fill="#1e243a"/>
        <path id="Trazado_596314" data-name="Trazado 596314" d="M345.472,401.949a16.472,16.472,0,1,1,16.472-16.472,16.49,16.49,0,0,1-16.472,16.472m0-31.511a15.039,15.039,0,1,0,15.039,15.039,15.057,15.057,0,0,0-15.039-15.039" transform="translate(-250.461 -280.916)" fill="#1e243a"/>
        <path id="Trazado_596315" data-name="Trazado 596315" d="M356.891,409.787a12.893,12.893,0,0,1-5.365-24.616.716.716,0,1,1,.6,1.3,11.465,11.465,0,1,0,4.768-1.036.716.716,0,0,1,0-1.432,12.891,12.891,0,1,1,0,25.782" transform="translate(-261.88 -292.335)" fill="#1e243a"/>
        <path id="Trazado_596316" data-name="Trazado 596316" d="M488.791,416.284a.718.718,0,0,1-.357-.1l-13.249-7.608a.719.719,0,0,1-.252-.243l-3-4.835a.716.716,0,0,1-.013-.735l3.269-5.693a.716.716,0,0,1,.617-.36l5.8-.03a.74.74,0,0,1,.36.1l13.249,7.609a.716.716,0,0,1,.264.978l-6.063,10.558a.716.716,0,0,1-.621.359m-12.736-8.856,12.471,7.162,5.349-9.316-12.461-7.156-5.193.026-2.851,4.964Z" transform="translate(-359.188 -301.988)" fill="#1e243a"/>
        <path id="Trazado_596317" data-name="Trazado 596317" d="M513.613,428.447a3.114,3.114,0,1,1,.815-.109,3.085,3.085,0,0,1-.815.109m.008-4.777a1.685,1.685,0,0,0-.439.059,1.66,1.66,0,1,0,.439-.059" transform="translate(-388.643 -321.441)" fill="#1e243a"/>
        <path id="Trazado_596318" data-name="Trazado 596318" d="M457.459,402.132a.715.715,0,0,1-.584-.3c-1.764-2.481-3.5-3.781-5.171-3.867-1.433-.074-2.934.765-4.449,2.492a.716.716,0,1,1-1.076-.945c1.818-2.072,3.7-3.075,5.6-2.977,2.127.109,4.235,1.612,6.265,4.467a.716.716,0,0,1-.583,1.131" transform="translate(-339.53 -301.868)" fill="#1e243a"/>
        <path id="Trazado_596319" data-name="Trazado 596319" d="M467.209,431.437h-3.492a.716.716,0,0,1,0-1.432h3.492a.716.716,0,1,1,0,1.432" transform="translate(-352.472 -327.354)" fill="#1e243a"/>
        <path id="Trazado_596320" data-name="Trazado 596320" d="M205.31,371.734h-6.445a2.865,2.865,0,1,1,0-5.729h6.445a2.865,2.865,0,1,1,0,5.729m-6.445-4.3a1.432,1.432,0,0,0,0,2.865h6.445a1.432,1.432,0,0,0,0-2.865Z" transform="translate(-149.211 -278.632)" fill="#1e243a"/>
        <path id="Trazado_596321" data-name="Trazado 596321" d="M205.31,401.734h-6.445a2.865,2.865,0,0,1,0-5.729h6.445a2.865,2.865,0,0,1,0,5.729m-6.445-4.3a1.432,1.432,0,1,0,0,2.865h6.445a1.432,1.432,0,0,0,0-2.865Z" transform="translate(-149.211 -301.47)" fill="#1e243a"/>
        <path id="Trazado_596322" data-name="Trazado 596322" d="M211.175,501.9H199.716a.716.716,0,0,1-.716-.716V489.721a.716.716,0,0,1,.716-.716h11.459a.716.716,0,0,1,.716.716V501.18a.716.716,0,0,1-.716.716m-10.742-1.432h10.026V490.437H200.432Z" transform="translate(-151.494 -372.269)" fill="#1e243a"/>
        <path id="Trazado_596323" data-name="Trazado 596323" d="M268.684,490.3h-4.536a2.148,2.148,0,1,1,0-4.3h4.536a2.148,2.148,0,0,1,0,4.3m-4.536-2.865a.716.716,0,0,0,0,1.432h4.536a.716.716,0,0,0,0-1.432Z" transform="translate(-199.455 -369.985)" fill="#1e243a"/>
        <path id="Trazado_596324" data-name="Trazado 596324" d="M313.684,490.3h-4.536a2.148,2.148,0,1,1,0-4.3h4.536a2.148,2.148,0,1,1,0,4.3m-4.536-2.865a.716.716,0,1,0,0,1.432h4.536a.716.716,0,1,0,0-1.432Z" transform="translate(-233.713 -369.985)" fill="#1e243a"/>
        <path id="Trazado_596325" data-name="Trazado 596325" d="M276.085,514.3H264.148a2.148,2.148,0,1,1,0-4.3h11.936a2.148,2.148,0,0,1,0,4.3m-11.936-2.865a.716.716,0,1,0,0,1.432h11.936a.716.716,0,1,0,0-1.432Z" transform="translate(-199.455 -388.256)" fill="#1e243a"/>
        <path id="Trazado_596326" data-name="Trazado 596326" d="M344.684,514.3h-4.536a2.148,2.148,0,1,1,0-4.3h4.536a2.148,2.148,0,1,1,0,4.3m-4.536-2.865a.716.716,0,1,0,0,1.432h4.536a.716.716,0,1,0,0-1.432Z" transform="translate(-257.312 -388.256)" fill="#1e243a"/>
        <path id="Trazado_596327" data-name="Trazado 596327" d="M295.66,538.3H264.148a2.148,2.148,0,1,1,0-4.3H295.66a2.148,2.148,0,1,1,0,4.3m-31.511-2.865a.716.716,0,0,0,0,1.432H295.66a.716.716,0,1,0,0-1.432Z" transform="translate(-199.455 -406.527)" fill="#1e243a"/>
        <path id="Trazado_596328" data-name="Trazado 596328" d="M426.684,538.3h-4.536a2.148,2.148,0,0,1,0-4.3h4.536a2.148,2.148,0,1,1,0,4.3m-4.536-2.865a.716.716,0,0,0,0,1.432h4.536a.716.716,0,0,0,0-1.432Z" transform="translate(-319.737 -406.527)" fill="#1e243a"/>
        <path id="Trazado_596329" data-name="Trazado 596329" d="M221.917,562.3H201.148a2.148,2.148,0,0,1,0-4.3h20.769a2.148,2.148,0,0,1,0,4.3m-20.769-2.865a.716.716,0,0,0,0,1.432h20.769a.716.716,0,0,0,0-1.432Z" transform="translate(-151.494 -424.797)" fill="#1e243a"/>
        <path id="Trazado_596330" data-name="Trazado 596330" d="M320.184,562.3h-4.536a2.148,2.148,0,0,1,0-4.3h4.536a2.148,2.148,0,0,1,0,4.3m-4.536-2.865a.716.716,0,0,0,0,1.432h4.536a.716.716,0,0,0,0-1.432Z" transform="translate(-238.661 -424.797)" fill="#1e243a"/>
        <path id="Trazado_596331" data-name="Trazado 596331" d="M381.724,562.3H362.148a2.148,2.148,0,1,1,0-4.3h19.575a2.148,2.148,0,0,1,0,4.3m-19.575-2.865a.716.716,0,1,0,0,1.432h19.575a.716.716,0,0,0,0-1.432Z" transform="translate(-274.06 -424.797)" fill="#1e243a"/>
        <path id="Trazado_596332" data-name="Trazado 596332" d="M502.655,516.667a.716.716,0,0,1-.716-.716v-8.013l-3.729-3.729a.717.717,0,0,1-.11-.871l3-5.083v-5.534a.716.716,0,0,1,.716-.716h24a.716.716,0,1,1,0,1.432H502.536v5.013a.716.716,0,0,1-.1.364l-2.821,4.774,3.546,3.546a.715.715,0,0,1,.21.506v8.309a.716.716,0,0,1-.716.716" transform="translate(-379.117 -374.553)" fill="#1e243a"/>
        <path id="Trazado_596333" data-name="Trazado 596333" d="M534.342,518.437h-2.626a.716.716,0,0,1,0-1.432h2.626a.716.716,0,1,1,0,1.432" transform="translate(-404.239 -393.585)" fill="#1e243a"/>
        <path id="Trazado_596334" data-name="Trazado 596334" d="M573.833,518.437h-8.117a.716.716,0,1,1,0-1.432h8.117a.716.716,0,1,1,0,1.432" transform="translate(-430.122 -393.585)" fill="#1e243a"/>
        <path id="Trazado_596335" data-name="Trazado 596335" d="M534.342,542.437h-2.626a.716.716,0,0,1,0-1.432h2.626a.716.716,0,1,1,0,1.432" transform="translate(-404.239 -411.856)" fill="#1e243a"/>
        <path id="Trazado_596336" data-name="Trazado 596336" d="M573.833,542.437h-8.117a.716.716,0,1,1,0-1.432h8.117a.716.716,0,1,1,0,1.432" transform="translate(-430.122 -411.856)" fill="#1e243a"/>
        <path id="Trazado_596337" data-name="Trazado 596337" d="M534.342,566.437h-2.626a.716.716,0,0,1,0-1.432h2.626a.716.716,0,1,1,0,1.432" transform="translate(-404.239 -430.126)" fill="#1e243a"/>
        <path id="Trazado_596338" data-name="Trazado 596338" d="M573.833,566.437h-8.117a.716.716,0,1,1,0-1.432h8.117a.716.716,0,1,1,0,1.432" transform="translate(-430.122 -430.126)" fill="#1e243a"/>
        <path id="Trazado_596339" data-name="Trazado 596339" d="M595.91,530.437h-1.194a.716.716,0,1,1,0-1.432h1.194a.716.716,0,0,1,0,1.432" transform="translate(-452.2 -402.72)" fill="#1e243a"/>
        <path id="Trazado_596340" data-name="Trazado 596340" d="M541.265,530.437h-9.549a.716.716,0,0,1,0-1.432h9.549a.716.716,0,1,1,0,1.432" transform="translate(-404.239 -402.72)" fill="#1e243a"/>
        <path id="Trazado_596341" data-name="Trazado 596341" d="M595.91,554.437h-1.194a.716.716,0,1,1,0-1.432h1.194a.716.716,0,0,1,0,1.432" transform="translate(-452.2 -420.991)" fill="#1e243a"/>
        <path id="Trazado_596342" data-name="Trazado 596342" d="M541.265,554.437h-9.549a.716.716,0,0,1,0-1.432h9.549a.716.716,0,1,1,0,1.432" transform="translate(-404.239 -420.991)" fill="#1e243a"/>
      </g>
    </g>
  </g>
</svg>
