<svg xmlns="http://www.w3.org/2000/svg" xmlns:xlink="http://www.w3.org/1999/xlink" width="190" height="296" viewBox="0 0 190 296">
  <defs>
    <clipPath id="clip-path">
      <rect id="Rect치ngulo_293515" data-name="Rect치ngulo 293515" width="44.269" height="68.521" fill="none"/>
    </clipPath>
  </defs>
  <g id="Grupo_874357" data-name="Grupo 874357" transform="translate(-285 -3812)">
    <rect id="Rect치ngulo_293510" data-name="Rect치ngulo 293510" width="190" height="209" transform="translate(285 3839)" fill="#ffe0f0"/>
    <path id="Trazado_596924" data-name="Trazado 596924" d="M-55.859-5.713h-5.256v3.938h6.144V0h-8.367V-12.8h8.306V-11h-6.082v3.533h5.256Zm4.474-3.8.062,1.1a3.419,3.419,0,0,1,2.769-1.274q2.971,0,3.023,3.4V0h-2.136V-6.161a1.958,1.958,0,0,0-.391-1.34,1.645,1.645,0,0,0-1.279-.435,2.058,2.058,0,0,0-1.925,1.169V0H-53.4V-9.51Zm7.655,4.685a5.562,5.562,0,0,1,1.042-3.538,3.343,3.343,0,0,1,2.764-1.323,3.132,3.132,0,0,1,2.558,1.134l.1-.958h1.925V-.29A3.832,3.832,0,0,1-36.51,2.663a4.436,4.436,0,0,1-3.142,1.081A5.064,5.064,0,0,1-41.7,3.309a3.631,3.631,0,0,1-1.516-1.138L-42.2.888a3.053,3.053,0,0,0,2.426,1.169A2.359,2.359,0,0,0-38.1,1.481a2.206,2.206,0,0,0,.615-1.692V-.853A3.144,3.144,0,0,1-39.942.176a3.335,3.335,0,0,1-2.729-1.327A5.742,5.742,0,0,1-43.73-4.825Zm2.127.185a3.829,3.829,0,0,0,.584,2.254,1.879,1.879,0,0,0,1.622.822,2.055,2.055,0,0,0,1.916-1.107V-6.855a2.026,2.026,0,0,0-1.9-1.081,1.887,1.887,0,0,0-1.639.835A4.287,4.287,0,0,0-41.6-4.641ZM-27.47,0a3.3,3.3,0,0,1-.246-.888,3.325,3.325,0,0,1-2.5,1.063A3.355,3.355,0,0,1-32.55-.642a2.615,2.615,0,0,1-.905-2.021A2.7,2.7,0,0,1-32.326-5,5.473,5.473,0,0,1-29.1-5.81h1.31v-.624A1.666,1.666,0,0,0-28.2-7.616a1.638,1.638,0,0,0-1.257-.444,1.881,1.881,0,0,0-1.2.365,1.129,1.129,0,0,0-.466.927h-2.136a2.37,2.37,0,0,1,.519-1.463A3.455,3.455,0,0,1-31.324-9.3a4.955,4.955,0,0,1,1.991-.387,3.99,3.99,0,0,1,2.663.839,2.993,2.993,0,0,1,1.02,2.36V-2.2a4.861,4.861,0,0,0,.36,2.048V0Zm-2.347-1.538a2.429,2.429,0,0,0,1.191-.308,2.055,2.055,0,0,0,.839-.826V-4.465h-1.151a3.148,3.148,0,0,0-1.784.413,1.338,1.338,0,0,0-.6,1.169,1.248,1.248,0,0,0,.409.98A1.583,1.583,0,0,0-29.817-1.538Zm8.385-7.972.062,1.1A3.419,3.419,0,0,1-18.6-9.686q2.971,0,3.023,3.4V0h-2.136V-6.161a1.958,1.958,0,0,0-.391-1.34,1.645,1.645,0,0,0-1.279-.435,2.058,2.058,0,0,0-1.925,1.169V0h-2.136V-9.51ZM-9.5-1.529A1.931,1.931,0,0,0-8.169-2a1.591,1.591,0,0,0,.563-1.151h2.013A3.137,3.137,0,0,1-6.148-1.49,3.632,3.632,0,0,1-7.554-.272,4.191,4.191,0,0,1-9.47.176a4.055,4.055,0,0,1-3.164-1.292A5.124,5.124,0,0,1-13.8-4.685V-4.9a5.039,5.039,0,0,1,1.16-3.476A4.018,4.018,0,0,1-9.479-9.686,3.907,3.907,0,0,1-6.715-8.7,3.542,3.542,0,0,1-5.594-6.1H-7.607a1.956,1.956,0,0,0-.558-1.345A1.8,1.8,0,0,0-9.5-7.972a1.879,1.879,0,0,0-1.6.751,3.834,3.834,0,0,0-.571,2.281V-4.6a3.9,3.9,0,0,0,.558,2.307A1.878,1.878,0,0,0-9.5-1.529Zm7.62-6.943A3.343,3.343,0,0,1,.769-9.686q3.041,0,3.085,3.472V0H1.718V-6.135a1.878,1.878,0,0,0-.426-1.393A1.743,1.743,0,0,0,.04-7.937,2.057,2.057,0,0,0-1.876-6.794V0H-4.012V-13.5h2.136ZM11.694,0a3.3,3.3,0,0,1-.246-.888A3.325,3.325,0,0,1,8.952.176,3.355,3.355,0,0,1,6.614-.642a2.615,2.615,0,0,1-.905-2.021A2.7,2.7,0,0,1,6.838-5a5.473,5.473,0,0,1,3.23-.813h1.31v-.624a1.666,1.666,0,0,0-.413-1.182A1.638,1.638,0,0,0,9.708-8.06a1.881,1.881,0,0,0-1.2.365,1.129,1.129,0,0,0-.466.927H5.911a2.37,2.37,0,0,1,.519-1.463A3.455,3.455,0,0,1,7.84-9.3a4.955,4.955,0,0,1,1.991-.387,3.99,3.99,0,0,1,2.663.839,2.993,2.993,0,0,1,1.02,2.36V-2.2a4.861,4.861,0,0,0,.36,2.048V0ZM9.347-1.538a2.429,2.429,0,0,0,1.191-.308,2.055,2.055,0,0,0,.839-.826V-4.465H10.226a3.148,3.148,0,0,0-1.784.413,1.338,1.338,0,0,0-.6,1.169,1.248,1.248,0,0,0,.409.98A1.583,1.583,0,0,0,9.347-1.538ZM20.729-7.559a5.285,5.285,0,0,0-.87-.07A1.959,1.959,0,0,0,17.881-6.5V0H15.746V-9.51h2.039l.053,1.063a2.406,2.406,0,0,1,2.145-1.239,2,2,0,0,1,.756.123Zm7.84-1.951.062.993a3.422,3.422,0,0,1,2.742-1.169,2.629,2.629,0,0,1,2.61,1.459A3.373,3.373,0,0,1,36.9-9.686a2.965,2.965,0,0,1,2.342.87,3.831,3.831,0,0,1,.787,2.566V0H37.894V-6.187a1.891,1.891,0,0,0-.4-1.327,1.731,1.731,0,0,0-1.31-.422A1.778,1.778,0,0,0,35-7.545a2.063,2.063,0,0,0-.646,1.024L34.361,0H32.225V-6.258a1.523,1.523,0,0,0-1.714-1.679,1.88,1.88,0,0,0-1.819,1.046V0H26.556V-9.51ZM47.9,0a3.3,3.3,0,0,1-.246-.888,3.325,3.325,0,0,1-2.5,1.063,3.355,3.355,0,0,1-2.338-.817,2.615,2.615,0,0,1-.905-2.021A2.7,2.7,0,0,1,43.049-5a5.473,5.473,0,0,1,3.23-.813h1.31v-.624a1.666,1.666,0,0,0-.413-1.182,1.638,1.638,0,0,0-1.257-.444,1.881,1.881,0,0,0-1.2.365,1.129,1.129,0,0,0-.466.927H42.122a2.37,2.37,0,0,1,.519-1.463A3.455,3.455,0,0,1,44.051-9.3a4.955,4.955,0,0,1,1.991-.387,3.99,3.99,0,0,1,2.663.839,2.993,2.993,0,0,1,1.02,2.36V-2.2a4.861,4.861,0,0,0,.36,2.048V0ZM45.558-1.538a2.429,2.429,0,0,0,1.191-.308,2.055,2.055,0,0,0,.839-.826V-4.465H46.437a3.148,3.148,0,0,0-1.784.413,1.338,1.338,0,0,0-.6,1.169,1.248,1.248,0,0,0,.409.98A1.583,1.583,0,0,0,45.558-1.538ZM46.745-13.5h2.435l-2.435,2.663-1.714,0ZM57.292-2.584a.968.968,0,0,0-.47-.87,5,5,0,0,0-1.56-.527,8.02,8.02,0,0,1-1.819-.58,2.428,2.428,0,0,1-1.6-2.241,2.531,2.531,0,0,1,1.037-2.057,4.1,4.1,0,0,1,2.637-.826,4.266,4.266,0,0,1,2.755.844,2.677,2.677,0,0,1,1.05,2.188H57.186a1.316,1.316,0,0,0-.457-1.024,1.752,1.752,0,0,0-1.213-.409,1.893,1.893,0,0,0-1.147.325,1.025,1.025,0,0,0-.444.87.866.866,0,0,0,.413.765,5.68,5.68,0,0,0,1.67.549,7.9,7.9,0,0,1,1.973.659A2.794,2.794,0,0,1,59.045-4a2.342,2.342,0,0,1,.347,1.3A2.478,2.478,0,0,1,58.329-.62a4.535,4.535,0,0,1-2.786.8,4.917,4.917,0,0,1-2.083-.422,3.428,3.428,0,0,1-1.424-1.16A2.746,2.746,0,0,1,51.526-3H53.6a1.5,1.5,0,0,0,.571,1.165,2.22,2.22,0,0,0,1.4.409,2.16,2.16,0,0,0,1.283-.321A.993.993,0,0,0,57.292-2.584ZM-52.458,23.471A1.931,1.931,0,0,0-51.13,23a1.591,1.591,0,0,0,.563-1.151h2.013a3.137,3.137,0,0,1-.554,1.657,3.632,3.632,0,0,1-1.406,1.217,4.191,4.191,0,0,1-1.916.448A4.055,4.055,0,0,1-55.6,23.884a5.124,5.124,0,0,1-1.169-3.568V20.1A5.039,5.039,0,0,1-55.6,16.62a4.018,4.018,0,0,1,3.164-1.305,3.907,3.907,0,0,1,2.764.989,3.542,3.542,0,0,1,1.121,2.6h-2.013a1.956,1.956,0,0,0-.558-1.345,1.8,1.8,0,0,0-1.332-.527,1.879,1.879,0,0,0-1.6.751,3.834,3.834,0,0,0-.571,2.281V20.4a3.9,3.9,0,0,0,.558,2.307A1.878,1.878,0,0,0-52.458,23.471Zm5.115-3.313a5.607,5.607,0,0,1,.554-2.518,4.044,4.044,0,0,1,1.556-1.723,4.383,4.383,0,0,1,2.3-.6,4.154,4.154,0,0,1,3.125,1.239,4.874,4.874,0,0,1,1.3,3.287l.009.5a5.658,5.658,0,0,1-.541,2.514,4,4,0,0,1-1.547,1.714,4.415,4.415,0,0,1-2.325.606,4.125,4.125,0,0,1-3.221-1.34,5.133,5.133,0,0,1-1.208-3.573Zm2.136.185a3.832,3.832,0,0,0,.606,2.3,1.971,1.971,0,0,0,1.688.831,1.95,1.95,0,0,0,1.683-.844,4.232,4.232,0,0,0,.6-2.47,3.782,3.782,0,0,0-.62-2.285,1.979,1.979,0,0,0-1.683-.844,1.96,1.96,0,0,0-1.661.831A4.152,4.152,0,0,0-45.207,20.342Zm10.494-4.852.062,1.1a3.419,3.419,0,0,1,2.769-1.274q2.971,0,3.023,3.4V25h-2.136V18.839a1.958,1.958,0,0,0-.391-1.34,1.645,1.645,0,0,0-1.279-.435,2.058,2.058,0,0,0-1.925,1.169V25h-2.136V15.49Zm13.359,6.926a.968.968,0,0,0-.47-.87,5,5,0,0,0-1.56-.527,8.02,8.02,0,0,1-1.819-.58A2.428,2.428,0,0,1-26.8,18.2a2.531,2.531,0,0,1,1.037-2.057,4.1,4.1,0,0,1,2.637-.826,4.266,4.266,0,0,1,2.755.844,2.677,2.677,0,0,1,1.05,2.188h-2.136a1.316,1.316,0,0,0-.457-1.024,1.752,1.752,0,0,0-1.213-.409,1.893,1.893,0,0,0-1.147.325,1.025,1.025,0,0,0-.444.87.866.866,0,0,0,.413.765,5.68,5.68,0,0,0,1.67.549,7.9,7.9,0,0,1,1.973.659A2.794,2.794,0,0,1-19.6,21a2.342,2.342,0,0,1,.347,1.3,2.478,2.478,0,0,1-1.063,2.079,4.535,4.535,0,0,1-2.786.8,4.917,4.917,0,0,1-2.083-.422,3.428,3.428,0,0,1-1.424-1.16A2.746,2.746,0,0,1-27.119,22h2.074a1.5,1.5,0,0,0,.571,1.165,2.22,2.22,0,0,0,1.4.409,2.16,2.16,0,0,0,1.283-.321A.993.993,0,0,0-21.353,22.416Zm9.721,1.652A3.312,3.312,0,0,1-14.3,25.176a2.952,2.952,0,0,1-2.342-.905,3.851,3.851,0,0,1-.8-2.619V15.49h2.136v6.135q0,1.811,1.5,1.811a2.111,2.111,0,0,0,2.1-1.116V15.49h2.136V25H-11.58Zm6.249-8.578.062.993A3.422,3.422,0,0,1-2.58,15.314a2.629,2.629,0,0,1,2.61,1.459,3.373,3.373,0,0,1,2.918-1.459,2.965,2.965,0,0,1,2.342.87,3.831,3.831,0,0,1,.787,2.566V25H3.942V18.813a1.891,1.891,0,0,0-.4-1.327,1.731,1.731,0,0,0-1.31-.422,1.778,1.778,0,0,0-1.191.391A2.063,2.063,0,0,0,.4,18.479L.409,25H-1.727V18.742a1.523,1.523,0,0,0-1.714-1.679A1.88,1.88,0,0,0-5.26,18.109V25H-7.4V15.49ZM10.542,25H8.407V15.49h2.136ZM8.275,13.021a1.133,1.133,0,0,1,.312-.817,1.179,1.179,0,0,1,.892-.325,1.193,1.193,0,0,1,.9.325,1.125,1.125,0,0,1,.316.817,1.1,1.1,0,0,1-.316.8,1.2,1.2,0,0,1-.9.321,1.188,1.188,0,0,1-.892-.321A1.107,1.107,0,0,1,8.275,13.021Zm4.192,7.154a5.654,5.654,0,0,1,1.02-3.529,3.267,3.267,0,0,1,2.733-1.332,3.1,3.1,0,0,1,2.443,1.055V11.5H20.8V25H18.866l-.105-.984a3.148,3.148,0,0,1-2.558,1.16,3.248,3.248,0,0,1-2.7-1.345A5.861,5.861,0,0,1,12.467,20.175Zm2.136.185a3.958,3.958,0,0,0,.558,2.263,1.811,1.811,0,0,0,1.586.813,2.017,2.017,0,0,0,1.916-1.169V18.206a1.986,1.986,0,0,0-1.9-1.143,1.824,1.824,0,0,0-1.6.822A4.408,4.408,0,0,0,14.6,20.359Zm8.024-.2a5.607,5.607,0,0,1,.554-2.518,4.044,4.044,0,0,1,1.556-1.723,4.383,4.383,0,0,1,2.3-.6,4.154,4.154,0,0,1,3.125,1.239,4.874,4.874,0,0,1,1.3,3.287l.009.5a5.658,5.658,0,0,1-.541,2.514,4,4,0,0,1-1.547,1.714,4.415,4.415,0,0,1-2.325.606,4.125,4.125,0,0,1-3.221-1.34,5.133,5.133,0,0,1-1.208-3.573Zm2.136.185a3.832,3.832,0,0,0,.606,2.3,1.971,1.971,0,0,0,1.688.831,1.95,1.95,0,0,0,1.683-.844,4.232,4.232,0,0,0,.6-2.47,3.782,3.782,0,0,0-.62-2.285,2.089,2.089,0,0,0-3.344-.013A4.152,4.152,0,0,0,24.763,20.342Zm13.491-2.9a5.285,5.285,0,0,0-.87-.07A1.959,1.959,0,0,0,35.407,18.5V25H33.271V15.49H35.31l.053,1.063a2.406,2.406,0,0,1,2.145-1.239,2,2,0,0,1,.756.123Zm5.537,7.734A4.419,4.419,0,0,1,40.5,23.9a4.639,4.639,0,0,1-1.261-3.406v-.264a5.706,5.706,0,0,1,.549-2.544,4.181,4.181,0,0,1,1.542-1.745,4.078,4.078,0,0,1,2.215-.624,3.733,3.733,0,0,1,3,1.239,5.24,5.24,0,0,1,1.059,3.507v.861H41.392a2.856,2.856,0,0,0,.787,1.863,2.362,2.362,0,0,0,1.736.686,2.892,2.892,0,0,0,2.391-1.187l1.151,1.1a3.845,3.845,0,0,1-1.525,1.323A4.774,4.774,0,0,1,43.792,25.176Zm-.255-8.147a1.8,1.8,0,0,0-1.419.615,3.189,3.189,0,0,0-.69,1.714H45.5V19.2a2.6,2.6,0,0,0-.571-1.622A1.785,1.785,0,0,0,43.537,17.028Zm11.057,5.388a.968.968,0,0,0-.47-.87,5,5,0,0,0-1.56-.527,8.02,8.02,0,0,1-1.819-.58,2.428,2.428,0,0,1-1.6-2.241,2.531,2.531,0,0,1,1.037-2.057,4.1,4.1,0,0,1,2.637-.826,4.266,4.266,0,0,1,2.755.844,2.677,2.677,0,0,1,1.05,2.188H54.488a1.316,1.316,0,0,0-.457-1.024,1.752,1.752,0,0,0-1.213-.409,1.893,1.893,0,0,0-1.147.325,1.025,1.025,0,0,0-.444.87.866.866,0,0,0,.413.765,5.68,5.68,0,0,0,1.67.549,7.9,7.9,0,0,1,1.973.659A2.794,2.794,0,0,1,56.347,21a2.342,2.342,0,0,1,.347,1.3A2.478,2.478,0,0,1,55.63,24.38a4.535,4.535,0,0,1-2.786.8,4.917,4.917,0,0,1-2.083-.422,3.428,3.428,0,0,1-1.424-1.16A2.746,2.746,0,0,1,48.828,22H50.9a1.5,1.5,0,0,0,.571,1.165,2.22,2.22,0,0,0,1.4.409,2.16,2.16,0,0,0,1.283-.321A.993.993,0,0,0,54.593,22.416Z" transform="translate(380 3938)" fill="#12263f"/>
    <circle id="Elipse_4846" data-name="Elipse 4846" cx="27.5" cy="27.5" r="27.5" transform="translate(353 3812)" fill="#ea3584"/>
    <path id="Trazado_596923" data-name="Trazado 596923" d="M2.71,0H-.835V-17.134l-5.229,1.783V-18.34L2.256-21.4H2.71Z" transform="translate(381 3850)" fill="#fff"/>
    <g id="Grupo_874288" data-name="Grupo 874288">
      <circle id="Elipse_4851" data-name="Elipse 4851" cx="52.5" cy="52.5" r="52.5" transform="translate(328 4003)" fill="#f6f6f6"/>
      <g id="Grupo_874278" data-name="Grupo 874278" transform="translate(358.092 4021.24)">
        <g id="Grupo_874277" data-name="Grupo 874277" clip-path="url(#clip-path)">
          <path id="Trazado_596145" data-name="Trazado 596145" d="M49.974,20.985H16.112a.792.792,0,0,1-.792-.792V.792A.792.792,0,0,1,16.112,0H49.974a.792.792,0,0,1,.792.792v19.4a.792.792,0,0,1-.792.792M16.9,19.4H49.182V1.584H16.9Z" transform="translate(-10.908)" fill="#344154"/>
          <path id="Trazado_596146" data-name="Trazado 596146" d="M47.012,26.136a.789.789,0,0,1-.56-.232,9.564,9.564,0,0,1,0-13.526.792.792,0,0,1,1.12,1.12,7.981,7.981,0,0,0,0,11.287.792.792,0,0,1-.56,1.352" transform="translate(-31.081 -8.648)" fill="#344154"/>
          <path id="Trazado_596147" data-name="Trazado 596147" d="M96.449,26.136a.792.792,0,0,1-.56-1.352,7.99,7.99,0,0,0,0-11.287.792.792,0,0,1,1.12-1.12,9.575,9.575,0,0,1,0,13.526.789.789,0,0,1-.56.232" transform="translate(-68.111 -8.648)" fill="#344154"/>
          <path id="Trazado_596148" data-name="Trazado 596148" d="M117.584,36.347a1.2,1.2,0,1,1,1.2-1.2,1.2,1.2,0,0,1-1.2,1.2m0-1.584a.386.386,0,1,0,.386.386.387.387,0,0,0-.386-.386" transform="translate(-82.871 -24.175)" fill="#344154"/>
          <path id="Trazado_596149" data-name="Trazado 596149" d="M30.226,36.347a1.2,1.2,0,1,1,1.2-1.2,1.2,1.2,0,0,1-1.2,1.2m0-1.584a.386.386,0,1,0,.386.386.387.387,0,0,0-.386-.386" transform="translate(-20.669 -24.175)" fill="#344154"/>
          <path id="Trazado_596150" data-name="Trazado 596150" d="M68.918,28.108A3.218,3.218,0,0,1,65.7,24.894a.792.792,0,1,1,1.584,0,1.63,1.63,0,0,0,3.261,0c0-.67-.307-1.157-1.876-1.669-1.97-.643-2.969-1.711-2.969-3.175a3.214,3.214,0,1,1,6.428,0,.792.792,0,1,1-1.584,0,1.63,1.63,0,0,0-3.261,0c0,.492.213,1.127,1.876,1.67.888.29,2.969.969,2.969,3.175a3.218,3.218,0,0,1-3.214,3.214" transform="translate(-46.784 -11.987)" fill="#344154"/>
          <path id="Trazado_596151" data-name="Trazado 596151" d="M74.908,15.1a.792.792,0,0,1-.792-.792V12.938a.792.792,0,0,1,1.584,0V14.3a.792.792,0,0,1-.792.792" transform="translate(-52.773 -8.648)" fill="#344154"/>
          <path id="Trazado_596152" data-name="Trazado 596152" d="M74.908,53.433a.792.792,0,0,1-.792-.792V51.274a.792.792,0,1,1,1.584,0v1.367a.792.792,0,0,1-.792.792" transform="translate(-52.773 -35.945)" fill="#344154"/>
          <path id="Trazado_596153" data-name="Trazado 596153" d="M9.559,122.4H.792a.792.792,0,1,1,0-1.584H9.559a.792.792,0,1,1,0,1.584" transform="translate(0 -86.024)" fill="#344154"/>
          <path id="Trazado_596154" data-name="Trazado 596154" d="M127.345,122.4h-8.767a.792.792,0,0,1,0-1.584h8.767a.792.792,0,1,1,0,1.584" transform="translate(-83.868 -86.024)" fill="#344154"/>
          <path id="Trazado_596155" data-name="Trazado 596155" d="M22.135,132.866A22.16,22.16,0,0,1,0,110.731V91.16a.792.792,0,0,1,.792-.792H9.559a.792.792,0,0,1,.792.792v19.571a11.783,11.783,0,1,0,23.567,0V91.16a.792.792,0,0,1,.792-.792h8.767a.792.792,0,0,1,.792.792v19.571a22.16,22.16,0,0,1-22.135,22.135M1.584,91.952v18.779a20.551,20.551,0,1,0,41.1,0V91.952H35.5v18.779a13.367,13.367,0,1,1-26.734,0V91.952Z" transform="translate(0 -64.345)" fill="#344154"/>
          <path id="Trazado_596156" data-name="Trazado 596156" d="M75.81,101.979a.792.792,0,0,1-.792-.792V83.634a.792.792,0,0,1,1.584,0v17.554a.792.792,0,0,1-.792.792" transform="translate(-53.416 -58.987)" fill="#344154"/>
          <path id="Trazado_596157" data-name="Trazado 596157" d="M54.74,107.518a.792.792,0,0,1-.792-.792V96.7a.792.792,0,0,1,1.584,0v10.031a.792.792,0,0,1-.792.792" transform="translate(-38.413 -68.287)" fill="#344154"/>
          <path id="Trazado_596158" data-name="Trazado 596158" d="M95.076,107.518a.792.792,0,0,1-.792-.792V96.7a.792.792,0,0,1,1.584,0v10.031a.792.792,0,0,1-.792.792" transform="translate(-67.134 -68.287)" fill="#344154"/>
          <path id="Trazado_596159" data-name="Trazado 596159" d="M47.668,141.81v4.349A15.962,15.962,0,0,1,32.4,162.23a15.759,15.759,0,0,1-16.219-15.736V141.81a1.216,1.216,0,0,0-1.216-1.216h0a1.216,1.216,0,0,0-1.216,1.216v4.322a18.472,18.472,0,0,0,18.49,18.534A18.2,18.2,0,0,0,50.1,146.494V141.81a1.216,1.216,0,0,0-2.432,0" transform="translate(-9.791 -100.108)" fill="#6826cc"/>
        </g>
      </g>
    </g>
  </g>
</svg>
