<svg xmlns="http://www.w3.org/2000/svg" xmlns:xlink="http://www.w3.org/1999/xlink" width="190" height="296" viewBox="0 0 190 296">
  <defs>
    <clipPath id="clip-path">
      <rect id="Rect치ngulo_293519" data-name="Rect치ngulo 293519" width="67.729" height="66.792" fill="none"/>
    </clipPath>
  </defs>
  <g id="Grupo_874358" data-name="Grupo 874358" transform="translate(-495 -3812)">
    <rect id="Rect치ngulo_293511" data-name="Rect치ngulo 293511" width="190" height="209" transform="translate(495 3839)" fill="#fffae7"/>
    <path id="Trazado_596926" data-name="Trazado 596926" d="M-64.178-1.661A4.252,4.252,0,0,1-66.1-.29,7.853,7.853,0,0,1-68.9.176a5.508,5.508,0,0,1-2.848-.729,4.859,4.859,0,0,1-1.912-2.087,7.3,7.3,0,0,1-.7-3.168v-1a6.773,6.773,0,0,1,1.389-4.531,4.816,4.816,0,0,1,3.876-1.63A5.1,5.1,0,0,1-65.7-11.914a4.564,4.564,0,0,1,1.512,3.045h-2.18a2.452,2.452,0,0,0-2.681-2.312A2.628,2.628,0,0,0-71.319-10.1a5.48,5.48,0,0,0-.8,3.157v.983a5.2,5.2,0,0,0,.875,3.218A2.885,2.885,0,0,0-68.818-1.6a3.2,3.2,0,0,0,2.426-.773v-2.5h-2.637V-6.565h4.852ZM-57.753.176A4.419,4.419,0,0,1-61.044-1.1a4.639,4.639,0,0,1-1.261-3.406v-.264a5.706,5.706,0,0,1,.549-2.544,4.181,4.181,0,0,1,1.542-1.745A4.078,4.078,0,0,1-58-9.686a3.733,3.733,0,0,1,3,1.239,5.24,5.24,0,0,1,1.059,3.507v.861h-6.214a2.856,2.856,0,0,0,.787,1.863,2.362,2.362,0,0,0,1.736.686,2.892,2.892,0,0,0,2.391-1.187l1.151,1.1A3.845,3.845,0,0,1-55.613-.294,4.774,4.774,0,0,1-57.753.176Zm-.255-8.147a1.8,1.8,0,0,0-1.419.615,3.189,3.189,0,0,0-.69,1.714h4.069V-5.8a2.6,2.6,0,0,0-.571-1.622A1.785,1.785,0,0,0-58.008-7.972ZM-50.3-9.51l.062,1.1A3.419,3.419,0,0,1-47.47-9.686q2.971,0,3.023,3.4V0h-2.136V-6.161a1.958,1.958,0,0,0-.391-1.34,1.645,1.645,0,0,0-1.279-.435,2.058,2.058,0,0,0-1.925,1.169V0h-2.136V-9.51ZM-38.083.176A4.419,4.419,0,0,1-41.375-1.1a4.639,4.639,0,0,1-1.261-3.406v-.264a5.706,5.706,0,0,1,.549-2.544,4.181,4.181,0,0,1,1.542-1.745,4.078,4.078,0,0,1,2.215-.624,3.733,3.733,0,0,1,3,1.239,5.24,5.24,0,0,1,1.059,3.507v.861h-6.214A2.856,2.856,0,0,0-39.7-2.215a2.362,2.362,0,0,0,1.736.686,2.892,2.892,0,0,0,2.391-1.187l1.151,1.1A3.845,3.845,0,0,1-35.943-.294,4.774,4.774,0,0,1-38.083.176Zm-.255-8.147a1.8,1.8,0,0,0-1.419.615,3.189,3.189,0,0,0-.69,1.714h4.069V-5.8a2.6,2.6,0,0,0-.571-1.622A1.785,1.785,0,0,0-38.338-7.972Zm10.705.413a5.285,5.285,0,0,0-.87-.07A1.959,1.959,0,0,0-30.48-6.5V0h-2.136V-9.51h2.039l.053,1.063A2.406,2.406,0,0,1-28.38-9.686a2,2,0,0,1,.756.123ZM-20.865,0a3.3,3.3,0,0,1-.246-.888,3.325,3.325,0,0,1-2.5,1.063,3.355,3.355,0,0,1-2.338-.817,2.615,2.615,0,0,1-.905-2.021A2.7,2.7,0,0,1-25.721-5a5.473,5.473,0,0,1,3.23-.813h1.31v-.624a1.666,1.666,0,0,0-.413-1.182,1.638,1.638,0,0,0-1.257-.444,1.881,1.881,0,0,0-1.2.365,1.129,1.129,0,0,0-.466.927h-2.136a2.37,2.37,0,0,1,.519-1.463A3.455,3.455,0,0,1-24.719-9.3a4.955,4.955,0,0,1,1.991-.387,3.99,3.99,0,0,1,2.663.839,2.993,2.993,0,0,1,1.02,2.36V-2.2a4.861,4.861,0,0,0,.36,2.048V0Zm-2.347-1.538a2.429,2.429,0,0,0,1.191-.308,2.055,2.055,0,0,0,.839-.826V-4.465h-1.151a3.148,3.148,0,0,0-1.784.413,1.338,1.338,0,0,0-.6,1.169,1.248,1.248,0,0,0,.409.98A1.583,1.583,0,0,0-23.212-1.538Zm8.385-7.972.062,1.1A3.419,3.419,0,0,1-12-9.686q2.971,0,3.023,3.4V0h-2.136V-6.161A1.958,1.958,0,0,0-11.5-7.5a1.645,1.645,0,0,0-1.279-.435A2.058,2.058,0,0,0-14.7-6.768V0H-16.84V-9.51ZM1.591-1.529A1.931,1.931,0,0,0,2.918-2,1.591,1.591,0,0,0,3.48-3.146H5.493A3.137,3.137,0,0,1,4.939-1.49,3.632,3.632,0,0,1,3.533-.272,4.191,4.191,0,0,1,1.617.176,4.055,4.055,0,0,1-1.547-1.116,5.124,5.124,0,0,1-2.716-4.685V-4.9A5.039,5.039,0,0,1-1.556-8.38,4.018,4.018,0,0,1,1.608-9.686,3.907,3.907,0,0,1,4.373-8.7,3.542,3.542,0,0,1,5.493-6.1H3.48a1.956,1.956,0,0,0-.558-1.345,1.8,1.8,0,0,0-1.332-.527,1.879,1.879,0,0,0-1.6.751A3.834,3.834,0,0,0-.58-4.939V-4.6A3.9,3.9,0,0,0-.022-2.29,1.878,1.878,0,0,0,1.591-1.529ZM6.706-4.843A5.607,5.607,0,0,1,7.26-7.361,4.044,4.044,0,0,1,8.815-9.083a4.383,4.383,0,0,1,2.3-.6,4.154,4.154,0,0,1,3.125,1.239,4.874,4.874,0,0,1,1.3,3.287l.009.5a5.658,5.658,0,0,1-.541,2.514A4,4,0,0,1,13.46-.431a4.415,4.415,0,0,1-2.325.606,4.125,4.125,0,0,1-3.221-1.34A5.133,5.133,0,0,1,6.706-4.737Zm2.136.185a3.832,3.832,0,0,0,.606,2.3,1.971,1.971,0,0,0,1.688.831,1.95,1.95,0,0,0,1.683-.844,4.232,4.232,0,0,0,.6-2.47,3.782,3.782,0,0,0-.62-2.285,1.979,1.979,0,0,0-1.683-.844,1.96,1.96,0,0,0-1.661.831A4.152,4.152,0,0,0,8.842-4.658ZM19.336-9.51l.062,1.1a3.419,3.419,0,0,1,2.769-1.274q2.971,0,3.023,3.4V0H23.054V-6.161a1.958,1.958,0,0,0-.391-1.34,1.645,1.645,0,0,0-1.279-.435,2.058,2.058,0,0,0-1.925,1.169V0H17.323V-9.51ZM27.932,0V-7.928h-1.45V-9.51h1.45v-.65a3.8,3.8,0,0,1,.475-1.916,2.952,2.952,0,0,1,1.318-1.2,4.745,4.745,0,0,1,2.048-.4,5.969,5.969,0,0,1,1.349.149q.646.149,1.34.378l-.325,1.767a6.8,6.8,0,0,0-2.215-.422,1.979,1.979,0,0,0-1.415.426,1.705,1.705,0,0,0-.439,1.279v.6h1.872v1.582H30.067V0Zm7.541,0H33.337V-9.51h2.136Zm8.051,0a3.3,3.3,0,0,1-.246-.888,3.325,3.325,0,0,1-2.5,1.063,3.355,3.355,0,0,1-2.338-.817,2.615,2.615,0,0,1-.905-2.021A2.7,2.7,0,0,1,38.667-5,5.473,5.473,0,0,1,41.9-5.81h1.31v-.624a1.666,1.666,0,0,0-.413-1.182,1.638,1.638,0,0,0-1.257-.444,1.881,1.881,0,0,0-1.2.365,1.129,1.129,0,0,0-.466.927H37.74a2.37,2.37,0,0,1,.519-1.463A3.455,3.455,0,0,1,39.669-9.3a4.955,4.955,0,0,1,1.991-.387,3.99,3.99,0,0,1,2.663.839,2.993,2.993,0,0,1,1.02,2.36V-2.2A4.861,4.861,0,0,0,45.7-.149V0ZM41.177-1.538a2.429,2.429,0,0,0,1.191-.308,2.055,2.055,0,0,0,.839-.826V-4.465H42.056a3.148,3.148,0,0,0-1.784.413,1.338,1.338,0,0,0-.6,1.169,1.248,1.248,0,0,0,.409.98A1.583,1.583,0,0,0,41.177-1.538ZM49.562-9.51l.062,1.1a3.419,3.419,0,0,1,2.769-1.274q2.971,0,3.023,3.4V0H53.279V-6.161a1.958,1.958,0,0,0-.391-1.34,1.645,1.645,0,0,0-1.279-.435,2.058,2.058,0,0,0-1.925,1.169V0H47.549V-9.51Zm10.31,7.8h5.063V0H57.217V-1.4l4.825-6.39H57.3V-9.51h7.444v1.354ZM72.325,0a3.3,3.3,0,0,1-.246-.888,3.325,3.325,0,0,1-2.5,1.063,3.355,3.355,0,0,1-2.338-.817,2.615,2.615,0,0,1-.905-2.021A2.7,2.7,0,0,1,67.469-5,5.473,5.473,0,0,1,70.7-5.81h1.31v-.624A1.666,1.666,0,0,0,71.6-7.616a1.638,1.638,0,0,0-1.257-.444,1.881,1.881,0,0,0-1.2.365,1.129,1.129,0,0,0-.466.927H66.542a2.37,2.37,0,0,1,.519-1.463A3.455,3.455,0,0,1,68.471-9.3a4.955,4.955,0,0,1,1.991-.387,3.99,3.99,0,0,1,2.663.839,2.993,2.993,0,0,1,1.02,2.36V-2.2A4.861,4.861,0,0,0,74.5-.149V0ZM69.979-1.538a2.429,2.429,0,0,0,1.191-.308,2.055,2.055,0,0,0,.839-.826V-4.465H70.857a3.148,3.148,0,0,0-1.784.413,1.338,1.338,0,0,0-.6,1.169,1.248,1.248,0,0,0,.409.98A1.583,1.583,0,0,0,69.979-1.538Z" transform="translate(590 3951)" fill="#12263f"/>
    <circle id="Elipse_4847" data-name="Elipse 4847" cx="27.5" cy="27.5" r="27.5" transform="translate(563 3812)" fill="#ea3584"/>
    <path id="Trazado_596925" data-name="Trazado 596925" d="M7.412,0H-6.929V-2.446L.176-10.2a17.692,17.692,0,0,0,2.19-2.864,4.64,4.64,0,0,0,.652-2.307,3.505,3.505,0,0,0-.857-2.461,2.972,2.972,0,0,0-2.307-.937A3.426,3.426,0,0,0-2.827-17.71a4.148,4.148,0,0,0-.952,2.886h-3.56a6.976,6.976,0,0,1,.886-3.508,6.1,6.1,0,0,1,2.534-2.424,8.066,8.066,0,0,1,3.8-.864,7.215,7.215,0,0,1,4.9,1.56,5.415,5.415,0,0,1,1.794,4.314,7.321,7.321,0,0,1-.9,3.347A19.033,19.033,0,0,1,2.725-8.423L-2.49-2.842h9.9Z" transform="translate(591 3850)" fill="#fff"/>
    <g id="Grupo_874287" data-name="Grupo 874287">
      <circle id="Elipse_4852" data-name="Elipse 4852" cx="52.5" cy="52.5" r="52.5" transform="translate(538 4003)" fill="#f6f6f6"/>
      <g id="Grupo_874286" data-name="Grupo 874286" transform="translate(558.135 4019.176)">
        <g id="Grupo_874285" data-name="Grupo 874285" clip-path="url(#clip-path)">
          <path id="Trazado_596193" data-name="Trazado 596193" d="M79.539,17.671a.811.811,0,0,1-.4-.108L65.116,9.469a.809.809,0,0,1,.005-1.4L79.14.106a.809.809,0,0,1,.8,0L93.957,8.065a.809.809,0,0,1,.005,1.4L79.944,17.562a.81.81,0,0,1-.4.108m-12.39-8.9,12.39,7.153,12.39-7.153L79.539,1.74Z" transform="translate(-45.675 0)" fill="#344154"/>
          <path id="Trazado_596194" data-name="Trazado 596194" d="M88.026,19.024,95.994,14.5l7.969,4.524-7.969,4.6Z" transform="translate(-62.13 -10.234)" fill="#6826cc"/>
          <path id="Trazado_596195" data-name="Trazado 596195" d="M79.538,52.953a.805.805,0,0,1-.4-.108L65.117,44.751a.809.809,0,0,1-.4-.7V27.863a.809.809,0,1,1,1.618,0v15.72l13.614,7.86a.809.809,0,0,1-.405,1.51" transform="translate(-45.675 -19.095)" fill="#344154"/>
          <path id="Trazado_596196" data-name="Trazado 596196" d="M113.173,52.953a.809.809,0,0,1-.405-1.51l13.614-7.86V27.863a.809.809,0,1,1,1.618,0V44.05a.809.809,0,0,1-.4.7l-14.018,8.094a.805.805,0,0,1-.4.108" transform="translate(-79.307 -19.095)" fill="#344154"/>
          <path id="Trazado_596197" data-name="Trazado 596197" d="M113.172,66.935a.809.809,0,0,1-.809-.809V55.374a.809.809,0,1,1,1.618,0V66.126a.809.809,0,0,1-.809.809" transform="translate(-79.308 -38.513)" fill="#344154"/>
          <path id="Trazado_596198" data-name="Trazado 596198" d="M22.774,90.932a.807.807,0,0,1-.638-.312l-1.6-2.052a.808.808,0,0,1-.159-.357c-.215-1.219-.584-3.353-.965-5.56-.422-2.445-.86-4.978-1.121-6.454a1.325,1.325,0,0,0-.556-.87,1.366,1.366,0,0,0-1.048-.206l-2.122.42a.809.809,0,0,1-.314-1.587l2.122-.42a2.969,2.969,0,0,1,2.276.458,2.93,2.93,0,0,1,1.235,1.923c.262,1.477.7,4.013,1.122,6.46.361,2.09.71,4.114.929,5.356l1.477,1.893a.809.809,0,0,1-.637,1.306" transform="translate(-9.598 -51.859)" fill="#344154"/>
          <path id="Trazado_596199" data-name="Trazado 596199" d="M37,91.7a.808.808,0,0,1-.66-.34l-1.59-2.236a.8.8,0,0,1-.136-.32c-.288-1.539-.555-3.187-.839-4.932-.244-1.5-.5-3.055-.782-4.672a1.324,1.324,0,0,0-.556-.87,1.366,1.366,0,0,0-1.048-.206l-1.148.227a.809.809,0,0,1-.314-1.587l1.148-.227a2.968,2.968,0,0,1,2.276.458,2.93,2.93,0,0,1,1.235,1.923c.288,1.629.541,3.187.786,4.695.271,1.669.527,3.249.8,4.719l1.486,2.091A.809.809,0,0,1,37,91.7" transform="translate(-20.664 -53.974)" fill="#344154"/>
          <path id="Trazado_596200" data-name="Trazado 596200" d="M20.316,156.56a.809.809,0,0,1-.809-.809v-7.8c-.846-1.665-2.815-2.805-6.011-3.482-.328-.07-.66-.137-.993-.2-2.45-.492-4.983-1-6.9-2.744a12.244,12.244,0,0,1-2.526-3.641,53.352,53.352,0,0,1-2.95-7.032,2.3,2.3,0,0,1,.663-2.5,2.327,2.327,0,0,1,2.591-.351,8.311,8.311,0,0,1,4.032,3.726c.1.22.2.45.3.682.668,1.582,1.085,2.395,2.57,2.1a4.018,4.018,0,0,0,.865-.312,11.509,11.509,0,0,1,12.211,1.947.809.809,0,0,1-1.089,1.2,9.848,9.848,0,0,0-10.45-1.671,5.539,5.539,0,0,1-1.222.427c-2.843.562-3.767-1.616-4.376-3.058-.091-.215-.181-.428-.275-.633A6.678,6.678,0,0,0,2.68,129.45a.729.729,0,0,0-.817.107.694.694,0,0,0-.2.77,51.766,51.766,0,0,0,2.861,6.818,10.87,10.87,0,0,0,2.171,3.176c1.583,1.441,3.894,1.905,6.128,2.355.339.068.676.136,1.01.207,3.828.811,6.189,2.3,7.22,4.543a.81.81,0,0,1,.074.337v7.989a.809.809,0,0,1-.809.809" transform="translate(0 -90.167)" fill="#344154"/>
          <path id="Trazado_596201" data-name="Trazado 596201" d="M72.055,157.027a.809.809,0,0,1-.809-.809V141.436a16.15,16.15,0,0,0-2.343-6.8c-2.209-3.53-5.433-4.254-8.551-4.953-.364-.081-.724-.162-1.075-.246a.809.809,0,1,1,.376-1.574c.344.082.7.161,1.053.241,3.119.7,7,1.572,9.568,5.674a17.813,17.813,0,0,1,2.586,7.542c0,.025,0,.05,0,.074v14.819a.809.809,0,0,1-.809.809" transform="translate(-41.4 -90.235)" fill="#344154"/>
          <path id="Trazado_596202" data-name="Trazado 596202" d="M10.77,92.135a.807.807,0,0,1-.619-.288l-1.935-2.3a.812.812,0,0,1-.179-.392l-2.2-13.592a1.075,1.075,0,0,0-.442-.713,1.1,1.1,0,0,0-.845-.177,1.261,1.261,0,0,0-1.014,1.359l1.814,13.86a.809.809,0,0,1-1.6.21L1.928,76.232a2.87,2.87,0,0,1,2.324-3.149,2.711,2.711,0,0,1,2.071.445,2.679,2.679,0,0,1,1.108,1.777L9.6,88.677,11.389,90.8a.809.809,0,0,1-.619,1.33" transform="translate(-1.347 -51.55)" fill="#344154"/>
          <path id="Trazado_596203" data-name="Trazado 596203" d="M183.5,90.933a.809.809,0,0,1-.637-1.306l1.477-1.893c.219-1.244.569-3.272.931-5.365.422-2.444.86-4.976,1.121-6.451a2.93,2.93,0,0,1,1.234-1.923,2.977,2.977,0,0,1,2.276-.459l2.122.42a.809.809,0,1,1-.314,1.587l-2.122-.42a1.364,1.364,0,0,0-1.047.207,1.321,1.321,0,0,0-.555.87c-.261,1.473-.7,4-1.12,6.444-.382,2.21-.751,4.349-.967,5.569a.8.8,0,0,1-.159.357l-1.6,2.052a.806.806,0,0,1-.638.312" transform="translate(-128.945 -51.861)" fill="#344154"/>
          <path id="Trazado_596204" data-name="Trazado 596204" d="M172.753,91.7a.809.809,0,0,1-.659-1.278l1.487-2.091c.272-1.47.528-3.05.8-4.718.244-1.508.5-3.067.786-4.7a2.93,2.93,0,0,1,1.235-1.923,2.976,2.976,0,0,1,2.276-.459l1.149.228a.809.809,0,0,1-.314,1.587l-1.149-.227a1.371,1.371,0,0,0-1.047.206,1.324,1.324,0,0,0-.556.87c-.286,1.618-.538,3.171-.782,4.673-.283,1.744-.55,3.392-.838,4.931a.8.8,0,0,1-.136.32l-1.59,2.236a.808.808,0,0,1-.66.34" transform="translate(-121.361 -53.976)" fill="#344154"/>
          <path id="Trazado_596205" data-name="Trazado 596205" d="M153.237,156.559a.809.809,0,0,1-.809-.809v-7.989a.811.811,0,0,1,.074-.337c1.03-2.246,3.391-3.732,7.219-4.543.334-.071.671-.139,1.011-.207,2.234-.449,4.544-.913,6.128-2.355a10.879,10.879,0,0,0,2.172-3.176,51.765,51.765,0,0,0,2.86-6.819.694.694,0,0,0-.2-.77.73.73,0,0,0-.817-.107,6.679,6.679,0,0,0-3.266,2.947c-.094.2-.184.418-.275.633-.609,1.442-1.528,3.624-4.376,3.058a5.544,5.544,0,0,1-1.222-.427,9.849,9.849,0,0,0-10.45,1.671.809.809,0,0,1-1.089-1.2,11.51,11.51,0,0,1,12.211-1.947,4.017,4.017,0,0,0,.865.312c1.483.294,1.9-.517,2.57-2.1.1-.232.2-.462.3-.682a8.31,8.31,0,0,1,4.032-3.726,2.326,2.326,0,0,1,2.591.352,2.3,2.3,0,0,1,.663,2.5,53.418,53.418,0,0,1-2.95,7.032,12.259,12.259,0,0,1-2.526,3.641c-1.915,1.742-4.448,2.252-6.9,2.744-.333.067-.665.134-.993.2-3.2.677-5.164,1.817-6.01,3.482v7.8a.809.809,0,0,1-.809.809" transform="translate(-105.823 -90.167)" fill="#344154"/>
          <path id="Trazado_596206" data-name="Trazado 596206" d="M124.081,157.027a.809.809,0,0,1-.809-.809V141.4c0-.025,0-.05,0-.074a17.814,17.814,0,0,1,2.587-7.542c2.567-4.1,6.449-4.974,9.568-5.674.357-.08.709-.159,1.053-.241a.809.809,0,1,1,.376,1.574c-.351.084-.71.164-1.075.246-3.118.7-6.342,1.424-8.551,4.953a16.155,16.155,0,0,0-2.344,6.8v14.781a.809.809,0,0,1-.809.809" transform="translate(-87.007 -90.235)" fill="#344154"/>
          <path id="Trazado_596207" data-name="Trazado 596207" d="M196.258,92.135a.809.809,0,0,1-.619-1.33l1.791-2.128,2.165-13.371a2.682,2.682,0,0,1,1.109-1.778,2.712,2.712,0,0,1,2.071-.444,2.868,2.868,0,0,1,2.326,3.137L203.283,90.1a.809.809,0,0,1-1.6-.21l1.816-13.872a1.258,1.258,0,0,0-1.015-1.348,1.1,1.1,0,0,0-.845.177,1.078,1.078,0,0,0-.442.715l-2.2,13.59a.81.81,0,0,1-.18.392l-1.935,2.3a.806.806,0,0,1-.619.288" transform="translate(-137.951 -51.55)" fill="#344154"/>
        </g>
      </g>
    </g>
  </g>
</svg>
