<svg xmlns="http://www.w3.org/2000/svg" xmlns:xlink="http://www.w3.org/1999/xlink" width="190" height="296" viewBox="0 0 190 296">
  <defs>
    <clipPath id="clip-path">
      <rect id="Rect치ngulo_293516" data-name="Rect치ngulo 293516" width="55.734" height="62.632" fill="none"/>
    </clipPath>
  </defs>
  <g id="Grupo_874359" data-name="Grupo 874359" transform="translate(-705 -3812)">
    <rect id="Rect치ngulo_293512" data-name="Rect치ngulo 293512" width="190" height="209" transform="translate(705 3839)" fill="#ffe0f0"/>
    <path id="Trazado_596928" data-name="Trazado 596928" d="M-49.307-2.979h-4.957L-55.3,0h-2.312l4.834-12.8h2L-45.94,0h-2.32ZM-53.64-4.772h3.709l-1.854-5.309ZM-39.032-.932A3.312,3.312,0,0,1-41.7.176a2.952,2.952,0,0,1-2.342-.905,3.851,3.851,0,0,1-.8-2.619V-9.51h2.136v6.135q0,1.811,1.5,1.811a2.111,2.111,0,0,0,2.1-1.116V-9.51h2.136V0h-2.013Zm6.249-8.578.062.993a3.422,3.422,0,0,1,2.742-1.169,2.629,2.629,0,0,1,2.61,1.459,3.373,3.373,0,0,1,2.918-1.459,2.965,2.965,0,0,1,2.342.87,3.831,3.831,0,0,1,.787,2.566V0h-2.136V-6.187a1.891,1.891,0,0,0-.4-1.327,1.731,1.731,0,0,0-1.31-.422,1.778,1.778,0,0,0-1.191.391A2.063,2.063,0,0,0-27-6.521L-26.991,0h-2.136V-6.258a1.523,1.523,0,0,0-1.714-1.679A1.88,1.88,0,0,0-32.66-6.891V0H-34.8V-9.51ZM-14.941.176A4.419,4.419,0,0,1-18.233-1.1a4.639,4.639,0,0,1-1.261-3.406v-.264a5.706,5.706,0,0,1,.549-2.544A4.181,4.181,0,0,1-17.4-9.062a4.078,4.078,0,0,1,2.215-.624,3.733,3.733,0,0,1,3,1.239,5.24,5.24,0,0,1,1.059,3.507v.861h-6.214a2.856,2.856,0,0,0,.787,1.863,2.362,2.362,0,0,0,1.736.686,2.892,2.892,0,0,0,2.391-1.187l1.151,1.1A3.845,3.845,0,0,1-12.8-.294,4.774,4.774,0,0,1-14.941.176ZM-15.2-7.972a1.8,1.8,0,0,0-1.419.615,3.189,3.189,0,0,0-.69,1.714h4.069V-5.8a2.6,2.6,0,0,0-.571-1.622A1.785,1.785,0,0,0-15.2-7.972ZM-7.488-9.51l.062,1.1A3.419,3.419,0,0,1-4.658-9.686q2.971,0,3.023,3.4V0H-3.771V-6.161A1.958,1.958,0,0,0-4.162-7.5,1.645,1.645,0,0,0-5.44-7.937,2.058,2.058,0,0,0-7.365-6.768V0H-9.5V-9.51ZM3.217-11.821V-9.51H4.9v1.582H3.217v5.309a1.169,1.169,0,0,0,.215.787,1,1,0,0,0,.769.242,3.29,3.29,0,0,0,.747-.088V-.026a5.26,5.26,0,0,1-1.406.2Q1.081.176,1.081-2.54V-7.928H-.483V-9.51H1.081v-2.312ZM12.208,0a3.3,3.3,0,0,1-.246-.888A3.325,3.325,0,0,1,9.466.176,3.355,3.355,0,0,1,7.128-.642a2.615,2.615,0,0,1-.905-2.021A2.7,2.7,0,0,1,7.352-5a5.473,5.473,0,0,1,3.23-.813h1.31v-.624a1.666,1.666,0,0,0-.413-1.182,1.638,1.638,0,0,0-1.257-.444,1.881,1.881,0,0,0-1.2.365,1.129,1.129,0,0,0-.466.927H6.425a2.37,2.37,0,0,1,.519-1.463A3.455,3.455,0,0,1,8.354-9.3a4.955,4.955,0,0,1,1.991-.387,3.99,3.99,0,0,1,2.663.839,2.993,2.993,0,0,1,1.02,2.36V-2.2a4.861,4.861,0,0,0,.36,2.048V0ZM9.861-1.538a2.429,2.429,0,0,0,1.191-.308,2.055,2.055,0,0,0,.839-.826V-4.465H10.74a3.148,3.148,0,0,0-1.784.413,1.338,1.338,0,0,0-.6,1.169,1.248,1.248,0,0,0,.409.98A1.583,1.583,0,0,0,9.861-1.538ZM18.246-9.51l.062,1.1a3.419,3.419,0,0,1,2.769-1.274q2.971,0,3.023,3.4V0H21.964V-6.161a1.958,1.958,0,0,0-.391-1.34,1.645,1.645,0,0,0-1.279-.435,2.058,2.058,0,0,0-1.925,1.169V0H16.233V-9.51ZM33.029,0H30.894V-13.5h2.136Zm8.007,0a3.3,3.3,0,0,1-.246-.888,3.325,3.325,0,0,1-2.5,1.063,3.355,3.355,0,0,1-2.338-.817,2.615,2.615,0,0,1-.905-2.021A2.7,2.7,0,0,1,36.18-5a5.473,5.473,0,0,1,3.23-.813h1.31v-.624a1.666,1.666,0,0,0-.413-1.182A1.638,1.638,0,0,0,39.05-8.06a1.881,1.881,0,0,0-1.2.365,1.129,1.129,0,0,0-.466.927H35.253a2.37,2.37,0,0,1,.519-1.463A3.455,3.455,0,0,1,37.182-9.3a4.955,4.955,0,0,1,1.991-.387,3.99,3.99,0,0,1,2.663.839,2.993,2.993,0,0,1,1.02,2.36V-2.2a4.861,4.861,0,0,0,.36,2.048V0ZM38.689-1.538a2.429,2.429,0,0,0,1.191-.308,2.055,2.055,0,0,0,.839-.826V-4.465H39.568a3.148,3.148,0,0,0-1.784.413,1.338,1.338,0,0,0-.6,1.169,1.248,1.248,0,0,0,.409.98A1.583,1.583,0,0,0,38.689-1.538ZM50.423-2.584a.968.968,0,0,0-.47-.87,5,5,0,0,0-1.56-.527,8.02,8.02,0,0,1-1.819-.58,2.428,2.428,0,0,1-1.6-2.241,2.531,2.531,0,0,1,1.037-2.057,4.1,4.1,0,0,1,2.637-.826,4.266,4.266,0,0,1,2.755.844,2.677,2.677,0,0,1,1.05,2.188H50.317a1.316,1.316,0,0,0-.457-1.024,1.752,1.752,0,0,0-1.213-.409,1.893,1.893,0,0,0-1.147.325,1.025,1.025,0,0,0-.444.87.866.866,0,0,0,.413.765,5.68,5.68,0,0,0,1.67.549,7.9,7.9,0,0,1,1.973.659A2.794,2.794,0,0,1,52.176-4a2.342,2.342,0,0,1,.347,1.3A2.478,2.478,0,0,1,51.46-.62a4.535,4.535,0,0,1-2.786.8,4.917,4.917,0,0,1-2.083-.422,3.428,3.428,0,0,1-1.424-1.16A2.746,2.746,0,0,1,44.657-3h2.074A1.5,1.5,0,0,0,47.3-1.833a2.22,2.22,0,0,0,1.4.409,2.16,2.16,0,0,0,1.283-.321A.993.993,0,0,0,50.423-2.584ZM-22.346,22.293l2.013-6.8h2.206l-3.3,9.51h-1.854L-26.6,15.49h2.215Zm9.738,2.883A4.419,4.419,0,0,1-15.9,23.9a4.639,4.639,0,0,1-1.261-3.406v-.264a5.706,5.706,0,0,1,.549-2.544,4.181,4.181,0,0,1,1.542-1.745,4.078,4.078,0,0,1,2.215-.624,3.733,3.733,0,0,1,3,1.239,5.24,5.24,0,0,1,1.059,3.507v.861h-6.214a2.856,2.856,0,0,0,.787,1.863,2.362,2.362,0,0,0,1.736.686,2.892,2.892,0,0,0,2.391-1.187l1.151,1.1a3.845,3.845,0,0,1-1.525,1.323A4.774,4.774,0,0,1-12.608,25.176Zm-.255-8.147a1.8,1.8,0,0,0-1.419.615,3.189,3.189,0,0,0-.69,1.714H-10.9V19.2a2.6,2.6,0,0,0-.571-1.622A1.785,1.785,0,0,0-12.863,17.028Zm7.708-1.538.062,1.1a3.419,3.419,0,0,1,2.769-1.274q2.971,0,3.023,3.4V25H-1.437V18.839a1.958,1.958,0,0,0-.391-1.34,1.645,1.645,0,0,0-1.279-.435,2.058,2.058,0,0,0-1.925,1.169V25H-7.167V15.49ZM5.55,13.179V15.49H7.229v1.582H5.55v5.309a1.169,1.169,0,0,0,.215.787,1,1,0,0,0,.769.242,3.29,3.29,0,0,0,.747-.088v1.652a5.26,5.26,0,0,1-1.406.2q-2.461,0-2.461-2.716V17.072H1.85V15.49H3.415V13.179ZM14.542,25a3.3,3.3,0,0,1-.246-.888,3.325,3.325,0,0,1-2.5,1.063,3.355,3.355,0,0,1-2.338-.817,2.615,2.615,0,0,1-.905-2.021A2.7,2.7,0,0,1,9.686,20a5.473,5.473,0,0,1,3.23-.813h1.31v-.624a1.666,1.666,0,0,0-.413-1.182,1.638,1.638,0,0,0-1.257-.444,1.881,1.881,0,0,0-1.2.365,1.129,1.129,0,0,0-.466.927H8.758a2.37,2.37,0,0,1,.519-1.463A3.455,3.455,0,0,1,10.688,15.7a4.955,4.955,0,0,1,1.991-.387,3.99,3.99,0,0,1,2.663.839,2.993,2.993,0,0,1,1.02,2.36V22.8a4.861,4.861,0,0,0,.36,2.048V25Zm-2.347-1.538a2.429,2.429,0,0,0,1.191-.308,2.055,2.055,0,0,0,.839-.826V20.535H13.074a3.148,3.148,0,0,0-1.784.413,1.338,1.338,0,0,0-.6,1.169,1.248,1.248,0,0,0,.409.98A1.583,1.583,0,0,0,12.195,23.462Zm11.733-1.046a.968.968,0,0,0-.47-.87,5,5,0,0,0-1.56-.527,8.02,8.02,0,0,1-1.819-.58,2.428,2.428,0,0,1-1.6-2.241,2.531,2.531,0,0,1,1.037-2.057,4.1,4.1,0,0,1,2.637-.826,4.266,4.266,0,0,1,2.755.844,2.677,2.677,0,0,1,1.05,2.188H23.823a1.316,1.316,0,0,0-.457-1.024,1.752,1.752,0,0,0-1.213-.409,1.893,1.893,0,0,0-1.147.325,1.025,1.025,0,0,0-.444.87.866.866,0,0,0,.413.765,5.68,5.68,0,0,0,1.67.549,7.9,7.9,0,0,1,1.973.659A2.794,2.794,0,0,1,25.682,21a2.342,2.342,0,0,1,.347,1.3,2.478,2.478,0,0,1-1.063,2.079,4.535,4.535,0,0,1-2.786.8,4.917,4.917,0,0,1-2.083-.422,3.428,3.428,0,0,1-1.424-1.16A2.746,2.746,0,0,1,18.163,22h2.074a1.5,1.5,0,0,0,.571,1.165,2.22,2.22,0,0,0,1.4.409,2.16,2.16,0,0,0,1.283-.321A.993.993,0,0,0,23.928,22.416Z" transform="translate(800 3938)" fill="#12263f"/>
    <circle id="Elipse_4848" data-name="Elipse 4848" cx="27.5" cy="27.5" r="27.5" transform="translate(773 3812)" fill="#ea3584"/>
    <path id="Trazado_596927" data-name="Trazado 596927" d="M-2.812-12.29H-.645a3.88,3.88,0,0,0,2.6-.85,3.031,3.031,0,0,0,.959-2.417,3.3,3.3,0,0,0-.8-2.366,3.213,3.213,0,0,0-2.439-.842,3.4,3.4,0,0,0-2.358.828A2.765,2.765,0,0,0-3.6-15.776h-3.56a5.388,5.388,0,0,1,.872-2.988,5.856,5.856,0,0,1,2.432-2.1,7.921,7.921,0,0,1,3.494-.754,7.336,7.336,0,0,1,5.017,1.6,5.629,5.629,0,0,1,1.824,4.46,4.532,4.532,0,0,1-.916,2.7,5.741,5.741,0,0,1-2.366,1.912,5.233,5.233,0,0,1,2.673,1.89,5.174,5.174,0,0,1,.916,3.076,5.728,5.728,0,0,1-1.97,4.57A7.649,7.649,0,0,1-.366.293,7.592,7.592,0,0,1-5.405-1.348,5.4,5.4,0,0,1-7.368-5.713h3.56a2.978,2.978,0,0,0,.945,2.285,3.583,3.583,0,0,0,2.542.879,3.7,3.7,0,0,0,2.607-.879,3.3,3.3,0,0,0,.952-2.549,3.331,3.331,0,0,0-1-2.593A4.259,4.259,0,0,0-.718-9.478H-2.812Z" transform="translate(801 3850)" fill="#fff"/>
    <g id="Grupo_874289" data-name="Grupo 874289">
      <circle id="Elipse_4853" data-name="Elipse 4853" cx="52.5" cy="52.5" r="52.5" transform="translate(748 4003)" fill="#f6f6f6"/>
      <g id="Grupo_874280" data-name="Grupo 874280" transform="translate(773 4024.371)">
        <g id="Grupo_874279" data-name="Grupo 874279" clip-path="url(#clip-path)">
          <path id="Trazado_596160" data-name="Trazado 596160" d="M52.223,40.806H7.1a4.675,4.675,0,0,1-4.67-4.67V4.67A4.675,4.675,0,0,1,7.1,0H52.273A4.675,4.675,0,0,1,56.892,4.67V36.136a4.675,4.675,0,0,1-4.669,4.67M7.1,1.439A3.234,3.234,0,0,0,3.867,4.67V36.136A3.234,3.234,0,0,0,7.1,39.367H52.223a3.234,3.234,0,0,0,3.23-3.231V4.67a3.234,3.234,0,0,0-3.23-3.231Z" transform="translate(-1.793 0)" fill="#344154"/>
          <path id="Trazado_596161" data-name="Trazado 596161" d="M75.447,158H43.579a.72.72,0,0,1-.669-.984l2.41-6.092a.72.72,0,1,1,1.338.53l-2.021,5.108H74.389l-2.021-5.108a.72.72,0,1,1,1.339-.53l2.41,6.092a.72.72,0,0,1-.669.984" transform="translate(-31.646 -111.1)" fill="#344154"/>
          <path id="Trazado_596162" data-name="Trazado 596162" d="M53.133,203.964H2.6a2.6,2.6,0,0,1-2.272-3.857l4.614-8.325a.719.719,0,0,1,.629-.371H50.162a.72.72,0,0,1,.629.371l4.614,8.325a2.6,2.6,0,0,1-2.272,3.857M6,192.85,1.587,200.8a1.159,1.159,0,0,0,1.013,1.72H53.133a1.159,1.159,0,0,0,1.013-1.72l-4.409-7.955Z" transform="translate(0 -141.332)" fill="#344154"/>
          <path id="Trazado_596163" data-name="Trazado 596163" d="M16.081,210.421l3.029-5.465H60.372l3.029,5.465Z" transform="translate(-11.874 -151.333)" fill="#6826cc"/>
          <path id="Trazado_596164" data-name="Trazado 596164" d="M155.232,44.81a.72.72,0,0,1-.63-1.066l5.931-10.8a.719.719,0,1,1,1.261.693l-5.931,10.8a.719.719,0,0,1-.631.373" transform="translate(-114.088 -24.051)" fill="#344154"/>
          <path id="Trazado_596165" data-name="Trazado 596165" d="M176.824,60.693a2.643,2.643,0,0,1-2.64-2.639v-1.33a2.64,2.64,0,0,1,5.279,0v1.33a2.643,2.643,0,0,1-2.64,2.639m0-5.17a1.2,1.2,0,0,0-1.2,1.2v1.33a1.2,1.2,0,0,0,2.4,0v-1.33a1.2,1.2,0,0,0-1.2-1.2" transform="translate(-128.612 -39.934)" fill="#344154"/>
          <path id="Trazado_596166" data-name="Trazado 596166" d="M145.984,39.183a2.643,2.643,0,0,1-2.639-2.64v-1.33a2.639,2.639,0,0,1,5.279,0v1.33a2.643,2.643,0,0,1-2.64,2.64m0-5.17a1.2,1.2,0,0,0-1.2,1.2v1.33a1.2,1.2,0,1,0,2.4,0v-1.33a1.2,1.2,0,0,0-1.2-1.2" transform="translate(-105.842 -24.052)" fill="#344154"/>
          <path id="Trazado_596167" data-name="Trazado 596167" d="M95.91,53.751a.719.719,0,0,1-.719-.719V24.047H87.757V53.032a.719.719,0,1,1-1.439,0v-29.7a.719.719,0,0,1,.719-.719H95.91a.719.719,0,0,1,.719.719v29.7a.719.719,0,0,1-.719.719" transform="translate(-63.735 -16.693)" fill="#344154"/>
          <path id="Trazado_596168" data-name="Trazado 596168" d="M53.126,81.4a.719.719,0,0,1-.719-.719V60.923a.72.72,0,0,1,.719-.719H62a.719.719,0,1,1,0,1.439H53.846V80.679a.719.719,0,0,1-.719.719" transform="translate(-38.696 -44.453)" fill="#344154"/>
          <path id="Trazado_596169" data-name="Trazado 596169" d="M129.821,103.251a.719.719,0,0,1-.719-.719V91.24h-8.153a.719.719,0,0,1,0-1.439h8.872a.719.719,0,0,1,.719.719v12.011a.719.719,0,0,1-.719.719" transform="translate(-88.773 -66.306)" fill="#344154"/>
        </g>
      </g>
    </g>
  </g>
</svg>
