<svg xmlns="http://www.w3.org/2000/svg" xmlns:xlink="http://www.w3.org/1999/xlink" width="190" height="296" viewBox="0 0 190 296">
  <defs>
    <clipPath id="clip-path">
      <rect id="Rect치ngulo_293517" data-name="Rect치ngulo 293517" width="87.301" height="65.97" fill="none"/>
    </clipPath>
  </defs>
  <g id="Grupo_874360" data-name="Grupo 874360" transform="translate(-915 -3812)">
    <rect id="Rect치ngulo_293513" data-name="Rect치ngulo 293513" width="190" height="209" transform="translate(915 3839)" fill="#fffae7"/>
    <path id="Trazado_596930" data-name="Trazado 596930" d="M-62.956-1.775h5.81V0H-65.18V-12.8h2.224ZM-49.966,0a3.3,3.3,0,0,1-.246-.888,3.325,3.325,0,0,1-2.5,1.063,3.355,3.355,0,0,1-2.338-.817,2.615,2.615,0,0,1-.905-2.021A2.7,2.7,0,0,1-54.822-5a5.473,5.473,0,0,1,3.23-.813h1.31v-.624A1.666,1.666,0,0,0-50.7-7.616a1.638,1.638,0,0,0-1.257-.444,1.881,1.881,0,0,0-1.2.365,1.129,1.129,0,0,0-.466.927h-2.136a2.37,2.37,0,0,1,.519-1.463A3.455,3.455,0,0,1-53.82-9.3a4.955,4.955,0,0,1,1.991-.387,3.99,3.99,0,0,1,2.663.839,2.993,2.993,0,0,1,1.02,2.36V-2.2a4.861,4.861,0,0,0,.36,2.048V0Zm-2.347-1.538a2.429,2.429,0,0,0,1.191-.308,2.055,2.055,0,0,0,.839-.826V-4.465h-1.151a3.148,3.148,0,0,0-1.784.413,1.338,1.338,0,0,0-.6,1.169,1.248,1.248,0,0,0,.409.98A1.583,1.583,0,0,0-52.312-1.538Zm8.385-7.972.062,1.1A3.419,3.419,0,0,1-41.1-9.686q2.971,0,3.023,3.4V0H-40.21V-6.161A1.958,1.958,0,0,0-40.6-7.5a1.645,1.645,0,0,0-1.279-.435A2.058,2.058,0,0,0-43.8-6.768V0H-45.94V-9.51Zm10.31,7.8h5.063V0h-7.717V-1.4l4.825-6.39h-4.737V-9.51h7.444v1.354ZM-21.164,0a3.3,3.3,0,0,1-.246-.888,3.325,3.325,0,0,1-2.5,1.063,3.355,3.355,0,0,1-2.338-.817,2.615,2.615,0,0,1-.905-2.021A2.7,2.7,0,0,1-26.02-5a5.473,5.473,0,0,1,3.23-.813h1.31v-.624a1.666,1.666,0,0,0-.413-1.182A1.638,1.638,0,0,0-23.15-8.06a1.881,1.881,0,0,0-1.2.365,1.129,1.129,0,0,0-.466.927h-2.136a2.37,2.37,0,0,1,.519-1.463A3.455,3.455,0,0,1-25.018-9.3a4.955,4.955,0,0,1,1.991-.387,3.99,3.99,0,0,1,2.663.839,2.993,2.993,0,0,1,1.02,2.36V-2.2a4.861,4.861,0,0,0,.36,2.048V0Zm-2.347-1.538a2.429,2.429,0,0,0,1.191-.308,2.055,2.055,0,0,0,.839-.826V-4.465h-1.151a3.148,3.148,0,0,0-1.784.413,1.338,1.338,0,0,0-.6,1.169,1.248,1.248,0,0,0,.409.98A1.583,1.583,0,0,0-23.511-1.538ZM-15.1-9.51l.062.993A3.422,3.422,0,0,1-12.3-9.686a2.629,2.629,0,0,1,2.61,1.459A3.373,3.373,0,0,1-6.768-9.686a2.965,2.965,0,0,1,2.342.87,3.831,3.831,0,0,1,.787,2.566V0H-5.774V-6.187a1.891,1.891,0,0,0-.4-1.327,1.731,1.731,0,0,0-1.31-.422,1.778,1.778,0,0,0-1.191.391,2.063,2.063,0,0,0-.646,1.024L-9.308,0h-2.136V-6.258a1.523,1.523,0,0,0-1.714-1.679,1.88,1.88,0,0,0-1.819,1.046V0h-2.136V-9.51ZM.826,0H-1.31V-9.51H.826ZM-1.441-11.979a1.133,1.133,0,0,1,.312-.817,1.179,1.179,0,0,1,.892-.325,1.193,1.193,0,0,1,.9.325,1.125,1.125,0,0,1,.316.817,1.1,1.1,0,0,1-.316.8,1.2,1.2,0,0,1-.9.321,1.188,1.188,0,0,1-.892-.321A1.107,1.107,0,0,1-1.441-11.979ZM7.339.176A4.419,4.419,0,0,1,4.047-1.1,4.639,4.639,0,0,1,2.786-4.509v-.264a5.706,5.706,0,0,1,.549-2.544A4.181,4.181,0,0,1,4.878-9.062a4.078,4.078,0,0,1,2.215-.624,3.733,3.733,0,0,1,3,1.239,5.24,5.24,0,0,1,1.059,3.507v.861H4.939a2.856,2.856,0,0,0,.787,1.863,2.362,2.362,0,0,0,1.736.686A2.892,2.892,0,0,0,9.853-2.716L11-1.617A3.845,3.845,0,0,1,9.479-.294,4.774,4.774,0,0,1,7.339.176ZM7.084-7.972a1.8,1.8,0,0,0-1.419.615,3.189,3.189,0,0,0-.69,1.714H9.044V-5.8a2.6,2.6,0,0,0-.571-1.622A1.785,1.785,0,0,0,7.084-7.972ZM14.792-9.51l.062,1.1a3.419,3.419,0,0,1,2.769-1.274q2.971,0,3.023,3.4V0H18.51V-6.161a1.958,1.958,0,0,0-.391-1.34,1.645,1.645,0,0,0-1.279-.435,2.058,2.058,0,0,0-1.925,1.169V0H12.779V-9.51ZM25.5-11.821V-9.51h1.679v1.582H25.5v5.309a1.169,1.169,0,0,0,.215.787,1,1,0,0,0,.769.242,3.29,3.29,0,0,0,.747-.088V-.026a5.26,5.26,0,0,1-1.406.2q-2.461,0-2.461-2.716V-7.928H21.8V-9.51h1.564v-2.312Zm2.646,6.979A5.607,5.607,0,0,1,28.7-7.361a4.044,4.044,0,0,1,1.556-1.723,4.383,4.383,0,0,1,2.3-.6,4.154,4.154,0,0,1,3.125,1.239,4.874,4.874,0,0,1,1.3,3.287l.009.5a5.658,5.658,0,0,1-.541,2.514A4,4,0,0,1,34.9-.431a4.415,4.415,0,0,1-2.325.606,4.125,4.125,0,0,1-3.221-1.34,5.133,5.133,0,0,1-1.208-3.573Zm2.136.185a3.832,3.832,0,0,0,.606,2.3,1.971,1.971,0,0,0,1.688.831,1.95,1.95,0,0,0,1.683-.844,4.232,4.232,0,0,0,.6-2.47,3.782,3.782,0,0,0-.62-2.285,1.979,1.979,0,0,0-1.683-.844,1.96,1.96,0,0,0-1.661.831A4.152,4.152,0,0,0,30.278-4.658Zm12.595-.167a5.654,5.654,0,0,1,1.02-3.529,3.267,3.267,0,0,1,2.733-1.332,3.1,3.1,0,0,1,2.443,1.055V-13.5h2.136V0H49.271l-.105-.984A3.148,3.148,0,0,1,46.608.176a3.248,3.248,0,0,1-2.7-1.345A5.861,5.861,0,0,1,42.873-4.825Zm2.136.185a3.958,3.958,0,0,0,.558,2.263,1.811,1.811,0,0,0,1.586.813,2.017,2.017,0,0,0,1.916-1.169V-6.794a1.986,1.986,0,0,0-1.9-1.143,1.824,1.824,0,0,0-1.6.822A4.408,4.408,0,0,0,45.009-4.641ZM57.621.176A4.419,4.419,0,0,1,54.33-1.1a4.639,4.639,0,0,1-1.261-3.406v-.264a5.706,5.706,0,0,1,.549-2.544A4.181,4.181,0,0,1,55.16-9.062a4.078,4.078,0,0,1,2.215-.624,3.733,3.733,0,0,1,3,1.239,5.24,5.24,0,0,1,1.059,3.507v.861H55.222a2.856,2.856,0,0,0,.787,1.863,2.362,2.362,0,0,0,1.736.686,2.892,2.892,0,0,0,2.391-1.187l1.151,1.1A3.845,3.845,0,0,1,59.761-.294,4.774,4.774,0,0,1,57.621.176Zm-.255-8.147a1.8,1.8,0,0,0-1.419.615,3.189,3.189,0,0,0-.69,1.714h4.069V-5.8a2.6,2.6,0,0,0-.571-1.622A1.785,1.785,0,0,0,57.366-7.972Zm-90.8,28.313a5.662,5.662,0,0,1-1,3.52,3.209,3.209,0,0,1-2.689,1.314,3.23,3.23,0,0,1-2.5-1.028v4.509H-41.77V15.49H-39.8l.088.967a3.137,3.137,0,0,1,2.558-1.143,3.242,3.242,0,0,1,2.729,1.3,5.813,5.813,0,0,1,.989,3.6Zm-2.127-.185a3.966,3.966,0,0,0-.567-2.259,1.843,1.843,0,0,0-1.622-.835,1.965,1.965,0,0,0-1.881,1.081v4.219a1.983,1.983,0,0,0,1.9,1.107,1.841,1.841,0,0,0,1.6-.822A4.366,4.366,0,0,0-35.565,20.157Zm8.912-2.716a5.285,5.285,0,0,0-.87-.07A1.959,1.959,0,0,0-29.5,18.5V25h-2.136V15.49H-29.6l.053,1.063A2.406,2.406,0,0,1-27.4,15.314a2,2,0,0,1,.756.123Zm.633,2.716a5.607,5.607,0,0,1,.554-2.518,4.044,4.044,0,0,1,1.556-1.723,4.383,4.383,0,0,1,2.3-.6,4.154,4.154,0,0,1,3.125,1.239,4.874,4.874,0,0,1,1.3,3.287l.009.5a5.658,5.658,0,0,1-.541,2.514,4,4,0,0,1-1.547,1.714,4.415,4.415,0,0,1-2.325.606,4.125,4.125,0,0,1-3.221-1.34,5.133,5.133,0,0,1-1.208-3.573Zm2.136.185a3.832,3.832,0,0,0,.606,2.3,1.971,1.971,0,0,0,1.688.831,1.95,1.95,0,0,0,1.683-.844,4.232,4.232,0,0,0,.6-2.47,3.782,3.782,0,0,0-.62-2.285,1.979,1.979,0,0,0-1.683-.844,1.96,1.96,0,0,0-1.661.831A4.152,4.152,0,0,0-23.884,20.342Zm8.112-.167a5.654,5.654,0,0,1,1.02-3.529,3.267,3.267,0,0,1,2.733-1.332,3.1,3.1,0,0,1,2.443,1.055V11.5H-7.44V25H-9.374l-.105-.984a3.148,3.148,0,0,1-2.558,1.16,3.248,3.248,0,0,1-2.7-1.345A5.861,5.861,0,0,1-15.772,20.175Zm2.136.185a3.958,3.958,0,0,0,.558,2.263,1.811,1.811,0,0,0,1.586.813,2.017,2.017,0,0,0,1.916-1.169V18.206a1.986,1.986,0,0,0-1.9-1.143,1.824,1.824,0,0,0-1.6.822A4.408,4.408,0,0,0-13.636,20.359ZM.549,24.068a3.312,3.312,0,0,1-2.672,1.107,2.952,2.952,0,0,1-2.342-.905,3.851,3.851,0,0,1-.8-2.619V15.49h2.136v6.135q0,1.811,1.5,1.811a2.111,2.111,0,0,0,2.1-1.116V15.49H2.615V25H.6Zm8.147-.6A1.931,1.931,0,0,0,10.024,23a1.591,1.591,0,0,0,.563-1.151H12.6a3.137,3.137,0,0,1-.554,1.657,3.632,3.632,0,0,1-1.406,1.217,4.191,4.191,0,0,1-1.916.448,4.055,4.055,0,0,1-3.164-1.292A5.124,5.124,0,0,1,4.39,20.315V20.1A5.039,5.039,0,0,1,5.55,16.62a4.018,4.018,0,0,1,3.164-1.305,3.907,3.907,0,0,1,2.764.989A3.542,3.542,0,0,1,12.6,18.9H10.586a1.956,1.956,0,0,0-.558-1.345A1.8,1.8,0,0,0,8.7,17.028a1.879,1.879,0,0,0-1.6.751,3.834,3.834,0,0,0-.571,2.281V20.4a3.9,3.9,0,0,0,.558,2.307A1.878,1.878,0,0,0,8.7,23.471Zm8.191-10.292V15.49h1.679v1.582H16.888v5.309a1.169,1.169,0,0,0,.215.787,1,1,0,0,0,.769.242,3.29,3.29,0,0,0,.747-.088v1.652a5.26,5.26,0,0,1-1.406.2q-2.461,0-2.461-2.716V17.072H13.188V15.49h1.564V13.179Zm2.646,6.979a5.607,5.607,0,0,1,.554-2.518,4.044,4.044,0,0,1,1.556-1.723,4.383,4.383,0,0,1,2.3-.6,4.154,4.154,0,0,1,3.125,1.239,4.874,4.874,0,0,1,1.3,3.287l.009.5a5.658,5.658,0,0,1-.541,2.514,4,4,0,0,1-1.547,1.714,4.415,4.415,0,0,1-2.325.606,4.125,4.125,0,0,1-3.221-1.34,5.133,5.133,0,0,1-1.208-3.573Zm2.136.185a3.832,3.832,0,0,0,.606,2.3,1.971,1.971,0,0,0,1.688.831,1.95,1.95,0,0,0,1.683-.844,4.232,4.232,0,0,0,.6-2.47,3.782,3.782,0,0,0-.62-2.285,2.089,2.089,0,0,0-3.344-.013A4.152,4.152,0,0,0,21.669,20.342Zm13.843,2.074a.968.968,0,0,0-.47-.87,5,5,0,0,0-1.56-.527,8.02,8.02,0,0,1-1.819-.58,2.428,2.428,0,0,1-1.6-2.241A2.531,2.531,0,0,1,31.1,16.141a4.1,4.1,0,0,1,2.637-.826,4.266,4.266,0,0,1,2.755.844,2.677,2.677,0,0,1,1.05,2.188H35.407a1.316,1.316,0,0,0-.457-1.024,1.752,1.752,0,0,0-1.213-.409,1.893,1.893,0,0,0-1.147.325,1.025,1.025,0,0,0-.444.87.866.866,0,0,0,.413.765,5.68,5.68,0,0,0,1.67.549,7.9,7.9,0,0,1,1.973.659A2.794,2.794,0,0,1,37.266,21a2.342,2.342,0,0,1,.347,1.3,2.478,2.478,0,0,1-1.063,2.079,4.535,4.535,0,0,1-2.786.8,4.917,4.917,0,0,1-2.083-.422,3.428,3.428,0,0,1-1.424-1.16A2.746,2.746,0,0,1,29.747,22h2.074a1.5,1.5,0,0,0,.571,1.165,2.22,2.22,0,0,0,1.4.409,2.16,2.16,0,0,0,1.283-.321A.993.993,0,0,0,35.512,22.416Zm-64.283,27.76A4.419,4.419,0,0,1-32.062,48.9a4.639,4.639,0,0,1-1.261-3.406v-.264a5.706,5.706,0,0,1,.549-2.544,4.181,4.181,0,0,1,1.542-1.745,4.078,4.078,0,0,1,2.215-.624,3.733,3.733,0,0,1,3,1.239,5.24,5.24,0,0,1,1.059,3.507v.861H-31.17a2.856,2.856,0,0,0,.787,1.863,2.362,2.362,0,0,0,1.736.686,2.892,2.892,0,0,0,2.391-1.187l1.151,1.1a3.845,3.845,0,0,1-1.525,1.323A4.774,4.774,0,0,1-28.771,50.176Zm-.255-8.147a1.8,1.8,0,0,0-1.419.615,3.189,3.189,0,0,0-.69,1.714h4.069V44.2a2.6,2.6,0,0,0-.571-1.622A1.785,1.785,0,0,0-29.026,42.028Zm9.141,1.591,1.811-3.129H-15.7l-2.909,4.685L-15.6,50H-17.96l-1.9-3.252L-21.749,50h-2.373l3.006-4.825-2.9-4.685h2.355ZM-11.975,50h-2.136V40.49h2.136Zm-2.268-11.979a1.133,1.133,0,0,1,.312-.817,1.179,1.179,0,0,1,.892-.325,1.193,1.193,0,0,1,.9.325,1.125,1.125,0,0,1,.316.817,1.1,1.1,0,0,1-.316.8,1.2,1.2,0,0,1-.9.321,1.188,1.188,0,0,1-.892-.321A1.107,1.107,0,0,1-14.243,38.021Zm7.269.158V40.49H-5.3v1.582H-6.974v5.309a1.169,1.169,0,0,0,.215.787,1,1,0,0,0,.769.242,3.29,3.29,0,0,0,.747-.088v1.652a5.26,5.26,0,0,1-1.406.2q-2.461,0-2.461-2.716V42.072h-1.564V40.49H-9.11V38.179Zm2.646,6.979a5.607,5.607,0,0,1,.554-2.518,4.044,4.044,0,0,1,1.556-1.723,4.383,4.383,0,0,1,2.3-.6,4.154,4.154,0,0,1,3.125,1.239,4.874,4.874,0,0,1,1.3,3.287l.009.5a5.658,5.658,0,0,1-.541,2.514,4,4,0,0,1-1.547,1.714A4.415,4.415,0,0,1,.1,50.176a4.125,4.125,0,0,1-3.221-1.34,5.133,5.133,0,0,1-1.208-3.573Zm2.136.185a3.832,3.832,0,0,0,.606,2.3A1.971,1.971,0,0,0,.1,48.471a1.95,1.95,0,0,0,1.683-.844,4.232,4.232,0,0,0,.6-2.47,3.782,3.782,0,0,0-.62-2.285,1.979,1.979,0,0,0-1.683-.844,1.96,1.96,0,0,0-1.661.831A4.152,4.152,0,0,0-2.193,45.342ZM11.65,47.416a.968.968,0,0,0-.47-.87,5,5,0,0,0-1.56-.527,8.02,8.02,0,0,1-1.819-.58A2.428,2.428,0,0,1,6.2,43.2a2.531,2.531,0,0,1,1.037-2.057,4.1,4.1,0,0,1,2.637-.826,4.266,4.266,0,0,1,2.755.844,2.677,2.677,0,0,1,1.05,2.188H11.544a1.316,1.316,0,0,0-.457-1.024,1.752,1.752,0,0,0-1.213-.409,1.893,1.893,0,0,0-1.147.325,1.025,1.025,0,0,0-.444.87.866.866,0,0,0,.413.765,5.68,5.68,0,0,0,1.67.549,7.9,7.9,0,0,1,1.973.659A2.794,2.794,0,0,1,13.4,46a2.342,2.342,0,0,1,.347,1.3,2.478,2.478,0,0,1-1.063,2.079,4.535,4.535,0,0,1-2.786.8,4.917,4.917,0,0,1-2.083-.422,3.428,3.428,0,0,1-1.424-1.16A2.746,2.746,0,0,1,5.884,47H7.958a1.5,1.5,0,0,0,.571,1.165,2.22,2.22,0,0,0,1.4.409,2.16,2.16,0,0,0,1.283-.321A.993.993,0,0,0,11.65,47.416Zm3.56-2.259a5.607,5.607,0,0,1,.554-2.518,4.044,4.044,0,0,1,1.556-1.723,4.383,4.383,0,0,1,2.3-.6,4.154,4.154,0,0,1,3.125,1.239,4.874,4.874,0,0,1,1.3,3.287l.009.5a5.658,5.658,0,0,1-.541,2.514,4,4,0,0,1-1.547,1.714,4.415,4.415,0,0,1-2.325.606,4.125,4.125,0,0,1-3.221-1.34,5.133,5.133,0,0,1-1.208-3.573Zm2.136.185a3.832,3.832,0,0,0,.606,2.3,1.971,1.971,0,0,0,1.688.831,1.95,1.95,0,0,0,1.683-.844,4.232,4.232,0,0,0,.6-2.47,3.782,3.782,0,0,0-.62-2.285,2.089,2.089,0,0,0-3.344-.013A4.152,4.152,0,0,0,17.345,45.342Zm13.843,2.074a.968.968,0,0,0-.47-.87,5,5,0,0,0-1.56-.527,8.02,8.02,0,0,1-1.819-.58,2.428,2.428,0,0,1-1.6-2.241,2.531,2.531,0,0,1,1.037-2.057,4.1,4.1,0,0,1,2.637-.826,4.266,4.266,0,0,1,2.755.844,2.677,2.677,0,0,1,1.05,2.188H31.083a1.316,1.316,0,0,0-.457-1.024,1.752,1.752,0,0,0-1.213-.409,1.893,1.893,0,0,0-1.147.325,1.025,1.025,0,0,0-.444.87.866.866,0,0,0,.413.765,5.68,5.68,0,0,0,1.67.549,7.9,7.9,0,0,1,1.973.659A2.794,2.794,0,0,1,32.941,46a2.342,2.342,0,0,1,.347,1.3,2.478,2.478,0,0,1-1.063,2.079,4.535,4.535,0,0,1-2.786.8,4.917,4.917,0,0,1-2.083-.422,3.428,3.428,0,0,1-1.424-1.16A2.746,2.746,0,0,1,25.422,47H27.5a1.5,1.5,0,0,0,.571,1.165,2.22,2.22,0,0,0,1.4.409,2.16,2.16,0,0,0,1.283-.321A.993.993,0,0,0,31.188,47.416Z" transform="translate(1010 3926)" fill="#12263f"/>
    <circle id="Elipse_4849" data-name="Elipse 4849" cx="27.5" cy="27.5" r="27.5" transform="translate(983 3812)" fill="#ea3584"/>
    <path id="Trazado_596929" data-name="Trazado 596929" d="M5.112-7.6H7.764v2.856H5.112V0H1.553V-4.746H-7.661l-.1-2.168,9.2-14.414H5.112Zm-9.141,0H1.553v-8.906l-.264.469Z" transform="translate(1011 3850)" fill="#fff"/>
    <g id="Grupo_874290" data-name="Grupo 874290">
      <circle id="Elipse_4854" data-name="Elipse 4854" cx="52.5" cy="52.5" r="52.5" transform="translate(958 4003)" fill="#f6f6f6"/>
      <g id="Grupo_874282" data-name="Grupo 874282" transform="translate(967.349 4025.849)">
        <g id="Grupo_874281" data-name="Grupo 874281" clip-path="url(#clip-path)">
          <path id="Trazado_596170" data-name="Trazado 596170" d="M56.564,30.371a.878.878,0,0,1-.44-.118l-22-12.7a.881.881,0,0,1,0-1.529L62.017.115a.883.883,0,0,1,.873,0L75.7,7.425a.882.882,0,0,1-.874,1.531L62.453,1.9l-26.114,14.9L57.006,28.726a.881.881,0,0,1-.442,1.645" transform="translate(-22.889 0.001)" fill="#344154"/>
          <path id="Trazado_596171" data-name="Trazado 596171" d="M62.453,137.814a.88.88,0,0,1-.441-.118L34.128,121.6a.881.881,0,0,1-.441-.763V106.616a.881.881,0,0,1,1.763,0v13.707l27,15.591,27-15.591V107.033a.881.881,0,1,1,1.763,0v13.8a.881.881,0,0,1-.441.763L62.894,137.7a.88.88,0,0,1-.441.118" transform="translate(-22.889 -71.844)" fill="#344154"/>
          <path id="Trazado_596172" data-name="Trazado 596172" d="M121.564,137.682a.881.881,0,0,1-.881-.881V122.333a.881.881,0,1,1,1.763,0V136.8a.881.881,0,0,1-.881.881" transform="translate(-82.001 -82.523)" fill="#344154"/>
          <path id="Trazado_596173" data-name="Trazado 596173" d="M125.41,103.844a.878.878,0,0,1-.44-.118l-3.847-2.221A.881.881,0,1,1,122,99.978l3.847,2.221a.881.881,0,0,1-.442,1.645" transform="translate(-82 -67.851)" fill="#344154"/>
          <path id="Trazado_596174" data-name="Trazado 596174" d="M28.766,73.73a.88.88,0,0,1-.441-.118L.441,57.513a.881.881,0,0,1,0-1.526l10.8-6.234a.881.881,0,1,1,.881,1.527l-9.475,5.47L28.766,71.831l10.357-5.98A.881.881,0,0,1,40,67.378l-10.8,6.234a.88.88,0,0,1-.441.118" transform="translate(0 -33.725)" fill="#344154"/>
          <path id="Trazado_596175" data-name="Trazado 596175" d="M197.867,32.256l1.358,2.753a2.03,2.03,0,0,0,1.529,1.111l3.038.442-2.2,2.142a2.032,2.032,0,0,0-.584,1.8l.519,3.025L198.812,42.1a2.031,2.031,0,0,0-1.89,0l-2.717,1.429.519-3.025a2.031,2.031,0,0,0-.584-1.8l-2.2-2.142,3.038-.442a2.03,2.03,0,0,0,1.529-1.111Z" transform="translate(-130.419 -21.917)" fill="#6826cc"/>
          <path id="Trazado_596176" data-name="Trazado 596176" d="M178.031,36.519a15.283,15.283,0,1,1,15.283-15.283,15.3,15.3,0,0,1-15.283,15.283m0-28.8a13.52,13.52,0,1,0,13.52,13.52,13.535,13.535,0,0,0-13.52-13.52" transform="translate(-110.582 -4.045)" fill="#344154"/>
          <path id="Trazado_596177" data-name="Trazado 596177" d="M227.154,99.163a.881.881,0,0,1-.716-.368l-6.978-9.728a.881.881,0,0,1,1.432-1.028l5.738,8,.825-5a.882.882,0,0,1,1.013-.726l4.955.818-3.881-5.254a.881.881,0,0,1,1.418-1.048l5.172,7a.882.882,0,0,1-.853,1.393L229.051,92.2l-1.028,6.229a.881.881,0,0,1-.87.738" transform="translate(-149.004 -57.396)" fill="#344154"/>
          <path id="Trazado_596178" data-name="Trazado 596178" d="M157.643,99.163a.872.872,0,0,1-.2-.023.881.881,0,0,1-.669-.715L155.746,92.2l-6.229,1.028a.882.882,0,0,1-.852-1.393l5.172-7a.881.881,0,0,1,1.418,1.048l-3.881,5.254,4.956-.818a.881.881,0,0,1,1.013.726l.825,5,5.738-8a.881.881,0,0,1,1.432,1.028L158.359,98.8a.881.881,0,0,1-.716.368" transform="translate(-100.896 -57.396)" fill="#344154"/>
          <path id="Trazado_596179" data-name="Trazado 596179" d="M67.209,45.96V34.2L56.963,40.044Z" transform="translate(-38.705 -23.237)" fill="#6826cc"/>
        </g>
      </g>
    </g>
  </g>
</svg>
