<svg xmlns="http://www.w3.org/2000/svg" xmlns:xlink="http://www.w3.org/1999/xlink" width="190" height="296" viewBox="0 0 190 296">
  <defs>
    <clipPath id="clip-path">
      <rect id="Rect치ngulo_293518" data-name="Rect치ngulo 293518" width="74.39" height="52.513" fill="none"/>
    </clipPath>
  </defs>
  <g id="Grupo_874361" data-name="Grupo 874361" transform="translate(-1125 -3812)">
    <rect id="Rect치ngulo_293514" data-name="Rect치ngulo 293514" width="190" height="209" transform="translate(1125 3839)" fill="#ffe0f0"/>
    <path id="Trazado_596932" data-name="Trazado 596932" d="M-47.795-4.746V0h-2.224V-12.8h4.9a4.95,4.95,0,0,1,3.406,1.117,3.757,3.757,0,0,1,1.261,2.956,3.633,3.633,0,0,1-1.235,2.93,5.19,5.19,0,0,1-3.458,1.047Zm0-1.793h2.672A2.632,2.632,0,0,0-43.312-7.1a2.051,2.051,0,0,0,.624-1.613,2.213,2.213,0,0,0-.633-1.657A2.439,2.439,0,0,0-45.062-11h-2.733ZM-32.959-.932A3.312,3.312,0,0,1-35.631.176a2.952,2.952,0,0,1-2.342-.905,3.851,3.851,0,0,1-.8-2.619V-9.51h2.136v6.135q0,1.811,1.5,1.811a2.111,2.111,0,0,0,2.1-1.116V-9.51h2.136V0h-2.013Zm12.586-3.727a5.712,5.712,0,0,1-.989,3.524,3.221,3.221,0,0,1-2.72,1.31,3.1,3.1,0,0,1-2.6-1.2L-26.789,0h-1.934V-13.5h2.136v4.9A3.091,3.091,0,0,1-24.1-9.686a3.258,3.258,0,0,1,2.733,1.292,5.807,5.807,0,0,1,.993,3.612Zm-2.136-.185a4.037,4.037,0,0,0-.545-2.32,1.815,1.815,0,0,0-1.582-.773,1.983,1.983,0,0,0-1.951,1.213V-2.8a2,2,0,0,0,1.969,1.239,1.8,1.8,0,0,0,1.547-.747,3.912,3.912,0,0,0,.563-2.259ZM-16.312,0h-2.136V-13.5h2.136Zm4.6,0h-2.136V-9.51h2.136Zm-2.268-11.979a1.133,1.133,0,0,1,.312-.817,1.179,1.179,0,0,1,.892-.325,1.193,1.193,0,0,1,.9.325,1.125,1.125,0,0,1,.316.817,1.1,1.1,0,0,1-.316.8,1.2,1.2,0,0,1-.9.321,1.188,1.188,0,0,1-.892-.321A1.107,1.107,0,0,1-13.983-11.979Zm8.5,10.45A1.931,1.931,0,0,0-4.157-2a1.591,1.591,0,0,0,.563-1.151h2.013A3.137,3.137,0,0,1-2.136-1.49,3.632,3.632,0,0,1-3.542-.272,4.191,4.191,0,0,1-5.458.176,4.055,4.055,0,0,1-8.622-1.116,5.124,5.124,0,0,1-9.791-4.685V-4.9A5.039,5.039,0,0,1-8.631-8.38,4.018,4.018,0,0,1-5.467-9.686,3.907,3.907,0,0,1-2.7-8.7,3.542,3.542,0,0,1-1.582-6.1H-3.595a1.956,1.956,0,0,0-.558-1.345,1.8,1.8,0,0,0-1.332-.527,1.879,1.879,0,0,0-1.6.751,3.834,3.834,0,0,0-.571,2.281V-4.6A3.9,3.9,0,0,0-7.1-2.29,1.878,1.878,0,0,0-5.484-1.529ZM2.3,0H.167V-9.51H2.3ZM.035-11.979A1.133,1.133,0,0,1,.347-12.8a1.179,1.179,0,0,1,.892-.325,1.193,1.193,0,0,1,.9.325,1.125,1.125,0,0,1,.316.817,1.1,1.1,0,0,1-.316.8,1.2,1.2,0,0,1-.9.321,1.188,1.188,0,0,1-.892-.321A1.107,1.107,0,0,1,.035-11.979ZM4.228-4.825a5.654,5.654,0,0,1,1.02-3.529A3.267,3.267,0,0,1,7.98-9.686a3.1,3.1,0,0,1,2.443,1.055V-13.5H12.56V0H10.626l-.105-.984A3.148,3.148,0,0,1,7.963.176a3.248,3.248,0,0,1-2.7-1.345A5.861,5.861,0,0,1,4.228-4.825Zm2.136.185a3.958,3.958,0,0,0,.558,2.263,1.811,1.811,0,0,0,1.586.813,2.017,2.017,0,0,0,1.916-1.169V-6.794a1.986,1.986,0,0,0-1.9-1.143,1.824,1.824,0,0,0-1.6.822A4.408,4.408,0,0,0,6.363-4.641ZM20.47,0a3.3,3.3,0,0,1-.246-.888,3.325,3.325,0,0,1-2.5,1.063A3.355,3.355,0,0,1,15.39-.642a2.615,2.615,0,0,1-.905-2.021A2.7,2.7,0,0,1,15.614-5a5.473,5.473,0,0,1,3.23-.813h1.31v-.624a1.666,1.666,0,0,0-.413-1.182,1.638,1.638,0,0,0-1.257-.444,1.881,1.881,0,0,0-1.2.365,1.129,1.129,0,0,0-.466.927H14.687a2.37,2.37,0,0,1,.519-1.463A3.455,3.455,0,0,1,16.616-9.3a4.955,4.955,0,0,1,1.991-.387,3.99,3.99,0,0,1,2.663.839,2.993,2.993,0,0,1,1.02,2.36V-2.2a4.861,4.861,0,0,0,.36,2.048V0ZM18.123-1.538a2.429,2.429,0,0,0,1.191-.308,2.055,2.055,0,0,0,.839-.826V-4.465H19a3.148,3.148,0,0,0-1.784.413,1.338,1.338,0,0,0-.6,1.169,1.248,1.248,0,0,0,.409.98A1.583,1.583,0,0,0,18.123-1.538Zm6-3.287a5.654,5.654,0,0,1,1.02-3.529,3.267,3.267,0,0,1,2.733-1.332,3.1,3.1,0,0,1,2.443,1.055V-13.5h2.136V0H30.524l-.105-.984A3.148,3.148,0,0,1,27.861.176a3.248,3.248,0,0,1-2.7-1.345A5.861,5.861,0,0,1,24.126-4.825Zm2.136.185a3.958,3.958,0,0,0,.558,2.263,1.811,1.811,0,0,0,1.586.813,2.017,2.017,0,0,0,1.916-1.169V-6.794a1.986,1.986,0,0,0-1.9-1.143,1.824,1.824,0,0,0-1.6.822A4.408,4.408,0,0,0,26.262-4.641ZM42.5-3.059,44.429-9.51h2.276L42.926,1.441q-.87,2.4-2.953,2.4a3.807,3.807,0,0,1-1.028-.159V2.021l.4.026a2.079,2.079,0,0,0,1.217-.294,1.95,1.95,0,0,0,.646-.988l.308-.817L38.18-9.51h2.3Zm-81.6,26.529A1.931,1.931,0,0,0-37.78,23a1.591,1.591,0,0,0,.563-1.151H-35.2a3.137,3.137,0,0,1-.554,1.657,3.632,3.632,0,0,1-1.406,1.217,4.191,4.191,0,0,1-1.916.448,4.055,4.055,0,0,1-3.164-1.292,5.124,5.124,0,0,1-1.169-3.568V20.1a5.039,5.039,0,0,1,1.16-3.476,4.018,4.018,0,0,1,3.164-1.305,3.907,3.907,0,0,1,2.764.989A3.542,3.542,0,0,1-35.2,18.9h-2.013a1.956,1.956,0,0,0-.558-1.345,1.8,1.8,0,0,0-1.332-.527,1.879,1.879,0,0,0-1.6.751,3.834,3.834,0,0,0-.571,2.281V20.4a3.9,3.9,0,0,0,.558,2.307A1.878,1.878,0,0,0-39.107,23.471ZM-27.91,25a3.3,3.3,0,0,1-.246-.888,3.325,3.325,0,0,1-2.5,1.063,3.355,3.355,0,0,1-2.338-.817,2.615,2.615,0,0,1-.905-2.021A2.7,2.7,0,0,1-32.766,20a5.473,5.473,0,0,1,3.23-.813h1.31v-.624a1.666,1.666,0,0,0-.413-1.182A1.638,1.638,0,0,0-29.9,16.94a1.881,1.881,0,0,0-1.2.365,1.129,1.129,0,0,0-.466.927h-2.136a2.37,2.37,0,0,1,.519-1.463A3.455,3.455,0,0,1-31.764,15.7a4.955,4.955,0,0,1,1.991-.387,3.99,3.99,0,0,1,2.663.839,2.993,2.993,0,0,1,1.02,2.36V22.8a4.861,4.861,0,0,0,.36,2.048V25Zm-2.347-1.538a2.429,2.429,0,0,0,1.191-.308,2.055,2.055,0,0,0,.839-.826V20.535h-1.151a3.148,3.148,0,0,0-1.784.413,1.338,1.338,0,0,0-.6,1.169,1.248,1.248,0,0,0,.409.98A1.583,1.583,0,0,0-30.256,23.462Zm8.411-7.972.062.993a3.422,3.422,0,0,1,2.742-1.169,2.629,2.629,0,0,1,2.61,1.459,3.373,3.373,0,0,1,2.918-1.459,2.965,2.965,0,0,1,2.342.87,3.831,3.831,0,0,1,.787,2.566V25H-12.52V18.813a1.891,1.891,0,0,0-.4-1.327,1.731,1.731,0,0,0-1.31-.422,1.778,1.778,0,0,0-1.191.391,2.063,2.063,0,0,0-.646,1.024L-16.053,25h-2.136V18.742A1.523,1.523,0,0,0-19.9,17.063a1.88,1.88,0,0,0-1.819,1.046V25h-2.136V15.49ZM.136,20.342a5.662,5.662,0,0,1-1,3.52,3.209,3.209,0,0,1-2.689,1.314,3.23,3.23,0,0,1-2.5-1.028v4.509H-8.2V15.49h1.969l.088.967a3.137,3.137,0,0,1,2.558-1.143,3.242,3.242,0,0,1,2.729,1.3,5.813,5.813,0,0,1,.989,3.6Zm-2.127-.185A3.966,3.966,0,0,0-2.558,17.9a1.843,1.843,0,0,0-1.622-.835A1.965,1.965,0,0,0-6.06,18.145v4.219a1.983,1.983,0,0,0,1.9,1.107,1.841,1.841,0,0,0,1.6-.822A4.366,4.366,0,0,0-1.991,20.157ZM7.625,25a3.3,3.3,0,0,1-.246-.888,3.325,3.325,0,0,1-2.5,1.063,3.355,3.355,0,0,1-2.338-.817,2.615,2.615,0,0,1-.905-2.021A2.7,2.7,0,0,1,2.769,20,5.473,5.473,0,0,1,6,19.19h1.31v-.624A1.666,1.666,0,0,0,6.9,17.384a1.638,1.638,0,0,0-1.257-.444,1.881,1.881,0,0,0-1.2.365,1.129,1.129,0,0,0-.466.927H1.841a2.37,2.37,0,0,1,.519-1.463A3.455,3.455,0,0,1,3.771,15.7a4.955,4.955,0,0,1,1.991-.387,3.99,3.99,0,0,1,2.663.839,2.993,2.993,0,0,1,1.02,2.36V22.8a4.861,4.861,0,0,0,.36,2.048V25ZM5.278,23.462a2.429,2.429,0,0,0,1.191-.308,2.055,2.055,0,0,0,.839-.826V20.535H6.157a3.148,3.148,0,0,0-1.784.413,1.338,1.338,0,0,0-.6,1.169,1.248,1.248,0,0,0,.409.98A1.583,1.583,0,0,0,5.278,23.462Zm8.385-7.972.062,1.1a3.419,3.419,0,0,1,2.769-1.274q2.971,0,3.023,3.4V25H17.38V18.839a1.958,1.958,0,0,0-.391-1.34,1.645,1.645,0,0,0-1.279-.435,2.058,2.058,0,0,0-1.925,1.169V25H11.65V15.49Zm5.186-3.8A2.363,2.363,0,0,1,18.29,13.3a1.78,1.78,0,0,1-1.4.642,2.088,2.088,0,0,1-.593-.075,3.773,3.773,0,0,1-.712-.338,3.519,3.519,0,0,0-.65-.316,1.551,1.551,0,0,0-.417-.053.745.745,0,0,0-.567.25.923.923,0,0,0-.233.655L12.406,14a2.43,2.43,0,0,1,.558-1.626,1.752,1.752,0,0,1,1.393-.659,2.593,2.593,0,0,1,1.208.4,2.555,2.555,0,0,0,1.165.4.759.759,0,0,0,.571-.25.925.925,0,0,0,.237-.664ZM27.374,25a3.3,3.3,0,0,1-.246-.888,3.593,3.593,0,0,1-4.834.246,2.615,2.615,0,0,1-.905-2.021A2.7,2.7,0,0,1,22.518,20a5.473,5.473,0,0,1,3.23-.813h1.31v-.624a1.666,1.666,0,0,0-.413-1.182,1.638,1.638,0,0,0-1.257-.444,1.881,1.881,0,0,0-1.2.365,1.129,1.129,0,0,0-.466.927H21.59a2.37,2.37,0,0,1,.519-1.463A3.455,3.455,0,0,1,23.52,15.7a4.955,4.955,0,0,1,1.991-.387,3.99,3.99,0,0,1,2.663.839,2.993,2.993,0,0,1,1.02,2.36V22.8a4.861,4.861,0,0,0,.36,2.048V25Zm-2.347-1.538a2.429,2.429,0,0,0,1.191-.308,2.055,2.055,0,0,0,.839-.826V20.535H25.906a3.148,3.148,0,0,0-1.784.413,1.338,1.338,0,0,0-.6,1.169,1.248,1.248,0,0,0,.409.98A1.583,1.583,0,0,0,25.027,23.462ZM36.76,22.416a.968.968,0,0,0-.47-.87,5,5,0,0,0-1.56-.527,8.02,8.02,0,0,1-1.819-.58,2.428,2.428,0,0,1-1.6-2.241,2.531,2.531,0,0,1,1.037-2.057,4.1,4.1,0,0,1,2.637-.826,4.266,4.266,0,0,1,2.755.844,2.677,2.677,0,0,1,1.05,2.188H36.655a1.316,1.316,0,0,0-.457-1.024,1.752,1.752,0,0,0-1.213-.409,1.893,1.893,0,0,0-1.147.325,1.025,1.025,0,0,0-.444.87.866.866,0,0,0,.413.765,5.68,5.68,0,0,0,1.67.549,7.9,7.9,0,0,1,1.973.659A2.794,2.794,0,0,1,38.514,21a2.342,2.342,0,0,1,.347,1.3A2.478,2.478,0,0,1,37.8,24.38a4.535,4.535,0,0,1-2.786.8,4.917,4.917,0,0,1-2.083-.422,3.428,3.428,0,0,1-1.424-1.16A2.746,2.746,0,0,1,30.995,22h2.074a1.5,1.5,0,0,0,.571,1.165,2.22,2.22,0,0,0,1.4.409,2.16,2.16,0,0,0,1.283-.321A.993.993,0,0,0,36.76,22.416ZM-54.488,45.175a5.654,5.654,0,0,1,1.02-3.529,3.267,3.267,0,0,1,2.733-1.332,3.1,3.1,0,0,1,2.443,1.055V36.5h2.136V50h-1.934l-.105-.984a3.148,3.148,0,0,1-2.558,1.16,3.248,3.248,0,0,1-2.7-1.345A5.861,5.861,0,0,1-54.488,45.175Zm2.136.185a3.958,3.958,0,0,0,.558,2.263,1.811,1.811,0,0,0,1.586.813,2.017,2.017,0,0,0,1.916-1.169V43.206a1.986,1.986,0,0,0-1.9-1.143,1.824,1.824,0,0,0-1.6.822A4.408,4.408,0,0,0-52.352,45.359Zm12.612,4.816A4.419,4.419,0,0,1-43.031,48.9a4.639,4.639,0,0,1-1.261-3.406v-.264a5.706,5.706,0,0,1,.549-2.544A4.181,4.181,0,0,1-42.2,40.938a4.078,4.078,0,0,1,2.215-.624,3.733,3.733,0,0,1,3,1.239,5.24,5.24,0,0,1,1.059,3.507v.861h-6.214a2.856,2.856,0,0,0,.787,1.863,2.362,2.362,0,0,0,1.736.686,2.892,2.892,0,0,0,2.391-1.187l1.151,1.1A3.845,3.845,0,0,1-37.6,49.706,4.774,4.774,0,0,1-39.74,50.176Zm-.255-8.147a1.8,1.8,0,0,0-1.419.615,3.189,3.189,0,0,0-.69,1.714h4.069V44.2a2.6,2.6,0,0,0-.571-1.622A1.785,1.785,0,0,0-39.995,42.028Zm12.217-1.538.062.993a3.422,3.422,0,0,1,2.742-1.169,2.629,2.629,0,0,1,2.61,1.459,3.373,3.373,0,0,1,2.918-1.459,2.965,2.965,0,0,1,2.342.87,3.831,3.831,0,0,1,.787,2.566V50h-2.136V43.813a1.891,1.891,0,0,0-.4-1.327,1.731,1.731,0,0,0-1.31-.422,1.778,1.778,0,0,0-1.191.391,2.063,2.063,0,0,0-.646,1.024L-21.986,50h-2.136V43.742a1.523,1.523,0,0,0-1.714-1.679,1.88,1.88,0,0,0-1.819,1.046V50h-2.136V40.49ZM-8.442,50a3.3,3.3,0,0,1-.246-.888,3.325,3.325,0,0,1-2.5,1.063,3.355,3.355,0,0,1-2.338-.817,2.615,2.615,0,0,1-.905-2.021A2.7,2.7,0,0,1-13.3,45a5.473,5.473,0,0,1,3.23-.813h1.31v-.624a1.666,1.666,0,0,0-.413-1.182,1.638,1.638,0,0,0-1.257-.444,1.881,1.881,0,0,0-1.2.365,1.129,1.129,0,0,0-.466.927h-2.136a2.37,2.37,0,0,1,.519-1.463A3.455,3.455,0,0,1-12.3,40.7a4.955,4.955,0,0,1,1.991-.387,3.99,3.99,0,0,1,2.663.839,2.993,2.993,0,0,1,1.02,2.36V47.8a4.861,4.861,0,0,0,.36,2.048V50Zm-2.347-1.538A2.429,2.429,0,0,0-9.6,48.154a2.055,2.055,0,0,0,.839-.826V45.535H-9.91a3.148,3.148,0,0,0-1.784.413,1.338,1.338,0,0,0-.6,1.169,1.248,1.248,0,0,0,.409.98A1.583,1.583,0,0,0-10.789,48.462ZM.593,42.441a5.285,5.285,0,0,0-.87-.07A1.959,1.959,0,0,0-2.254,43.5V50H-4.39V40.49h2.039l.053,1.063A2.406,2.406,0,0,1-.154,40.314a2,2,0,0,1,.756.123Zm4.438,3.48-.949.976V50H1.947V36.5H4.083v7.787l.668-.835L7.378,40.49H9.945L6.412,44.454,10.323,50H7.853Zm10.494,4.254A4.419,4.419,0,0,1,12.234,48.9a4.639,4.639,0,0,1-1.261-3.406v-.264a5.706,5.706,0,0,1,.549-2.544,4.181,4.181,0,0,1,1.542-1.745,4.078,4.078,0,0,1,2.215-.624,3.733,3.733,0,0,1,3,1.239,5.24,5.24,0,0,1,1.059,3.507v.861H13.126a2.856,2.856,0,0,0,.787,1.863,2.362,2.362,0,0,0,1.736.686,2.892,2.892,0,0,0,2.391-1.187l1.151,1.1a3.845,3.845,0,0,1-1.525,1.323A4.774,4.774,0,0,1,15.526,50.176Zm-.255-8.147a1.8,1.8,0,0,0-1.419.615,3.189,3.189,0,0,0-.69,1.714h4.069V44.2a2.6,2.6,0,0,0-.571-1.622A1.785,1.785,0,0,0,15.271,42.028Zm8.4-3.85V40.49h1.679v1.582H23.673v5.309a1.169,1.169,0,0,0,.215.787,1,1,0,0,0,.769.242,3.29,3.29,0,0,0,.747-.088v1.652a5.26,5.26,0,0,1-1.406.2q-2.461,0-2.461-2.716V42.072H19.973V40.49h1.564V38.179ZM29.254,50H27.119V40.49h2.136ZM26.987,38.021A1.133,1.133,0,0,1,27.3,37.2a1.179,1.179,0,0,1,.892-.325,1.193,1.193,0,0,1,.9.325,1.125,1.125,0,0,1,.316.817,1.1,1.1,0,0,1-.316.8,1.2,1.2,0,0,1-.9.321,1.188,1.188,0,0,1-.892-.321A1.107,1.107,0,0,1,26.987,38.021Zm6.574,2.47.062,1.1a3.419,3.419,0,0,1,2.769-1.274q2.971,0,3.023,3.4V50H37.279V43.839a1.958,1.958,0,0,0-.391-1.34,1.645,1.645,0,0,0-1.279-.435,2.058,2.058,0,0,0-1.925,1.169V50H31.548V40.49Zm7.655,4.685a5.562,5.562,0,0,1,1.042-3.538,3.343,3.343,0,0,1,2.764-1.323,3.132,3.132,0,0,1,2.558,1.134l.1-.958H49.6v9.22a3.832,3.832,0,0,1-1.165,2.953,4.436,4.436,0,0,1-3.142,1.081,5.064,5.064,0,0,1-2.043-.435,3.631,3.631,0,0,1-1.516-1.138l1.011-1.283a3.053,3.053,0,0,0,2.426,1.169,2.359,2.359,0,0,0,1.679-.576,2.206,2.206,0,0,0,.615-1.692v-.642A3.144,3.144,0,0,1,45,50.176a3.335,3.335,0,0,1-2.729-1.327A5.742,5.742,0,0,1,41.216,45.175Zm2.127.185a3.829,3.829,0,0,0,.584,2.254,1.879,1.879,0,0,0,1.622.822,2.055,2.055,0,0,0,1.916-1.107V43.145a2.026,2.026,0,0,0-1.9-1.081,1.887,1.887,0,0,0-1.639.835A4.287,4.287,0,0,0,43.343,45.359ZM-31.469,75.176A4.419,4.419,0,0,1-34.761,73.9a4.639,4.639,0,0,1-1.261-3.406v-.264a5.706,5.706,0,0,1,.549-2.544,4.181,4.181,0,0,1,1.542-1.745,4.078,4.078,0,0,1,2.215-.624,3.733,3.733,0,0,1,3,1.239,5.24,5.24,0,0,1,1.059,3.507v.861h-6.214a2.856,2.856,0,0,0,.787,1.863,2.362,2.362,0,0,0,1.736.686,2.892,2.892,0,0,0,2.391-1.187l1.151,1.1a3.845,3.845,0,0,1-1.525,1.323A4.774,4.774,0,0,1-31.469,75.176Zm-.255-8.147a1.8,1.8,0,0,0-1.419.615,3.189,3.189,0,0,0-.69,1.714h4.069V69.2a2.6,2.6,0,0,0-.571-1.622A1.785,1.785,0,0,0-31.724,67.028ZM-25.247,75V67.072H-26.7V65.49h1.45v-.87a3.266,3.266,0,0,1,.879-2.443,3.367,3.367,0,0,1,2.461-.861,4.936,4.936,0,0,1,1.2.158l-.053,1.67a4.207,4.207,0,0,0-.817-.07,1.371,1.371,0,0,0-1.529,1.573v.844h1.934v1.582h-1.934V75Zm9.817.176A4.419,4.419,0,0,1-18.721,73.9a4.639,4.639,0,0,1-1.261-3.406v-.264a5.706,5.706,0,0,1,.549-2.544,4.181,4.181,0,0,1,1.542-1.745,4.078,4.078,0,0,1,2.215-.624,3.733,3.733,0,0,1,3,1.239,5.24,5.24,0,0,1,1.059,3.507v.861h-6.214a2.856,2.856,0,0,0,.787,1.863,2.362,2.362,0,0,0,1.736.686,2.892,2.892,0,0,0,2.391-1.187l1.151,1.1a3.845,3.845,0,0,1-1.525,1.323A4.774,4.774,0,0,1-15.429,75.176Zm-.255-8.147a1.8,1.8,0,0,0-1.419.615,3.189,3.189,0,0,0-.69,1.714h4.069V69.2a2.6,2.6,0,0,0-.571-1.622A1.785,1.785,0,0,0-15.684,67.028Zm9.633,6.442A1.931,1.931,0,0,0-4.724,73a1.591,1.591,0,0,0,.563-1.151h2.013A3.137,3.137,0,0,1-2.7,73.51a3.632,3.632,0,0,1-1.406,1.217,4.191,4.191,0,0,1-1.916.448,4.055,4.055,0,0,1-3.164-1.292,5.124,5.124,0,0,1-1.169-3.568V70.1A5.039,5.039,0,0,1-9.2,66.62a4.018,4.018,0,0,1,3.164-1.305A3.907,3.907,0,0,1-3.27,66.3a3.542,3.542,0,0,1,1.121,2.6H-4.162a1.956,1.956,0,0,0-.558-1.345,1.8,1.8,0,0,0-1.332-.527,1.879,1.879,0,0,0-1.6.751,3.834,3.834,0,0,0-.571,2.281V70.4a3.9,3.9,0,0,0,.558,2.307A1.878,1.878,0,0,0-6.051,73.471ZM2.14,63.179V65.49H3.819v1.582H2.14v5.309a1.169,1.169,0,0,0,.215.787,1,1,0,0,0,.769.242,3.29,3.29,0,0,0,.747-.088v1.652a5.26,5.26,0,0,1-1.406.2Q0,75.176,0,72.46V67.072H-1.56V65.49H0V63.179ZM7.721,75H5.585V65.49H7.721ZM5.454,63.021a1.133,1.133,0,0,1,.312-.817,1.179,1.179,0,0,1,.892-.325,1.193,1.193,0,0,1,.9.325,1.125,1.125,0,0,1,.316.817,1.1,1.1,0,0,1-.316.8,1.2,1.2,0,0,1-.9.321,1.188,1.188,0,0,1-.892-.321A1.107,1.107,0,0,1,5.454,63.021ZM13.4,72.293l2.013-6.8h2.206L14.322,75H12.467L9.145,65.49H11.36ZM24.5,75a3.3,3.3,0,0,1-.246-.888,3.593,3.593,0,0,1-4.834.246,2.615,2.615,0,0,1-.905-2.021A2.7,2.7,0,0,1,19.644,70a5.473,5.473,0,0,1,3.23-.813h1.31v-.624a1.666,1.666,0,0,0-.413-1.182,1.638,1.638,0,0,0-1.257-.444,1.881,1.881,0,0,0-1.2.365,1.129,1.129,0,0,0-.466.927H18.716a2.37,2.37,0,0,1,.519-1.463A3.455,3.455,0,0,1,20.646,65.7a4.955,4.955,0,0,1,1.991-.387,3.99,3.99,0,0,1,2.663.839,2.993,2.993,0,0,1,1.02,2.36V72.8a4.861,4.861,0,0,0,.36,2.048V75Zm-2.347-1.538a2.429,2.429,0,0,0,1.191-.308,2.055,2.055,0,0,0,.839-.826V70.535H23.032a3.148,3.148,0,0,0-1.784.413,1.338,1.338,0,0,0-.6,1.169,1.248,1.248,0,0,0,.409.98A1.583,1.583,0,0,0,22.153,73.462Zm11.733-1.046a.968.968,0,0,0-.47-.87,5,5,0,0,0-1.56-.527,8.02,8.02,0,0,1-1.819-.58,2.428,2.428,0,0,1-1.6-2.241,2.531,2.531,0,0,1,1.037-2.057,4.1,4.1,0,0,1,2.637-.826,4.266,4.266,0,0,1,2.755.844,2.677,2.677,0,0,1,1.05,2.188H33.781a1.316,1.316,0,0,0-.457-1.024,1.752,1.752,0,0,0-1.213-.409,1.893,1.893,0,0,0-1.147.325,1.025,1.025,0,0,0-.444.87.866.866,0,0,0,.413.765,5.68,5.68,0,0,0,1.67.549,7.9,7.9,0,0,1,1.973.659A2.794,2.794,0,0,1,35.64,71a2.342,2.342,0,0,1,.347,1.3,2.478,2.478,0,0,1-1.063,2.079,4.535,4.535,0,0,1-2.786.8,4.917,4.917,0,0,1-2.083-.422,3.428,3.428,0,0,1-1.424-1.16A2.746,2.746,0,0,1,28.121,72h2.074a1.5,1.5,0,0,0,.571,1.165,2.22,2.22,0,0,0,1.4.409,2.16,2.16,0,0,0,1.283-.321A.993.993,0,0,0,33.886,72.416Z" transform="translate(1220 3912)" fill="#12263f"/>
    <circle id="Elipse_4850" data-name="Elipse 4850" cx="27.5" cy="27.5" r="27.5" transform="translate(1193 3812)" fill="#ea3584"/>
    <path id="Trazado_596931" data-name="Trazado 596931" d="M-5.977-10.576l1.157-10.752H6.636v3.076h-8.5l-.586,5.1A6.585,6.585,0,0,1,.894-14a5.942,5.942,0,0,1,4.739,1.948A7.72,7.72,0,0,1,7.324-6.812,7.106,7.106,0,0,1,5.449-1.633,6.843,6.843,0,0,1,.308.293,7.167,7.167,0,0,1-4.548-1.37,6.011,6.011,0,0,1-6.636-5.757h3.442A3.759,3.759,0,0,0-2.08-3.376a3.386,3.386,0,0,0,2.373.828A3.06,3.06,0,0,0,2.849-3.721a5.058,5.058,0,0,0,.916-3.193A4.469,4.469,0,0,0,2.754-10,3.535,3.535,0,0,0-.029-11.133a4.63,4.63,0,0,0-1.641.256,4.647,4.647,0,0,0-1.465,1Z" transform="translate(1221 3850)" fill="#fff"/>
    <g id="Grupo_874291" data-name="Grupo 874291">
      <circle id="Elipse_4855" data-name="Elipse 4855" cx="52.5" cy="52.5" r="52.5" transform="translate(1170 4003)" fill="#f6f6f6"/>
      <g id="Grupo_874284" data-name="Grupo 874284" transform="translate(1189.112 4028.732)">
        <g id="Grupo_874283" data-name="Grupo 874283" clip-path="url(#clip-path)">
          <path id="Trazado_596180" data-name="Trazado 596180" d="M79.835,80.122A15.85,15.85,0,1,1,90.852,52.877a.758.758,0,0,1-1.054,1.09,14.334,14.334,0,1,0,4.37,10.3,14.46,14.46,0,0,0-.309-2.976.758.758,0,1,1,1.484-.313A15.862,15.862,0,0,1,79.835,80.122" transform="translate(-46.344 -35.072)" fill="#344154"/>
          <path id="Trazado_596181" data-name="Trazado 596181" d="M119.482,71.387a.758.758,0,0,1-.366-1.423l23.07-12.672a.758.758,0,0,1,.73,1.329l-23.07,12.672a.754.754,0,0,1-.364.094" transform="translate(-85.99 -41.429)" fill="#344154"/>
          <path id="Trazado_596182" data-name="Trazado 596182" d="M209.751,43.147a.76.76,0,0,1-.2-.026l-6.595-1.754a.758.758,0,0,1-.538-.928l1.755-6.594a.758.758,0,0,1,1.465.39l-1.56,5.861,5.862,1.559a.758.758,0,0,1-.194,1.491" transform="translate(-146.596 -24.107)" fill="#344154"/>
          <path id="Trazado_596183" data-name="Trazado 596183" d="M228.755,32.347a.76.76,0,0,1-.2-.026l-6.593-1.754a.758.758,0,0,1-.538-.927l1.754-6.593a.758.758,0,1,1,1.465.39L223.088,29.3l5.861,1.559a.758.758,0,0,1-.194,1.491" transform="translate(-160.361 -16.284)" fill="#344154"/>
          <path id="Trazado_596184" data-name="Trazado 596184" d="M247.755,21.546a.76.76,0,0,1-.2-.026l-6.594-1.754a.758.758,0,0,1-.538-.927l1.754-6.594a.758.758,0,1,1,1.465.39l-1.56,5.861,5.861,1.559a.758.758,0,0,1-.194,1.491" transform="translate(-174.122 -8.461)" fill="#344154"/>
          <path id="Trazado_596185" data-name="Trazado 596185" d="M124.178,92.622a.768.768,0,0,1-.213-.03l-5.437-1.586a.758.758,0,0,1-.527-.895l1.189-5.278a.758.758,0,1,1,1.479.333l-1.033,4.583,4.754,1.387a.758.758,0,0,1-.212,1.486" transform="translate(-85.454 -61.015)" fill="#344154"/>
          <path id="Trazado_596186" data-name="Trazado 596186" d="M99.264,92.58a8.454,8.454,0,0,1-1.721-16.731.758.758,0,1,1,.309,1.484,6.937,6.937,0,1,0,6.766,11.2.758.758,0,0,1,1.17.965,8.432,8.432,0,0,1-6.523,3.081" transform="translate(-65.773 -54.926)" fill="#344154"/>
          <path id="Trazado_596187" data-name="Trazado 596187" d="M58.574,52.513H5.319A5.325,5.325,0,0,1,0,47.194V4.109A4.114,4.114,0,0,1,4.109,0H59.783a4.114,4.114,0,0,1,4.109,4.109.758.758,0,1,1-1.516,0,2.6,2.6,0,0,0-2.593-2.593H4.109A2.6,2.6,0,0,0,1.516,4.109V47.194a3.807,3.807,0,0,0,3.8,3.8H58.574a3.807,3.807,0,0,0,3.8-3.8V22.287a.758.758,0,0,1,1.516,0V47.194a5.325,5.325,0,0,1-5.319,5.319" transform="translate(0 0)" fill="#344154"/>
          <path id="Trazado_596188" data-name="Trazado 596188" d="M27.5,25a1.345,1.345,0,1,1,1.345-1.345A1.346,1.346,0,0,1,27.5,25m0-1.516a.171.171,0,1,0,.171.171.172.172,0,0,0-.171-.171" transform="translate(-18.942 -16.158)" fill="#344154"/>
          <path id="Trazado_596189" data-name="Trazado 596189" d="M51.763,25a1.345,1.345,0,1,1,1.345-1.345A1.347,1.347,0,0,1,51.763,25m0-1.516a.171.171,0,1,0,.171.171.172.172,0,0,0-.171-.171" transform="translate(-36.518 -16.158)" fill="#344154"/>
          <path id="Trazado_596190" data-name="Trazado 596190" d="M76.03,25a1.345,1.345,0,1,1,1.345-1.345A1.346,1.346,0,0,1,76.03,25m0-1.516a.171.171,0,1,0,.171.171.172.172,0,0,0-.171-.171" transform="translate(-54.094 -16.158)" fill="#344154"/>
          <path id="Trazado_596191" data-name="Trazado 596191" d="M21.935,49.935H.757a.758.758,0,1,1,0-1.516H21.935a.758.758,0,1,1,0,1.516" transform="translate(0.001 -35.07)" fill="#344154"/>
          <path id="Trazado_596192" data-name="Trazado 596192" d="M15.129,132.855H30.32L13.545,116.08v15.19a1.586,1.586,0,0,0,1.584,1.585" transform="translate(-9.811 -84.076)" fill="#6826cc"/>
        </g>
      </g>
    </g>
  </g>
</svg>
