<svg id="Grupo_874306" data-name="Grupo 874306" xmlns="http://www.w3.org/2000/svg" xmlns:xlink="http://www.w3.org/1999/xlink" width="190" height="148.44" viewBox="0 0 190 148.44">
  <defs>
    <clipPath id="clip-path">
      <rect id="Rect치ngulo_293526" data-name="Rect치ngulo 293526" width="190" height="148.44" fill="none"/>
    </clipPath>
  </defs>
  <path id="Trazado_596343" data-name="Trazado 596343" d="M190.761,470.924h-5.208v-5.919h40.72v5.919H190.761Z" transform="translate(-141.624 -354.918)" fill="#e1e1e5"/>
  <g id="Grupo_874303" data-name="Grupo 874303">
    <g id="Grupo_874302" data-name="Grupo 874302" clip-path="url(#clip-path)">
      <path id="Trazado_596344" data-name="Trazado 596344" d="M221.994,322.005a14.441,14.441,0,1,0,14.441,14.441,14.441,14.441,0,0,0-14.441-14.441m0,21.544a7.1,7.1,0,1,1,7.1-7.1,7.1,7.1,0,0,1-7.1,7.1" transform="translate(-158.416 -245.772)" fill="#ea3584"/>
      <path id="Trazado_596345" data-name="Trazado 596345" d="M576.546,133.075l-15.066-21.07-15.066,21.07h6.425v33.144h17.282V133.075Z" transform="translate(-417.053 -85.488)" fill="#ffce1d"/>
      <path id="Trazado_596346" data-name="Trazado 596346" d="M598.972,224.566q-.012,0-1.123-.531a4.485,4.485,0,0,0-1.815-.531q-1.383,0-1.383,1.284,0,.728,1.284,1.518,2.049,1.247,2.383,1.531a3.461,3.461,0,0,1,1.284,2.692q0,3.334-4.124,4.445.1,1.963.1,2.173,0,.123-.272.148a2.778,2.778,0,0,1-.531,0l-.383-.037a3.665,3.665,0,0,0-.469.043,3.68,3.68,0,0,1-.457.043.466.466,0,0,1-.185-.037,1.425,1.425,0,0,1-.074-.605q0-.395.049-1.222-3.309,0-3.358-.457a.8.8,0,0,1,.012-.235c.008-.132.012-.214.012-.247a9.781,9.781,0,0,0-.086-1.185,6.137,6.137,0,0,0-.185-.778,3.141,3.141,0,0,1-.148-.778q0-.259.284-.259a5.847,5.847,0,0,1,1.093.179,5.881,5.881,0,0,0,1.216.179q2.173,0,2.173-1.346,0-.7-1.247-1.581-2.037-1.42-2.334-1.716a3.592,3.592,0,0,1-1.247-2.655,4.086,4.086,0,0,1,1.2-2.9,5.083,5.083,0,0,1,2.79-1.519q0,.111-.037-.593a5.132,5.132,0,0,1,.013-.827q.049-.42.235-.42h2.124q.148,0,.185.37a4.27,4.27,0,0,1,.013.753q-.025.655-.025.568a11.48,11.48,0,0,1,2.333.556q1.84.58,1.84,1a1.311,1.311,0,0,1-.074.321q-.173.37-.456,1.136-.087.42-.309,1.235-.087.284-.3.284" transform="translate(-449.893 -166.652)" fill="#fff"/>
      <rect id="Rect치ngulo_293525" data-name="Rect치ngulo 293525" width="4.735" height="62.027" transform="translate(90.567 70.551)" fill="#4a91d6"/>
      <path id="Trazado_596347" data-name="Trazado 596347" d="M235.989,322.005a14.392,14.392,0,0,0-10.1,4.124l5.958,4.55a7.1,7.1,0,0,1,10.515,2.631l6.371-3.66a14.437,14.437,0,0,0-12.743-7.645" transform="translate(-172.41 -245.772)" fill="#6826cc"/>
      <path id="Trazado_596348" data-name="Trazado 596348" d="M282.994,360.2a14.373,14.373,0,0,0-1.853-7.075l-6.218,3.934a7.1,7.1,0,0,1-6.37,10.243v7.339A14.442,14.442,0,0,0,282.994,360.2" transform="translate(-204.975 -269.521)" fill="#fcd118"/>
    </g>
  </g>
  <g id="Grupo_874305" data-name="Grupo 874305">
    <g id="Grupo_874304" data-name="Grupo 874304" clip-path="url(#clip-path)">
      <path id="Trazado_596349" data-name="Trazado 596349" d="M211.928,622.425H36.263a.71.71,0,1,1,0-1.42H211.928a.71.71,0,1,1,0,1.42" transform="translate(-27.136 -473.985)" fill="#1e243a"/>
      <path id="Trazado_596350" data-name="Trazado 596350" d="M785.051,603.425h-3.788a.71.71,0,0,1,0-1.42h3.788a.71.71,0,0,1,0,1.42" transform="translate(-595.761 -459.484)" fill="#1e243a"/>
      <path id="Trazado_596351" data-name="Trazado 596351" d="M17.521,603.425H4.263a.71.71,0,0,1,0-1.42H17.521a.71.71,0,0,1,0,1.42" transform="translate(-2.712 -459.484)" fill="#1e243a"/>
      <path id="Trazado_596352" data-name="Trazado 596352" d="M700.2,22.884a.71.71,0,0,1-.71-.71V15.8a.71.71,0,0,1,1.42,0v6.373a.71.71,0,0,1-.71.71" transform="translate(-533.89 -11.518)" fill="#1e243a"/>
      <path id="Trazado_596353" data-name="Trazado 596353" d="M693.394,30.251h-6.373a.71.71,0,1,1,0-1.42h6.373a.71.71,0,1,1,0,1.42" transform="translate(-523.831 -22.005)" fill="#1e243a"/>
      <path id="Trazado_596354" data-name="Trazado 596354" d="M60.2,139.884a.71.71,0,0,1-.71-.71V132.8a.71.71,0,1,1,1.42,0v6.373a.71.71,0,0,1-.71.71" transform="translate(-45.406 -100.818)" fill="#1e243a"/>
      <path id="Trazado_596355" data-name="Trazado 596355" d="M53.394,147.251H47.02a.71.71,0,1,1,0-1.42h6.373a.71.71,0,0,1,0,1.42" transform="translate(-35.346 -111.306)" fill="#1e243a"/>
      <path id="Trazado_596356" data-name="Trazado 596356" d="M319.905,14.14a1.4,1.4,0,0,1,.992-1.721h0a1.406,1.406,0,1,1,.727,2.715,1.5,1.5,0,0,1-.365.047,1.406,1.406,0,0,1-1.357-1.042m-5.822-1.02a1.4,1.4,0,1,1,.992.412,1.4,1.4,0,0,1-.992-.412m11.34-2.517a1.407,1.407,0,1,1,.362.047,1.373,1.373,0,0,1-.362-.047M313.049,7.3a1.405,1.405,0,1,1,1.716-1h0a1.409,1.409,0,0,1-1.359,1.046,1.445,1.445,0,0,1-.36-.047m10.095-3.236s-.007-.007-.012-.012,0,0,0,0,0,0,0,0A1.405,1.405,0,1,1,325.1,2.051s.007.007.012.009a.005.005,0,0,0,0,0,1.406,1.406,0,0,1-1.977,2m-6.577-2.294a1.411,1.411,0,1,1,1.357,1.039,1.407,1.407,0,0,1-1.357-1.039" transform="translate(-238.136 0)" fill="#1e243a"/>
      <path id="Trazado_596357" data-name="Trazado 596357" d="M7.905,447.14a1.406,1.406,0,1,1,1.721.994,1.5,1.5,0,0,1-.365.047,1.406,1.406,0,0,1-1.357-1.042m-5.822-1.02a1.4,1.4,0,1,1,.992.412,1.4,1.4,0,0,1-.992-.412m11.34-2.517a1.407,1.407,0,1,1,.362.047,1.372,1.372,0,0,1-.362-.047M1.047,440.3a1.406,1.406,0,1,1,.362.047,1.36,1.36,0,0,1-.362-.047m10.085-3.248h0l-.009-.009a1.406,1.406,0,0,1,1.974-2,.219.219,0,0,0,.024.024v0a1.405,1.405,0,0,1-1.989,1.986m-6.565-2.282a1.411,1.411,0,1,1,1.357,1.039,1.406,1.406,0,0,1-1.357-1.039" transform="translate(0 -330.49)" fill="#1e243a"/>
      <path id="Trazado_596358" data-name="Trazado 596358" d="M700.9,459.14a1.407,1.407,0,1,1,1.723.994,1.5,1.5,0,0,1-.365.047,1.411,1.411,0,0,1-1.359-1.042m-5.819-1.02a1.4,1.4,0,1,1,.992.412,1.4,1.4,0,0,1-.992-.412m11.34-2.517a1.407,1.407,0,1,1,.362.047,1.373,1.373,0,0,1-.362-.047m-12.377-3.3a1.4,1.4,0,1,1,.362.047,1.465,1.465,0,0,1-.362-.047m10.085-3.248h0l-.009-.009a1.406,1.406,0,0,1,1.972-2.005.268.268,0,0,0,.026.026v0a1.405,1.405,0,0,1-1.989,1.986m-6.565-2.282a1.411,1.411,0,1,1,1.357,1.039,1.406,1.406,0,0,1-1.357-1.039" transform="translate(-528.936 -339.649)" fill="#1e243a"/>
      <path id="Trazado_596359" data-name="Trazado 596359" d="M220.8,596.079H83.443a6.236,6.236,0,0,1-6.229-6.229V587.2a.71.71,0,0,1,.71-.71H226.317a.71.71,0,0,1,.71.71v2.653a6.236,6.236,0,0,1-6.229,6.229M78.634,587.907v1.943a4.814,4.814,0,0,0,4.809,4.809H220.8a4.814,4.814,0,0,0,4.809-4.809v-1.943Z" transform="translate(-58.934 -447.639)" fill="#1e243a"/>
      <path id="Trazado_596360" data-name="Trazado 596360" d="M367.5,592.576H346.435a.71.71,0,0,1-.71-.71v-3.9a.71.71,0,0,1,1.42,0v3.185h19.644V587.97a.71.71,0,0,1,1.421,0v3.9a.71.71,0,0,1-.71.71" transform="translate(-263.876 -448.229)" fill="#1e243a"/>
      <path id="Trazado_596361" data-name="Trazado 596361" d="M662.112,400.589a.71.71,0,0,1-.71-.71V343.049a.71.71,0,1,1,1.42,0v56.829a.71.71,0,0,1-.71.71" transform="translate(-504.819 -261.292)" fill="#1e243a"/>
      <path id="Trazado_596362" data-name="Trazado 596362" d="M119.735,338.324a.71.71,0,0,1-.71-.71V266.519a6.705,6.705,0,0,1,6.868-6.514h71.357a.71.71,0,1,1,0,1.42H125.893a5.285,5.285,0,0,0-5.448,5.093v71.095a.71.71,0,0,1-.71.71" transform="translate(-90.846 -198.45)" fill="#1e243a"/>
      <path id="Trazado_596363" data-name="Trazado 596363" d="M156.3,358.822a.71.71,0,0,1-.71-.71v-62.05a.71.71,0,0,1,.71-.71h68.859a.71.71,0,0,1,0,1.42H157.009V357.4l109.96-.064V307.027a.71.71,0,0,1,1.42,0v51.019a.71.71,0,0,1-.71.71l-111.38.065Z" transform="translate(-118.754 -225.428)" fill="#1e243a"/>
      <path id="Trazado_596364" data-name="Trazado 596364" d="M381.9,313.262a.71.71,0,0,1-.71-.71v-16.49a.71.71,0,1,1,1.42,0v16.49a.71.71,0,0,1-.71.71" transform="translate(-290.947 -225.428)" fill="#1e243a"/>
      <path id="Trazado_596365" data-name="Trazado 596365" d="M380.752,450.883a.71.71,0,0,1-.71-.71V416.715a.71.71,0,0,1,1.421,0v33.457a.71.71,0,0,1-.71.71" transform="translate(-290.069 -317.518)" fill="#1e243a"/>
      <path id="Trazado_596366" data-name="Trazado 596366" d="M401.9,333.622a.71.71,0,0,1-.71-.71v-36.85a.71.71,0,1,1,1.42,0v36.85a.71.71,0,0,1-.71.71" transform="translate(-306.212 -225.428)" fill="#1e243a"/>
      <path id="Trazado_596367" data-name="Trazado 596367" d="M400.752,516.523a.71.71,0,0,1-.71-.71v-13.1a.71.71,0,1,1,1.42,0v13.1a.71.71,0,0,1-.71.71" transform="translate(-305.334 -383.158)" fill="#1e243a"/>
      <path id="Trazado_596368" data-name="Trazado 596368" d="M219.7,349.308a15.152,15.152,0,1,1,15.152-15.152A15.169,15.169,0,0,1,219.7,349.308m0-28.883a13.731,13.731,0,1,0,13.731,13.731A13.747,13.747,0,0,0,219.7,320.425m0,21.544a7.813,7.813,0,1,1,7.813-7.813,7.821,7.821,0,0,1-7.813,7.813m0-14.2a6.392,6.392,0,1,0,6.392,6.392,6.4,6.4,0,0,0-6.392-6.392" transform="translate(-156.126 -243.482)" fill="#1e243a"/>
      <path id="Trazado_596369" data-name="Trazado 596369" d="M266.263,418.765a.71.71,0,0,1-.71-.71v-7.339a.71.71,0,1,1,1.42,0v7.339a.71.71,0,0,1-.71.71" transform="translate(-202.685 -312.939)" fill="#1e243a"/>
      <path id="Trazado_596370" data-name="Trazado 596370" d="M232.782,343.735a.707.707,0,0,1-.478-.186l-4.722-4.309a.71.71,0,1,1,.958-1.049l4.722,4.309a.71.71,0,0,1-.479,1.235" transform="translate(-173.526 -257.984)" fill="#1e243a"/>
      <path id="Trazado_596371" data-name="Trazado 596371" d="M296.264,354.977a.71.71,0,0,1-.387-1.306l5.474-3.551a.71.71,0,1,1,.773,1.192l-5.474,3.551a.708.708,0,0,1-.386.115" transform="translate(-225.582 -267.143)" fill="#1e243a"/>
      <path id="Trazado_596372" data-name="Trazado 596372" d="M223.983,469.344H197.42a.71.71,0,1,1,0-1.42h25.853v-4.5h-39.3v4.5h4.5a.71.71,0,1,1,0,1.42h-5.208a.71.71,0,0,1-.71-.71v-5.919a.71.71,0,0,1,.71-.71h40.72a.71.71,0,0,1,.71.71v5.919a.71.71,0,0,1-.71.71" transform="translate(-139.335 -352.628)" fill="#1e243a"/>
      <path id="Trazado_596373" data-name="Trazado 596373" d="M201.493,508.426H183.263a.71.71,0,0,1,0-1.421h18.229a.71.71,0,0,1,0,1.421" transform="translate(-139.335 -386.974)" fill="#1e243a"/>
      <path id="Trazado_596374" data-name="Trazado 596374" d="M304.888,508.426H289.263a.71.71,0,0,1,0-1.421h15.625a.71.71,0,0,1,0,1.421" transform="translate(-220.24 -386.974)" fill="#1e243a"/>
      <path id="Trazado_596375" data-name="Trazado 596375" d="M187.051,528.426h-3.788a.71.71,0,0,1,0-1.421h3.788a.71.71,0,0,1,0,1.421" transform="translate(-139.335 -402.239)" fill="#1e243a"/>
      <path id="Trazado_596376" data-name="Trazado 596376" d="M258.33,528.426H228.263a.71.71,0,0,1,0-1.421H258.33a.71.71,0,0,1,0,1.421" transform="translate(-173.681 -402.239)" fill="#1e243a"/>
      <path id="Trazado_596377" data-name="Trazado 596377" d="M444.263,416.227a.71.71,0,0,1-.71-.71v-34.8a.71.71,0,0,1,1.42,0v34.8a.71.71,0,0,1-.71.71" transform="translate(-338.544 -290.041)" fill="#1e243a"/>
      <path id="Trazado_596378" data-name="Trazado 596378" d="M436.689,377.671a.708.708,0,0,1-.5-.208l-2.679-2.678-2.679,2.679a.71.71,0,0,1-1-1l3.181-3.181a.71.71,0,0,1,1,0l3.181,3.181a.71.71,0,0,1-.5,1.212" transform="translate(-327.908 -284.748)" fill="#1e243a"/>
      <path id="Trazado_596379" data-name="Trazado 596379" d="M479.065,529.425h-34.8a.71.71,0,0,1,0-1.42h34.8a.71.71,0,1,1,0,1.42" transform="translate(-338.544 -403.003)" fill="#1e243a"/>
      <path id="Trazado_596380" data-name="Trazado 596380" d="M584.763,521.852a.71.71,0,0,1-.5-1.212l2.678-2.679-2.678-2.679a.71.71,0,1,1,1-1l3.181,3.181a.71.71,0,0,1,0,1l-3.181,3.181a.708.708,0,0,1-.5.208" transform="translate(-445.782 -392.367)" fill="#1e243a"/>
      <path id="Trazado_596381" data-name="Trazado 596381" d="M447.69,442.452a21.916,21.916,0,0,1,6.756-9.207,20.965,20.965,0,0,1,2.531-1.725c.5-.292,1.445-1.006,2.036-.527.274.222.333.784.421,1.1.351,1.282.922,2.417,2.383,2.612,1.618.216,2.88-.842,3.83-2.021a46.847,46.847,0,0,0,3.611-5.223,52.683,52.683,0,0,0,5.152-11.528c.284-.911-1.144-1.3-1.427-.393a51.025,51.025,0,0,1-5.437,11.882c-1.091,1.746-2.286,3.905-3.886,5.235-.753.626-1.95.977-2.528-.076-.349-.636-.328-1.434-.68-2.081-1.748-3.215-6.586,1.209-8.15,2.638a23.5,23.5,0,0,0-6.038,8.92c-.343.889,1.087,1.274,1.427.393" transform="translate(-340.572 -316.771)" fill="#1e243a"/>
      <path id="Trazado_596382" data-name="Trazado 596382" d="M547.15,415.469a2.638,2.638,0,0,1,1.24-.741c.3-.072,1.282-.459,1.49-.343-.139-.077.013.511.027.628.028.239.047.479.068.719.053.595.1,1.189.2,1.779.152.938,1.578.54,1.427-.393-.2-1.215.171-3.947-1.509-4.187a6.132,6.132,0,0,0-2.25.408,4.213,4.213,0,0,0-1.74,1.085c-.7.652.351,1.7,1.046,1.046" transform="translate(-416.642 -315.157)" fill="#1e243a"/>
      <path id="Trazado_596383" data-name="Trazado 596383" d="M525.891,179.142H452.263a.71.71,0,0,1-.71-.71V128.715a.71.71,0,0,1,.71-.71h33.618a.71.71,0,1,1,0,1.42H452.973v48.3h72.207v-48.3H492.273a.71.71,0,1,1,0-1.42h33.618a.71.71,0,0,1,.71.71v49.716a.71.71,0,0,1-.71.71" transform="translate(-344.65 -97.701)" fill="#1e243a"/>
      <path id="Trazado_596384" data-name="Trazado 596384" d="M567.831,164.64H550.549a.71.71,0,0,1-.71-.71V131.5h-5.715a.71.71,0,0,1-.578-1.123l15.066-21.07a.71.71,0,0,1,1.155,0l15.066,21.07a.71.71,0,0,1-.578,1.123h-5.715V163.93a.71.71,0,0,1-.71.71m-16.572-1.42h15.862V130.785a.71.71,0,0,1,.71-.71h5.044L559.19,110.936,545.5,130.075h5.044a.71.71,0,0,1,.71.71Z" transform="translate(-414.764 -83.199)" fill="#1e243a"/>
      <path id="Trazado_596385" data-name="Trazado 596385" d="M464.263,143.358a.71.71,0,0,1-.5-1.212l3.433-3.433a.71.71,0,0,1,1,1l-3.433,3.433a.708.708,0,0,1-.5.208" transform="translate(-353.809 -105.715)" fill="#1e243a"/>
      <path id="Trazado_596386" data-name="Trazado 596386" d="M464.263,150.238a.71.71,0,0,1-.5-1.212l7.813-7.813a.71.71,0,0,1,1,1l-7.813,7.813a.708.708,0,0,1-.5.208" transform="translate(-353.809 -107.623)" fill="#1e243a"/>
      <path id="Trazado_596387" data-name="Trazado 596387" d="M735.763,317.358a.71.71,0,0,1-.5-1.212l3.433-3.433a.71.71,0,0,1,1,1l-3.433,3.433a.708.708,0,0,1-.5.208" transform="translate(-561.033 -238.521)" fill="#1e243a"/>
      <path id="Trazado_596388" data-name="Trazado 596388" d="M717.263,300.738a.71.71,0,0,1-.5-1.212l7.813-7.813a.71.71,0,0,1,1,1l-7.813,7.813a.708.708,0,0,1-.5.208" transform="translate(-546.913 -222.493)" fill="#1e243a"/>
    </g>
  </g>
</svg>
