<svg xmlns="http://www.w3.org/2000/svg" xmlns:xlink="http://www.w3.org/1999/xlink" width="167" height="167" viewBox="0 0 167 167">
  <defs>
    <clipPath id="clip-path">
      <rect id="Rectángulo_293140" data-name="Rectángulo 293140" width="123.081" height="141.459" fill="none"/>
    </clipPath>
  </defs>
  <g id="Grupo_873976" data-name="Grupo 873976" transform="translate(-885.333 -124)">
    <circle id="Elipse_4815" data-name="Elipse 4815" cx="83.5" cy="83.5" r="83.5" transform="translate(885.333 124)" fill="#ff95cc"/>
    <g id="Grupo_873973" data-name="Grupo 873973" transform="translate(907.919 127.367)">
      <g id="Grupo_873905" data-name="Grupo 873905" clip-path="url(#clip-path)">
        <path id="Trazado_595018" data-name="Trazado 595018" d="M146.915,33.5s17.118,3.709,19.686,12.553-1.038,10.577-1.038,10.577S148.056,61.744,146.915,33.5" transform="translate(-105.001 -23.943)" fill="#b1ebc8"/>
        <path id="Trazado_595019" data-name="Trazado 595019" d="M194.621,7s6.57,8.114,8.135,16.182-8.246,13.774-8.246,13.774-9.874-3.606-8.448-12.787S194.621,7,194.621,7" transform="translate(-132.878 -5.003)" fill="#ffeeb0"/>
        <path id="Trazado_595020" data-name="Trazado 595020" d="M143.634,194.859A47.359,47.359,0,1,1,96.274,147.5a47.36,47.36,0,0,1,47.359,47.359" transform="translate(-34.96 -105.419)" fill="#e1ceff"/>
        <path id="Trazado_595021" data-name="Trazado 595021" d="M9.052,353.863h0a5.341,5.341,0,0,1,0-7.553l10.672-10.672a5.341,5.341,0,1,1,7.553,7.553L16.605,353.863a5.341,5.341,0,0,1-7.553,0" transform="translate(-5.352 -238.763)" fill="#fff"/>
        <path id="Trazado_595022" data-name="Trazado 595022" d="M29.693,373.068h0a5.341,5.341,0,0,1,0-7.553l15.9-15.9a5.341,5.341,0,1,1,7.554,7.554l-15.9,15.9a5.341,5.341,0,0,1-7.553,0" transform="translate(-20.104 -248.751)" fill="#fff"/>
        <path id="Trazado_595023" data-name="Trazado 595023" d="M56.168,399.542h0a5.341,5.341,0,0,1,0-7.553l15.9-15.9a5.341,5.341,0,0,1,7.553,7.553l-15.9,15.9a5.341,5.341,0,0,1-7.553,0" transform="translate(-39.025 -267.672)" fill="#fff"/>
        <path id="Trazado_595024" data-name="Trazado 595024" d="M88.474,433.285h0a5.341,5.341,0,0,1,0-7.553L99.146,415.06a5.341,5.341,0,1,1,7.553,7.553L96.027,433.285a5.341,5.341,0,0,1-7.553,0" transform="translate(-62.115 -295.526)" fill="#fff"/>
        <path id="Trazado_595025" data-name="Trazado 595025" d="M366.288,353.863h0a5.341,5.341,0,0,0,0-7.553l-10.672-10.672a5.341,5.341,0,1,0-7.553,7.553l10.672,10.672a5.341,5.341,0,0,0,7.553,0" transform="translate(-247.643 -238.763)" fill="#fff"/>
        <path id="Trazado_595026" data-name="Trazado 595026" d="M332.546,373.068h0a5.34,5.34,0,0,0,0-7.553l-15.9-15.9a5.341,5.341,0,0,0-7.553,0h0a5.342,5.342,0,0,0,0,7.554l15.9,15.9a5.341,5.341,0,0,0,7.553,0" transform="translate(-219.79 -248.751)" fill="#fff"/>
        <path id="Trazado_595027" data-name="Trazado 595027" d="M306.072,399.542h0a5.341,5.341,0,0,0,0-7.553l-15.9-15.9a5.341,5.341,0,1,0-7.553,7.553l15.9,15.9a5.341,5.341,0,0,0,7.553,0" transform="translate(-200.869 -267.672)" fill="#fff"/>
        <path id="Trazado_595028" data-name="Trazado 595028" d="M286.866,433.285h0a5.341,5.341,0,0,0,0-7.553L276.194,415.06a5.341,5.341,0,0,0-7.553,7.553l10.672,10.672a5.341,5.341,0,0,0,7.553,0" transform="translate(-190.88 -295.526)" fill="#fff"/>
        <path id="Trazado_595029" data-name="Trazado 595029" d="M25.121,271.352l-9.563-3.28a5.092,5.092,0,1,0-3.3,9.633l.279.1,2.3,15.587,5.706-5.135v-7.706l1.278.438a5.091,5.091,0,0,0,6.468-3.165h0a5.092,5.092,0,0,0-3.165-6.468" transform="translate(-6.299 -191.394)" fill="#fff"/>
        <path id="Trazado_595030" data-name="Trazado 595030" d="M374.72,271.5a5.092,5.092,0,0,0-6.468-3.165l-9.341,3.2a5.092,5.092,0,1,0,3.3,9.633l.514-.176v8.015l4.137,4.137,4.922-15.272a5.088,5.088,0,0,0,2.932-6.375" transform="translate(-254.055 -191.585)" fill="#fff"/>
        <path id="Trazado_595031" data-name="Trazado 595031" d="M96.233,217.579l-2.777-6.206L82.7,208.743l-6.217,4.065-3.353-4.545.151-3.819-6.945-2.416.754-4.681,5.651-2.376L77.2,198.1l2.113-4.832,5.119-1.438-.856-4.279,10.841-.571,1.141-5.135L87,175.856l-7.132,3.709-3.709-5.706,5.818-5.291-7.214-3A47.376,47.376,0,0,0,80.8,252.547l4.945-5.606,7.232,1.257,3.348-3.109L92.5,240.069l3.733-7.392,4.824.755.3-5.133,3.321-5.888-3.926-4.831Z" transform="translate(-34.96 -118.335)" fill="#fff"/>
        <path id="Trazado_595032" data-name="Trazado 595032" d="M286.921,247.816l-14.406,8.445-3.111-3.929-10.632,2.345s.4,4.777.4,5.078-3.844,2.695-3.844,2.695v4.065l9.565,4.544,10.1-.571L287.65,283.94a47.472,47.472,0,0,0-.439-36.864Z" transform="translate(-182.484 -176.586)" fill="#fff"/>
        <path id="Trazado_595033" data-name="Trazado 595033" d="M46.1,118.02a7.435,7.435,0,0,0-2.964-1.817,7.474,7.474,0,0,0-6.39-11.487,7.474,7.474,0,0,0-11.487-6.39,7.468,7.468,0,0,0-9.371-4.8c-.052-.557-.093-1.11-.123-1.662a7.229,7.229,0,0,0,3.754-13.929l-2.175-.746A45.749,45.749,0,0,1,39.374,49.4a2.107,2.107,0,0,0,.2.094l3.5,1.434-3.311,3.012a2.139,2.139,0,0,0-.354,2.749L43.117,62.4a2.139,2.139,0,0,0,2.781.732l5.981-3.11L58.2,64.444,57.725,66.6l-9.218.486a2.139,2.139,0,0,0-1.986,2.556l.467,2.336-3.211.9a2.141,2.141,0,0,0-1.382,1.2L41.33,76.514l-2.323-1.63a2.14,2.14,0,0,0-2.058-.221L31.3,77.04a2.141,2.141,0,0,0-1.283,1.632l-.755,4.68a2.14,2.14,0,0,0,1.409,2.362l5.447,1.895-.088,2.235a2.138,2.138,0,0,0,.416,1.355L39.8,95.742a2.139,2.139,0,0,0,2.893.521l5.441-3.557,8.841,2.161,2.349,5.25a2.139,2.139,0,0,0,1.953,1.266h3.5l2.364,2.91-2.606,4.619a2.142,2.142,0,0,0-.272.926l-.163,2.781-2.5-.391a2.141,2.141,0,0,0-2.24,1.149l-3.733,7.392a2.14,2.14,0,0,0,.208,2.261l2.65,3.478-1.148,1.066L51.153,126.5a2.14,2.14,0,1,0-.733,4.216l7.232,1.257a2.143,2.143,0,0,0,1.822-.54l3.348-3.109a2.14,2.14,0,0,0,.246-2.865L60.054,121.5l2.427-4.805,3.285.514a2.14,2.14,0,0,0,2.467-1.989l.273-4.639,3.078-5.457a2.139,2.139,0,0,0-.2-2.4l-3.925-4.831A2.14,2.14,0,0,0,65.8,97.1H62.661l-2.21-4.94a2.139,2.139,0,0,0-1.445-1.2l-10.761-2.63a2.136,2.136,0,0,0-1.679.288L42.04,91.575l-1.707-2.313.122-3.069a2.14,2.14,0,0,0-1.435-2.105l-5.25-1.826.28-1.737,3.467-1.458,3.5,2.452a2.14,2.14,0,0,0,3.189-.894l1.708-3.9,4.144-1.164a2.14,2.14,0,0,0,1.52-2.48L51.2,71.225l8.37-.441a2.14,2.14,0,0,0,1.976-1.672l1.141-5.135a2.141,2.141,0,0,0-.862-2.217L53.27,55.768a2.139,2.139,0,0,0-2.214-.145l-5.41,2.813-1.659-2.553,4.471-4.067a2.14,2.14,0,0,0-.628-3.563l-3.2-1.311A45.135,45.135,0,0,1,59.6,43.884v3.651a2.14,2.14,0,1,0,4.279,0V33.562c2.678-1.448,8.559-5.307,8.559-11.271,0-10.982-8.713-21.128-9.084-21.555a2.14,2.14,0,0,0-3.229,0c-.371.427-9.084,10.573-9.084,21.555,0,3.318,1.978,6.052,4.157,8.06a9.345,9.345,0,0,1-5.317-2.726c-2.057-2.16-3.741-5.922-4.869-10.88-.3-1.319-.524-2.565-.688-3.636,1,.388,2.143.808,3.353,1.2a2.14,2.14,0,1,0,1.309-4.074,58.982,58.982,0,0,1-6.3-2.464,2.14,2.14,0,0,0-3.051,2.07c.037.579.976,14.26,7.148,20.74A14.508,14.508,0,0,0,57.55,34.831a20.141,20.141,0,0,0,2.054-.107V39.6a49.182,49.182,0,0,0-29.317,10.72,50.043,50.043,0,0,0-17,25.475L9.954,74.654A7.231,7.231,0,0,0,3.521,87.459c1.506,3.069,4.229,10.347,2.406,14.836l-3.739,3.739a7.49,7.49,0,0,0,0,10.579h0a7.437,7.437,0,0,0,3.937,2.064,7.477,7.477,0,0,0,7.241,9.344l.078,0a7.466,7.466,0,0,0,7.475,7.551,7.532,7.532,0,0,0,1.864-.236,7.481,7.481,0,0,0,12.643,3.937L46.1,128.6a7.49,7.49,0,0,0,0-10.579M61.745,5.641c2.347,3.275,6.417,9.925,6.417,16.649,0,3.342-3.78,6.124-6.159,7.431a2.12,2.12,0,0,0-.26-.017c-.069,0-.137,0-.2.01-2.4-1.379-6.215-4.245-6.215-7.424,0-6.7,4.076-13.369,6.421-16.649m-56.93,74.9A2.951,2.951,0,0,1,8.566,78.7l9.563,3.279a2.952,2.952,0,1,1-1.915,5.585h0L6.65,84.287a2.955,2.955,0,0,1-1.835-3.75m4.218,9.091,2.4.822a45.778,45.778,0,0,0,.478,5.862l-1.151,1.151a30.368,30.368,0,0,0-1.725-7.835M5.214,109.06,15.887,98.388a3.2,3.2,0,0,1,4.527,4.527L9.741,113.586a3.2,3.2,0,0,1-4.527,0h0a3.2,3.2,0,0,1,0-4.527m8.152,14.681A3.18,3.18,0,0,1,11.1,122.8h0a3.2,3.2,0,0,1,0-4.527l1.664-1.664h0L23.44,105.941l0,0L27,102.375a3.2,3.2,0,0,1,4.527,4.527l-15.9,15.9a3.181,3.181,0,0,1-2.264.937m5.29,6.615a3.2,3.2,0,0,1,0-4.527l15.9-15.9a3.2,3.2,0,1,1,4.527,4.527l-3.566,3.566L24.847,128.693l-1.664,1.664a3.2,3.2,0,0,1-4.527,0m24.416-4.783L32.4,136.246a3.2,3.2,0,1,1-4.527-4.527l10.672-10.672a3.2,3.2,0,1,1,4.527,4.527" transform="translate(0)" fill="#6826cc"/>
        <path id="Trazado_595034" data-name="Trazado 595034" d="M288.663,202.977c-.089-4.258,3-10.687,4.558-13.443a7.231,7.231,0,0,0-6.268-12.915l-4.33,1.485a49.921,49.921,0,0,0-37.338-35.493,2.14,2.14,0,0,0-.913,4.181,45.646,45.646,0,0,1,31.409,25.082L264,178.777l-1.957-2.471a2.141,2.141,0,0,0-2.138-.761l-10.632,2.345a2.14,2.14,0,0,0-1.672,2.269c.1,1.252.242,2.917.324,3.969-.7.486-1.81,1.213-2.765,1.808a2.139,2.139,0,0,0-1.009,1.816v4.065a2.14,2.14,0,0,0,1.222,1.933l9.565,4.543a2.138,2.138,0,0,0,.918.207c.04,0,.08,0,.121,0l10.1-.571a2.14,2.14,0,0,0-.241-4.273l-9.559.54-7.85-3.729v-1.529c3.349-2.121,3.843-2.682,3.843-3.878,0-.082,0-.308-.253-3.391l7.5-1.654,2.28,2.88a2.14,2.14,0,0,0,2.76.518l12.868-7.543c.427,1.188.808,2.4,1.135,3.628l-.955.327a7.235,7.235,0,0,0,2.339,14.076c.025,0,.05,0,.074,0-.029.5-.068,1.009-.116,1.518a7.468,7.468,0,0,0-9.371,4.8,7.474,7.474,0,0,0-11.487,6.39,7.474,7.474,0,0,0-6.392,11.483,7.483,7.483,0,0,0-2.962,12.4l10.672,10.672a7.475,7.475,0,0,0,12.643-3.937,7.47,7.47,0,0,0,9.339-7.316l.077,0a7.477,7.477,0,0,0,7.242-9.344,7.475,7.475,0,0,0,3.937-12.643Zm-4.776-4.777a46.107,46.107,0,0,0,.467-5.4l2.965-1.017c-.148.33-.3.667-.443,1.017a35.413,35.413,0,0,0-2.069,6.321Zm-5.226-8.886a2.952,2.952,0,0,1,.34-5.444l9.341-3.2a2.952,2.952,0,0,1,1.915,5.585l-9.341,3.2h0a2.934,2.934,0,0,1-2.255-.141m-10.738,48.82a3.2,3.2,0,0,1-4.527,0l-10.672-10.672a3.2,3.2,0,0,1,4.524-4.53l10.678,10.678a3.2,3.2,0,0,1,0,4.524m9.217-5.889a3.2,3.2,0,0,1-4.527,0l-1.659-1.658-.005-.006-10.672-10.672-.006-.005-3.56-3.56a3.2,3.2,0,0,1,4.526-4.527l15.9,15.9a3.2,3.2,0,0,1,0,4.527m7.553-7.553h0a3.2,3.2,0,0,1-4.527,0l-15.9-15.9a3.2,3.2,0,0,1,4.527-4.527l15.9,15.9a3.2,3.2,0,0,1,0,4.527m5.889-9.217a3.2,3.2,0,0,1-4.527,0L275.383,204.8a3.2,3.2,0,0,1,4.527-4.527l10.672,10.672a3.2,3.2,0,0,1,0,4.527" transform="translate(-173.45 -101.889)" fill="#6826cc"/>
        <path id="Trazado_595035" data-name="Trazado 595035" d="M184.9,462.14a45.685,45.685,0,0,1-31.155.227,2.14,2.14,0,0,0-1.436,4.031,49.964,49.964,0,0,0,34.087-.248,2.14,2.14,0,0,0-1.5-4.01" transform="translate(-107.839 -330.195)" fill="#6826cc"/>
      </g>
    </g>
  </g>
</svg>
