<svg xmlns="http://www.w3.org/2000/svg" xmlns:xlink="http://www.w3.org/1999/xlink" width="105" height="105" viewBox="0 0 105 105">
  <defs>
    <clipPath id="clip-path">
      <rect id="Rectángulo_293515" data-name="Rectángulo 293515" width="44.269" height="68.521" fill="none"/>
    </clipPath>
  </defs>
  <g id="Grupo_874288" data-name="Grupo 874288" transform="translate(-328 -4003)">
    <circle id="Elipse_4851" data-name="Elipse 4851" cx="52.5" cy="52.5" r="52.5" transform="translate(328 4003)" fill="#f6f6f6"/>
    <g id="Grupo_874278" data-name="Grupo 874278" transform="translate(358.092 4021.24)">
      <g id="Grupo_874277" data-name="Grupo 874277" clip-path="url(#clip-path)">
        <path id="Trazado_596145" data-name="Trazado 596145" d="M49.974,20.985H16.112a.792.792,0,0,1-.792-.792V.792A.792.792,0,0,1,16.112,0H49.974a.792.792,0,0,1,.792.792v19.4a.792.792,0,0,1-.792.792M16.9,19.4H49.182V1.584H16.9Z" transform="translate(-10.908)" fill="#344154"/>
        <path id="Trazado_596146" data-name="Trazado 596146" d="M47.012,26.136a.789.789,0,0,1-.56-.232,9.564,9.564,0,0,1,0-13.526.792.792,0,0,1,1.12,1.12,7.981,7.981,0,0,0,0,11.287.792.792,0,0,1-.56,1.352" transform="translate(-31.081 -8.648)" fill="#344154"/>
        <path id="Trazado_596147" data-name="Trazado 596147" d="M96.449,26.136a.792.792,0,0,1-.56-1.352,7.99,7.99,0,0,0,0-11.287.792.792,0,0,1,1.12-1.12,9.575,9.575,0,0,1,0,13.526.789.789,0,0,1-.56.232" transform="translate(-68.111 -8.648)" fill="#344154"/>
        <path id="Trazado_596148" data-name="Trazado 596148" d="M117.584,36.347a1.2,1.2,0,1,1,1.2-1.2,1.2,1.2,0,0,1-1.2,1.2m0-1.584a.386.386,0,1,0,.386.386.387.387,0,0,0-.386-.386" transform="translate(-82.871 -24.175)" fill="#344154"/>
        <path id="Trazado_596149" data-name="Trazado 596149" d="M30.226,36.347a1.2,1.2,0,1,1,1.2-1.2,1.2,1.2,0,0,1-1.2,1.2m0-1.584a.386.386,0,1,0,.386.386.387.387,0,0,0-.386-.386" transform="translate(-20.669 -24.175)" fill="#344154"/>
        <path id="Trazado_596150" data-name="Trazado 596150" d="M68.918,28.108A3.218,3.218,0,0,1,65.7,24.894a.792.792,0,1,1,1.584,0,1.63,1.63,0,0,0,3.261,0c0-.67-.307-1.157-1.876-1.669-1.97-.643-2.969-1.711-2.969-3.175a3.214,3.214,0,1,1,6.428,0,.792.792,0,1,1-1.584,0,1.63,1.63,0,0,0-3.261,0c0,.492.213,1.127,1.876,1.67.888.29,2.969.969,2.969,3.175a3.218,3.218,0,0,1-3.214,3.214" transform="translate(-46.784 -11.987)" fill="#344154"/>
        <path id="Trazado_596151" data-name="Trazado 596151" d="M74.908,15.1a.792.792,0,0,1-.792-.792V12.938a.792.792,0,0,1,1.584,0V14.3a.792.792,0,0,1-.792.792" transform="translate(-52.773 -8.648)" fill="#344154"/>
        <path id="Trazado_596152" data-name="Trazado 596152" d="M74.908,53.433a.792.792,0,0,1-.792-.792V51.274a.792.792,0,1,1,1.584,0v1.367a.792.792,0,0,1-.792.792" transform="translate(-52.773 -35.945)" fill="#344154"/>
        <path id="Trazado_596153" data-name="Trazado 596153" d="M9.559,122.4H.792a.792.792,0,1,1,0-1.584H9.559a.792.792,0,1,1,0,1.584" transform="translate(0 -86.024)" fill="#344154"/>
        <path id="Trazado_596154" data-name="Trazado 596154" d="M127.345,122.4h-8.767a.792.792,0,0,1,0-1.584h8.767a.792.792,0,1,1,0,1.584" transform="translate(-83.868 -86.024)" fill="#344154"/>
        <path id="Trazado_596155" data-name="Trazado 596155" d="M22.135,132.866A22.16,22.16,0,0,1,0,110.731V91.16a.792.792,0,0,1,.792-.792H9.559a.792.792,0,0,1,.792.792v19.571a11.783,11.783,0,1,0,23.567,0V91.16a.792.792,0,0,1,.792-.792h8.767a.792.792,0,0,1,.792.792v19.571a22.16,22.16,0,0,1-22.135,22.135M1.584,91.952v18.779a20.551,20.551,0,1,0,41.1,0V91.952H35.5v18.779a13.367,13.367,0,1,1-26.734,0V91.952Z" transform="translate(0 -64.345)" fill="#344154"/>
        <path id="Trazado_596156" data-name="Trazado 596156" d="M75.81,101.979a.792.792,0,0,1-.792-.792V83.634a.792.792,0,0,1,1.584,0v17.554a.792.792,0,0,1-.792.792" transform="translate(-53.416 -58.987)" fill="#344154"/>
        <path id="Trazado_596157" data-name="Trazado 596157" d="M54.74,107.518a.792.792,0,0,1-.792-.792V96.7a.792.792,0,0,1,1.584,0v10.031a.792.792,0,0,1-.792.792" transform="translate(-38.413 -68.287)" fill="#344154"/>
        <path id="Trazado_596158" data-name="Trazado 596158" d="M95.076,107.518a.792.792,0,0,1-.792-.792V96.7a.792.792,0,0,1,1.584,0v10.031a.792.792,0,0,1-.792.792" transform="translate(-67.134 -68.287)" fill="#344154"/>
        <path id="Trazado_596159" data-name="Trazado 596159" d="M47.668,141.81v4.349A15.962,15.962,0,0,1,32.4,162.23a15.759,15.759,0,0,1-16.219-15.736V141.81a1.216,1.216,0,0,0-1.216-1.216h0a1.216,1.216,0,0,0-1.216,1.216v4.322a18.472,18.472,0,0,0,18.49,18.534A18.2,18.2,0,0,0,50.1,146.494V141.81a1.216,1.216,0,0,0-2.432,0" transform="translate(-9.791 -100.108)" fill="#6826cc"/>
      </g>
    </g>
  </g>
</svg>
