<svg xmlns="http://www.w3.org/2000/svg" width="66.973" height="66.974" viewBox="0 0 66.973 66.974">
  <g id="Grupo_874380" data-name="Grupo 874380" transform="translate(-1040 -6568)">
    <path id="Trazado_595768" data-name="Trazado 595768" d="M88.071,147.554a33.487,33.487,0,1,1,33.64-33.333,33.525,33.525,0,0,1-33.64,33.333" transform="translate(985.263 6487.419)" fill="#fff"/>
    <path id="Trazado_596973" data-name="Trazado 596973" d="M17.246-28.73v4.648H16.7a9.589,9.589,0,0,0-6.162,1.992,8.094,8.094,0,0,0-2.8,5.371,7.688,7.688,0,0,1,5.723-2.3,7.243,7.243,0,0,1,5.9,2.656,10.648,10.648,0,0,1,2.188,6.992,10.474,10.474,0,0,1-1.2,5.02,8.615,8.615,0,0,1-3.4,3.5A9.873,9.873,0,0,1,11.973.391,9.221,9.221,0,0,1,4.717-2.734a12.13,12.13,0,0,1-2.764-8.34v-2.031A18.255,18.255,0,0,1,3.7-21.279a12.818,12.818,0,0,1,5.02-5.488,14.709,14.709,0,0,1,7.588-1.963ZM11.738-14.473a4.51,4.51,0,0,0-2.48.712A4.287,4.287,0,0,0,7.617-11.88v1.715A7.6,7.6,0,0,0,8.73-5.749,3.6,3.6,0,0,0,11.855-4.16a3.558,3.558,0,0,0,2.939-1.433,5.844,5.844,0,0,0,1.123-3.714,5.833,5.833,0,0,0-1.133-3.743A3.692,3.692,0,0,0,11.738-14.473Z" transform="translate(1061 6615)" fill="#ea3584"/>
  </g>
</svg>
