<svg xmlns="http://www.w3.org/2000/svg" xmlns:xlink="http://www.w3.org/1999/xlink" width="105" height="105" viewBox="0 0 105 105">
  <defs>
    <clipPath id="clip-path">
      <rect id="Rectángulo_293517" data-name="Rectángulo 293517" width="87.301" height="65.97" fill="none"/>
    </clipPath>
  </defs>
  <g id="Grupo_874290" data-name="Grupo 874290" transform="translate(-958 -4003)">
    <circle id="Elipse_4854" data-name="Elipse 4854" cx="52.5" cy="52.5" r="52.5" transform="translate(958 4003)" fill="#f6f6f6"/>
    <g id="Grupo_874282" data-name="Grupo 874282" transform="translate(967.349 4025.849)">
      <g id="Grupo_874281" data-name="Grupo 874281" clip-path="url(#clip-path)">
        <path id="Trazado_596170" data-name="Trazado 596170" d="M56.564,30.371a.878.878,0,0,1-.44-.118l-22-12.7a.881.881,0,0,1,0-1.529L62.017.115a.883.883,0,0,1,.873,0L75.7,7.425a.882.882,0,0,1-.874,1.531L62.453,1.9l-26.114,14.9L57.006,28.726a.881.881,0,0,1-.442,1.645" transform="translate(-22.889 0.001)" fill="#344154"/>
        <path id="Trazado_596171" data-name="Trazado 596171" d="M62.453,137.814a.88.88,0,0,1-.441-.118L34.128,121.6a.881.881,0,0,1-.441-.763V106.616a.881.881,0,0,1,1.763,0v13.707l27,15.591,27-15.591V107.033a.881.881,0,1,1,1.763,0v13.8a.881.881,0,0,1-.441.763L62.894,137.7a.88.88,0,0,1-.441.118" transform="translate(-22.889 -71.844)" fill="#344154"/>
        <path id="Trazado_596172" data-name="Trazado 596172" d="M121.564,137.682a.881.881,0,0,1-.881-.881V122.333a.881.881,0,1,1,1.763,0V136.8a.881.881,0,0,1-.881.881" transform="translate(-82.001 -82.523)" fill="#344154"/>
        <path id="Trazado_596173" data-name="Trazado 596173" d="M125.41,103.844a.878.878,0,0,1-.44-.118l-3.847-2.221A.881.881,0,1,1,122,99.978l3.847,2.221a.881.881,0,0,1-.442,1.645" transform="translate(-82 -67.851)" fill="#344154"/>
        <path id="Trazado_596174" data-name="Trazado 596174" d="M28.766,73.73a.88.88,0,0,1-.441-.118L.441,57.513a.881.881,0,0,1,0-1.526l10.8-6.234a.881.881,0,1,1,.881,1.527l-9.475,5.47L28.766,71.831l10.357-5.98A.881.881,0,0,1,40,67.378l-10.8,6.234a.88.88,0,0,1-.441.118" transform="translate(0 -33.725)" fill="#344154"/>
        <path id="Trazado_596175" data-name="Trazado 596175" d="M197.867,32.256l1.358,2.753a2.03,2.03,0,0,0,1.529,1.111l3.038.442-2.2,2.142a2.032,2.032,0,0,0-.584,1.8l.519,3.025L198.812,42.1a2.031,2.031,0,0,0-1.89,0l-2.717,1.429.519-3.025a2.031,2.031,0,0,0-.584-1.8l-2.2-2.142,3.038-.442a2.03,2.03,0,0,0,1.529-1.111Z" transform="translate(-130.419 -21.917)" fill="#6826cc"/>
        <path id="Trazado_596176" data-name="Trazado 596176" d="M178.031,36.519a15.283,15.283,0,1,1,15.283-15.283,15.3,15.3,0,0,1-15.283,15.283m0-28.8a13.52,13.52,0,1,0,13.52,13.52,13.535,13.535,0,0,0-13.52-13.52" transform="translate(-110.582 -4.045)" fill="#344154"/>
        <path id="Trazado_596177" data-name="Trazado 596177" d="M227.154,99.163a.881.881,0,0,1-.716-.368l-6.978-9.728a.881.881,0,0,1,1.432-1.028l5.738,8,.825-5a.882.882,0,0,1,1.013-.726l4.955.818-3.881-5.254a.881.881,0,0,1,1.418-1.048l5.172,7a.882.882,0,0,1-.853,1.393L229.051,92.2l-1.028,6.229a.881.881,0,0,1-.87.738" transform="translate(-149.004 -57.396)" fill="#344154"/>
        <path id="Trazado_596178" data-name="Trazado 596178" d="M157.643,99.163a.872.872,0,0,1-.2-.023.881.881,0,0,1-.669-.715L155.746,92.2l-6.229,1.028a.882.882,0,0,1-.852-1.393l5.172-7a.881.881,0,0,1,1.418,1.048l-3.881,5.254,4.956-.818a.881.881,0,0,1,1.013.726l.825,5,5.738-8a.881.881,0,0,1,1.432,1.028L158.359,98.8a.881.881,0,0,1-.716.368" transform="translate(-100.896 -57.396)" fill="#344154"/>
        <path id="Trazado_596179" data-name="Trazado 596179" d="M67.209,45.96V34.2L56.963,40.044Z" transform="translate(-38.705 -23.237)" fill="#6826cc"/>
      </g>
    </g>
  </g>
</svg>
