<svg xmlns="http://www.w3.org/2000/svg" xmlns:xlink="http://www.w3.org/1999/xlink" width="85" height="85" viewBox="0 0 85 85">
  <defs>
    <clipPath id="clip-path">
      <rect id="Rect치ngulo_293154" data-name="Rect치ngulo 293154" width="48.875" height="65.075" fill="none"/>
    </clipPath>
  </defs>
  <g id="Grupo_873927" data-name="Grupo 873927" transform="translate(-810 -4303)">
    <rect id="Rect치ngulo_293153" data-name="Rect치ngulo 293153" width="85" height="85" rx="42.5" transform="translate(810 4303)" fill="#d4f4e1"/>
    <g id="Grupo_873921" data-name="Grupo 873921" transform="translate(829.475 4315.137)">
      <g id="Grupo_873920" data-name="Grupo 873920" clip-path="url(#clip-path)">
        <path id="Trazado_595102" data-name="Trazado 595102" d="M3.816,11.006a.751.751,0,0,1-.751-.751V9.013a3.569,3.569,0,0,1,1.848-3.16A2.324,2.324,0,0,0,6.076,3.309,2.315,2.315,0,0,0,1.5,3.815a.751.751,0,0,1-1.5,0,3.817,3.817,0,1,1,5.626,3.36A2.069,2.069,0,0,0,4.567,9.013v1.242a.751.751,0,0,1-.751.751" transform="translate(0 0)" fill="#344154"/>
        <path id="Trazado_595103" data-name="Trazado 595103" d="M11.438,44.17a.951.951,0,1,1,.951-.951.952.952,0,0,1-.951.951m0-1.5a.551.551,0,1,0,.552.551.552.552,0,0,0-.552-.551" transform="translate(-7.622 -30.721)" fill="#344154"/>
        <path id="Trazado_595104" data-name="Trazado 595104" d="M154.793,11.006a.751.751,0,0,1-.751-.751V9.013a3.568,3.568,0,0,1,1.848-3.16,2.324,2.324,0,0,0,1.163-2.544,2.315,2.315,0,0,0-4.574.506.751.751,0,1,1-1.5,0,3.817,3.817,0,1,1,5.626,3.36,2.069,2.069,0,0,0-1.059,1.838v1.242a.751.751,0,0,1-.751.751" transform="translate(-109.733 0)" fill="#344154"/>
        <path id="Trazado_595105" data-name="Trazado 595105" d="M162.415,44.17a.951.951,0,1,1,.951-.951.952.952,0,0,1-.951.951m0-1.5a.551.551,0,1,0,.552.551.552.552,0,0,0-.552-.551" transform="translate(-117.355 -30.721)" fill="#344154"/>
        <path id="Trazado_595106" data-name="Trazado 595106" d="M99.126,119.037H97.862a.751.751,0,1,1,0-1.5h1.264a3.276,3.276,0,0,0,3.272-3.272V85.2a.751.751,0,0,1,1.173-.622l3.656,2.475a2.271,2.271,0,0,0,3.248-.758l4.129-7.266a2.2,2.2,0,0,0-.889-3.031,2.2,2.2,0,0,0-2.894.8l-2.387,4.222a.751.751,0,0,1-1.126.215L101.09,76.21a.751.751,0,1,1,.944-1.169l5.528,4.462,1.964-3.474a3.714,3.714,0,0,1,4.886-1.364,3.7,3.7,0,0,1,1.5,5.1l-4.129,7.266a3.773,3.773,0,0,1-5.4,1.26L103.9,86.612v27.65a4.78,4.78,0,0,1-4.774,4.774" transform="translate(-70.582 -53.962)" fill="#344154"/>
        <path id="Trazado_595107" data-name="Trazado 595107" d="M28.647,119.035a4.78,4.78,0,0,1-4.774-4.774V86.4l-2.634,1.882a3.773,3.773,0,0,1-5.412-1.249L11.7,79.767a3.7,3.7,0,0,1,1.5-5.1A3.709,3.709,0,0,1,18.067,76l1.978,3.5,5.528-4.462a.751.751,0,0,1,.944,1.169L20.3,81.227a.751.751,0,0,1-1.126-.215l-2.4-4.245A2.2,2.2,0,0,0,13,79.024l4.129,7.266a2.271,2.271,0,0,0,3.248.758l3.807-2.72a.751.751,0,0,1,1.188.611v29.321a3.272,3.272,0,1,0,6.544,0V98.323a.751.751,0,1,1,1.5,0v15.938a4.78,4.78,0,0,1-4.774,4.774" transform="translate(-8.149 -53.96)" fill="#344154"/>
        <path id="Trazado_595108" data-name="Trazado 595108" d="M66.247,30.628a8.838,8.838,0,1,1,8.838-8.838,8.848,8.848,0,0,1-8.838,8.838m0-16.173a7.335,7.335,0,1,0,7.335,7.335,7.344,7.344,0,0,0-7.335-7.335" transform="translate(-41.726 -9.414)" fill="#344154"/>
        <path id="Trazado_595109" data-name="Trazado 595109" d="M83.257,27.409a4.853,4.853,0,0,0-2.444.661,4.877,4.877,0,0,1,0,8.454,4.886,4.886,0,1,0,2.444-9.116" transform="translate(-58.736 -19.921)" fill="#6daa85"/>
      </g>
    </g>
  </g>
</svg>
