<svg xmlns="http://www.w3.org/2000/svg" xmlns:xlink="http://www.w3.org/1999/xlink" width="1328" height="605" viewBox="0 0 1328 605">
  <defs>
    <linearGradient id="linear-gradient" x1="0.5" x2="0.5" y2="1" gradientUnits="objectBoundingBox">
      <stop offset="0" stop-color="#fff"/>
      <stop offset="1" stop-color="#fff0f8"/>
    </linearGradient>
    <linearGradient id="linear-gradient-2" y1="1" y2="0" xlink:href="#linear-gradient"/>
    <clipPath id="clip-path">
      <rect id="Rectángulo_42710" data-name="Rectángulo 42710" width="466.305" height="398.633" fill="#fff"/>
    </clipPath>
  </defs>
  <g id="Grupo_873017" data-name="Grupo 873017" transform="translate(0 0.144)">
    <g id="Grupo_870592" data-name="Grupo 870592" transform="translate(0 -0.144)">
      <path id="Trazado_217912" data-name="Trazado 217912" d="M1328,0H0V604.6H1328Z" transform="translate(0 0.144)" fill="#fff0f8"/>
      <rect id="Rectángulo_42708" data-name="Rectángulo 42708" width="1328" height="77" fill="url(#linear-gradient)"/>
      <rect id="Rectángulo_42709" data-name="Rectángulo 42709" width="1328" height="77" transform="translate(0 528)" fill="url(#linear-gradient-2)"/>
    </g>
    <g id="Grupo_870594" data-name="Grupo 870594" transform="translate(861.695)">
      <g id="Grupo_870593" data-name="Grupo 870593" clip-path="url(#clip-path)">
        <path id="Trazado_212654" data-name="Trazado 212654" d="M6.429,12.111A6.22,6.22,0,0,1,0,6.125,6.22,6.22,0,0,1,6.429.139a6.22,6.22,0,0,1,6.429,5.986,6.22,6.22,0,0,1-6.429,5.986" transform="translate(453.448 -0.039)" fill="#fff"/>
        <path id="Trazado_212655" data-name="Trazado 212655" d="M28.41,12.171a6.322,6.322,0,0,1-6.535-6.085A6.322,6.322,0,0,1,28.41,0a6.322,6.322,0,0,1,6.535,6.085,6.322,6.322,0,0,1-6.535,6.085" transform="translate(412.308 0)" fill="#fff"/>
        <path id="Trazado_212656" data-name="Trazado 212656" d="M50.424,12.111A6.22,6.22,0,0,1,44,6.125a6.445,6.445,0,0,1,12.857,0,6.22,6.22,0,0,1-6.429,5.986" transform="translate(371.134 -0.039)" fill="#fff"/>
        <path id="Trazado_212657" data-name="Trazado 212657" d="M72.452,9.634c-3.433,0-6.216-2.064-6.216-4.61S69.02.414,72.452.414s6.216,2.064,6.216,4.61-2.783,4.61-6.216,4.61" transform="translate(329.947 -0.117)" fill="#fff"/>
        <path id="Trazado_212658" data-name="Trazado 212658" d="M94.49,11.84A5.757,5.757,0,0,1,88.539,6.3a5.966,5.966,0,0,1,11.9,0A5.757,5.757,0,0,1,94.49,11.84" transform="translate(288.75 -0.214)" fill="#fff"/>
        <path id="Trazado_212659" data-name="Trazado 212659" d="M116.534,11.661A5.448,5.448,0,0,1,110.9,6.417a5.646,5.646,0,0,1,11.263,0,5.448,5.448,0,0,1-5.632,5.244" transform="translate(247.546 -0.331)" fill="#fff"/>
        <path id="Trazado_212660" data-name="Trazado 212660" d="M138.571,11.511a5.191,5.191,0,0,1-5.366-5,5.38,5.38,0,0,1,10.732,0,5.191,5.191,0,0,1-5.366,5" transform="translate(206.349 -0.428)" fill="#fff"/>
        <path id="Trazado_212661" data-name="Trazado 212661" d="M160.615,11.33a4.883,4.883,0,0,1-5.047-4.7,5.06,5.06,0,0,1,10.095,0,4.883,4.883,0,0,1-5.047,4.7" transform="translate(165.146 -0.545)" fill="#fff"/>
        <path id="Trazado_212662" data-name="Trazado 212662" d="M182.653,11.18a4.626,4.626,0,0,1-4.782-4.453,4.794,4.794,0,0,1,9.563,0,4.626,4.626,0,0,1-4.782,4.453" transform="translate(123.949 -0.643)" fill="#fff"/>
        <path id="Trazado_212663" data-name="Trazado 212663" d="M204.7,11a4.318,4.318,0,0,1-4.463-4.155,4.474,4.474,0,0,1,8.926,0A4.318,4.318,0,0,1,204.7,11" transform="translate(82.746 -0.76)" fill="#fff"/>
        <path id="Trazado_212664" data-name="Trazado 212664" d="M226.734,10.851a4.06,4.06,0,0,1-4.2-3.908,4.208,4.208,0,0,1,8.395,0,4.06,4.06,0,0,1-4.2,3.908" transform="translate(41.549 -0.857)" fill="#fff"/>
        <path id="Trazado_212665" data-name="Trazado 212665" d="M248.778,10.67A3.752,3.752,0,0,1,244.9,7.059a3.888,3.888,0,0,1,7.757,0,3.752,3.752,0,0,1-3.878,3.612" transform="translate(0.346 -0.974)" fill="#fff"/>
        <path id="Trazado_212666" data-name="Trazado 212666" d="M270.816,10.521A3.5,3.5,0,0,1,267.2,7.157a3.622,3.622,0,0,1,7.226,0,3.5,3.5,0,0,1-3.613,3.364" transform="translate(-40.851 -1.071)" fill="#fff"/>
        <path id="Trazado_212667" data-name="Trazado 212667" d="M292.86,10.341a3.187,3.187,0,0,1-3.294-3.068,3.3,3.3,0,0,1,6.588,0,3.187,3.187,0,0,1-3.294,3.068" transform="translate(-82.055 -1.188)" fill="#fff"/>
        <path id="Trazado_212668" data-name="Trazado 212668" d="M314.9,10.19a2.93,2.93,0,0,1-3.028-2.82,3.036,3.036,0,0,1,6.057,0,2.93,2.93,0,0,1-3.028,2.82" transform="translate(-123.25 -1.285)" fill="#fff"/>
        <path id="Trazado_212669" data-name="Trazado 212669" d="M336.942,10.011a2.621,2.621,0,0,1-2.71-2.523,2.717,2.717,0,0,1,5.419,0,2.621,2.621,0,0,1-2.71,2.523" transform="translate(-164.455 -1.402)" fill="#fff"/>
        <path id="Trazado_212670" data-name="Trazado 212670" d="M358.978,9.861a2.364,2.364,0,0,1-2.444-2.275,2.45,2.45,0,0,1,4.888,0,2.364,2.364,0,0,1-2.444,2.275" transform="translate(-205.65 -1.499)" fill="#fff"/>
        <path id="Trazado_212671" data-name="Trazado 212671" d="M381.023,9.68A2.055,2.055,0,0,1,378.9,7.7a2.131,2.131,0,0,1,4.25,0,2.055,2.055,0,0,1-2.125,1.979" transform="translate(-246.855 -1.616)" fill="#fff"/>
        <path id="Trazado_212672" data-name="Trazado 212672" d="M403.067,9.5a1.748,1.748,0,0,1-1.806-1.682,1.811,1.811,0,0,1,3.613,0A1.747,1.747,0,0,1,403.067,9.5" transform="translate(-288.058 -1.733)" fill="#fff"/>
        <path id="Trazado_212673" data-name="Trazado 212673" d="M425.1,9.351a1.49,1.49,0,0,1-1.541-1.434,1.545,1.545,0,0,1,3.082,0A1.49,1.49,0,0,1,425.1,9.351" transform="translate(-329.255 -1.83)" fill="#fff"/>
        <path id="Trazado_212674" data-name="Trazado 212674" d="M447.149,9.17a1.182,1.182,0,0,1-1.222-1.138,1.225,1.225,0,0,1,2.444,0,1.182,1.182,0,0,1-1.222,1.138" transform="translate(-370.458 -1.947)" fill="#fff"/>
        <path id="Trazado_212675" data-name="Trazado 212675" d="M469.186,9.02a.893.893,0,1,1,.956-.891.926.926,0,0,1-.956.891" transform="translate(-411.656 -2.044)" fill="#fff"/>
        <path id="Trazado_212676" data-name="Trazado 212676" d="M491.23,8.841a.6.6,0,1,1,.638-.593.617.617,0,0,1-.638.593" transform="translate(-452.859 -2.161)" fill="#fff"/>
        <path id="Trazado_212677" data-name="Trazado 212677" d="M513.268,8.69a.347.347,0,1,1,.372-.347.36.36,0,0,1-.372.347" transform="translate(-494.056 -2.259)" fill="#fff"/>
        <path id="Trazado_212678" data-name="Trazado 212678" d="M535.312,8.51a.051.051,0,0,1-.053-.049.053.053,0,0,1,.106,0,.051.051,0,0,1-.053.049" transform="translate(-535.259 -2.376)" fill="#fff"/>
        <path id="Trazado_212679" data-name="Trazado 212679" d="M6.468,36.824A5.962,5.962,0,0,1,.305,31.085a5.962,5.962,0,0,1,6.163-5.739,5.962,5.962,0,0,1,6.163,5.739,5.962,5.962,0,0,1-6.163,5.738" transform="translate(453.408 -7.158)" fill="#fff"/>
        <path id="Trazado_212680" data-name="Trazado 212680" d="M28.449,36.884a6.065,6.065,0,0,1-6.269-5.837,6.066,6.066,0,0,1,6.269-5.838,6.066,6.066,0,0,1,6.269,5.838,6.065,6.065,0,0,1-6.269,5.837" transform="translate(412.268 -7.119)" fill="#fff"/>
        <path id="Trazado_212681" data-name="Trazado 212681" d="M50.455,36.854a6.014,6.014,0,0,1-6.216-5.788,6.232,6.232,0,0,1,12.432,0,6.014,6.014,0,0,1-6.216,5.788" transform="translate(371.103 -7.139)" fill="#fff"/>
        <path id="Trazado_212682" data-name="Trazado 212682" d="M72.484,36.734a5.808,5.808,0,0,1-6-5.591,6.019,6.019,0,0,1,12.007,0,5.808,5.808,0,0,1-6,5.591" transform="translate(329.915 -7.217)" fill="#fff"/>
        <path id="Trazado_212683" data-name="Trazado 212683" d="M94.513,36.613a5.6,5.6,0,0,1-5.791-5.393,5.806,5.806,0,0,1,11.582,0,5.6,5.6,0,0,1-5.791,5.393" transform="translate(288.726 -7.295)" fill="#fff"/>
        <path id="Trazado_212684" data-name="Trazado 212684" d="M116.549,36.463a5.345,5.345,0,0,1-5.525-5.145,5.54,5.54,0,0,1,11.051,0,5.345,5.345,0,0,1-5.525,5.145" transform="translate(247.531 -7.392)" fill="#fff"/>
        <path id="Trazado_212685" data-name="Trazado 212685" d="M138.587,36.314a5.089,5.089,0,0,1-5.26-4.9,5.273,5.273,0,0,1,10.52,0,5.089,5.089,0,0,1-5.26,4.9" transform="translate(206.334 -7.489)" fill="#fff"/>
        <path id="Trazado_212686" data-name="Trazado 212686" d="M160.623,36.163a4.831,4.831,0,0,1-4.994-4.651,5.007,5.007,0,0,1,9.988,0,4.831,4.831,0,0,1-4.994,4.651" transform="translate(165.138 -7.587)" fill="#fff"/>
        <path id="Trazado_212687" data-name="Trazado 212687" d="M182.661,36.013a4.575,4.575,0,0,1-4.729-4.4,4.741,4.741,0,0,1,9.457,0,4.575,4.575,0,0,1-4.729,4.4" transform="translate(123.941 -7.684)" fill="#fff"/>
        <path id="Trazado_212688" data-name="Trazado 212688" d="M204.7,35.833a4.117,4.117,0,1,1,4.41-4.106,4.266,4.266,0,0,1-4.41,4.106" transform="translate(82.738 -7.801)" fill="#fff"/>
        <path id="Trazado_212689" data-name="Trazado 212689" d="M226.742,35.684a3.869,3.869,0,1,1,4.144-3.859,4.009,4.009,0,0,1-4.144,3.859" transform="translate(41.541 -7.898)" fill="#fff"/>
        <path id="Trazado_212690" data-name="Trazado 212690" d="M248.786,35.5a3.571,3.571,0,1,1,3.825-3.562,3.7,3.7,0,0,1-3.825,3.562" transform="translate(0.338 -8.015)" fill="#fff"/>
        <path id="Trazado_212691" data-name="Trazado 212691" d="M270.824,35.353a3.323,3.323,0,1,1,3.56-3.314,3.444,3.444,0,0,1-3.56,3.314" transform="translate(-40.859 -8.112)" fill="#fff"/>
        <path id="Trazado_212692" data-name="Trazado 212692" d="M292.868,35.174a3.025,3.025,0,1,1,3.241-3.018,3.135,3.135,0,0,1-3.241,3.018" transform="translate(-82.062 -8.229)" fill="#fff"/>
        <path id="Trazado_212693" data-name="Trazado 212693" d="M314.9,35.023a2.778,2.778,0,1,1,2.975-2.771,2.878,2.878,0,0,1-2.975,2.771" transform="translate(-123.258 -8.326)" fill="#fff"/>
        <path id="Trazado_212694" data-name="Trazado 212694" d="M336.942,34.873a2.529,2.529,0,1,1,2.71-2.523,2.621,2.621,0,0,1-2.71,2.523" transform="translate(-164.455 -8.424)" fill="#fff"/>
        <path id="Trazado_212695" data-name="Trazado 212695" d="M358.986,34.694a2.232,2.232,0,1,1,2.391-2.227,2.313,2.313,0,0,1-2.391,2.227" transform="translate(-205.658 -8.541)" fill="#fff"/>
        <path id="Trazado_212696" data-name="Trazado 212696" d="M381.031,34.513a1.934,1.934,0,1,1,2.072-1.93,2,2,0,0,1-2.072,1.93" transform="translate(-246.863 -8.657)" fill="#fff"/>
        <path id="Trazado_212697" data-name="Trazado 212697" d="M403.067,34.363a1.686,1.686,0,1,1,1.806-1.682,1.748,1.748,0,0,1-1.806,1.682" transform="translate(-288.058 -8.755)" fill="#fff"/>
        <path id="Trazado_212698" data-name="Trazado 212698" d="M425.113,34.183A1.389,1.389,0,1,1,426.6,32.8a1.439,1.439,0,0,1-1.488,1.385" transform="translate(-329.263 -8.872)" fill="#fff"/>
        <path id="Trazado_212699" data-name="Trazado 212699" d="M447.149,34.033a1.141,1.141,0,1,1,1.222-1.138,1.182,1.182,0,0,1-1.222,1.138" transform="translate(-370.458 -8.969)" fill="#fff"/>
        <path id="Trazado_212700" data-name="Trazado 212700" d="M469.194,33.853a.843.843,0,1,1,.9-.841.874.874,0,0,1-.9.841" transform="translate(-411.663 -9.086)" fill="#fff"/>
        <path id="Trazado_212701" data-name="Trazado 212701" d="M491.23,33.7a.595.595,0,1,1,.638-.593.617.617,0,0,1-.638.593" transform="translate(-452.859 -9.183)" fill="#fff"/>
        <path id="Trazado_212702" data-name="Trazado 212702" d="M513.276,33.523a.3.3,0,1,1,.319-.3.308.308,0,0,1-.319.3" transform="translate(-494.064 -9.3)" fill="#fff"/>
        <path id="Trazado_212703" data-name="Trazado 212703" d="M535.312,33.373a.05.05,0,1,1,.053-.05.051.051,0,0,1-.053.05" transform="translate(-535.259 -9.397)" fill="#fff"/>
        <path id="Trazado_212704" data-name="Trazado 212704" d="M6.507,61.536a5.505,5.505,0,1,1,0-10.982,5.505,5.505,0,1,1,0,10.982" transform="translate(453.369 -14.278)" fill="#fff"/>
        <path id="Trazado_212705" data-name="Trazado 212705" d="M28.5,61.566a5.555,5.555,0,1,1,0-11.081,5.555,5.555,0,1,1,0,11.081" transform="translate(412.221 -14.258)" fill="#fff"/>
        <path id="Trazado_212706" data-name="Trazado 212706" d="M50.495,61.566a5.555,5.555,0,1,1,5.951-5.541,5.757,5.757,0,0,1-5.951,5.541" transform="translate(371.063 -14.258)" fill="#fff"/>
        <path id="Trazado_212707" data-name="Trazado 212707" d="M72.515,61.476a5.406,5.406,0,1,1,5.791-5.393,5.6,5.6,0,0,1-5.791,5.393" transform="translate(329.884 -14.316)" fill="#fff"/>
        <path id="Trazado_212708" data-name="Trazado 212708" d="M94.537,61.386a5.257,5.257,0,1,1,5.632-5.244,5.448,5.448,0,0,1-5.632,5.244" transform="translate(288.702 -14.375)" fill="#fff"/>
        <path id="Trazado_212709" data-name="Trazado 212709" d="M116.565,61.266a5.059,5.059,0,1,1,5.419-5.046,5.243,5.243,0,0,1-5.419,5.046" transform="translate(247.515 -14.453)" fill="#fff"/>
        <path id="Trazado_212710" data-name="Trazado 212710" d="M138.6,61.116a4.811,4.811,0,1,1,5.154-4.8,4.986,4.986,0,0,1-5.154,4.8" transform="translate(206.318 -14.55)" fill="#fff"/>
        <path id="Trazado_212711" data-name="Trazado 212711" d="M160.639,60.966a4.563,4.563,0,1,1,4.888-4.552,4.729,4.729,0,0,1-4.888,4.552" transform="translate(165.123 -14.647)" fill="#fff"/>
        <path id="Trazado_212712" data-name="Trazado 212712" d="M182.676,60.816a4.315,4.315,0,1,1,4.622-4.3,4.471,4.471,0,0,1-4.622,4.3" transform="translate(123.925 -14.745)" fill="#fff"/>
        <path id="Trazado_212713" data-name="Trazado 212713" d="M204.721,60.636a4.017,4.017,0,1,1,4.3-4.007,4.163,4.163,0,0,1-4.3,4.007" transform="translate(82.722 -14.862)" fill="#fff"/>
        <path id="Trazado_212714" data-name="Trazado 212714" d="M226.758,60.486a3.77,3.77,0,1,1,4.038-3.76,3.907,3.907,0,0,1-4.038,3.76" transform="translate(41.525 -14.959)" fill="#fff"/>
        <path id="Trazado_212715" data-name="Trazado 212715" d="M248.794,60.336a3.521,3.521,0,1,1,3.772-3.513,3.649,3.649,0,0,1-3.772,3.513" transform="translate(0.33 -15.056)" fill="#fff"/>
        <path id="Trazado_212716" data-name="Trazado 212716" d="M270.832,60.186a3.273,3.273,0,1,1,3.507-3.265,3.392,3.392,0,0,1-3.507,3.265" transform="translate(-40.867 -15.154)" fill="#fff"/>
        <path id="Trazado_212717" data-name="Trazado 212717" d="M292.876,60.005a2.976,2.976,0,1,1,3.188-2.969,3.084,3.084,0,0,1-3.188,2.969" transform="translate(-82.07 -15.271)" fill="#fff"/>
        <path id="Trazado_212718" data-name="Trazado 212718" d="M314.912,59.856a2.728,2.728,0,1,1,2.922-2.721,2.827,2.827,0,0,1-2.922,2.721" transform="translate(-123.266 -15.368)" fill="#fff"/>
        <path id="Trazado_212719" data-name="Trazado 212719" d="M336.957,59.676a2.43,2.43,0,1,1,2.6-2.424,2.519,2.519,0,0,1-2.6,2.424" transform="translate(-164.471 -15.485)" fill="#fff"/>
        <path id="Trazado_212720" data-name="Trazado 212720" d="M358.994,59.526a2.182,2.182,0,1,1,2.338-2.177,2.262,2.262,0,0,1-2.338,2.177" transform="translate(-205.666 -15.582)" fill="#fff"/>
        <path id="Trazado_212721" data-name="Trazado 212721" d="M381.039,59.346a1.885,1.885,0,1,1,2.019-1.88,1.953,1.953,0,0,1-2.019,1.88" transform="translate(-246.871 -15.699)" fill="#fff"/>
        <path id="Trazado_212722" data-name="Trazado 212722" d="M403.075,59.2a1.637,1.637,0,1,1,1.753-1.632,1.7,1.7,0,0,1-1.753,1.632" transform="translate(-288.066 -15.796)" fill="#fff"/>
        <path id="Trazado_212723" data-name="Trazado 212723" d="M425.12,59.016a1.339,1.339,0,1,1,1.435-1.335,1.387,1.387,0,0,1-1.435,1.335" transform="translate(-329.271 -15.913)" fill="#fff"/>
        <path id="Trazado_212724" data-name="Trazado 212724" d="M447.157,58.866a1.091,1.091,0,1,1,1.169-1.089,1.131,1.131,0,0,1-1.169,1.089" transform="translate(-370.466 -16.01)" fill="#fff"/>
        <path id="Trazado_212725" data-name="Trazado 212725" d="M469.194,58.716a.843.843,0,1,1,.9-.841.874.874,0,0,1-.9.841" transform="translate(-411.663 -16.108)" fill="#fff"/>
        <path id="Trazado_212726" data-name="Trazado 212726" d="M491.238,58.536a.546.546,0,1,1,.584-.544.565.565,0,0,1-.584.544" transform="translate(-452.867 -16.225)" fill="#fff"/>
        <path id="Trazado_212727" data-name="Trazado 212727" d="M513.276,58.386a.3.3,0,1,1,.319-.3.308.308,0,0,1-.319.3" transform="translate(-494.064 -16.322)" fill="#fff"/>
        <path id="Trazado_212728" data-name="Trazado 212728" d="M535.312,58.236a.05.05,0,1,1,.053-.05.051.051,0,0,1-.053.05" transform="translate(-535.259 -16.419)" fill="#fff"/>
        <path id="Trazado_212729" data-name="Trazado 212729" d="M6.547,86.249a5.257,5.257,0,1,1,0-10.488,5.257,5.257,0,1,1,0,10.488" transform="translate(453.33 -21.397)" fill="#fff"/>
        <path id="Trazado_212730" data-name="Trazado 212730" d="M28.536,86.278a5.307,5.307,0,1,1,0-10.587,5.307,5.307,0,1,1,0,10.587" transform="translate(412.182 -21.377)" fill="#fff"/>
        <path id="Trazado_212731" data-name="Trazado 212731" d="M50.542,86.249a5.257,5.257,0,1,1,5.632-5.244,5.448,5.448,0,0,1-5.632,5.244" transform="translate(371.016 -21.397)" fill="#fff"/>
        <path id="Trazado_212732" data-name="Trazado 212732" d="M72.554,86.189a5.158,5.158,0,1,1,5.525-5.145,5.345,5.345,0,0,1-5.525,5.145" transform="translate(329.844 -21.436)" fill="#fff"/>
        <path id="Trazado_212733" data-name="Trazado 212733" d="M94.568,86.129a5.059,5.059,0,1,1,5.419-5.046,5.243,5.243,0,0,1-5.419,5.046" transform="translate(288.671 -21.475)" fill="#fff"/>
        <path id="Trazado_212734" data-name="Trazado 212734" d="M116.6,86.009a4.861,4.861,0,1,1,5.207-4.848,5.037,5.037,0,0,1-5.207,4.848" transform="translate(247.484 -21.553)" fill="#fff"/>
        <path id="Trazado_212735" data-name="Trazado 212735" d="M138.626,85.888a4.662,4.662,0,1,1,4.994-4.651,4.831,4.831,0,0,1-4.994,4.651" transform="translate(206.294 -21.63)" fill="#fff"/>
        <path id="Trazado_212736" data-name="Trazado 212736" d="M160.663,85.738a4.414,4.414,0,1,1,4.729-4.4,4.575,4.575,0,0,1-4.729,4.4" transform="translate(165.099 -21.728)" fill="#fff"/>
        <path id="Trazado_212737" data-name="Trazado 212737" d="M182.7,85.589a4.166,4.166,0,1,1,4.463-4.155,4.318,4.318,0,0,1-4.463,4.155" transform="translate(123.902 -21.825)" fill="#fff"/>
        <path id="Trazado_212738" data-name="Trazado 212738" d="M204.736,85.439a3.918,3.918,0,1,1,4.2-3.908,4.06,4.06,0,0,1-4.2,3.908" transform="translate(82.707 -21.922)" fill="#fff"/>
        <path id="Trazado_212739" data-name="Trazado 212739" d="M226.774,85.288a3.67,3.67,0,1,1,3.932-3.661,3.8,3.8,0,0,1-3.932,3.661" transform="translate(41.509 -22.02)" fill="#fff"/>
        <path id="Trazado_212740" data-name="Trazado 212740" d="M248.81,85.139a3.422,3.422,0,1,1,3.666-3.413,3.546,3.546,0,0,1-3.666,3.413" transform="translate(0.314 -22.117)" fill="#fff"/>
        <path id="Trazado_212741" data-name="Trazado 212741" d="M270.847,84.989a3.174,3.174,0,1,1,3.4-3.166,3.289,3.289,0,0,1-3.4,3.166" transform="translate(-40.883 -22.215)" fill="#fff"/>
        <path id="Trazado_212742" data-name="Trazado 212742" d="M292.884,84.838a2.926,2.926,0,1,1,3.135-2.919,3.033,3.033,0,0,1-3.135,2.919" transform="translate(-82.078 -22.312)" fill="#fff"/>
        <path id="Trazado_212743" data-name="Trazado 212743" d="M314.928,84.659a2.629,2.629,0,1,1,2.816-2.622,2.724,2.724,0,0,1-2.816,2.622" transform="translate(-123.281 -22.429)" fill="#fff"/>
        <path id="Trazado_212744" data-name="Trazado 212744" d="M336.965,84.509a2.381,2.381,0,1,1,2.55-2.374,2.467,2.467,0,0,1-2.55,2.374" transform="translate(-164.478 -22.526)" fill="#fff"/>
        <path id="Trazado_212745" data-name="Trazado 212745" d="M359,84.358a2.133,2.133,0,1,1,2.285-2.128A2.21,2.21,0,0,1,359,84.358" transform="translate(-205.674 -22.623)" fill="#fff"/>
        <path id="Trazado_212746" data-name="Trazado 212746" d="M381.047,84.179a1.835,1.835,0,1,1,1.966-1.831,1.9,1.9,0,0,1-1.966,1.831" transform="translate(-246.879 -22.74)" fill="#fff"/>
        <path id="Trazado_212747" data-name="Trazado 212747" d="M403.083,84.029a1.587,1.587,0,1,1,1.7-1.583,1.645,1.645,0,0,1-1.7,1.583" transform="translate(-288.074 -22.838)" fill="#fff"/>
        <path id="Trazado_212748" data-name="Trazado 212748" d="M425.128,83.848a1.29,1.29,0,1,1,1.381-1.287,1.337,1.337,0,0,1-1.381,1.287" transform="translate(-329.279 -22.954)" fill="#fff"/>
        <path id="Trazado_212749" data-name="Trazado 212749" d="M447.165,83.7a1.042,1.042,0,1,1,1.116-1.039,1.08,1.08,0,0,1-1.116,1.039" transform="translate(-370.474 -23.052)" fill="#fff"/>
        <path id="Trazado_212750" data-name="Trazado 212750" d="M469.2,83.549a.794.794,0,1,1,.85-.791.822.822,0,0,1-.85.791" transform="translate(-411.671 -23.149)" fill="#fff"/>
        <path id="Trazado_212751" data-name="Trazado 212751" d="M491.246,83.369a.5.5,0,1,1,.531-.494.514.514,0,0,1-.531.494" transform="translate(-452.874 -23.266)" fill="#fff"/>
        <path id="Trazado_212752" data-name="Trazado 212752" d="M513.284,83.218a.248.248,0,1,1,.266-.248.257.257,0,0,1-.266.248" transform="translate(-494.072 -23.363)" fill="#fff"/>
        <path id="Trazado_212753" data-name="Trazado 212753" d="M6.586,110.961a5.01,5.01,0,1,1,0-9.994,5.01,5.01,0,1,1,0,9.994" transform="translate(453.29 -28.516)" fill="#fff"/>
        <path id="Trazado_212754" data-name="Trazado 212754" d="M28.583,110.961a5.01,5.01,0,1,1,0-9.994,5.01,5.01,0,1,1,0,9.994" transform="translate(412.134 -28.516)" fill="#fff"/>
        <path id="Trazado_212755" data-name="Trazado 212755" d="M50.581,110.961a5.01,5.01,0,1,1,5.366-5,5.191,5.191,0,0,1-5.366,5" transform="translate(370.977 -28.516)" fill="#fff"/>
        <path id="Trazado_212756" data-name="Trazado 212756" d="M72.594,110.9a4.91,4.91,0,1,1,5.26-4.9,5.089,5.089,0,0,1-5.26,4.9" transform="translate(329.805 -28.555)" fill="#fff"/>
        <path id="Trazado_212757" data-name="Trazado 212757" d="M94.608,110.842a4.811,4.811,0,1,1,5.154-4.8,4.986,4.986,0,0,1-5.154,4.8" transform="translate(288.632 -28.594)" fill="#fff"/>
        <path id="Trazado_212758" data-name="Trazado 212758" d="M116.628,110.751a4.662,4.662,0,1,1,4.994-4.651,4.831,4.831,0,0,1-4.994,4.651" transform="translate(247.452 -28.652)" fill="#fff"/>
        <path id="Trazado_212759" data-name="Trazado 212759" d="M138.658,110.631a4.464,4.464,0,1,1,4.782-4.453,4.626,4.626,0,0,1-4.782,4.453" transform="translate(206.263 -28.73)" fill="#fff"/>
        <path id="Trazado_212760" data-name="Trazado 212760" d="M160.686,110.512a4.265,4.265,0,1,1,4.569-4.255,4.421,4.421,0,0,1-4.569,4.255" transform="translate(165.075 -28.808)" fill="#fff"/>
        <path id="Trazado_212761" data-name="Trazado 212761" d="M182.724,110.362a4.017,4.017,0,1,1,4.3-4.007,4.163,4.163,0,0,1-4.3,4.007" transform="translate(123.878 -28.905)" fill="#fff"/>
        <path id="Trazado_212762" data-name="Trazado 212762" d="M204.752,110.241a3.819,3.819,0,1,1,4.091-3.81,3.958,3.958,0,0,1-4.091,3.81" transform="translate(82.691 -28.983)" fill="#fff"/>
        <path id="Trazado_212763" data-name="Trazado 212763" d="M226.789,110.091a3.571,3.571,0,1,1,3.825-3.562,3.7,3.7,0,0,1-3.825,3.562" transform="translate(41.494 -29.081)" fill="#fff"/>
        <path id="Trazado_212764" data-name="Trazado 212764" d="M248.826,109.942a3.323,3.323,0,1,1,3.56-3.314,3.444,3.444,0,0,1-3.56,3.314" transform="translate(0.298 -29.178)" fill="#fff"/>
        <path id="Trazado_212765" data-name="Trazado 212765" d="M270.863,109.792a3.075,3.075,0,1,1,3.294-3.068,3.187,3.187,0,0,1-3.294,3.068" transform="translate(-40.899 -29.275)" fill="#fff"/>
        <path id="Trazado_212766" data-name="Trazado 212766" d="M292.9,109.641a2.827,2.827,0,1,1,3.028-2.82,2.93,2.93,0,0,1-3.028,2.82" transform="translate(-82.094 -29.373)" fill="#fff"/>
        <path id="Trazado_212767" data-name="Trazado 212767" d="M314.936,109.491a2.579,2.579,0,1,1,2.763-2.572,2.673,2.673,0,0,1-2.763,2.572" transform="translate(-123.289 -29.47)" fill="#fff"/>
        <path id="Trazado_212768" data-name="Trazado 212768" d="M336.973,109.341a2.331,2.331,0,1,1,2.5-2.325,2.416,2.416,0,0,1-2.5,2.325" transform="translate(-164.486 -29.567)" fill="#fff"/>
        <path id="Trazado_212769" data-name="Trazado 212769" d="M359.017,109.161a2.033,2.033,0,1,1,2.178-2.029,2.108,2.108,0,0,1-2.178,2.029" transform="translate(-205.689 -29.684)" fill="#fff"/>
        <path id="Trazado_212770" data-name="Trazado 212770" d="M381.055,109.011a1.786,1.786,0,1,1,1.913-1.781,1.85,1.85,0,0,1-1.913,1.781" transform="translate(-246.887 -29.782)" fill="#fff"/>
        <path id="Trazado_212771" data-name="Trazado 212771" d="M403.1,108.832a1.488,1.488,0,1,1,1.594-1.484,1.542,1.542,0,0,1-1.594,1.484" transform="translate(-288.09 -29.898)" fill="#fff"/>
        <path id="Trazado_212772" data-name="Trazado 212772" d="M425.136,108.681a1.24,1.24,0,1,1,1.328-1.237,1.285,1.285,0,0,1-1.328,1.237" transform="translate(-329.287 -29.996)" fill="#fff"/>
        <path id="Trazado_212773" data-name="Trazado 212773" d="M447.173,108.531a.992.992,0,1,1,1.063-.99,1.028,1.028,0,0,1-1.063.99" transform="translate(-370.482 -30.093)" fill="#fff"/>
        <path id="Trazado_212774" data-name="Trazado 212774" d="M469.218,108.352a.695.695,0,1,1,.744-.692.719.719,0,0,1-.744.692" transform="translate(-411.687 -30.21)" fill="#fff"/>
        <path id="Trazado_212775" data-name="Trazado 212775" d="M491.254,108.2a.446.446,0,1,1,.478-.445.463.463,0,0,1-.478.445" transform="translate(-452.882 -30.307)" fill="#fff"/>
        <path id="Trazado_212776" data-name="Trazado 212776" d="M513.292,108.051a.2.2,0,1,1,.213-.2.205.205,0,0,1-.213.2" transform="translate(-494.079 -30.405)" fill="#fff"/>
        <path id="Trazado_212777" data-name="Trazado 212777" d="M6.633,135.644a4.712,4.712,0,1,1,0-9.4,4.712,4.712,0,1,1,0,9.4" transform="translate(453.243 -35.655)" fill="#fff"/>
        <path id="Trazado_212778" data-name="Trazado 212778" d="M28.622,135.674a4.761,4.761,0,1,1,0-9.5,4.761,4.761,0,1,1,0,9.5" transform="translate(412.095 -35.635)" fill="#fff"/>
        <path id="Trazado_212779" data-name="Trazado 212779" d="M50.628,135.644a4.712,4.712,0,1,1,5.047-4.7,4.883,4.883,0,0,1-5.047,4.7" transform="translate(370.929 -35.655)" fill="#fff"/>
        <path id="Trazado_212780" data-name="Trazado 212780" d="M72.633,135.614a4.662,4.662,0,1,1,4.994-4.651,4.831,4.831,0,0,1-4.994,4.651" transform="translate(329.766 -35.674)" fill="#fff"/>
        <path id="Trazado_212781" data-name="Trazado 212781" d="M94.647,135.554A4.563,4.563,0,1,1,99.535,131a4.729,4.729,0,0,1-4.888,4.552" transform="translate(288.592 -35.713)" fill="#fff"/>
        <path id="Trazado_212782" data-name="Trazado 212782" d="M116.668,135.464a4.414,4.414,0,1,1,4.729-4.4,4.575,4.575,0,0,1-4.729,4.4" transform="translate(247.413 -35.772)" fill="#fff"/>
        <path id="Trazado_212783" data-name="Trazado 212783" d="M138.689,135.374a4.265,4.265,0,1,1,4.569-4.254,4.421,4.421,0,0,1-4.569,4.254" transform="translate(206.231 -35.83)" fill="#fff"/>
        <path id="Trazado_212784" data-name="Trazado 212784" d="M160.718,135.254a4.067,4.067,0,1,1,4.357-4.056,4.214,4.214,0,0,1-4.357,4.056" transform="translate(165.044 -35.908)" fill="#fff"/>
        <path id="Trazado_212785" data-name="Trazado 212785" d="M182.747,135.134a3.868,3.868,0,1,1,4.144-3.859,4.009,4.009,0,0,1-4.144,3.859" transform="translate(123.855 -35.986)" fill="#fff"/>
        <path id="Trazado_212786" data-name="Trazado 212786" d="M204.783,134.984a3.621,3.621,0,1,1,3.878-3.612,3.752,3.752,0,0,1-3.878,3.612" transform="translate(82.659 -36.083)" fill="#fff"/>
        <path id="Trazado_212787" data-name="Trazado 212787" d="M226.813,134.864a3.422,3.422,0,1,1,3.666-3.413,3.546,3.546,0,0,1-3.666,3.413" transform="translate(41.47 -36.161)" fill="#fff"/>
        <path id="Trazado_212788" data-name="Trazado 212788" d="M248.849,134.714a3.174,3.174,0,1,1,3.4-3.166,3.289,3.289,0,0,1-3.4,3.166" transform="translate(0.275 -36.258)" fill="#fff"/>
        <path id="Trazado_212789" data-name="Trazado 212789" d="M270.879,134.594a2.976,2.976,0,1,1,3.188-2.969,3.084,3.084,0,0,1-3.188,2.969" transform="translate(-40.914 -36.336)" fill="#fff"/>
        <path id="Trazado_212790" data-name="Trazado 212790" d="M292.915,134.444a2.728,2.728,0,1,1,2.922-2.721,2.827,2.827,0,0,1-2.922,2.721" transform="translate(-82.11 -36.434)" fill="#fff"/>
        <path id="Trazado_212791" data-name="Trazado 212791" d="M314.951,134.294a2.48,2.48,0,1,1,2.656-2.473,2.57,2.57,0,0,1-2.656,2.473" transform="translate(-123.305 -36.531)" fill="#fff"/>
        <path id="Trazado_212792" data-name="Trazado 212792" d="M337,134.115a2.182,2.182,0,1,1,2.338-2.177A2.262,2.262,0,0,1,337,134.115" transform="translate(-164.51 -36.648)" fill="#fff"/>
        <path id="Trazado_212793" data-name="Trazado 212793" d="M359.033,133.964a1.934,1.934,0,1,1,2.072-1.93,2,2,0,0,1-2.072,1.93" transform="translate(-205.705 -36.745)" fill="#fff"/>
        <path id="Trazado_212794" data-name="Trazado 212794" d="M381.07,133.814a1.686,1.686,0,1,1,1.806-1.682,1.748,1.748,0,0,1-1.806,1.682" transform="translate(-246.902 -36.843)" fill="#fff"/>
        <path id="Trazado_212795" data-name="Trazado 212795" d="M403.107,133.664a1.438,1.438,0,1,1,1.541-1.434,1.49,1.49,0,0,1-1.541,1.434" transform="translate(-288.098 -36.94)" fill="#fff"/>
        <path id="Trazado_212796" data-name="Trazado 212796" d="M425.152,133.484a1.141,1.141,0,1,1,1.222-1.138,1.182,1.182,0,0,1-1.222,1.138" transform="translate(-329.303 -37.057)" fill="#fff"/>
        <path id="Trazado_212797" data-name="Trazado 212797" d="M447.188,133.334a.893.893,0,1,1,.956-.891.926.926,0,0,1-.956.891" transform="translate(-370.498 -37.154)" fill="#fff"/>
        <path id="Trazado_212798" data-name="Trazado 212798" d="M469.226,133.184a.645.645,0,1,1,.691-.643.668.668,0,0,1-.691.643" transform="translate(-411.695 -37.251)" fill="#fff"/>
        <path id="Trazado_212799" data-name="Trazado 212799" d="M491.262,133.034a.4.4,0,1,1,.425-.4.412.412,0,0,1-.425.4" transform="translate(-452.89 -37.349)" fill="#fff"/>
        <path id="Trazado_212800" data-name="Trazado 212800" d="M513.307,132.854a.1.1,0,1,1,.106-.1.1.1,0,0,1-.106.1" transform="translate(-494.095 -37.466)" fill="#fff"/>
        <path id="Trazado_212801" data-name="Trazado 212801" d="M6.673,160.356a4.464,4.464,0,1,1,0-8.9,4.464,4.464,0,1,1,0,8.9" transform="translate(453.204 -42.774)" fill="#fff"/>
        <path id="Trazado_212802" data-name="Trazado 212802" d="M28.67,160.356a4.464,4.464,0,1,1,0-8.9,4.464,4.464,0,1,1,0,8.9" transform="translate(412.048 -42.774)" fill="#fff"/>
        <path id="Trazado_212803" data-name="Trazado 212803" d="M50.668,160.356a4.464,4.464,0,1,1,4.782-4.453,4.626,4.626,0,0,1-4.782,4.453" transform="translate(370.89 -42.774)" fill="#fff"/>
        <path id="Trazado_212804" data-name="Trazado 212804" d="M72.673,160.326a4.414,4.414,0,1,1,4.729-4.4,4.574,4.574,0,0,1-4.729,4.4" transform="translate(329.726 -42.793)" fill="#fff"/>
        <path id="Trazado_212805" data-name="Trazado 212805" d="M94.686,160.267a4.315,4.315,0,1,1,4.622-4.3,4.471,4.471,0,0,1-4.622,4.3" transform="translate(288.553 -42.832)" fill="#fff"/>
        <path id="Trazado_212806" data-name="Trazado 212806" d="M116.707,160.177a4.166,4.166,0,1,1,4.463-4.155,4.318,4.318,0,0,1-4.463,4.155" transform="translate(247.373 -42.891)" fill="#fff"/>
        <path id="Trazado_212807" data-name="Trazado 212807" d="M138.729,160.087a4.017,4.017,0,1,1,4.3-4.007,4.163,4.163,0,0,1-4.3,4.007" transform="translate(206.192 -42.949)" fill="#fff"/>
        <path id="Trazado_212808" data-name="Trazado 212808" d="M160.749,160a3.869,3.869,0,1,1,4.144-3.859A4.009,4.009,0,0,1,160.749,160" transform="translate(165.012 -43.008)" fill="#fff"/>
        <path id="Trazado_212809" data-name="Trazado 212809" d="M182.779,159.877a3.67,3.67,0,1,1,3.932-3.661,3.8,3.8,0,0,1-3.932,3.661" transform="translate(123.823 -43.086)" fill="#fff"/>
        <path id="Trazado_212810" data-name="Trazado 212810" d="M204.807,159.757a3.472,3.472,0,1,1,3.719-3.463,3.6,3.6,0,0,1-3.719,3.463" transform="translate(82.636 -43.164)" fill="#fff"/>
        <path id="Trazado_212811" data-name="Trazado 212811" d="M226.837,159.637a3.273,3.273,0,1,1,3.507-3.265,3.392,3.392,0,0,1-3.507,3.265" transform="translate(41.447 -43.241)" fill="#fff"/>
        <path id="Trazado_212812" data-name="Trazado 212812" d="M248.873,159.486a3.025,3.025,0,1,1,3.241-3.018,3.135,3.135,0,0,1-3.241,3.018" transform="translate(0.251 -43.339)" fill="#fff"/>
        <path id="Trazado_212813" data-name="Trazado 212813" d="M270.9,159.367a2.827,2.827,0,1,1,3.028-2.82,2.93,2.93,0,0,1-3.028,2.82" transform="translate(-40.938 -43.417)" fill="#fff"/>
        <path id="Trazado_212814" data-name="Trazado 212814" d="M292.939,159.217a2.579,2.579,0,1,1,2.763-2.573,2.673,2.673,0,0,1-2.763,2.573" transform="translate(-82.133 -43.514)" fill="#fff"/>
        <path id="Trazado_212815" data-name="Trazado 212815" d="M314.975,159.067a2.331,2.331,0,1,1,2.5-2.325,2.416,2.416,0,0,1-2.5,2.325" transform="translate(-123.329 -43.611)" fill="#fff"/>
        <path id="Trazado_212816" data-name="Trazado 212816" d="M337.012,158.916a2.083,2.083,0,1,1,2.231-2.078,2.159,2.159,0,0,1-2.231,2.078" transform="translate(-164.526 -43.709)" fill="#fff"/>
        <path id="Trazado_212817" data-name="Trazado 212817" d="M359.049,158.767a1.835,1.835,0,1,1,1.966-1.831,1.9,1.9,0,0,1-1.966,1.831" transform="translate(-205.721 -43.806)" fill="#fff"/>
        <path id="Trazado_212818" data-name="Trazado 212818" d="M381.086,158.617a1.587,1.587,0,1,1,1.7-1.583,1.645,1.645,0,0,1-1.7,1.583" transform="translate(-246.918 -43.903)" fill="#fff"/>
        <path id="Trazado_212819" data-name="Trazado 212819" d="M403.122,158.467a1.339,1.339,0,1,1,1.435-1.335,1.387,1.387,0,0,1-1.435,1.335" transform="translate(-288.113 -44.001)" fill="#fff"/>
        <path id="Trazado_212820" data-name="Trazado 212820" d="M425.16,158.316a1.091,1.091,0,1,1,1.169-1.089,1.131,1.131,0,0,1-1.169,1.089" transform="translate(-329.31 -44.098)" fill="#fff"/>
        <path id="Trazado_212821" data-name="Trazado 212821" d="M447.2,158.137a.794.794,0,1,1,.85-.791.822.822,0,0,1-.85.791" transform="translate(-370.514 -44.215)" fill="#fff"/>
        <path id="Trazado_212822" data-name="Trazado 212822" d="M469.241,157.987a.546.546,0,1,1,.584-.544.565.565,0,0,1-.584.544" transform="translate(-411.711 -44.312)" fill="#fff"/>
        <path id="Trazado_212823" data-name="Trazado 212823" d="M491.278,157.836a.3.3,0,1,1,.319-.3.308.308,0,0,1-.319.3" transform="translate(-452.906 -44.41)" fill="#fff"/>
        <path id="Trazado_212824" data-name="Trazado 212824" d="M513.315,157.687a.05.05,0,1,1,.053-.05.051.051,0,0,1-.053.05" transform="translate(-494.103 -44.507)" fill="#fff"/>
        <path id="Trazado_212825" data-name="Trazado 212825" d="M6.72,185.04a4.166,4.166,0,1,1,0-8.311,4.166,4.166,0,1,1,0,8.311" transform="translate(453.157 -49.913)" fill="#fff"/>
        <path id="Trazado_212826" data-name="Trazado 212826" d="M28.709,185.07a4.216,4.216,0,1,1,0-8.41,4.216,4.216,0,1,1,0,8.41" transform="translate(412.009 -49.893)" fill="#fff"/>
        <path id="Trazado_212827" data-name="Trazado 212827" d="M50.715,185.04a4.166,4.166,0,1,1,4.463-4.155,4.317,4.317,0,0,1-4.463,4.155" transform="translate(370.843 -49.913)" fill="#fff"/>
        <path id="Trazado_212828" data-name="Trazado 212828" d="M72.72,185.01a4.117,4.117,0,1,1,4.41-4.106,4.266,4.266,0,0,1-4.41,4.106" transform="translate(329.679 -49.932)" fill="#fff"/>
        <path id="Trazado_212829" data-name="Trazado 212829" d="M94.734,184.95a4.017,4.017,0,1,1,4.3-4.007,4.163,4.163,0,0,1-4.3,4.007" transform="translate(288.506 -49.971)" fill="#fff"/>
        <path id="Trazado_212830" data-name="Trazado 212830" d="M116.746,184.89a3.918,3.918,0,1,1,4.2-3.909,4.061,4.061,0,0,1-4.2,3.909" transform="translate(247.334 -50.01)" fill="#fff"/>
        <path id="Trazado_212831" data-name="Trazado 212831" d="M138.76,184.829a3.819,3.819,0,1,1,4.091-3.81,3.958,3.958,0,0,1-4.091,3.81" transform="translate(206.16 -50.049)" fill="#fff"/>
        <path id="Trazado_212832" data-name="Trazado 212832" d="M160.788,184.709a3.621,3.621,0,1,1,3.878-3.612,3.752,3.752,0,0,1-3.878,3.612" transform="translate(164.973 -50.127)" fill="#fff"/>
        <path id="Trazado_212833" data-name="Trazado 212833" d="M182.81,184.62a3.472,3.472,0,1,1,3.719-3.463,3.6,3.6,0,0,1-3.719,3.463" transform="translate(123.792 -50.185)" fill="#fff"/>
        <path id="Trazado_212834" data-name="Trazado 212834" d="M204.839,184.5a3.273,3.273,0,1,1,3.507-3.265,3.392,3.392,0,0,1-3.507,3.265" transform="translate(82.604 -50.263)" fill="#fff"/>
        <path id="Trazado_212835" data-name="Trazado 212835" d="M226.868,184.38a3.075,3.075,0,1,1,3.294-3.068,3.187,3.187,0,0,1-3.294,3.068" transform="translate(41.415 -50.341)" fill="#fff"/>
        <path id="Trazado_212836" data-name="Trazado 212836" d="M248.9,184.259a2.877,2.877,0,1,1,3.082-2.87,2.981,2.981,0,0,1-3.082,2.87" transform="translate(0.228 -50.419)" fill="#fff"/>
        <path id="Trazado_212837" data-name="Trazado 212837" d="M270.926,184.139a2.678,2.678,0,1,1,2.869-2.672,2.776,2.776,0,0,1-2.869,2.672" transform="translate(-40.962 -50.497)" fill="#fff"/>
        <path id="Trazado_212838" data-name="Trazado 212838" d="M292.962,183.99a2.43,2.43,0,1,1,2.6-2.424,2.519,2.519,0,0,1-2.6,2.424" transform="translate(-82.157 -50.594)" fill="#fff"/>
        <path id="Trazado_212839" data-name="Trazado 212839" d="M315,183.839a2.182,2.182,0,1,1,2.338-2.177A2.262,2.262,0,0,1,315,183.839" transform="translate(-123.352 -50.692)" fill="#fff"/>
        <path id="Trazado_212840" data-name="Trazado 212840" d="M337.036,183.689a1.934,1.934,0,1,1,2.072-1.93,2,2,0,0,1-2.072,1.93" transform="translate(-164.549 -50.789)" fill="#fff"/>
        <path id="Trazado_212841" data-name="Trazado 212841" d="M359.072,183.539a1.686,1.686,0,1,1,1.806-1.682,1.748,1.748,0,0,1-1.806,1.682" transform="translate(-205.745 -50.886)" fill="#fff"/>
        <path id="Trazado_212842" data-name="Trazado 212842" d="M381.11,183.39a1.438,1.438,0,1,1,1.541-1.434,1.49,1.49,0,0,1-1.541,1.434" transform="translate(-246.942 -50.984)" fill="#fff"/>
        <path id="Trazado_212843" data-name="Trazado 212843" d="M403.146,183.239a1.19,1.19,0,1,1,1.275-1.188,1.234,1.234,0,0,1-1.275,1.188" transform="translate(-288.137 -51.081)" fill="#fff"/>
        <path id="Trazado_212844" data-name="Trazado 212844" d="M425.183,183.089a.942.942,0,1,1,1.009-.94.976.976,0,0,1-1.009.94" transform="translate(-329.334 -51.178)" fill="#fff"/>
        <path id="Trazado_212845" data-name="Trazado 212845" d="M447.22,182.94a.695.695,0,1,1,.744-.692.719.719,0,0,1-.744.692" transform="translate(-370.529 -51.276)" fill="#fff"/>
        <path id="Trazado_212846" data-name="Trazado 212846" d="M469.257,182.789a.446.446,0,1,1,.478-.445.463.463,0,0,1-.478.445" transform="translate(-411.726 -51.373)" fill="#fff"/>
        <path id="Trazado_212847" data-name="Trazado 212847" d="M491.294,182.639a.2.2,0,1,1,.213-.2.205.205,0,0,1-.213.2" transform="translate(-452.922 -51.47)" fill="#fff"/>
        <path id="Trazado_212848" data-name="Trazado 212848" d="M6.759,209.753a3.918,3.918,0,1,1,0-7.817,3.918,3.918,0,1,1,0,7.817" transform="translate(453.117 -57.032)" fill="#fff"/>
        <path id="Trazado_212849" data-name="Trazado 212849" d="M28.756,209.753a3.918,3.918,0,1,1,4.2-3.909,4.061,4.061,0,0,1-4.2,3.909" transform="translate(411.961 -57.032)" fill="#fff"/>
        <path id="Trazado_212850" data-name="Trazado 212850" d="M50.754,209.753a3.918,3.918,0,1,1,4.2-3.909,4.061,4.061,0,0,1-4.2,3.909" transform="translate(370.804 -57.032)" fill="#fff"/>
        <path id="Trazado_212851" data-name="Trazado 212851" d="M72.759,209.722a3.869,3.869,0,1,1,4.144-3.859,4.009,4.009,0,0,1-4.144,3.859" transform="translate(329.64 -57.052)" fill="#fff"/>
        <path id="Trazado_212852" data-name="Trazado 212852" d="M94.773,209.662a3.77,3.77,0,1,1,4.038-3.76,3.907,3.907,0,0,1-4.038,3.76" transform="translate(288.466 -57.09)" fill="#fff"/>
        <path id="Trazado_212853" data-name="Trazado 212853" d="M116.786,209.6a3.67,3.67,0,1,1,3.932-3.661,3.8,3.8,0,0,1-3.932,3.661" transform="translate(247.295 -57.129)" fill="#fff"/>
        <path id="Trazado_212854" data-name="Trazado 212854" d="M138.8,209.542a3.571,3.571,0,1,1,3.825-3.562,3.7,3.7,0,0,1-3.825,3.562" transform="translate(206.121 -57.168)" fill="#fff"/>
        <path id="Trazado_212855" data-name="Trazado 212855" d="M160.82,209.452a3.422,3.422,0,1,1,3.666-3.413,3.546,3.546,0,0,1-3.666,3.413" transform="translate(164.942 -57.227)" fill="#fff"/>
        <path id="Trazado_212856" data-name="Trazado 212856" d="M182.842,209.362a3.273,3.273,0,1,1,3.507-3.265,3.392,3.392,0,0,1-3.507,3.265" transform="translate(123.76 -57.285)" fill="#fff"/>
        <path id="Trazado_212857" data-name="Trazado 212857" d="M204.87,209.243a3.075,3.075,0,1,1,3.294-3.068,3.187,3.187,0,0,1-3.294,3.068" transform="translate(82.573 -57.363)" fill="#fff"/>
        <path id="Trazado_212858" data-name="Trazado 212858" d="M226.9,209.122a2.877,2.877,0,1,1,3.082-2.87,2.981,2.981,0,0,1-3.082,2.87" transform="translate(41.384 -57.441)" fill="#fff"/>
        <path id="Trazado_212859" data-name="Trazado 212859" d="M248.928,209a2.678,2.678,0,1,1,2.869-2.672A2.776,2.776,0,0,1,248.928,209" transform="translate(0.196 -57.519)" fill="#fff"/>
        <path id="Trazado_212860" data-name="Trazado 212860" d="M270.957,208.882a2.48,2.48,0,1,1,2.656-2.473,2.57,2.57,0,0,1-2.656,2.473" transform="translate(-40.993 -57.597)" fill="#fff"/>
        <path id="Trazado_212861" data-name="Trazado 212861" d="M292.986,208.762a2.282,2.282,0,1,1,2.444-2.275,2.364,2.364,0,0,1-2.444,2.275" transform="translate(-82.18 -57.674)" fill="#fff"/>
        <path id="Trazado_212862" data-name="Trazado 212862" d="M315.022,208.612a2.033,2.033,0,1,1,2.178-2.029,2.108,2.108,0,0,1-2.178,2.029" transform="translate(-123.376 -57.772)" fill="#fff"/>
        <path id="Trazado_212863" data-name="Trazado 212863" d="M337.06,208.462a1.786,1.786,0,1,1,1.913-1.781,1.85,1.85,0,0,1-1.913,1.781" transform="translate(-164.573 -57.869)" fill="#fff"/>
        <path id="Trazado_212864" data-name="Trazado 212864" d="M359.088,208.342a1.587,1.587,0,1,1,1.7-1.583,1.645,1.645,0,0,1-1.7,1.583" transform="translate(-205.76 -57.947)" fill="#fff"/>
        <path id="Trazado_212865" data-name="Trazado 212865" d="M381.125,208.191a1.339,1.339,0,1,1,1.435-1.335,1.387,1.387,0,0,1-1.435,1.335" transform="translate(-246.957 -58.044)" fill="#fff"/>
        <path id="Trazado_212866" data-name="Trazado 212866" d="M403.162,208.042a1.091,1.091,0,1,1,1.169-1.089,1.131,1.131,0,0,1-1.169,1.089" transform="translate(-288.153 -58.142)" fill="#fff"/>
        <path id="Trazado_212867" data-name="Trazado 212867" d="M425.2,207.892a.843.843,0,1,1,.9-.841.874.874,0,0,1-.9.841" transform="translate(-329.35 -58.239)" fill="#fff"/>
        <path id="Trazado_212868" data-name="Trazado 212868" d="M447.236,207.743a.6.6,0,1,1,.638-.593.617.617,0,0,1-.638.593" transform="translate(-370.545 -58.337)" fill="#fff"/>
        <path id="Trazado_212869" data-name="Trazado 212869" d="M469.273,207.592a.347.347,0,1,1,.372-.347.36.36,0,0,1-.372.347" transform="translate(-411.742 -58.434)" fill="#fff"/>
        <path id="Trazado_212870" data-name="Trazado 212870" d="M491.309,207.442a.1.1,0,1,1,.106-.1.1.1,0,0,1-.106.1" transform="translate(-452.937 -58.531)" fill="#fff"/>
        <path id="Trazado_212871" data-name="Trazado 212871" d="M6.806,234.435a3.621,3.621,0,1,1,0-7.223,3.621,3.621,0,1,1,0,7.223" transform="translate(453.07 -64.171)" fill="#fff"/>
        <path id="Trazado_212872" data-name="Trazado 212872" d="M28.8,234.435a3.621,3.621,0,1,1,3.878-3.612,3.752,3.752,0,0,1-3.878,3.612" transform="translate(411.914 -64.171)" fill="#fff"/>
        <path id="Trazado_212873" data-name="Trazado 212873" d="M50.8,234.435a3.621,3.621,0,1,1,3.878-3.612,3.752,3.752,0,0,1-3.878,3.612" transform="translate(370.756 -64.171)" fill="#fff"/>
        <path id="Trazado_212874" data-name="Trazado 212874" d="M72.806,234.405a3.571,3.571,0,1,1,3.825-3.562,3.7,3.7,0,0,1-3.825,3.562" transform="translate(329.593 -64.19)" fill="#fff"/>
        <path id="Trazado_212875" data-name="Trazado 212875" d="M94.812,234.375a3.521,3.521,0,1,1,3.772-3.513,3.649,3.649,0,0,1-3.772,3.513" transform="translate(288.427 -64.21)" fill="#fff"/>
        <path id="Trazado_212876" data-name="Trazado 212876" d="M116.825,234.315a3.422,3.422,0,1,1,3.666-3.413,3.546,3.546,0,0,1-3.666,3.413" transform="translate(247.255 -64.249)" fill="#fff"/>
        <path id="Trazado_212877" data-name="Trazado 212877" d="M138.839,234.255a3.323,3.323,0,1,1,3.56-3.314,3.444,3.444,0,0,1-3.56,3.314" transform="translate(206.082 -64.288)" fill="#fff"/>
        <path id="Trazado_212878" data-name="Trazado 212878" d="M160.859,234.165a3.174,3.174,0,1,1,3.4-3.166,3.289,3.289,0,0,1-3.4,3.166" transform="translate(164.902 -64.346)" fill="#fff"/>
        <path id="Trazado_212879" data-name="Trazado 212879" d="M182.881,234.074a3.025,3.025,0,1,1,3.241-3.018,3.135,3.135,0,0,1-3.241,3.018" transform="translate(123.721 -64.404)" fill="#fff"/>
        <path id="Trazado_212880" data-name="Trazado 212880" d="M204.9,233.984a2.877,2.877,0,1,1,3.082-2.87,2.981,2.981,0,0,1-3.082,2.87" transform="translate(82.541 -64.463)" fill="#fff"/>
        <path id="Trazado_212881" data-name="Trazado 212881" d="M226.931,233.865a2.678,2.678,0,1,1,2.869-2.672,2.776,2.776,0,0,1-2.869,2.672" transform="translate(41.352 -64.541)" fill="#fff"/>
        <path id="Trazado_212882" data-name="Trazado 212882" d="M248.959,233.745a2.48,2.48,0,1,1,2.656-2.473,2.57,2.57,0,0,1-2.656,2.473" transform="translate(0.165 -64.619)" fill="#fff"/>
        <path id="Trazado_212883" data-name="Trazado 212883" d="M270.981,233.655a2.331,2.331,0,1,1,2.5-2.325,2.416,2.416,0,0,1-2.5,2.325" transform="translate(-41.017 -64.677)" fill="#fff"/>
        <path id="Trazado_212884" data-name="Trazado 212884" d="M293.017,233.5a2.083,2.083,0,1,1,2.231-2.078,2.159,2.159,0,0,1-2.231,2.078" transform="translate(-82.212 -64.774)" fill="#fff"/>
        <path id="Trazado_212885" data-name="Trazado 212885" d="M315.046,233.385a1.885,1.885,0,1,1,2.019-1.88,1.953,1.953,0,0,1-2.019,1.88" transform="translate(-123.399 -64.852)" fill="#fff"/>
        <path id="Trazado_212886" data-name="Trazado 212886" d="M337.083,233.235a1.637,1.637,0,1,1,1.753-1.632,1.7,1.7,0,0,1-1.753,1.632" transform="translate(-164.596 -64.949)" fill="#fff"/>
        <path id="Trazado_212887" data-name="Trazado 212887" d="M359.112,233.115a1.438,1.438,0,1,1,1.541-1.434,1.49,1.49,0,0,1-1.541,1.434" transform="translate(-205.784 -65.027)" fill="#fff"/>
        <path id="Trazado_212888" data-name="Trazado 212888" d="M381.149,232.965a1.19,1.19,0,1,1,1.275-1.188,1.234,1.234,0,0,1-1.275,1.188" transform="translate(-246.981 -65.125)" fill="#fff"/>
        <path id="Trazado_212889" data-name="Trazado 212889" d="M403.185,232.815a.942.942,0,1,1,1.009-.94.976.976,0,0,1-1.009.94" transform="translate(-288.176 -65.222)" fill="#fff"/>
        <path id="Trazado_212890" data-name="Trazado 212890" d="M425.215,232.695a.744.744,0,1,1,.8-.742.771.771,0,0,1-.8.742" transform="translate(-329.366 -65.3)" fill="#fff"/>
        <path id="Trazado_212891" data-name="Trazado 212891" d="M447.251,232.544a.5.5,0,1,1,.531-.494.514.514,0,0,1-.531.494" transform="translate(-370.561 -65.397)" fill="#fff"/>
        <path id="Trazado_212892" data-name="Trazado 212892" d="M469.289,232.394a.248.248,0,1,1,.266-.247.257.257,0,0,1-.266.247" transform="translate(-411.758 -65.495)" fill="#fff"/>
        <path id="Trazado_212893" data-name="Trazado 212893" d="M491.317,232.275a.05.05,0,1,1,.053-.049.051.051,0,0,1-.053.049" transform="translate(-452.945 -65.573)" fill="#fff"/>
        <path id="Trazado_212894" data-name="Trazado 212894" d="M6.846,259.148a3.373,3.373,0,1,1,0-6.728,3.373,3.373,0,1,1,0,6.728" transform="translate(453.031 -71.29)" fill="#fff"/>
        <path id="Trazado_212895" data-name="Trazado 212895" d="M28.843,259.148a3.373,3.373,0,1,1,3.613-3.364,3.5,3.5,0,0,1-3.613,3.364" transform="translate(411.875 -71.29)" fill="#fff"/>
        <path id="Trazado_212896" data-name="Trazado 212896" d="M50.841,259.148a3.373,3.373,0,1,1,3.613-3.364,3.5,3.5,0,0,1-3.613,3.364" transform="translate(370.717 -71.29)" fill="#fff"/>
        <path id="Trazado_212897" data-name="Trazado 212897" d="M72.846,259.118a3.323,3.323,0,1,1,3.56-3.314,3.444,3.444,0,0,1-3.56,3.314" transform="translate(329.553 -71.31)" fill="#fff"/>
        <path id="Trazado_212898" data-name="Trazado 212898" d="M94.852,259.088a3.273,3.273,0,1,1,3.507-3.265,3.392,3.392,0,0,1-3.507,3.265" transform="translate(288.388 -71.329)" fill="#fff"/>
        <path id="Trazado_212899" data-name="Trazado 212899" d="M116.864,259.028a3.174,3.174,0,1,1,3.4-3.166,3.289,3.289,0,0,1-3.4,3.166" transform="translate(247.216 -71.368)" fill="#fff"/>
        <path id="Trazado_212900" data-name="Trazado 212900" d="M138.878,258.967a3.075,3.075,0,1,1,3.294-3.068,3.187,3.187,0,0,1-3.294,3.068" transform="translate(206.042 -71.407)" fill="#fff"/>
        <path id="Trazado_212901" data-name="Trazado 212901" d="M160.891,258.907a2.976,2.976,0,1,1,3.188-2.969,3.084,3.084,0,0,1-3.188,2.969" transform="translate(164.871 -71.446)" fill="#fff"/>
        <path id="Trazado_212902" data-name="Trazado 212902" d="M182.912,258.817a2.827,2.827,0,1,1,3.028-2.82,2.93,2.93,0,0,1-3.028,2.82" transform="translate(123.689 -71.504)" fill="#fff"/>
        <path id="Trazado_212903" data-name="Trazado 212903" d="M204.933,258.727a2.678,2.678,0,1,1,2.869-2.671,2.776,2.776,0,0,1-2.869,2.671" transform="translate(82.51 -71.562)" fill="#fff"/>
        <path id="Trazado_212904" data-name="Trazado 212904" d="M226.963,258.608a2.48,2.48,0,1,1,2.656-2.473,2.57,2.57,0,0,1-2.656,2.473" transform="translate(41.321 -71.641)" fill="#fff"/>
        <path id="Trazado_212905" data-name="Trazado 212905" d="M248.983,258.518a2.331,2.331,0,1,1,2.5-2.325,2.416,2.416,0,0,1-2.5,2.325" transform="translate(0.141 -71.699)" fill="#fff"/>
        <path id="Trazado_212906" data-name="Trazado 212906" d="M271.013,258.4a2.133,2.133,0,1,1,2.285-2.128,2.21,2.21,0,0,1-2.285,2.128" transform="translate(-41.048 -71.777)" fill="#fff"/>
        <path id="Trazado_212907" data-name="Trazado 212907" d="M293.049,258.247a1.885,1.885,0,1,1,2.019-1.88,1.953,1.953,0,0,1-2.019,1.88" transform="translate(-82.243 -71.874)" fill="#fff"/>
        <path id="Trazado_212908" data-name="Trazado 212908" d="M315.077,258.127a1.686,1.686,0,1,1,1.806-1.682,1.748,1.748,0,0,1-1.806,1.682" transform="translate(-123.431 -71.952)" fill="#fff"/>
        <path id="Trazado_212909" data-name="Trazado 212909" d="M337.107,258.008a1.488,1.488,0,1,1,1.594-1.484,1.542,1.542,0,0,1-1.594,1.484" transform="translate(-164.62 -72.03)" fill="#fff"/>
        <path id="Trazado_212910" data-name="Trazado 212910" d="M359.143,257.857a1.24,1.24,0,1,1,1.328-1.237,1.285,1.285,0,0,1-1.328,1.237" transform="translate(-205.815 -72.127)" fill="#fff"/>
        <path id="Trazado_212911" data-name="Trazado 212911" d="M381.173,257.737a1.042,1.042,0,1,1,1.116-1.039,1.079,1.079,0,0,1-1.116,1.039" transform="translate(-247.005 -72.205)" fill="#fff"/>
        <path id="Trazado_212912" data-name="Trazado 212912" d="M403.209,257.587a.793.793,0,1,1,.85-.791.822.822,0,0,1-.85.791" transform="translate(-288.2 -72.302)" fill="#fff"/>
        <path id="Trazado_212913" data-name="Trazado 212913" d="M425.238,257.468a.6.6,0,1,1,.638-.593.617.617,0,0,1-.638.593" transform="translate(-329.389 -72.38)" fill="#fff"/>
        <path id="Trazado_212914" data-name="Trazado 212914" d="M447.275,257.317a.347.347,0,1,1,.372-.347.36.36,0,0,1-.372.347" transform="translate(-370.584 -72.478)" fill="#fff"/>
        <path id="Trazado_212915" data-name="Trazado 212915" d="M469.312,257.167a.1.1,0,1,1,.106-.1.1.1,0,0,1-.106.1" transform="translate(-411.782 -72.575)" fill="#fff"/>
        <path id="Trazado_212916" data-name="Trazado 212916" d="M6.893,283.831a3.075,3.075,0,1,1,0-6.135,3.075,3.075,0,1,1,0,6.135" transform="translate(452.983 -78.429)" fill="#fff"/>
        <path id="Trazado_212917" data-name="Trazado 212917" d="M28.89,283.831a3.075,3.075,0,1,1,3.294-3.068,3.187,3.187,0,0,1-3.294,3.068" transform="translate(411.828 -78.429)" fill="#fff"/>
        <path id="Trazado_212918" data-name="Trazado 212918" d="M50.888,283.831a3.075,3.075,0,1,1,3.294-3.068,3.187,3.187,0,0,1-3.294,3.068" transform="translate(370.67 -78.429)" fill="#fff"/>
        <path id="Trazado_212919" data-name="Trazado 212919" d="M72.893,283.8a3.025,3.025,0,1,1,3.241-3.018,3.135,3.135,0,0,1-3.241,3.018" transform="translate(329.506 -78.448)" fill="#fff"/>
        <path id="Trazado_212920" data-name="Trazado 212920" d="M94.9,283.77a2.976,2.976,0,1,1,3.188-2.969A3.084,3.084,0,0,1,94.9,283.77" transform="translate(288.34 -78.468)" fill="#fff"/>
        <path id="Trazado_212921" data-name="Trazado 212921" d="M116.9,283.74a2.926,2.926,0,1,1,3.135-2.919,3.033,3.033,0,0,1-3.135,2.919" transform="translate(247.177 -78.487)" fill="#fff"/>
        <path id="Trazado_212922" data-name="Trazado 212922" d="M138.917,283.68a2.827,2.827,0,1,1,3.028-2.82,2.93,2.93,0,0,1-3.028,2.82" transform="translate(206.003 -78.526)" fill="#fff"/>
        <path id="Trazado_212923" data-name="Trazado 212923" d="M160.93,283.62a2.728,2.728,0,1,1,2.922-2.721,2.827,2.827,0,0,1-2.922,2.721" transform="translate(164.831 -78.565)" fill="#fff"/>
        <path id="Trazado_212924" data-name="Trazado 212924" d="M182.952,283.53a2.579,2.579,0,1,1,2.763-2.572,2.673,2.673,0,0,1-2.763,2.572" transform="translate(123.65 -78.623)" fill="#fff"/>
        <path id="Trazado_212925" data-name="Trazado 212925" d="M204.972,283.44a2.43,2.43,0,1,1,2.6-2.424,2.518,2.518,0,0,1-2.6,2.424" transform="translate(82.47 -78.682)" fill="#fff"/>
        <path id="Trazado_212926" data-name="Trazado 212926" d="M226.994,283.35a2.282,2.282,0,1,1,2.444-2.275,2.364,2.364,0,0,1-2.444,2.275" transform="translate(41.289 -78.74)" fill="#fff"/>
        <path id="Trazado_212927" data-name="Trazado 212927" d="M249.022,283.23a2.083,2.083,0,1,1,2.231-2.078,2.159,2.159,0,0,1-2.231,2.078" transform="translate(0.102 -78.818)" fill="#fff"/>
        <path id="Trazado_212928" data-name="Trazado 212928" d="M271.052,283.11a1.885,1.885,0,1,1,2.019-1.88,1.953,1.953,0,0,1-2.019,1.88" transform="translate(-41.088 -78.896)" fill="#fff"/>
        <path id="Trazado_212929" data-name="Trazado 212929" d="M293.08,282.99a1.686,1.686,0,1,1,1.806-1.682,1.748,1.748,0,0,1-1.806,1.682" transform="translate(-82.275 -78.974)" fill="#fff"/>
        <path id="Trazado_212930" data-name="Trazado 212930" d="M315.109,282.87a1.488,1.488,0,1,1,1.594-1.484,1.542,1.542,0,0,1-1.594,1.484" transform="translate(-123.462 -79.051)" fill="#fff"/>
        <path id="Trazado_212931" data-name="Trazado 212931" d="M337.138,282.75a1.29,1.29,0,1,1,1.381-1.287,1.337,1.337,0,0,1-1.381,1.287" transform="translate(-164.652 -79.13)" fill="#fff"/>
        <path id="Trazado_212932" data-name="Trazado 212932" d="M359.167,282.63a1.091,1.091,0,1,1,1.169-1.089,1.131,1.131,0,0,1-1.169,1.089" transform="translate(-205.839 -79.207)" fill="#fff"/>
        <path id="Trazado_212933" data-name="Trazado 212933" d="M381.2,282.51a.893.893,0,1,1,.956-.891.926.926,0,0,1-.956.891" transform="translate(-247.028 -79.285)" fill="#fff"/>
        <path id="Trazado_212934" data-name="Trazado 212934" d="M403.233,282.361a.645.645,0,1,1,.691-.643.668.668,0,0,1-.691.643" transform="translate(-288.224 -79.383)" fill="#fff"/>
        <path id="Trazado_212935" data-name="Trazado 212935" d="M425.262,282.24a.446.446,0,1,1,.478-.445.463.463,0,0,1-.478.445" transform="translate(-329.413 -79.461)" fill="#fff"/>
        <path id="Trazado_212936" data-name="Trazado 212936" d="M447.3,282.09a.2.2,0,1,1,.213-.2.205.205,0,0,1-.213.2" transform="translate(-370.608 -79.558)" fill="#fff"/>
        <path id="Trazado_212937" data-name="Trazado 212937" d="M6.932,308.543a2.827,2.827,0,1,1,0-5.64,2.827,2.827,0,1,1,0,5.64" transform="translate(452.944 -85.548)" fill="#fff"/>
        <path id="Trazado_212938" data-name="Trazado 212938" d="M28.929,308.543a2.827,2.827,0,1,1,3.028-2.82,2.93,2.93,0,0,1-3.028,2.82" transform="translate(411.788 -85.548)" fill="#fff"/>
        <path id="Trazado_212939" data-name="Trazado 212939" d="M50.927,308.543a2.827,2.827,0,1,1,3.028-2.82,2.93,2.93,0,0,1-3.028,2.82" transform="translate(370.63 -85.548)" fill="#fff"/>
        <path id="Trazado_212940" data-name="Trazado 212940" d="M72.932,308.513a2.778,2.778,0,1,1,2.975-2.771,2.878,2.878,0,0,1-2.975,2.771" transform="translate(329.467 -85.567)" fill="#fff"/>
        <path id="Trazado_212941" data-name="Trazado 212941" d="M94.938,308.483a2.728,2.728,0,1,1,2.922-2.721,2.827,2.827,0,0,1-2.922,2.721" transform="translate(288.301 -85.587)" fill="#fff"/>
        <path id="Trazado_212942" data-name="Trazado 212942" d="M116.951,308.423a2.629,2.629,0,1,1,2.816-2.622,2.724,2.724,0,0,1-2.816,2.622" transform="translate(247.129 -85.626)" fill="#fff"/>
        <path id="Trazado_212943" data-name="Trazado 212943" d="M138.957,308.393a2.579,2.579,0,1,1,2.763-2.573,2.673,2.673,0,0,1-2.763,2.573" transform="translate(205.964 -85.645)" fill="#fff"/>
        <path id="Trazado_212944" data-name="Trazado 212944" d="M160.969,308.333a2.48,2.48,0,1,1,2.656-2.473,2.57,2.57,0,0,1-2.656,2.473" transform="translate(164.792 -85.684)" fill="#fff"/>
        <path id="Trazado_212945" data-name="Trazado 212945" d="M182.991,308.243a2.331,2.331,0,1,1,2.5-2.325,2.416,2.416,0,0,1-2.5,2.325" transform="translate(123.611 -85.743)" fill="#fff"/>
        <path id="Trazado_212946" data-name="Trazado 212946" d="M205.012,308.152a2.182,2.182,0,1,1,2.338-2.177,2.262,2.262,0,0,1-2.338,2.177" transform="translate(82.431 -85.801)" fill="#fff"/>
        <path id="Trazado_212947" data-name="Trazado 212947" d="M227.033,308.062a2.033,2.033,0,1,1,2.178-2.029,2.108,2.108,0,0,1-2.178,2.029" transform="translate(41.25 -85.859)" fill="#fff"/>
        <path id="Trazado_212948" data-name="Trazado 212948" d="M249.054,307.973a1.885,1.885,0,1,1,2.019-1.88,1.953,1.953,0,0,1-2.019,1.88" transform="translate(0.07 -85.918)" fill="#fff"/>
        <path id="Trazado_212949" data-name="Trazado 212949" d="M271.083,307.853a1.686,1.686,0,1,1,1.806-1.682,1.748,1.748,0,0,1-1.806,1.682" transform="translate(-41.119 -85.996)" fill="#fff"/>
        <path id="Trazado_212950" data-name="Trazado 212950" d="M293.112,307.733a1.488,1.488,0,1,1,1.594-1.484,1.542,1.542,0,0,1-1.594,1.484" transform="translate(-82.306 -86.073)" fill="#fff"/>
        <path id="Trazado_212951" data-name="Trazado 212951" d="M315.132,307.643a1.339,1.339,0,1,1,1.435-1.335,1.387,1.387,0,0,1-1.435,1.335" transform="translate(-123.486 -86.132)" fill="#fff"/>
        <path id="Trazado_212952" data-name="Trazado 212952" d="M337.162,307.523a1.141,1.141,0,1,1,1.222-1.138,1.182,1.182,0,0,1-1.222,1.138" transform="translate(-164.675 -86.21)" fill="#fff"/>
        <path id="Trazado_212953" data-name="Trazado 212953" d="M359.19,307.4a.942.942,0,1,1,1.009-.94.976.976,0,0,1-1.009.94" transform="translate(-205.863 -86.288)" fill="#fff"/>
        <path id="Trazado_212954" data-name="Trazado 212954" d="M381.228,307.253a.695.695,0,1,1,.744-.692.719.719,0,0,1-.744.692" transform="translate(-247.06 -86.385)" fill="#fff"/>
        <path id="Trazado_212955" data-name="Trazado 212955" d="M403.256,307.133a.5.5,0,1,1,.531-.494.514.514,0,0,1-.531.494" transform="translate(-288.247 -86.463)" fill="#fff"/>
        <path id="Trazado_212956" data-name="Trazado 212956" d="M425.286,307.013a.3.3,0,1,1,.319-.3.308.308,0,0,1-.319.3" transform="translate(-329.436 -86.541)" fill="#fff"/>
        <path id="Trazado_212957" data-name="Trazado 212957" d="M447.322,306.863a.05.05,0,1,1,.053-.049.051.051,0,0,1-.053.049" transform="translate(-370.632 -86.638)" fill="#fff"/>
        <path id="Trazado_212958" data-name="Trazado 212958" d="M6.98,333.226a2.529,2.529,0,1,1,0-5.046,2.529,2.529,0,1,1,0,5.046" transform="translate(452.897 -92.687)" fill="#fff"/>
        <path id="Trazado_212959" data-name="Trazado 212959" d="M28.977,333.226a2.529,2.529,0,1,1,2.71-2.523,2.621,2.621,0,0,1-2.71,2.523" transform="translate(411.741 -92.687)" fill="#fff"/>
        <path id="Trazado_212960" data-name="Trazado 212960" d="M50.975,333.226a2.529,2.529,0,1,1,2.71-2.523,2.621,2.621,0,0,1-2.71,2.523" transform="translate(370.583 -92.687)" fill="#fff"/>
        <path id="Trazado_212961" data-name="Trazado 212961" d="M72.972,333.226a2.529,2.529,0,1,1,2.71-2.523,2.621,2.621,0,0,1-2.71,2.523" transform="translate(329.427 -92.687)" fill="#fff"/>
        <path id="Trazado_212962" data-name="Trazado 212962" d="M94.985,333.166a2.43,2.43,0,1,1,2.6-2.424,2.519,2.519,0,0,1-2.6,2.424" transform="translate(288.254 -92.726)" fill="#fff"/>
        <path id="Trazado_212963" data-name="Trazado 212963" d="M116.99,333.136a2.381,2.381,0,1,1,2.55-2.374,2.467,2.467,0,0,1-2.55,2.374" transform="translate(247.09 -92.745)" fill="#fff"/>
        <path id="Trazado_212964" data-name="Trazado 212964" d="M139,333.106a2.331,2.331,0,1,1,2.5-2.325,2.416,2.416,0,0,1-2.5,2.325" transform="translate(205.924 -92.765)" fill="#fff"/>
        <path id="Trazado_212965" data-name="Trazado 212965" d="M161.017,333.015a2.182,2.182,0,1,1,2.338-2.177,2.262,2.262,0,0,1-2.338,2.177" transform="translate(164.745 -92.823)" fill="#fff"/>
        <path id="Trazado_212966" data-name="Trazado 212966" d="M183.03,332.955a2.083,2.083,0,1,1,2.231-2.078,2.159,2.159,0,0,1-2.231,2.078" transform="translate(123.571 -92.862)" fill="#fff"/>
        <path id="Trazado_212967" data-name="Trazado 212967" d="M205.051,332.866a1.934,1.934,0,1,1,2.072-1.93,2,2,0,0,1-2.072,1.93" transform="translate(82.392 -92.92)" fill="#fff"/>
        <path id="Trazado_212968" data-name="Trazado 212968" d="M227.073,332.776a1.786,1.786,0,1,1,1.913-1.781,1.85,1.85,0,0,1-1.913,1.781" transform="translate(41.21 -92.979)" fill="#fff"/>
        <path id="Trazado_212969" data-name="Trazado 212969" d="M249.093,332.686a1.637,1.637,0,1,1,1.753-1.632,1.7,1.7,0,0,1-1.753,1.632" transform="translate(0.031 -93.037)" fill="#fff"/>
        <path id="Trazado_212970" data-name="Trazado 212970" d="M271.115,332.6a1.488,1.488,0,1,1,1.594-1.484,1.542,1.542,0,0,1-1.594,1.484" transform="translate(-41.15 -93.095)" fill="#fff"/>
        <path id="Trazado_212971" data-name="Trazado 212971" d="M293.143,332.475a1.289,1.289,0,1,1,1.381-1.287,1.337,1.337,0,0,1-1.381,1.287" transform="translate(-82.338 -93.173)" fill="#fff"/>
        <path id="Trazado_212972" data-name="Trazado 212972" d="M315.164,332.385a1.141,1.141,0,1,1,1.222-1.138,1.182,1.182,0,0,1-1.222,1.138" transform="translate(-123.517 -93.232)" fill="#fff"/>
        <path id="Trazado_212973" data-name="Trazado 212973" d="M337.193,332.266a.942.942,0,1,1,1.01-.94.976.976,0,0,1-1.01.94" transform="translate(-164.707 -93.31)" fill="#fff"/>
        <path id="Trazado_212974" data-name="Trazado 212974" d="M359.222,332.146a.744.744,0,1,1,.8-.742.771.771,0,0,1-.8.742" transform="translate(-205.894 -93.388)" fill="#fff"/>
        <path id="Trazado_212975" data-name="Trazado 212975" d="M381.251,332.025a.546.546,0,1,1,.584-.544.565.565,0,0,1-.584.544" transform="translate(-247.083 -93.465)" fill="#fff"/>
        <path id="Trazado_212976" data-name="Trazado 212976" d="M403.28,331.905a.347.347,0,1,1,.372-.347.36.36,0,0,1-.372.347" transform="translate(-288.271 -93.543)" fill="#fff"/>
        <path id="Trazado_212977" data-name="Trazado 212977" d="M425.317,331.756a.1.1,0,1,1,.106-.1.1.1,0,0,1-.106.1" transform="translate(-329.468 -93.641)" fill="#fff"/>
        <path id="Trazado_212978" data-name="Trazado 212978" d="M7.027,357.909a2.232,2.232,0,1,1,0-4.453,2.232,2.232,0,1,1,0,4.453" transform="translate(452.85 -99.825)" fill="#fff"/>
        <path id="Trazado_212979" data-name="Trazado 212979" d="M29.016,357.939a2.282,2.282,0,1,1,2.444-2.275,2.364,2.364,0,0,1-2.444,2.275" transform="translate(411.702 -99.806)" fill="#fff"/>
        <path id="Trazado_212980" data-name="Trazado 212980" d="M51.014,357.939a2.282,2.282,0,1,1,2.444-2.275,2.364,2.364,0,0,1-2.444,2.275" transform="translate(370.544 -99.806)" fill="#fff"/>
        <path id="Trazado_212981" data-name="Trazado 212981" d="M73.019,357.909a2.232,2.232,0,1,1,2.391-2.227,2.313,2.313,0,0,1-2.391,2.227" transform="translate(329.38 -99.825)" fill="#fff"/>
        <path id="Trazado_212982" data-name="Trazado 212982" d="M95.025,357.879a2.182,2.182,0,1,1,2.338-2.177,2.262,2.262,0,0,1-2.338,2.177" transform="translate(288.214 -99.845)" fill="#fff"/>
        <path id="Trazado_212983" data-name="Trazado 212983" d="M117.03,357.848a2.133,2.133,0,1,1,2.285-2.128,2.21,2.21,0,0,1-2.285,2.128" transform="translate(247.051 -99.864)" fill="#fff"/>
        <path id="Trazado_212984" data-name="Trazado 212984" d="M139.043,357.788a2.033,2.033,0,1,1,2.178-2.029,2.108,2.108,0,0,1-2.178,2.029" transform="translate(205.877 -99.903)" fill="#fff"/>
        <path id="Trazado_212985" data-name="Trazado 212985" d="M161.056,357.728a1.934,1.934,0,1,1,2.072-1.93,2,2,0,0,1-2.072,1.93" transform="translate(164.705 -99.942)" fill="#fff"/>
        <path id="Trazado_212986" data-name="Trazado 212986" d="M183.07,357.668a1.835,1.835,0,1,1,1.966-1.831,1.9,1.9,0,0,1-1.966,1.831" transform="translate(123.532 -99.981)" fill="#fff"/>
        <path id="Trazado_212987" data-name="Trazado 212987" d="M205.09,357.578A1.686,1.686,0,1,1,206.9,355.9a1.748,1.748,0,0,1-1.806,1.682" transform="translate(82.352 -100.039)" fill="#fff"/>
        <path id="Trazado_212988" data-name="Trazado 212988" d="M227.1,357.519a1.587,1.587,0,1,1,1.7-1.583,1.645,1.645,0,0,1-1.7,1.583" transform="translate(41.179 -100.078)" fill="#fff"/>
        <path id="Trazado_212989" data-name="Trazado 212989" d="M249.125,357.429a1.438,1.438,0,1,1,1.541-1.435,1.491,1.491,0,0,1-1.541,1.435" transform="translate(-0.001 -100.137)" fill="#fff"/>
        <path id="Trazado_212990" data-name="Trazado 212990" d="M271.154,357.308a1.24,1.24,0,1,1,1.328-1.237,1.285,1.285,0,0,1-1.328,1.237" transform="translate(-41.19 -100.215)" fill="#fff"/>
        <path id="Trazado_212991" data-name="Trazado 212991" d="M293.175,357.218a1.091,1.091,0,1,1,1.169-1.089,1.131,1.131,0,0,1-1.169,1.089" transform="translate(-82.369 -100.273)" fill="#fff"/>
        <path id="Trazado_212992" data-name="Trazado 212992" d="M315.2,357.128a.942.942,0,1,1,1.009-.94.976.976,0,0,1-1.009.94" transform="translate(-123.549 -100.331)" fill="#fff"/>
        <path id="Trazado_212993" data-name="Trazado 212993" d="M337.225,357.008a.744.744,0,1,1,.8-.742.771.771,0,0,1-.8.742" transform="translate(-164.738 -100.409)" fill="#fff"/>
        <path id="Trazado_212994" data-name="Trazado 212994" d="M359.253,356.889a.546.546,0,1,1,.584-.544.565.565,0,0,1-.584.544" transform="translate(-205.926 -100.487)" fill="#fff"/>
        <path id="Trazado_212995" data-name="Trazado 212995" d="M381.283,356.768a.347.347,0,1,1,.372-.347.36.36,0,0,1-.372.347" transform="translate(-247.115 -100.565)" fill="#fff"/>
        <path id="Trazado_212996" data-name="Trazado 212996" d="M403.311,356.648a.149.149,0,1,1,.159-.149.154.154,0,0,1-.159.149" transform="translate(-288.302 -100.643)" fill="#fff"/>
        <path id="Trazado_212997" data-name="Trazado 212997" d="M7.066,382.621a1.984,1.984,0,1,1,0-3.957,1.984,1.984,0,1,1,0,3.957" transform="translate(452.81 -106.945)" fill="#fff"/>
        <path id="Trazado_212998" data-name="Trazado 212998" d="M29.063,382.621a1.984,1.984,0,1,1,2.125-1.979,2.055,2.055,0,0,1-2.125,1.979" transform="translate(411.654 -106.945)" fill="#fff"/>
        <path id="Trazado_212999" data-name="Trazado 212999" d="M51.061,382.621a1.984,1.984,0,1,1,2.125-1.979,2.055,2.055,0,0,1-2.125,1.979" transform="translate(370.497 -106.945)" fill="#fff"/>
        <path id="Trazado_213000" data-name="Trazado 213000" d="M73.066,382.591a1.934,1.934,0,1,1,2.072-1.93,2,2,0,0,1-2.072,1.93" transform="translate(329.333 -106.964)" fill="#fff"/>
        <path id="Trazado_213001" data-name="Trazado 213001" d="M95.072,382.561a1.885,1.885,0,1,1,2.019-1.88,1.953,1.953,0,0,1-2.019,1.88" transform="translate(288.167 -106.983)" fill="#fff"/>
        <path id="Trazado_213002" data-name="Trazado 213002" d="M117.077,382.531a1.835,1.835,0,1,1,1.966-1.831,1.9,1.9,0,0,1-1.966,1.831" transform="translate(247.003 -107.003)" fill="#fff"/>
        <path id="Trazado_213003" data-name="Trazado 213003" d="M139.083,382.5A1.786,1.786,0,1,1,141,380.72a1.85,1.85,0,0,1-1.913,1.781" transform="translate(205.838 -107.022)" fill="#fff"/>
        <path id="Trazado_213004" data-name="Trazado 213004" d="M161.1,382.441a1.686,1.686,0,1,1,1.806-1.682,1.748,1.748,0,0,1-1.806,1.682" transform="translate(164.666 -107.061)" fill="#fff"/>
        <path id="Trazado_213005" data-name="Trazado 213005" d="M183.109,382.381a1.587,1.587,0,1,1,1.7-1.583,1.645,1.645,0,0,1-1.7,1.583" transform="translate(123.493 -107.1)" fill="#fff"/>
        <path id="Trazado_213006" data-name="Trazado 213006" d="M205.13,382.291a1.438,1.438,0,1,1,1.541-1.434,1.49,1.49,0,0,1-1.541,1.434" transform="translate(82.313 -107.158)" fill="#fff"/>
        <path id="Trazado_213007" data-name="Trazado 213007" d="M227.143,382.23a1.339,1.339,0,1,1,1.434-1.335,1.387,1.387,0,0,1-1.434,1.335" transform="translate(41.14 -107.197)" fill="#fff"/>
        <path id="Trazado_213008" data-name="Trazado 213008" d="M249.164,382.141a1.19,1.19,0,1,1,1.275-1.188,1.234,1.234,0,0,1-1.275,1.188" transform="translate(-0.04 -107.256)" fill="#fff"/>
        <path id="Trazado_213009" data-name="Trazado 213009" d="M271.186,382.051a1.042,1.042,0,1,1,1.116-1.039,1.08,1.08,0,0,1-1.116,1.039" transform="translate(-41.221 -107.314)" fill="#fff"/>
        <path id="Trazado_213010" data-name="Trazado 213010" d="M293.206,381.961a.893.893,0,1,1,.956-.89.926.926,0,0,1-.956.89" transform="translate(-82.401 -107.373)" fill="#fff"/>
        <path id="Trazado_213011" data-name="Trazado 213011" d="M315.235,381.841a.695.695,0,1,1,.744-.692.719.719,0,0,1-.744.692" transform="translate(-123.588 -107.451)" fill="#fff"/>
        <path id="Trazado_213012" data-name="Trazado 213012" d="M337.256,381.751a.546.546,0,1,1,.584-.544.565.565,0,0,1-.584.544" transform="translate(-164.77 -107.509)" fill="#fff"/>
        <path id="Trazado_213013" data-name="Trazado 213013" d="M359.285,381.631a.347.347,0,1,1,.372-.347.36.36,0,0,1-.372.347" transform="translate(-205.957 -107.587)" fill="#fff"/>
        <path id="Trazado_213014" data-name="Trazado 213014" d="M381.314,381.511a.149.149,0,1,1,.159-.149.154.154,0,0,1-.159.149" transform="translate(-247.146 -107.665)" fill="#fff"/>
        <path id="Trazado_213015" data-name="Trazado 213015" d="M7.113,407.3a1.686,1.686,0,1,1,0-3.364,1.686,1.686,0,1,1,0,3.364" transform="translate(452.763 -114.083)" fill="#fff"/>
        <path id="Trazado_213016" data-name="Trazado 213016" d="M29.11,407.3a1.686,1.686,0,1,1,1.806-1.682A1.748,1.748,0,0,1,29.11,407.3" transform="translate(411.607 -114.083)" fill="#fff"/>
        <path id="Trazado_213017" data-name="Trazado 213017" d="M51.108,407.3a1.686,1.686,0,1,1,1.806-1.682,1.748,1.748,0,0,1-1.806,1.682" transform="translate(370.449 -114.083)" fill="#fff"/>
        <path id="Trazado_213018" data-name="Trazado 213018" d="M73.105,407.3a1.686,1.686,0,1,1,1.806-1.682,1.748,1.748,0,0,1-1.806,1.682" transform="translate(329.293 -114.083)" fill="#fff"/>
        <path id="Trazado_213019" data-name="Trazado 213019" d="M95.111,407.274a1.637,1.637,0,1,1,1.753-1.632,1.7,1.7,0,0,1-1.753,1.632" transform="translate(288.128 -114.103)" fill="#fff"/>
        <path id="Trazado_213020" data-name="Trazado 213020" d="M117.116,407.244a1.587,1.587,0,1,1,1.7-1.583,1.645,1.645,0,0,1-1.7,1.583" transform="translate(246.964 -114.122)" fill="#fff"/>
        <path id="Trazado_213021" data-name="Trazado 213021" d="M139.13,407.184a1.488,1.488,0,1,1,1.594-1.484,1.542,1.542,0,0,1-1.594,1.484" transform="translate(205.791 -114.161)" fill="#fff"/>
        <path id="Trazado_213022" data-name="Trazado 213022" d="M161.135,407.154a1.438,1.438,0,1,1,1.541-1.434,1.49,1.49,0,0,1-1.541,1.434" transform="translate(164.627 -114.18)" fill="#fff"/>
        <path id="Trazado_213023" data-name="Trazado 213023" d="M183.149,407.093a1.339,1.339,0,1,1,1.434-1.335,1.387,1.387,0,0,1-1.434,1.335" transform="translate(123.453 -114.219)" fill="#fff"/>
        <path id="Trazado_213024" data-name="Trazado 213024" d="M205.169,407a1.19,1.19,0,1,1,1.275-1.188A1.234,1.234,0,0,1,205.169,407" transform="translate(82.274 -114.278)" fill="#fff"/>
        <path id="Trazado_213025" data-name="Trazado 213025" d="M227.183,406.943a1.091,1.091,0,1,1,1.169-1.089,1.131,1.131,0,0,1-1.169,1.089" transform="translate(41.1 -114.317)" fill="#fff"/>
        <path id="Trazado_213026" data-name="Trazado 213026" d="M249.2,406.854a.942.942,0,1,1,1.009-.94.976.976,0,0,1-1.009.94" transform="translate(-0.079 -114.375)" fill="#fff"/>
        <path id="Trazado_213027" data-name="Trazado 213027" d="M271.225,406.764a.793.793,0,1,1,.85-.791.822.822,0,0,1-.85.791" transform="translate(-41.261 -114.434)" fill="#fff"/>
        <path id="Trazado_213028" data-name="Trazado 213028" d="M293.246,406.674a.645.645,0,1,1,.691-.643.668.668,0,0,1-.691.643" transform="translate(-82.44 -114.492)" fill="#fff"/>
        <path id="Trazado_213029" data-name="Trazado 213029" d="M315.266,406.583a.5.5,0,1,1,.531-.494.514.514,0,0,1-.531.494" transform="translate(-123.62 -114.55)" fill="#fff"/>
        <path id="Trazado_213030" data-name="Trazado 213030" d="M337.288,406.493a.347.347,0,1,1,.372-.347.36.36,0,0,1-.372.347" transform="translate(-164.801 -114.609)" fill="#fff"/>
        <path id="Trazado_213031" data-name="Trazado 213031" d="M359.316,406.373a.149.149,0,1,1,.159-.149.154.154,0,0,1-.159.149" transform="translate(-205.989 -114.687)" fill="#fff"/>
        <path id="Trazado_213032" data-name="Trazado 213032" d="M7.153,432.017a1.438,1.438,0,1,1,0-2.87,1.438,1.438,0,1,1,0,2.87" transform="translate(452.724 -121.202)" fill="#fff"/>
        <path id="Trazado_213033" data-name="Trazado 213033" d="M29.15,432.017a1.438,1.438,0,1,1,1.541-1.434,1.49,1.49,0,0,1-1.541,1.434" transform="translate(411.568 -121.202)" fill="#fff"/>
        <path id="Trazado_213034" data-name="Trazado 213034" d="M51.148,432.017a1.438,1.438,0,1,1,1.541-1.434,1.49,1.49,0,0,1-1.541,1.434" transform="translate(370.41 -121.202)" fill="#fff"/>
        <path id="Trazado_213035" data-name="Trazado 213035" d="M73.153,431.986A1.389,1.389,0,1,1,74.64,430.6a1.439,1.439,0,0,1-1.488,1.385" transform="translate(329.246 -121.222)" fill="#fff"/>
        <path id="Trazado_213036" data-name="Trazado 213036" d="M95.159,431.956a1.339,1.339,0,1,1,1.435-1.335,1.387,1.387,0,0,1-1.435,1.335" transform="translate(288.081 -121.241)" fill="#fff"/>
        <path id="Trazado_213037" data-name="Trazado 213037" d="M117.163,431.926a1.29,1.29,0,1,1,1.381-1.287,1.337,1.337,0,0,1-1.381,1.287" transform="translate(246.917 -121.261)" fill="#fff"/>
        <path id="Trazado_213038" data-name="Trazado 213038" d="M139.169,431.9a1.24,1.24,0,1,1,1.328-1.237,1.285,1.285,0,0,1-1.328,1.237" transform="translate(205.751 -121.28)" fill="#fff"/>
        <path id="Trazado_213039" data-name="Trazado 213039" d="M161.182,431.836A1.141,1.141,0,1,1,162.4,430.7a1.182,1.182,0,0,1-1.222,1.138" transform="translate(164.58 -121.319)" fill="#fff"/>
        <path id="Trazado_213040" data-name="Trazado 213040" d="M183.188,431.806a1.091,1.091,0,1,1,1.169-1.089,1.131,1.131,0,0,1-1.169,1.089" transform="translate(123.414 -121.339)" fill="#fff"/>
        <path id="Trazado_213041" data-name="Trazado 213041" d="M205.208,431.716a.942.942,0,1,1,1.009-.94.976.976,0,0,1-1.009.94" transform="translate(82.234 -121.397)" fill="#fff"/>
        <path id="Trazado_213042" data-name="Trazado 213042" d="M227.222,431.656a.843.843,0,1,1,.9-.841.874.874,0,0,1-.9.841" transform="translate(41.061 -121.436)" fill="#fff"/>
        <path id="Trazado_213043" data-name="Trazado 213043" d="M249.235,431.6a.744.744,0,1,1,.8-.742.771.771,0,0,1-.8.742" transform="translate(-0.111 -121.475)" fill="#fff"/>
        <path id="Trazado_213044" data-name="Trazado 213044" d="M271.256,431.507a.6.6,0,1,1,.638-.593.617.617,0,0,1-.638.593" transform="translate(-41.292 -121.533)" fill="#fff"/>
        <path id="Trazado_213045" data-name="Trazado 213045" d="M293.277,431.416a.446.446,0,1,1,.478-.445.463.463,0,0,1-.478.445" transform="translate(-82.472 -121.592)" fill="#fff"/>
        <path id="Trazado_213046" data-name="Trazado 213046" d="M315.3,431.326a.3.3,0,1,1,.319-.3.308.308,0,0,1-.319.3" transform="translate(-123.651 -121.65)" fill="#fff"/>
        <path id="Trazado_213047" data-name="Trazado 213047" d="M337.327,431.206a.1.1,0,1,1,.106-.1.1.1,0,0,1-.106.1" transform="translate(-164.84 -121.728)" fill="#fff"/>
        <path id="Trazado_213048" data-name="Trazado 213048" d="M7.2,456.7a1.141,1.141,0,1,1,0-2.275,1.141,1.141,0,1,1,0,2.275" transform="translate(452.677 -128.341)" fill="#fff"/>
        <path id="Trazado_213049" data-name="Trazado 213049" d="M29.2,456.7a1.141,1.141,0,1,1,1.222-1.138A1.182,1.182,0,0,1,29.2,456.7" transform="translate(411.521 -128.341)" fill="#fff"/>
        <path id="Trazado_213050" data-name="Trazado 213050" d="M51.195,456.7a1.141,1.141,0,1,1,1.222-1.138,1.182,1.182,0,0,1-1.222,1.138" transform="translate(370.363 -128.341)" fill="#fff"/>
        <path id="Trazado_213051" data-name="Trazado 213051" d="M73.192,456.7a1.141,1.141,0,1,1,1.222-1.138,1.182,1.182,0,0,1-1.222,1.138" transform="translate(329.207 -128.341)" fill="#fff"/>
        <path id="Trazado_213052" data-name="Trazado 213052" d="M95.2,456.669a1.091,1.091,0,1,1,1.169-1.089,1.131,1.131,0,0,1-1.169,1.089" transform="translate(288.041 -128.361)" fill="#fff"/>
        <path id="Trazado_213053" data-name="Trazado 213053" d="M117.2,456.639a1.042,1.042,0,1,1,1.116-1.039,1.08,1.08,0,0,1-1.116,1.039" transform="translate(246.877 -128.38)" fill="#fff"/>
        <path id="Trazado_213054" data-name="Trazado 213054" d="M139.209,456.609a.992.992,0,1,1,1.063-.99,1.028,1.028,0,0,1-1.063.99" transform="translate(205.712 -128.399)" fill="#fff"/>
        <path id="Trazado_213055" data-name="Trazado 213055" d="M161.221,456.549a.893.893,0,1,1,.956-.891.926.926,0,0,1-.956.891" transform="translate(164.54 -128.438)" fill="#fff"/>
        <path id="Trazado_213056" data-name="Trazado 213056" d="M183.235,456.489a.793.793,0,1,1,.85-.791.822.822,0,0,1-.85.791" transform="translate(123.367 -128.477)" fill="#fff"/>
        <path id="Trazado_213057" data-name="Trazado 213057" d="M205.248,456.429a.695.695,0,1,1,.744-.692.719.719,0,0,1-.744.692" transform="translate(82.195 -128.516)" fill="#fff"/>
        <path id="Trazado_213058" data-name="Trazado 213058" d="M227.262,456.368a.6.6,0,1,1,.638-.593.617.617,0,0,1-.638.593" transform="translate(41.021 -128.555)" fill="#fff"/>
        <path id="Trazado_213059" data-name="Trazado 213059" d="M249.274,456.309a.5.5,0,1,1,.531-.494.514.514,0,0,1-.531.494" transform="translate(-0.15 -128.594)" fill="#fff"/>
        <path id="Trazado_213060" data-name="Trazado 213060" d="M271.3,456.219a.347.347,0,1,1,.372-.347.36.36,0,0,1-.372.347" transform="translate(-41.332 -128.653)" fill="#fff"/>
        <path id="Trazado_213061" data-name="Trazado 213061" d="M293.317,456.129a.2.2,0,1,1,.213-.2.205.205,0,0,1-.213.2" transform="translate(-82.511 -128.711)" fill="#fff"/>
        <path id="Trazado_213062" data-name="Trazado 213062" d="M315.337,456.039a.05.05,0,1,1,.053-.05.051.051,0,0,1-.053.05" transform="translate(-123.691 -128.769)" fill="#fff"/>
        <path id="Trazado_213063" data-name="Trazado 213063" d="M7.239,481.412a.893.893,0,1,1,.956-.89.926.926,0,0,1-.956.89" transform="translate(452.637 -135.46)" fill="#fff"/>
        <path id="Trazado_213064" data-name="Trazado 213064" d="M29.236,481.412a.893.893,0,1,1,.956-.89.926.926,0,0,1-.956.89" transform="translate(411.481 -135.46)" fill="#fff"/>
        <path id="Trazado_213065" data-name="Trazado 213065" d="M51.234,481.412a.893.893,0,1,1,.956-.89.926.926,0,0,1-.956.89" transform="translate(370.323 -135.46)" fill="#fff"/>
        <path id="Trazado_213066" data-name="Trazado 213066" d="M73.239,481.382a.843.843,0,1,1,.9-.841.874.874,0,0,1-.9.841" transform="translate(329.16 -135.48)" fill="#fff"/>
        <path id="Trazado_213067" data-name="Trazado 213067" d="M95.237,481.382a.843.843,0,1,1,.9-.841.874.874,0,0,1-.9.841" transform="translate(288.002 -135.48)" fill="#fff"/>
        <path id="Trazado_213068" data-name="Trazado 213068" d="M117.242,481.352a.794.794,0,1,1,.85-.791.822.822,0,0,1-.85.791" transform="translate(246.838 -135.499)" fill="#fff"/>
        <path id="Trazado_213069" data-name="Trazado 213069" d="M139.256,481.292A.695.695,0,1,1,140,480.6a.719.719,0,0,1-.744.692" transform="translate(205.665 -135.538)" fill="#fff"/>
        <path id="Trazado_213070" data-name="Trazado 213070" d="M161.261,481.262a.645.645,0,1,1,.691-.643.668.668,0,0,1-.691.643" transform="translate(164.501 -135.558)" fill="#fff"/>
        <path id="Trazado_213071" data-name="Trazado 213071" d="M183.274,481.2a.546.546,0,1,1,.584-.544.565.565,0,0,1-.584.544" transform="translate(123.327 -135.596)" fill="#fff"/>
        <path id="Trazado_213072" data-name="Trazado 213072" d="M205.287,481.141a.446.446,0,1,1,.478-.445.463.463,0,0,1-.478.445" transform="translate(82.156 -135.636)" fill="#fff"/>
        <path id="Trazado_213073" data-name="Trazado 213073" d="M227.3,481.081a.347.347,0,1,1,.372-.347.36.36,0,0,1-.372.347" transform="translate(40.982 -135.674)" fill="#fff"/>
        <path id="Trazado_213074" data-name="Trazado 213074" d="M249.314,481.021a.248.248,0,1,1,.266-.247.257.257,0,0,1-.266.247" transform="translate(-0.19 -135.713)" fill="#fff"/>
        <path id="Trazado_213075" data-name="Trazado 213075" d="M271.335,480.932a.1.1,0,1,1,.106-.1.1.1,0,0,1-.106.1" transform="translate(-41.371 -135.772)" fill="#fff"/>
        <path id="Trazado_213076" data-name="Trazado 213076" d="M7.287,506.095a.6.6,0,1,1,.638-.593.617.617,0,0,1-.638.593" transform="translate(452.59 -142.599)" fill="#fff"/>
        <path id="Trazado_213077" data-name="Trazado 213077" d="M29.284,506.095a.6.6,0,1,1,.638-.593.617.617,0,0,1-.638.593" transform="translate(411.434 -142.599)" fill="#fff"/>
        <path id="Trazado_213078" data-name="Trazado 213078" d="M51.282,506.095a.6.6,0,1,1,.638-.593.617.617,0,0,1-.638.593" transform="translate(370.276 -142.599)" fill="#fff"/>
        <path id="Trazado_213079" data-name="Trazado 213079" d="M73.279,506.095a.6.6,0,1,1,.638-.593.617.617,0,0,1-.638.593" transform="translate(329.12 -142.599)" fill="#fff"/>
        <path id="Trazado_213080" data-name="Trazado 213080" d="M95.284,506.064a.546.546,0,1,1,.584-.544.565.565,0,0,1-.584.544" transform="translate(287.955 -142.618)" fill="#fff"/>
        <path id="Trazado_213081" data-name="Trazado 213081" d="M117.289,506.034a.5.5,0,1,1,.531-.494.514.514,0,0,1-.531.494" transform="translate(246.791 -142.638)" fill="#fff"/>
        <path id="Trazado_213082" data-name="Trazado 213082" d="M139.3,506a.446.446,0,1,1,.478-.445.463.463,0,0,1-.478.445" transform="translate(205.625 -142.657)" fill="#fff"/>
        <path id="Trazado_213083" data-name="Trazado 213083" d="M161.3,505.974a.4.4,0,1,1,.425-.4.412.412,0,0,1-.425.4" transform="translate(164.461 -142.677)" fill="#fff"/>
        <path id="Trazado_213084" data-name="Trazado 213084" d="M183.314,505.914a.3.3,0,1,1,.319-.3.308.308,0,0,1-.319.3" transform="translate(123.288 -142.716)" fill="#fff"/>
        <path id="Trazado_213085" data-name="Trazado 213085" d="M205.326,505.854a.2.2,0,1,1,.213-.2.205.205,0,0,1-.213.2" transform="translate(82.116 -142.755)" fill="#fff"/>
        <path id="Trazado_213086" data-name="Trazado 213086" d="M227.34,505.8a.1.1,0,1,1,.106-.1.1.1,0,0,1-.106.1" transform="translate(40.943 -142.794)" fill="#fff"/>
        <path id="Trazado_213087" data-name="Trazado 213087" d="M249.345,505.765a.05.05,0,1,1,.053-.049.051.051,0,0,1-.053.049" transform="translate(-0.221 -142.813)" fill="#fff"/>
        <path id="Trazado_213088" data-name="Trazado 213088" d="M7.334,530.777a.3.3,0,1,1,.319-.3.308.308,0,0,1-.319.3" transform="translate(452.543 -149.738)" fill="#fff"/>
        <path id="Trazado_213089" data-name="Trazado 213089" d="M29.323,530.807a.347.347,0,1,1,.372-.347.36.36,0,0,1-.372.347" transform="translate(411.395 -149.719)" fill="#fff"/>
        <path id="Trazado_213090" data-name="Trazado 213090" d="M51.321,530.807a.347.347,0,1,1,.372-.347.36.36,0,0,1-.372.347" transform="translate(370.237 -149.719)" fill="#fff"/>
        <path id="Trazado_213091" data-name="Trazado 213091" d="M73.326,530.777a.3.3,0,1,1,.319-.3.308.308,0,0,1-.319.3" transform="translate(329.073 -149.738)" fill="#fff"/>
        <path id="Trazado_213092" data-name="Trazado 213092" d="M95.324,530.777a.3.3,0,1,1,.319-.3.308.308,0,0,1-.319.3" transform="translate(287.915 -149.738)" fill="#fff"/>
        <path id="Trazado_213093" data-name="Trazado 213093" d="M117.329,530.747a.248.248,0,1,1,.266-.248.257.257,0,0,1-.266.248" transform="translate(246.752 -149.757)" fill="#fff"/>
        <path id="Trazado_213094" data-name="Trazado 213094" d="M139.335,530.717a.2.2,0,1,1,.213-.2.205.205,0,0,1-.213.2" transform="translate(205.586 -149.777)" fill="#fff"/>
        <path id="Trazado_213095" data-name="Trazado 213095" d="M161.347,530.657a.1.1,0,1,1,.106-.1.1.1,0,0,1-.106.1" transform="translate(164.414 -149.816)" fill="#fff"/>
        <path id="Trazado_213096" data-name="Trazado 213096" d="M183.353,530.627a.05.05,0,1,1,.053-.049.051.051,0,0,1-.053.049" transform="translate(123.249 -149.835)" fill="#fff"/>
        <path id="Trazado_213097" data-name="Trazado 213097" d="M7.373,555.49a.05.05,0,1,1,.053-.049.051.051,0,0,1-.053.049" transform="translate(452.503 -156.857)" fill="#fff"/>
        <path id="Trazado_213098" data-name="Trazado 213098" d="M29.37,555.49a.05.05,0,1,1,.053-.049.051.051,0,0,1-.053.049" transform="translate(411.347 -156.857)" fill="#fff"/>
        <path id="Trazado_213099" data-name="Trazado 213099" d="M51.368,555.49a.05.05,0,1,1,.053-.049.051.051,0,0,1-.053.049" transform="translate(370.19 -156.857)" fill="#fff"/>
        <path id="Trazado_213100" data-name="Trazado 213100" d="M73.365,555.49a.05.05,0,1,1,.053-.049.051.051,0,0,1-.053.049" transform="translate(329.034 -156.857)" fill="#fff"/>
        <path id="Trazado_213101" data-name="Trazado 213101" d="M95.363,555.49a.05.05,0,1,1,.053-.049.051.051,0,0,1-.053.049" transform="translate(287.876 -156.857)" fill="#fff"/>
      </g>
    </g>
  </g>
</svg>
