<svg xmlns="http://www.w3.org/2000/svg" width="295" height="350" viewBox="0 0 295 350">
  <g id="Grupo_874363" data-name="Grupo 874363" transform="translate(-811 -3868)">
    <rect id="Rectángulo_35184" data-name="Rectángulo 35184" width="295" height="350" rx="20" transform="translate(811 3868)" fill="#ffe0f0"/>
    <path id="Trazado_596925" data-name="Trazado 596925" d="M12.6,21H9.666V6.781H12.6Zm2.09-5.361A6.368,6.368,0,0,1,15.794,11.7a3.6,3.6,0,0,1,3.032-1.465,3.236,3.236,0,0,1,2.549,1.152V6h2.832V21H21.658l-.137-1.123A3.321,3.321,0,0,1,18.807,21.2a3.587,3.587,0,0,1-2.993-1.47A6.573,6.573,0,0,1,14.686,15.639Zm2.822.21a4.171,4.171,0,0,0,.518,2.279,1.686,1.686,0,0,0,1.5.792,1.888,1.888,0,0,0,1.846-1.105V13.638a1.861,1.861,0,0,0-1.826-1.105Q17.508,12.533,17.508,15.849ZM31.258,21.2a5.187,5.187,0,0,1-3.784-1.426,5.068,5.068,0,0,1-1.46-3.8V15.7a6.383,6.383,0,0,1,.615-2.847,4.515,4.515,0,0,1,1.743-1.934,4.893,4.893,0,0,1,2.573-.679,4.385,4.385,0,0,1,3.413,1.367A5.555,5.555,0,0,1,35.6,15.482v1.152H28.875a2.622,2.622,0,0,0,.825,1.66,2.5,2.5,0,0,0,1.743.625,3.046,3.046,0,0,0,2.549-1.182l1.387,1.553a4.237,4.237,0,0,1-1.719,1.4A5.639,5.639,0,0,1,31.258,21.2Zm-.322-8.682a1.764,1.764,0,0,0-1.362.569,2.946,2.946,0,0,0-.669,1.628H32.83v-.226a2.1,2.1,0,0,0-.508-1.457A1.819,1.819,0,0,0,30.936,12.514Zm8.867-2.08.088,1.221a3.689,3.689,0,0,1,3.037-1.416,3.066,3.066,0,0,1,2.5.986,4.6,4.6,0,0,1,.84,2.949V21H43.445V14.242a1.831,1.831,0,0,0-.391-1.3,1.749,1.749,0,0,0-1.3-.405,1.942,1.942,0,0,0-1.787,1.016V21H37.146V10.434Zm11.982-2.6v2.6h1.807V12.5H51.785v5.273a1.259,1.259,0,0,0,.225.84,1.128,1.128,0,0,0,.859.254,4.5,4.5,0,0,0,.83-.068v2.139a5.81,5.81,0,0,1-1.709.254q-2.969,0-3.027-3V12.5H47.42v-2.07h1.543v-2.6ZM58.143,21H55.311V10.434h2.832Zm-3-13.3a1.39,1.39,0,0,1,.425-1.045,1.831,1.831,0,0,1,2.31,0,1.382,1.382,0,0,1,.43,1.045,1.386,1.386,0,0,1-.435,1.055,1.81,1.81,0,0,1-2.295,0A1.386,1.386,0,0,1,55.145,7.7ZM61.15,21V12.5H59.578v-2.07H61.15V9.945a3.963,3.963,0,0,1,1.226-3.071,4.931,4.931,0,0,1,3.4-1.079,11.289,11.289,0,0,1,3.2.576l-.41,2.334a12.5,12.5,0,0,0-1.484-.366,7.293,7.293,0,0,0-1.133-.083q-1.973,0-1.973,1.748v.43h2.08V12.5h-2.08V21Zm9.15,0H67.469V10.434H70.3Zm6.729-2.08a1.851,1.851,0,0,0,1.27-.43,1.506,1.506,0,0,0,.508-1.143h2.646a3.62,3.62,0,0,1-.586,1.968A3.866,3.866,0,0,1,79.29,20.7a4.936,4.936,0,0,1-2.212.493,4.587,4.587,0,0,1-3.574-1.44A5.7,5.7,0,0,1,72.2,15.775V15.59a5.635,5.635,0,0,1,1.3-3.9,4.534,4.534,0,0,1,3.564-1.455,4.444,4.444,0,0,1,3.179,1.128,3.994,3.994,0,0,1,1.216,3H78.807a1.939,1.939,0,0,0-.508-1.34,1.887,1.887,0,0,0-2.778.2,4.166,4.166,0,0,0-.5,2.333v.293a4.219,4.219,0,0,0,.5,2.347A1.721,1.721,0,0,0,77.029,18.92ZM89.188,21a3.134,3.134,0,0,1-.283-.947A3.415,3.415,0,0,1,86.238,21.2a3.752,3.752,0,0,1-2.573-.9,2.89,2.89,0,0,1-1.021-2.266,2.986,2.986,0,0,1,1.245-2.578,6.144,6.144,0,0,1,3.6-.908h1.3v-.605a1.741,1.741,0,0,0-.376-1.172,1.479,1.479,0,0,0-1.187-.439,1.682,1.682,0,0,0-1.118.342,1.161,1.161,0,0,0-.405.938H82.879a2.835,2.835,0,0,1,.566-1.7,3.744,3.744,0,0,1,1.6-1.226,5.837,5.837,0,0,1,2.324-.444,4.611,4.611,0,0,1,3.1.981,3.433,3.433,0,0,1,1.147,2.759v4.58a5.052,5.052,0,0,0,.42,2.275V21Zm-2.334-1.963a2.431,2.431,0,0,0,1.152-.278,1.828,1.828,0,0,0,.781-.747V16.2H87.732q-2.119,0-2.256,1.465l-.01.166a1.13,1.13,0,0,0,.371.869A1.441,1.441,0,0,0,86.854,19.037Zm11.328-.117a1.851,1.851,0,0,0,1.27-.43,1.506,1.506,0,0,0,.508-1.143h2.646a3.62,3.62,0,0,1-.586,1.968,3.866,3.866,0,0,1-1.577,1.387,4.936,4.936,0,0,1-2.212.493,4.587,4.587,0,0,1-3.574-1.44,5.7,5.7,0,0,1-1.309-3.979V15.59a5.635,5.635,0,0,1,1.3-3.9,4.534,4.534,0,0,1,3.564-1.455,4.444,4.444,0,0,1,3.179,1.128,3.994,3.994,0,0,1,1.216,3H99.959a1.939,1.939,0,0,0-.508-1.34,1.887,1.887,0,0,0-2.778.2,4.166,4.166,0,0,0-.5,2.333v.293a4.219,4.219,0,0,0,.5,2.347A1.721,1.721,0,0,0,98.182,18.92ZM107.2,21h-2.832V10.434H107.2Zm-3-13.3a1.39,1.39,0,0,1,.425-1.045,1.831,1.831,0,0,1,2.31,0,1.382,1.382,0,0,1,.43,1.045,1.386,1.386,0,0,1-.435,1.055,1.81,1.81,0,0,1-2.295,0A1.386,1.386,0,0,1,104.2,7.7Zm4.883,7.92a6.266,6.266,0,0,1,.605-2.8,4.432,4.432,0,0,1,1.743-1.9,5.086,5.086,0,0,1,2.642-.674,4.812,4.812,0,0,1,3.491,1.309A5.252,5.252,0,0,1,119.07,15.1l.02.723a5.523,5.523,0,0,1-1.357,3.9,5.261,5.261,0,0,1-7.29,0,5.62,5.62,0,0,1-1.362-3.984Zm2.822.2a3.95,3.95,0,0,0,.566,2.3,2.035,2.035,0,0,0,3.223.01,4.322,4.322,0,0,0,.576-2.518,3.91,3.91,0,0,0-.576-2.289,1.873,1.873,0,0,0-1.621-.812,1.842,1.842,0,0,0-1.6.807A4.395,4.395,0,0,0,111.9,15.819ZM114.627,6H117.7L115,9.027H112.7Zm8.8,4.434.088,1.221a3.689,3.689,0,0,1,3.037-1.416,3.066,3.066,0,0,1,2.5.986,4.6,4.6,0,0,1,.84,2.949V21h-2.822V14.242a1.831,1.831,0,0,0-.391-1.3,1.749,1.749,0,0,0-1.3-.405,1.942,1.942,0,0,0-1.787,1.016V21H120.77V10.434Zm23.1,5.381a6.337,6.337,0,0,1-1.108,3.911,3.554,3.554,0,0,1-2.993,1.47,3.292,3.292,0,0,1-2.588-1.113v4.98H137.01V10.434h2.617l.1,1.035a3.317,3.317,0,0,1,2.676-1.23,3.578,3.578,0,0,1,3.037,1.445,6.509,6.509,0,0,1,1.084,3.984Zm-2.822-.205a4.158,4.158,0,0,0-.522-2.275,1.7,1.7,0,0,0-1.519-.8,1.848,1.848,0,0,0-1.826,1.016v4.326a1.879,1.879,0,0,0,1.846,1.045Q143.7,18.92,143.7,15.609Zm4.131.01a6.267,6.267,0,0,1,.605-2.8,4.432,4.432,0,0,1,1.743-1.9,5.086,5.086,0,0,1,2.642-.674,4.812,4.812,0,0,1,3.491,1.309A5.252,5.252,0,0,1,157.82,15.1l.02.723a5.523,5.523,0,0,1-1.357,3.9,5.261,5.261,0,0,1-7.29,0,5.62,5.62,0,0,1-1.362-3.984Zm2.822.2a3.95,3.95,0,0,0,.566,2.3,2.035,2.035,0,0,0,3.223.01,4.322,4.322,0,0,0,.576-2.518,3.91,3.91,0,0,0-.576-2.289,1.873,1.873,0,0,0-1.621-.812,1.842,1.842,0,0,0-1.6.807A4.395,4.395,0,0,0,150.652,15.819Zm14.863-2.739A7.667,7.667,0,0,0,164.5,13a2.067,2.067,0,0,0-2.1,1.084V21h-2.822V10.434h2.666l.078,1.26a2.615,2.615,0,0,1,2.354-1.455,2.957,2.957,0,0,1,.879.127Zm-92.8,31a.909.909,0,0,0-.513-.815,5.824,5.824,0,0,0-1.646-.532q-3.77-.791-3.77-3.2a2.9,2.9,0,0,1,1.167-2.349A4.708,4.708,0,0,1,71,36.238a5.067,5.067,0,0,1,3.218.947,2.985,2.985,0,0,1,1.206,2.461H72.605a1.366,1.366,0,0,0-.391-1,1.653,1.653,0,0,0-1.221-.4,1.689,1.689,0,0,0-1.1.322,1.017,1.017,0,0,0-.391.82.87.87,0,0,0,.444.757,4.571,4.571,0,0,0,1.5.5,12.244,12.244,0,0,1,1.777.474,2.92,2.92,0,0,1,2.236,2.842,2.756,2.756,0,0,1-1.24,2.339,5.35,5.35,0,0,1-3.2.894,5.588,5.588,0,0,1-2.358-.474,3.957,3.957,0,0,1-1.616-1.3,3.018,3.018,0,0,1-.586-1.782h2.676a1.473,1.473,0,0,0,.557,1.152,2.208,2.208,0,0,0,1.387.4,2.044,2.044,0,0,0,1.226-.308A.957.957,0,0,0,72.713,44.08ZM82.137,47.2a5.187,5.187,0,0,1-3.784-1.426,5.068,5.068,0,0,1-1.46-3.8V41.7a6.383,6.383,0,0,1,.615-2.847,4.515,4.515,0,0,1,1.743-1.934,4.893,4.893,0,0,1,2.573-.679,4.385,4.385,0,0,1,3.413,1.367,5.555,5.555,0,0,1,1.245,3.877v1.152H79.754a2.622,2.622,0,0,0,.825,1.66,2.494,2.494,0,0,0,1.743.625,3.046,3.046,0,0,0,2.549-1.182l1.387,1.553a4.237,4.237,0,0,1-1.719,1.4A5.639,5.639,0,0,1,82.137,47.2Zm-.322-8.682a1.764,1.764,0,0,0-1.362.569,2.946,2.946,0,0,0-.669,1.628h3.926v-.226a2.1,2.1,0,0,0-.508-1.457A1.819,1.819,0,0,0,81.814,38.514Zm10.293,1.074,1.777-3.154H96.9l-3.008,5.176L97.029,47H94l-1.885-3.32L90.242,47H87.205l3.135-5.391-3-5.176h3.027Zm5.322,2.031a6.266,6.266,0,0,1,.605-2.8,4.432,4.432,0,0,1,1.743-1.9,5.086,5.086,0,0,1,2.642-.674,4.812,4.812,0,0,1,3.491,1.309A5.252,5.252,0,0,1,107.42,41.1l.02.723a5.523,5.523,0,0,1-1.357,3.9,5.261,5.261,0,0,1-7.29,0,5.62,5.62,0,0,1-1.362-3.984Zm2.822.2a3.95,3.95,0,0,0,.566,2.3,2.035,2.035,0,0,0,3.223.01,4.322,4.322,0,0,0,.576-2.518,3.91,3.91,0,0,0-.576-2.289,1.873,1.873,0,0,0-1.621-.812,1.842,1.842,0,0,0-1.6.807A4.395,4.395,0,0,0,100.252,41.819Z" transform="translate(871.5 4109.5)" fill="#12263f"/>
    <g id="sexo" transform="translate(894.996 3957.558)">
      <g id="Grupo_55828" data-name="Grupo 55828">
        <path id="Trazado_102727" data-name="Trazado 102727" d="M74,55.944a36.125,36.125,0,1,0-40.125,35.9V102.7H26.252v8h7.625v7.489h8V110.7H49.5v-8H41.877V91.843A36.174,36.174,0,0,0,74,55.944Zm-64.25,0A28.125,28.125,0,1,1,37.876,84.069,28.125,28.125,0,0,1,9.75,55.944Z" fill="#ea3584"/>
        <g id="Grupo_55827" data-name="Grupo 55827">
          <path id="Trazado_102728" data-name="Trazado 102728" d="M108.237,9.808l6.177,6.177L102.653,27.746a36.01,36.01,0,0,0-43.659-1.084A36.4,36.4,0,0,1,65.067,32.2a28.124,28.124,0,1,1,0,47.489,36.439,36.439,0,0,1-6.073,5.537A36.1,36.1,0,0,0,108.311,33.4l11.76-11.761,6.177,6.177V9.808Z" fill="#a2a7c5"/>
          <path id="Trazado_102729" data-name="Trazado 102729" d="M52.921,32.2a36.021,36.021,0,0,0,0,47.489,28.325,28.325,0,0,0,6.073-5.2,28.046,28.046,0,0,1,0-37.091,28.3,28.3,0,0,0-6.073-5.2Z" fill="#a2a7c5"/>
        </g>
      </g>
      <g id="Grupo_55829" data-name="Grupo 55829">
        <path id="Trazado_102730" data-name="Trazado 102730" d="M15.34,69.634a1.75,1.75,0,1,0-2.988,1.822,30.1,30.1,0,0,0,3.34,4.479,1.751,1.751,0,1,0,2.6-2.345,26.643,26.643,0,0,1-2.952-3.956Z"/>
        <path id="Trazado_102731" data-name="Trazado 102731" d="M67.752,55.944a29.875,29.875,0,1,0-59.75,0,1.75,1.75,0,0,0,3.5,0A26.362,26.362,0,0,1,50.271,32.671a37.728,37.728,0,0,0,0,46.546A26.366,26.366,0,0,1,30.29,81.208a1.75,1.75,0,1,0-1.009,3.351A29.886,29.886,0,0,0,67.752,55.944ZM59.007,71.712a26.224,26.224,0,0,1,0-31.536,26.324,26.324,0,0,1,0,31.536Zm-5.756,5.643a34.261,34.261,0,0,1,0-42.821,26.448,26.448,0,0,1,3.418,2.928,29.771,29.771,0,0,0,0,36.965,26.526,26.526,0,0,1-3.418,2.928Z"/>
        <path id="Trazado_102732" data-name="Trazado 102732" d="M126.248,8.058H108.237A1.75,1.75,0,0,0,107,11.045l4.939,4.94L102.5,25.423a37.947,37.947,0,0,0-22.388-7.354,37.537,37.537,0,0,0-21.107,6.456A37.868,37.868,0,1,0,32.127,93.377v7.576H26.252a1.75,1.75,0,0,0-1.75,1.75v8a1.751,1.751,0,0,0,1.75,1.75h5.875v5.739a1.751,1.751,0,0,0,1.75,1.75h8a1.751,1.751,0,0,0,1.75-1.75v-5.739H49.5a1.751,1.751,0,0,0,1.75-1.75v-8a1.75,1.75,0,0,0-1.75-1.75H43.627V93.377a37.7,37.7,0,0,0,15.4-6,37.845,37.845,0,0,0,51.606-53.824l9.438-9.439,4.94,4.94A1.75,1.75,0,0,0,128,27.819V9.808a1.751,1.751,0,0,0-1.752-1.75ZM41.685,90.1a1.75,1.75,0,0,0-1.558,1.739V102.7a1.751,1.751,0,0,0,1.75,1.75h5.875v4.5H41.877a1.75,1.75,0,0,0-1.75,1.75v5.739h-4.5V110.7a1.75,1.75,0,0,0-1.75-1.75H28v-4.5h5.875a1.751,1.751,0,0,0,1.75-1.75V91.843A1.75,1.75,0,0,0,34.069,90.1a34.356,34.356,0,1,1,29.9-11.766,1.747,1.747,0,0,0-.376.412c-.014.022-.022.046-.035.069a34.422,34.422,0,0,1-5.338,4.848,1.7,1.7,0,0,0-.486.358A34.247,34.247,0,0,1,41.685,90.1ZM124.5,23.594l-3.189-3.189a1.749,1.749,0,0,0-2.475,0L107.073,32.166a1.749,1.749,0,0,0-.128,2.331,33.97,33.97,0,0,1,7.542,21.447A34.414,34.414,0,0,1,80.112,90.319a34.035,34.035,0,0,1-18.089-5.176,37.981,37.981,0,0,0,3.422-3.2,29.808,29.808,0,0,0,41.4-12.668,1.75,1.75,0,1,0-3.13-1.566A26.333,26.333,0,0,1,67.764,79.232a37.846,37.846,0,0,0-.036-46.557,26.348,26.348,0,0,1,38.759,23.269,1.75,1.75,0,1,0,3.5,0A29.828,29.828,0,0,0,65.406,29.973,38.165,38.165,0,0,0,62,26.764a34.229,34.229,0,0,1,39.563,2.347,1.75,1.75,0,0,0,2.332-.128l11.76-11.761a1.748,1.748,0,0,0,0-2.474l-3.189-3.19H124.5Z"/>
      </g>
    </g>
  </g>
</svg>
