<svg id="Grupo_874296" data-name="Grupo 874296" xmlns="http://www.w3.org/2000/svg" xmlns:xlink="http://www.w3.org/1999/xlink" width="190" height="173.025" viewBox="0 0 190 173.025">
  <defs>
    <clipPath id="clip-path">
      <rect id="Rectángulo_293520" data-name="Rectángulo 293520" width="190" height="173.025" fill="none"/>
    </clipPath>
  </defs>
  <g id="Grupo_874293" data-name="Grupo 874293">
    <g id="Grupo_874292" data-name="Grupo 874292" clip-path="url(#clip-path)">
      <path id="Trazado_596208" data-name="Trazado 596208" d="M241.485,430.525H222.05a4.18,4.18,0,0,1-4.168-4.168V425.4a4.18,4.18,0,0,1,4.168-4.168h19.435a4.18,4.18,0,0,1,4.168,4.168v.959a4.18,4.18,0,0,1-4.168,4.168" transform="translate(-134.287 -259.618)" fill="#e1e1e5"/>
      <path id="Trazado_596209" data-name="Trazado 596209" d="M274.605,270.767c0,2.371-1.222,4.293-2.729,4.293s-2.729-1.922-2.729-4.293,1.222-4.293,2.729-4.293,2.729,1.922,2.729,4.293" transform="translate(-165.884 -164.236)" fill="#fcd118"/>
      <path id="Trazado_596210" data-name="Trazado 596210" d="M265.394,54.658a21.225,21.225,0,1,1-21.225-21.225,21.225,21.225,0,0,1,21.225,21.225" transform="translate(-137.407 -20.606)" fill="#ffce1d"/>
      <path id="Trazado_596211" data-name="Trazado 596211" d="M16.075,384.722a6.537,6.537,0,1,1-6.537-6.537,6.538,6.538,0,0,1,6.537,6.537" transform="translate(-1.849 -233.087)" fill="#e1e1e5"/>
      <path id="Trazado_596212" data-name="Trazado 596212" d="M382.478,413.6a6.537,6.537,0,1,1,6.537,6.537,6.538,6.538,0,0,1-6.537-6.537" transform="translate(-235.733 -250.885)" fill="#4a91d6"/>
      <path id="Trazado_596213" data-name="Trazado 596213" d="M448.271,166.532a6.537,6.537,0,1,1-6.537-6.537,6.537,6.537,0,0,1,6.537,6.537" transform="translate(-268.225 -98.61)" fill="#e1e1e5"/>
      <path id="Trazado_596214" data-name="Trazado 596214" d="M471.215,307.392a6.537,6.537,0,1,1-6.537-6.537,6.538,6.538,0,0,1,6.537,6.537" transform="translate(-282.366 -185.426)" fill="#fcd118"/>
    </g>
  </g>
  <g id="Grupo_874295" data-name="Grupo 874295">
    <g id="Grupo_874294" data-name="Grupo 874294" clip-path="url(#clip-path)">
      <path id="Trazado_596215" data-name="Trazado 596215" d="M208.529,332.741H207.9a3.763,3.763,0,0,1-3.758-3.758v-10.33A3.762,3.762,0,0,1,207.9,314.9h.627a3.762,3.762,0,0,1,3.758,3.758v10.33a3.763,3.763,0,0,1-3.758,3.758M207.9,317.2a1.458,1.458,0,0,0-1.456,1.456v10.33a1.458,1.458,0,0,0,1.456,1.456h.627a1.458,1.458,0,0,0,1.456-1.456v-10.33a1.458,1.458,0,0,0-1.456-1.456Z" transform="translate(-125.82 -194.079)" fill="#1e243a"/>
      <path id="Trazado_596216" data-name="Trazado 596216" d="M229.269,326.408h-.352a3.9,3.9,0,0,1-3.9-3.9v-14a3.9,3.9,0,0,1,3.9-3.9h.352a3.9,3.9,0,0,1,3.9,3.9v14a3.9,3.9,0,0,1-3.9,3.9m-.352-19.486a1.6,1.6,0,0,0-1.594,1.594v14a1.6,1.6,0,0,0,1.594,1.594h.352a1.6,1.6,0,0,0,1.594-1.594v-14a1.6,1.6,0,0,0-1.594-1.594Z" transform="translate(-138.687 -187.747)" fill="#1e243a"/>
      <path id="Trazado_596217" data-name="Trazado 596217" d="M249.613,323.263h-.424a3.865,3.865,0,0,1-3.86-3.86V302.754a3.865,3.865,0,0,1,3.86-3.86h.424a3.865,3.865,0,0,1,3.86,3.86v7.825a1.151,1.151,0,1,1-2.3,0v-7.825a1.56,1.56,0,0,0-1.558-1.558h-.424a1.56,1.56,0,0,0-1.558,1.558V319.4a1.56,1.56,0,0,0,1.558,1.558h.424a1.393,1.393,0,0,0,1.067-.409,2.98,2.98,0,0,0,.494-2.221,1.151,1.151,0,0,1,2.3-.158,5.061,5.061,0,0,1-1.108,3.949,3.7,3.7,0,0,1-2.749,1.141" transform="translate(-151.204 -184.218)" fill="#1e243a"/>
      <path id="Trazado_596218" data-name="Trazado 596218" d="M272.64,293.4a1.151,1.151,0,0,1-1.151-1.151V265.791a1.648,1.648,0,0,0-1.647-1.647H269.6a1.649,1.649,0,0,0-1.647,1.647v22.924a1.151,1.151,0,0,1-2.3,0V265.791a3.953,3.953,0,0,1,3.949-3.949h.246a3.953,3.953,0,0,1,3.949,3.949v26.462a1.151,1.151,0,0,1-1.151,1.151" transform="translate(-163.726 -161.381)" fill="#1e243a"/>
      <path id="Trazado_596219" data-name="Trazado 596219" d="M216.876,382.231a1.158,1.158,0,0,1-.254-.028c-12.337-2.787-12.479-18.8-12.479-19.479a1.151,1.151,0,0,1,2.3,0c0,.148.147,14.853,10.684,17.234a1.151,1.151,0,0,1-.253,2.274m-10.431-19.507h0Z" transform="translate(-125.82 -222.848)" fill="#1e243a"/>
      <path id="Trazado_596220" data-name="Trazado 596220" d="M238.628,423.123H219.71a5.762,5.762,0,0,1-5.755-5.755V415.3a5.765,5.765,0,0,1,4.5-5.618l-.251-2.634a1.151,1.151,0,0,1,2.292-.219l.358,3.758a1.151,1.151,0,0,1-1.146,1.26,3.457,3.457,0,0,0-3.453,3.453v2.07a3.457,3.457,0,0,0,3.453,3.453h18.918a3.457,3.457,0,0,0,3.453-3.453V415.3a3.457,3.457,0,0,0-3.453-3.453,1.151,1.151,0,0,1,0-2.3,5.762,5.762,0,0,1,5.755,5.755v2.07a5.762,5.762,0,0,1-5.755,5.755" transform="translate(-131.867 -250.098)" fill="#1e243a"/>
      <path id="Trazado_596221" data-name="Trazado 596221" d="M276.415,410.588a1.151,1.151,0,0,1-1.151-1.151V404.9a1.151,1.151,0,0,1,2.3,0v4.54a1.151,1.151,0,0,1-1.151,1.151" transform="translate(-169.654 -248.841)" fill="#1e243a"/>
      <path id="Trazado_596222" data-name="Trazado 596222" d="M241.776,423.386h-4.4a1.151,1.151,0,1,1,0-2.3h4.4a1.151,1.151,0,1,1,0,2.3" transform="translate(-145.593 -259.527)" fill="#1e243a"/>
      <path id="Trazado_596223" data-name="Trazado 596223" d="M261.2,423.386h-2.57a1.151,1.151,0,1,1,0-2.3h2.57a1.151,1.151,0,1,1,0,2.3" transform="translate(-158.695 -259.527)" fill="#1e243a"/>
      <path id="Trazado_596224" data-name="Trazado 596224" d="M257.109,360.369a1.151,1.151,0,0,1-.183-2.287c2.446-.4,3.561-1.98,7.05-7.41l.512-.8c.562-.874,1.041-1.662,1.463-2.409,2.061-3.645,2.284-6.238.824-9.566a16.278,16.278,0,0,0-6.768-7.437l-3.366-1.946a.658.658,0,0,0-.64-.054,1.723,1.723,0,0,0-.843,1.184c-.607,2.808,2.691,4.706,3.717,5.221a4.307,4.307,0,0,1,1.2.857,5.511,5.511,0,0,1,1.439,4.716,5.3,5.3,0,0,1-2.841,3.878,4.566,4.566,0,0,1-.8.327,1.151,1.151,0,0,1-.628-2.215,2.609,2.609,0,0,0,.385-.164,3.019,3.019,0,0,0,1.616-2.211,3.2,3.2,0,0,0-.831-2.739,2.071,2.071,0,0,0-.571-.393c-1.4-.7-5.89-3.339-4.939-7.736l.015-.064a3.94,3.94,0,0,1,2.168-2.774,2.951,2.951,0,0,1,2.709.173l3.366,1.946a18.592,18.592,0,0,1,7.724,8.5c1.752,3.992,1.483,7.36-.928,11.624-.444.785-.945,1.61-1.532,2.521l-.511.795c-3.468,5.4-5.05,7.859-8.618,8.438a1.176,1.176,0,0,1-.186.015" transform="translate(-155.79 -200.987)" fill="#1e243a"/>
      <path id="Trazado_596225" data-name="Trazado 596225" d="M267.151,206.075a1.151,1.151,0,0,1-.008-2.3l7.659-.053-4.394-6.2a1.151,1.151,0,0,1,.913-1.816l2.436-.056-4.628-8.146a1.151,1.151,0,0,1,2-1.137l5.58,9.822a1.151,1.151,0,0,1-.975,1.719l-2.2.05,4.419,6.233a1.151,1.151,0,0,1-.931,1.817l-9.867.069Z" transform="translate(-163.944 -114.503)" fill="#1e243a"/>
      <path id="Trazado_596226" data-name="Trazado 596226" d="M53.522,326.079a1.151,1.151,0,0,1-1.151-1.151v-7.673a1.151,1.151,0,0,1,2.3,0v7.673a1.151,1.151,0,0,1-1.151,1.151" transform="translate(-32.278 -194.825)" fill="#1e243a"/>
      <path id="Trazado_596227" data-name="Trazado 596227" d="M51.4,328.614H43.73a1.151,1.151,0,0,1,0-2.3H51.4a1.151,1.151,0,0,1,0,2.3" transform="translate(-26.243 -201.116)" fill="#1e243a"/>
      <path id="Trazado_596228" data-name="Trazado 596228" d="M137.522,166.2a1.151,1.151,0,0,1-1.151-1.151v-7.673a1.151,1.151,0,1,1,2.3,0v7.673a1.151,1.151,0,0,1-1.151,1.151" transform="translate(-84.05 -96.283)" fill="#1e243a"/>
      <path id="Trazado_596229" data-name="Trazado 596229" d="M135.4,168.73h-7.673a1.151,1.151,0,1,1,0-2.3H135.4a1.151,1.151,0,1,1,0,2.3" transform="translate(-78.015 -102.575)" fill="#1e243a"/>
      <path id="Trazado_596230" data-name="Trazado 596230" d="M454.166,46.784a1.151,1.151,0,0,1-1.151-1.151V37.96a1.151,1.151,0,0,1,2.3,0v7.673a1.151,1.151,0,0,1-1.151,1.151" transform="translate(-279.207 -22.687)" fill="#1e243a"/>
      <path id="Trazado_596231" data-name="Trazado 596231" d="M452.047,49.319h-7.673a1.151,1.151,0,0,1,0-2.3h7.673a1.151,1.151,0,1,1,0,2.3" transform="translate(-273.172 -28.978)" fill="#1e243a"/>
      <path id="Trazado_596232" data-name="Trazado 596232" d="M454.166,382.469a1.151,1.151,0,0,1-1.151-1.151v-7.673a1.151,1.151,0,0,1,2.3,0v7.673a1.151,1.151,0,0,1-1.151,1.151" transform="translate(-279.207 -229.579)" fill="#1e243a"/>
      <path id="Trazado_596233" data-name="Trazado 596233" d="M452.047,385.005h-7.673a1.151,1.151,0,0,1,0-2.3h7.673a1.151,1.151,0,1,1,0,2.3" transform="translate(-273.172 -235.872)" fill="#1e243a"/>
      <path id="Trazado_596234" data-name="Trazado 596234" d="M196.583,254.721a6.537,6.537,0,1,1-6.537-6.537,6.538,6.538,0,0,1,6.537,6.537" transform="translate(-113.102 -152.963)" fill="#ea3584"/>
      <path id="Trazado_596235" data-name="Trazado 596235" d="M95.766,227.682a6.537,6.537,0,1,1-6.537-6.537,6.538,6.538,0,0,1,6.537,6.537" transform="translate(-50.965 -136.298)" fill="#fcd118"/>
      <path id="Trazado_596236" data-name="Trazado 596236" d="M87.379,233.522a7.688,7.688,0,1,1,7.688-7.688,7.7,7.7,0,0,1-7.688,7.688m0-13.075a5.386,5.386,0,1,0,5.386,5.386,5.392,5.392,0,0,0-5.386-5.386" transform="translate(-49.116 -134.449)" fill="#1e243a"/>
      <path id="Trazado_596237" data-name="Trazado 596237" d="M188.2,260.561a7.688,7.688,0,1,1,7.688-7.688,7.7,7.7,0,0,1-7.688,7.688m0-13.075a5.386,5.386,0,1,0,5.386,5.386,5.393,5.393,0,0,0-5.386-5.386" transform="translate(-111.253 -151.114)" fill="#1e243a"/>
      <path id="Trazado_596238" data-name="Trazado 596238" d="M7.688,390.562a7.688,7.688,0,1,1,7.688-7.688,7.7,7.7,0,0,1-7.688,7.688m0-13.075a5.386,5.386,0,1,0,5.386,5.386,5.393,5.393,0,0,0-5.386-5.386" transform="translate(0 -231.238)" fill="#1e243a"/>
      <path id="Trazado_596239" data-name="Trazado 596239" d="M97.881,278.493a1.151,1.151,0,0,1-1.151-1.151V253.374a1.151,1.151,0,0,1,2.3,0v22.813l17.581-.068h0a1.151,1.151,0,0,1,0,2.3l-18.736.073Z" transform="translate(-59.618 -155.453)" fill="#1e243a"/>
      <path id="Trazado_596240" data-name="Trazado 596240" d="M79.1,314.168H36.9a1.151,1.151,0,0,1,0-2.3H77.943L77.855,263a1.151,1.151,0,0,1,1.151-1.153H92.124a1.151,1.151,0,0,1,0,2.3H80.16l.087,48.87a1.151,1.151,0,0,1-1.151,1.153" transform="translate(-22.031 -161.382)" fill="#1e243a"/>
      <path id="Trazado_596241" data-name="Trazado 596241" d="M243.514,89.1a3.685,3.685,0,0,1-3.618-3,4.911,4.911,0,0,1-2.723-4.369v-.994a9.818,9.818,0,0,0-4.814-8.4A21.477,21.477,0,0,1,244.4,32.521,21.477,21.477,0,0,1,254.558,72.4a9.91,9.91,0,0,0-4.7,8.5v.832a4.911,4.911,0,0,1-2.747,4.381,3.739,3.739,0,0,1-3.483,2.988l-.114,0m-1.379-3.741c0,.02,0,.04,0,.059A1.379,1.379,0,0,0,243.56,86.8a1.447,1.447,0,0,0,1.337-1.485,1.171,1.171,0,0,1,.821-1.12,2.591,2.591,0,0,0,1.84-2.463V80.9a12.223,12.223,0,0,1,5.816-10.47,19.173,19.173,0,1,0-19.815-.062,12.1,12.1,0,0,1,5.918,10.369v.994a2.59,2.59,0,0,0,1.84,2.463,1.152,1.152,0,0,1,.819,1.166" transform="translate(-136.851 -20.033)" fill="#1e243a"/>
      <path id="Trazado_596242" data-name="Trazado 596242" d="M265.152,155.33a1.151,1.151,0,0,1-.44-2.215l9.417-3.9a1.151,1.151,0,0,1,.88,2.127l-9.417,3.9a1.15,1.15,0,0,1-.44.088" transform="translate(-162.711 -91.914)" fill="#1e243a"/>
      <path id="Trazado_596243" data-name="Trazado 596243" d="M262.633,142.662a1.151,1.151,0,0,1-.412-2.226l13.573-5.2a1.151,1.151,0,1,1,.824,2.149l-13.573,5.2a1.151,1.151,0,0,1-.412.077" transform="translate(-161.159 -83.301)" fill="#1e243a"/>
      <path id="Trazado_596244" data-name="Trazado 596244" d="M268.22,87.189a5.7,5.7,0,1,1,5.7-5.7,5.71,5.71,0,0,1-5.7,5.7m0-9.1a3.4,3.4,0,1,0,3.4,3.4,3.405,3.405,0,0,0-3.4-3.4" transform="translate(-161.797 -46.707)" fill="#1e243a"/>
      <path id="Trazado_596245" data-name="Trazado 596245" d="M181.655,105.561h-5.139a1.151,1.151,0,0,1,0-2.3h5.139a1.151,1.151,0,1,1,0,2.3" transform="translate(-108.083 -63.642)" fill="#1e243a"/>
      <path id="Trazado_596246" data-name="Trazado 596246" d="M372.895,105.561H358.1a1.151,1.151,0,0,1,0-2.3h14.8a1.151,1.151,0,1,1,0,2.3" transform="translate(-219.996 -63.642)" fill="#1e243a"/>
      <path id="Trazado_596247" data-name="Trazado 596247" d="M276.165,10.935a1.151,1.151,0,0,1-1.151-1.151V1.15a1.151,1.151,0,0,1,2.3,0V9.784a1.151,1.151,0,0,1-1.151,1.151" transform="translate(-169.5 0.001)" fill="#1e243a"/>
      <path id="Trazado_596248" data-name="Trazado 596248" d="M336.283,28.093a1.151,1.151,0,0,1-.814-1.965l10.4-10.4a1.151,1.151,0,1,1,1.628,1.628l-10.4,10.4a1.146,1.146,0,0,1-.814.337" transform="translate(-206.552 -9.483)" fill="#1e243a"/>
      <path id="Trazado_596249" data-name="Trazado 596249" d="M212.567,164.25a1.151,1.151,0,0,1-.814-1.965l2.659-2.66a1.151,1.151,0,0,1,1.628,1.628l-2.66,2.66a1.146,1.146,0,0,1-.814.337" transform="translate(-130.302 -98.174)" fill="#1e243a"/>
      <path id="Trazado_596250" data-name="Trazado 596250" d="M209.867,40.539a1.147,1.147,0,0,1-.811-.335l-5.368-5.336a1.151,1.151,0,1,1,1.623-1.633l5.368,5.336a1.151,1.151,0,0,1-.811,1.967" transform="translate(-125.33 -20.277)" fill="#1e243a"/>
      <path id="Trazado_596251" data-name="Trazado 596251" d="M343.784,173.673a1.147,1.147,0,0,1-.811-.335l-12.154-12.083a1.151,1.151,0,1,1,1.623-1.632L344.6,171.706a1.151,1.151,0,0,1-.811,1.967" transform="translate(-203.685 -98.175)" fill="#1e243a"/>
      <path id="Trazado_596252" data-name="Trazado 596252" d="M306.075,73.363a1.151,1.151,0,0,1-1.151-1.151,13.151,13.151,0,0,0-4.012-9.5,1.151,1.151,0,0,1,1.606-1.65,15.436,15.436,0,0,1,4.708,11.15,1.151,1.151,0,0,1-1.151,1.151" transform="translate(-185.247 -37.433)" fill="#1e243a"/>
      <path id="Trazado_596253" data-name="Trazado 596253" d="M242.242,100.171a1.148,1.148,0,0,1-.811-.334,15.45,15.45,0,0,1-4.6-11.04,1.151,1.151,0,0,1,2.3,0,13.163,13.163,0,0,0,3.917,9.406,1.151,1.151,0,0,1-.811,1.968" transform="translate(-145.969 -54.019)" fill="#1e243a"/>
      <path id="Trazado_596254" data-name="Trazado 596254" d="M275.775,114.467a1.151,1.151,0,0,1-1.15-1.125l-.242-10.518a1.151,1.151,0,1,1,2.3-.053l.242,10.518a1.151,1.151,0,0,1-1.124,1.177h-.027" transform="translate(-169.11 -62.648)" fill="#1e243a"/>
      <path id="Trazado_596255" data-name="Trazado 596255" d="M275.3,68.811a1.151,1.151,0,0,1-1.15-1.122L274,61.917a1.151,1.151,0,1,1,2.3-.058l.147,5.773a1.151,1.151,0,0,1-1.122,1.18h-.03" transform="translate(-168.875 -37.434)" fill="#1e243a"/>
      <path id="Trazado_596256" data-name="Trazado 596256" d="M329.531,125.33a1.151,1.151,0,0,1-.7-2.069,13.093,13.093,0,0,0,4.739-7.56,1.151,1.151,0,0,1,2.274.356,15.21,15.21,0,0,1-5.625,9.041,1.148,1.148,0,0,1-.694.233" transform="translate(-202.39 -70.712)" fill="#1e243a"/>
      <path id="Trazado_596257" data-name="Trazado 596257" d="M439.884,172.373a7.688,7.688,0,1,1,7.688-7.688,7.7,7.7,0,0,1-7.688,7.688m0-13.075a5.386,5.386,0,1,0,5.386,5.386,5.392,5.392,0,0,0-5.386-5.386" transform="translate(-266.376 -96.761)" fill="#1e243a"/>
      <path id="Trazado_596258" data-name="Trazado 596258" d="M462.828,313.232a7.688,7.688,0,1,1,7.688-7.688,7.7,7.7,0,0,1-7.688,7.688m0-13.075a5.386,5.386,0,1,0,5.386,5.386,5.393,5.393,0,0,0-5.386-5.386" transform="translate(-280.517 -183.577)" fill="#1e243a"/>
      <path id="Trazado_596259" data-name="Trazado 596259" d="M387.166,419.439a7.688,7.688,0,1,1,7.688-7.688,7.7,7.7,0,0,1-7.688,7.688m0-13.075a5.386,5.386,0,1,0,5.386,5.386,5.392,5.392,0,0,0-5.386-5.386" transform="translate(-233.884 -249.036)" fill="#1e243a"/>
      <path id="Trazado_596260" data-name="Trazado 596260" d="M366.814,275.528a1.151,1.151,0,0,1-1.151-1.151V251.565l-17.581.068a1.159,1.159,0,0,1-1.156-1.133l-.47-30.524a1.151,1.151,0,0,1,1.151-1.169h38.282V192.931a1.151,1.151,0,1,1,2.3,0v27.027a1.151,1.151,0,0,1-1.151,1.151H348.775l.435,28.218,17.6-.069a1.084,1.084,0,0,1,.817.336,1.151,1.151,0,0,1,.339.815v23.968a1.151,1.151,0,0,1-1.151,1.151" transform="translate(-213.531 -118.2)" fill="#1e243a"/>
      <path id="Trazado_596261" data-name="Trazado 596261" d="M389.682,316.922H348.469a1.151,1.151,0,1,1,0-2.3h41.213a1.151,1.151,0,0,1,0,2.3" transform="translate(-214.063 -193.91)" fill="#1e243a"/>
      <path id="Trazado_596262" data-name="Trazado 596262" d="M24.114,157.757a6.537,6.537,0,1,1-6.537-6.537,6.538,6.538,0,0,1,6.537,6.537" transform="translate(-6.804 -93.202)" fill="#ffeeb0"/>
      <path id="Trazado_596263" data-name="Trazado 596263" d="M86.766,67.32a6.537,6.537,0,1,1-6.537-6.537,6.538,6.538,0,0,1,6.537,6.537" transform="translate(-45.418 -37.462)" fill="#4a91d6"/>
      <path id="Trazado_596264" data-name="Trazado 596264" d="M78.379,73.16a7.688,7.688,0,1,1,7.688-7.688,7.7,7.7,0,0,1-7.688,7.688m0-13.075a5.386,5.386,0,1,0,5.386,5.386,5.393,5.393,0,0,0-5.386-5.386" transform="translate(-43.569 -35.613)" fill="#1e243a"/>
      <path id="Trazado_596265" data-name="Trazado 596265" d="M15.727,163.6a7.688,7.688,0,1,1,7.688-7.688,7.7,7.7,0,0,1-7.688,7.688m0-13.075a5.386,5.386,0,1,0,5.386,5.386,5.393,5.393,0,0,0-5.386-5.386" transform="translate(-4.955 -91.353)" fill="#1e243a"/>
      <path id="Trazado_596266" data-name="Trazado 596266" d="M39.766,30.607a1.151,1.151,0,0,1-1.151-1.151V13.247H9.191a1.151,1.151,0,1,1,0-2.3H39.766A1.151,1.151,0,0,1,40.917,12.1v17.36a1.151,1.151,0,0,1-1.151,1.151" transform="translate(-4.955 -6.746)" fill="#1e243a"/>
      <path id="Trazado_596267" data-name="Trazado 596267" d="M26.078,65.915a1.151,1.151,0,0,1-1.151-1.146c-.008-2.022-.209-49.56,0-52.749a1.151,1.151,0,1,1,2.3.152c-.206,3.109,0,52.093,0,52.587a1.151,1.151,0,0,1-1.146,1.156Z" transform="translate(-15.305 -6.746)" fill="#1e243a"/>
      <path id="Trazado_596268" data-name="Trazado 596268" d="M280.167,248.525h-.144a1.151,1.151,0,0,1,0-2.3h.144a1.151,1.151,0,0,1,0,2.3" transform="translate(-171.877 -151.755)" fill="#1e243a"/>
      <path id="Trazado_596269" data-name="Trazado 596269" d="M269.184,248.525H267.8a1.151,1.151,0,1,1,0-2.3h1.386a1.151,1.151,0,1,1,0,2.3" transform="translate(-164.343 -151.755)" fill="#1e243a"/>
    </g>
  </g>
</svg>
