<svg xmlns="http://www.w3.org/2000/svg" xmlns:xlink="http://www.w3.org/1999/xlink" width="105" height="105" viewBox="0 0 105 105">
  <defs>
    <clipPath id="clip-path">
      <rect id="Rectángulo_293518" data-name="Rectángulo 293518" width="74.39" height="52.513" fill="none"/>
    </clipPath>
  </defs>
  <g id="Grupo_874291" data-name="Grupo 874291" transform="translate(-1170 -4003)">
    <circle id="Elipse_4855" data-name="Elipse 4855" cx="52.5" cy="52.5" r="52.5" transform="translate(1170 4003)" fill="#f6f6f6"/>
    <g id="Grupo_874284" data-name="Grupo 874284" transform="translate(1189.112 4028.732)">
      <g id="Grupo_874283" data-name="Grupo 874283" clip-path="url(#clip-path)">
        <path id="Trazado_596180" data-name="Trazado 596180" d="M79.835,80.122A15.85,15.85,0,1,1,90.852,52.877a.758.758,0,0,1-1.054,1.09,14.334,14.334,0,1,0,4.37,10.3,14.46,14.46,0,0,0-.309-2.976.758.758,0,1,1,1.484-.313A15.862,15.862,0,0,1,79.835,80.122" transform="translate(-46.344 -35.072)" fill="#344154"/>
        <path id="Trazado_596181" data-name="Trazado 596181" d="M119.482,71.387a.758.758,0,0,1-.366-1.423l23.07-12.672a.758.758,0,0,1,.73,1.329l-23.07,12.672a.754.754,0,0,1-.364.094" transform="translate(-85.99 -41.429)" fill="#344154"/>
        <path id="Trazado_596182" data-name="Trazado 596182" d="M209.751,43.147a.76.76,0,0,1-.2-.026l-6.595-1.754a.758.758,0,0,1-.538-.928l1.755-6.594a.758.758,0,0,1,1.465.39l-1.56,5.861,5.862,1.559a.758.758,0,0,1-.194,1.491" transform="translate(-146.596 -24.107)" fill="#344154"/>
        <path id="Trazado_596183" data-name="Trazado 596183" d="M228.755,32.347a.76.76,0,0,1-.2-.026l-6.593-1.754a.758.758,0,0,1-.538-.927l1.754-6.593a.758.758,0,1,1,1.465.39L223.088,29.3l5.861,1.559a.758.758,0,0,1-.194,1.491" transform="translate(-160.361 -16.284)" fill="#344154"/>
        <path id="Trazado_596184" data-name="Trazado 596184" d="M247.755,21.546a.76.76,0,0,1-.2-.026l-6.594-1.754a.758.758,0,0,1-.538-.927l1.754-6.594a.758.758,0,1,1,1.465.39l-1.56,5.861,5.861,1.559a.758.758,0,0,1-.194,1.491" transform="translate(-174.122 -8.461)" fill="#344154"/>
        <path id="Trazado_596185" data-name="Trazado 596185" d="M124.178,92.622a.768.768,0,0,1-.213-.03l-5.437-1.586a.758.758,0,0,1-.527-.895l1.189-5.278a.758.758,0,1,1,1.479.333l-1.033,4.583,4.754,1.387a.758.758,0,0,1-.212,1.486" transform="translate(-85.454 -61.015)" fill="#344154"/>
        <path id="Trazado_596186" data-name="Trazado 596186" d="M99.264,92.58a8.454,8.454,0,0,1-1.721-16.731.758.758,0,1,1,.309,1.484,6.937,6.937,0,1,0,6.766,11.2.758.758,0,0,1,1.17.965,8.432,8.432,0,0,1-6.523,3.081" transform="translate(-65.773 -54.926)" fill="#344154"/>
        <path id="Trazado_596187" data-name="Trazado 596187" d="M58.574,52.513H5.319A5.325,5.325,0,0,1,0,47.194V4.109A4.114,4.114,0,0,1,4.109,0H59.783a4.114,4.114,0,0,1,4.109,4.109.758.758,0,1,1-1.516,0,2.6,2.6,0,0,0-2.593-2.593H4.109A2.6,2.6,0,0,0,1.516,4.109V47.194a3.807,3.807,0,0,0,3.8,3.8H58.574a3.807,3.807,0,0,0,3.8-3.8V22.287a.758.758,0,0,1,1.516,0V47.194a5.325,5.325,0,0,1-5.319,5.319" transform="translate(0 0)" fill="#344154"/>
        <path id="Trazado_596188" data-name="Trazado 596188" d="M27.5,25a1.345,1.345,0,1,1,1.345-1.345A1.346,1.346,0,0,1,27.5,25m0-1.516a.171.171,0,1,0,.171.171.172.172,0,0,0-.171-.171" transform="translate(-18.942 -16.158)" fill="#344154"/>
        <path id="Trazado_596189" data-name="Trazado 596189" d="M51.763,25a1.345,1.345,0,1,1,1.345-1.345A1.347,1.347,0,0,1,51.763,25m0-1.516a.171.171,0,1,0,.171.171.172.172,0,0,0-.171-.171" transform="translate(-36.518 -16.158)" fill="#344154"/>
        <path id="Trazado_596190" data-name="Trazado 596190" d="M76.03,25a1.345,1.345,0,1,1,1.345-1.345A1.346,1.346,0,0,1,76.03,25m0-1.516a.171.171,0,1,0,.171.171.172.172,0,0,0-.171-.171" transform="translate(-54.094 -16.158)" fill="#344154"/>
        <path id="Trazado_596191" data-name="Trazado 596191" d="M21.935,49.935H.757a.758.758,0,1,1,0-1.516H21.935a.758.758,0,1,1,0,1.516" transform="translate(0.001 -35.07)" fill="#344154"/>
        <path id="Trazado_596192" data-name="Trazado 596192" d="M15.129,132.855H30.32L13.545,116.08v15.19a1.586,1.586,0,0,0,1.584,1.585" transform="translate(-9.811 -84.076)" fill="#6826cc"/>
      </g>
    </g>
  </g>
</svg>
