<svg xmlns="http://www.w3.org/2000/svg" xmlns:xlink="http://www.w3.org/1999/xlink" width="105" height="105" viewBox="0 0 105 105">
  <defs>
    <clipPath id="clip-path">
      <rect id="Rectángulo_293519" data-name="Rectángulo 293519" width="67.729" height="66.792" fill="none"/>
    </clipPath>
  </defs>
  <g id="Grupo_874287" data-name="Grupo 874287" transform="translate(-538 -4003)">
    <circle id="Elipse_4852" data-name="Elipse 4852" cx="52.5" cy="52.5" r="52.5" transform="translate(538 4003)" fill="#f6f6f6"/>
    <g id="Grupo_874286" data-name="Grupo 874286" transform="translate(558.135 4019.176)">
      <g id="Grupo_874285" data-name="Grupo 874285" clip-path="url(#clip-path)">
        <path id="Trazado_596193" data-name="Trazado 596193" d="M79.539,17.671a.811.811,0,0,1-.4-.108L65.116,9.469a.809.809,0,0,1,.005-1.4L79.14.106a.809.809,0,0,1,.8,0L93.957,8.065a.809.809,0,0,1,.005,1.4L79.944,17.562a.81.81,0,0,1-.4.108m-12.39-8.9,12.39,7.153,12.39-7.153L79.539,1.74Z" transform="translate(-45.675 0)" fill="#344154"/>
        <path id="Trazado_596194" data-name="Trazado 596194" d="M88.026,19.024,95.994,14.5l7.969,4.524-7.969,4.6Z" transform="translate(-62.13 -10.234)" fill="#6826cc"/>
        <path id="Trazado_596195" data-name="Trazado 596195" d="M79.538,52.953a.805.805,0,0,1-.4-.108L65.117,44.751a.809.809,0,0,1-.4-.7V27.863a.809.809,0,1,1,1.618,0v15.72l13.614,7.86a.809.809,0,0,1-.405,1.51" transform="translate(-45.675 -19.095)" fill="#344154"/>
        <path id="Trazado_596196" data-name="Trazado 596196" d="M113.173,52.953a.809.809,0,0,1-.405-1.51l13.614-7.86V27.863a.809.809,0,1,1,1.618,0V44.05a.809.809,0,0,1-.4.7l-14.018,8.094a.805.805,0,0,1-.4.108" transform="translate(-79.307 -19.095)" fill="#344154"/>
        <path id="Trazado_596197" data-name="Trazado 596197" d="M113.172,66.935a.809.809,0,0,1-.809-.809V55.374a.809.809,0,1,1,1.618,0V66.126a.809.809,0,0,1-.809.809" transform="translate(-79.308 -38.513)" fill="#344154"/>
        <path id="Trazado_596198" data-name="Trazado 596198" d="M22.774,90.932a.807.807,0,0,1-.638-.312l-1.6-2.052a.808.808,0,0,1-.159-.357c-.215-1.219-.584-3.353-.965-5.56-.422-2.445-.86-4.978-1.121-6.454a1.325,1.325,0,0,0-.556-.87,1.366,1.366,0,0,0-1.048-.206l-2.122.42a.809.809,0,0,1-.314-1.587l2.122-.42a2.969,2.969,0,0,1,2.276.458,2.93,2.93,0,0,1,1.235,1.923c.262,1.477.7,4.013,1.122,6.46.361,2.09.71,4.114.929,5.356l1.477,1.893a.809.809,0,0,1-.637,1.306" transform="translate(-9.598 -51.859)" fill="#344154"/>
        <path id="Trazado_596199" data-name="Trazado 596199" d="M37,91.7a.808.808,0,0,1-.66-.34l-1.59-2.236a.8.8,0,0,1-.136-.32c-.288-1.539-.555-3.187-.839-4.932-.244-1.5-.5-3.055-.782-4.672a1.324,1.324,0,0,0-.556-.87,1.366,1.366,0,0,0-1.048-.206l-1.148.227a.809.809,0,0,1-.314-1.587l1.148-.227a2.968,2.968,0,0,1,2.276.458,2.93,2.93,0,0,1,1.235,1.923c.288,1.629.541,3.187.786,4.695.271,1.669.527,3.249.8,4.719l1.486,2.091A.809.809,0,0,1,37,91.7" transform="translate(-20.664 -53.974)" fill="#344154"/>
        <path id="Trazado_596200" data-name="Trazado 596200" d="M20.316,156.56a.809.809,0,0,1-.809-.809v-7.8c-.846-1.665-2.815-2.805-6.011-3.482-.328-.07-.66-.137-.993-.2-2.45-.492-4.983-1-6.9-2.744a12.244,12.244,0,0,1-2.526-3.641,53.352,53.352,0,0,1-2.95-7.032,2.3,2.3,0,0,1,.663-2.5,2.327,2.327,0,0,1,2.591-.351,8.311,8.311,0,0,1,4.032,3.726c.1.22.2.45.3.682.668,1.582,1.085,2.395,2.57,2.1a4.018,4.018,0,0,0,.865-.312,11.509,11.509,0,0,1,12.211,1.947.809.809,0,0,1-1.089,1.2,9.848,9.848,0,0,0-10.45-1.671,5.539,5.539,0,0,1-1.222.427c-2.843.562-3.767-1.616-4.376-3.058-.091-.215-.181-.428-.275-.633A6.678,6.678,0,0,0,2.68,129.45a.729.729,0,0,0-.817.107.694.694,0,0,0-.2.77,51.766,51.766,0,0,0,2.861,6.818,10.87,10.87,0,0,0,2.171,3.176c1.583,1.441,3.894,1.905,6.128,2.355.339.068.676.136,1.01.207,3.828.811,6.189,2.3,7.22,4.543a.81.81,0,0,1,.074.337v7.989a.809.809,0,0,1-.809.809" transform="translate(0 -90.167)" fill="#344154"/>
        <path id="Trazado_596201" data-name="Trazado 596201" d="M72.055,157.027a.809.809,0,0,1-.809-.809V141.436a16.15,16.15,0,0,0-2.343-6.8c-2.209-3.53-5.433-4.254-8.551-4.953-.364-.081-.724-.162-1.075-.246a.809.809,0,1,1,.376-1.574c.344.082.7.161,1.053.241,3.119.7,7,1.572,9.568,5.674a17.813,17.813,0,0,1,2.586,7.542c0,.025,0,.05,0,.074v14.819a.809.809,0,0,1-.809.809" transform="translate(-41.4 -90.235)" fill="#344154"/>
        <path id="Trazado_596202" data-name="Trazado 596202" d="M10.77,92.135a.807.807,0,0,1-.619-.288l-1.935-2.3a.812.812,0,0,1-.179-.392l-2.2-13.592a1.075,1.075,0,0,0-.442-.713,1.1,1.1,0,0,0-.845-.177,1.261,1.261,0,0,0-1.014,1.359l1.814,13.86a.809.809,0,0,1-1.6.21L1.928,76.232a2.87,2.87,0,0,1,2.324-3.149,2.711,2.711,0,0,1,2.071.445,2.679,2.679,0,0,1,1.108,1.777L9.6,88.677,11.389,90.8a.809.809,0,0,1-.619,1.33" transform="translate(-1.347 -51.55)" fill="#344154"/>
        <path id="Trazado_596203" data-name="Trazado 596203" d="M183.5,90.933a.809.809,0,0,1-.637-1.306l1.477-1.893c.219-1.244.569-3.272.931-5.365.422-2.444.86-4.976,1.121-6.451a2.93,2.93,0,0,1,1.234-1.923,2.977,2.977,0,0,1,2.276-.459l2.122.42a.809.809,0,1,1-.314,1.587l-2.122-.42a1.364,1.364,0,0,0-1.047.207,1.321,1.321,0,0,0-.555.87c-.261,1.473-.7,4-1.12,6.444-.382,2.21-.751,4.349-.967,5.569a.8.8,0,0,1-.159.357l-1.6,2.052a.806.806,0,0,1-.638.312" transform="translate(-128.945 -51.861)" fill="#344154"/>
        <path id="Trazado_596204" data-name="Trazado 596204" d="M172.753,91.7a.809.809,0,0,1-.659-1.278l1.487-2.091c.272-1.47.528-3.05.8-4.718.244-1.508.5-3.067.786-4.7a2.93,2.93,0,0,1,1.235-1.923,2.976,2.976,0,0,1,2.276-.459l1.149.228a.809.809,0,0,1-.314,1.587l-1.149-.227a1.371,1.371,0,0,0-1.047.206,1.324,1.324,0,0,0-.556.87c-.286,1.618-.538,3.171-.782,4.673-.283,1.744-.55,3.392-.838,4.931a.8.8,0,0,1-.136.32l-1.59,2.236a.808.808,0,0,1-.66.34" transform="translate(-121.361 -53.976)" fill="#344154"/>
        <path id="Trazado_596205" data-name="Trazado 596205" d="M153.237,156.559a.809.809,0,0,1-.809-.809v-7.989a.811.811,0,0,1,.074-.337c1.03-2.246,3.391-3.732,7.219-4.543.334-.071.671-.139,1.011-.207,2.234-.449,4.544-.913,6.128-2.355a10.879,10.879,0,0,0,2.172-3.176,51.765,51.765,0,0,0,2.86-6.819.694.694,0,0,0-.2-.77.73.73,0,0,0-.817-.107,6.679,6.679,0,0,0-3.266,2.947c-.094.2-.184.418-.275.633-.609,1.442-1.528,3.624-4.376,3.058a5.544,5.544,0,0,1-1.222-.427,9.849,9.849,0,0,0-10.45,1.671.809.809,0,0,1-1.089-1.2,11.51,11.51,0,0,1,12.211-1.947,4.017,4.017,0,0,0,.865.312c1.483.294,1.9-.517,2.57-2.1.1-.232.2-.462.3-.682a8.31,8.31,0,0,1,4.032-3.726,2.326,2.326,0,0,1,2.591.352,2.3,2.3,0,0,1,.663,2.5,53.418,53.418,0,0,1-2.95,7.032,12.259,12.259,0,0,1-2.526,3.641c-1.915,1.742-4.448,2.252-6.9,2.744-.333.067-.665.134-.993.2-3.2.677-5.164,1.817-6.01,3.482v7.8a.809.809,0,0,1-.809.809" transform="translate(-105.823 -90.167)" fill="#344154"/>
        <path id="Trazado_596206" data-name="Trazado 596206" d="M124.081,157.027a.809.809,0,0,1-.809-.809V141.4c0-.025,0-.05,0-.074a17.814,17.814,0,0,1,2.587-7.542c2.567-4.1,6.449-4.974,9.568-5.674.357-.08.709-.159,1.053-.241a.809.809,0,1,1,.376,1.574c-.351.084-.71.164-1.075.246-3.118.7-6.342,1.424-8.551,4.953a16.155,16.155,0,0,0-2.344,6.8v14.781a.809.809,0,0,1-.809.809" transform="translate(-87.007 -90.235)" fill="#344154"/>
        <path id="Trazado_596207" data-name="Trazado 596207" d="M196.258,92.135a.809.809,0,0,1-.619-1.33l1.791-2.128,2.165-13.371a2.682,2.682,0,0,1,1.109-1.778,2.712,2.712,0,0,1,2.071-.444,2.868,2.868,0,0,1,2.326,3.137L203.283,90.1a.809.809,0,0,1-1.6-.21l1.816-13.872a1.258,1.258,0,0,0-1.015-1.348,1.1,1.1,0,0,0-.845.177,1.078,1.078,0,0,0-.442.715l-2.2,13.59a.81.81,0,0,1-.18.392l-1.935,2.3a.806.806,0,0,1-.619.288" transform="translate(-137.951 -51.55)" fill="#344154"/>
      </g>
    </g>
  </g>
</svg>
