<svg xmlns="http://www.w3.org/2000/svg" width="66.973" height="66.974" viewBox="0 0 66.973 66.974">
  <g id="Grupo_874377" data-name="Grupo 874377" transform="translate(-1040 -6271)">
    <path id="Trazado_595765" data-name="Trazado 595765" d="M88.071,147.554a33.487,33.487,0,1,1,33.64-33.333,33.525,33.525,0,0,1-33.64,33.333" transform="translate(985.263 6190.419)" fill="#fff"/>
    <path id="Trazado_596970" data-name="Trazado 596970" d="M7.676-16.719h3.008a4.238,4.238,0,0,0,3.184-1.074A3.936,3.936,0,0,0,14.9-20.645a3.48,3.48,0,0,0-1.025-2.676,3.974,3.974,0,0,0-2.822-.957,4.165,4.165,0,0,0-2.715.889,2.841,2.841,0,0,0-1.094,2.314H1.6a6.942,6.942,0,0,1,1.2-3.994,8,8,0,0,1,3.359-2.764,11.212,11.212,0,0,1,4.756-1,10.633,10.633,0,0,1,7.07,2.158,7.364,7.364,0,0,1,2.559,5.947,5.984,5.984,0,0,1-1.191,3.594,7.74,7.74,0,0,1-3.125,2.52,7.066,7.066,0,0,1,3.584,2.578A6.993,6.993,0,0,1,21-7.969a7.486,7.486,0,0,1-2.764,6.074A11.112,11.112,0,0,1,10.918.391,10.536,10.536,0,0,1,3.955-1.855,7.335,7.335,0,0,1,1.25-7.793H6.895A3.27,3.27,0,0,0,8.1-5.176,4.426,4.426,0,0,0,11.055-4.16a4.447,4.447,0,0,0,3.154-1.064,3.675,3.675,0,0,0,1.143-2.822q0-4.258-4.687-4.258H7.676Z" transform="translate(1061 6318)" fill="#ea3584"/>
  </g>
</svg>
