<svg xmlns="http://www.w3.org/2000/svg" xmlns:xlink="http://www.w3.org/1999/xlink" width="85" height="85" viewBox="0 0 85 85">
  <defs>
    <clipPath id="clip-path">
      <rect id="Rect치ngulo_293143" data-name="Rect치ngulo 293143" width="57.477" height="63.167" fill="none"/>
    </clipPath>
  </defs>
  <g id="Grupo_873929" data-name="Grupo 873929" transform="translate(-810 -3926)">
    <rect id="Rect치ngulo_293144" data-name="Rect치ngulo 293144" width="85" height="85" rx="42.5" transform="translate(810 3926)" fill="#d4f4e1"/>
    <g id="Grupo_873910" data-name="Grupo 873910" transform="translate(821.645 3936)">
      <g id="Grupo_873909" data-name="Grupo 873909" clip-path="url(#clip-path)">
        <path id="Trazado_595036" data-name="Trazado 595036" d="M156.754,118.64a.571.571,0,0,1-.286-1.065l15.2-8.773-8.854-5.052a.571.571,0,0,1,.566-.992l9.718,5.544a.571.571,0,0,1,0,.99l-16.057,9.271a.569.569,0,0,1-.285.076" transform="translate(-123.767 -81.372)" fill="#344154"/>
        <path id="Trazado_595037" data-name="Trazado 595037" d="M54.471,119.331a.569.569,0,0,1-.285-.076l-16.017-9.248a.571.571,0,0,1,0-.99l9.39-5.357a.571.571,0,0,1,.566.992L39.6,109.516l15.156,8.75a.571.571,0,0,1-.286,1.065" transform="translate(-30.02 -82.086)" fill="#344154"/>
        <path id="Trazado_595038" data-name="Trazado 595038" d="M58.758,212.8a.571.571,0,0,1-.285-.076L38.167,201a.571.571,0,0,1-.285-.494V189.391a.571.571,0,1,1,1.142,0v10.784l19.734,11.393,19.734-11.393v-10.48a.571.571,0,0,1,1.142,0V200.5a.571.571,0,0,1-.285.494L59.043,212.721a.571.571,0,0,1-.285.076" transform="translate(-30.02 -149.631)" fill="#344154"/>
        <path id="Trazado_595039" data-name="Trazado 595039" d="M136.286,221.838a.571.571,0,0,1-.571-.571V210.733a.571.571,0,0,1,1.142,0v10.534a.571.571,0,0,1-.571.571" transform="translate(-107.548 -166.543)" fill="#344154"/>
        <path id="Trazado_595040" data-name="Trazado 595040" d="M144.148,146.8a.571.571,0,0,1-.285-.076L136,142.184a.571.571,0,0,1,.571-.989l7.577,4.375,19.164-11.064-7.006-4.045a.571.571,0,1,1,.571-.989l7.863,4.539a.571.571,0,0,1,0,.989l-20.305,11.723a.571.571,0,0,1-.285.076" transform="translate(-107.547 -102.54)" fill="#344154"/>
        <path id="Trazado_595041" data-name="Trazado 595041" d="M20.875,146.8a.571.571,0,0,1-.285-.076L.284,135a.571.571,0,0,1,0-.989l7.863-4.539a.571.571,0,1,1,.571.989l-7.006,4.045L20.875,145.57l7.577-4.375a.571.571,0,0,1,.571.989l-7.863,4.539a.571.571,0,0,1-.285.076" transform="translate(0.001 -102.54)" fill="#344154"/>
        <path id="Trazado_595042" data-name="Trazado 595042" d="M100.554,51.31a10.155,10.155,0,1,1,7.059-17.456.571.571,0,0,1-.794.82,9.014,9.014,0,1,0,2.749,6.48,9.08,9.08,0,0,0-.195-1.871.571.571,0,0,1,1.117-.236,10.164,10.164,0,0,1-9.936,12.263" transform="translate(-71.636 -24.565)" fill="#344154"/>
        <path id="Trazado_595043" data-name="Trazado 595043" d="M137.149,47.592a.571.571,0,0,1-.275-1.071l14.652-8.048a.571.571,0,0,1,.549,1l-14.652,8.048a.567.567,0,0,1-.274.071" transform="translate(-108.231 -30.432)" fill="#344154"/>
        <path id="Trazado_595044" data-name="Trazado 595044" d="M211.932,24.668a.563.563,0,0,1-.147-.02L207.6,23.535a.571.571,0,0,1-.4-.7l1.115-4.188a.571.571,0,1,1,1.1.293l-.967,3.636,3.636.967a.571.571,0,0,1-.146,1.122" transform="translate(-164.174 -14.442)" fill="#344154"/>
        <path id="Trazado_595045" data-name="Trazado 595045" d="M227.964,15.557a.563.563,0,0,1-.147-.02l-4.187-1.114a.571.571,0,0,1-.4-.7l1.114-4.187a.571.571,0,0,1,1.1.293l-.967,3.636,3.636.967a.571.571,0,0,1-.146,1.122" transform="translate(-176.879 -7.222)" fill="#344154"/>
        <path id="Trazado_595046" data-name="Trazado 595046" d="M243.993,6.443a.564.564,0,0,1-.147-.02L239.658,5.31a.571.571,0,0,1-.4-.7L240.368.424a.571.571,0,0,1,1.1.293L240.5,4.354l3.636.967a.571.571,0,0,1-.146,1.122" transform="translate(-189.582 0)" fill="#344154"/>
        <path id="Trazado_595047" data-name="Trazado 595047" d="M127.958,74.314a.571.571,0,0,1-.16-.023l-3.453-1.007a.571.571,0,0,1-.4-.673l.755-3.352a.571.571,0,0,1,1.114.251l-.637,2.829,2.938.857a.571.571,0,0,1-.16,1.119" transform="translate(-98.211 -54.531)" fill="#344154"/>
        <path id="Trazado_595048" data-name="Trazado 595048" d="M181.351,148.115l-2.678-1.546-15.872,9.01,2.812,1.623Z" transform="translate(-129.011 -116.148)" fill="#6daa85"/>
        <path id="Trazado_595049" data-name="Trazado 595049" d="M25.917,148.115l2.678-1.546,15.872,9.01L41.656,157.2Z" transform="translate(-20.538 -116.148)" fill="#6daa85"/>
      </g>
    </g>
  </g>
</svg>
