<svg xmlns="http://www.w3.org/2000/svg" xmlns:xlink="http://www.w3.org/1999/xlink" width="105" height="105" viewBox="0 0 105 105">
  <defs>
    <clipPath id="clip-path">
      <rect id="Rectángulo_293516" data-name="Rectángulo 293516" width="55.734" height="62.632" fill="none"/>
    </clipPath>
  </defs>
  <g id="Grupo_874289" data-name="Grupo 874289" transform="translate(-748 -4003)">
    <circle id="Elipse_4853" data-name="Elipse 4853" cx="52.5" cy="52.5" r="52.5" transform="translate(748 4003)" fill="#f6f6f6"/>
    <g id="Grupo_874280" data-name="Grupo 874280" transform="translate(773 4024.371)">
      <g id="Grupo_874279" data-name="Grupo 874279" clip-path="url(#clip-path)">
        <path id="Trazado_596160" data-name="Trazado 596160" d="M52.223,40.806H7.1a4.675,4.675,0,0,1-4.67-4.67V4.67A4.675,4.675,0,0,1,7.1,0H52.273A4.675,4.675,0,0,1,56.892,4.67V36.136a4.675,4.675,0,0,1-4.669,4.67M7.1,1.439A3.234,3.234,0,0,0,3.867,4.67V36.136A3.234,3.234,0,0,0,7.1,39.367H52.223a3.234,3.234,0,0,0,3.23-3.231V4.67a3.234,3.234,0,0,0-3.23-3.231Z" transform="translate(-1.793 0)" fill="#344154"/>
        <path id="Trazado_596161" data-name="Trazado 596161" d="M75.447,158H43.579a.72.72,0,0,1-.669-.984l2.41-6.092a.72.72,0,1,1,1.338.53l-2.021,5.108H74.389l-2.021-5.108a.72.72,0,1,1,1.339-.53l2.41,6.092a.72.72,0,0,1-.669.984" transform="translate(-31.646 -111.1)" fill="#344154"/>
        <path id="Trazado_596162" data-name="Trazado 596162" d="M53.133,203.964H2.6a2.6,2.6,0,0,1-2.272-3.857l4.614-8.325a.719.719,0,0,1,.629-.371H50.162a.72.72,0,0,1,.629.371l4.614,8.325a2.6,2.6,0,0,1-2.272,3.857M6,192.85,1.587,200.8a1.159,1.159,0,0,0,1.013,1.72H53.133a1.159,1.159,0,0,0,1.013-1.72l-4.409-7.955Z" transform="translate(0 -141.332)" fill="#344154"/>
        <path id="Trazado_596163" data-name="Trazado 596163" d="M16.081,210.421l3.029-5.465H60.372l3.029,5.465Z" transform="translate(-11.874 -151.333)" fill="#6826cc"/>
        <path id="Trazado_596164" data-name="Trazado 596164" d="M155.232,44.81a.72.72,0,0,1-.63-1.066l5.931-10.8a.719.719,0,1,1,1.261.693l-5.931,10.8a.719.719,0,0,1-.631.373" transform="translate(-114.088 -24.051)" fill="#344154"/>
        <path id="Trazado_596165" data-name="Trazado 596165" d="M176.824,60.693a2.643,2.643,0,0,1-2.64-2.639v-1.33a2.64,2.64,0,0,1,5.279,0v1.33a2.643,2.643,0,0,1-2.64,2.639m0-5.17a1.2,1.2,0,0,0-1.2,1.2v1.33a1.2,1.2,0,0,0,2.4,0v-1.33a1.2,1.2,0,0,0-1.2-1.2" transform="translate(-128.612 -39.934)" fill="#344154"/>
        <path id="Trazado_596166" data-name="Trazado 596166" d="M145.984,39.183a2.643,2.643,0,0,1-2.639-2.64v-1.33a2.639,2.639,0,0,1,5.279,0v1.33a2.643,2.643,0,0,1-2.64,2.64m0-5.17a1.2,1.2,0,0,0-1.2,1.2v1.33a1.2,1.2,0,1,0,2.4,0v-1.33a1.2,1.2,0,0,0-1.2-1.2" transform="translate(-105.842 -24.052)" fill="#344154"/>
        <path id="Trazado_596167" data-name="Trazado 596167" d="M95.91,53.751a.719.719,0,0,1-.719-.719V24.047H87.757V53.032a.719.719,0,1,1-1.439,0v-29.7a.719.719,0,0,1,.719-.719H95.91a.719.719,0,0,1,.719.719v29.7a.719.719,0,0,1-.719.719" transform="translate(-63.735 -16.693)" fill="#344154"/>
        <path id="Trazado_596168" data-name="Trazado 596168" d="M53.126,81.4a.719.719,0,0,1-.719-.719V60.923a.72.72,0,0,1,.719-.719H62a.719.719,0,1,1,0,1.439H53.846V80.679a.719.719,0,0,1-.719.719" transform="translate(-38.696 -44.453)" fill="#344154"/>
        <path id="Trazado_596169" data-name="Trazado 596169" d="M129.821,103.251a.719.719,0,0,1-.719-.719V91.24h-8.153a.719.719,0,0,1,0-1.439h8.872a.719.719,0,0,1,.719.719v12.011a.719.719,0,0,1-.719.719" transform="translate(-88.773 -66.306)" fill="#344154"/>
      </g>
    </g>
  </g>
</svg>
