<svg xmlns="http://www.w3.org/2000/svg" xmlns:xlink="http://www.w3.org/1999/xlink" width="505" height="284" viewBox="0 0 505 284">
  <defs>
    <clipPath id="clip-path">
      <rect id="Rectángulo_293509" data-name="Rectángulo 293509" width="505" height="284" transform="translate(180 3277)" fill="#fff" stroke="#707070" stroke-width="1"/>
    </clipPath>
    <clipPath id="clip-path-2">
      <rect id="Rectángulo_293508" data-name="Rectángulo 293508" width="436.5" height="291.723" fill="none"/>
    </clipPath>
    <clipPath id="clip-path-4">
      <rect id="Rectángulo_293505" data-name="Rectángulo 293505" width="16.909" height="61.13" fill="none"/>
    </clipPath>
    <clipPath id="clip-path-5">
      <rect id="Rectángulo_293506" data-name="Rectángulo 293506" width="16.911" height="61.13" fill="none"/>
    </clipPath>
  </defs>
  <g id="Enmascarar_grupo_97" data-name="Enmascarar grupo 97" transform="translate(-180 -3277)" clip-path="url(#clip-path)">
    <g id="Grupo_874276" data-name="Grupo 874276" transform="translate(220 3288.824)">
      <g id="Grupo_874275" data-name="Grupo 874275" clip-path="url(#clip-path-2)">
        <g id="Grupo_874274" data-name="Grupo 874274">
          <g id="Grupo_874273" data-name="Grupo 874273" clip-path="url(#clip-path-2)">
            <path id="Trazado_596095" data-name="Trazado 596095" d="M133.16,308.664,7.8,313.826s18.3-57.684,20.179-88.686c1.109-18.329-8.6-32.366-17.61-47.038-13.883-22.619-13.979-51.413.629-73.57.126-.192.253-.383.38-.573A44.737,44.737,0,0,1,42.391,84.645a225.618,225.618,0,0,1,36.144-2.167A193.4,193.4,0,0,1,101,84.276,48.747,48.747,0,0,1,137.191,109.5c3.925,7.331,8.214,17.726,12.047,26.882a15.564,15.564,0,0,1-1.846,15.273,7.622,7.622,0,0,0,.417,9.6c7.605,8.546,13.576,16.106,18.4,24.187,2.173,3.965-2.425,4.862-6.947,5.6a4.862,4.862,0,0,0-3.953,5.889l.386,1.684a13.672,13.672,0,0,1-4.506,3.415,8.325,8.325,0,0,1,3,5.148l-3.213,3.6a8.134,8.134,0,0,0-.961,9.26A18.181,18.181,0,0,1,152,228.667a8.149,8.149,0,0,1-6.1,7.922,125.28,125.28,0,0,1-22.241,3.166,9.474,9.474,0,0,0-8.887,8.84l-.375,5.964-4.18,16.058c-2.31,10.246,12.884,24.774,22.948,38.047" transform="translate(0 -22.103)" fill="#dbd5e5"/>
            <path id="Trazado_596096" data-name="Trazado 596096" d="M5.92,115.672l138.218,2.977.785-9.989C148.163,57.813,59.175,77.24,18.2,88.2Z" transform="translate(-1.588 -20.18)" fill="#dbd5e5"/>
            <path id="Trazado_596097" data-name="Trazado 596097" d="M187.807,88.707a.353.353,0,0,0-.553.427c2.853,4.723,4.347,9.452,2.012,14.812a64.707,64.707,0,0,1-4.417,7.949c-1.712,2.774-3.531,5.883-6.365,7.668-2.325,1.464-5.1,1.682-7.586,2.85-2.289,1.077-2.388,5.127,0,6.171,9.5,4.152,16.744-5.1,19.988-13.04,4.039-9.885,4.4-18.728-3.078-26.836" transform="translate(-45.359 -23.76)" fill="#dbd5e5"/>
            <path id="Trazado_596098" data-name="Trazado 596098" d="M194.913,117.1c-2.223,4.382-6.189,8.276-10.956,9.735-5.257,1.611-8.827-1.439-13.774-1.412-2.4.013-4.47,2.944-2.934,5.112,3.938,5.557,12.65,4.466,18.117,1.658,5.883-3.021,9.1-8.35,11.123-14.429a.867.867,0,0,0-1.577-.664" transform="translate(-44.71 -31.289)" fill="#dbd5e5"/>
            <rect id="Rectángulo_293503" data-name="Rectángulo 293503" width="47.415" height="4.087" transform="translate(109.744 132.502)" fill="#40495e"/>
            <rect id="Rectángulo_293504" data-name="Rectángulo 293504" width="27.591" height="3.209" transform="matrix(0.111, -0.994, 0.994, 0.111, 153.162, 155.434)" fill="#40495e"/>
            <path id="Trazado_596099" data-name="Trazado 596099" d="M101.8,153.5l-.413-1.127-2.065.305a10.914,10.914,0,0,0-.9-1.548l1.29-1.642-.774-.918-1.837.993h0a11.045,11.045,0,0,0-1.373-1.147h0l.651-1.984-1.041-.6L93.955,147.4h0a11.068,11.068,0,0,0-1.682-.611L92.2,144.7l-1.183-.206-.768,1.94a10.927,10.927,0,0,0-1.791.007h0l-.777-1.938-1.181.211-.059,2.088h0a10.936,10.936,0,0,0-1.682.613l-1.392-1.554-1.038.6.659,1.98a11.069,11.069,0,0,0-1.367,1.156h0l-1.842-.985-.769.921,1.3,1.637h0a11.075,11.075,0,0,0-.891,1.551h0l-2.067-.3-.408,1.129,1.779,1.094a10.964,10.964,0,0,0-.307,1.763l-2.043.429,0,1.2,2.046.42h0c.029.295.066.591.119.887s.121.587.2.874h0l-1.775,1.1.413,1.127,2.065-.305a10.952,10.952,0,0,0,.9,1.548l-1.29,1.642.774.918,1.837-.994h0a11.043,11.043,0,0,0,1.373,1.148h0l-.651,1.985,1.041.6,1.386-1.562h0a10.987,10.987,0,0,0,1.682.61l.067,2.086,1.183.206.768-1.94a10.916,10.916,0,0,0,1.79-.007h0l.777,1.939,1.181-.211.059-2.088h0A10.99,10.99,0,0,0,94,167.413l1.392,1.554,1.038-.6-.659-1.98a11.07,11.07,0,0,0,1.367-1.156h0l1.841.985.77-.921-1.3-1.637h0a11.075,11.075,0,0,0,.891-1.551h0l2.067.3.408-1.128-1.779-1.094a10.964,10.964,0,0,0,.307-1.763l2.043-.429,0-1.2-2.045-.42h0c-.029-.295-.066-.591-.119-.887s-.121-.587-.2-.874h0Zm-4.43,2.485a8.116,8.116,0,1,1-9.416-6.563,8.116,8.116,0,0,1,9.416,6.563" transform="translate(-20.481 -38.75)" fill="#ebe3f9"/>
            <path id="Trazado_596100" data-name="Trazado 596100" d="M120.937,105.53l-.613-1.673-3.066.453a16.24,16.24,0,0,0-1.334-2.3h0l1.914-2.438-1.148-1.362-2.727,1.474,0,0a16.407,16.407,0,0,0-2.037-1.7h0l.966-2.946-1.545-.888-2.058,2.318h0a16.246,16.246,0,0,0-2.5-.907l-.1-3.1-1.755-.306-1.14,2.88a16.28,16.28,0,0,0-2.657.01v0l-1.153-2.877-1.753.313-.087,3.1h0a16.355,16.355,0,0,0-2.5.91l-2.067-2.307-1.541.894.978,2.94a16.342,16.342,0,0,0-2.029,1.715h0l-2.734-1.463L87.11,99.641l1.925,2.43h0a16.468,16.468,0,0,0-1.322,2.3h0l-3.069-.44-.605,1.675,2.64,1.625a16.156,16.156,0,0,0-.456,2.618l-3.034.636,0,1.781,3.037.624h0c.042.438.1.877.176,1.317s.179.872.291,1.3h0l-2.634,1.636.613,1.673,3.067-.453a16.236,16.236,0,0,0,1.333,2.3L87.16,123.1l1.148,1.362,2.727-1.475h0a16.516,16.516,0,0,0,2.037,1.7h0l-.966,2.946,1.545.888,2.059-2.318h0a16.218,16.218,0,0,0,2.5.907l.1,3.1,1.755.306,1.14-2.88a16.289,16.289,0,0,0,2.658-.01h0l1.154,2.878,1.753-.313.086-3.1h0a16.33,16.33,0,0,0,2.5-.91l2.066,2.307,1.541-.894-.978-2.939a16.349,16.349,0,0,0,2.03-1.715h0l2.733,1.462,1.142-1.367-1.925-2.429h0a16.464,16.464,0,0,0,1.322-2.3h0l3.069.44.606-1.675-2.64-1.625a16.322,16.322,0,0,0,.456-2.617l3.033-.637,0-1.781-3.036-.624h0c-.042-.438-.1-.877-.176-1.317s-.179-.872-.291-1.3h0Zm-5.528.537-9.053,3.317a4.546,4.546,0,0,0-.247-.426l7.372-6.213a13.854,13.854,0,0,1,1.928,3.323m-9.687,4.695a3.274,3.274,0,1,1-3.8-2.647,3.276,3.276,0,0,1,3.8,2.647M89.59,116.607l9.053-3.317a4.3,4.3,0,0,0,.247.426l-7.372,6.213a13.853,13.853,0,0,1-1.928-3.322m-.367-9.531,9.067,3.278a4.278,4.278,0,0,0-.084.485l-9.642.02a13.82,13.82,0,0,1,.659-3.784m23.6-5.105-7.375,6.215a4.291,4.291,0,0,0-.377-.315l4.805-8.363a13.977,13.977,0,0,1,2.946,2.463M109,99.006l-4.8,8.359a4.4,4.4,0,0,0-.463-.166l1.655-9.5A13.926,13.926,0,0,1,109,99.006m-4.609-1.483-1.654,9.5a4.41,4.41,0,0,0-.492,0l-1.694-9.489a13.891,13.891,0,0,1,3.84-.012m-4.838.19,1.694,9.489a4.443,4.443,0,0,0-.461.171l-4.84-8.342a13.942,13.942,0,0,1,3.607-1.317m-4.484,1.827,4.84,8.343a4.313,4.313,0,0,0-.376.315l-7.4-6.181a13.927,13.927,0,0,1,2.934-2.477m-3.586,3.254,7.4,6.184a4.3,4.3,0,0,0-.244.426l-9.07-3.279a14,14,0,0,1,1.912-3.331m-2.709,11a14.191,14.191,0,0,1-.2-1.914l9.644-.021c.01.081.016.162.031.244s.037.16.055.239l-9.054,3.318a14.006,14.006,0,0,1-.471-1.866m3.4,6.915,7.375-6.215a4.3,4.3,0,0,0,.376.315l-4.8,8.363a14,14,0,0,1-2.947-2.463M96,123.668l4.8-8.359a4.4,4.4,0,0,0,.463.166l-1.654,9.5A13.921,13.921,0,0,1,96,123.668m4.609,1.483,1.655-9.5a4.24,4.24,0,0,0,.492,0l1.694,9.489a13.9,13.9,0,0,1-3.841.012m4.838-.191-1.694-9.488a4.454,4.454,0,0,0,.462-.171l4.84,8.341a13.884,13.884,0,0,1-3.608,1.317m4.484-1.826-4.84-8.343a4.215,4.215,0,0,0,.377-.315l7.4,6.18a13.934,13.934,0,0,1-2.935,2.478m3.587-3.254-7.4-6.184a4.443,4.443,0,0,0,.244-.425l9.07,3.279a14.039,14.039,0,0,1-1.912,3.331m2.258-4.283-9.067-3.278a4.311,4.311,0,0,0,.085-.485l9.641-.021a13.848,13.848,0,0,1-.659,3.784m.449-6.712a14.058,14.058,0,0,1,.2,1.914l-9.643.021c-.01-.081-.016-.162-.031-.244s-.037-.16-.056-.239l9.054-3.318a14.017,14.017,0,0,1,.471,1.867" transform="translate(-22.309 -24.715)" fill="#ebe3f9"/>
            <path id="Trazado_596101" data-name="Trazado 596101" d="M62.516,176.456l-.667-1.82-3.337.493a17.651,17.651,0,0,0-1.451-2.5h0l2.084-2.652L57.9,168.493l-2.968,1.6,0,0a17.938,17.938,0,0,0-2.217-1.854h0l1.051-3.205-1.68-.965L49.84,166.6v0a17.734,17.734,0,0,0-2.718-.987l-.108-3.369-1.91-.333-1.24,3.134a17.669,17.669,0,0,0-2.891.011v0l-1.255-3.131-1.908.341-.094,3.372v0a17.763,17.763,0,0,0-2.717.99l-2.247-2.51-1.677.973,1.064,3.2a17.759,17.759,0,0,0-2.209,1.866h0l-2.975-1.592-1.243,1.488,2.1,2.643h0a17.851,17.851,0,0,0-1.439,2.507h0l-3.34-.479-.659,1.823,2.873,1.767a17.668,17.668,0,0,0-.5,2.848l-3.3.692,0,1.939,3.3.678h0c.046.476.106.954.192,1.433s.195.948.316,1.411h0l-2.866,1.78.667,1.821,3.337-.493a17.7,17.7,0,0,0,1.451,2.5l-2.084,2.652,1.249,1.483,2.968-1.6h0A17.865,17.865,0,0,0,32.2,197.3h0l-1.051,3.206,1.68.965,2.24-2.523h0a17.735,17.735,0,0,0,2.718.987l.108,3.369,1.91.332,1.24-3.133a17.762,17.762,0,0,0,2.892-.012h0l1.256,3.132,1.908-.341.094-3.372h0a17.681,17.681,0,0,0,2.717-.99l2.248,2.51,1.677-.973-1.064-3.2a17.707,17.707,0,0,0,2.209-1.866h0l2.974,1.591L59.2,195.5l-2.1-2.644h0a17.9,17.9,0,0,0,1.439-2.507h0l3.339.478.659-1.822L59.67,187.24h0a17.659,17.659,0,0,0,.5-2.848l3.3-.693,0-1.938-3.3-.678h0c-.046-.476-.106-.954-.192-1.434s-.195-.948-.316-1.411h0Zm-19.235,10.95a4.7,4.7,0,1,1,3.8-5.459,4.71,4.71,0,0,1-3.8,5.459m11.991-12.749-9.062,1.618a.74.74,0,0,1-.783-.38l-4.395-8.221a15.176,15.176,0,0,1,14.239,6.983m-16.711-6.542-1.277,9.234a.741.741,0,0,1-.6.628L27.618,179.6a15.177,15.177,0,0,1,10.942-11.48M27.519,185.442a15.224,15.224,0,0,1-.224-3.272l8.251,4a.741.741,0,0,1,.411.768l-1.229,8.887a15.132,15.132,0,0,1-7.209-10.385m17.6,12.268A15.1,15.1,0,0,1,37.2,197l6.205-6.454a.74.74,0,0,1,.857-.153l8.056,3.907a15.1,15.1,0,0,1-7.192,3.405m12.268-17.6a15.133,15.133,0,0,1-3.169,12.238l-4.229-7.913a.74.74,0,0,1,.119-.862l6.357-6.611a15.261,15.261,0,0,1,.922,3.147" transform="translate(-5.75 -43.419)" fill="#6826cc"/>
            <path id="Trazado_596102" data-name="Trazado 596102" d="M160.846,104.2l-.394-1.077-1.974.292a10.416,10.416,0,0,0-.858-1.479h0l1.232-1.569-.739-.877-1.755.949h0a10.479,10.479,0,0,0-1.311-1.1h0l.621-1.9-.994-.571-1.325,1.491h0a10.509,10.509,0,0,0-1.608-.584l-.064-1.993-1.13-.2-.733,1.853a10.44,10.44,0,0,0-1.711.007h0l-.742-1.852-1.129.2-.056,1.995h0a10.422,10.422,0,0,0-1.607.586l-1.33-1.485-.992.575.629,1.892a10.547,10.547,0,0,0-1.306,1.1h0l-1.759-.942-.735.88,1.24,1.563h0a10.543,10.543,0,0,0-.85,1.483h0l-1.975-.283-.389,1.079,1.7,1.045a10.424,10.424,0,0,0-.293,1.685l-1.953.41,0,1.146,1.955.4h0c.027.282.063.564.113.847s.115.561.187.834h0l-1.695,1.053.394,1.077,1.973-.291a10.5,10.5,0,0,0,.858,1.479l-1.232,1.569.739.877,1.755-.949h0a10.606,10.606,0,0,0,1.311,1.1h0l-.621,1.9.994.572,1.325-1.492h0a10.479,10.479,0,0,0,1.608.583l.064,1.993,1.13.2.733-1.853a10.514,10.514,0,0,0,1.71-.007h0l.742,1.852,1.128-.2.056-1.994h0a10.45,10.45,0,0,0,1.607-.586l1.33,1.485.992-.575-.629-1.892a10.494,10.494,0,0,0,1.306-1.1h0l1.759.941.735-.88-1.239-1.563h0a10.618,10.618,0,0,0,.85-1.483h0l1.974.282.39-1.078-1.7-1.046a10.415,10.415,0,0,0,.293-1.684l1.953-.41,0-1.147-1.955-.4h0c-.028-.282-.063-.564-.113-.847s-.116-.561-.187-.835h0Zm-9.126,3.249a2.783,2.783,0,1,1-3.229-2.25,2.786,2.786,0,0,1,3.229,2.25M147.4,99.109a8.931,8.931,0,0,1,4.628.4l-3.846,3.982-4.986-2.4a8.918,8.918,0,0,1,4.2-1.973m-7.256,10.411a8.922,8.922,0,0,1,.4-4.628l3.98,3.847-2.4,4.986a8.918,8.918,0,0,1-1.973-4.2m10.411,7.256a8.927,8.927,0,0,1-4.627-.4l3.846-3.981,4.986,2.4a8.925,8.925,0,0,1-4.2,1.973m7.256-10.411a8.927,8.927,0,0,1-.4,4.627l-3.981-3.846,2.4-4.987a8.931,8.931,0,0,1,1.973,4.205" transform="translate(-36.619 -25.637)" fill="#fff"/>
            <path id="Trazado_596103" data-name="Trazado 596103" d="M117.936,194.712l-.613-1.673-3.066.453a16.242,16.242,0,0,0-1.334-2.3l1.915-2.438-1.148-1.362-2.728,1.474,0,0a16.458,16.458,0,0,0-2.037-1.7h0l.966-2.946-1.545-.888-2.058,2.318h0a16.276,16.276,0,0,0-2.5-.907l-.1-3.1-1.755-.306-1.14,2.88a16.279,16.279,0,0,0-2.657.01h0l-1.153-2.878-1.754.313-.086,3.1h0a16.39,16.39,0,0,0-2.5.91l-2.066-2.307-1.541.894.978,2.94a16.342,16.342,0,0,0-2.029,1.715h0l-2.734-1.463-1.142,1.367,1.925,2.43h0a16.4,16.4,0,0,0-1.322,2.3h0l-3.069-.44-.606,1.675,2.641,1.625a16.156,16.156,0,0,0-.456,2.618l-3.034.636,0,1.781,3.037.624h0c.042.438.1.877.176,1.317s.179.872.291,1.3h0l-2.634,1.636L81.674,208l3.067-.453a16.166,16.166,0,0,0,1.333,2.3l-1.915,2.438,1.148,1.362,2.727-1.475h0a16.46,16.46,0,0,0,2.037,1.7h0l-.966,2.946,1.545.888,2.058-2.318h0a16.33,16.33,0,0,0,2.5.907l.1,3.1,1.755.306,1.14-2.88a16.29,16.29,0,0,0,2.658-.01h0l1.153,2.878,1.754-.313.086-3.1h0a16.414,16.414,0,0,0,2.5-.91l2.066,2.307,1.541-.894-.978-2.94a16.342,16.342,0,0,0,2.029-1.715h0l2.733,1.462,1.142-1.367-1.925-2.43h0a16.463,16.463,0,0,0,1.322-2.3h0l3.069.44.606-1.675-2.64-1.625h0a16.241,16.241,0,0,0,.457-2.617l3.033-.637,0-1.781-3.037-.624h0c-.042-.438-.1-.877-.176-1.317s-.179-.872-.291-1.3h0Zm-3.728,3.181A14.942,14.942,0,1,1,96.871,185.81a14.959,14.959,0,0,1,17.336,12.083" transform="translate(-21.504 -48.631)" fill="#ffe0f0"/>
            <path id="Trazado_596104" data-name="Trazado 596104" d="M98.853,188.308a14.24,14.24,0,1,0,16.522,11.515,14.257,14.257,0,0,0-16.522-11.515m10.07,12.667A7.686,7.686,0,1,1,100,194.761a7.7,7.7,0,0,1,8.918,6.215m-.465-5.942a1.416,1.416,0,1,1,1.29,1.531,1.416,1.416,0,0,1-1.29-1.531m-3.917-4.456a1.416,1.416,0,1,1-.681,1.883,1.416,1.416,0,0,1,.681-1.883m-6.3-.018a1.416,1.416,0,1,1,.352,1.971,1.416,1.416,0,0,1-.352-1.971M94.3,192.405a1.416,1.416,0,1,1-1.531,1.29,1.415,1.415,0,0,1,1.531-1.29m-2.814,7.419a1.416,1.416,0,1,1,.681-1.883,1.416,1.416,0,0,1-.681,1.883m-2.252,3.65a1.416,1.416,0,1,1,.352,1.971,1.416,1.416,0,0,1-.352-1.971m5.018,6.147a1.416,1.416,0,1,1-1.29-1.531,1.416,1.416,0,0,1,1.29,1.531m3.917,4.456a1.416,1.416,0,1,1,.681-1.883,1.416,1.416,0,0,1-.681,1.883m6.3.018a1.416,1.416,0,1,1-.352-1.971,1.416,1.416,0,0,1,.352,1.971m3.935-1.846a1.415,1.415,0,1,1,1.531-1.29,1.416,1.416,0,0,1-1.531,1.29m2.814-7.419a1.416,1.416,0,1,1-.681,1.883,1.416,1.416,0,0,1,.681-1.883m2.253-3.65a1.416,1.416,0,1,1-.352-1.971,1.415,1.415,0,0,1,.352,1.971" transform="translate(-23.361 -50.439)" fill="#fff"/>
            <path id="Trazado_596105" data-name="Trazado 596105" d="M102.787,198.11a6.985,6.985,0,1,0,8.1,5.648,6.992,6.992,0,0,0-8.1-5.648M109.51,204a5.581,5.581,0,1,1-6.475-4.513A5.583,5.583,0,0,1,109.51,204" transform="translate(-26.021 -53.098)" fill="#ffd75e"/>
            <path id="Trazado_596106" data-name="Trazado 596106" d="M35.335,134.505l2.829-.323a16.212,16.212,0,0,0,2.671,3.164l-.8,2.738,2.112,1.472,2.291-1.7a16.225,16.225,0,0,0,3.893,1.411l.675,2.766,2.566.22,1.136-2.617a16.4,16.4,0,0,0,4.073-.727l1.972,2.062,2.332-1.093-.324-2.829a16.228,16.228,0,0,0,3.167-2.675l2.735.8,1.472-2.113-1.7-2.288a16.235,16.235,0,0,0,1.414-3.9l2.766-.671.219-2.566-2.616-1.132a16.43,16.43,0,0,0-.729-4.081l2.063-1.967-1.093-2.332-2.827.327a16.231,16.231,0,0,0-2.676-3.17l.8-2.735-2.112-1.472-2.288,1.7a16.223,16.223,0,0,0-3.9-1.414l-.671-2.765-2.566-.219L51.088,109a16.423,16.423,0,0,0-4.081.728l-1.968-2.062-2.332,1.093.327,2.826a16.271,16.271,0,0,0-3.167,2.673l-2.737-.8-1.472,2.113,1.7,2.291a16.236,16.236,0,0,0-1.411,3.893l-2.766.675-.219,2.566,2.616,1.137A16.461,16.461,0,0,0,36.3,130.2l-2.062,1.972Zm3.7-6.892a13.046,13.046,0,0,1,1.047-7.857l2.72,1.9a7.219,7.219,0,0,1,2.918,4.742c0,.018.006.035.01.053a7.217,7.217,0,0,1-1.1,5.457l-1.9,2.72a13.052,13.052,0,0,1-3.7-7.01m25.735-4.594a13.052,13.052,0,0,1-1.047,7.857L61,128.981a7.217,7.217,0,0,1-2.919-4.742c0-.018-.006-.035-.01-.053a7.221,7.221,0,0,1,1.1-5.457l1.9-2.719a13.056,13.056,0,0,1,3.7,7.01m-11.153-.162a3,3,0,1,1-4.174.745,3,3,0,0,1,4.174-.745m.583,15.327a13.055,13.055,0,0,1-7.858-1.046l1.9-2.72a7.22,7.22,0,0,1,4.741-2.918l.053-.01a7.218,7.218,0,0,1,5.459,1.1l2.72,1.9a13.051,13.051,0,0,1-7.01,3.7M49.6,112.45a13.055,13.055,0,0,1,7.858,1.046l-1.9,2.72a7.214,7.214,0,0,1-4.74,2.918l-.053.01a7.218,7.218,0,0,1-5.459-1.1l-2.72-1.9a13.051,13.051,0,0,1,7.01-3.7" transform="translate(-8.839 -28.528)" fill="#fff"/>
            <path id="Trazado_596108" data-name="Trazado 596108" d="M285.414,164.244H260.18a1.058,1.058,0,0,1-1.057-1.057V139.2h27.349v23.985a1.058,1.058,0,0,1-1.057,1.057" transform="translate(-69.489 -37.33)" fill="#40495e"/>
            <path id="Trazado_596109" data-name="Trazado 596109" d="M281.678,169.34c0,2.818-2.735,5.1-6.109,5.1s-6.109-2.285-6.109-5.1,2.735-5.1,6.109-5.1,6.109,2.285,6.109,5.1" transform="translate(-72.261 -44.043)" fill="#40495e"/>
            <path id="Trazado_596110" data-name="Trazado 596110" d="M259.041,145.54l27.468,6.4Z" transform="translate(-69.467 -39.029)" fill="#9fc2d7"/>
            <path id="Trazado_596111" data-name="Trazado 596111" d="M286.172,152.527a.935.935,0,0,1-.209-.023L258.495,146.1a.922.922,0,1,1,.419-1.8l27.468,6.406a.922.922,0,0,1-.209,1.82" transform="translate(-69.129 -38.69)" fill="#fff"/>
            <path id="Trazado_596112" data-name="Trazado 596112" d="M277.808,143.1l13.734,3.2Z" transform="translate(-74.5 -38.376)" fill="#9fc2d7"/>
            <path id="Trazado_596113" data-name="Trazado 596113" d="M291.2,146.889a.937.937,0,0,1-.209-.023l-13.735-3.2a.922.922,0,0,1,.419-1.8l13.735,3.2a.922.922,0,0,1-.209,1.82" transform="translate(-74.162 -38.038)" fill="#fff"/>
            <path id="Trazado_596114" data-name="Trazado 596114" d="M259.041,152.354l27.468,6.4Z" transform="translate(-69.467 -40.857)" fill="#9fc2d7"/>
            <path id="Trazado_596115" data-name="Trazado 596115" d="M286.172,159.342a.936.936,0,0,1-.209-.023l-27.468-6.406a.922.922,0,1,1,.419-1.8l27.468,6.406a.922.922,0,0,1-.209,1.82" transform="translate(-69.129 -40.518)" fill="#fff"/>
            <path id="Trazado_596116" data-name="Trazado 596116" d="M259.041,159.167l27.468,6.4Z" transform="translate(-69.467 -42.684)" fill="#9fc2d7"/>
            <path id="Trazado_596117" data-name="Trazado 596117" d="M286.172,166.155a.935.935,0,0,1-.209-.023l-27.468-6.4a.923.923,0,0,1,.419-1.8l27.468,6.4a.922.922,0,0,1-.209,1.82" transform="translate(-69.129 -42.346)" fill="#fff"/>
            <path id="Trazado_596118" data-name="Trazado 596118" d="M259.041,165.981l13.734,3.2Z" transform="translate(-69.467 -44.511)" fill="#9fc2d7"/>
            <path id="Trazado_596119" data-name="Trazado 596119" d="M272.437,169.767a.937.937,0,0,1-.209-.023l-13.733-3.2a.923.923,0,0,1,.419-1.8l13.733,3.2a.922.922,0,0,1-.209,1.82" transform="translate(-69.129 -44.173)" fill="#fff"/>
            <path id="Trazado_596120" data-name="Trazado 596120" d="M259.768.009c-24.9.482-45.875,20.581-45.454,46.228a52.173,52.173,0,0,0,23.525,42.621,8.809,8.809,0,0,1,4.01,6.285,14.15,14.15,0,0,0,1.052,3.512l.224.544a4.885,4.885,0,0,0,4.519,3.03h26.271a4.884,4.884,0,0,0,4.519-3.03l.221-.539a14.074,14.074,0,0,0,1.054-3.518,8.82,8.82,0,0,1,4.016-6.288A52.167,52.167,0,0,0,307.25,45.409C307.25,18.634,285.9-.5,259.768.009" transform="translate(-57.471 0)" fill="#ffce1d"/>
            <g id="Grupo_874269" data-name="Grupo 874269" transform="translate(181.606 36.99)" style="mix-blend-mode: screen;isolation: isolate">
              <g id="Grupo_874268" data-name="Grupo 874268">
                <g id="Grupo_874267" data-name="Grupo 874267" clip-path="url(#clip-path-4)">
                  <path id="Trazado_596121" data-name="Trazado 596121" d="M264.14,111.674a.92.92,0,0,1-.907-.78c-2.393-15.523-6.944-31.174-11.347-46.309-1.251-4.3-2.5-8.591-3.7-12.872a.92.92,0,0,1,1.772-.5c1.2,4.276,2.444,8.561,3.693,12.854,4.419,15.194,8.988,30.9,11.4,46.545a.922.922,0,0,1-.911,1.06" transform="translate(-248.153 -50.544)" fill="#b5daef"/>
                </g>
              </g>
            </g>
            <g id="Grupo_874272" data-name="Grupo 874272" transform="translate(208.08 36.99)" style="mix-blend-mode: screen;isolation: isolate">
              <g id="Grupo_874271" data-name="Grupo 874271">
                <g id="Grupo_874270" data-name="Grupo 874270" clip-path="url(#clip-path-5)">
                  <path id="Trazado_596122" data-name="Trazado 596122" d="M285.251,111.674a.951.951,0,0,1-.157-.012.921.921,0,0,1-.752-1.063c2.314-13.457,6.167-27.144,9.894-40.379,1.752-6.221,3.563-12.656,5.192-18.984a.92.92,0,1,1,1.782.458c-1.633,6.349-3.448,12.793-5.2,19.025-3.714,13.189-7.552,26.829-9.85,40.191a.923.923,0,0,1-.906.764" transform="translate(-284.328 -50.544)" fill="#b5daef"/>
                </g>
              </g>
            </g>
            <path id="Trazado_596123" data-name="Trazado 596123" d="M280.766,60.043a2.652,2.652,0,0,1-.937-.138,6.86,6.86,0,0,1-2.73-2.662c-3.951.875-10.853,1.322-15.177.369a5.432,5.432,0,0,1-3.261,1.573c-3.709.512-12.754-3.066-13.136-3.216a.545.545,0,0,1,.4-1.013c.091.036,9.13,3.615,12.587,3.151a4.567,4.567,0,0,0,2.148-.839c-1.6-.535-2.583-1.315-2.923-2.324-.433-1.284-.379-2.241.158-2.846a2.454,2.454,0,0,1,2.448-.512c1.056.22,2.662.966,2.928,1.792a4.275,4.275,0,0,1-.612,3.273c4.2.784,10.331.285,13.858-.407a5.761,5.761,0,0,1-.827-3.254,1.464,1.464,0,0,1,1.566-1.251c1.712,0,3.05.68,3.488,1.774a2.4,2.4,0,0,1-.782,2.663,4.659,4.659,0,0,1-1.747.785,5.4,5.4,0,0,0,2,1.926c1.457.574,7.906-1.8,11.618-3.433a.545.545,0,0,1,.437,1c-.918.4-8.283,3.588-11.509,3.588m-21.28-7.471a1.449,1.449,0,0,0-.544.093c-.6.242-.422,1.183-.172,1.931s1.2,1.373,2.756,1.8c.058-.079.111-.156.157-.231a3.372,3.372,0,0,0,.555-2.45,4.461,4.461,0,0,0-2.753-1.14m17.773.256c-.36,0-.453.127-.5.363A5.1,5.1,0,0,0,277.619,56a4.359,4.359,0,0,0,1.595-.615,1.361,1.361,0,0,0,.524-1.469c-.266-.662-1.24-1.092-2.479-1.092" transform="translate(-65.75 -13.808)" fill="#fff"/>
            <path id="Trazado_596124" data-name="Trazado 596124" d="M404.094,309.455l124.644-11.645c-1.742-22.777-58.281-50-58.819-84.78,0-15.889,5.382-24.437,11.85-33.229a65.791,65.791,0,0,0,10.3-57.472q-.211-.719-.428-1.434a49.806,49.806,0,0,0-45.807-35.41,217.525,217.525,0,0,0-30.4,1.182,64.687,64.687,0,0,0-55.939,49.381l-1.07,10.747a4.144,4.144,0,0,0,1.6,3.7,6.117,6.117,0,0,1,.823,8.956,63.306,63.306,0,0,0-6.052,7.427c-3.872,5.745-12.445,18.979-10.575,22.409,2.214,3.778,12.094,2.938,12.094,2.938V200.3a7.528,7.528,0,0,0,3.346,4.812c-1.531.558-3.31,3.221-3.571,5.018l2.711,10.977c.381,3.092-1.947,5.56-2.7,9.587a8.868,8.868,0,0,0,8.148,10.325c12.161.907,32.4.078,32.4,7.249l3.419,14.123,5.764,11.1c2.26,10.025,8.112,22.974-1.734,35.961" transform="translate(-92.238 -22.894)" fill="#a2a7c5"/>
            <path id="Trazado_596125" data-name="Trazado 596125" d="M366.376,124.346a30.956,30.956,0,0,0,2.889,4.049,45.376,45.376,0,0,0,11.782,9.307c9.807,5.181,21.9,4.5,32.618,5.656,9.079.982,18.224,2.077,25.931,7.269,3.906,2.632,6.832,5.945,10.346,9.048,7.88,6.961,11.861,10.725,12.063,21.593.168,9.1,7.274,19.944,10.775,28-1.47-3.381,4.573-13.766,6.022-16.883,2.258-4.858,4.706-9.626,6.864-14.531a77.012,77.012,0,0,1,6.232-12.148,37,37,0,0,0,5.754-13.955c.716-4.784-.042-7.506,2.983-11.206,2.882-3.526,2.986-6.657,1.827-11.348-.812-3.289-3.238-5.757-4.09-8.745-1.528-5.356,1.944-10.477-1.4-15.587-2.472-3.782-6.766-4.489-10.927-3.373.464-6.753-4.5-15.219-9.648-19.363-3.773-3.036-8.5-3.008-13.033-3.434-5.9-.555-8.571-4.387-13.953-6.282-5.077-1.789-8.849-.817-13.506,1.443-4.463-4.739-16.083-1.716-21.139.394-5.369,2.242-11.054,1.52-17.063.454-8.556-1.519-13.824.707-17.942,8.183-2.807,5.094-6.867,5.986-12.178,4.5-2.4-.67-2.025-1.649-3.74.319-1.738,1.994-.925,3.726.591,5.691-2.015-3.071-8.95-1.231-9.724,2.157-.691,3.024,2.8,6.95,5.37,7.874-5.327,3.284-2.835,8.808.594,12.473,2.338,2.5,3.912,5.548,5.7,8.442" transform="translate(-95.099 -19.131)" fill="#a2a7c5"/>
            <path id="Trazado_596126" data-name="Trazado 596126" d="M524.563,90.632c-2.815-2.3-5.656-1.5-7.882-3.756a.427.427,0,0,1,.516-.668c2.82,1.5,5.672.948,8.508,2.944a17.514,17.514,0,0,1,6.049,6.949,10.8,10.8,0,0,1,.3,8.456,13.924,13.924,0,0,1-1.619,2.814c-2.346,3.448-2.652,5.949-2.49,9.973.064,1.582-2.168,1.737-2.643.358a11.521,11.521,0,0,1-.508-7.053c.755-2.665,2.939-4.1,4.107-6.5,2.359-4.848-.535-10.411-4.337-13.52" transform="translate(-138.525 -23.104)" fill="#a2a7c5"/>
            <path id="Trazado_596127" data-name="Trazado 596127" d="M524.252,109.981c2.558-2.276,5.972-3.515,8.653-5.736,3.276-2.713,4.957-6.527,5.994-10.58a.723.723,0,0,1,1.393.384c-1.08,4.225-1.789,8.289-4.719,11.7-2.468,2.874-6.4,6.373-10.263,6.782a1.507,1.507,0,0,1-1.057-2.55" transform="translate(-140.476 -24.98)" fill="#a2a7c5"/>
            <path id="Trazado_596128" data-name="Trazado 596128" d="M521.536,116.462c4.863-7.928,16.566-8.952,24.589-6.435a.7.7,0,0,1-.374,1.355,24.709,24.709,0,0,0-12.856,1.524c-3.459,1.376-6.045,3.833-9.165,5.749a1.615,1.615,0,0,1-2.193-2.193" transform="translate(-139.8 -29.179)" fill="#a2a7c5"/>
            <path id="Trazado_596129" data-name="Trazado 596129" d="M372.984,79.806c.419-.36.873.424.43.735-3.36,4.52,4.691,5.754,7.975.438q.625-.856,1.274-1.694a18.15,18.15,0,0,1,3.133-2.868,18.871,18.871,0,0,1,8.079-3.367c6.092-.979,13.567,1.161,16.766,6.734a1.536,1.536,0,0,1-2.085,2.085c-6.758-4.129-13.169-7.643-20.773-2.5-3.69,2.495-5.465,8.2-10.406,8.591-4.457.356-8.322-4.777-4.392-8.151" transform="translate(-99.587 -19.528)" fill="#a2a7c5"/>
            <path id="Trazado_596130" data-name="Trazado 596130" d="M409.581,74.09c8.369,1.856,12.667-5.574,19.336-8.652a22.625,22.625,0,0,1,15.2-1.183c6.119,1.894,15.165,11.9,9.681,18.116a1.718,1.718,0,0,1-2.905-1.2c.367-14.238-15.685-17.127-25.689-10.7-4.951,3.182-9.917,6.984-15.944,4.379-.449-.195-.117-.856.321-.76" transform="translate(-109.694 -17.014)" fill="#a2a7c5"/>
            <path id="Trazado_596131" data-name="Trazado 596131" d="M396.82,75.379c5.65-6.436,16.282-7.342,24.27-7.154,8.96.211,21.136.2,28.5,6.076,1.027.82.16,2.593-1.057,2.55-3.354-.116-6.275-1.419-9.5-2.275a100.589,100.589,0,0,0-14.345-2.5c-8.728-1-19.781-1.992-27.22,3.947a.455.455,0,0,1-.644-.643" transform="translate(-106.38 -18.29)" fill="#a2a7c5"/>
            <path id="Trazado_596132" data-name="Trazado 596132" d="M366.389,82.692a.546.546,0,0,1,.855.659c-2.365,3.77-2.223,9.717,1.661,12.449a6.984,6.984,0,0,0,6.272.948c1.718-.457,2.853-1.006,4.632-.613a1.4,1.4,0,0,1,.332,2.532c-5.089,3.029-11.46,3.06-15.29-1.951-3.5-4.58-2.11-10.108,1.539-14.026" transform="translate(-97.3 -22.132)" fill="#a2a7c5"/>
            <path id="Trazado_596133" data-name="Trazado 596133" d="M348.96,99.846c1.142-2.771,4.165-6.1,7.334-4.7a.42.42,0,0,1-.1.76c-3.636.611-5.506,4.973-4.931,8.206a8.553,8.553,0,0,0,6.638,6.649c4.5,1,11.536-2.231,12.578-7.1a1.644,1.644,0,0,1,2.384-.97l.6.285a2.146,2.146,0,0,1,.972,2.388c-2.054,9.4-16.514,12.317-22.91,5.985a10.818,10.818,0,0,1-2.563-11.507" transform="translate(-93.39 -25.428)" fill="#a2a7c5"/>
            <path id="Trazado_596134" data-name="Trazado 596134" d="M489.723,69.864c4.654,8.876,18.853,2.175,23.023,12.6,2.954,7.389,5.883,20.665-1.409,26.4-1.318,1.036-3.625-.282-2.533-1.955,3.483-5.336,2.882-10.215,1.794-16.168-.441-2.414-.868-6.51-2.187-8.524-1.761-2.688-4.933-3.455-7.759-4.3-4.969-1.48-9.505-2.482-11.715-7.6-.226-.523.508-.991.786-.46" transform="translate(-131.107 -18.673)" fill="#a2a7c5"/>
            <path id="Trazado_596135" data-name="Trazado 596135" d="M533.366,116.3c6.163-2,12.519.738,14.309,7.007.948,3.321,3.189,5.82,3.609,9.373.485,4.1-1.036,7.813-2.27,11.638a.723.723,0,0,1-1.393-.384c.847-3.3,1.606-7.078.866-10.483-.568-2.616-2.382-4.136-3.5-6.4-.94-1.909-.817-3.287-2.263-5.074-2.431-3-5.848-2.608-9.362-3.387a1.2,1.2,0,0,1,0-2.29" transform="translate(-142.805 -31.015)" fill="#a2a7c5"/>
            <path id="Trazado_596136" data-name="Trazado 596136" d="M425.244,174.284l3.477-2.2-.3-1.117-4.1-.164q-.334-.923-.749-1.8l2.786-3.018-.578-1-4.012.9q-.558-.8-1.186-1.544l1.913-3.642-.817-.817-3.642,1.913q-.743-.628-1.544-1.186l.9-4.012-1-.578-3.019,2.787c-.587-.276-1.188-.528-1.8-.75l-.163-4.1-1.117-.3-2.2,3.476q-.951-.169-1.93-.252l-1.223-3.928h-1.156l-1.223,3.928q-.978.082-1.93.252l-2.2-3.476-1.117.3-.164,4.1q-.922.334-1.8.749l-3.018-2.786-1,.578.9,4.012q-.8.559-1.544,1.186l-3.642-1.913-.817.817,1.913,3.642q-.628.743-1.186,1.544l-4.012-.9-.578,1L385.16,169q-.414.88-.749,1.8l-4.1.164-.3,1.117,3.477,2.2q-.169.952-.253,1.931l-3.928,1.223v1.156l3.928,1.223q.082.978.253,1.93l-3.477,2.2.3,1.117,4.1.164q.334.922.749,1.8l-2.786,3.019.578,1,4.012-.905q.558.8,1.186,1.544l-1.913,3.642.817.817,3.642-1.912q.743.627,1.544,1.185l-.9,4.013,1,.577,3.018-2.786c.587.276,1.188.528,1.8.749l.164,4.1,1.117.3,2.2-3.476q.952.168,1.931.252l1.222,3.928h1.156l1.223-3.928q.978-.082,1.93-.252l2.2,3.477,1.117-.3.164-4.1c.615-.222,1.216-.474,1.8-.749l3.019,2.786,1-.577-.9-4.013q.8-.558,1.544-1.186l3.642,1.913.817-.817-1.913-3.642q.628-.743,1.186-1.544l4.012.905.578-1-2.786-3.019c.276-.587.528-1.188.749-1.8l4.1-.164.3-1.117-3.477-2.2q.169-.952.253-1.931l3.928-1.223v-1.156l-3.928-1.223q-.082-.979-.253-1.931m-3.266,3.048a14.972,14.972,0,0,1-3.789,11.657,1.936,1.936,0,0,1-2.992-.19,8.483,8.483,0,0,1,4.242-13.055l.011,0a1.932,1.932,0,0,1,2.528,1.592m-11.537,17.191a14.968,14.968,0,0,1-12.152,0,1.95,1.95,0,0,1-.79-2.927l0,0a8.485,8.485,0,0,1,13.728,0l0,0a1.95,1.95,0,0,1-.79,2.927m-19.9-5.533a14.946,14.946,0,0,1-3.876-10.052,15.109,15.109,0,0,1,.086-1.606,1.932,1.932,0,0,1,2.529-1.592l.011,0a8.484,8.484,0,0,1,4.242,13.055,1.937,1.937,0,0,1-2.992.19m-.9-20.886a15.056,15.056,0,0,1,9.8-7.133,1.954,1.954,0,0,1,2.381,1.9v.01a8.484,8.484,0,0,1-11.105,8.068h0a1.951,1.951,0,0,1-1.074-2.843m29.447,0a1.951,1.951,0,0,1-1.074,2.843h0a8.484,8.484,0,0,1-11.105-8.068v-.01a1.954,1.954,0,0,1,2.381-1.9,15.054,15.054,0,0,1,9.8,7.133m-14.724,15.54a5.628,5.628,0,1,1,5.629-5.629,5.629,5.629,0,0,1-5.629,5.629" transform="translate(-101.718 -41.018)" fill="#6826cc"/>
            <path id="Trazado_596137" data-name="Trazado 596137" d="M478.453,198.735a12.832,12.832,0,0,0-.361-2.07l2.082-1.287-.482-1.323-2.423.352a12.9,12.9,0,0,0-1.053-1.817h0l1.519-1.924-.905-1.079-2.158,1.161h0a13.082,13.082,0,0,0-1.609-1.349h0l.769-2.327-1.22-.7-1.631,1.829a12.847,12.847,0,0,0-1.974-.719l-.073-2.449-1.387-.244-.907,2.276v0c-.347-.028-.7-.046-1.05-.046s-.7.018-1.049.046v0l-.907-2.277-1.387.244-.073,2.449a12.845,12.845,0,0,0-1.974.719l-1.631-1.829-1.219.7.768,2.327h0a13.078,13.078,0,0,0-1.609,1.349h0l-2.158-1.161-.905,1.079,1.519,1.924h0a12.869,12.869,0,0,0-1.053,1.818l-2.423-.353-.482,1.323,2.082,1.287a12.853,12.853,0,0,0-.361,2.07h0l-2.4.5v1.408l2.4.5h0a12.844,12.844,0,0,0,.361,2.069l-2.082,1.287.482,1.323,2.423-.352a12.909,12.909,0,0,0,1.053,1.818h0l-1.518,1.923.905,1.079,2.158-1.161h0a13.079,13.079,0,0,0,1.609,1.349v0l-.768,2.326,1.219.7,1.631-1.829a12.846,12.846,0,0,0,1.974.719l.073,2.449,1.387.244.907-2.277v0c.347.028.7.046,1.049.046s.7-.018,1.05-.046v0l.907,2.277,1.387-.244.073-2.449a12.849,12.849,0,0,0,1.974-.719l1.631,1.829,1.22-.7-.768-2.326v0a13.084,13.084,0,0,0,1.609-1.349h0l2.158,1.161.905-1.079-1.518-1.923h0a12.909,12.909,0,0,0,1.053-1.818l2.423.352.482-1.323-2.082-1.287a12.838,12.838,0,0,0,.361-2.069h0l2.4-.5v-1.408l-2.4-.5Zm-1.192,1.2a11.67,11.67,0,1,1-11.671-11.67,11.684,11.684,0,0,1,11.671,11.67" transform="translate(-120.764 -49.553)" fill="#fff"/>
            <path id="Trazado_596138" data-name="Trazado 596138" d="M467.178,190.555a10.93,10.93,0,1,0,10.93,10.929,10.942,10.942,0,0,0-10.93-10.929m3.2,10.929a3.2,3.2,0,1,1-3.2-3.2,3.2,3.2,0,0,1,3.2,3.2m-3.2-9.523a9.5,9.5,0,0,1,3.684.74l-1.884,3.262a2.022,2.022,0,0,1-1.788.978h-.024a2.022,2.022,0,0,1-1.788-.978l-1.884-3.262a9.5,9.5,0,0,1,3.683-.74m-5.759,1.952,1.88,3.255a2.019,2.019,0,0,1-.045,2.033l-.018.029a2.012,2.012,0,0,1-1.736,1.052h-3.762a9.5,9.5,0,0,1,3.68-6.37m-3.68,8.774H461.5a2.014,2.014,0,0,1,1.737,1.052l.017.029a2.019,2.019,0,0,1,.045,2.033l-1.88,3.255a9.5,9.5,0,0,1-3.68-6.37m9.439,8.322a9.5,9.5,0,0,1-3.683-.74l1.884-3.262a2.024,2.024,0,0,1,1.788-.978h.024a2.025,2.025,0,0,1,1.789.978l1.883,3.262a9.5,9.5,0,0,1-3.684.74m5.76-1.952-1.877-3.251a2.03,2.03,0,0,1,.044-2.042l.012-.021a2.025,2.025,0,0,1,1.745-1.057h3.756a9.5,9.5,0,0,1-3.68,6.37m3.68-8.774h-3.762a2.012,2.012,0,0,1-1.736-1.052l-.017-.029a2.019,2.019,0,0,1-.045-2.033l1.88-3.255a9.5,9.5,0,0,1,3.68,6.37" transform="translate(-122.352 -51.101)" fill="#ffd75e"/>
            <path id="Trazado_596139" data-name="Trazado 596139" d="M442.863,150.679l.31,1.757,3.1.093a16.219,16.219,0,0,0,.91,2.5L444.87,157.1l.892,1.546,2.949-.974h0a16.391,16.391,0,0,0,1.709,2.039h0l-1.472,2.735,1.367,1.148,2.438-1.924h0a16.353,16.353,0,0,0,2.3,1.335l-.447,3.07,1.677.61,1.631-2.638a16.292,16.292,0,0,0,2.623.457h0l.631,3.041h1.784l.631-3.041h0a16.284,16.284,0,0,0,2.622-.457l1.631,2.638,1.677-.61L469.072,163a16.271,16.271,0,0,0,2.3-1.334h0l2.437,1.924,1.367-1.148-1.471-2.734h0a16.446,16.446,0,0,0,1.709-2.039h0l2.948.974.893-1.546-2.318-2.066h0a16.216,16.216,0,0,0,.91-2.5l3.1-.093.31-1.757-2.885-1.15h0c.035-.439.059-.881.059-1.33s-.023-.891-.059-1.33h0l2.885-1.15-.31-1.757-3.1-.093a16.244,16.244,0,0,0-.91-2.5l2.318-2.067-.893-1.546-2.948.974h0a16.446,16.446,0,0,0-1.709-2.039h0l1.471-2.734-1.367-1.148-2.437,1.924h0a16.27,16.27,0,0,0-2.3-1.334l.446-3.071-1.677-.61-1.631,2.638a16.366,16.366,0,0,0-2.622-.457v0l-.631-3.04h-1.784l-.631,3.04v0a16.374,16.374,0,0,0-2.623.457l-1.631-2.638-1.677.61.447,3.071a16.278,16.278,0,0,0-2.3,1.334h0l-2.438-1.924-1.367,1.148,1.471,2.735h0a16.391,16.391,0,0,0-1.709,2.039h0l-2.949-.974-.892,1.546,2.318,2.067a16.168,16.168,0,0,0-.91,2.5l-3.1.093-.31,1.757,2.886,1.15h0c-.036.439-.059.882-.059,1.33s.023.891.059,1.33h0Zm7.553.639a1.267,1.267,0,0,1,1.221-1.6h3.991a1.289,1.289,0,0,1,1.171.793,5.779,5.779,0,0,0,2.949,2.95,1.289,1.289,0,0,1,.793,1.171v3.991a1.268,1.268,0,0,1-1.6,1.221,12.071,12.071,0,0,1-8.53-8.53m0-6.238a12.072,12.072,0,0,1,8.53-8.53,1.268,1.268,0,0,1,1.6,1.221v3.992a1.289,1.289,0,0,1-.793,1.17,5.779,5.779,0,0,0-2.949,2.95,1.29,1.29,0,0,1-1.171.793h-3.991a1.267,1.267,0,0,1-1.221-1.6m14.768-8.53a12.073,12.073,0,0,1,8.531,8.53,1.268,1.268,0,0,1-1.221,1.6H468.5a1.289,1.289,0,0,1-1.17-.793,5.786,5.786,0,0,0-2.95-2.95,1.288,1.288,0,0,1-.793-1.17v-3.992a1.267,1.267,0,0,1,1.6-1.221m8.531,14.768a12.072,12.072,0,0,1-8.53,8.53,1.268,1.268,0,0,1-1.6-1.221v-3.991a1.288,1.288,0,0,1,.793-1.171,5.784,5.784,0,0,0,2.95-2.95,1.288,1.288,0,0,1,1.171-.793h3.991a1.268,1.268,0,0,1,1.221,1.6m-9.676-3.119a1.973,1.973,0,1,1-1.974-1.973,1.975,1.975,0,0,1,1.974,1.973" transform="translate(-118.763 -34.556)" fill="#ffd75e"/>
            <path id="Trazado_596140" data-name="Trazado 596140" d="M393.2,116.981l.337,1.907,3.369.1.117-.02a17.621,17.621,0,0,0,.968,2.679l-.1.056-2.516,2.243.968,1.677,3.2-1.057.091-.052a17.832,17.832,0,0,0,1.824,2.195l-.059.07-1.6,2.968,1.483,1.245,2.646-2.088.047-.056a17.745,17.745,0,0,0,2.471,1.455l-.017.045-.485,3.336,1.82.662,1.772-2.867.01-.029a17.744,17.744,0,0,0,2.834.519v.01l.685,3.3h1.936l.683-3.292a17.767,17.767,0,0,0,2.865-.479l1.753,2.836,1.82-.662-.477-3.28a17.79,17.79,0,0,0,2.55-1.454l2.589,2.043,1.483-1.245-1.553-2.887a17.793,17.793,0,0,0,1.909-2.261l3.1,1.025.968-1.677-2.427-2.165a17.609,17.609,0,0,0,1.025-2.8l3.244-.1.336-1.907-3.015-1.2c.041-.492.067-.988.067-1.491s-.026-1-.067-1.49l3.015-1.2-.336-1.907-3.244-.1a17.609,17.609,0,0,0-1.025-2.8l2.427-2.165-.968-1.677-3.1,1.025a17.794,17.794,0,0,0-1.909-2.261l1.553-2.887L426.8,97.588l-2.589,2.043a17.79,17.79,0,0,0-2.55-1.454l.477-3.28-1.82-.662-1.753,2.836a17.752,17.752,0,0,0-2.865-.479l-.683-3.292h-1.936l-.685,3.3v.011a17.746,17.746,0,0,0-2.834.519l-.01-.028-1.773-2.867-1.82.662.485,3.335.017.046a17.813,17.813,0,0,0-2.471,1.454l-.047-.056-2.646-2.088-1.483,1.245,1.6,2.968.059.07a17.832,17.832,0,0,0-1.824,2.195l-.09-.052-3.2-1.057-.968,1.677,2.515,2.243.1.056a17.62,17.62,0,0,0-.968,2.678l-.117-.021-3.369.1L393.2,111.6l3.131,1.247.126.022c-.037.47-.061.943-.061,1.422s.024.953.061,1.422l-.125.023Zm8.947-9.771a13.891,13.891,0,0,1,7.725-6.275,1.049,1.049,0,0,1,1.084,1.716,40.8,40.8,0,0,0-5.231,6.625,40.784,40.784,0,0,0-3.122,7.844,1.049,1.049,0,0,1-2.028-.081,13.886,13.886,0,0,1,1.572-9.828m2.6,17.474a1.049,1.049,0,0,1,.944-1.8,29.238,29.238,0,0,0,16.706,0,1.049,1.049,0,0,1,.944,1.8,13.94,13.94,0,0,1-18.594,0m17.983-15.195a40.8,40.8,0,0,0-5.232-6.625,1.049,1.049,0,0,1,1.084-1.715,13.941,13.941,0,0,1,9.3,16.1,1.049,1.049,0,0,1-2.028.081,40.829,40.829,0,0,0-3.121-7.844m-2.733,4.8a5.953,5.953,0,1,1-5.953-5.952A5.96,5.96,0,0,1,420,114.289" transform="translate(-105.446 -25.02)" fill="#ffce1d"/>
            <path id="Trazado_596141" data-name="Trazado 596141" d="M527.718,140.706v-2.14l-2.246-.752a13.487,13.487,0,0,0-.89-3.332l1.567-1.772-1.07-1.854-2.322.471a13.666,13.666,0,0,0-2.437-2.436l.471-2.322-1.853-1.07-1.772,1.566a13.49,13.49,0,0,0-3.331-.889l-.753-2.246h-2.14l-.752,2.246a13.5,13.5,0,0,0-3.332.889l-1.772-1.566-1.854,1.07.471,2.322a13.684,13.684,0,0,0-2.436,2.436l-2.322-.471-1.07,1.854,1.566,1.772a13.508,13.508,0,0,0-.889,3.328l-2.246.756v2.14l2.246.756a13.517,13.517,0,0,0,.888,3.325l-1.565,1.775,1.07,1.853,2.324-.468a13.658,13.658,0,0,0,2.432,2.432l-.469,2.324,1.854,1.07,1.775-1.565a13.484,13.484,0,0,0,3.325.888l.756,2.247h2.14l.756-2.247a13.476,13.476,0,0,0,3.325-.888l1.775,1.565,1.853-1.07-.468-2.324a13.659,13.659,0,0,0,2.432-2.432l2.324.468,1.07-1.853-1.565-1.775a13.474,13.474,0,0,0,.888-3.328Zm-8.025,6.612a10.856,10.856,0,0,1-18.385-5.855h.493a12.508,12.508,0,0,1,7.206,2.442,5.2,5.2,0,0,0,6.01,0,12.514,12.514,0,0,1,7.206-2.442h.492a10.846,10.846,0,0,1-3.021,5.855m-10.174-7.682a2.492,2.492,0,1,1,2.492,2.492,2.495,2.495,0,0,1-2.492-2.492m12.7-1.827a12.508,12.508,0,0,1-7.206-2.442,5.2,5.2,0,0,0-6.01,0,12.512,12.512,0,0,1-7.206,2.441h-.493a10.856,10.856,0,0,1,21.406,0Z" transform="translate(-133.094 -33.234)" fill="#ffe0f0"/>
            <path id="Trazado_596142" data-name="Trazado 596142" d="M484.37,102.208l-.207-1.178-2.08-.063a10.794,10.794,0,0,0-.61-1.676l1.554-1.385-.6-1.036-1.976.653h0a10.935,10.935,0,0,0-1.145-1.366h0l.986-1.833-.916-.769-1.635,1.289h0a10.9,10.9,0,0,0-1.543-.894l.3-2.058-1.123-.409-1.093,1.769a10.869,10.869,0,0,0-1.758-.307h0l-.422-2.037h-1.2l-.423,2.037h0a10.832,10.832,0,0,0-1.757.307l-1.094-1.769-1.123.409.3,2.058a10.961,10.961,0,0,0-1.545.894h0l-1.634-1.289-.915.769.985,1.833h0a11.058,11.058,0,0,0-1.145,1.366h0l-1.976-.653-.6,1.036,1.553,1.385a10.9,10.9,0,0,0-.61,1.676l-2.081.063-.207,1.178,1.933.77h0c-.023.294-.039.591-.039.891s.016.6.039.891h0l-1.933.77.207,1.178,2.081.063a10.9,10.9,0,0,0,.61,1.676l-1.553,1.385.6,1.036,1.976-.653h0a11.057,11.057,0,0,0,1.145,1.366h0l-.986,1.833.915.769,1.633-1.289h0a10.96,10.96,0,0,0,1.545.894l-.3,2.058,1.123.409,1.094-1.769a10.832,10.832,0,0,0,1.757.307h0l.423,2.038h1.2l.422-2.037h0a10.869,10.869,0,0,0,1.758-.307l1.093,1.769,1.123-.409-.3-2.058a10.974,10.974,0,0,0,1.543-.894h0l1.635,1.289.916-.769-.986-1.833h0a10.935,10.935,0,0,0,1.145-1.366h0l1.976.653.6-1.036-1.554-1.385a10.822,10.822,0,0,0,.61-1.676l2.08-.063.207-1.178-1.933-.77h0c.024-.294.039-.591.039-.891s-.015-.6-.039-.891h0Zm-4.781,1.662a8.088,8.088,0,1,1-8.088-8.088,8.088,8.088,0,0,1,8.088,8.088" transform="translate(-122.991 -24.379)" fill="#fff"/>
          </g>
        </g>
      </g>
    </g>
  </g>
</svg>
