<svg xmlns="http://www.w3.org/2000/svg" width="81.693" height="97.368" viewBox="0 0 81.693 97.368">
  <g id="briefing" transform="translate(-0.5)">
    <path id="Trazado_102410" data-name="Trazado 102410" d="M69.166,134.511H11.245a3.232,3.232,0,0,1-3.233-3.233V50.862a3.232,3.232,0,0,1,3.233-3.233H69.166A3.232,3.232,0,0,1,72.4,50.862v80.416A3.232,3.232,0,0,1,69.166,134.511Zm0,0" transform="translate(-6.083 -38.571)" fill="#f6f6f6"/>
    <path id="Trazado_102412" data-name="Trazado 102412" d="M133.758,20.766H112a1.9,1.9,0,0,1-1.9-1.9V12.076a4.564,4.564,0,0,1,4.564-4.564H131.1a4.564,4.564,0,0,1,4.564,4.564v6.788A1.9,1.9,0,0,1,133.758,20.766Zm0,0" transform="translate(-88.758 -6.083)" fill="#ffeeb0"/>
    <path id="Trazado_102414" data-name="Trazado 102414" d="M265.689,94.038A16.717,16.717,0,1,1,248.971,77.32,16.717,16.717,0,0,1,265.689,94.038Zm0,0" transform="translate(-187.681 -62.616)" fill="#ea3584"/>
    <path id="Trazado_102416" data-name="Trazado 102416" d="M267.573,103.374a3.267,3.267,0,0,1-2.31-.956l-8-8a3.266,3.266,0,0,1,4.619-4.619l5.688,5.688,14.778-14.778a3.266,3.266,0,1,1,4.618,4.619l-17.086,17.087A3.268,3.268,0,0,1,267.573,103.374Zm0,0" transform="translate(-207.162 -64.588)" fill="#ffeeb0"/>
    <g id="Grupo_54750" data-name="Grupo 54750" transform="translate(8.206 21.111)">
      <path id="Trazado_102418" data-name="Trazado 102418" d="M124.736,191.4H107.33a1.429,1.429,0,0,1,0-2.857h17.406a1.429,1.429,0,1,1,0,2.857Zm0,0" transform="translate(-93.563 -173.802)" fill="#0882bf"/>
      <path id="Trazado_102419" data-name="Trazado 102419" d="M52.06,113.869H42.448a1.429,1.429,0,1,1,0-2.857H52.06a1.429,1.429,0,1,1,0,2.857Zm0,0" transform="translate(-41.02 -111.012)" fill="#0882bf"/>
      <path id="Trazado_102420" data-name="Trazado 102420" d="M124.736,226.251H107.33a1.428,1.428,0,0,1,0-2.856h17.406a1.428,1.428,0,1,1,0,2.856Zm0,0" transform="translate(-93.563 -202.022)" fill="#0882bf"/>
      <path id="Trazado_102421" data-name="Trazado 102421" d="M130.749,282.505H107.33a1.428,1.428,0,0,1,0-2.857h23.419a1.428,1.428,0,0,1,0,2.857Zm0,0" transform="translate(-93.563 -247.579)" fill="#0882bf"/>
      <path id="Trazado_102422" data-name="Trazado 102422" d="M119.04,317.353H107.33a1.428,1.428,0,0,1,0-2.857h11.71a1.428,1.428,0,0,1,0,2.857Zm0,0" transform="translate(-93.563 -275.799)" fill="#0882bf"/>
      <path id="Trazado_102423" data-name="Trazado 102423" d="M124.736,373.7H107.33a1.428,1.428,0,0,1,0-2.857h17.406a1.428,1.428,0,1,1,0,2.857Zm0,0" transform="translate(-93.563 -321.434)" fill="#0882bf"/>
      <path id="Trazado_102424" data-name="Trazado 102424" d="M130.749,408.552H107.33a1.428,1.428,0,0,1,0-2.856h23.419a1.428,1.428,0,1,1,0,2.856Zm0,0" transform="translate(-93.563 -349.655)" fill="#0882bf"/>
    </g>
    <path id="Trazado_102425" data-name="Trazado 102425" d="M50.327,193.888a4.341,4.341,0,1,1-4.341-4.341A4.341,4.341,0,0,1,50.327,193.888Zm0,0" transform="translate(-33.32 -153.5)" fill="#ffeeb0"/>
    <path id="Trazado_102426" data-name="Trazado 102426" d="M50.327,286.1a4.341,4.341,0,1,1-4.341-4.341A4.341,4.341,0,0,1,50.327,286.1Zm0,0" transform="translate(-33.32 -228.175)" fill="#ffeeb0"/>
    <path id="Trazado_102427" data-name="Trazado 102427" d="M50.327,377.294a4.341,4.341,0,1,1-4.341-4.341A4.341,4.341,0,0,1,50.327,377.294Zm0,0" transform="translate(-33.32 -302.028)" fill="#ffeeb0"/>
    <path id="Trazado_102428" data-name="Trazado 102428" d="M124.736,191.4H107.33a1.429,1.429,0,0,1,0-2.857h17.406a1.429,1.429,0,1,1,0,2.857Zm0,0" transform="translate(-85.358 -152.691)"/>
    <path id="Trazado_102429" data-name="Trazado 102429" d="M52.06,113.869H42.448a1.429,1.429,0,1,1,0-2.857H52.06a1.429,1.429,0,1,1,0,2.857Zm0,0" transform="translate(-32.814 -89.9)"/>
    <path id="Trazado_102430" data-name="Trazado 102430" d="M124.736,226.251H107.33a1.428,1.428,0,0,1,0-2.856h17.406a1.428,1.428,0,1,1,0,2.856Zm0,0" transform="translate(-85.358 -180.911)"/>
    <path id="Trazado_102431" data-name="Trazado 102431" d="M130.749,282.505H107.33a1.428,1.428,0,0,1,0-2.857h23.419a1.428,1.428,0,0,1,0,2.857Zm0,0" transform="translate(-85.358 -226.467)"/>
    <path id="Trazado_102432" data-name="Trazado 102432" d="M119.04,317.353H107.33a1.428,1.428,0,0,1,0-2.857h11.71a1.428,1.428,0,0,1,0,2.857Zm0,0" transform="translate(-85.358 -254.688)"/>
    <path id="Trazado_102433" data-name="Trazado 102433" d="M124.736,373.7H107.33a1.428,1.428,0,0,1,0-2.857h17.406a1.428,1.428,0,1,1,0,2.857Zm0,0" transform="translate(-85.358 -300.323)"/>
    <path id="Trazado_102434" data-name="Trazado 102434" d="M130.749,408.552H107.33a1.428,1.428,0,0,1,0-2.856h23.419a1.428,1.428,0,1,1,0,2.856Zm0,0" transform="translate(-85.358 -328.544)"/>
    <path id="Trazado_102435" data-name="Trazado 102435" d="M39.9,193.575a5.77,5.77,0,1,1,5.77-5.77A5.776,5.776,0,0,1,39.9,193.575Zm0-8.682a2.913,2.913,0,1,0,2.913,2.913A2.916,2.916,0,0,0,39.9,184.892Zm0,0" transform="translate(-27.237 -147.417)"/>
    <path id="Trazado_102436" data-name="Trazado 102436" d="M39.9,285.782a5.77,5.77,0,1,1,5.77-5.77A5.776,5.776,0,0,1,39.9,285.782Zm0-8.682a2.913,2.913,0,1,0,2.913,2.913A2.916,2.916,0,0,0,39.9,277.1Zm0,0" transform="translate(-27.237 -222.089)"/>
    <path id="Trazado_102437" data-name="Trazado 102437" d="M39.9,376.981a5.77,5.77,0,1,1,5.77-5.77A5.776,5.776,0,0,1,39.9,376.981Zm0-8.682a2.913,2.913,0,1,0,2.913,2.913A2.916,2.916,0,0,0,39.9,368.3Zm0,0" transform="translate(-27.237 -295.945)"/>
    <path id="Trazado_102438" data-name="Trazado 102438" d="M55.734,24.2a4.695,4.695,0,1,0-6.64,6.639l8,8a4.694,4.694,0,0,0,6.639,0L80.818,21.752a4.694,4.694,0,1,0-6.639-6.639L72.3,17a18.147,18.147,0,0,0-4.551-2.538V12.324A4.7,4.7,0,0,0,63.05,7.629H48.33V6a6.006,6.006,0,0,0-6-6H25.914a6.006,6.006,0,0,0-6,6v6.779a3.337,3.337,0,0,0,3.333,3.333H45a3.337,3.337,0,0,0,3.333-3.333V10.486h14.72a1.84,1.84,0,0,1,1.838,1.838V13.64a18.143,18.143,0,1,0,0,35.57V92.674a1.839,1.839,0,0,1-1.838,1.837H5.194a1.839,1.839,0,0,1-1.837-1.837V12.324a1.839,1.839,0,0,1,1.837-1.838h9.5a1.429,1.429,0,0,0,0-2.857h-9.5A4.7,4.7,0,0,0,.5,12.324v80.35a4.7,4.7,0,0,0,4.694,4.694H63.05a4.7,4.7,0,0,0,4.694-4.694V48.383A18.155,18.155,0,0,0,79.426,32.055a1.429,1.429,0,1,0-2.856-.1A15.212,15.212,0,0,1,65.988,45.981a1.357,1.357,0,0,0-.238.078A15.294,15.294,0,1,1,61.29,16.133a15.262,15.262,0,0,1,8.964,2.905l-9.843,9.844ZM45.473,12.778a.476.476,0,0,1-.476.476H23.248a.476.476,0,0,1-.476-.476V6a3.145,3.145,0,0,1,3.142-3.142H42.33A3.146,3.146,0,0,1,45.473,6ZM76.2,17.134a1.837,1.837,0,0,1,2.6,2.6L61.71,36.82a1.836,1.836,0,0,1-2.6,0l-8-8a1.838,1.838,0,1,1,2.6-2.6L59.4,31.912a1.428,1.428,0,0,0,2.02,0Zm0,0"/>
  </g>
</svg>
