<svg xmlns="http://www.w3.org/2000/svg" width="55" height="55" viewBox="0 0 55 55">
  <g id="Grupo_874359" data-name="Grupo 874359" transform="translate(-563 -3812)">
    <circle id="Elipse_4847" data-name="Elipse 4847" cx="27.5" cy="27.5" r="27.5" transform="translate(563 3812)" fill="#ea3584"/>
    <path id="Trazado_596937" data-name="Trazado 596937" d="M7.412,0H-6.929V-2.446L.176-10.2a17.692,17.692,0,0,0,2.19-2.864,4.64,4.64,0,0,0,.652-2.307,3.505,3.505,0,0,0-.857-2.461,2.972,2.972,0,0,0-2.307-.937A3.426,3.426,0,0,0-2.827-17.71a4.148,4.148,0,0,0-.952,2.886h-3.56a6.976,6.976,0,0,1,.886-3.508,6.1,6.1,0,0,1,2.534-2.424,8.066,8.066,0,0,1,3.8-.864,7.215,7.215,0,0,1,4.9,1.56,5.415,5.415,0,0,1,1.794,4.314,7.321,7.321,0,0,1-.9,3.347A19.033,19.033,0,0,1,2.725-8.423L-2.49-2.842h9.9Z" transform="translate(591 3850)" fill="#fff"/>
  </g>
</svg>
