<svg xmlns="http://www.w3.org/2000/svg" width="55" height="55" viewBox="0 0 55 55">
  <g id="Grupo_874360" data-name="Grupo 874360" transform="translate(-773 -3812)">
    <circle id="Elipse_4848" data-name="Elipse 4848" cx="27.5" cy="27.5" r="27.5" transform="translate(773 3812)" fill="#ea3584"/>
    <path id="Trazado_596938" data-name="Trazado 596938" d="M-2.812-12.29H-.645a3.88,3.88,0,0,0,2.6-.85,3.031,3.031,0,0,0,.959-2.417,3.3,3.3,0,0,0-.8-2.366,3.213,3.213,0,0,0-2.439-.842,3.4,3.4,0,0,0-2.358.828A2.765,2.765,0,0,0-3.6-15.776h-3.56a5.388,5.388,0,0,1,.872-2.988,5.856,5.856,0,0,1,2.432-2.1,7.921,7.921,0,0,1,3.494-.754,7.336,7.336,0,0,1,5.017,1.6,5.629,5.629,0,0,1,1.824,4.46,4.532,4.532,0,0,1-.916,2.7,5.741,5.741,0,0,1-2.366,1.912,5.233,5.233,0,0,1,2.673,1.89,5.174,5.174,0,0,1,.916,3.076,5.728,5.728,0,0,1-1.97,4.57A7.649,7.649,0,0,1-.366.293,7.592,7.592,0,0,1-5.405-1.348,5.4,5.4,0,0,1-7.368-5.713h3.56a2.978,2.978,0,0,0,.945,2.285,3.583,3.583,0,0,0,2.542.879,3.7,3.7,0,0,0,2.607-.879,3.3,3.3,0,0,0,.952-2.549,3.331,3.331,0,0,0-1-2.593A4.259,4.259,0,0,0-.718-9.478H-2.812Z" transform="translate(801 3850)" fill="#fff"/>
  </g>
</svg>
