<svg xmlns="http://www.w3.org/2000/svg" xmlns:xlink="http://www.w3.org/1999/xlink" width="85" height="85" viewBox="0 0 85 85">
  <defs>
    <clipPath id="clip-path">
      <rect id="Rect치ngulo_293146" data-name="Rect치ngulo 293146" width="60.498" height="61.905" fill="none"/>
    </clipPath>
  </defs>
  <g id="Grupo_873930" data-name="Grupo 873930" transform="translate(-180 -3926)">
    <rect id="Rect치ngulo_293145" data-name="Rect치ngulo 293145" width="85" height="85" rx="42.5" transform="translate(180 3926)" fill="#ffeeb0"/>
    <g id="Grupo_873912" data-name="Grupo 873912" transform="translate(195 3937.548)">
      <g id="Grupo_873911" data-name="Grupo 873911" clip-path="url(#clip-path)">
        <path id="Trazado_595050" data-name="Trazado 595050" d="M36.863,94.308a27.922,27.922,0,0,1-9.279-1.363,4.126,4.126,0,0,1-2.626-3.07c-.2-.972-.433-1.983-.7-3.007-1.314-5.077-3.79-12.081-8.125-16.618A3.81,3.81,0,0,0,12,69.3a3.936,3.936,0,0,0-2.6,3.5V93.57a.732.732,0,0,1-.732.732H3.461a.732.732,0,0,1-.732-.732A189,189,0,0,0,.9,67.943C-.727,55.049-1.4,49.712,10.25,44.232a.732.732,0,1,1,.623,1.325C.186,50.584.732,54.912,2.352,67.76a193.973,193.973,0,0,1,1.84,25.077H7.937V72.782c0-.013,0-.027,0-.041a5.381,5.381,0,0,1,3.559-4.81,5.255,5.255,0,0,1,5.7,1.308C21.746,74,24.319,81.256,25.677,86.5c.271,1.048.512,2.085.715,3.081a2.653,2.653,0,0,0,1.68,1.982c7.014,2.482,16.749.7,20.609-.186a3.613,3.613,0,0,0,2.65-4.553c-.8-2.832-4.538-5.421-7.538-7.094a11.712,11.712,0,0,0-6.517-1.56c-3.228.227-6.591-1.751-9.725-5.73a33.512,33.512,0,0,1-3.73-5.988,84.312,84.312,0,0,0-8.667-14.526.732.732,0,0,1,1.19-.853,85.718,85.718,0,0,1,8.816,14.786c.043.093,5.329,11.34,12.012,10.851a13.184,13.184,0,0,1,7.334,1.742c4.716,2.63,7.487,5.314,8.235,7.977a5.078,5.078,0,0,1-3.734,6.376,54.628,54.628,0,0,1-12.145,1.5" transform="translate(0 -32.404)" fill="#344154"/>
        <path id="Trazado_595051" data-name="Trazado 595051" d="M176.05,109.435a.733.733,0,0,1-.641-1.085l5.159-9.392a.732.732,0,0,1,1.284.705l-5.159,9.391a.732.732,0,0,1-.642.38" transform="translate(-128.638 -72.331)" fill="#344154"/>
        <path id="Trazado_595052" data-name="Trazado 595052" d="M194.531,122.924a2.4,2.4,0,0,1-2.4-2.4v-1.157a2.4,2.4,0,0,1,4.8,0v1.157a2.4,2.4,0,0,1-2.4,2.4m0-4.5a.939.939,0,0,0-.938.938v1.157a.938.938,0,0,0,1.876,0v-1.157a.939.939,0,0,0-.938-.938" transform="translate(-140.973 -85.821)" fill="#344154"/>
        <path id="Trazado_595053" data-name="Trazado 595053" d="M168.175,104.539a2.4,2.4,0,0,1-2.4-2.4V100.98a2.4,2.4,0,1,1,4.8,0v1.157a2.4,2.4,0,0,1-2.4,2.4m0-4.5a.939.939,0,0,0-.938.938v1.157a.938.938,0,1,0,1.876,0V100.98a.939.939,0,0,0-.938-.938" transform="translate(-121.635 -72.331)" fill="#344154"/>
        <path id="Trazado_595054" data-name="Trazado 595054" d="M158.8,99.769a10.507,10.507,0,1,1,10.507-10.507A10.519,10.519,0,0,1,158.8,99.769m0-19.549a9.042,9.042,0,1,0,9.042,9.043,9.053,9.053,0,0,0-9.042-9.043" transform="translate(-108.81 -57.786)" fill="#344154"/>
        <path id="Trazado_595055" data-name="Trazado 595055" d="M39.339,40a9.4,9.4,0,0,1-3.721-.759.732.732,0,1,1,.58-1.345A8.184,8.184,0,0,0,43.7,37.26a7.526,7.526,0,0,0,3.513-5.5.732.732,0,1,1,1.433.3,8.909,8.909,0,0,1-4.15,6.426A9.511,9.511,0,0,1,39.339,40" transform="translate(-25.81 -22.878)" fill="#344154"/>
        <path id="Trazado_595056" data-name="Trazado 595056" d="M92.094,22.928a.727.727,0,0,1-.306-.067L76.825,15.972a.732.732,0,1,1,.612-1.33l14.3,6.582,5.246-11.4L79.273,1.675a3.818,3.818,0,0,1-1.79,1.362,3.818,3.818,0,0,1-2.939-.114.732.732,0,0,1,.613-1.33,2.364,2.364,0,0,0,1.819.071A2.363,2.363,0,0,0,78.312.426a.731.731,0,0,1,.971-.359L98.259,8.8a.732.732,0,0,1,.359.972L92.759,22.5a.733.733,0,0,1-.666.426" transform="translate(-54.383 0)" fill="#344154"/>
        <path id="Trazado_595057" data-name="Trazado 595057" d="M79.208,24.539a2.3,2.3,0,1,1,.963-4.393h0a2.3,2.3,0,0,1-.964,4.393m0-3.139a.836.836,0,1,0,.349.076.838.838,0,0,0-.349-.076" transform="translate(-56.43 -14.628)" fill="#344154"/>
        <path id="Trazado_595058" data-name="Trazado 595058" d="M124.434,34.965a.727.727,0,0,1-.306-.067l-6.992-3.219a.732.732,0,1,1,.612-1.33l6.992,3.219a.732.732,0,0,1-.307,1.4" transform="translate(-85.636 -22.219)" fill="#344154"/>
        <path id="Trazado_595059" data-name="Trazado 595059" d="M120.2,44.17a.728.728,0,0,1-.306-.067L112.9,40.884a.732.732,0,0,1,.612-1.33l6.992,3.219a.732.732,0,0,1-.307,1.4" transform="translate(-82.527 -28.973)" fill="#344154"/>
        <path id="Trazado_595060" data-name="Trazado 595060" d="M115.959,53.375a.728.728,0,0,1-.306-.067l-6.992-3.219a.732.732,0,1,1,.612-1.33l6.992,3.219a.732.732,0,0,1-.307,1.4" transform="translate(-79.417 -35.727)" fill="#344154"/>
        <path id="Trazado_595061" data-name="Trazado 595061" d="M25.969,25.039a.732.732,0,0,1-.732-.716,10.1,10.1,0,0,1,3.52-7.838,10.451,10.451,0,0,1,9.234-1.979.732.732,0,1,1-.378,1.415A9.07,9.07,0,0,0,29.706,17.6a8.742,8.742,0,0,0-3,6.69.732.732,0,0,1-.716.748h-.016" transform="translate(-18.516 -10.394)" fill="#344154"/>
        <path id="Trazado_595062" data-name="Trazado 595062" d="M138.1,188.94a1.4,1.4,0,0,0,1.021-.931,1.436,1.436,0,0,0,0-.886c-.448-1.6-2.875-3.753-6.493-5.77a9.745,9.745,0,0,0-4.721-1.308c-.068,0-.135.006-.2.007a5.926,5.926,0,0,1,.521,1.2,6.738,6.738,0,0,1-1.723,6.317,10.018,10.018,0,0,1-3.975,2.515,30.428,30.428,0,0,0,4.07.256,54.275,54.275,0,0,0,11.5-1.4" transform="translate(-89.903 -132.107)" fill="#ffce1d"/>
      </g>
    </g>
  </g>
</svg>
