<svg xmlns="http://www.w3.org/2000/svg" width="55" height="55" viewBox="0 0 55 55">
  <g id="Grupo_874362" data-name="Grupo 874362" transform="translate(-1193 -3812)">
    <circle id="Elipse_4850" data-name="Elipse 4850" cx="27.5" cy="27.5" r="27.5" transform="translate(1193 3812)" fill="#ea3584"/>
    <path id="Trazado_596940" data-name="Trazado 596940" d="M-5.977-10.576l1.157-10.752H6.636v3.076h-8.5l-.586,5.1A6.585,6.585,0,0,1,.894-14a5.942,5.942,0,0,1,4.739,1.948A7.72,7.72,0,0,1,7.324-6.812,7.106,7.106,0,0,1,5.449-1.633,6.843,6.843,0,0,1,.308.293,7.167,7.167,0,0,1-4.548-1.37,6.011,6.011,0,0,1-6.636-5.757h3.442A3.759,3.759,0,0,0-2.08-3.376a3.386,3.386,0,0,0,2.373.828A3.06,3.06,0,0,0,2.849-3.721a5.058,5.058,0,0,0,.916-3.193A4.469,4.469,0,0,0,2.754-10,3.535,3.535,0,0,0-.029-11.133a4.63,4.63,0,0,0-1.641.256,4.647,4.647,0,0,0-1.465,1Z" transform="translate(1221 3850)" fill="#fff"/>
  </g>
</svg>
