<svg xmlns="http://www.w3.org/2000/svg" xmlns:xlink="http://www.w3.org/1999/xlink" width="85" height="85" viewBox="0 0 85 85">
  <defs>
    <clipPath id="clip-path">
      <rect id="Rect치ngulo_293152" data-name="Rect치ngulo 293152" width="44.866" height="62.537" fill="none"/>
    </clipPath>
  </defs>
  <g id="Grupo_873932" data-name="Grupo 873932" transform="translate(-180 -4297)">
    <rect id="Rect치ngulo_293151" data-name="Rect치ngulo 293151" width="85" height="85" rx="42.5" transform="translate(180 4297)" fill="#ffeeb0"/>
    <g id="Grupo_873919" data-name="Grupo 873919" transform="translate(201.006 4304.704)">
      <g id="Grupo_873918" data-name="Grupo 873918" clip-path="url(#clip-path)">
        <path id="Trazado_595091" data-name="Trazado 595091" d="M111.89,113.543a.763.763,0,0,1-.75-.891l.684-3.987a.479.479,0,0,0-.137-.424l-2.9-2.824a.761.761,0,0,1,.422-1.3l4-.582a.478.478,0,0,0,.36-.262l1.79-3.628a.761.761,0,0,1,1.365,0h0l1.79,3.628a.478.478,0,0,0,.36.262l4,.582a.761.761,0,0,1,.422,1.3l-2.9,2.824a.479.479,0,0,0-.138.424l.684,3.987a.761.761,0,0,1-1.105.8l-3.58-1.882a.477.477,0,0,0-.445,0l-3.581,1.883a.76.76,0,0,1-.355.088m4.158-3.249a1.7,1.7,0,0,1,.792.2l2.753,1.447-.526-3.065a1.7,1.7,0,0,1,.489-1.506l2.227-2.171-3.078-.447a1.7,1.7,0,0,1-1.281-.931l-1.376-2.789-1.376,2.789a1.7,1.7,0,0,1-1.281.931l-3.078.447,2.227,2.171a1.7,1.7,0,0,1,.489,1.506l-.526,3.065,2.753-1.447a1.7,1.7,0,0,1,.792-.2m6.661-4.965h0Zm-7.075-5.141h0" transform="translate(-84.42 -77.16)" fill="#344154"/>
        <path id="Trazado_595092" data-name="Trazado 595092" d="M41.937,141.575a.715.715,0,0,1-.7-.835l.464-2.7a.127.127,0,0,0-.037-.113L39.7,136.012a.713.713,0,0,1,.4-1.216l2.713-.394a.128.128,0,0,0,.1-.07l1.213-2.458a.713.713,0,0,1,1.279,0l1.213,2.459a.127.127,0,0,0,.1.069l2.713.394a.713.713,0,0,1,.4,1.216l-1.963,1.914a.127.127,0,0,0-.036.113l.463,2.7a.713.713,0,0,1-1.035.752l-2.427-1.276a.126.126,0,0,0-.118,0l-2.427,1.276a.712.712,0,0,1-.332.083m-.645-5.718,1.223,1.193a1.35,1.35,0,0,1,.388,1.195l-.289,1.684,1.512-.795a1.349,1.349,0,0,1,1.257,0l1.512.795-.289-1.684A1.35,1.35,0,0,1,47,137.05l1.223-1.193-1.691-.246a1.349,1.349,0,0,1-1.017-.738l-.756-1.532L44,134.873a1.35,1.35,0,0,1-1.017.738Zm7.95.149h0ZM44.3,132.415h0Z" transform="translate(-30.703 -102.241)" fill="#344154"/>
        <path id="Trazado_595093" data-name="Trazado 595093" d="M105.153,55.757H93.6a.611.611,0,0,1,0-1.223h11.556a.611.611,0,1,1,0,1.223" transform="translate(-72.309 -42.408)" fill="#344154"/>
        <path id="Trazado_595094" data-name="Trazado 595094" d="M42.355,87.4H6.084A3.791,3.791,0,0,1,2.3,83.614V57.3a.611.611,0,0,1,1.223,0V83.614a2.567,2.567,0,0,0,2.564,2.564H42.355a2.567,2.567,0,0,0,2.564-2.564V58.321a2.567,2.567,0,0,0-2.564-2.564H34.63a.611.611,0,0,1,0-1.223h7.725a3.791,3.791,0,0,1,3.787,3.787V83.614A3.791,3.791,0,0,1,42.355,87.4" transform="translate(-1.786 -42.408)" fill="#344154"/>
        <path id="Trazado_595095" data-name="Trazado 595095" d="M66.764,202.961H41.148a.611.611,0,0,1-.569-.837l1.937-4.9a.611.611,0,0,1,1.137.45l-1.607,4.061H65.864l-1.607-4.061a.611.611,0,1,1,1.137-.45l1.937,4.9a.612.612,0,0,1-.569.837" transform="translate(-31.523 -153.071)" fill="#344154"/>
        <path id="Trazado_595096" data-name="Trazado 595096" d="M42.743,245.722H2.124a2.121,2.121,0,0,1-1.855-3.149l3.709-6.692a.611.611,0,0,1,.535-.315H40.354a.611.611,0,0,1,.535.315l3.709,6.692a2.121,2.121,0,0,1-1.855,3.149m-37.87-8.934-3.534,6.377a.9.9,0,0,0,.786,1.333H42.743a.9.9,0,0,0,.785-1.333l-3.534-6.377Z" transform="translate(0 -183.185)" fill="#344154"/>
        <path id="Trazado_595097" data-name="Trazado 595097" d="M16.7,253.357l2.24-4.042H51.9l2.24,4.042Z" transform="translate(-12.987 -193.877)" fill="#ffce1d"/>
        <path id="Trazado_595098" data-name="Trazado 595098" d="M3.777,13.31a1.424,1.424,0,0,1-1.05-.388c-1.4-1.4,1.21-5.286,4.229-8.3s6.9-5.629,8.3-4.229-1.211,5.286-4.229,8.3C8.589,11.135,5.579,13.31,3.777,13.31m10.4-12.118c-.772,0-3.261,1.189-6.362,4.289-3.509,3.509-4.569,6.235-4.229,6.575s3.066-.72,6.575-4.229S14.736,1.593,14.4,1.253a.3.3,0,0,0-.213-.06" transform="translate(-1.818 0)" fill="#344154"/>
        <path id="Trazado_595099" data-name="Trazado 595099" d="M20.356,35.8a1.152,1.152,0,0,1-.817-.338l-1.6-1.6a1.157,1.157,0,0,1,0-1.635l4.8-4.8a.847.847,0,0,0-.074-1.263c-1.712-1.354-6.01-4.539-8.933-4.869a.612.612,0,0,1,.137-1.215c3.12.351,7.326,3.362,9.555,5.125a2.069,2.069,0,0,1,.181,3.087l-4.754,4.754,1.5,1.5,5.89-5.89a.611.611,0,0,1,.865,0l2.349,2.349a.137.137,0,0,0,.194,0l3.7-3.7a.138.138,0,0,0,0-.194l-4.8-4.8-.028-.03c-.229-.263-5.623-6.486-6.1-10.763a.612.612,0,0,1,1.215-.137c.428,3.8,5.5,9.74,5.8,10.08l4.781,4.781a1.36,1.36,0,0,1,0,1.924l-3.7,3.7a1.361,1.361,0,0,1-1.923,0L26.678,29.96l-5.5,5.5a1.152,1.152,0,0,1-.817.338" transform="translate(-10.257 -8.439)" fill="#344154"/>
        <path id="Trazado_595100" data-name="Trazado 595100" d="M91.207,91.024a2.467,2.467,0,0,1-1.751-.724l-.313-.313a.611.611,0,0,1,.865-.865l.313.313a1.253,1.253,0,0,0,1.772-1.772l-.313-.313a.612.612,0,0,1,.865-.865l.313.313a2.475,2.475,0,0,1-1.751,4.226" transform="translate(-69.182 -67.115)" fill="#344154"/>
        <path id="Trazado_595101" data-name="Trazado 595101" d="M67.557,87.21a.609.609,0,0,1-.432-.179l-1.188-1.188a.611.611,0,0,1,.865-.865l1.188,1.188a.611.611,0,0,1-.432,1.044" transform="translate(-51.136 -65.943)" fill="#344154"/>
      </g>
    </g>
  </g>
</svg>
