<svg xmlns="http://www.w3.org/2000/svg" width="295" height="350" viewBox="0 0 295 350">
  <g id="Grupo_874361" data-name="Grupo 874361" transform="translate(-181 -3868)">
    <rect id="Rectángulo_35182" data-name="Rectángulo 35182" width="295" height="350" rx="20" transform="translate(181 3868)" fill="#ffe0f0"/>
    <g id="demografia" transform="translate(267.07 3946.069)">
      <g id="Grupo_55815" data-name="Grupo 55815" transform="translate(10.678 10.678)">
        <path id="Trazado_102696" data-name="Trazado 102696" d="M63.193,12.931V63.193H12.931A50.263,50.263,0,0,1,63.193,12.931Z" transform="translate(-12.931 -12.931)" fill="#ea3584"/>
        <path id="Trazado_102697" data-name="Trazado 102697" d="M178.262,63.193a50.008,50.008,0,0,1-4.589,21L128,63.193V12.931A50.263,50.263,0,0,1,178.262,63.193Z" transform="translate(-77.738 -12.931)" fill="#f7e8b1"/>
        <path id="Trazado_102698" data-name="Trazado 102698" d="M108.866,149a50.268,50.268,0,0,1-95.935-21H63.193Z" transform="translate(-12.931 -77.738)" fill="#fffae7"/>
        <g id="Grupo_55812" data-name="Grupo 55812" transform="translate(66.838 17.804)">
          <circle id="Elipse_4149" data-name="Elipse 4149" cx="6.617" cy="6.617" r="6.617" transform="translate(1.07)" fill="#ffbb98"/>
          <path id="Trazado_102703" data-name="Trazado 102703" d="M181.324,103.616H165.95V91.675a7.687,7.687,0,1,1,15.374,0Z" transform="translate(-165.95 -70.754)" fill="#d2e1f1"/>
          <path id="Trazado_102704" data-name="Trazado 102704" d="M177.347,66.5a6.617,6.617,0,1,1,0-12.39,6.62,6.62,0,0,0,0,12.39Z" transform="translate(-167.331 -53.69)" fill="#ffcaa6"/>
          <path id="Trazado_102705" data-name="Trazado 102705" d="M175.966,84.349a7.69,7.69,0,0,0-5.358,7.327v11.94h-4.659V91.677a7.69,7.69,0,0,1,10.017-7.327Z" transform="translate(-165.949 -70.754)" fill="#b0c0d2"/>
        </g>
        <g id="Grupo_55813" data-name="Grupo 55813" transform="translate(29.681 57.251)">
          <circle id="Elipse_4150" data-name="Elipse 4150" cx="6.617" cy="6.617" r="6.617" transform="translate(1.07 0)" fill="#ffbb98"/>
          <path id="Trazado_102706" data-name="Trazado 102706" d="M96.258,193.927H80.884V181.986a7.687,7.687,0,1,1,15.374,0Z" transform="translate(-80.884 -161.065)" fill="#26ccda"/>
          <path id="Trazado_102707" data-name="Trazado 102707" d="M92.282,156.813a6.617,6.617,0,1,1,0-12.39,6.62,6.62,0,0,0,0,12.39Z" transform="translate(-82.265 -144.001)" fill="#ffcaa6"/>
        </g>
        <g id="Grupo_55814" data-name="Grupo 55814" transform="translate(24.137 11.632)">
          <circle id="Elipse_4151" data-name="Elipse 4151" cx="6.617" cy="6.617" r="6.617" transform="translate(1.07)" fill="#ffbb98"/>
          <path id="Trazado_102709" data-name="Trazado 102709" d="M83.565,89.487H68.191V77.546a7.687,7.687,0,0,1,15.374,0Z" transform="translate(-68.191 -56.625)" fill="#fdd835"/>
          <path id="Trazado_102710" data-name="Trazado 102710" d="M79.588,52.373a6.617,6.617,0,1,1,0-12.39,6.62,6.62,0,0,0,0,12.39Z" transform="translate(-69.572 -39.561)" fill="#ffcaa6"/>
          <path id="Trazado_102711" data-name="Trazado 102711" d="M78.207,70.22a7.69,7.69,0,0,0-5.358,7.327v11.94H68.19V77.548A7.69,7.69,0,0,1,78.207,70.22Z" transform="translate(-68.19 -56.625)" fill="#fdd835" style="mix-blend-mode: multiply;isolation: isolate"/>
        </g>
      </g>
      <g id="Grupo_55816" data-name="Grupo 55816" transform="translate(8.931 8.931)">
        <path id="Trazado_102712" data-name="Trazado 102712" d="M176.659,64.539a8.364,8.364,0,1,0-10.546,0,9.431,9.431,0,0,0-4.161,7.819V84.3a1.747,1.747,0,0,0,1.747,1.747h15.374A1.747,1.747,0,0,0,180.82,84.3V72.358A9.434,9.434,0,0,0,176.659,64.539Zm-5.273-11.356a4.87,4.87,0,1,1-4.87,4.87A4.876,4.876,0,0,1,171.385,53.183Zm5.94,29.368H165.446V72.358a5.94,5.94,0,1,1,11.879,0Z" transform="translate(-95.112 -31.886)"/>
        <path id="Trazado_102713" data-name="Trazado 102713" d="M91.592,154.85a8.361,8.361,0,1,0-10.547,0,9.432,9.432,0,0,0-4.161,7.819v11.941a1.747,1.747,0,0,0,1.747,1.747H94a1.747,1.747,0,0,0,1.747-1.747V162.668A9.431,9.431,0,0,0,91.592,154.85Zm-5.273-11.355a4.87,4.87,0,1,1-4.87,4.87A4.875,4.875,0,0,1,86.318,143.494Zm5.94,29.368H80.378V162.669a5.94,5.94,0,1,1,11.879,0Z" transform="translate(-47.202 -82.749)"/>
        <path id="Trazado_102714" data-name="Trazado 102714" d="M78.9,50.41a8.365,8.365,0,1,0-10.547,0,9.431,9.431,0,0,0-4.161,7.819V70.17a1.747,1.747,0,0,0,1.747,1.747H81.313A1.747,1.747,0,0,0,83.06,70.17V58.229A9.433,9.433,0,0,0,78.9,50.41ZM73.626,39.055a4.87,4.87,0,1,1-4.87,4.87A4.876,4.876,0,0,1,73.626,39.055Zm5.94,29.368H67.686V58.229a5.94,5.94,0,0,1,11.879,0Z" transform="translate(-40.054 -23.929)"/>
        <path id="Trazado_102715" data-name="Trazado 102715" d="M60.94,8.931A52.009,52.009,0,1,0,112.95,60.94,52.068,52.068,0,0,0,60.94,8.931Zm-1.747,3.525V59.193H12.456A48.576,48.576,0,0,1,59.193,12.456Zm1.747,97A48.574,48.574,0,0,1,12.456,62.688h48.1L96.419,79.179l7.848,3.609A48.685,48.685,0,0,1,60.94,109.455Zm1.747-49.635V12.456A48.574,48.574,0,0,1,109.455,60.94a48.067,48.067,0,0,1-3.725,18.673Z" transform="translate(-8.931 -8.931)"/>
        <path id="Trazado_102716" data-name="Trazado 102716" d="M156.977,199.787c-8.147,6.194-14.73,6.543-14.829,6.548a1.747,1.747,0,0,0,.118,3.493c.31-.01,7.7-.321,16.826-7.259a1.747,1.747,0,0,0-2.115-2.782Z" transform="translate(-83.01 -116.22)"/>
        <path id="Trazado_102717" data-name="Trazado 102717" d="M191.6,182.154c-1.011,1.195-2.062,2.338-3.124,3.4a1.747,1.747,0,0,0,2.469,2.473c1.131-1.128,2.249-2.344,3.323-3.614a1.747,1.747,0,0,0-2.668-2.257Z" transform="translate(-109.76 -106.141)"/>
      </g>
    </g>
    <path id="Trazado_596923" data-name="Trazado 596923" d="M31.893,21V6.781h4.375a6.644,6.644,0,0,1,3.354.845,5.89,5.89,0,0,1,2.31,2.4,7.41,7.41,0,0,1,.83,3.54v.654a7.431,7.431,0,0,1-.815,3.525,5.84,5.84,0,0,1-2.3,2.393A6.694,6.694,0,0,1,36.3,21Zm2.93-11.846v9.492h1.416a3.181,3.181,0,0,0,2.627-1.123,5.075,5.075,0,0,0,.928-3.213v-.752a5.156,5.156,0,0,0-.9-3.286,3.171,3.171,0,0,0-2.627-1.118ZM49.568,21.2a5.187,5.187,0,0,1-3.784-1.426,5.068,5.068,0,0,1-1.46-3.8V15.7a6.383,6.383,0,0,1,.615-2.847,4.515,4.515,0,0,1,1.743-1.934,4.893,4.893,0,0,1,2.573-.679,4.385,4.385,0,0,1,3.413,1.367,5.555,5.555,0,0,1,1.245,3.877v1.152H47.186a2.622,2.622,0,0,0,.825,1.66,2.5,2.5,0,0,0,1.743.625A3.046,3.046,0,0,0,52.3,17.738l1.387,1.553a4.237,4.237,0,0,1-1.719,1.4A5.639,5.639,0,0,1,49.568,21.2Zm-.322-8.682a1.764,1.764,0,0,0-1.362.569,2.946,2.946,0,0,0-.669,1.628h3.926v-.226a2.1,2.1,0,0,0-.508-1.457A1.819,1.819,0,0,0,49.246,12.514ZM58.494,21H55.662V6h2.832Zm5.3,0H60.965V10.434H63.8Zm-3-13.3a1.39,1.39,0,0,1,.425-1.045,1.831,1.831,0,0,1,2.31,0,1.382,1.382,0,0,1,.43,1.045,1.386,1.386,0,0,1-.435,1.055,1.81,1.81,0,0,1-2.295,0A1.386,1.386,0,0,1,60.8,7.7Zm7.969,2.734.088,1.182a3.713,3.713,0,0,1,3.037-1.377,2.818,2.818,0,0,1,2.8,1.611,3.628,3.628,0,0,1,3.174-1.611,3.152,3.152,0,0,1,2.559,1,4.6,4.6,0,0,1,.84,3.013V21H78.436V14.262a2.012,2.012,0,0,0-.352-1.313,1.558,1.558,0,0,0-1.24-.415,1.762,1.762,0,0,0-1.758,1.211L75.1,21H72.273V14.271a1.988,1.988,0,0,0-.361-1.328,1.573,1.573,0,0,0-1.23-.41,1.829,1.829,0,0,0-1.738,1V21H66.121V10.434ZM86.414,21H83.582V10.434h2.832Zm-3-13.3a1.39,1.39,0,0,1,.425-1.045,1.831,1.831,0,0,1,2.31,0A1.382,1.382,0,0,1,86.58,7.7a1.386,1.386,0,0,1-.435,1.055,1.81,1.81,0,0,1-2.295,0A1.386,1.386,0,0,1,83.416,7.7Zm8.7.137v2.6h1.807V12.5H92.117v5.273a1.259,1.259,0,0,0,.225.84,1.128,1.128,0,0,0,.859.254,4.5,4.5,0,0,0,.83-.068v2.139a5.81,5.81,0,0,1-1.709.254q-2.969,0-3.027-3V12.5H87.752v-2.07h1.543v-2.6ZM101.619,21a3.134,3.134,0,0,1-.283-.947A3.415,3.415,0,0,1,98.67,21.2a3.752,3.752,0,0,1-2.573-.9,2.89,2.89,0,0,1-1.021-2.266,2.986,2.986,0,0,1,1.245-2.578,6.144,6.144,0,0,1,3.6-.908h1.3v-.605a1.741,1.741,0,0,0-.376-1.172,1.479,1.479,0,0,0-1.187-.439,1.682,1.682,0,0,0-1.118.342,1.161,1.161,0,0,0-.405.938H95.311a2.835,2.835,0,0,1,.566-1.7,3.744,3.744,0,0,1,1.6-1.226,5.837,5.837,0,0,1,2.324-.444,4.611,4.611,0,0,1,3.1.981,3.433,3.433,0,0,1,1.147,2.759v4.58a5.052,5.052,0,0,0,.42,2.275V21Zm-2.334-1.963a2.431,2.431,0,0,0,1.152-.278,1.828,1.828,0,0,0,.781-.747V16.2h-1.055q-2.119,0-2.256,1.465l-.01.166a1.13,1.13,0,0,0,.371.869A1.441,1.441,0,0,0,99.285,19.037Zm11.328-.117a1.851,1.851,0,0,0,1.27-.43,1.506,1.506,0,0,0,.508-1.143h2.646a3.62,3.62,0,0,1-.586,1.968,3.866,3.866,0,0,1-1.577,1.387,4.936,4.936,0,0,1-2.212.493,4.587,4.587,0,0,1-3.574-1.44,5.7,5.7,0,0,1-1.309-3.979V15.59a5.635,5.635,0,0,1,1.3-3.9,4.534,4.534,0,0,1,3.564-1.455,4.444,4.444,0,0,1,3.179,1.128,3.994,3.994,0,0,1,1.216,3h-2.646a1.939,1.939,0,0,0-.508-1.34,1.887,1.887,0,0,0-2.778.2,4.166,4.166,0,0,0-.5,2.333v.293a4.219,4.219,0,0,0,.5,2.347A1.721,1.721,0,0,0,110.613,18.92ZM119.627,21h-2.832V10.434h2.832Zm-3-13.3a1.39,1.39,0,0,1,.425-1.045,1.831,1.831,0,0,1,2.31,0,1.382,1.382,0,0,1,.43,1.045,1.386,1.386,0,0,1-.435,1.055,1.81,1.81,0,0,1-2.295,0A1.386,1.386,0,0,1,116.629,7.7Zm4.883,7.92a6.266,6.266,0,0,1,.605-2.8,4.432,4.432,0,0,1,1.743-1.9,5.086,5.086,0,0,1,2.642-.674,4.812,4.812,0,0,1,3.491,1.309A5.252,5.252,0,0,1,131.5,15.1l.02.723a5.523,5.523,0,0,1-1.357,3.9,5.261,5.261,0,0,1-7.29,0,5.62,5.62,0,0,1-1.362-3.984Zm2.822.2a3.95,3.95,0,0,0,.566,2.3,2.035,2.035,0,0,0,3.223.01,4.322,4.322,0,0,0,.576-2.518,3.91,3.91,0,0,0-.576-2.289,1.873,1.873,0,0,0-1.621-.812,1.842,1.842,0,0,0-1.6.807A4.395,4.395,0,0,0,124.334,15.819ZM127.059,6h3.076L127.43,9.027h-2.295Zm8.8,4.434.088,1.221a3.689,3.689,0,0,1,3.037-1.416,3.066,3.066,0,0,1,2.5.986,4.6,4.6,0,0,1,.84,2.949V21H139.5V14.242a1.831,1.831,0,0,0-.391-1.3,1.749,1.749,0,0,0-1.3-.405,1.942,1.942,0,0,0-1.787,1.016V21H133.2V10.434ZM30.916,41.639A6.368,6.368,0,0,1,32.024,37.7a3.6,3.6,0,0,1,3.032-1.465,3.236,3.236,0,0,1,2.549,1.152V32h2.832V47H37.889l-.137-1.123A3.321,3.321,0,0,1,35.037,47.2a3.587,3.587,0,0,1-2.993-1.47A6.573,6.573,0,0,1,30.916,41.639Zm2.822.21a4.171,4.171,0,0,0,.518,2.279,1.686,1.686,0,0,0,1.5.792,1.888,1.888,0,0,0,1.846-1.105V39.638a1.861,1.861,0,0,0-1.826-1.105Q33.738,38.533,33.738,41.849ZM47.488,47.2A5.187,5.187,0,0,1,43.7,45.77a5.068,5.068,0,0,1-1.46-3.8V41.7a6.383,6.383,0,0,1,.615-2.847A4.515,4.515,0,0,1,44.6,36.917a4.893,4.893,0,0,1,2.573-.679,4.385,4.385,0,0,1,3.413,1.367,5.555,5.555,0,0,1,1.245,3.877v1.152H45.105a2.622,2.622,0,0,0,.825,1.66,2.494,2.494,0,0,0,1.743.625,3.046,3.046,0,0,0,2.549-1.182l1.387,1.553a4.237,4.237,0,0,1-1.719,1.4A5.639,5.639,0,0,1,47.488,47.2Zm-.322-8.682a1.764,1.764,0,0,0-1.362.569,2.946,2.946,0,0,0-.669,1.628h3.926v-.226a2.1,2.1,0,0,0-.508-1.457A1.819,1.819,0,0,0,47.166,38.514Zm8.916-2.08.088,1.182a3.713,3.713,0,0,1,3.037-1.377,2.818,2.818,0,0,1,2.8,1.611,3.628,3.628,0,0,1,3.174-1.611,3.152,3.152,0,0,1,2.559,1,4.6,4.6,0,0,1,.84,3.013V47H65.75V40.262a2.012,2.012,0,0,0-.352-1.313,1.558,1.558,0,0,0-1.24-.415A1.761,1.761,0,0,0,62.4,39.744L62.41,47H59.588V40.271a1.988,1.988,0,0,0-.361-1.328,1.573,1.573,0,0,0-1.23-.41,1.829,1.829,0,0,0-1.738,1V47H53.436V36.434Zm14.229,5.186a6.266,6.266,0,0,1,.605-2.8,4.432,4.432,0,0,1,1.743-1.9,5.086,5.086,0,0,1,2.642-.674,4.812,4.812,0,0,1,3.491,1.309A5.252,5.252,0,0,1,80.3,41.1l.02.723a5.523,5.523,0,0,1-1.357,3.9,5.261,5.261,0,0,1-7.29,0,5.62,5.62,0,0,1-1.362-3.984Zm2.822.2a3.95,3.95,0,0,0,.566,2.3,2.035,2.035,0,0,0,3.223.01,4.322,4.322,0,0,0,.576-2.518,3.91,3.91,0,0,0-.576-2.289,1.873,1.873,0,0,0-1.621-.812,1.842,1.842,0,0,0-1.6.807A4.395,4.395,0,0,0,73.133,41.819Zm8.516-.181a6.193,6.193,0,0,1,1.157-3.916,3.75,3.75,0,0,1,3.12-1.484,3.289,3.289,0,0,1,2.705,1.191l.117-1h2.559V46.648a4.516,4.516,0,0,1-.63,2.412A4.045,4.045,0,0,1,88.9,50.623a6.231,6.231,0,0,1-2.676.537,5.794,5.794,0,0,1-2.266-.464,4.021,4.021,0,0,1-1.67-1.2l1.25-1.719A3.306,3.306,0,0,0,86.1,48.963a2.42,2.42,0,0,0,1.748-.6,2.253,2.253,0,0,0,.625-1.7v-.566a3.264,3.264,0,0,1-2.568,1.1,3.74,3.74,0,0,1-3.081-1.489,6.191,6.191,0,0,1-1.177-3.95Zm2.822.21a3.856,3.856,0,0,0,.576,2.254,1.833,1.833,0,0,0,1.582.817,1.96,1.96,0,0,0,1.846-.968V39.5a1.955,1.955,0,0,0-1.826-.968,1.844,1.844,0,0,0-1.6.831A4.346,4.346,0,0,0,84.471,41.849ZM99.412,39.08A7.667,7.667,0,0,0,98.4,39a2.067,2.067,0,0,0-2.1,1.084V47H93.475V36.434h2.666l.078,1.26a2.615,2.615,0,0,1,2.354-1.455,2.957,2.957,0,0,1,.879.127Zm7.48,7.92a3.134,3.134,0,0,1-.283-.947,3.415,3.415,0,0,1-2.666,1.143,3.752,3.752,0,0,1-2.573-.9,2.89,2.89,0,0,1-1.021-2.266,2.986,2.986,0,0,1,1.245-2.578,6.144,6.144,0,0,1,3.6-.908h1.3v-.605a1.741,1.741,0,0,0-.376-1.172,1.479,1.479,0,0,0-1.187-.439,1.682,1.682,0,0,0-1.118.342,1.161,1.161,0,0,0-.405.938h-2.822a2.835,2.835,0,0,1,.566-1.7,3.744,3.744,0,0,1,1.6-1.226,5.837,5.837,0,0,1,2.324-.444,4.611,4.611,0,0,1,3.1.981,3.433,3.433,0,0,1,1.147,2.759v4.58a5.052,5.052,0,0,0,.42,2.275V47Zm-2.334-1.963a2.431,2.431,0,0,0,1.152-.278,1.828,1.828,0,0,0,.781-.747V42.2h-1.055q-2.119,0-2.256,1.465l-.01.166a1.13,1.13,0,0,0,.371.869A1.441,1.441,0,0,0,104.559,45.037ZM105.633,32h3.076L106,35.027h-2.295Zm6.543,15V38.5H110.6v-2.07h1.572v-.488a3.963,3.963,0,0,1,1.226-3.071,4.931,4.931,0,0,1,3.4-1.079,11.289,11.289,0,0,1,3.2.576l-.41,2.334a12.5,12.5,0,0,0-1.484-.366,7.293,7.293,0,0,0-1.133-.083q-1.973,0-1.973,1.748v.43h2.08V38.5h-2.08V47Zm9.15,0h-2.832V36.434h2.832Zm6.729-2.08a1.851,1.851,0,0,0,1.27-.43,1.506,1.506,0,0,0,.508-1.143h2.646a3.62,3.62,0,0,1-.586,1.968,3.866,3.866,0,0,1-1.577,1.387,4.936,4.936,0,0,1-2.212.493,4.587,4.587,0,0,1-3.574-1.44,5.7,5.7,0,0,1-1.309-3.979V41.59a5.635,5.635,0,0,1,1.3-3.9,4.534,4.534,0,0,1,3.564-1.455,4.444,4.444,0,0,1,3.179,1.128,3.994,3.994,0,0,1,1.216,3h-2.646a1.939,1.939,0,0,0-.508-1.34,1.887,1.887,0,0,0-2.778.2,4.166,4.166,0,0,0-.5,2.333v.293a4.219,4.219,0,0,0,.5,2.347A1.721,1.721,0,0,0,128.055,44.92ZM140.213,47a3.134,3.134,0,0,1-.283-.947,3.415,3.415,0,0,1-2.666,1.143,3.752,3.752,0,0,1-2.573-.9,2.889,2.889,0,0,1-1.021-2.266,2.986,2.986,0,0,1,1.245-2.578,6.144,6.144,0,0,1,3.6-.908h1.3v-.605a1.741,1.741,0,0,0-.376-1.172,1.479,1.479,0,0,0-1.187-.439,1.682,1.682,0,0,0-1.118.342,1.161,1.161,0,0,0-.405.938H133.9a2.835,2.835,0,0,1,.566-1.7,3.744,3.744,0,0,1,1.6-1.226,5.837,5.837,0,0,1,2.324-.444,4.611,4.611,0,0,1,3.1.981,3.433,3.433,0,0,1,1.147,2.759v4.58a5.052,5.052,0,0,0,.42,2.275V47Zm-2.334-1.963a2.431,2.431,0,0,0,1.152-.278,1.828,1.828,0,0,0,.781-.747V42.2h-1.055q-2.119,0-2.256,1.465l-.01.166a1.13,1.13,0,0,0,.371.869A1.441,1.441,0,0,0,137.879,45.037Z" transform="translate(242.715 4109.5)" fill="#12263f"/>
  </g>
</svg>
