<svg id="Grupo_874307" data-name="Grupo 874307" xmlns="http://www.w3.org/2000/svg" xmlns:xlink="http://www.w3.org/1999/xlink" width="1328" height="859.021" viewBox="0 0 1328 859.021">
  <defs>
    <linearGradient id="linear-gradient" x1="0.5" x2="0.5" y2="1" gradientUnits="objectBoundingBox">
      <stop offset="0" stop-color="#fff"/>
      <stop offset="1" stop-color="#fff0f8"/>
    </linearGradient>
    <linearGradient id="linear-gradient-2" y1="1" y2="0" xlink:href="#linear-gradient"/>
    <clipPath id="clip-path">
      <rect id="Rectángulo_42710" data-name="Rectángulo 42710" width="466.305" height="421.129" fill="#fff"/>
    </clipPath>
  </defs>
  <g id="Grupo_870592" data-name="Grupo 870592">
    <path id="Trazado_217912" data-name="Trazado 217912" d="M1328,0H0V858.893H1328Z" fill="#fff0f8"/>
    <rect id="Rectángulo_42708" data-name="Rectángulo 42708" width="1328" height="77" transform="translate(0 0.235)" fill="url(#linear-gradient)"/>
    <rect id="Rectángulo_42709" data-name="Rectángulo 42709" width="1328" height="77" transform="translate(0 782.021)" fill="url(#linear-gradient-2)"/>
  </g>
  <g id="Grupo_870594" data-name="Grupo 870594" transform="translate(861.695)">
    <g id="Grupo_870593" data-name="Grupo 870593" clip-path="url(#clip-path)">
      <path id="Trazado_212654" data-name="Trazado 212654" d="M6.429,12.787A6.377,6.377,0,0,1,0,6.463,6.377,6.377,0,0,1,6.429.139a6.377,6.377,0,0,1,6.429,6.324,6.377,6.377,0,0,1-6.429,6.324" transform="translate(453.448 -0.034)" fill="#fff"/>
      <path id="Trazado_212655" data-name="Trazado 212655" d="M28.41,12.858a6.482,6.482,0,0,1-6.535-6.428,6.536,6.536,0,0,1,13.07,0,6.482,6.482,0,0,1-6.535,6.428" transform="translate(412.308 0)" fill="#fff"/>
      <path id="Trazado_212656" data-name="Trazado 212656" d="M50.424,12.787A6.377,6.377,0,0,1,44,6.463a6.43,6.43,0,0,1,12.857,0,6.377,6.377,0,0,1-6.429,6.324" transform="translate(371.134 -0.034)" fill="#fff"/>
      <path id="Trazado_212657" data-name="Trazado 212657" d="M72.452,10.154c-3.433,0-6.216-2.18-6.216-4.87S69.02.414,72.452.414s6.216,2.181,6.216,4.871-2.783,4.87-6.216,4.87" transform="translate(329.947 -0.1)" fill="#fff"/>
      <path id="Trazado_212658" data-name="Trazado 212658" d="M94.49,12.466a5.9,5.9,0,0,1-5.951-5.854,5.951,5.951,0,0,1,11.9,0,5.9,5.9,0,0,1-5.951,5.854" transform="translate(288.75 -0.184)" fill="#fff"/>
      <path id="Trazado_212659" data-name="Trazado 212659" d="M116.534,12.253a5.587,5.587,0,0,1-5.632-5.54,5.633,5.633,0,0,1,11.263,0,5.586,5.586,0,0,1-5.632,5.54" transform="translate(247.546 -0.284)" fill="#fff"/>
      <path id="Trazado_212660" data-name="Trazado 212660" d="M138.571,12.075A5.323,5.323,0,0,1,133.205,6.8a5.367,5.367,0,0,1,10.732,0,5.323,5.323,0,0,1-5.366,5.278" transform="translate(206.349 -0.367)" fill="#fff"/>
      <path id="Trazado_212661" data-name="Trazado 212661" d="M160.615,11.861A5.007,5.007,0,0,1,155.568,6.9a5.048,5.048,0,0,1,10.095,0,5.007,5.007,0,0,1-5.047,4.965" transform="translate(165.146 -0.467)" fill="#fff"/>
      <path id="Trazado_212662" data-name="Trazado 212662" d="M182.653,11.683a4.743,4.743,0,0,1-4.782-4.7,4.782,4.782,0,0,1,9.563,0,4.743,4.743,0,0,1-4.782,4.7" transform="translate(123.949 -0.55)" fill="#fff"/>
      <path id="Trazado_212663" data-name="Trazado 212663" d="M204.7,11.47a4.427,4.427,0,0,1-4.463-4.39,4.464,4.464,0,0,1,8.926,0,4.427,4.427,0,0,1-4.463,4.39" transform="translate(82.746 -0.651)" fill="#fff"/>
      <path id="Trazado_212664" data-name="Trazado 212664" d="M226.734,11.292a4.129,4.129,0,1,1,4.2-4.128,4.163,4.163,0,0,1-4.2,4.128" transform="translate(41.549 -0.734)" fill="#fff"/>
      <path id="Trazado_212665" data-name="Trazado 212665" d="M248.778,11.078a3.816,3.816,0,1,1,3.878-3.815,3.847,3.847,0,0,1-3.878,3.815" transform="translate(0.346 -0.834)" fill="#fff"/>
      <path id="Trazado_212666" data-name="Trazado 212666" d="M270.816,10.9a3.554,3.554,0,1,1,3.613-3.554,3.584,3.584,0,0,1-3.613,3.554" transform="translate(-40.851 -0.918)" fill="#fff"/>
      <path id="Trazado_212667" data-name="Trazado 212667" d="M292.86,10.687a3.241,3.241,0,1,1,3.294-3.241,3.268,3.268,0,0,1-3.294,3.241" transform="translate(-82.055 -1.018)" fill="#fff"/>
      <path id="Trazado_212668" data-name="Trazado 212668" d="M314.9,10.508a2.98,2.98,0,1,1,3.028-2.979,3,3,0,0,1-3.028,2.979" transform="translate(-123.25 -1.101)" fill="#fff"/>
      <path id="Trazado_212669" data-name="Trazado 212669" d="M336.942,10.3a2.666,2.666,0,1,1,2.71-2.665,2.688,2.688,0,0,1-2.71,2.665" transform="translate(-164.455 -1.201)" fill="#fff"/>
      <path id="Trazado_212670" data-name="Trazado 212670" d="M358.978,10.117a2.4,2.4,0,1,1,2.444-2.4,2.424,2.424,0,0,1-2.444,2.4" transform="translate(-205.65 -1.284)" fill="#fff"/>
      <path id="Trazado_212671" data-name="Trazado 212671" d="M381.023,9.9a2.091,2.091,0,1,1,2.125-2.091A2.108,2.108,0,0,1,381.023,9.9" transform="translate(-246.855 -1.385)" fill="#fff"/>
      <path id="Trazado_212672" data-name="Trazado 212672" d="M403.067,9.69a1.777,1.777,0,1,1,1.806-1.777,1.792,1.792,0,0,1-1.806,1.777" transform="translate(-288.058 -1.484)" fill="#fff"/>
      <path id="Trazado_212673" data-name="Trazado 212673" d="M425.1,9.513A1.516,1.516,0,1,1,426.645,8,1.528,1.528,0,0,1,425.1,9.513" transform="translate(-329.255 -1.568)" fill="#fff"/>
      <path id="Trazado_212674" data-name="Trazado 212674" d="M447.149,9.3a1.2,1.2,0,1,1,1.222-1.2,1.212,1.212,0,0,1-1.222,1.2" transform="translate(-370.458 -1.668)" fill="#fff"/>
      <path id="Trazado_212675" data-name="Trazado 212675" d="M469.186,9.121a.941.941,0,1,1,.956-.941.949.949,0,0,1-.956.941" transform="translate(-411.656 -1.751)" fill="#fff"/>
      <path id="Trazado_212676" data-name="Trazado 212676" d="M491.23,8.908a.627.627,0,1,1,.638-.627.632.632,0,0,1-.638.627" transform="translate(-452.859 -1.852)" fill="#fff"/>
      <path id="Trazado_212677" data-name="Trazado 212677" d="M513.268,8.73a.366.366,0,1,1,.372-.366.369.369,0,0,1-.372.366" transform="translate(-494.056 -1.935)" fill="#fff"/>
      <path id="Trazado_212678" data-name="Trazado 212678" d="M535.312,8.516a.052.052,0,0,1-.053-.052.053.053,0,0,1,.106,0,.052.052,0,0,1-.053.052" transform="translate(-535.259 -2.035)" fill="#fff"/>
      <path id="Trazado_212679" data-name="Trazado 212679" d="M6.468,37.471a6.063,6.063,0,1,1,0-12.125,6.063,6.063,0,1,1,0,12.125" transform="translate(453.408 -6.132)" fill="#fff"/>
      <path id="Trazado_212680" data-name="Trazado 212680" d="M28.449,37.543a6.168,6.168,0,1,1,6.269-6.167,6.219,6.219,0,0,1-6.269,6.167" transform="translate(412.268 -6.099)" fill="#fff"/>
      <path id="Trazado_212681" data-name="Trazado 212681" d="M50.455,37.507a6.116,6.116,0,1,1,6.216-6.115,6.167,6.167,0,0,1-6.216,6.115" transform="translate(371.103 -6.115)" fill="#fff"/>
      <path id="Trazado_212682" data-name="Trazado 212682" d="M72.484,37.364a5.907,5.907,0,1,1,6-5.906,5.955,5.955,0,0,1-6,5.906" transform="translate(329.915 -6.182)" fill="#fff"/>
      <path id="Trazado_212683" data-name="Trazado 212683" d="M94.513,37.222a5.7,5.7,0,1,1,5.791-5.7,5.745,5.745,0,0,1-5.791,5.7" transform="translate(288.726 -6.249)" fill="#fff"/>
      <path id="Trazado_212684" data-name="Trazado 212684" d="M116.549,37.044a5.436,5.436,0,1,1,5.525-5.435,5.481,5.481,0,0,1-5.525,5.435" transform="translate(247.531 -6.332)" fill="#fff"/>
      <path id="Trazado_212685" data-name="Trazado 212685" d="M138.587,36.866a5.175,5.175,0,1,1,5.26-5.174,5.218,5.218,0,0,1-5.26,5.174" transform="translate(206.334 -6.416)" fill="#fff"/>
      <path id="Trazado_212686" data-name="Trazado 212686" d="M160.623,36.688a4.914,4.914,0,1,1,4.994-4.913,4.954,4.954,0,0,1-4.994,4.913" transform="translate(165.138 -6.499)" fill="#fff"/>
      <path id="Trazado_212687" data-name="Trazado 212687" d="M182.661,36.51a4.652,4.652,0,1,1,4.729-4.652,4.691,4.691,0,0,1-4.729,4.652" transform="translate(123.941 -6.582)" fill="#fff"/>
      <path id="Trazado_212688" data-name="Trazado 212688" d="M204.7,36.3a4.339,4.339,0,1,1,4.41-4.338A4.374,4.374,0,0,1,204.7,36.3" transform="translate(82.738 -6.682)" fill="#fff"/>
      <path id="Trazado_212689" data-name="Trazado 212689" d="M226.742,36.119a4.077,4.077,0,1,1,4.144-4.077,4.111,4.111,0,0,1-4.144,4.077" transform="translate(41.541 -6.766)" fill="#fff"/>
      <path id="Trazado_212690" data-name="Trazado 212690" d="M248.786,35.905a3.764,3.764,0,1,1,3.825-3.763,3.795,3.795,0,0,1-3.825,3.763" transform="translate(0.338 -6.866)" fill="#fff"/>
      <path id="Trazado_212691" data-name="Trazado 212691" d="M270.824,35.727a3.5,3.5,0,1,1,3.56-3.5,3.531,3.531,0,0,1-3.56,3.5" transform="translate(-40.859 -6.949)" fill="#fff"/>
      <path id="Trazado_212692" data-name="Trazado 212692" d="M292.868,35.514a3.188,3.188,0,1,1,3.241-3.188,3.215,3.215,0,0,1-3.241,3.188" transform="translate(-82.062 -7.049)" fill="#fff"/>
      <path id="Trazado_212693" data-name="Trazado 212693" d="M314.9,35.336a2.927,2.927,0,1,1,2.975-2.927,2.951,2.951,0,0,1-2.975,2.927" transform="translate(-123.258 -7.133)" fill="#fff"/>
      <path id="Trazado_212694" data-name="Trazado 212694" d="M336.942,35.158a2.666,2.666,0,1,1,2.71-2.665,2.688,2.688,0,0,1-2.71,2.665" transform="translate(-164.455 -7.216)" fill="#fff"/>
      <path id="Trazado_212695" data-name="Trazado 212695" d="M358.986,34.945a2.352,2.352,0,1,1,2.391-2.352,2.372,2.372,0,0,1-2.391,2.352" transform="translate(-205.658 -7.316)" fill="#fff"/>
      <path id="Trazado_212696" data-name="Trazado 212696" d="M381.031,34.731a2.039,2.039,0,1,1,2.072-2.038,2.055,2.055,0,0,1-2.072,2.038" transform="translate(-246.863 -7.416)" fill="#fff"/>
      <path id="Trazado_212697" data-name="Trazado 212697" d="M403.067,34.553a1.777,1.777,0,1,1,1.806-1.777,1.792,1.792,0,0,1-1.806,1.777" transform="translate(-288.058 -7.5)" fill="#fff"/>
      <path id="Trazado_212698" data-name="Trazado 212698" d="M425.113,34.339a1.464,1.464,0,1,1,1.488-1.463,1.476,1.476,0,0,1-1.488,1.463" transform="translate(-329.263 -7.6)" fill="#fff"/>
      <path id="Trazado_212699" data-name="Trazado 212699" d="M447.149,34.162a1.2,1.2,0,1,1,1.222-1.2,1.212,1.212,0,0,1-1.222,1.2" transform="translate(-370.458 -7.683)" fill="#fff"/>
      <path id="Trazado_212700" data-name="Trazado 212700" d="M469.194,33.948a.889.889,0,1,1,.9-.888.9.9,0,0,1-.9.888" transform="translate(-411.663 -7.783)" fill="#fff"/>
      <path id="Trazado_212701" data-name="Trazado 212701" d="M491.23,33.77a.627.627,0,1,1,.638-.626.632.632,0,0,1-.638.626" transform="translate(-452.859 -7.867)" fill="#fff"/>
      <path id="Trazado_212702" data-name="Trazado 212702" d="M513.276,33.557a.314.314,0,1,1,.319-.314.316.316,0,0,1-.319.314" transform="translate(-494.064 -7.967)" fill="#fff"/>
      <path id="Trazado_212703" data-name="Trazado 212703" d="M535.312,33.379a.052.052,0,1,1,.053-.052.053.053,0,0,1-.053.052" transform="translate(-535.259 -8.05)" fill="#fff"/>
      <path id="Trazado_212704" data-name="Trazado 212704" d="M6.507,62.156a5.8,5.8,0,1,1,0-11.6,5.8,5.8,0,1,1,0,11.6" transform="translate(453.369 -12.231)" fill="#fff"/>
      <path id="Trazado_212705" data-name="Trazado 212705" d="M28.5,62.192a5.854,5.854,0,1,1,5.951-5.854A5.9,5.9,0,0,1,28.5,62.192" transform="translate(412.221 -12.214)" fill="#fff"/>
      <path id="Trazado_212706" data-name="Trazado 212706" d="M50.495,62.192a5.854,5.854,0,1,1,5.951-5.854,5.9,5.9,0,0,1-5.951,5.854" transform="translate(371.063 -12.214)" fill="#fff"/>
      <path id="Trazado_212707" data-name="Trazado 212707" d="M72.515,62.085a5.7,5.7,0,1,1,5.791-5.7,5.745,5.745,0,0,1-5.791,5.7" transform="translate(329.884 -12.264)" fill="#fff"/>
      <path id="Trazado_212708" data-name="Trazado 212708" d="M94.537,61.978a5.541,5.541,0,1,1,5.632-5.54,5.586,5.586,0,0,1-5.632,5.54" transform="translate(288.702 -12.314)" fill="#fff"/>
      <path id="Trazado_212709" data-name="Trazado 212709" d="M116.565,61.835a5.332,5.332,0,1,1,5.419-5.331,5.376,5.376,0,0,1-5.419,5.331" transform="translate(247.515 -12.38)" fill="#fff"/>
      <path id="Trazado_212710" data-name="Trazado 212710" d="M138.6,61.657a5.07,5.07,0,1,1,5.154-5.069,5.112,5.112,0,0,1-5.154,5.069" transform="translate(206.318 -12.464)" fill="#fff"/>
      <path id="Trazado_212711" data-name="Trazado 212711" d="M160.639,61.48a4.809,4.809,0,1,1,4.888-4.808,4.849,4.849,0,0,1-4.888,4.808" transform="translate(165.123 -12.547)" fill="#fff"/>
      <path id="Trazado_212712" data-name="Trazado 212712" d="M182.676,61.3a4.548,4.548,0,1,1,4.622-4.547,4.585,4.585,0,0,1-4.622,4.547" transform="translate(123.925 -12.631)" fill="#fff"/>
      <path id="Trazado_212713" data-name="Trazado 212713" d="M204.721,61.088a4.234,4.234,0,1,1,4.3-4.233,4.269,4.269,0,0,1-4.3,4.233" transform="translate(82.722 -12.731)" fill="#fff"/>
      <path id="Trazado_212714" data-name="Trazado 212714" d="M226.758,60.911a3.973,3.973,0,1,1,4.038-3.972,4.006,4.006,0,0,1-4.038,3.972" transform="translate(41.525 -12.814)" fill="#fff"/>
      <path id="Trazado_212715" data-name="Trazado 212715" d="M248.794,60.732a3.711,3.711,0,1,1,3.772-3.711,3.742,3.742,0,0,1-3.772,3.711" transform="translate(0.33 -12.898)" fill="#fff"/>
      <path id="Trazado_212716" data-name="Trazado 212716" d="M270.832,60.554a3.45,3.45,0,1,1,3.507-3.449,3.478,3.478,0,0,1-3.507,3.449" transform="translate(-40.867 -12.981)" fill="#fff"/>
      <path id="Trazado_212717" data-name="Trazado 212717" d="M292.876,60.34a3.136,3.136,0,1,1,3.188-3.136,3.162,3.162,0,0,1-3.188,3.136" transform="translate(-82.07 -13.081)" fill="#fff"/>
      <path id="Trazado_212718" data-name="Trazado 212718" d="M314.912,60.163a2.875,2.875,0,1,1,2.922-2.875,2.9,2.9,0,0,1-2.922,2.875" transform="translate(-123.266 -13.164)" fill="#fff"/>
      <path id="Trazado_212719" data-name="Trazado 212719" d="M336.957,59.949a2.561,2.561,0,1,1,2.6-2.561,2.583,2.583,0,0,1-2.6,2.561" transform="translate(-164.471 -13.265)" fill="#fff"/>
      <path id="Trazado_212720" data-name="Trazado 212720" d="M358.994,59.771a2.3,2.3,0,1,1,2.338-2.3,2.319,2.319,0,0,1-2.338,2.3" transform="translate(-205.666 -13.348)" fill="#fff"/>
      <path id="Trazado_212721" data-name="Trazado 212721" d="M381.039,59.558a1.986,1.986,0,1,1,2.019-1.986,2,2,0,0,1-2.019,1.986" transform="translate(-246.871 -13.448)" fill="#fff"/>
      <path id="Trazado_212722" data-name="Trazado 212722" d="M403.075,59.38a1.725,1.725,0,1,1,1.753-1.725,1.739,1.739,0,0,1-1.753,1.725" transform="translate(-288.066 -13.531)" fill="#fff"/>
      <path id="Trazado_212723" data-name="Trazado 212723" d="M425.12,59.166a1.411,1.411,0,1,1,1.435-1.411,1.422,1.422,0,0,1-1.435,1.411" transform="translate(-329.271 -13.631)" fill="#fff"/>
      <path id="Trazado_212724" data-name="Trazado 212724" d="M447.157,58.989a1.15,1.15,0,1,1,1.169-1.15,1.159,1.159,0,0,1-1.169,1.15" transform="translate(-370.466 -13.715)" fill="#fff"/>
      <path id="Trazado_212725" data-name="Trazado 212725" d="M469.194,58.811a.889.889,0,1,1,.9-.888.9.9,0,0,1-.9.888" transform="translate(-411.663 -13.798)" fill="#fff"/>
      <path id="Trazado_212726" data-name="Trazado 212726" d="M491.238,58.6a.575.575,0,1,1,.584-.575.579.579,0,0,1-.584.575" transform="translate(-452.867 -13.898)" fill="#fff"/>
      <path id="Trazado_212727" data-name="Trazado 212727" d="M513.276,58.42a.314.314,0,1,1,.319-.314.316.316,0,0,1-.319.314" transform="translate(-494.064 -13.982)" fill="#fff"/>
      <path id="Trazado_212728" data-name="Trazado 212728" d="M535.312,58.242a.052.052,0,1,1,.053-.052.053.053,0,0,1-.053.052" transform="translate(-535.259 -14.065)" fill="#fff"/>
      <path id="Trazado_212729" data-name="Trazado 212729" d="M6.547,86.841a5.541,5.541,0,1,1,0-11.08,5.541,5.541,0,1,1,0,11.08" transform="translate(453.33 -18.329)" fill="#fff"/>
      <path id="Trazado_212730" data-name="Trazado 212730" d="M28.536,86.876a5.593,5.593,0,1,1,5.685-5.592,5.639,5.639,0,0,1-5.685,5.592" transform="translate(412.182 -18.312)" fill="#fff"/>
      <path id="Trazado_212731" data-name="Trazado 212731" d="M50.542,86.841a5.541,5.541,0,1,1,5.632-5.54,5.587,5.587,0,0,1-5.632,5.54" transform="translate(371.016 -18.329)" fill="#fff"/>
      <path id="Trazado_212732" data-name="Trazado 212732" d="M72.554,86.77a5.436,5.436,0,1,1,5.525-5.435,5.481,5.481,0,0,1-5.525,5.435" transform="translate(329.844 -18.362)" fill="#fff"/>
      <path id="Trazado_212733" data-name="Trazado 212733" d="M94.568,86.7a5.332,5.332,0,1,1,5.419-5.331A5.376,5.376,0,0,1,94.568,86.7" transform="translate(288.671 -18.396)" fill="#fff"/>
      <path id="Trazado_212734" data-name="Trazado 212734" d="M116.6,86.556a5.123,5.123,0,1,1,5.207-5.122,5.165,5.165,0,0,1-5.207,5.122" transform="translate(247.484 -18.462)" fill="#fff"/>
      <path id="Trazado_212735" data-name="Trazado 212735" d="M138.626,86.413A4.914,4.914,0,1,1,143.62,81.5a4.954,4.954,0,0,1-4.994,4.913" transform="translate(206.294 -18.529)" fill="#fff"/>
      <path id="Trazado_212736" data-name="Trazado 212736" d="M160.663,86.235a4.652,4.652,0,1,1,4.729-4.652,4.691,4.691,0,0,1-4.729,4.652" transform="translate(165.099 -18.612)" fill="#fff"/>
      <path id="Trazado_212737" data-name="Trazado 212737" d="M182.7,86.058a4.391,4.391,0,1,1,4.463-4.39,4.427,4.427,0,0,1-4.463,4.39" transform="translate(123.902 -18.696)" fill="#fff"/>
      <path id="Trazado_212738" data-name="Trazado 212738" d="M204.736,85.88a4.129,4.129,0,1,1,4.2-4.128,4.163,4.163,0,0,1-4.2,4.128" transform="translate(82.707 -18.779)" fill="#fff"/>
      <path id="Trazado_212739" data-name="Trazado 212739" d="M226.774,85.7a3.868,3.868,0,1,1,3.932-3.868,3.9,3.9,0,0,1-3.932,3.868" transform="translate(41.509 -18.862)" fill="#fff"/>
      <path id="Trazado_212740" data-name="Trazado 212740" d="M248.81,85.524a3.607,3.607,0,1,1,3.666-3.606,3.636,3.636,0,0,1-3.666,3.606" transform="translate(0.314 -18.946)" fill="#fff"/>
      <path id="Trazado_212741" data-name="Trazado 212741" d="M270.847,85.346a3.345,3.345,0,1,1,3.4-3.345,3.373,3.373,0,0,1-3.4,3.345" transform="translate(-40.883 -19.029)" fill="#fff"/>
      <path id="Trazado_212742" data-name="Trazado 212742" d="M292.884,85.168a3.084,3.084,0,1,1,3.135-3.084,3.11,3.11,0,0,1-3.135,3.084" transform="translate(-82.078 -19.113)" fill="#fff"/>
      <path id="Trazado_212743" data-name="Trazado 212743" d="M314.928,84.955a2.77,2.77,0,1,1,2.816-2.77,2.794,2.794,0,0,1-2.816,2.77" transform="translate(-123.281 -19.213)" fill="#fff"/>
      <path id="Trazado_212744" data-name="Trazado 212744" d="M336.965,84.777a2.509,2.509,0,1,1,2.55-2.508,2.53,2.53,0,0,1-2.55,2.508" transform="translate(-164.478 -19.296)" fill="#fff"/>
      <path id="Trazado_212745" data-name="Trazado 212745" d="M359,84.6a2.248,2.248,0,1,1,2.285-2.248A2.266,2.266,0,0,1,359,84.6" transform="translate(-205.674 -19.38)" fill="#fff"/>
      <path id="Trazado_212746" data-name="Trazado 212746" d="M381.047,84.386a1.934,1.934,0,1,1,1.966-1.934,1.95,1.95,0,0,1-1.966,1.934" transform="translate(-246.879 -19.48)" fill="#fff"/>
      <path id="Trazado_212747" data-name="Trazado 212747" d="M403.083,84.207a1.673,1.673,0,1,1,1.7-1.672,1.687,1.687,0,0,1-1.7,1.672" transform="translate(-288.074 -19.563)" fill="#fff"/>
      <path id="Trazado_212748" data-name="Trazado 212748" d="M425.128,83.994a1.359,1.359,0,1,1,1.381-1.359,1.37,1.37,0,0,1-1.381,1.359" transform="translate(-329.279 -19.663)" fill="#fff"/>
      <path id="Trazado_212749" data-name="Trazado 212749" d="M447.165,83.815a1.1,1.1,0,1,1,1.116-1.1,1.107,1.107,0,0,1-1.116,1.1" transform="translate(-370.474 -19.746)" fill="#fff"/>
      <path id="Trazado_212750" data-name="Trazado 212750" d="M469.2,83.638a.836.836,0,1,1,.85-.836.843.843,0,0,1-.85.836" transform="translate(-411.671 -19.83)" fill="#fff"/>
      <path id="Trazado_212751" data-name="Trazado 212751" d="M491.246,83.424a.523.523,0,1,1,.531-.522.527.527,0,0,1-.531.522" transform="translate(-452.874 -19.93)" fill="#fff"/>
      <path id="Trazado_212752" data-name="Trazado 212752" d="M513.284,83.246a.261.261,0,1,1,.266-.262.264.264,0,0,1-.266.262" transform="translate(-494.072 -20.014)" fill="#fff"/>
      <path id="Trazado_212753" data-name="Trazado 212753" d="M6.586,111.525a5.28,5.28,0,1,1,0-10.558,5.28,5.28,0,1,1,0,10.558" transform="translate(453.29 -24.427)" fill="#fff"/>
      <path id="Trazado_212754" data-name="Trazado 212754" d="M28.583,111.525a5.28,5.28,0,1,1,5.366-5.278,5.323,5.323,0,0,1-5.366,5.278" transform="translate(412.134 -24.427)" fill="#fff"/>
      <path id="Trazado_212755" data-name="Trazado 212755" d="M50.581,111.525a5.28,5.28,0,1,1,5.366-5.278,5.323,5.323,0,0,1-5.366,5.278" transform="translate(370.977 -24.427)" fill="#fff"/>
      <path id="Trazado_212756" data-name="Trazado 212756" d="M72.594,111.454a5.175,5.175,0,1,1,5.26-5.174,5.218,5.218,0,0,1-5.26,5.174" transform="translate(329.805 -24.461)" fill="#fff"/>
      <path id="Trazado_212757" data-name="Trazado 212757" d="M94.608,111.383a5.07,5.07,0,1,1,5.154-5.069,5.112,5.112,0,0,1-5.154,5.069" transform="translate(288.632 -24.494)" fill="#fff"/>
      <path id="Trazado_212758" data-name="Trazado 212758" d="M116.628,111.276a4.914,4.914,0,1,1,4.994-4.913,4.954,4.954,0,0,1-4.994,4.913" transform="translate(247.452 -24.544)" fill="#fff"/>
      <path id="Trazado_212759" data-name="Trazado 212759" d="M138.658,111.134a4.7,4.7,0,1,1,4.782-4.7,4.743,4.743,0,0,1-4.782,4.7" transform="translate(206.263 -24.611)" fill="#fff"/>
      <path id="Trazado_212760" data-name="Trazado 212760" d="M160.686,110.992a4.5,4.5,0,1,1,4.569-4.495,4.533,4.533,0,0,1-4.569,4.495" transform="translate(165.075 -24.678)" fill="#fff"/>
      <path id="Trazado_212761" data-name="Trazado 212761" d="M182.724,110.814a4.234,4.234,0,1,1,4.3-4.233,4.269,4.269,0,0,1-4.3,4.233" transform="translate(123.878 -24.761)" fill="#fff"/>
      <path id="Trazado_212762" data-name="Trazado 212762" d="M204.752,110.671a4.025,4.025,0,1,1,4.091-4.025,4.058,4.058,0,0,1-4.091,4.025" transform="translate(82.691 -24.828)" fill="#fff"/>
      <path id="Trazado_212763" data-name="Trazado 212763" d="M226.789,110.493a3.764,3.764,0,1,1,3.825-3.763,3.795,3.795,0,0,1-3.825,3.763" transform="translate(41.494 -24.911)" fill="#fff"/>
      <path id="Trazado_212764" data-name="Trazado 212764" d="M248.826,110.316a3.5,3.5,0,1,1,3.56-3.5,3.531,3.531,0,0,1-3.56,3.5" transform="translate(0.298 -24.995)" fill="#fff"/>
      <path id="Trazado_212765" data-name="Trazado 212765" d="M270.863,110.138a3.241,3.241,0,1,1,3.294-3.241,3.268,3.268,0,0,1-3.294,3.241" transform="translate(-40.899 -25.078)" fill="#fff"/>
      <path id="Trazado_212766" data-name="Trazado 212766" d="M292.9,109.959a2.98,2.98,0,1,1,3.028-2.979,3,3,0,0,1-3.028,2.979" transform="translate(-82.094 -25.161)" fill="#fff"/>
      <path id="Trazado_212767" data-name="Trazado 212767" d="M314.936,109.781a2.718,2.718,0,1,1,2.763-2.718,2.74,2.74,0,0,1-2.763,2.718" transform="translate(-123.289 -25.245)" fill="#fff"/>
      <path id="Trazado_212768" data-name="Trazado 212768" d="M336.973,109.6a2.456,2.456,0,1,1,2.5-2.456,2.477,2.477,0,0,1-2.5,2.456" transform="translate(-164.486 -25.328)" fill="#fff"/>
      <path id="Trazado_212769" data-name="Trazado 212769" d="M359.017,109.39a2.143,2.143,0,1,1,2.178-2.143,2.161,2.161,0,0,1-2.178,2.143" transform="translate(-205.689 -25.428)" fill="#fff"/>
      <path id="Trazado_212770" data-name="Trazado 212770" d="M381.055,109.212a1.882,1.882,0,1,1,1.913-1.882,1.9,1.9,0,0,1-1.913,1.882" transform="translate(-246.887 -25.511)" fill="#fff"/>
      <path id="Trazado_212771" data-name="Trazado 212771" d="M403.1,109a1.568,1.568,0,1,1,1.594-1.568A1.581,1.581,0,0,1,403.1,109" transform="translate(-288.09 -25.612)" fill="#fff"/>
      <path id="Trazado_212772" data-name="Trazado 212772" d="M425.136,108.821a1.307,1.307,0,1,1,1.328-1.307,1.318,1.318,0,0,1-1.328,1.307" transform="translate(-329.287 -25.695)" fill="#fff"/>
      <path id="Trazado_212773" data-name="Trazado 212773" d="M447.173,108.643a1.046,1.046,0,1,1,1.063-1.045,1.054,1.054,0,0,1-1.063,1.045" transform="translate(-370.482 -25.778)" fill="#fff"/>
      <path id="Trazado_212774" data-name="Trazado 212774" d="M469.218,108.43a.732.732,0,1,1,.744-.732.738.738,0,0,1-.744.732" transform="translate(-411.687 -25.879)" fill="#fff"/>
      <path id="Trazado_212775" data-name="Trazado 212775" d="M491.254,108.252a.47.47,0,1,1,.478-.47.474.474,0,0,1-.478.47" transform="translate(-452.882 -25.962)" fill="#fff"/>
      <path id="Trazado_212776" data-name="Trazado 212776" d="M513.292,108.074a.209.209,0,1,1,.213-.209.211.211,0,0,1-.213.209" transform="translate(-494.079 -26.045)" fill="#fff"/>
      <path id="Trazado_212777" data-name="Trazado 212777" d="M6.633,136.175a4.966,4.966,0,1,1,0-9.93,4.966,4.966,0,1,1,0,9.93" transform="translate(453.243 -30.543)" fill="#fff"/>
      <path id="Trazado_212778" data-name="Trazado 212778" d="M28.622,136.211a5.018,5.018,0,1,1,5.1-5.017,5.059,5.059,0,0,1-5.1,5.017" transform="translate(412.095 -30.526)" fill="#fff"/>
      <path id="Trazado_212779" data-name="Trazado 212779" d="M50.628,136.175a4.966,4.966,0,1,1,5.047-4.965,5.007,5.007,0,0,1-5.047,4.965" transform="translate(370.929 -30.543)" fill="#fff"/>
      <path id="Trazado_212780" data-name="Trazado 212780" d="M72.633,136.139a4.914,4.914,0,1,1,4.994-4.913,4.954,4.954,0,0,1-4.994,4.913" transform="translate(329.766 -30.559)" fill="#fff"/>
      <path id="Trazado_212781" data-name="Trazado 212781" d="M94.647,136.068a4.809,4.809,0,1,1,4.888-4.808,4.849,4.849,0,0,1-4.888,4.808" transform="translate(288.592 -30.593)" fill="#fff"/>
      <path id="Trazado_212782" data-name="Trazado 212782" d="M116.668,135.961a4.652,4.652,0,1,1,4.729-4.652,4.691,4.691,0,0,1-4.729,4.652" transform="translate(247.413 -30.643)" fill="#fff"/>
      <path id="Trazado_212783" data-name="Trazado 212783" d="M138.689,135.854a4.5,4.5,0,1,1,4.569-4.495,4.533,4.533,0,0,1-4.569,4.495" transform="translate(206.231 -30.693)" fill="#fff"/>
      <path id="Trazado_212784" data-name="Trazado 212784" d="M160.718,135.712a4.286,4.286,0,1,1,4.357-4.285,4.321,4.321,0,0,1-4.357,4.285" transform="translate(165.044 -30.759)" fill="#fff"/>
      <path id="Trazado_212785" data-name="Trazado 212785" d="M182.747,135.569a4.077,4.077,0,1,1,4.144-4.077,4.111,4.111,0,0,1-4.144,4.077" transform="translate(123.855 -30.826)" fill="#fff"/>
      <path id="Trazado_212786" data-name="Trazado 212786" d="M204.783,135.392a3.816,3.816,0,1,1,3.878-3.815,3.847,3.847,0,0,1-3.878,3.815" transform="translate(82.659 -30.909)" fill="#fff"/>
      <path id="Trazado_212787" data-name="Trazado 212787" d="M226.813,135.249a3.607,3.607,0,1,1,3.666-3.606,3.636,3.636,0,0,1-3.666,3.606" transform="translate(41.47 -30.976)" fill="#fff"/>
      <path id="Trazado_212788" data-name="Trazado 212788" d="M248.849,135.071a3.345,3.345,0,1,1,3.4-3.345,3.373,3.373,0,0,1-3.4,3.345" transform="translate(0.275 -31.059)" fill="#fff"/>
      <path id="Trazado_212789" data-name="Trazado 212789" d="M270.879,134.929a3.136,3.136,0,1,1,3.188-3.136,3.162,3.162,0,0,1-3.188,3.136" transform="translate(-40.914 -31.126)" fill="#fff"/>
      <path id="Trazado_212790" data-name="Trazado 212790" d="M292.915,134.751a2.875,2.875,0,1,1,2.922-2.875,2.9,2.9,0,0,1-2.922,2.875" transform="translate(-82.11 -31.21)" fill="#fff"/>
      <path id="Trazado_212791" data-name="Trazado 212791" d="M314.951,134.573a2.613,2.613,0,1,1,2.656-2.613,2.635,2.635,0,0,1-2.656,2.613" transform="translate(-123.305 -31.293)" fill="#fff"/>
      <path id="Trazado_212792" data-name="Trazado 212792" d="M337,134.36a2.3,2.3,0,1,1,2.338-2.3,2.319,2.319,0,0,1-2.338,2.3" transform="translate(-164.51 -31.393)" fill="#fff"/>
      <path id="Trazado_212793" data-name="Trazado 212793" d="M359.033,134.182a2.039,2.039,0,1,1,2.072-2.038,2.055,2.055,0,0,1-2.072,2.038" transform="translate(-205.705 -31.477)" fill="#fff"/>
      <path id="Trazado_212794" data-name="Trazado 212794" d="M381.07,134a1.777,1.777,0,1,1,1.806-1.777A1.792,1.792,0,0,1,381.07,134" transform="translate(-246.902 -31.56)" fill="#fff"/>
      <path id="Trazado_212795" data-name="Trazado 212795" d="M403.107,133.825a1.516,1.516,0,1,1,1.541-1.515,1.528,1.528,0,0,1-1.541,1.515" transform="translate(-288.098 -31.643)" fill="#fff"/>
      <path id="Trazado_212796" data-name="Trazado 212796" d="M425.152,133.613a1.2,1.2,0,1,1,1.222-1.2,1.212,1.212,0,0,1-1.222,1.2" transform="translate(-329.303 -31.744)" fill="#fff"/>
      <path id="Trazado_212797" data-name="Trazado 212797" d="M447.188,133.435a.941.941,0,1,1,.956-.941.949.949,0,0,1-.956.941" transform="translate(-370.498 -31.827)" fill="#fff"/>
      <path id="Trazado_212798" data-name="Trazado 212798" d="M469.226,133.256a.68.68,0,1,1,.691-.679.685.685,0,0,1-.691.679" transform="translate(-411.695 -31.91)" fill="#fff"/>
      <path id="Trazado_212799" data-name="Trazado 212799" d="M491.262,133.079a.418.418,0,1,1,.425-.418.422.422,0,0,1-.425.418" transform="translate(-452.89 -31.994)" fill="#fff"/>
      <path id="Trazado_212800" data-name="Trazado 212800" d="M513.307,132.865a.1.1,0,1,1,.106-.1.106.106,0,0,1-.106.1" transform="translate(-494.095 -32.094)" fill="#fff"/>
      <path id="Trazado_212801" data-name="Trazado 212801" d="M6.673,160.859a4.7,4.7,0,1,1,0-9.407,4.7,4.7,0,1,1,0,9.407" transform="translate(453.204 -36.641)" fill="#fff"/>
      <path id="Trazado_212802" data-name="Trazado 212802" d="M28.67,160.859a4.7,4.7,0,1,1,4.782-4.7,4.743,4.743,0,0,1-4.782,4.7" transform="translate(412.048 -36.641)" fill="#fff"/>
      <path id="Trazado_212803" data-name="Trazado 212803" d="M50.668,160.859a4.7,4.7,0,1,1,4.782-4.7,4.743,4.743,0,0,1-4.782,4.7" transform="translate(370.89 -36.641)" fill="#fff"/>
      <path id="Trazado_212804" data-name="Trazado 212804" d="M72.673,160.823a4.652,4.652,0,1,1,4.729-4.652,4.69,4.69,0,0,1-4.729,4.652" transform="translate(329.726 -36.658)" fill="#fff"/>
      <path id="Trazado_212805" data-name="Trazado 212805" d="M94.686,160.753a4.548,4.548,0,1,1,4.622-4.547,4.585,4.585,0,0,1-4.622,4.547" transform="translate(288.553 -36.691)" fill="#fff"/>
      <path id="Trazado_212806" data-name="Trazado 212806" d="M116.707,160.646a4.391,4.391,0,1,1,4.463-4.39,4.427,4.427,0,0,1-4.463,4.39" transform="translate(247.373 -36.741)" fill="#fff"/>
      <path id="Trazado_212807" data-name="Trazado 212807" d="M138.729,160.539a4.234,4.234,0,1,1,4.3-4.233,4.269,4.269,0,0,1-4.3,4.233" transform="translate(206.192 -36.791)" fill="#fff"/>
      <path id="Trazado_212808" data-name="Trazado 212808" d="M160.749,160.432a4.077,4.077,0,1,1,4.144-4.077,4.111,4.111,0,0,1-4.144,4.077" transform="translate(165.012 -36.841)" fill="#fff"/>
      <path id="Trazado_212809" data-name="Trazado 212809" d="M182.779,160.29a3.868,3.868,0,1,1,3.932-3.868,3.9,3.9,0,0,1-3.932,3.868" transform="translate(123.823 -36.908)" fill="#fff"/>
      <path id="Trazado_212810" data-name="Trazado 212810" d="M204.807,160.148a3.659,3.659,0,1,1,3.719-3.658,3.689,3.689,0,0,1-3.719,3.658" transform="translate(82.636 -36.975)" fill="#fff"/>
      <path id="Trazado_212811" data-name="Trazado 212811" d="M226.837,160.005a3.45,3.45,0,1,1,3.507-3.449,3.478,3.478,0,0,1-3.507,3.449" transform="translate(41.447 -37.041)" fill="#fff"/>
      <path id="Trazado_212812" data-name="Trazado 212812" d="M248.873,159.827a3.188,3.188,0,1,1,3.241-3.188,3.215,3.215,0,0,1-3.241,3.188" transform="translate(0.251 -37.125)" fill="#fff"/>
      <path id="Trazado_212813" data-name="Trazado 212813" d="M270.9,159.685a2.98,2.98,0,1,1,3.028-2.979,3,3,0,0,1-3.028,2.979" transform="translate(-40.938 -37.191)" fill="#fff"/>
      <path id="Trazado_212814" data-name="Trazado 212814" d="M292.939,159.507a2.718,2.718,0,1,1,2.763-2.718,2.74,2.74,0,0,1-2.763,2.718" transform="translate(-82.133 -37.275)" fill="#fff"/>
      <path id="Trazado_212815" data-name="Trazado 212815" d="M314.975,159.329a2.456,2.456,0,1,1,2.5-2.456,2.477,2.477,0,0,1-2.5,2.456" transform="translate(-123.329 -37.358)" fill="#fff"/>
      <path id="Trazado_212816" data-name="Trazado 212816" d="M337.012,159.151a2.2,2.2,0,1,1,2.231-2.2,2.213,2.213,0,0,1-2.231,2.2" transform="translate(-164.526 -37.442)" fill="#fff"/>
      <path id="Trazado_212817" data-name="Trazado 212817" d="M359.049,158.974a1.934,1.934,0,1,1,1.966-1.934,1.95,1.95,0,0,1-1.966,1.934" transform="translate(-205.721 -37.525)" fill="#fff"/>
      <path id="Trazado_212818" data-name="Trazado 212818" d="M381.086,158.8a1.673,1.673,0,1,1,1.7-1.672,1.687,1.687,0,0,1-1.7,1.672" transform="translate(-246.918 -37.608)" fill="#fff"/>
      <path id="Trazado_212819" data-name="Trazado 212819" d="M403.122,158.617a1.411,1.411,0,1,1,1.435-1.411,1.422,1.422,0,0,1-1.435,1.411" transform="translate(-288.113 -37.692)" fill="#fff"/>
      <path id="Trazado_212820" data-name="Trazado 212820" d="M425.16,158.439a1.15,1.15,0,1,1,1.169-1.15,1.159,1.159,0,0,1-1.169,1.15" transform="translate(-329.31 -37.775)" fill="#fff"/>
      <path id="Trazado_212821" data-name="Trazado 212821" d="M447.2,158.226a.836.836,0,1,1,.85-.836.843.843,0,0,1-.85.836" transform="translate(-370.514 -37.875)" fill="#fff"/>
      <path id="Trazado_212822" data-name="Trazado 212822" d="M469.241,158.048a.575.575,0,1,1,.584-.575.579.579,0,0,1-.584.575" transform="translate(-411.711 -37.959)" fill="#fff"/>
      <path id="Trazado_212823" data-name="Trazado 212823" d="M491.278,157.87a.314.314,0,1,1,.319-.314.316.316,0,0,1-.319.314" transform="translate(-452.906 -38.042)" fill="#fff"/>
      <path id="Trazado_212824" data-name="Trazado 212824" d="M513.315,157.693a.052.052,0,1,1,.053-.052.053.053,0,0,1-.053.052" transform="translate(-494.103 -38.126)" fill="#fff"/>
      <path id="Trazado_212825" data-name="Trazado 212825" d="M6.72,185.509a4.391,4.391,0,1,1,0-8.78,4.391,4.391,0,1,1,0,8.78" transform="translate(453.157 -42.756)" fill="#fff"/>
      <path id="Trazado_212826" data-name="Trazado 212826" d="M28.709,185.545a4.443,4.443,0,1,1,4.516-4.442,4.48,4.48,0,0,1-4.516,4.442" transform="translate(412.009 -42.74)" fill="#fff"/>
      <path id="Trazado_212827" data-name="Trazado 212827" d="M50.715,185.509a4.391,4.391,0,1,1,4.463-4.39,4.427,4.427,0,0,1-4.463,4.39" transform="translate(370.843 -42.756)" fill="#fff"/>
      <path id="Trazado_212828" data-name="Trazado 212828" d="M72.72,185.473a4.339,4.339,0,1,1,4.41-4.338,4.374,4.374,0,0,1-4.41,4.338" transform="translate(329.679 -42.773)" fill="#fff"/>
      <path id="Trazado_212829" data-name="Trazado 212829" d="M94.734,185.4a4.234,4.234,0,1,1,4.3-4.233,4.269,4.269,0,0,1-4.3,4.233" transform="translate(288.506 -42.806)" fill="#fff"/>
      <path id="Trazado_212830" data-name="Trazado 212830" d="M116.746,185.331a4.129,4.129,0,1,1,4.2-4.129,4.164,4.164,0,0,1-4.2,4.129" transform="translate(247.334 -42.84)" fill="#fff"/>
      <path id="Trazado_212831" data-name="Trazado 212831" d="M138.76,185.259a4.025,4.025,0,1,1,4.091-4.025,4.058,4.058,0,0,1-4.091,4.025" transform="translate(206.16 -42.873)" fill="#fff"/>
      <path id="Trazado_212832" data-name="Trazado 212832" d="M160.788,185.117a3.816,3.816,0,1,1,3.878-3.815,3.847,3.847,0,0,1-3.878,3.815" transform="translate(164.973 -42.94)" fill="#fff"/>
      <path id="Trazado_212833" data-name="Trazado 212833" d="M182.81,185.011a3.659,3.659,0,1,1,3.719-3.658,3.689,3.689,0,0,1-3.719,3.658" transform="translate(123.792 -42.99)" fill="#fff"/>
      <path id="Trazado_212834" data-name="Trazado 212834" d="M204.839,184.868a3.45,3.45,0,1,1,3.507-3.449,3.478,3.478,0,0,1-3.507,3.449" transform="translate(82.604 -43.057)" fill="#fff"/>
      <path id="Trazado_212835" data-name="Trazado 212835" d="M226.868,184.726a3.241,3.241,0,1,1,3.294-3.241,3.268,3.268,0,0,1-3.294,3.241" transform="translate(41.415 -43.123)" fill="#fff"/>
      <path id="Trazado_212836" data-name="Trazado 212836" d="M248.9,184.583a3.032,3.032,0,1,1,3.082-3.032,3.057,3.057,0,0,1-3.082,3.032" transform="translate(0.228 -43.19)" fill="#fff"/>
      <path id="Trazado_212837" data-name="Trazado 212837" d="M270.926,184.441a2.823,2.823,0,1,1,2.869-2.822,2.846,2.846,0,0,1-2.869,2.822" transform="translate(-40.962 -43.256)" fill="#fff"/>
      <path id="Trazado_212838" data-name="Trazado 212838" d="M292.962,184.263a2.561,2.561,0,1,1,2.6-2.561,2.583,2.583,0,0,1-2.6,2.561" transform="translate(-82.157 -43.34)" fill="#fff"/>
      <path id="Trazado_212839" data-name="Trazado 212839" d="M315,184.085a2.3,2.3,0,1,1,2.338-2.3,2.319,2.319,0,0,1-2.338,2.3" transform="translate(-123.352 -43.423)" fill="#fff"/>
      <path id="Trazado_212840" data-name="Trazado 212840" d="M337.036,183.907a2.039,2.039,0,1,1,2.072-2.038,2.055,2.055,0,0,1-2.072,2.038" transform="translate(-164.549 -43.507)" fill="#fff"/>
      <path id="Trazado_212841" data-name="Trazado 212841" d="M359.072,183.729a1.777,1.777,0,1,1,1.806-1.777,1.792,1.792,0,0,1-1.806,1.777" transform="translate(-205.745 -43.59)" fill="#fff"/>
      <path id="Trazado_212842" data-name="Trazado 212842" d="M381.11,183.551a1.516,1.516,0,1,1,1.541-1.515,1.528,1.528,0,0,1-1.541,1.515" transform="translate(-246.942 -43.674)" fill="#fff"/>
      <path id="Trazado_212843" data-name="Trazado 212843" d="M403.146,183.373a1.254,1.254,0,1,1,1.275-1.255,1.265,1.265,0,0,1-1.275,1.255" transform="translate(-288.137 -43.757)" fill="#fff"/>
      <path id="Trazado_212844" data-name="Trazado 212844" d="M425.183,183.2a.993.993,0,1,1,1.009-.993,1,1,0,0,1-1.009.993" transform="translate(-329.334 -43.84)" fill="#fff"/>
      <path id="Trazado_212845" data-name="Trazado 212845" d="M447.22,183.018a.732.732,0,1,1,.744-.732.738.738,0,0,1-.744.732" transform="translate(-370.529 -43.924)" fill="#fff"/>
      <path id="Trazado_212846" data-name="Trazado 212846" d="M469.257,182.84a.47.47,0,1,1,.478-.47.474.474,0,0,1-.478.47" transform="translate(-411.726 -44.007)" fill="#fff"/>
      <path id="Trazado_212847" data-name="Trazado 212847" d="M491.294,182.662a.209.209,0,1,1,.213-.209.211.211,0,0,1-.213.209" transform="translate(-452.922 -44.091)" fill="#fff"/>
      <path id="Trazado_212848" data-name="Trazado 212848" d="M6.759,210.194a4.129,4.129,0,1,1,0-8.258,4.129,4.129,0,1,1,0,8.258" transform="translate(453.117 -48.855)" fill="#fff"/>
      <path id="Trazado_212849" data-name="Trazado 212849" d="M28.756,210.194a4.129,4.129,0,1,1,4.2-4.129,4.164,4.164,0,0,1-4.2,4.129" transform="translate(411.961 -48.855)" fill="#fff"/>
      <path id="Trazado_212850" data-name="Trazado 212850" d="M50.754,210.194a4.129,4.129,0,1,1,4.2-4.129,4.164,4.164,0,0,1-4.2,4.129" transform="translate(370.804 -48.855)" fill="#fff"/>
      <path id="Trazado_212851" data-name="Trazado 212851" d="M72.759,210.158a4.077,4.077,0,1,1,4.144-4.077,4.111,4.111,0,0,1-4.144,4.077" transform="translate(329.64 -48.871)" fill="#fff"/>
      <path id="Trazado_212852" data-name="Trazado 212852" d="M94.773,210.087a3.973,3.973,0,1,1,4.038-3.972,4.006,4.006,0,0,1-4.038,3.972" transform="translate(288.466 -48.905)" fill="#fff"/>
      <path id="Trazado_212853" data-name="Trazado 212853" d="M116.786,210.015a3.868,3.868,0,1,1,3.932-3.868,3.9,3.9,0,0,1-3.932,3.868" transform="translate(247.295 -48.938)" fill="#fff"/>
      <path id="Trazado_212854" data-name="Trazado 212854" d="M138.8,209.944a3.764,3.764,0,1,1,3.825-3.763,3.795,3.795,0,0,1-3.825,3.763" transform="translate(206.121 -48.971)" fill="#fff"/>
      <path id="Trazado_212855" data-name="Trazado 212855" d="M160.82,209.837a3.607,3.607,0,1,1,3.666-3.606,3.636,3.636,0,0,1-3.666,3.606" transform="translate(164.942 -49.021)" fill="#fff"/>
      <path id="Trazado_212856" data-name="Trazado 212856" d="M182.842,209.73a3.45,3.45,0,1,1,3.507-3.449,3.478,3.478,0,0,1-3.507,3.449" transform="translate(123.76 -49.072)" fill="#fff"/>
      <path id="Trazado_212857" data-name="Trazado 212857" d="M204.87,209.589a3.241,3.241,0,1,1,3.294-3.241,3.268,3.268,0,0,1-3.294,3.241" transform="translate(82.573 -49.138)" fill="#fff"/>
      <path id="Trazado_212858" data-name="Trazado 212858" d="M226.9,209.446a3.032,3.032,0,1,1,3.082-3.031,3.057,3.057,0,0,1-3.082,3.031" transform="translate(41.384 -49.205)" fill="#fff"/>
      <path id="Trazado_212859" data-name="Trazado 212859" d="M248.928,209.3a2.823,2.823,0,1,1,2.869-2.822,2.846,2.846,0,0,1-2.869,2.822" transform="translate(0.196 -49.272)" fill="#fff"/>
      <path id="Trazado_212860" data-name="Trazado 212860" d="M270.957,209.161a2.613,2.613,0,1,1,2.656-2.613,2.635,2.635,0,0,1-2.656,2.613" transform="translate(-40.993 -49.338)" fill="#fff"/>
      <path id="Trazado_212861" data-name="Trazado 212861" d="M292.986,209.018a2.4,2.4,0,1,1,2.444-2.4,2.424,2.424,0,0,1-2.444,2.4" transform="translate(-82.18 -49.405)" fill="#fff"/>
      <path id="Trazado_212862" data-name="Trazado 212862" d="M315.022,208.841A2.143,2.143,0,1,1,317.2,206.7a2.161,2.161,0,0,1-2.178,2.143" transform="translate(-123.376 -49.489)" fill="#fff"/>
      <path id="Trazado_212863" data-name="Trazado 212863" d="M337.06,208.663a1.882,1.882,0,1,1,1.913-1.882,1.9,1.9,0,0,1-1.913,1.882" transform="translate(-164.573 -49.572)" fill="#fff"/>
      <path id="Trazado_212864" data-name="Trazado 212864" d="M359.088,208.52a1.673,1.673,0,1,1,1.7-1.672,1.687,1.687,0,0,1-1.7,1.672" transform="translate(-205.76 -49.638)" fill="#fff"/>
      <path id="Trazado_212865" data-name="Trazado 212865" d="M381.125,208.342a1.411,1.411,0,1,1,1.435-1.411,1.422,1.422,0,0,1-1.435,1.411" transform="translate(-246.957 -49.722)" fill="#fff"/>
      <path id="Trazado_212866" data-name="Trazado 212866" d="M403.162,208.165a1.15,1.15,0,1,1,1.169-1.15,1.16,1.16,0,0,1-1.169,1.15" transform="translate(-288.153 -49.805)" fill="#fff"/>
      <path id="Trazado_212867" data-name="Trazado 212867" d="M425.2,207.987a.889.889,0,1,1,.9-.888.9.9,0,0,1-.9.888" transform="translate(-329.35 -49.889)" fill="#fff"/>
      <path id="Trazado_212868" data-name="Trazado 212868" d="M447.236,207.81a.627.627,0,1,1,.638-.627.632.632,0,0,1-.638.627" transform="translate(-370.545 -49.972)" fill="#fff"/>
      <path id="Trazado_212869" data-name="Trazado 212869" d="M469.273,207.631a.366.366,0,1,1,.372-.366.369.369,0,0,1-.372.366" transform="translate(-411.742 -50.056)" fill="#fff"/>
      <path id="Trazado_212870" data-name="Trazado 212870" d="M491.309,207.453a.1.1,0,1,1,.106-.1.106.106,0,0,1-.106.1" transform="translate(-452.937 -50.139)" fill="#fff"/>
      <path id="Trazado_212871" data-name="Trazado 212871" d="M6.806,234.843a3.816,3.816,0,1,1,3.878-3.815,3.847,3.847,0,0,1-3.878,3.815" transform="translate(453.07 -54.97)" fill="#fff"/>
      <path id="Trazado_212872" data-name="Trazado 212872" d="M28.8,234.843a3.816,3.816,0,1,1,3.878-3.815,3.847,3.847,0,0,1-3.878,3.815" transform="translate(411.914 -54.97)" fill="#fff"/>
      <path id="Trazado_212873" data-name="Trazado 212873" d="M50.8,234.843a3.816,3.816,0,1,1,3.878-3.815,3.847,3.847,0,0,1-3.878,3.815" transform="translate(370.756 -54.97)" fill="#fff"/>
      <path id="Trazado_212874" data-name="Trazado 212874" d="M72.806,234.807a3.764,3.764,0,1,1,3.825-3.763,3.794,3.794,0,0,1-3.825,3.763" transform="translate(329.593 -54.986)" fill="#fff"/>
      <path id="Trazado_212875" data-name="Trazado 212875" d="M94.812,234.771a3.711,3.711,0,1,1,3.772-3.711,3.742,3.742,0,0,1-3.772,3.711" transform="translate(288.427 -55.003)" fill="#fff"/>
      <path id="Trazado_212876" data-name="Trazado 212876" d="M116.825,234.7a3.607,3.607,0,1,1,3.666-3.606,3.636,3.636,0,0,1-3.666,3.606" transform="translate(247.255 -55.037)" fill="#fff"/>
      <path id="Trazado_212877" data-name="Trazado 212877" d="M138.839,234.629a3.5,3.5,0,1,1,3.56-3.5,3.531,3.531,0,0,1-3.56,3.5" transform="translate(206.082 -55.07)" fill="#fff"/>
      <path id="Trazado_212878" data-name="Trazado 212878" d="M160.859,234.522a3.345,3.345,0,1,1,3.4-3.345,3.373,3.373,0,0,1-3.4,3.345" transform="translate(164.902 -55.12)" fill="#fff"/>
      <path id="Trazado_212879" data-name="Trazado 212879" d="M182.881,234.415a3.188,3.188,0,1,1,3.241-3.188,3.215,3.215,0,0,1-3.241,3.188" transform="translate(123.721 -55.17)" fill="#fff"/>
      <path id="Trazado_212880" data-name="Trazado 212880" d="M204.9,234.308a3.032,3.032,0,1,1,3.082-3.032,3.057,3.057,0,0,1-3.082,3.032" transform="translate(82.541 -55.22)" fill="#fff"/>
      <path id="Trazado_212881" data-name="Trazado 212881" d="M226.931,234.167a2.823,2.823,0,1,1,2.869-2.822,2.846,2.846,0,0,1-2.869,2.822" transform="translate(41.352 -55.287)" fill="#fff"/>
      <path id="Trazado_212882" data-name="Trazado 212882" d="M248.959,234.024a2.613,2.613,0,1,1,2.656-2.613,2.635,2.635,0,0,1-2.656,2.613" transform="translate(0.165 -55.354)" fill="#fff"/>
      <path id="Trazado_212883" data-name="Trazado 212883" d="M270.981,233.917a2.456,2.456,0,1,1,2.5-2.456,2.477,2.477,0,0,1-2.5,2.456" transform="translate(-41.017 -55.404)" fill="#fff"/>
      <path id="Trazado_212884" data-name="Trazado 212884" d="M293.017,233.739a2.2,2.2,0,1,1,2.231-2.2,2.213,2.213,0,0,1-2.231,2.2" transform="translate(-82.212 -55.487)" fill="#fff"/>
      <path id="Trazado_212885" data-name="Trazado 212885" d="M315.046,233.6a1.986,1.986,0,1,1,2.019-1.986,2,2,0,0,1-2.019,1.986" transform="translate(-123.399 -55.554)" fill="#fff"/>
      <path id="Trazado_212886" data-name="Trazado 212886" d="M337.083,233.419a1.725,1.725,0,1,1,1.753-1.725,1.739,1.739,0,0,1-1.753,1.725" transform="translate(-164.596 -55.637)" fill="#fff"/>
      <path id="Trazado_212887" data-name="Trazado 212887" d="M359.112,233.276a1.516,1.516,0,1,1,1.541-1.515,1.528,1.528,0,0,1-1.541,1.515" transform="translate(-205.784 -55.704)" fill="#fff"/>
      <path id="Trazado_212888" data-name="Trazado 212888" d="M381.149,233.1a1.254,1.254,0,1,1,1.275-1.255,1.265,1.265,0,0,1-1.275,1.255" transform="translate(-246.981 -55.787)" fill="#fff"/>
      <path id="Trazado_212889" data-name="Trazado 212889" d="M403.185,232.921a.993.993,0,1,1,1.009-.993,1,1,0,0,1-1.009.993" transform="translate(-288.176 -55.871)" fill="#fff"/>
      <path id="Trazado_212890" data-name="Trazado 212890" d="M425.215,232.779a.784.784,0,1,1,.8-.784.791.791,0,0,1-.8.784" transform="translate(-329.366 -55.937)" fill="#fff"/>
      <path id="Trazado_212891" data-name="Trazado 212891" d="M447.251,232.6a.523.523,0,1,1,.531-.522.527.527,0,0,1-.531.522" transform="translate(-370.561 -56.021)" fill="#fff"/>
      <path id="Trazado_212892" data-name="Trazado 212892" d="M469.289,232.422a.261.261,0,1,1,.266-.261.263.263,0,0,1-.266.261" transform="translate(-411.758 -56.104)" fill="#fff"/>
      <path id="Trazado_212893" data-name="Trazado 212893" d="M491.317,232.281a.052.052,0,1,1,.053-.052.053.053,0,0,1-.053.052" transform="translate(-452.945 -56.171)" fill="#fff"/>
      <path id="Trazado_212894" data-name="Trazado 212894" d="M6.846,259.528a3.554,3.554,0,1,1,3.613-3.554,3.584,3.584,0,0,1-3.613,3.554" transform="translate(453.031 -61.069)" fill="#fff"/>
      <path id="Trazado_212895" data-name="Trazado 212895" d="M28.843,259.528a3.554,3.554,0,1,1,3.613-3.554,3.584,3.584,0,0,1-3.613,3.554" transform="translate(411.875 -61.069)" fill="#fff"/>
      <path id="Trazado_212896" data-name="Trazado 212896" d="M50.841,259.528a3.554,3.554,0,1,1,3.613-3.554,3.584,3.584,0,0,1-3.613,3.554" transform="translate(370.717 -61.069)" fill="#fff"/>
      <path id="Trazado_212897" data-name="Trazado 212897" d="M72.846,259.492a3.5,3.5,0,1,1,3.56-3.5,3.531,3.531,0,0,1-3.56,3.5" transform="translate(329.553 -61.085)" fill="#fff"/>
      <path id="Trazado_212898" data-name="Trazado 212898" d="M94.852,259.456a3.45,3.45,0,1,1,3.507-3.449,3.479,3.479,0,0,1-3.507,3.449" transform="translate(288.388 -61.102)" fill="#fff"/>
      <path id="Trazado_212899" data-name="Trazado 212899" d="M116.864,259.385a3.345,3.345,0,1,1,3.4-3.345,3.373,3.373,0,0,1-3.4,3.345" transform="translate(247.216 -61.135)" fill="#fff"/>
      <path id="Trazado_212900" data-name="Trazado 212900" d="M138.878,259.314a3.241,3.241,0,1,1,3.294-3.241,3.268,3.268,0,0,1-3.294,3.241" transform="translate(206.042 -61.168)" fill="#fff"/>
      <path id="Trazado_212901" data-name="Trazado 212901" d="M160.891,259.242a3.136,3.136,0,1,1,3.188-3.136,3.162,3.162,0,0,1-3.188,3.136" transform="translate(164.871 -61.202)" fill="#fff"/>
      <path id="Trazado_212902" data-name="Trazado 212902" d="M182.912,259.135a2.98,2.98,0,1,1,3.028-2.979,3,3,0,0,1-3.028,2.979" transform="translate(123.689 -61.252)" fill="#fff"/>
      <path id="Trazado_212903" data-name="Trazado 212903" d="M204.933,259.029a2.823,2.823,0,1,1,2.869-2.822,2.846,2.846,0,0,1-2.869,2.822" transform="translate(82.51 -61.302)" fill="#fff"/>
      <path id="Trazado_212904" data-name="Trazado 212904" d="M226.963,258.887a2.613,2.613,0,1,1,2.656-2.613,2.635,2.635,0,0,1-2.656,2.613" transform="translate(41.321 -61.369)" fill="#fff"/>
      <path id="Trazado_212905" data-name="Trazado 212905" d="M248.983,258.78a2.456,2.456,0,1,1,2.5-2.456,2.477,2.477,0,0,1-2.5,2.456" transform="translate(0.141 -61.419)" fill="#fff"/>
      <path id="Trazado_212906" data-name="Trazado 212906" d="M271.013,258.638a2.248,2.248,0,1,1,2.285-2.248,2.266,2.266,0,0,1-2.285,2.248" transform="translate(-41.048 -61.485)" fill="#fff"/>
      <path id="Trazado_212907" data-name="Trazado 212907" d="M293.049,258.459a1.986,1.986,0,1,1,2.019-1.986,2,2,0,0,1-2.019,1.986" transform="translate(-82.243 -61.569)" fill="#fff"/>
      <path id="Trazado_212908" data-name="Trazado 212908" d="M315.077,258.317a1.777,1.777,0,1,1,1.806-1.777,1.792,1.792,0,0,1-1.806,1.777" transform="translate(-123.431 -61.635)" fill="#fff"/>
      <path id="Trazado_212909" data-name="Trazado 212909" d="M337.107,258.175a1.568,1.568,0,1,1,1.594-1.568,1.581,1.581,0,0,1-1.594,1.568" transform="translate(-164.62 -61.702)" fill="#fff"/>
      <path id="Trazado_212910" data-name="Trazado 212910" d="M359.143,258a1.307,1.307,0,1,1,1.328-1.307A1.318,1.318,0,0,1,359.143,258" transform="translate(-205.815 -61.786)" fill="#fff"/>
      <path id="Trazado_212911" data-name="Trazado 212911" d="M381.173,257.854a1.1,1.1,0,1,1,1.116-1.1,1.106,1.106,0,0,1-1.116,1.1" transform="translate(-247.005 -61.852)" fill="#fff"/>
      <path id="Trazado_212912" data-name="Trazado 212912" d="M403.209,257.676a.836.836,0,1,1,.85-.836.843.843,0,0,1-.85.836" transform="translate(-288.2 -61.936)" fill="#fff"/>
      <path id="Trazado_212913" data-name="Trazado 212913" d="M425.238,257.535a.627.627,0,1,1,.638-.627.632.632,0,0,1-.638.627" transform="translate(-329.389 -62.002)" fill="#fff"/>
      <path id="Trazado_212914" data-name="Trazado 212914" d="M447.275,257.357a.366.366,0,1,1,.372-.366.369.369,0,0,1-.372.366" transform="translate(-370.584 -62.086)" fill="#fff"/>
      <path id="Trazado_212915" data-name="Trazado 212915" d="M469.312,257.178a.1.1,0,1,1,.106-.1.105.105,0,0,1-.106.1" transform="translate(-411.782 -62.169)" fill="#fff"/>
      <path id="Trazado_212916" data-name="Trazado 212916" d="M6.893,284.177a3.241,3.241,0,1,1,3.294-3.241,3.268,3.268,0,0,1-3.294,3.241" transform="translate(452.983 -67.184)" fill="#fff"/>
      <path id="Trazado_212917" data-name="Trazado 212917" d="M28.89,284.177a3.241,3.241,0,1,1,3.294-3.241,3.268,3.268,0,0,1-3.294,3.241" transform="translate(411.828 -67.184)" fill="#fff"/>
      <path id="Trazado_212918" data-name="Trazado 212918" d="M50.888,284.177a3.241,3.241,0,1,1,3.294-3.241,3.268,3.268,0,0,1-3.294,3.241" transform="translate(370.67 -67.184)" fill="#fff"/>
      <path id="Trazado_212919" data-name="Trazado 212919" d="M72.893,284.141a3.188,3.188,0,1,1,3.241-3.188,3.215,3.215,0,0,1-3.241,3.188" transform="translate(329.506 -67.2)" fill="#fff"/>
      <path id="Trazado_212920" data-name="Trazado 212920" d="M94.9,284.105a3.136,3.136,0,1,1,3.188-3.136,3.162,3.162,0,0,1-3.188,3.136" transform="translate(288.34 -67.217)" fill="#fff"/>
      <path id="Trazado_212921" data-name="Trazado 212921" d="M116.9,284.07a3.084,3.084,0,1,1,3.135-3.084,3.11,3.11,0,0,1-3.135,3.084" transform="translate(247.177 -67.234)" fill="#fff"/>
      <path id="Trazado_212922" data-name="Trazado 212922" d="M138.917,284a2.98,2.98,0,1,1,3.028-2.979A3,3,0,0,1,138.917,284" transform="translate(206.003 -67.267)" fill="#fff"/>
      <path id="Trazado_212923" data-name="Trazado 212923" d="M160.93,283.927a2.875,2.875,0,1,1,2.922-2.875,2.9,2.9,0,0,1-2.922,2.875" transform="translate(164.831 -67.3)" fill="#fff"/>
      <path id="Trazado_212924" data-name="Trazado 212924" d="M182.952,283.82a2.718,2.718,0,1,1,2.763-2.718,2.74,2.74,0,0,1-2.763,2.718" transform="translate(123.65 -67.35)" fill="#fff"/>
      <path id="Trazado_212925" data-name="Trazado 212925" d="M204.972,283.713a2.561,2.561,0,1,1,2.6-2.561,2.582,2.582,0,0,1-2.6,2.561" transform="translate(82.47 -67.4)" fill="#fff"/>
      <path id="Trazado_212926" data-name="Trazado 212926" d="M226.994,283.606a2.4,2.4,0,1,1,2.444-2.4,2.424,2.424,0,0,1-2.444,2.4" transform="translate(41.289 -67.45)" fill="#fff"/>
      <path id="Trazado_212927" data-name="Trazado 212927" d="M249.022,283.465a2.2,2.2,0,1,1,2.231-2.2,2.213,2.213,0,0,1-2.231,2.2" transform="translate(0.102 -67.517)" fill="#fff"/>
      <path id="Trazado_212928" data-name="Trazado 212928" d="M271.052,283.322a1.986,1.986,0,1,1,2.019-1.986,2,2,0,0,1-2.019,1.986" transform="translate(-41.088 -67.584)" fill="#fff"/>
      <path id="Trazado_212929" data-name="Trazado 212929" d="M293.08,283.18a1.777,1.777,0,1,1,1.806-1.777,1.792,1.792,0,0,1-1.806,1.777" transform="translate(-82.275 -67.65)" fill="#fff"/>
      <path id="Trazado_212930" data-name="Trazado 212930" d="M315.109,283.037a1.568,1.568,0,1,1,1.594-1.568,1.581,1.581,0,0,1-1.594,1.568" transform="translate(-123.462 -67.717)" fill="#fff"/>
      <path id="Trazado_212931" data-name="Trazado 212931" d="M337.138,282.9a1.359,1.359,0,1,1,1.381-1.359,1.37,1.37,0,0,1-1.381,1.359" transform="translate(-164.652 -67.784)" fill="#fff"/>
      <path id="Trazado_212932" data-name="Trazado 212932" d="M359.167,282.753a1.15,1.15,0,1,1,1.169-1.15,1.16,1.16,0,0,1-1.169,1.15" transform="translate(-205.839 -67.851)" fill="#fff"/>
      <path id="Trazado_212933" data-name="Trazado 212933" d="M381.2,282.611a.941.941,0,1,1,.956-.941.949.949,0,0,1-.956.941" transform="translate(-247.028 -67.917)" fill="#fff"/>
      <path id="Trazado_212934" data-name="Trazado 212934" d="M403.233,282.433a.68.68,0,1,1,.691-.679.685.685,0,0,1-.691.679" transform="translate(-288.224 -68.001)" fill="#fff"/>
      <path id="Trazado_212935" data-name="Trazado 212935" d="M425.262,282.291a.47.47,0,1,1,.478-.47.474.474,0,0,1-.478.47" transform="translate(-329.413 -68.068)" fill="#fff"/>
      <path id="Trazado_212936" data-name="Trazado 212936" d="M447.3,282.113a.209.209,0,1,1,.213-.209.211.211,0,0,1-.213.209" transform="translate(-370.608 -68.151)" fill="#fff"/>
      <path id="Trazado_212937" data-name="Trazado 212937" d="M6.932,308.861a2.98,2.98,0,1,1,3.028-2.979,3,3,0,0,1-3.028,2.979" transform="translate(452.944 -73.282)" fill="#fff"/>
      <path id="Trazado_212938" data-name="Trazado 212938" d="M28.929,308.861a2.98,2.98,0,1,1,3.028-2.979,3,3,0,0,1-3.028,2.979" transform="translate(411.788 -73.282)" fill="#fff"/>
      <path id="Trazado_212939" data-name="Trazado 212939" d="M50.927,308.861a2.98,2.98,0,1,1,3.028-2.979,3,3,0,0,1-3.028,2.979" transform="translate(370.63 -73.282)" fill="#fff"/>
      <path id="Trazado_212940" data-name="Trazado 212940" d="M72.932,308.826a2.927,2.927,0,1,1,2.975-2.927,2.951,2.951,0,0,1-2.975,2.927" transform="translate(329.467 -73.299)" fill="#fff"/>
      <path id="Trazado_212941" data-name="Trazado 212941" d="M94.938,308.79a2.875,2.875,0,1,1,2.922-2.875,2.9,2.9,0,0,1-2.922,2.875" transform="translate(288.301 -73.315)" fill="#fff"/>
      <path id="Trazado_212942" data-name="Trazado 212942" d="M116.951,308.719a2.77,2.77,0,1,1,2.816-2.77,2.794,2.794,0,0,1-2.816,2.77" transform="translate(247.129 -73.349)" fill="#fff"/>
      <path id="Trazado_212943" data-name="Trazado 212943" d="M138.957,308.683a2.718,2.718,0,1,1,2.763-2.718,2.74,2.74,0,0,1-2.763,2.718" transform="translate(205.964 -73.365)" fill="#fff"/>
      <path id="Trazado_212944" data-name="Trazado 212944" d="M160.969,308.612A2.613,2.613,0,1,1,163.626,306a2.635,2.635,0,0,1-2.656,2.613" transform="translate(164.792 -73.399)" fill="#fff"/>
      <path id="Trazado_212945" data-name="Trazado 212945" d="M182.991,308.505a2.457,2.457,0,1,1,2.5-2.456,2.477,2.477,0,0,1-2.5,2.456" transform="translate(123.611 -73.449)" fill="#fff"/>
      <path id="Trazado_212946" data-name="Trazado 212946" d="M205.012,308.4a2.3,2.3,0,1,1,2.338-2.3,2.319,2.319,0,0,1-2.338,2.3" transform="translate(82.431 -73.499)" fill="#fff"/>
      <path id="Trazado_212947" data-name="Trazado 212947" d="M227.033,308.291a2.143,2.143,0,1,1,2.178-2.143,2.161,2.161,0,0,1-2.178,2.143" transform="translate(41.25 -73.549)" fill="#fff"/>
      <path id="Trazado_212948" data-name="Trazado 212948" d="M249.054,308.185a1.986,1.986,0,1,1,2.019-1.986,2,2,0,0,1-2.019,1.986" transform="translate(0.07 -73.599)" fill="#fff"/>
      <path id="Trazado_212949" data-name="Trazado 212949" d="M271.083,308.043a1.777,1.777,0,1,1,1.806-1.777,1.792,1.792,0,0,1-1.806,1.777" transform="translate(-41.119 -73.666)" fill="#fff"/>
      <path id="Trazado_212950" data-name="Trazado 212950" d="M293.112,307.9a1.568,1.568,0,1,1,1.594-1.568,1.581,1.581,0,0,1-1.594,1.568" transform="translate(-82.306 -73.732)" fill="#fff"/>
      <path id="Trazado_212951" data-name="Trazado 212951" d="M315.132,307.793a1.411,1.411,0,1,1,1.435-1.411,1.422,1.422,0,0,1-1.435,1.411" transform="translate(-123.486 -73.782)" fill="#fff"/>
      <path id="Trazado_212952" data-name="Trazado 212952" d="M337.162,307.652a1.2,1.2,0,1,1,1.222-1.2,1.212,1.212,0,0,1-1.222,1.2" transform="translate(-164.675 -73.849)" fill="#fff"/>
      <path id="Trazado_212953" data-name="Trazado 212953" d="M359.19,307.509a.993.993,0,1,1,1.009-.993,1,1,0,0,1-1.009.993" transform="translate(-205.863 -73.916)" fill="#fff"/>
      <path id="Trazado_212954" data-name="Trazado 212954" d="M381.228,307.331a.732.732,0,1,1,.744-.731.737.737,0,0,1-.744.731" transform="translate(-247.06 -73.999)" fill="#fff"/>
      <path id="Trazado_212955" data-name="Trazado 212955" d="M403.256,307.188a.523.523,0,1,1,.531-.522.527.527,0,0,1-.531.522" transform="translate(-288.247 -74.066)" fill="#fff"/>
      <path id="Trazado_212956" data-name="Trazado 212956" d="M425.286,307.047a.313.313,0,1,1,.319-.314.316.316,0,0,1-.319.314" transform="translate(-329.436 -74.133)" fill="#fff"/>
      <path id="Trazado_212957" data-name="Trazado 212957" d="M447.322,306.869a.052.052,0,1,1,.053-.052.053.053,0,0,1-.053.052" transform="translate(-370.632 -74.216)" fill="#fff"/>
      <path id="Trazado_212958" data-name="Trazado 212958" d="M6.98,333.511a2.666,2.666,0,1,1,2.71-2.665,2.688,2.688,0,0,1-2.71,2.665" transform="translate(452.897 -79.397)" fill="#fff"/>
      <path id="Trazado_212959" data-name="Trazado 212959" d="M28.977,333.511a2.666,2.666,0,1,1,2.71-2.665,2.688,2.688,0,0,1-2.71,2.665" transform="translate(411.741 -79.397)" fill="#fff"/>
      <path id="Trazado_212960" data-name="Trazado 212960" d="M50.975,333.511a2.666,2.666,0,1,1,2.71-2.665,2.688,2.688,0,0,1-2.71,2.665" transform="translate(370.583 -79.397)" fill="#fff"/>
      <path id="Trazado_212961" data-name="Trazado 212961" d="M72.972,333.511a2.666,2.666,0,1,1,2.71-2.665,2.688,2.688,0,0,1-2.71,2.665" transform="translate(329.427 -79.397)" fill="#fff"/>
      <path id="Trazado_212962" data-name="Trazado 212962" d="M94.985,333.439a2.561,2.561,0,1,1,2.6-2.561,2.582,2.582,0,0,1-2.6,2.561" transform="translate(288.254 -79.431)" fill="#fff"/>
      <path id="Trazado_212963" data-name="Trazado 212963" d="M116.99,333.4a2.509,2.509,0,1,1,2.55-2.508,2.53,2.53,0,0,1-2.55,2.508" transform="translate(247.09 -79.447)" fill="#fff"/>
      <path id="Trazado_212964" data-name="Trazado 212964" d="M139,333.368a2.457,2.457,0,1,1,2.5-2.456,2.477,2.477,0,0,1-2.5,2.456" transform="translate(205.924 -79.464)" fill="#fff"/>
      <path id="Trazado_212965" data-name="Trazado 212965" d="M161.017,333.261a2.3,2.3,0,1,1,2.338-2.3,2.319,2.319,0,0,1-2.338,2.3" transform="translate(164.745 -79.514)" fill="#fff"/>
      <path id="Trazado_212966" data-name="Trazado 212966" d="M183.03,333.19a2.2,2.2,0,1,1,2.231-2.2,2.213,2.213,0,0,1-2.231,2.2" transform="translate(123.571 -79.547)" fill="#fff"/>
      <path id="Trazado_212967" data-name="Trazado 212967" d="M205.051,333.084a2.039,2.039,0,1,1,2.072-2.038,2.055,2.055,0,0,1-2.072,2.038" transform="translate(82.392 -79.597)" fill="#fff"/>
      <path id="Trazado_212968" data-name="Trazado 212968" d="M227.073,332.977a1.882,1.882,0,1,1,1.913-1.882,1.9,1.9,0,0,1-1.913,1.882" transform="translate(41.21 -79.647)" fill="#fff"/>
      <path id="Trazado_212969" data-name="Trazado 212969" d="M249.093,332.87a1.725,1.725,0,1,1,1.753-1.725,1.739,1.739,0,0,1-1.753,1.725" transform="translate(0.031 -79.697)" fill="#fff"/>
      <path id="Trazado_212970" data-name="Trazado 212970" d="M271.115,332.763a1.568,1.568,0,1,1,1.594-1.568,1.581,1.581,0,0,1-1.594,1.568" transform="translate(-41.15 -79.747)" fill="#fff"/>
      <path id="Trazado_212971" data-name="Trazado 212971" d="M293.143,332.621a1.359,1.359,0,1,1,1.381-1.359,1.371,1.371,0,0,1-1.381,1.359" transform="translate(-82.338 -79.814)" fill="#fff"/>
      <path id="Trazado_212972" data-name="Trazado 212972" d="M315.164,332.514a1.2,1.2,0,1,1,1.222-1.2,1.212,1.212,0,0,1-1.222,1.2" transform="translate(-123.517 -79.864)" fill="#fff"/>
      <path id="Trazado_212973" data-name="Trazado 212973" d="M337.193,332.372a.993.993,0,1,1,1.01-.993,1,1,0,0,1-1.01.993" transform="translate(-164.707 -79.931)" fill="#fff"/>
      <path id="Trazado_212974" data-name="Trazado 212974" d="M359.222,332.23a.784.784,0,1,1,.8-.784.791.791,0,0,1-.8.784" transform="translate(-205.894 -79.998)" fill="#fff"/>
      <path id="Trazado_212975" data-name="Trazado 212975" d="M381.251,332.087a.575.575,0,1,1,.584-.575.579.579,0,0,1-.584.575" transform="translate(-247.083 -80.064)" fill="#fff"/>
      <path id="Trazado_212976" data-name="Trazado 212976" d="M403.28,331.945a.366.366,0,1,1,.372-.366.369.369,0,0,1-.372.366" transform="translate(-288.271 -80.131)" fill="#fff"/>
      <path id="Trazado_212977" data-name="Trazado 212977" d="M425.317,331.767a.1.1,0,1,1,.106-.1.106.106,0,0,1-.106.1" transform="translate(-329.468 -80.215)" fill="#fff"/>
      <path id="Trazado_212978" data-name="Trazado 212978" d="M7.027,358.16a2.352,2.352,0,1,1,2.391-2.352,2.372,2.372,0,0,1-2.391,2.352" transform="translate(452.85 -85.512)" fill="#fff"/>
      <path id="Trazado_212979" data-name="Trazado 212979" d="M29.016,358.2a2.4,2.4,0,1,1,2.444-2.4,2.424,2.424,0,0,1-2.444,2.4" transform="translate(411.702 -85.496)" fill="#fff"/>
      <path id="Trazado_212980" data-name="Trazado 212980" d="M51.014,358.2a2.4,2.4,0,1,1,2.444-2.4,2.424,2.424,0,0,1-2.444,2.4" transform="translate(370.544 -85.496)" fill="#fff"/>
      <path id="Trazado_212981" data-name="Trazado 212981" d="M73.019,358.16a2.352,2.352,0,1,1,2.391-2.352,2.372,2.372,0,0,1-2.391,2.352" transform="translate(329.38 -85.512)" fill="#fff"/>
      <path id="Trazado_212982" data-name="Trazado 212982" d="M95.025,358.124a2.3,2.3,0,1,1,2.338-2.3,2.319,2.319,0,0,1-2.338,2.3" transform="translate(288.214 -85.529)" fill="#fff"/>
      <path id="Trazado_212983" data-name="Trazado 212983" d="M117.03,358.089a2.248,2.248,0,1,1,2.285-2.248,2.266,2.266,0,0,1-2.285,2.248" transform="translate(247.051 -85.546)" fill="#fff"/>
      <path id="Trazado_212984" data-name="Trazado 212984" d="M139.043,358.017a2.143,2.143,0,1,1,2.178-2.143,2.161,2.161,0,0,1-2.178,2.143" transform="translate(205.877 -85.579)" fill="#fff"/>
      <path id="Trazado_212985" data-name="Trazado 212985" d="M161.056,357.946a2.039,2.039,0,1,1,2.072-2.038,2.055,2.055,0,0,1-2.072,2.038" transform="translate(164.705 -85.612)" fill="#fff"/>
      <path id="Trazado_212986" data-name="Trazado 212986" d="M183.07,357.875a1.934,1.934,0,1,1,1.966-1.934,1.95,1.95,0,0,1-1.966,1.934" transform="translate(123.532 -85.646)" fill="#fff"/>
      <path id="Trazado_212987" data-name="Trazado 212987" d="M205.09,357.768a1.777,1.777,0,1,1,1.806-1.777,1.792,1.792,0,0,1-1.806,1.777" transform="translate(82.352 -85.696)" fill="#fff"/>
      <path id="Trazado_212988" data-name="Trazado 212988" d="M227.1,357.7a1.673,1.673,0,1,1,1.7-1.672,1.687,1.687,0,0,1-1.7,1.672" transform="translate(41.179 -85.729)" fill="#fff"/>
      <path id="Trazado_212989" data-name="Trazado 212989" d="M249.125,357.591a1.516,1.516,0,1,1,1.541-1.516,1.528,1.528,0,0,1-1.541,1.516" transform="translate(-0.001 -85.779)" fill="#fff"/>
      <path id="Trazado_212990" data-name="Trazado 212990" d="M271.154,357.448a1.307,1.307,0,1,1,1.328-1.307,1.318,1.318,0,0,1-1.328,1.307" transform="translate(-41.19 -85.846)" fill="#fff"/>
      <path id="Trazado_212991" data-name="Trazado 212991" d="M293.175,357.341a1.15,1.15,0,1,1,1.169-1.15,1.159,1.159,0,0,1-1.169,1.15" transform="translate(-82.369 -85.896)" fill="#fff"/>
      <path id="Trazado_212992" data-name="Trazado 212992" d="M315.2,357.234a.993.993,0,1,1,1.009-.993,1,1,0,0,1-1.009.993" transform="translate(-123.549 -85.946)" fill="#fff"/>
      <path id="Trazado_212993" data-name="Trazado 212993" d="M337.225,357.092a.784.784,0,1,1,.8-.784.791.791,0,0,1-.8.784" transform="translate(-164.738 -86.013)" fill="#fff"/>
      <path id="Trazado_212994" data-name="Trazado 212994" d="M359.253,356.95a.575.575,0,1,1,.584-.575.579.579,0,0,1-.584.575" transform="translate(-205.926 -86.079)" fill="#fff"/>
      <path id="Trazado_212995" data-name="Trazado 212995" d="M381.283,356.807a.366.366,0,1,1,.372-.366.369.369,0,0,1-.372.366" transform="translate(-247.115 -86.146)" fill="#fff"/>
      <path id="Trazado_212996" data-name="Trazado 212996" d="M403.311,356.665a.157.157,0,1,1,.159-.157.158.158,0,0,1-.159.157" transform="translate(-288.302 -86.213)" fill="#fff"/>
      <path id="Trazado_212997" data-name="Trazado 212997" d="M7.066,382.845a2.091,2.091,0,1,1,2.125-2.091,2.107,2.107,0,0,1-2.125,2.091" transform="translate(452.81 -91.611)" fill="#fff"/>
      <path id="Trazado_212998" data-name="Trazado 212998" d="M29.063,382.845a2.091,2.091,0,1,1,2.125-2.091,2.107,2.107,0,0,1-2.125,2.091" transform="translate(411.654 -91.611)" fill="#fff"/>
      <path id="Trazado_212999" data-name="Trazado 212999" d="M51.061,382.845a2.091,2.091,0,1,1,2.125-2.091,2.107,2.107,0,0,1-2.125,2.091" transform="translate(370.497 -91.611)" fill="#fff"/>
      <path id="Trazado_213000" data-name="Trazado 213000" d="M73.066,382.809a2.039,2.039,0,1,1,2.072-2.039,2.056,2.056,0,0,1-2.072,2.039" transform="translate(329.333 -91.627)" fill="#fff"/>
      <path id="Trazado_213001" data-name="Trazado 213001" d="M95.072,382.773a1.986,1.986,0,1,1,2.019-1.986,2,2,0,0,1-2.019,1.986" transform="translate(288.167 -91.644)" fill="#fff"/>
      <path id="Trazado_213002" data-name="Trazado 213002" d="M117.077,382.738a1.934,1.934,0,1,1,1.966-1.934,1.95,1.95,0,0,1-1.966,1.934" transform="translate(247.003 -91.661)" fill="#fff"/>
      <path id="Trazado_213003" data-name="Trazado 213003" d="M139.083,382.7A1.882,1.882,0,1,1,141,380.82a1.9,1.9,0,0,1-1.913,1.882" transform="translate(205.838 -91.677)" fill="#fff"/>
      <path id="Trazado_213004" data-name="Trazado 213004" d="M161.1,382.631a1.777,1.777,0,1,1,1.806-1.777,1.792,1.792,0,0,1-1.806,1.777" transform="translate(164.666 -91.711)" fill="#fff"/>
      <path id="Trazado_213005" data-name="Trazado 213005" d="M183.109,382.559a1.673,1.673,0,1,1,1.7-1.672,1.687,1.687,0,0,1-1.7,1.672" transform="translate(123.493 -91.744)" fill="#fff"/>
      <path id="Trazado_213006" data-name="Trazado 213006" d="M205.13,382.452a1.516,1.516,0,1,1,1.541-1.515,1.528,1.528,0,0,1-1.541,1.515" transform="translate(82.313 -91.794)" fill="#fff"/>
      <path id="Trazado_213007" data-name="Trazado 213007" d="M227.143,382.381a1.411,1.411,0,1,1,1.434-1.411,1.422,1.422,0,0,1-1.434,1.411" transform="translate(41.14 -91.827)" fill="#fff"/>
      <path id="Trazado_213008" data-name="Trazado 213008" d="M249.164,382.275a1.254,1.254,0,1,1,1.275-1.255,1.265,1.265,0,0,1-1.275,1.255" transform="translate(-0.04 -91.878)" fill="#fff"/>
      <path id="Trazado_213009" data-name="Trazado 213009" d="M271.186,382.168a1.1,1.1,0,1,1,1.116-1.1,1.107,1.107,0,0,1-1.116,1.1" transform="translate(-41.221 -91.928)" fill="#fff"/>
      <path id="Trazado_213010" data-name="Trazado 213010" d="M293.206,382.061a.941.941,0,1,1,.956-.941.949.949,0,0,1-.956.941" transform="translate(-82.401 -91.978)" fill="#fff"/>
      <path id="Trazado_213011" data-name="Trazado 213011" d="M315.235,381.919a.732.732,0,1,1,.744-.731.738.738,0,0,1-.744.731" transform="translate(-123.588 -92.044)" fill="#fff"/>
      <path id="Trazado_213012" data-name="Trazado 213012" d="M337.256,381.812a.575.575,0,1,1,.584-.575.579.579,0,0,1-.584.575" transform="translate(-164.77 -92.094)" fill="#fff"/>
      <path id="Trazado_213013" data-name="Trazado 213013" d="M359.285,381.67a.366.366,0,1,1,.372-.366.369.369,0,0,1-.372.366" transform="translate(-205.957 -92.161)" fill="#fff"/>
      <path id="Trazado_213014" data-name="Trazado 213014" d="M381.314,381.528a.157.157,0,1,1,.159-.157.158.158,0,0,1-.159.157" transform="translate(-247.146 -92.228)" fill="#fff"/>
      <path id="Trazado_213015" data-name="Trazado 213015" d="M7.113,407.494a1.777,1.777,0,1,1,1.806-1.777,1.792,1.792,0,0,1-1.806,1.777" transform="translate(452.763 -97.726)" fill="#fff"/>
      <path id="Trazado_213016" data-name="Trazado 213016" d="M29.11,407.494a1.777,1.777,0,1,1,1.806-1.777,1.792,1.792,0,0,1-1.806,1.777" transform="translate(411.607 -97.726)" fill="#fff"/>
      <path id="Trazado_213017" data-name="Trazado 213017" d="M51.108,407.494a1.777,1.777,0,1,1,1.806-1.777,1.792,1.792,0,0,1-1.806,1.777" transform="translate(370.449 -97.726)" fill="#fff"/>
      <path id="Trazado_213018" data-name="Trazado 213018" d="M73.105,407.494a1.777,1.777,0,1,1,1.806-1.777,1.792,1.792,0,0,1-1.806,1.777" transform="translate(329.293 -97.726)" fill="#fff"/>
      <path id="Trazado_213019" data-name="Trazado 213019" d="M95.111,407.458a1.725,1.725,0,1,1,1.753-1.725,1.739,1.739,0,0,1-1.753,1.725" transform="translate(288.128 -97.743)" fill="#fff"/>
      <path id="Trazado_213020" data-name="Trazado 213020" d="M117.116,407.422a1.673,1.673,0,1,1,1.7-1.672,1.687,1.687,0,0,1-1.7,1.672" transform="translate(246.964 -97.759)" fill="#fff"/>
      <path id="Trazado_213021" data-name="Trazado 213021" d="M139.13,407.351a1.568,1.568,0,1,1,1.594-1.568,1.581,1.581,0,0,1-1.594,1.568" transform="translate(205.791 -97.793)" fill="#fff"/>
      <path id="Trazado_213022" data-name="Trazado 213022" d="M161.135,407.315a1.516,1.516,0,1,1,1.541-1.515,1.528,1.528,0,0,1-1.541,1.515" transform="translate(164.627 -97.809)" fill="#fff"/>
      <path id="Trazado_213023" data-name="Trazado 213023" d="M183.149,407.244a1.411,1.411,0,1,1,1.434-1.411,1.423,1.423,0,0,1-1.434,1.411" transform="translate(123.453 -97.843)" fill="#fff"/>
      <path id="Trazado_213024" data-name="Trazado 213024" d="M205.169,407.137a1.254,1.254,0,1,1,1.275-1.255,1.265,1.265,0,0,1-1.275,1.255" transform="translate(82.274 -97.893)" fill="#fff"/>
      <path id="Trazado_213025" data-name="Trazado 213025" d="M227.183,407.066a1.15,1.15,0,1,1,1.169-1.15,1.16,1.16,0,0,1-1.169,1.15" transform="translate(41.1 -97.926)" fill="#fff"/>
      <path id="Trazado_213026" data-name="Trazado 213026" d="M249.2,406.96a.993.993,0,1,1,1.009-.993,1,1,0,0,1-1.009.993" transform="translate(-0.079 -97.976)" fill="#fff"/>
      <path id="Trazado_213027" data-name="Trazado 213027" d="M271.225,406.853a.836.836,0,1,1,.85-.836.843.843,0,0,1-.85.836" transform="translate(-41.261 -98.026)" fill="#fff"/>
      <path id="Trazado_213028" data-name="Trazado 213028" d="M293.246,406.746a.68.68,0,1,1,.691-.679.685.685,0,0,1-.691.679" transform="translate(-82.44 -98.076)" fill="#fff"/>
      <path id="Trazado_213029" data-name="Trazado 213029" d="M315.266,406.639a.523.523,0,1,1,.531-.522.527.527,0,0,1-.531.522" transform="translate(-123.62 -98.126)" fill="#fff"/>
      <path id="Trazado_213030" data-name="Trazado 213030" d="M337.288,406.532a.366.366,0,1,1,.372-.366.369.369,0,0,1-.372.366" transform="translate(-164.801 -98.176)" fill="#fff"/>
      <path id="Trazado_213031" data-name="Trazado 213031" d="M359.316,406.39a.157.157,0,1,1,.159-.157.158.158,0,0,1-.159.157" transform="translate(-205.989 -98.243)" fill="#fff"/>
      <path id="Trazado_213032" data-name="Trazado 213032" d="M7.153,432.178a1.516,1.516,0,1,1,1.541-1.515,1.528,1.528,0,0,1-1.541,1.515" transform="translate(452.724 -103.824)" fill="#fff"/>
      <path id="Trazado_213033" data-name="Trazado 213033" d="M29.15,432.178a1.516,1.516,0,1,1,1.541-1.515,1.528,1.528,0,0,1-1.541,1.515" transform="translate(411.568 -103.824)" fill="#fff"/>
      <path id="Trazado_213034" data-name="Trazado 213034" d="M51.148,432.178a1.516,1.516,0,1,1,1.541-1.515,1.528,1.528,0,0,1-1.541,1.515" transform="translate(370.41 -103.824)" fill="#fff"/>
      <path id="Trazado_213035" data-name="Trazado 213035" d="M73.153,432.143a1.464,1.464,0,1,1,1.488-1.463,1.476,1.476,0,0,1-1.488,1.463" transform="translate(329.246 -103.841)" fill="#fff"/>
      <path id="Trazado_213036" data-name="Trazado 213036" d="M95.159,432.107a1.411,1.411,0,1,1,1.435-1.411,1.422,1.422,0,0,1-1.435,1.411" transform="translate(288.081 -103.858)" fill="#fff"/>
      <path id="Trazado_213037" data-name="Trazado 213037" d="M117.163,432.072a1.359,1.359,0,1,1,1.381-1.359,1.371,1.371,0,0,1-1.381,1.359" transform="translate(246.917 -103.874)" fill="#fff"/>
      <path id="Trazado_213038" data-name="Trazado 213038" d="M139.169,432.036a1.307,1.307,0,1,1,1.328-1.307,1.318,1.318,0,0,1-1.328,1.307" transform="translate(205.751 -103.891)" fill="#fff"/>
      <path id="Trazado_213039" data-name="Trazado 213039" d="M161.182,431.965a1.2,1.2,0,1,1,1.222-1.2,1.212,1.212,0,0,1-1.222,1.2" transform="translate(164.58 -103.925)" fill="#fff"/>
      <path id="Trazado_213040" data-name="Trazado 213040" d="M183.188,431.929a1.15,1.15,0,1,1,1.169-1.15,1.16,1.16,0,0,1-1.169,1.15" transform="translate(123.414 -103.941)" fill="#fff"/>
      <path id="Trazado_213041" data-name="Trazado 213041" d="M205.208,431.822a.993.993,0,1,1,1.009-.993,1,1,0,0,1-1.009.993" transform="translate(82.234 -103.991)" fill="#fff"/>
      <path id="Trazado_213042" data-name="Trazado 213042" d="M227.222,431.751a.889.889,0,1,1,.9-.888.9.9,0,0,1-.9.888" transform="translate(41.061 -104.024)" fill="#fff"/>
      <path id="Trazado_213043" data-name="Trazado 213043" d="M249.235,431.68a.784.784,0,1,1,.8-.784.791.791,0,0,1-.8.784" transform="translate(-0.111 -104.058)" fill="#fff"/>
      <path id="Trazado_213044" data-name="Trazado 213044" d="M271.256,431.574a.627.627,0,1,1,.638-.627.632.632,0,0,1-.638.627" transform="translate(-41.292 -104.108)" fill="#fff"/>
      <path id="Trazado_213045" data-name="Trazado 213045" d="M293.277,431.467a.47.47,0,1,1,.478-.47.474.474,0,0,1-.478.47" transform="translate(-82.472 -104.158)" fill="#fff"/>
      <path id="Trazado_213046" data-name="Trazado 213046" d="M315.3,431.36a.314.314,0,1,1,.319-.314.316.316,0,0,1-.319.314" transform="translate(-123.651 -104.208)" fill="#fff"/>
      <path id="Trazado_213047" data-name="Trazado 213047" d="M337.327,431.217a.1.1,0,1,1,.106-.1.106.106,0,0,1-.106.1" transform="translate(-164.84 -104.275)" fill="#fff"/>
      <path id="Trazado_213048" data-name="Trazado 213048" d="M7.2,456.828a1.2,1.2,0,1,1,1.222-1.2,1.212,1.212,0,0,1-1.222,1.2" transform="translate(452.677 -109.94)" fill="#fff"/>
      <path id="Trazado_213049" data-name="Trazado 213049" d="M29.2,456.828a1.2,1.2,0,1,1,1.222-1.2,1.212,1.212,0,0,1-1.222,1.2" transform="translate(411.521 -109.94)" fill="#fff"/>
      <path id="Trazado_213050" data-name="Trazado 213050" d="M51.195,456.828a1.2,1.2,0,1,1,1.222-1.2,1.212,1.212,0,0,1-1.222,1.2" transform="translate(370.363 -109.94)" fill="#fff"/>
      <path id="Trazado_213051" data-name="Trazado 213051" d="M73.192,456.828a1.2,1.2,0,1,1,1.222-1.2,1.212,1.212,0,0,1-1.222,1.2" transform="translate(329.207 -109.94)" fill="#fff"/>
      <path id="Trazado_213052" data-name="Trazado 213052" d="M95.2,456.792a1.15,1.15,0,1,1,1.169-1.15,1.16,1.16,0,0,1-1.169,1.15" transform="translate(288.041 -109.956)" fill="#fff"/>
      <path id="Trazado_213053" data-name="Trazado 213053" d="M117.2,456.756a1.1,1.1,0,1,1,1.116-1.1,1.107,1.107,0,0,1-1.116,1.1" transform="translate(246.877 -109.973)" fill="#fff"/>
      <path id="Trazado_213054" data-name="Trazado 213054" d="M139.209,456.721a1.046,1.046,0,1,1,1.063-1.045,1.054,1.054,0,0,1-1.063,1.045" transform="translate(205.712 -109.99)" fill="#fff"/>
      <path id="Trazado_213055" data-name="Trazado 213055" d="M161.221,456.649a.941.941,0,1,1,.956-.941.949.949,0,0,1-.956.941" transform="translate(164.54 -110.023)" fill="#fff"/>
      <path id="Trazado_213056" data-name="Trazado 213056" d="M183.235,456.578a.836.836,0,1,1,.85-.836.843.843,0,0,1-.85.836" transform="translate(123.367 -110.056)" fill="#fff"/>
      <path id="Trazado_213057" data-name="Trazado 213057" d="M205.248,456.507a.732.732,0,1,1,.744-.731.737.737,0,0,1-.744.731" transform="translate(82.195 -110.089)" fill="#fff"/>
      <path id="Trazado_213058" data-name="Trazado 213058" d="M227.262,456.435a.627.627,0,1,1,.638-.627.632.632,0,0,1-.638.627" transform="translate(41.021 -110.123)" fill="#fff"/>
      <path id="Trazado_213059" data-name="Trazado 213059" d="M249.274,456.364a.523.523,0,1,1,.531-.522.527.527,0,0,1-.531.522" transform="translate(-0.15 -110.156)" fill="#fff"/>
      <path id="Trazado_213060" data-name="Trazado 213060" d="M271.3,456.258a.366.366,0,1,1,.372-.366.369.369,0,0,1-.372.366" transform="translate(-41.332 -110.207)" fill="#fff"/>
      <path id="Trazado_213061" data-name="Trazado 213061" d="M293.317,456.152a.209.209,0,1,1,.213-.209.21.21,0,0,1-.213.209" transform="translate(-82.511 -110.257)" fill="#fff"/>
      <path id="Trazado_213062" data-name="Trazado 213062" d="M315.337,456.045a.052.052,0,1,1,.053-.052.053.053,0,0,1-.053.052" transform="translate(-123.691 -110.306)" fill="#fff"/>
      <path id="Trazado_213063" data-name="Trazado 213063" d="M7.239,481.512a.941.941,0,1,1,.956-.941.949.949,0,0,1-.956.941" transform="translate(452.637 -116.038)" fill="#fff"/>
      <path id="Trazado_213064" data-name="Trazado 213064" d="M29.236,481.512a.941.941,0,1,1,.956-.941.949.949,0,0,1-.956.941" transform="translate(411.481 -116.038)" fill="#fff"/>
      <path id="Trazado_213065" data-name="Trazado 213065" d="M51.234,481.512a.941.941,0,1,1,.956-.941.949.949,0,0,1-.956.941" transform="translate(370.323 -116.038)" fill="#fff"/>
      <path id="Trazado_213066" data-name="Trazado 213066" d="M73.239,481.477a.889.889,0,1,1,.9-.888.9.9,0,0,1-.9.888" transform="translate(329.16 -116.055)" fill="#fff"/>
      <path id="Trazado_213067" data-name="Trazado 213067" d="M95.237,481.477a.889.889,0,1,1,.9-.888.9.9,0,0,1-.9.888" transform="translate(288.002 -116.055)" fill="#fff"/>
      <path id="Trazado_213068" data-name="Trazado 213068" d="M117.242,481.441a.836.836,0,1,1,.85-.836.843.843,0,0,1-.85.836" transform="translate(246.838 -116.071)" fill="#fff"/>
      <path id="Trazado_213069" data-name="Trazado 213069" d="M139.256,481.37a.732.732,0,1,1,.744-.732.738.738,0,0,1-.744.732" transform="translate(205.665 -116.105)" fill="#fff"/>
      <path id="Trazado_213070" data-name="Trazado 213070" d="M161.261,481.334a.68.68,0,1,1,.691-.679.685.685,0,0,1-.691.679" transform="translate(164.501 -116.121)" fill="#fff"/>
      <path id="Trazado_213071" data-name="Trazado 213071" d="M183.274,481.263a.575.575,0,1,1,.584-.575.579.579,0,0,1-.584.575" transform="translate(123.327 -116.155)" fill="#fff"/>
      <path id="Trazado_213072" data-name="Trazado 213072" d="M205.287,481.192a.47.47,0,1,1,.478-.47.474.474,0,0,1-.478.47" transform="translate(82.156 -116.188)" fill="#fff"/>
      <path id="Trazado_213073" data-name="Trazado 213073" d="M227.3,481.12a.366.366,0,1,1,.372-.366.369.369,0,0,1-.372.366" transform="translate(40.982 -116.221)" fill="#fff"/>
      <path id="Trazado_213074" data-name="Trazado 213074" d="M249.314,481.049a.261.261,0,1,1,.266-.261.264.264,0,0,1-.266.261" transform="translate(-0.19 -116.255)" fill="#fff"/>
      <path id="Trazado_213075" data-name="Trazado 213075" d="M271.335,480.943a.1.1,0,1,1,.106-.1.106.106,0,0,1-.106.1" transform="translate(-41.371 -116.305)" fill="#fff"/>
      <path id="Trazado_213076" data-name="Trazado 213076" d="M7.287,506.161a.627.627,0,1,1,.638-.627.632.632,0,0,1-.638.627" transform="translate(452.59 -122.153)" fill="#fff"/>
      <path id="Trazado_213077" data-name="Trazado 213077" d="M29.284,506.161a.627.627,0,1,1,.638-.627.632.632,0,0,1-.638.627" transform="translate(411.434 -122.153)" fill="#fff"/>
      <path id="Trazado_213078" data-name="Trazado 213078" d="M51.282,506.161a.627.627,0,1,1,.638-.627.632.632,0,0,1-.638.627" transform="translate(370.276 -122.153)" fill="#fff"/>
      <path id="Trazado_213079" data-name="Trazado 213079" d="M73.279,506.161a.627.627,0,1,1,.638-.627.632.632,0,0,1-.638.627" transform="translate(329.12 -122.153)" fill="#fff"/>
      <path id="Trazado_213080" data-name="Trazado 213080" d="M95.284,506.126a.575.575,0,1,1,.584-.575.579.579,0,0,1-.584.575" transform="translate(287.955 -122.17)" fill="#fff"/>
      <path id="Trazado_213081" data-name="Trazado 213081" d="M117.289,506.09a.523.523,0,1,1,.531-.522.527.527,0,0,1-.531.522" transform="translate(246.791 -122.186)" fill="#fff"/>
      <path id="Trazado_213082" data-name="Trazado 213082" d="M139.3,506.055a.47.47,0,1,1,.478-.47.474.474,0,0,1-.478.47" transform="translate(205.625 -122.203)" fill="#fff"/>
      <path id="Trazado_213083" data-name="Trazado 213083" d="M161.3,506.019a.418.418,0,1,1,.425-.418.422.422,0,0,1-.425.418" transform="translate(164.461 -122.22)" fill="#fff"/>
      <path id="Trazado_213084" data-name="Trazado 213084" d="M183.314,505.948a.313.313,0,1,1,.319-.314.316.316,0,0,1-.319.314" transform="translate(123.288 -122.253)" fill="#fff"/>
      <path id="Trazado_213085" data-name="Trazado 213085" d="M205.326,505.876a.209.209,0,1,1,.213-.209.21.21,0,0,1-.213.209" transform="translate(82.116 -122.287)" fill="#fff"/>
      <path id="Trazado_213086" data-name="Trazado 213086" d="M227.34,505.806a.1.1,0,1,1,.106-.1.106.106,0,0,1-.106.1" transform="translate(40.943 -122.32)" fill="#fff"/>
      <path id="Trazado_213087" data-name="Trazado 213087" d="M249.345,505.77a.052.052,0,1,1,.053-.052.053.053,0,0,1-.053.052" transform="translate(-0.221 -122.337)" fill="#fff"/>
      <path id="Trazado_213088" data-name="Trazado 213088" d="M7.334,530.811a.313.313,0,1,1,.319-.314.316.316,0,0,1-.319.314" transform="translate(452.543 -128.268)" fill="#fff"/>
      <path id="Trazado_213089" data-name="Trazado 213089" d="M29.323,530.846a.366.366,0,1,1,.372-.366.369.369,0,0,1-.372.366" transform="translate(411.395 -128.252)" fill="#fff"/>
      <path id="Trazado_213090" data-name="Trazado 213090" d="M51.321,530.846a.366.366,0,1,1,.372-.366.369.369,0,0,1-.372.366" transform="translate(370.237 -128.252)" fill="#fff"/>
      <path id="Trazado_213091" data-name="Trazado 213091" d="M73.326,530.811a.313.313,0,1,1,.319-.314.316.316,0,0,1-.319.314" transform="translate(329.073 -128.268)" fill="#fff"/>
      <path id="Trazado_213092" data-name="Trazado 213092" d="M95.324,530.811a.313.313,0,1,1,.319-.314.316.316,0,0,1-.319.314" transform="translate(287.915 -128.268)" fill="#fff"/>
      <path id="Trazado_213093" data-name="Trazado 213093" d="M117.329,530.775a.261.261,0,1,1,.266-.262.264.264,0,0,1-.266.262" transform="translate(246.752 -128.285)" fill="#fff"/>
      <path id="Trazado_213094" data-name="Trazado 213094" d="M139.335,530.74a.209.209,0,1,1,.213-.209.211.211,0,0,1-.213.209" transform="translate(205.586 -128.302)" fill="#fff"/>
      <path id="Trazado_213095" data-name="Trazado 213095" d="M161.347,530.668a.1.1,0,1,1,.106-.1.106.106,0,0,1-.106.1" transform="translate(164.414 -128.335)" fill="#fff"/>
      <path id="Trazado_213096" data-name="Trazado 213096" d="M183.353,530.633a.052.052,0,1,1,.053-.052.053.053,0,0,1-.053.052" transform="translate(123.249 -128.352)" fill="#fff"/>
      <path id="Trazado_213097" data-name="Trazado 213097" d="M7.373,555.5a.052.052,0,1,1,.053-.052.053.053,0,0,1-.053.052" transform="translate(452.503 -134.367)" fill="#fff"/>
      <path id="Trazado_213098" data-name="Trazado 213098" d="M29.37,555.5a.052.052,0,1,1,.053-.052.053.053,0,0,1-.053.052" transform="translate(411.347 -134.367)" fill="#fff"/>
      <path id="Trazado_213099" data-name="Trazado 213099" d="M51.368,555.5a.052.052,0,1,1,.053-.052.053.053,0,0,1-.053.052" transform="translate(370.19 -134.367)" fill="#fff"/>
      <path id="Trazado_213100" data-name="Trazado 213100" d="M73.365,555.5a.052.052,0,1,1,.053-.052.053.053,0,0,1-.053.052" transform="translate(329.034 -134.367)" fill="#fff"/>
      <path id="Trazado_213101" data-name="Trazado 213101" d="M95.363,555.5a.052.052,0,1,1,.053-.052.053.053,0,0,1-.053.052" transform="translate(287.876 -134.367)" fill="#fff"/>
    </g>
  </g>
</svg>
