<svg xmlns="http://www.w3.org/2000/svg" xmlns:xlink="http://www.w3.org/1999/xlink" width="85" height="85" viewBox="0 0 85 85">
  <defs>
    <clipPath id="clip-path">
      <rect id="Rect치ngulo_293156" data-name="Rect치ngulo 293156" width="59.422" height="57.76" fill="none"/>
    </clipPath>
  </defs>
  <g id="Grupo_873933" data-name="Grupo 873933" transform="translate(-180 -4450)">
    <rect id="Rect치ngulo_293155" data-name="Rect치ngulo 293155" width="85" height="85" rx="42.5" transform="translate(180 4450)" fill="#ffeeb0"/>
    <g id="Grupo_873922" data-name="Grupo 873922" transform="translate(192.774 4462.62)" clip-path="url(#clip-path)">
      <path id="Trazado_595110" data-name="Trazado 595110" d="M200.826,163.2H192.5a.709.709,0,0,1,0-1.417h8.327a.709.709,0,1,1,0,1.417" transform="translate(-142.372 -120.1)" fill="#344154"/>
      <path id="Trazado_595111" data-name="Trazado 595111" d="M82.575,196.209a4.852,4.852,0,1,1,4.852-4.852,4.857,4.857,0,0,1-4.852,4.852m0-8.286a3.434,3.434,0,1,0,3.434,3.434,3.438,3.438,0,0,0-3.434-3.434" transform="translate(-57.697 -138.449)" fill="#344154"/>
      <path id="Trazado_595112" data-name="Trazado 595112" d="M48.835,196.209A4.852,4.852,0,1,1,52.2,187.87a.708.708,0,1,1-.984,1.019,3.434,3.434,0,1,0,0,4.937.709.709,0,1,1,.984,1.02,4.825,4.825,0,0,1-3.368,1.363" transform="translate(-32.651 -138.449)" fill="#344154"/>
      <path id="Trazado_595113" data-name="Trazado 595113" d="M58.713,127.806H53.78a.709.709,0,1,1,0-1.417H58v-2.266a52.225,52.225,0,0,0-2.708-16.6,5.567,5.567,0,0,0-5.17-3.48H45.844v12.609a3.836,3.836,0,0,1-3.832,3.832H1.417v3.681a2.227,2.227,0,0,0,2.225,2.225H8.593a.709.709,0,0,1,0,1.417H3.642A3.646,3.646,0,0,1,0,124.165v-4.389a.709.709,0,0,1,.709-.709h41.3a2.418,2.418,0,0,0,2.415-2.415V103.334a.709.709,0,0,1,.709-.709h4.991a6.92,6.92,0,0,1,6.505,4.421,53.7,53.7,0,0,1,2.79,17.077V127.1a.709.709,0,0,1-.709.709" transform="translate(0 -76.182)" fill="#344154"/>
      <path id="Trazado_595114" data-name="Trazado 595114" d="M180.639,196.209a4.852,4.852,0,1,1,4.852-4.852,4.857,4.857,0,0,1-4.852,4.852m0-8.286a3.434,3.434,0,1,0,3.435,3.434,3.438,3.438,0,0,0-3.435-3.434" transform="translate(-130.493 -138.449)" fill="#344154"/>
      <path id="Trazado_595115" data-name="Trazado 595115" d="M133.178,196.27h-10.9a.709.709,0,0,1,0-1.417h10.9a.709.709,0,0,1,0,1.417" transform="translate(-90.245 -144.646)" fill="#344154"/>
      <path id="Trazado_595116" data-name="Trazado 595116" d="M173.128,91.634a.709.709,0,0,1-.709-.709V86.619a.709.709,0,1,1,1.417,0v4.307a.709.709,0,0,1-.709.709" transform="translate(-127.992 -63.774)" fill="#344154"/>
      <path id="Trazado_595117" data-name="Trazado 595117" d="M43.362,75.513H4.944a.709.709,0,0,1,0-1.417H43.362a.383.383,0,0,0,.383-.383V47.983a.709.709,0,1,1,1.417,0v25.73a1.8,1.8,0,0,1-1.8,1.8" transform="translate(-3.144 -35.093)" fill="#344154"/>
      <path id="Trazado_595118" data-name="Trazado 595118" d="M104.295,99.863a.709.709,0,0,1-.709-.709V85.669H90.809V99.155a.709.709,0,0,1-1.417,0V84.961a.709.709,0,0,1,.709-.709h14.194a.709.709,0,0,1,.709.709V99.155a.709.709,0,0,1-.709.709" transform="translate(-66.359 -62.543)" fill="#344154"/>
      <path id="Trazado_595119" data-name="Trazado 595119" d="M68.685,31.678a.709.709,0,0,1-.709-.709V17.483H55.2V30.969a.709.709,0,1,1-1.417,0V16.775a.709.709,0,0,1,.709-.709H68.685a.709.709,0,0,1,.709.709V30.969a.709.709,0,0,1-.709.709" transform="translate(-39.924 -11.926)" fill="#344154"/>
      <path id="Trazado_595120" data-name="Trazado 595120" d="M32.654,99.863a.709.709,0,0,1-.709-.709V85.669H19.168V99.155a.709.709,0,1,1-1.417,0V84.961a.709.709,0,0,1,.709-.709H32.654a.709.709,0,0,1,.709.709V99.155a.709.709,0,0,1-.709.709" transform="translate(-13.177 -62.543)" fill="#344154"/>
      <path id="Trazado_595121" data-name="Trazado 595121" d="M154.191,17.483H138.216a.709.709,0,1,1,0-1.417h15.976a.709.709,0,1,1,0,1.417" transform="translate(-102.076 -11.926)" fill="#344154"/>
      <path id="Trazado_595122" data-name="Trazado 595122" d="M200.284,9.7a.708.708,0,0,1-.5-1.209l3.6-3.605L199.716,1.21a.708.708,0,0,1,1-1l4.173,4.173a.708.708,0,0,1,0,1l-4.106,4.106a.707.707,0,0,1-.5.208" transform="translate(-148.102 0)" fill="#344154"/>
      <path id="Trazado_595123" data-name="Trazado 595123" d="M67.532,29.817v7.52a12.706,12.706,0,0,1,8.526,0v-7.52Z" transform="translate(-50.131 -22.134)" fill="#ffce1d"/>
      <path id="Trazado_595124" data-name="Trazado 595124" d="M31.5,97.018v7.52a12.706,12.706,0,0,1,8.526,0v-7.52Z" transform="translate(-23.384 -72.02)" fill="#ffce1d"/>
      <path id="Trazado_595125" data-name="Trazado 595125" d="M103.142,97.018v7.52a12.706,12.706,0,0,1,8.526,0v-7.52Z" transform="translate(-76.566 -72.02)" fill="#ffce1d"/>
    </g>
  </g>
</svg>
