<svg xmlns="http://www.w3.org/2000/svg" width="295" height="350" viewBox="0 0 295 350">
  <g id="Grupo_874362" data-name="Grupo 874362" transform="translate(-496 -3868)">
    <rect id="Rectángulo_35183" data-name="Rectángulo 35183" width="295" height="350" rx="20" transform="translate(496 3868)" fill="#ebe3f9"/>
    <path id="Trazado_596924" data-name="Trazado 596924" d="M18.152,21h-2.93l-5.7-9.355V21H6.59V6.781H9.52l5.713,9.375V6.781h2.92ZM23.5,21H20.672V10.434H23.5Zm-3-13.3a1.39,1.39,0,0,1,.425-1.045,1.831,1.831,0,0,1,2.31,0A1.382,1.382,0,0,1,23.67,7.7a1.386,1.386,0,0,1-.435,1.055,1.81,1.81,0,0,1-2.295,0A1.386,1.386,0,0,1,20.506,7.7ZM30.223,18.92a1.851,1.851,0,0,0,1.27-.43A1.506,1.506,0,0,0,32,17.348h2.646a3.62,3.62,0,0,1-.586,1.968A3.866,3.866,0,0,1,32.483,20.7a4.936,4.936,0,0,1-2.212.493,4.587,4.587,0,0,1-3.574-1.44,5.7,5.7,0,0,1-1.309-3.979V15.59a5.635,5.635,0,0,1,1.3-3.9,4.534,4.534,0,0,1,3.564-1.455,4.444,4.444,0,0,1,3.179,1.128,3.994,3.994,0,0,1,1.216,3H32a1.939,1.939,0,0,0-.508-1.34,1.887,1.887,0,0,0-2.778.2,4.166,4.166,0,0,0-.5,2.333v.293a4.219,4.219,0,0,0,.5,2.347A1.721,1.721,0,0,0,30.223,18.92Zm8.789-7.334a3.522,3.522,0,0,1,2.822-1.348q3.438,0,3.486,3.994V21H42.5V14.311a1.963,1.963,0,0,0-.391-1.343,1.675,1.675,0,0,0-1.3-.435,1.921,1.921,0,0,0-1.8.957V21H36.189V6h2.822Zm8,4.033a6.267,6.267,0,0,1,.605-2.8,4.432,4.432,0,0,1,1.743-1.9A5.086,5.086,0,0,1,52,10.238a4.812,4.812,0,0,1,3.491,1.309A5.252,5.252,0,0,1,57,15.1l.02.723a5.523,5.523,0,0,1-1.357,3.9,5.261,5.261,0,0,1-7.29,0,5.62,5.62,0,0,1-1.362-3.984Zm2.822.2a3.95,3.95,0,0,0,.566,2.3,2.035,2.035,0,0,0,3.223.01,4.322,4.322,0,0,0,.576-2.518,3.91,3.91,0,0,0-.576-2.289A1.873,1.873,0,0,0,52,12.514a1.842,1.842,0,0,0-1.6.807A4.395,4.395,0,0,0,49.832,15.819ZM63.3,15.639A6.368,6.368,0,0,1,64.407,11.7a3.6,3.6,0,0,1,3.032-1.465,3.236,3.236,0,0,1,2.549,1.152V6H72.82V21H70.271l-.137-1.123A3.321,3.321,0,0,1,67.42,21.2a3.587,3.587,0,0,1-2.993-1.47A6.573,6.573,0,0,1,63.3,15.639Zm2.822.21a4.171,4.171,0,0,0,.518,2.279,1.686,1.686,0,0,0,1.5.792,1.888,1.888,0,0,0,1.846-1.105V13.638a1.861,1.861,0,0,0-1.826-1.105Q66.121,12.533,66.121,15.849ZM79.871,21.2a5.187,5.187,0,0,1-3.784-1.426,5.068,5.068,0,0,1-1.46-3.8V15.7a6.383,6.383,0,0,1,.615-2.847,4.515,4.515,0,0,1,1.743-1.934,4.893,4.893,0,0,1,2.573-.679,4.385,4.385,0,0,1,3.413,1.367,5.555,5.555,0,0,1,1.245,3.877v1.152H77.488a2.622,2.622,0,0,0,.825,1.66,2.5,2.5,0,0,0,1.743.625,3.046,3.046,0,0,0,2.549-1.182l1.387,1.553a4.237,4.237,0,0,1-1.719,1.4A5.639,5.639,0,0,1,79.871,21.2Zm-.322-8.682a1.764,1.764,0,0,0-1.362.569,2.946,2.946,0,0,0-.669,1.628h3.926v-.226a2.1,2.1,0,0,0-.508-1.457A1.819,1.819,0,0,0,79.549,12.514Zm13.9-2.08.088,1.182a3.713,3.713,0,0,1,3.037-1.377,2.818,2.818,0,0,1,2.8,1.611,3.628,3.628,0,0,1,3.174-1.611,3.152,3.152,0,0,1,2.559,1,4.6,4.6,0,0,1,.84,3.013V21h-2.832V14.262a2.012,2.012,0,0,0-.352-1.313,1.558,1.558,0,0,0-1.24-.415,1.762,1.762,0,0,0-1.758,1.211L99.773,21H96.951V14.271a1.988,1.988,0,0,0-.361-1.328,1.573,1.573,0,0,0-1.23-.41,1.829,1.829,0,0,0-1.738,1V21H90.8V10.434ZM112.977,21.2a5.187,5.187,0,0,1-3.784-1.426,5.068,5.068,0,0,1-1.46-3.8V15.7a6.383,6.383,0,0,1,.615-2.847,4.515,4.515,0,0,1,1.743-1.934,4.893,4.893,0,0,1,2.573-.679,4.385,4.385,0,0,1,3.413,1.367,5.555,5.555,0,0,1,1.245,3.877v1.152h-6.729a2.622,2.622,0,0,0,.825,1.66,2.5,2.5,0,0,0,1.743.625,3.046,3.046,0,0,0,2.549-1.182l1.387,1.553a4.237,4.237,0,0,1-1.719,1.4A5.639,5.639,0,0,1,112.977,21.2Zm-.322-8.682a1.764,1.764,0,0,0-1.362.569,2.946,2.946,0,0,0-.669,1.628h3.926v-.226a2.1,2.1,0,0,0-.508-1.457A1.819,1.819,0,0,0,112.654,12.514Zm12.207.566A7.667,7.667,0,0,0,123.846,13a2.067,2.067,0,0,0-2.1,1.084V21h-2.822V10.434h2.666l.078,1.26a2.615,2.615,0,0,1,2.354-1.455,2.957,2.957,0,0,1,.879.127Zm5.566,5.84a1.851,1.851,0,0,0,1.27-.43,1.506,1.506,0,0,0,.508-1.143h2.646a3.62,3.62,0,0,1-.586,1.968,3.866,3.866,0,0,1-1.577,1.387,4.936,4.936,0,0,1-2.212.493,4.587,4.587,0,0,1-3.574-1.44,5.7,5.7,0,0,1-1.309-3.979V15.59a5.635,5.635,0,0,1,1.3-3.9,4.534,4.534,0,0,1,3.564-1.455,4.444,4.444,0,0,1,3.179,1.128,3.994,3.994,0,0,1,1.216,3h-2.646a1.939,1.939,0,0,0-.508-1.34,1.887,1.887,0,0,0-2.778.2,4.166,4.166,0,0,0-.5,2.333v.293a4.219,4.219,0,0,0,.5,2.347A1.721,1.721,0,0,0,130.428,18.92ZM142.586,21a3.134,3.134,0,0,1-.283-.947,3.415,3.415,0,0,1-2.666,1.143,3.752,3.752,0,0,1-2.573-.9,2.889,2.889,0,0,1-1.021-2.266,2.986,2.986,0,0,1,1.245-2.578,6.144,6.144,0,0,1,3.6-.908h1.3v-.605a1.741,1.741,0,0,0-.376-1.172,1.479,1.479,0,0,0-1.187-.439,1.682,1.682,0,0,0-1.118.342,1.161,1.161,0,0,0-.405.938h-2.822a2.835,2.835,0,0,1,.566-1.7,3.744,3.744,0,0,1,1.6-1.226,5.837,5.837,0,0,1,2.324-.444,4.611,4.611,0,0,1,3.1.981,3.433,3.433,0,0,1,1.147,2.759v4.58a5.052,5.052,0,0,0,.42,2.275V21Zm-2.334-1.963a2.431,2.431,0,0,0,1.152-.278,1.828,1.828,0,0,0,.781-.747V16.2h-1.055q-2.119,0-2.256,1.465l-.01.166a1.13,1.13,0,0,0,.371.869A1.441,1.441,0,0,0,140.252,19.037Zm6.494-3.4a6.368,6.368,0,0,1,1.108-3.936,3.6,3.6,0,0,1,3.032-1.465,3.236,3.236,0,0,1,2.549,1.152V6h2.832V21h-2.549l-.137-1.123a3.321,3.321,0,0,1-2.715,1.318,3.587,3.587,0,0,1-2.993-1.47A6.573,6.573,0,0,1,146.746,15.639Zm2.822.21a4.171,4.171,0,0,0,.518,2.279,1.686,1.686,0,0,0,1.5.792,1.888,1.888,0,0,0,1.846-1.105V13.638a1.861,1.861,0,0,0-1.826-1.105Q149.568,12.533,149.568,15.849Zm8.447-.23a6.267,6.267,0,0,1,.605-2.8,4.432,4.432,0,0,1,1.743-1.9,5.086,5.086,0,0,1,2.642-.674,4.812,4.812,0,0,1,3.491,1.309,5.252,5.252,0,0,1,1.509,3.555l.02.723a5.523,5.523,0,0,1-1.357,3.9,5.261,5.261,0,0,1-7.29,0,5.62,5.62,0,0,1-1.362-3.984Zm2.822.2a3.95,3.95,0,0,0,.566,2.3,2.035,2.035,0,0,0,3.223.01,4.322,4.322,0,0,0,.576-2.518,3.91,3.91,0,0,0-.576-2.289,1.873,1.873,0,0,0-1.621-.812,1.842,1.842,0,0,0-1.6.807A4.395,4.395,0,0,0,160.838,15.819Z" transform="translate(549.645 4109.5)" fill="#12263f"/>
    <g id="grupo-de-edad" transform="translate(576.787 3925.389)">
      <g id="Grupo_55824" data-name="Grupo 55824" transform="translate(1.871 42.079)">
        <g id="Grupo_55820" data-name="Grupo 55820" transform="translate(0 0)">
          <g id="Grupo_55817" data-name="Grupo 55817" transform="translate(0 24.469)">
            <path id="Trazado_102718" data-name="Trazado 102718" d="M30.287,168.837a9.441,9.441,0,1,0-13.477.029C12.6,170,8,172.614,8,178.616V198.8a3.785,3.785,0,0,0,7.569,0v22.707a4.017,4.017,0,1,0,8.034,0,4.017,4.017,0,1,0,8.034,0V198.8a3.785,3.785,0,0,0,7.569,0V178.616c0-6.054-4.684-8.66-8.919-9.779Z" transform="translate(-8 -152.801)" fill="#ffeeb0"/>
          </g>
          <g id="Grupo_55818" data-name="Grupo 55818" transform="translate(38.64)">
            <path id="Trazado_102719" data-name="Trazado 102719" d="M197.887,65.867a10.432,10.432,0,1,0-14.892.033c-4.648,1.254-9.735,4.141-9.735,10.773V107.4a4.182,4.182,0,0,0,8.363,0v33.508a4.439,4.439,0,0,0,8.878,0,4.439,4.439,0,0,0,8.877,0V107.4a4.182,4.182,0,1,0,8.363,0V76.673c0-6.689-5.175-9.569-9.855-10.806Z" transform="translate(-173.26 -48.148)" fill="#ea3584"/>
          </g>
          <g id="Grupo_55819" data-name="Grupo 55819" transform="translate(81.489 10.522)">
            <path id="Trazado_102720" data-name="Trazado 102720" d="M381.149,110.867a10.431,10.431,0,1,0-14.892.033c-4.648,1.254-9.735,4.141-9.735,10.773v22.309a4.182,4.182,0,1,0,8.363,0v31.4a4.439,4.439,0,1,0,8.877,0,4.439,4.439,0,1,0,8.877,0V135.564a4.182,4.182,0,0,0,8.364,0V121.673c0-6.689-5.175-9.569-9.855-10.805Z" transform="translate(-356.522 -93.148)" fill="#ffe0f0"/>
          </g>
        </g>
        <g id="Grupo_55821" data-name="Grupo 55821" transform="translate(7.569 88.971)">
          <path id="Trazado_102721" data-name="Trazado 102721" d="M52.424,432.688a4.009,4.009,0,0,1-3.126-1.494,1.154,1.154,0,0,0-1.782,0,4.017,4.017,0,0,1-7.143-2.523v4.1a4.1,4.1,0,0,0,4.094,4.122,4.017,4.017,0,0,0,3.94-4.016,4.017,4.017,0,0,0,3.94,4.016,4.1,4.1,0,0,0,4.094-4.122v-4.1A4.018,4.018,0,0,1,52.424,432.688Z" transform="translate(-40.373 -428.671)" fill="#ffa726"/>
        </g>
        <g id="Grupo_55822" data-name="Grupo 55822" transform="translate(47.003 88.55)">
          <path id="Trazado_102722" data-name="Trazado 102722" d="M222.347,431.307a4.432,4.432,0,0,1-3.509-1.719,1.173,1.173,0,0,0-1.861,0,4.439,4.439,0,0,1-7.947-2.719v4.1a4.508,4.508,0,0,0,4.277,4.542,4.439,4.439,0,0,0,4.6-4.436,4.439,4.439,0,0,0,4.6,4.436,4.508,4.508,0,0,0,4.277-4.542v-4.1A4.438,4.438,0,0,1,222.347,431.307Z" transform="translate(-209.03 -426.868)" fill="#26ccda" style="mix-blend-mode: multiply;isolation: isolate"/>
        </g>
        <g id="Grupo_55823" data-name="Grupo 55823" transform="translate(89.853 88.55)">
          <path id="Trazado_102723" data-name="Trazado 102723" d="M405.608,431.307a4.43,4.43,0,0,1-3.508-1.719,1.173,1.173,0,0,0-1.861,0,4.439,4.439,0,0,1-7.947-2.719v4.1a4.508,4.508,0,0,0,4.277,4.542,4.439,4.439,0,0,0,4.6-4.436,4.439,4.439,0,0,0,4.6,4.436,4.508,4.508,0,0,0,4.277-4.542v-4.1A4.439,4.439,0,0,1,405.608,431.307Z" transform="translate(-392.292 -426.868)" fill="#f57c00"/>
        </g>
      </g>
      <g id="Grupo_55825" data-name="Grupo 55825" transform="translate(0 40.227)">
        <path id="Trazado_102724" data-name="Trazado 102724" d="M26.977,162.013a11.216,11.216,0,1,0-19.283.046C2.708,164.107,0,167.819,0,172.706V179.2a1.757,1.757,0,0,0,3.514,0v-6.493c0-4.008,2.533-6.724,7.528-8.072a1.757,1.757,0,0,0,.794-2.929,7.7,7.7,0,1,1,10.995-.024,1.757,1.757,0,0,0,.808,2.926c5.062,1.338,7.629,4.063,7.629,8.1v20.229a2.035,2.035,0,1,1-4.07,0V173.927a1.757,1.757,0,1,0-3.514,0v41.759a2.268,2.268,0,1,1-4.536,0V193.26a1.757,1.757,0,1,0-3.514,0v22.427a2.268,2.268,0,1,1-4.536,0V173.927a1.757,1.757,0,1,0-3.514,0v19.008a2.035,2.035,0,1,1-4.07,0v-6.708a1.757,1.757,0,1,0-3.514,0v6.708A5.549,5.549,0,0,0,7.584,198.1v17.589a5.779,5.779,0,0,0,9.807,4.147,5.779,5.779,0,0,0,9.807-4.147V198.1a5.549,5.549,0,0,0,7.584-5.162V172.706c0-4.926-2.748-8.655-7.8-10.693Z" transform="translate(0 -120.567)"/>
        <path id="Trazado_102725" data-name="Trazado 102725" d="M194.937,58.84a12.209,12.209,0,1,0-20.765.049c-5.563,2.216-8.588,6.292-8.588,11.675v30.786a5.947,5.947,0,0,0,8.38,5.426v28.147a6.2,6.2,0,0,0,10.652,4.322,6.2,6.2,0,0,0,10.652-4.322v-8.876a1.757,1.757,0,0,0-3.514,0v8.876a2.69,2.69,0,0,1-5.381,0V101.709a1.757,1.757,0,0,0-3.514,0v33.215a2.69,2.69,0,1,1-5.381,0V71.913a1.757,1.757,0,1,0-3.514,0v29.438a2.433,2.433,0,0,1-4.866,0V70.565c0-4.523,2.845-7.584,8.455-9.1a1.757,1.757,0,0,0,.794-2.929,8.7,8.7,0,1,1,12.412-.027,1.757,1.757,0,0,0,.808,2.926c5.684,1.5,8.567,4.573,8.567,9.128v30.786a2.433,2.433,0,0,1-4.866,0V71.913a1.757,1.757,0,1,0-3.514,0v47.106a1.757,1.757,0,0,0,3.514,0V106.777a5.946,5.946,0,0,0,8.38-5.426V70.565c0-5.425-3.068-9.519-8.71-11.724Z" transform="translate(-126.868 -40.227)"/>
        <path id="Trazado_102726" data-name="Trazado 102726" d="M378.556,103.928a12.209,12.209,0,1,0-20.765.049c-5.563,2.216-8.588,6.292-8.588,11.675v6.471a1.757,1.757,0,0,0,3.514,0v-6.471c0-4.523,2.845-7.584,8.455-9.1a1.757,1.757,0,0,0,.794-2.93,8.7,8.7,0,1,1,12.412-.027,1.757,1.757,0,0,0,.808,2.926c5.684,1.5,8.567,4.573,8.567,9.128v13.918a2.433,2.433,0,0,1-4.866,0V117a1.757,1.757,0,1,0-3.514,0v52.468a2.69,2.69,0,1,1-5.381,0V144.688a1.757,1.757,0,1,0-3.514,0v24.781a2.69,2.69,0,1,1-5.381,0V117a1.757,1.757,0,0,0-3.514,0v21a2.433,2.433,0,0,1-4.866,0v-8.853a1.757,1.757,0,1,0-3.514,0v8.854a5.946,5.946,0,0,0,8.38,5.426v26.038a6.2,6.2,0,0,0,10.652,4.322,6.2,6.2,0,0,0,10.652-4.322V135a5.912,5.912,0,0,0,2.433.521l.073,0v38.4a1.757,1.757,0,0,0,3.514,0V134.31a5.939,5.939,0,0,0,2.36-4.739V115.653c0-5.425-3.069-9.519-8.711-11.724Z" transform="translate(-267.554 -74.773)"/>
      </g>
    </g>
  </g>
</svg>
